<?xml version="1.0" encoding="utf-8"?>
<!-- Generator: Adobe Illustrator 21.0.0, SVG Export Plug-In . SVG Version: 6.00 Build 0)  -->
<svg version="1.1" id="Layer_2" xmlns="http://www.w3.org/2000/svg" xmlns:xlink="http://www.w3.org/1999/xlink" x="0px" y="0px"
	 viewBox="0 0 520 300" style="enable-background:new 0 0 520 300;" xml:space="preserve">
<style type="text/css">
	.st0{fill:#101A25;}
	.st1{fill:#70859B;}
	.st2{fill:#54C695;}
	.st3{fill:none;stroke:#70859B;stroke-miterlimit:10;}
	.st4{fill:#BFE6EC;}
	.st5{fill:#ACB8C5;}
	.st6{fill:#FFFFFF;}
</style>
<title>stack-traditional</title>
<path class="st0" d="M5,0.5h510c2.5,0,4.5,2,4.5,4.5v290c0,2.5-2,4.5-4.5,4.5H5c-2.5,0-4.5-2-4.5-4.5V5C0.5,2.5,2.5,0.5,5,0.5z"/>
<path class="st1" d="M515,1c2.2,0,4,1.8,4,4v290c0,2.2-1.8,4-4,4H5c-2.2,0-4-1.8-4-4V5c0-2.2,1.8-4,4-4H515 M515,0H5
	C2.2,0,0,2.2,0,5v290c0,2.8,2.2,5,5,5h510c2.8,0,5-2.2,5-5V5C520,2.2,517.8,0,515,0z"/>
<path class="st2" d="M197.1,195h321.7v100c0,2.8-2.2,5-5,5H197.1L197.1,195L197.1,195z"/>
<path class="st3" d="M0,50h520 M0,119h520 M0,194.3h520"/>
<path class="st4" d="M204.8,31.7h-1.6l6.1-14.2h1.4l6.1,14.2h-1.6l-1.6-3.7h-7.3L204.8,31.7z M206.9,26.7h6.2l-3.1-7.6L206.9,26.7z
	 M220.2,36.5h-1.4V22.3h1.4v1.6h0.1c0.4-0.6,0.9-1.1,1.6-1.4c0.6-0.3,1.3-0.5,2-0.5c0.7,0,1.4,0.1,2,0.4c0.6,0.2,1.1,0.6,1.5,1
	c0.4,0.4,0.8,1,1,1.6c0.5,1.3,0.5,2.6,0,3.9c-0.2,0.6-0.6,1.1-1,1.6c-0.4,0.4-1,0.8-1.5,1c-0.6,0.3-1.3,0.4-2,0.4
	c-0.7,0-1.4-0.2-2-0.5c-0.6-0.3-1.2-0.8-1.6-1.4h-0.1V36.5L220.2,36.5z M227.2,27c0-0.5-0.1-1-0.2-1.5c-0.1-0.4-0.4-0.8-0.7-1.2
	c-0.3-0.3-0.7-0.6-1.1-0.8c-0.5-0.2-1-0.3-1.5-0.3c-0.5,0-1,0.1-1.4,0.3c-0.4,0.2-0.8,0.5-1.1,0.8c-0.3,0.3-0.6,0.8-0.8,1.2
	c-0.4,1-0.4,2,0,3c0.2,0.4,0.4,0.8,0.8,1.2c0.7,0.7,1.6,1.1,2.6,1.1c0.5,0,1-0.1,1.5-0.3c0.4-0.2,0.8-0.5,1.1-0.8
	c0.3-0.4,0.5-0.8,0.7-1.2C227.1,28,227.2,27.5,227.2,27L227.2,27z M232.9,36.5h-1.4V22.3h1.4v1.6h0.1c0.4-0.6,0.9-1.1,1.6-1.4
	c0.6-0.3,1.3-0.5,2-0.5c0.7,0,1.4,0.1,2,0.4c0.6,0.2,1.1,0.6,1.5,1c0.4,0.4,0.8,1,1,1.6c0.5,1.3,0.5,2.6,0,3.9
	c-0.2,0.6-0.6,1.1-1,1.6c-0.4,0.4-1,0.8-1.5,1c-0.6,0.3-1.3,0.4-2,0.4c-0.7,0-1.4-0.2-2-0.5c-0.6-0.3-1.2-0.8-1.6-1.4h-0.1V36.5
	L232.9,36.5z M239.9,27c0-0.5-0.1-1-0.2-1.5c-0.1-0.4-0.4-0.8-0.7-1.2c-0.3-0.3-0.7-0.6-1.1-0.8c-0.5-0.2-1-0.3-1.5-0.3
	c-0.5,0-1,0.1-1.4,0.3c-0.4,0.2-0.8,0.5-1.1,0.8c-0.3,0.3-0.6,0.8-0.8,1.2c-0.4,1-0.4,2,0,3c0.2,0.4,0.4,0.8,0.8,1.2
	c0.7,0.7,1.6,1.1,2.6,1.1c0.5,0,1-0.1,1.5-0.3c0.4-0.2,0.8-0.5,1.1-0.8c0.3-0.4,0.5-0.8,0.7-1.2C239.8,28,239.9,27.5,239.9,27
	L239.9,27z M245.6,31.7h-1.4V16.6h1.4C245.6,16.6,245.6,31.7,245.6,31.7z M250.9,18.7c0,0.3-0.1,0.5-0.3,0.7c-0.4,0.4-1,0.4-1.3,0
	c-0.4-0.4-0.4-0.9-0.1-1.3c0,0,0,0,0.1-0.1c0.4-0.4,1-0.4,1.3,0C250.8,18.2,250.9,18.4,250.9,18.7z M250.6,31.7h-1.4v-9.4h1.4V31.7
	L250.6,31.7z M261,24.5c-0.2-0.4-0.6-0.7-1-0.9c-0.4-0.2-0.9-0.4-1.4-0.4c-0.5,0-1,0.1-1.5,0.3c-0.4,0.2-0.8,0.5-1.1,0.8
	c-0.3,0.3-0.6,0.8-0.7,1.2c-0.2,0.5-0.3,1-0.3,1.5c0,0.5,0.1,1,0.2,1.5c0.2,0.4,0.4,0.8,0.7,1.2c0.3,0.3,0.7,0.6,1.1,0.8
	c0.5,0.2,1,0.3,1.5,0.3c1,0,1.9-0.4,2.5-1.2l1,0.8c-0.4,0.5-0.9,0.9-1.5,1.2c-0.7,0.3-1.4,0.5-2.1,0.4c-0.7,0-1.4-0.1-2.1-0.4
	c-0.6-0.2-1.1-0.6-1.6-1c-0.4-0.4-0.8-1-1-1.6c-0.5-1.3-0.5-2.7,0-3.9c0.2-0.6,0.6-1.1,1-1.6c0.4-0.4,1-0.8,1.6-1
	c0.7-0.3,1.4-0.4,2.1-0.4c0.7,0,1.3,0.1,1.9,0.4c0.6,0.3,1.2,0.7,1.6,1.2L261,24.5z M270.1,25.6c0.1-0.7-0.2-1.3-0.6-1.8
	c-0.5-0.4-1.2-0.6-1.9-0.6c-0.5,0-1.1,0.1-1.6,0.3c-0.5,0.2-0.9,0.5-1.2,0.8l-0.8-0.9c0.4-0.4,1-0.8,1.5-1c0.7-0.3,1.4-0.4,2.1-0.4
	c0.5,0,1,0.1,1.4,0.2c0.4,0.1,0.8,0.3,1.2,0.6c0.3,0.3,0.6,0.7,0.8,1.1c0.2,0.5,0.3,1,0.3,1.5v5.2c0,0.3,0.1,0.7,0.1,1h-1.2
	c0-0.2-0.1-0.5-0.1-0.7c0-0.3,0-0.5,0-0.8c-0.4,0.6-0.9,1-1.5,1.4c-0.6,0.3-1.3,0.4-2,0.4c-0.4,0-0.7-0.1-1.1-0.1
	c-0.4-0.1-0.7-0.3-1-0.5c-0.3-0.2-0.6-0.5-0.8-0.9c-0.2-0.4-0.3-0.9-0.3-1.3c0-0.6,0.2-1.2,0.5-1.7c0.4-0.4,0.9-0.8,1.5-0.9
	c0.7-0.2,1.4-0.4,2.1-0.4c0.8-0.1,1.6-0.1,2.5-0.1L270.1,25.6L270.1,25.6z M269.8,27c-0.6,0-1.1,0-1.7,0.1c-0.5,0-1,0.1-1.5,0.3
	c-0.4,0.1-0.8,0.3-1.1,0.6c-0.3,0.3-0.4,0.7-0.4,1c0,0.3,0.1,0.6,0.2,0.8c0.1,0.2,0.3,0.4,0.5,0.5c0.2,0.1,0.5,0.2,0.7,0.3
	c0.3,0.1,0.5,0.1,0.8,0.1c0.4,0,0.9-0.1,1.3-0.2c0.4-0.2,0.7-0.4,0.9-0.7c0.3-0.3,0.5-0.6,0.6-1c0.1-0.4,0.2-0.8,0.2-1.2V27H269.8
	L269.8,27z M279,23.5h-2.6v5.5c0,0.3,0,0.6,0.1,0.9c0.1,0.2,0.2,0.4,0.3,0.5c0.1,0.1,0.3,0.2,0.5,0.3c0.2,0,0.4,0.1,0.6,0.1
	c0.2,0,0.4,0,0.6-0.1c0.2-0.1,0.4-0.1,0.6-0.2l0.1,1.2c-0.2,0.1-0.5,0.2-0.8,0.2c-0.3,0-0.6,0.1-0.9,0.1c-0.3,0-0.5,0-0.8-0.1
	c-0.3-0.1-0.6-0.2-0.8-0.4c-0.3-0.2-0.5-0.5-0.6-0.8c-0.2-0.4-0.2-0.8-0.2-1.3v-5.8h-2v-1.1h2v-2.6h1.4v2.6h2.6V23.5z M282.7,18.7
	c0,0.3-0.1,0.5-0.3,0.7c-0.4,0.4-1,0.4-1.3,0c-0.4-0.4-0.4-0.9-0.1-1.3c0,0,0,0,0.1-0.1c0.4-0.4,1-0.4,1.3,0
	C282.6,18.2,282.7,18.4,282.7,18.7z M282.5,31.7h-1.4v-9.4h1.4V31.7L282.5,31.7z M295.4,27c0,0.7-0.1,1.4-0.4,2
	c-0.5,1.2-1.4,2.1-2.6,2.6c-0.6,0.2-1.3,0.4-2,0.4c-0.7,0-1.4-0.1-2-0.4c-1.2-0.5-2.1-1.4-2.6-2.6c-0.5-1.3-0.5-2.7,0-3.9
	c0.5-1.2,1.4-2.1,2.6-2.6c0.6-0.3,1.3-0.4,2-0.4c0.7,0,1.4,0.1,2,0.4c1.2,0.4,2.1,1.4,2.6,2.5C295.3,25.6,295.4,26.3,295.4,27z
	 M293.9,27c0-0.5-0.1-1-0.2-1.5c-0.2-0.4-0.4-0.8-0.7-1.2c-0.3-0.3-0.7-0.6-1.1-0.8c-0.5-0.2-1-0.3-1.5-0.3c-0.5,0-1,0.1-1.5,0.3
	c-0.4,0.2-0.8,0.5-1.1,0.8c-0.3,0.4-0.6,0.8-0.7,1.2c-0.3,1-0.3,2,0,2.9c0.2,0.4,0.4,0.8,0.7,1.2c0.3,0.3,0.7,0.6,1.1,0.8
	c0.5,0.2,1,0.3,1.5,0.3c0.5,0,1-0.1,1.5-0.3c0.4-0.2,0.8-0.5,1.1-0.8c0.3-0.4,0.6-0.8,0.7-1.2C293.8,28,293.9,27.5,293.9,27z
	 M299.5,22.3c0,0.3,0,0.5,0.1,0.8v0.8c0.3-0.6,0.7-1,1.3-1.3c0.6-0.3,1.2-0.5,1.9-0.5c1-0.1,2,0.3,2.7,1.1c0.6,0.8,0.9,1.8,0.9,2.8
	v5.7H305v-5.2c0-0.4,0-0.9-0.1-1.3c-0.1-0.4-0.2-0.7-0.4-1c-0.2-0.3-0.5-0.5-0.8-0.7c-0.4-0.2-0.8-0.3-1.2-0.2c-0.3,0-0.7,0.1-1,0.2
	c-0.3,0.2-0.7,0.4-0.9,0.7c-0.3,0.3-0.5,0.7-0.6,1.1c-0.2,0.5-0.3,1.1-0.2,1.6v4.8h-1.4v-8.3c0-0.4,0-0.8-0.1-1.1L299.5,22.3
	L299.5,22.3z M314.9,24.5c-0.2-0.4-0.5-0.7-0.9-1c-0.4-0.3-0.9-0.4-1.4-0.4c-0.2,0-0.5,0-0.7,0.1c-0.2,0-0.4,0.1-0.6,0.3
	c-0.2,0.1-0.3,0.3-0.5,0.5c-0.1,0.2-0.2,0.4-0.2,0.7c0,0.4,0.2,0.8,0.5,1c0.5,0.3,1.1,0.5,1.7,0.6c0.9,0.1,1.7,0.5,2.5,1
	c0.5,0.4,0.8,1.1,0.8,1.8c0,0.9-0.4,1.7-1.1,2.2c-0.3,0.2-0.7,0.4-1.1,0.5c-0.4,0.1-0.8,0.1-1.3,0.1c-0.7,0-1.4-0.2-2.1-0.4
	c-0.7-0.3-1.2-0.8-1.6-1.4l1.1-0.8c0.6,0.9,1.5,1.5,2.6,1.5c0.3,0,0.6,0,0.8-0.1c0.2,0,0.5-0.1,0.7-0.3c0.4-0.3,0.7-0.8,0.7-1.3
	c0-0.5-0.3-0.9-0.8-1.1c-0.6-0.3-1.3-0.5-2-0.7c-0.3-0.1-0.6-0.2-0.9-0.2c-0.3-0.1-0.6-0.2-0.9-0.4c-0.3-0.2-0.5-0.4-0.7-0.7
	c-0.2-0.3-0.3-0.7-0.3-1.1c0-0.4,0.1-0.9,0.3-1.2c0.2-0.3,0.4-0.6,0.8-0.8c0.3-0.2,0.7-0.4,1.1-0.5c0.4-0.1,0.8-0.2,1.2-0.2
	c0.7,0,1.3,0.2,1.9,0.4c0.6,0.3,1.1,0.7,1.4,1.2L314.9,24.5z M223.7,75.2h4c0.7,0,1.3,0.1,2,0.2c0.5,0.1,1.1,0.4,1.5,0.7
	c0.4,0.3,0.8,0.7,1,1.2c0.2,0.5,0.4,1.1,0.3,1.7c0,0.6-0.1,1.1-0.4,1.7c-0.2,0.5-0.6,0.9-1,1.2c-0.5,0.3-1,0.6-1.5,0.7
	c-0.7,0.2-1.3,0.2-2,0.2h-2.5v6.6h-1.4L223.7,75.2L223.7,75.2z M225.1,81.6h2.4c0.9,0.1,1.8-0.2,2.6-0.7c0.6-0.5,0.9-1.2,0.9-1.9
	c0.1-0.8-0.3-1.5-0.9-1.9c-0.8-0.4-1.7-0.7-2.6-0.6h-2.4L225.1,81.6L225.1,81.6z M236.6,89.4h-1.4V74.3h1.4V89.4z M246.1,83.3
	c0.1-0.7-0.2-1.3-0.6-1.8c-0.5-0.4-1.2-0.6-1.9-0.6c-0.5,0-1.1,0.1-1.6,0.3c-0.5,0.2-0.9,0.5-1.2,0.8l-0.8-0.9c0.4-0.4,1-0.8,1.5-1
	c0.7-0.3,1.4-0.4,2.1-0.4c0.5,0,1,0.1,1.4,0.2c0.4,0.1,0.8,0.3,1.2,0.6c0.3,0.3,0.6,0.7,0.8,1.1c0.2,0.5,0.3,1,0.3,1.5v5.2
	c0,0.3,0.1,0.7,0.1,1h-1.2c0-0.2-0.1-0.5-0.1-0.7c0-0.3,0-0.5,0-0.8c-0.4,0.6-0.9,1-1.4,1.3c-0.6,0.3-1.3,0.4-2,0.4
	c-0.4,0-0.7-0.1-1.1-0.2c-0.4-0.1-0.7-0.3-1-0.5c-0.3-0.2-0.6-0.5-0.8-0.9c-0.2-0.4-0.3-0.9-0.3-1.3c0-0.6,0.2-1.2,0.6-1.7
	c0.4-0.4,0.9-0.8,1.5-0.9c0.7-0.2,1.4-0.4,2.1-0.4c0.8-0.1,1.6-0.1,2.5-0.1L246.1,83.3L246.1,83.3z M245.7,84.7
	c-0.6,0-1.1,0-1.7,0.1c-0.5,0-1,0.1-1.5,0.3c-0.4,0.1-0.8,0.3-1.1,0.6c-0.3,0.3-0.5,0.7-0.4,1.1c0,0.3,0.1,0.6,0.2,0.8
	c0.1,0.2,0.3,0.4,0.5,0.6c0.2,0.1,0.5,0.2,0.7,0.3c0.3,0.1,0.5,0.1,0.8,0.1c0.4,0,0.9-0.1,1.3-0.2c0.4-0.2,0.7-0.4,0.9-0.7
	c0.3-0.3,0.5-0.6,0.6-1c0.1-0.4,0.2-0.8,0.2-1.2v-0.7L245.7,84.7L245.7,84.7z M254.9,81.2h-2.6v5.5c0,0.3,0,0.6,0.1,0.9
	c0.1,0.2,0.2,0.4,0.3,0.5c0.1,0.1,0.3,0.2,0.4,0.3c0.2,0,0.4,0.1,0.6,0.1c0.2,0,0.4,0,0.6-0.1c0.2-0.1,0.4-0.1,0.6-0.2l0.1,1.2
	c-0.2,0.1-0.5,0.2-0.8,0.2c-0.3,0-0.6,0.1-0.9,0.1c-0.3,0-0.5,0-0.8-0.1c-0.3-0.1-0.6-0.2-0.8-0.4c-0.3-0.2-0.5-0.5-0.6-0.8
	c-0.2-0.4-0.2-0.8-0.2-1.3v-5.8H249V80h1.9v-2.6h1.4V80h2.6L254.9,81.2L254.9,81.2z M261,81.2h-2.2v8.2h-1.4v-8.2h-2V80h2v-2.5
	c-0.1-0.9,0.2-1.8,0.8-2.5c0.6-0.7,1.5-1,2.4-0.9h0.6c0.2,0,0.4,0.1,0.6,0.1l-0.2,1.2l-0.4-0.1c-0.2,0-0.3,0-0.5,0
	c-0.3,0-0.6,0.1-0.9,0.2c-0.2,0.1-0.4,0.3-0.5,0.5c-0.1,0.2-0.2,0.5-0.3,0.8c0,0.3-0.1,0.6-0.1,0.9V80h2.2L261,81.2L261,81.2z
	 M272.2,84.7c0,0.7-0.1,1.4-0.4,2c-0.5,1.2-1.4,2.1-2.6,2.6c-0.6,0.2-1.3,0.4-2,0.4c-0.7,0-1.4-0.1-2-0.4c-1.2-0.5-2.1-1.4-2.6-2.6
	c-0.5-1.3-0.5-2.7,0-3.9c0.5-1.2,1.4-2.1,2.6-2.6c0.6-0.3,1.3-0.4,2-0.4c0.7,0,1.4,0.1,2,0.4c1.2,0.5,2.1,1.4,2.6,2.6
	C272.1,83.4,272.2,84.1,272.2,84.7z M270.8,84.7c0-0.5-0.1-1-0.2-1.5c-0.2-0.4-0.4-0.8-0.7-1.2c-0.3-0.3-0.7-0.6-1.1-0.8
	c-0.5-0.2-1-0.3-1.5-0.3c-0.5,0-1,0.1-1.5,0.3c-0.4,0.2-0.8,0.5-1.1,0.8c-0.3,0.4-0.6,0.8-0.7,1.2c-0.3,1-0.3,2,0,2.9
	c0.2,0.4,0.4,0.8,0.7,1.2c0.3,0.3,0.7,0.6,1.1,0.8c0.5,0.2,1,0.3,1.5,0.3c0.5,0,1-0.1,1.5-0.3c0.4-0.2,0.8-0.5,1.1-0.8
	c0.3-0.4,0.6-0.8,0.7-1.2C270.7,85.7,270.8,85.2,270.8,84.7z M275.1,81.1c0-0.4,0-0.8-0.1-1.1h1.3c0,0.3,0,0.5,0.1,0.8v0.8
	c0.6-1.1,1.7-1.9,3-1.8h0.5c0.1,0,0.3,0,0.4,0.1l-0.2,1.3c-0.1,0-0.3-0.1-0.4-0.1c-0.2,0-0.4,0-0.6,0c-0.3,0-0.7,0.1-1,0.2
	c-0.3,0.1-0.6,0.4-0.9,0.6c-0.3,0.3-0.5,0.7-0.6,1.1c-0.2,0.5-0.2,1.1-0.2,1.6v4.8h-1.4v-7.3C275.2,81.8,275.2,81.5,275.1,81.1z
	 M284.9,80.3c0.6-0.3,1.2-0.5,1.9-0.5c0.3,0,0.5,0,0.8,0.1c0.3,0.1,0.6,0.2,0.8,0.3c0.3,0.2,0.5,0.4,0.7,0.6c0.2,0.3,0.4,0.6,0.6,1
	c0.3-0.6,0.8-1.1,1.3-1.5c0.6-0.4,1.3-0.5,2-0.5c1-0.1,2,0.3,2.7,1.1c0.6,0.8,0.9,1.8,0.9,2.8v5.7h-1.4v-5.2c0-0.8-0.2-1.7-0.5-2.4
	c-0.4-0.6-1.1-1-1.9-0.9c-0.4,0-0.9,0.1-1.2,0.3c-0.3,0.2-0.6,0.5-0.8,0.8c-0.2,0.3-0.4,0.7-0.5,1.1c-0.1,0.4-0.1,0.8-0.1,1.3v5
	h-1.4v-5.5c0-0.4,0-0.8-0.1-1.2c-0.1-0.3-0.2-0.7-0.4-0.9c-0.2-0.3-0.4-0.5-0.7-0.6c-0.4-0.2-0.7-0.2-1.1-0.2c-0.3,0-0.7,0.1-1,0.2
	c-0.3,0.2-0.6,0.4-0.9,0.7c-0.3,0.4-0.4,0.7-0.6,1.2c-0.2,0.5-0.3,1.1-0.2,1.6v4.8h-1.4v-8.3c0-0.4,0-0.8-0.1-1.1h1.3
	c0,0.3,0,0.5,0.1,0.8v0.8C283.9,81.1,284.4,80.6,284.9,80.3L284.9,80.3z M212.8,140.7h4c0.7,0,1.3,0.1,2,0.2
	c0.5,0.1,1.1,0.4,1.5,0.7c0.4,0.3,0.8,0.7,1,1.2c0.2,0.5,0.4,1.1,0.3,1.7c0,0.6-0.1,1.1-0.4,1.7c-0.2,0.5-0.6,0.9-1,1.2
	c-0.5,0.3-1,0.6-1.5,0.7c-0.7,0.2-1.3,0.2-2,0.2h-2.5v6.6h-1.5L212.8,140.7L212.8,140.7z M214.2,147h2.4c0.9,0.1,1.8-0.2,2.6-0.7
	c0.6-0.5,0.9-1.2,0.9-1.9c0.1-0.8-0.3-1.5-0.9-1.9c-0.8-0.4-1.7-0.7-2.6-0.6h-2.4V147L214.2,147z M223.3,146.6c0-0.4,0-0.8-0.1-1.1
	h1.3c0,0.3,0,0.5,0.1,0.8v0.8c0.3-0.5,0.7-1,1.2-1.3c0.5-0.3,1.2-0.5,1.8-0.5h0.5c0.1,0,0.3,0,0.4,0.1l-0.2,1.3
	c-0.1,0-0.3-0.1-0.4-0.1c-0.2,0-0.4,0-0.6,0c-0.3,0-0.7,0.1-1,0.2c-0.3,0.1-0.6,0.4-0.9,0.6c-0.3,0.3-0.5,0.7-0.6,1.1
	c-0.2,0.5-0.2,1.1-0.2,1.6v4.8h-1.4v-7.3C223.4,147.3,223.4,147,223.3,146.6L223.3,146.6z M239.5,150.2c0,0.7-0.1,1.4-0.4,2
	c-0.2,0.6-0.6,1.1-1,1.6c-0.5,0.4-1,0.8-1.6,1c-0.6,0.2-1.3,0.4-2,0.4c-0.7,0-1.4-0.1-2-0.4c-0.6-0.2-1.1-0.6-1.6-1
	c-0.4-0.4-0.8-1-1-1.6c-0.5-1.3-0.5-2.7,0-3.9c0.5-1.2,1.4-2.1,2.6-2.6c0.6-0.3,1.3-0.4,2-0.4c0.7,0,1.4,0.1,2,0.4
	c1.2,0.5,2.1,1.4,2.6,2.6C239.4,148.8,239.5,149.5,239.5,150.2z M238.1,150.2c0-0.5-0.1-1-0.2-1.5c-0.2-0.4-0.4-0.8-0.7-1.2
	c-0.3-0.3-0.7-0.6-1.1-0.8c-0.5-0.2-1-0.3-1.5-0.3c-0.5,0-1,0.1-1.5,0.3c-0.4,0.2-0.8,0.5-1.1,0.8c-0.3,0.3-0.6,0.8-0.7,1.2
	c-0.3,1-0.3,2,0,2.9c0.2,0.4,0.4,0.9,0.7,1.2c0.3,0.3,0.7,0.6,1.1,0.8c0.5,0.2,1,0.3,1.5,0.3c0.5,0,1-0.1,1.5-0.3
	c0.4-0.2,0.8-0.5,1.1-0.8c0.3-0.4,0.6-0.8,0.7-1.2C238,151.1,238.1,150.7,238.1,150.2z M249.2,147.6c-0.2-0.4-0.6-0.7-1-0.9
	c-0.4-0.2-0.9-0.4-1.4-0.4c-0.5,0-1,0.1-1.5,0.3c-0.4,0.2-0.8,0.5-1.1,0.8c-0.3,0.3-0.6,0.8-0.7,1.2c-0.2,0.5-0.3,1-0.2,1.5
	c0,0.5,0.1,1,0.2,1.5c0.2,0.4,0.4,0.8,0.7,1.2c0.3,0.3,0.7,0.6,1.1,0.8c0.5,0.2,1,0.3,1.5,0.3c1,0,1.9-0.4,2.5-1.2l1,0.8
	c-0.4,0.5-0.9,0.9-1.5,1.2c-0.7,0.3-1.4,0.5-2.1,0.4c-0.7,0-1.4-0.1-2.1-0.4c-0.6-0.2-1.1-0.6-1.6-1c-0.4-0.4-0.8-1-1-1.6
	c-0.5-1.3-0.5-2.7,0-3.9c0.2-0.6,0.6-1.1,1-1.6c0.4-0.4,1-0.8,1.6-1c0.7-0.3,1.4-0.4,2.1-0.4c0.7,0,1.3,0.1,1.9,0.4
	c0.6,0.3,1.2,0.7,1.6,1.2L249.2,147.6z M260.9,149.9v0.3c0,0.1,0,0.2,0,0.3h-7.8c0,0.5,0.1,0.9,0.3,1.3c0.2,0.4,0.4,0.8,0.7,1.1
	c0.3,0.3,0.7,0.6,1.1,0.7c1,0.4,2.2,0.3,3.2-0.2c0.5-0.3,0.9-0.7,1.2-1.1l1,0.8c-0.5,0.6-1.1,1.2-1.9,1.5c-0.7,0.3-1.4,0.5-2.2,0.5
	c-0.7,0-1.3-0.1-1.9-0.4c-0.6-0.2-1.1-0.6-1.5-1c-0.4-0.5-0.8-1-1-1.6c-0.3-0.6-0.4-1.3-0.4-2c0-0.7,0.1-1.4,0.4-2
	c0.2-0.6,0.6-1.1,1-1.6c0.4-0.4,0.9-0.8,1.5-1c0.6-0.2,1.2-0.4,1.9-0.4c0.7,0,1.3,0.1,1.9,0.4c0.5,0.2,1,0.6,1.4,1
	c0.4,0.4,0.7,0.9,0.9,1.5C260.9,148.6,261,149.3,260.9,149.9L260.9,149.9z M259.6,149.4c0-0.8-0.3-1.6-0.9-2.2
	c-0.6-0.6-1.4-0.9-2.2-0.9c-0.4,0-0.9,0.1-1.3,0.2c-0.4,0.2-0.7,0.4-1,0.7c-0.3,0.3-0.5,0.6-0.7,1c-0.2,0.4-0.3,0.8-0.3,1.1
	L259.6,149.4L259.6,149.4z M268.8,147.7c-0.2-0.4-0.5-0.7-0.9-0.9c-0.4-0.3-0.9-0.4-1.4-0.4c-0.2,0-0.5,0-0.7,0.1
	c-0.2,0-0.4,0.1-0.6,0.3c-0.2,0.1-0.3,0.3-0.5,0.5c-0.1,0.2-0.2,0.4-0.2,0.7c0,0.4,0.2,0.8,0.5,1c0.5,0.3,1.1,0.5,1.7,0.6
	c0.9,0.1,1.7,0.5,2.5,1c0.5,0.4,0.8,1.1,0.8,1.8c0,0.9-0.4,1.7-1.1,2.2c-0.3,0.2-0.7,0.4-1.1,0.5c-0.4,0.1-0.8,0.2-1.3,0.1
	c-0.7,0-1.4-0.2-2.1-0.4c-0.7-0.3-1.2-0.8-1.6-1.4l1.1-0.8c0.6,0.9,1.5,1.5,2.6,1.5c0.3,0,0.6,0,0.8-0.1c0.2,0,0.5-0.1,0.7-0.3
	c0.4-0.3,0.7-0.8,0.7-1.3c0-0.5-0.3-0.9-0.7-1.1c-0.7-0.3-1.3-0.5-2-0.7c-0.3-0.1-0.6-0.2-0.9-0.2c-0.3-0.1-0.6-0.2-0.9-0.4
	c-0.3-0.2-0.5-0.4-0.7-0.7c-0.2-0.3-0.3-0.7-0.3-1.1c0-0.4,0.1-0.9,0.3-1.2c0.2-0.3,0.4-0.6,0.8-0.8c0.3-0.2,0.7-0.4,1.1-0.5
	c0.4-0.1,0.8-0.2,1.2-0.2c0.7,0,1.3,0.2,1.9,0.4c0.6,0.3,1.1,0.7,1.4,1.2L268.8,147.7z M277.7,147.7c-0.2-0.4-0.5-0.7-0.9-0.9
	c-0.4-0.3-0.9-0.4-1.4-0.4c-0.2,0-0.5,0-0.7,0.1c-0.2,0-0.4,0.1-0.6,0.3c-0.2,0.1-0.3,0.3-0.5,0.5c-0.1,0.2-0.2,0.4-0.2,0.7
	c0,0.4,0.2,0.8,0.5,1c0.5,0.3,1.1,0.5,1.7,0.6c0.9,0.1,1.7,0.5,2.5,1c0.5,0.4,0.8,1.1,0.8,1.8c0,0.9-0.4,1.7-1.1,2.2
	c-0.3,0.2-0.7,0.4-1.1,0.5c-0.4,0.1-0.8,0.2-1.3,0.1c-0.7,0-1.4-0.2-2.1-0.4c-0.7-0.3-1.2-0.8-1.6-1.4l1.1-0.8
	c0.6,0.9,1.5,1.5,2.6,1.5c0.3,0,0.6,0,0.8-0.1c0.2,0,0.5-0.1,0.7-0.3c0.4-0.3,0.7-0.8,0.7-1.3c0-0.5-0.3-0.9-0.7-1.1
	c-0.6-0.3-1.3-0.5-2-0.7c-0.3-0.1-0.6-0.2-0.9-0.2c-0.3-0.1-0.6-0.2-0.9-0.4c-0.3-0.2-0.5-0.4-0.7-0.7c-0.2-0.3-0.3-0.7-0.3-1.1
	c0-0.4,0.1-0.9,0.3-1.2c0.2-0.3,0.4-0.6,0.8-0.8c0.3-0.2,0.7-0.4,1.1-0.5c0.4-0.1,0.8-0.2,1.2-0.2c0.7,0,1.3,0.2,1.9,0.4
	c0.6,0.3,1.1,0.7,1.4,1.2L277.7,147.7z M283.3,141.9c0,0.3-0.1,0.5-0.3,0.7c-0.4,0.4-1,0.4-1.3,0c-0.4-0.4-0.4-0.9-0.1-1.3
	c0,0,0,0,0.1-0.1c0.4-0.4,1-0.4,1.3,0C283.2,141.4,283.3,141.6,283.3,141.9z M283,154.9h-1.4v-9.4h1.4L283,154.9L283,154.9z
	 M287.8,145.5c0,0.3,0,0.5,0.1,0.8v0.8c0.3-0.6,0.7-1,1.3-1.3c0.6-0.3,1.2-0.5,1.9-0.5c1-0.1,2,0.3,2.7,1.1c0.6,0.8,0.9,1.8,0.9,2.8
	v5.7h-1.4v-5.2c0-0.4,0-0.9-0.1-1.3c-0.1-0.4-0.2-0.7-0.4-1c-0.2-0.3-0.5-0.5-0.8-0.7c-0.4-0.2-0.8-0.3-1.2-0.2
	c-0.3,0-0.7,0.1-1,0.2c-0.3,0.2-0.7,0.4-0.9,0.7c-0.3,0.3-0.5,0.7-0.6,1.1c-0.2,0.5-0.2,1-0.2,1.6v4.8h-1.4v-8.3
	c0-0.4,0-0.8-0.1-1.1L287.8,145.5L287.8,145.5z M298.7,156.7c0.4,0.5,0.9,0.9,1.5,1.2c1.2,0.6,2.5,0.7,3.8,0.2
	c0.4-0.2,0.8-0.4,1.1-0.8c0.3-0.3,0.5-0.7,0.6-1.2c0.1-0.5,0.2-0.9,0.2-1.4V153c-0.4,0.6-0.9,1.1-1.5,1.4c-0.6,0.3-1.3,0.5-2,0.5
	c-0.7,0-1.4-0.1-2-0.4c-0.6-0.2-1.1-0.6-1.5-1c-0.4-0.4-0.8-0.9-1-1.5c-0.5-1.2-0.5-2.6,0-3.8c0.2-0.6,0.6-1.1,1-1.5
	c0.4-0.4,1-0.8,1.5-1c0.6-0.3,1.3-0.4,2-0.4c0.7,0,1.4,0.2,2,0.5c0.6,0.3,1.2,0.8,1.5,1.4v-1.6h1.4v9.3c0,0.5-0.1,1.1-0.2,1.6
	c-0.1,0.6-0.4,1.1-0.8,1.6c-0.4,0.5-0.9,0.9-1.5,1.2c-0.8,0.3-1.7,0.5-2.5,0.5c-0.9,0-1.7-0.2-2.5-0.5c-0.8-0.3-1.4-0.8-2-1.4
	L298.7,156.7z M299,150c0,0.5,0.1,1,0.2,1.4c0.2,0.4,0.4,0.8,0.7,1.2c0.3,0.3,0.7,0.6,1.1,0.8c0.5,0.2,1,0.3,1.5,0.3
	c0.5,0,1-0.1,1.4-0.3c0.4-0.2,0.8-0.4,1.1-0.7c0.3-0.3,0.6-0.7,0.8-1.1c0.2-0.5,0.3-1,0.3-1.5c0-1.5-0.8-2.8-2.2-3.4
	c-0.5-0.2-0.9-0.3-1.4-0.3c-0.5,0-1,0.1-1.5,0.3c-0.4,0.2-0.8,0.5-1.1,0.8c-0.3,0.3-0.5,0.7-0.7,1.2C299.1,149,299,149.5,299,150
	L299,150z M38.3,247.2h-1.4V233h8.5v1.3h-7.1v4.9h6.6v1.3h-6.6L38.3,247.2L38.3,247.2z M49.3,234.2c0,0.3-0.1,0.5-0.3,0.7
	c-0.4,0.4-1,0.4-1.3,0c-0.4-0.4-0.4-0.9-0.1-1.3c0,0,0,0,0.1-0.1c0.4-0.4,1-0.4,1.3,0C49.2,233.7,49.3,233.9,49.3,234.2z
	 M49.1,247.2h-1.4v-9.4h1.4V247.2z M54.1,247.2h-1.4V232h1.4V247.2L54.1,247.2z M66.2,242.2v0.3c0,0.1,0,0.2,0,0.3h-7.8
	c0,0.5,0.1,0.9,0.3,1.3c0.2,0.4,0.4,0.8,0.7,1.1c0.3,0.3,0.7,0.6,1.1,0.7c1,0.4,2.2,0.3,3.2-0.2c0.5-0.3,0.9-0.7,1.2-1.1l1,0.8
	c-0.5,0.7-1.1,1.2-1.9,1.5c-0.7,0.3-1.4,0.5-2.2,0.5c-0.7,0-1.3-0.1-1.9-0.4c-0.6-0.2-1.1-0.6-1.5-1c-0.4-0.5-0.8-1-1-1.6
	c-0.3-0.6-0.4-1.3-0.4-2c0-0.7,0.1-1.4,0.4-2c0.2-0.6,0.6-1.1,1-1.6c0.4-0.4,0.9-0.8,1.5-1c0.6-0.2,1.2-0.4,1.9-0.4
	c0.7,0,1.3,0.1,1.9,0.4c0.5,0.2,1,0.6,1.4,1c0.4,0.4,0.7,0.9,0.8,1.5C66.1,241,66.2,241.6,66.2,242.2L66.2,242.2z M64.9,241.8
	c0-0.8-0.3-1.6-0.8-2.2c-0.6-0.6-1.4-0.9-2.2-0.9c-0.4,0-0.9,0.1-1.3,0.2c-0.4,0.2-0.7,0.4-1,0.7c-0.3,0.3-0.5,0.6-0.7,1
	c-0.2,0.4-0.3,0.8-0.3,1.1L64.9,241.8L64.9,241.8z M81.1,235.3c-0.3-0.4-0.7-0.8-1.2-1c-0.5-0.3-1.1-0.4-1.7-0.4
	c-0.4,0-0.7,0.1-1.1,0.2c-0.4,0.1-0.7,0.3-1,0.5c-0.3,0.2-0.5,0.5-0.7,0.8c-0.2,0.4-0.3,0.8-0.3,1.2c0,0.4,0.1,0.8,0.3,1.1
	c0.2,0.3,0.4,0.6,0.7,0.8c0.3,0.2,0.6,0.4,1,0.5l1.2,0.4c0.5,0.2,1,0.3,1.5,0.5c0.5,0.2,0.9,0.4,1.3,0.7c0.4,0.3,0.8,0.7,1,1.1
	c0.3,0.5,0.4,1.1,0.4,1.8c0,0.6-0.1,1.3-0.4,1.8c-0.3,0.5-0.6,0.9-1.1,1.2c-0.4,0.3-0.9,0.6-1.5,0.7c-0.5,0.2-1.1,0.2-1.7,0.2
	c-0.4,0-0.9,0-1.3-0.1c-0.4-0.1-0.8-0.2-1.2-0.4c-0.4-0.2-0.7-0.4-1.1-0.7c-0.3-0.3-0.6-0.6-0.9-0.9l1.2-0.9c0.3,0.5,0.8,1,1.3,1.3
	c0.6,0.4,1.3,0.5,2,0.5c0.4,0,0.7-0.1,1.1-0.2c0.4-0.1,0.7-0.3,1-0.5c0.3-0.2,0.6-0.5,0.7-0.9c0.4-0.8,0.4-1.7,0-2.4
	c-0.2-0.3-0.5-0.6-0.8-0.8c-0.3-0.2-0.7-0.4-1.1-0.6l-1.3-0.4c-0.5-0.1-0.9-0.3-1.4-0.5c-0.4-0.2-0.9-0.4-1.2-0.7
	c-0.4-0.3-0.7-0.7-0.9-1.1c-0.5-1.1-0.4-2.3,0.1-3.4c0.3-0.5,0.6-0.9,1.1-1.2c0.4-0.3,0.9-0.6,1.5-0.7c0.5-0.1,1-0.2,1.6-0.2
	c0.8,0,1.7,0.2,2.5,0.5c0.6,0.3,1.1,0.7,1.5,1.2L81.1,235.3z M88.4,245.7l2.9-7.9h1.5l-4.7,11.8c-0.2,0.6-0.6,1.2-1.1,1.7
	c-0.5,0.5-1.2,0.7-1.9,0.6c-0.4,0-0.8,0-1.2-0.1l0.1-1.2c0.3,0.1,0.7,0.2,1,0.2c0.4,0,0.8-0.1,1.1-0.4c0.3-0.4,0.5-0.8,0.7-1.2
	l0.8-2l-4-9.3h1.5L88.4,245.7z M99.9,240c-0.2-0.4-0.5-0.7-0.9-0.9c-0.4-0.3-0.9-0.4-1.4-0.4c-0.2,0-0.5,0-0.7,0.1
	c-0.2,0-0.4,0.1-0.6,0.3c-0.2,0.1-0.3,0.3-0.4,0.5c-0.1,0.2-0.2,0.4-0.2,0.7c0,0.4,0.2,0.8,0.5,1c0.5,0.3,1.1,0.5,1.7,0.6
	c0.9,0.1,1.7,0.5,2.4,1c0.5,0.4,0.8,1.1,0.8,1.8c0,0.9-0.4,1.7-1.1,2.2c-0.3,0.2-0.7,0.4-1.1,0.5c-0.4,0.1-0.8,0.1-1.3,0.1
	c-0.7,0-1.4-0.2-2.1-0.4c-0.7-0.3-1.2-0.8-1.6-1.4l1.1-0.8c0.6,0.9,1.5,1.5,2.6,1.5c0.3,0,0.6,0,0.8-0.1c0.2,0,0.5-0.1,0.7-0.3
	c0.4-0.3,0.7-0.8,0.7-1.3c0-0.5-0.3-0.9-0.7-1.1c-0.7-0.3-1.3-0.5-2.1-0.7c-0.3-0.1-0.6-0.1-0.9-0.2c-0.3-0.1-0.6-0.2-0.9-0.4
	c-0.3-0.2-0.5-0.4-0.7-0.7c-0.2-0.3-0.3-0.7-0.3-1.1c0-0.4,0.1-0.9,0.3-1.2c0.2-0.3,0.4-0.6,0.8-0.8c0.3-0.2,0.7-0.4,1.1-0.5
	c0.4-0.1,0.8-0.2,1.2-0.2c0.7,0,1.3,0.2,1.9,0.4c0.6,0.3,1.1,0.7,1.4,1.2L99.9,240z M108.1,238.9h-2.6v5.5c0,0.3,0,0.6,0.1,0.9
	c0.1,0.2,0.2,0.4,0.3,0.5c0.1,0.1,0.3,0.2,0.4,0.3c0.2,0,0.4,0.1,0.6,0.1c0.2,0,0.4,0,0.6-0.1c0.2-0.1,0.4-0.1,0.6-0.2l0.1,1.2
	c-0.2,0.1-0.5,0.2-0.8,0.2c-0.3,0-0.6,0.1-0.8,0.1c-0.3,0-0.5,0-0.8-0.1c-0.3-0.1-0.6-0.2-0.8-0.4c-0.3-0.2-0.5-0.5-0.6-0.8
	c-0.2-0.4-0.2-0.8-0.2-1.3V239h-1.9v-1.1h1.9v-2.6h1.4v2.6h2.6L108.1,238.9L108.1,238.9z M118.7,242.2v0.3c0,0.1,0,0.2,0,0.3h-7.8
	c0,0.5,0.1,0.9,0.3,1.3c0.2,0.4,0.4,0.8,0.7,1.1c0.3,0.3,0.7,0.6,1.1,0.8c1,0.4,2.2,0.3,3.2-0.2c0.5-0.3,0.9-0.7,1.2-1.1l1,0.8
	c-0.5,0.6-1.1,1.2-1.8,1.5c-0.7,0.3-1.4,0.5-2.2,0.5c-0.7,0-1.3-0.1-1.9-0.4c-0.6-0.2-1.1-0.6-1.5-1c-0.4-0.5-0.8-1-1-1.6
	c-0.3-0.6-0.4-1.3-0.4-2c0-0.7,0.1-1.4,0.4-2c0.2-0.6,0.6-1.1,1-1.6c0.4-0.4,0.9-0.8,1.5-1c0.6-0.2,1.2-0.4,1.9-0.4
	c0.7,0,1.3,0.1,1.9,0.4c0.5,0.2,1,0.6,1.4,1c0.4,0.4,0.7,0.9,0.8,1.5C118.6,241,118.7,241.6,118.7,242.2L118.7,242.2z M117.3,241.8
	c0-0.8-0.3-1.6-0.8-2.2c-0.6-0.6-1.4-0.9-2.2-0.9c-0.4,0-0.8,0.1-1.2,0.3c-0.4,0.2-0.7,0.4-1,0.7c-0.3,0.3-0.5,0.6-0.7,1
	c-0.2,0.4-0.3,0.8-0.3,1.1L117.3,241.8L117.3,241.8z M124.2,238.1c0.6-0.3,1.2-0.5,1.8-0.5c0.3,0,0.5,0,0.8,0.1
	c0.3,0.1,0.6,0.2,0.8,0.3c0.3,0.2,0.5,0.4,0.7,0.6c0.2,0.3,0.4,0.6,0.6,1c0.3-0.6,0.7-1.1,1.3-1.5c0.6-0.4,1.3-0.5,2-0.5
	c1-0.1,2,0.3,2.7,1.1c0.6,0.8,0.9,1.8,0.9,2.8v5.7h-1.4V242c0-0.8-0.2-1.7-0.6-2.4c-0.4-0.6-1.1-1-1.9-0.9c-0.4,0-0.9,0.1-1.2,0.3
	c-0.3,0.2-0.6,0.5-0.8,0.8c-0.2,0.3-0.4,0.7-0.4,1.1c-0.1,0.4-0.1,0.8-0.1,1.3v5H128v-5.5c0-0.4,0-0.8-0.1-1.2c0-0.4-0.2-0.7-0.3-1
	c-0.2-0.3-0.4-0.5-0.7-0.6c-0.4-0.2-0.7-0.2-1.1-0.2c-0.3,0-0.7,0.1-1,0.2c-0.3,0.2-0.6,0.4-0.9,0.7c-0.3,0.3-0.5,0.7-0.6,1.1
	c-0.2,0.5-0.3,1.1-0.2,1.6v4.8h-1.4v-8.3c0-0.4,0-0.8-0.1-1.1h1.3c0,0.2,0,0.5,0.1,0.8s0,0.6,0,0.8
	C123.2,238.8,123.7,238.4,124.2,238.1L124.2,238.1z"/>
<path class="st5" d="M39,262.6h4v0.8h-4.9v-8.5H39V262.6z M47.7,259.7c0-0.4-0.1-0.8-0.4-1.1c-0.3-0.3-0.7-0.4-1.1-0.4
	c-0.3,0-0.6,0.1-0.9,0.2c-0.3,0.1-0.5,0.3-0.7,0.5l-0.5-0.5c0.3-0.3,0.6-0.5,0.9-0.6c0.4-0.2,0.8-0.2,1.3-0.2c0.3,0,0.6,0,0.8,0.1
	c0.3,0.1,0.5,0.2,0.7,0.4c0.2,0.2,0.4,0.4,0.5,0.6c0.1,0.3,0.2,0.6,0.2,0.9v3.1c0,0.2,0,0.4,0.1,0.6h-0.7c0-0.1,0-0.3-0.1-0.4
	c0-0.2,0-0.3,0-0.5c-0.2,0.3-0.5,0.6-0.9,0.8c-0.4,0.2-0.8,0.3-1.2,0.2c-0.2,0-0.5,0-0.7-0.1c-0.2-0.1-0.4-0.2-0.6-0.3
	c-0.2-0.1-0.4-0.3-0.5-0.5c-0.1-0.2-0.2-0.5-0.2-0.8c0-0.4,0.1-0.7,0.3-1c0.2-0.3,0.5-0.5,0.8-0.6c0.4-0.1,0.8-0.2,1.3-0.2
	c0.5,0,1,0,1.5,0L47.7,259.7L47.7,259.7z M47.5,260.6h-1c-0.3,0-0.6,0.1-0.9,0.2c-0.3,0.1-0.5,0.2-0.7,0.4c-0.2,0.2-0.3,0.4-0.3,0.6
	c0,0.2,0,0.3,0.1,0.5c0.1,0.1,0.2,0.2,0.3,0.3c0.1,0.1,0.3,0.1,0.4,0.2c0.2,0,0.3,0.1,0.5,0c0.3,0,0.5,0,0.8-0.1
	c0.2-0.1,0.4-0.2,0.6-0.4c0.2-0.2,0.3-0.4,0.3-0.6c0.1-0.2,0.1-0.5,0.1-0.7v-0.4L47.5,260.6L47.5,260.6z M50.6,258.4v-0.6h0.8v1
	c0.3-0.7,1-1.1,1.8-1.1h0.5l-0.1,0.8H53c-0.2,0-0.4,0-0.6,0.1c-0.2,0.1-0.4,0.2-0.5,0.4c-0.2,0.2-0.3,0.4-0.4,0.7
	c-0.1,0.3-0.2,0.7-0.1,1v2.9h-0.8V259C50.6,258.8,50.6,258.6,50.6,258.4L50.6,258.4z M55,264.5c0.2,0.3,0.6,0.6,0.9,0.7
	c0.7,0.4,1.5,0.4,2.2,0.1c0.3-0.1,0.5-0.3,0.7-0.5c0.2-0.2,0.3-0.4,0.4-0.7c0.1-0.3,0.1-0.6,0.1-0.9v-1.1c-0.2,0.4-0.5,0.6-0.9,0.8
	c-0.4,0.2-0.8,0.3-1.2,0.3c-0.4,0-0.8-0.1-1.2-0.2c-0.3-0.1-0.6-0.3-0.9-0.6c-0.3-0.3-0.5-0.6-0.6-0.9c-0.1-0.4-0.2-0.8-0.2-1.1
	c0-0.4,0.1-0.8,0.2-1.1c0.1-0.3,0.3-0.7,0.6-0.9c0.3-0.3,0.6-0.5,0.9-0.6c0.4-0.2,0.8-0.2,1.2-0.2c0.4,0,0.8,0.1,1.2,0.3
	c0.4,0.2,0.7,0.5,0.9,0.8v-1h0.8v5.6c0,0.3,0,0.7-0.1,1c-0.1,0.3-0.2,0.7-0.5,1c-0.3,0.3-0.6,0.6-0.9,0.7c-0.5,0.2-1,0.3-1.5,0.3
	c-0.5,0-1-0.1-1.5-0.3c-0.5-0.2-0.9-0.5-1.2-0.8L55,264.5z M55.2,260.5c0,0.3,0,0.6,0.1,0.8c0.1,0.3,0.2,0.5,0.4,0.7
	c0.2,0.2,0.4,0.4,0.7,0.5c0.3,0.1,0.6,0.2,0.9,0.2c0.3,0,0.6-0.1,0.9-0.2c0.3-0.1,0.5-0.2,0.7-0.4c0.2-0.2,0.3-0.4,0.5-0.7
	c0.1-0.3,0.2-0.6,0.2-0.9c0-0.9-0.5-1.7-1.3-2c-0.3-0.1-0.6-0.2-0.9-0.2c-0.3,0-0.6,0.1-0.9,0.2c-0.3,0.1-0.5,0.3-0.7,0.5
	c-0.2,0.2-0.3,0.4-0.4,0.7C55.2,259.9,55.2,260.2,55.2,260.5L55.2,260.5z M67.4,260.4v0.2c0,0.1,0,0.1,0,0.2h-4.7
	c0,0.3,0.1,0.5,0.2,0.8c0.1,0.2,0.2,0.5,0.4,0.6c0.2,0.2,0.4,0.3,0.7,0.4c0.6,0.3,1.3,0.2,1.9-0.1c0.3-0.2,0.5-0.4,0.7-0.7l0.6,0.5
	c-0.3,0.4-0.7,0.7-1.1,0.9c-0.4,0.2-0.9,0.3-1.3,0.3c-0.4,0-0.8-0.1-1.2-0.2c-0.3-0.1-0.7-0.4-0.9-0.6c-0.3-0.3-0.5-0.6-0.6-0.9
	c-0.2-0.4-0.2-0.8-0.2-1.2c0-0.4,0.1-0.8,0.2-1.2c0.1-0.3,0.3-0.7,0.6-0.9c0.5-0.5,1.2-0.8,2-0.8c0.4,0,0.8,0.1,1.2,0.2
	c0.3,0.1,0.6,0.3,0.8,0.6c0.2,0.3,0.4,0.6,0.5,0.9C67.3,259.6,67.4,260,67.4,260.4L67.4,260.4z M66.6,260.1c0-0.5-0.2-0.9-0.5-1.3
	c-0.4-0.4-0.8-0.6-1.3-0.5c-0.3,0-0.5,0-0.8,0.1c-0.4,0.2-0.8,0.6-1,1c-0.1,0.2-0.2,0.5-0.2,0.7L66.6,260.1L66.6,260.1z M73.1,263.4
	h-0.9v-8.5h5.1v0.8h-4.3v2.9h4v0.8h-4V263.4L73.1,263.4z M79.7,255.6c0,0.2-0.1,0.3-0.2,0.4c-0.2,0.2-0.6,0.2-0.8,0
	c-0.2-0.2-0.2-0.6,0-0.8c0,0,0,0,0,0c0.2-0.2,0.6-0.2,0.8,0C79.6,255.3,79.7,255.4,79.7,255.6z M79.5,263.4h-0.8v-5.6h0.8
	L79.5,263.4L79.5,263.4z M82.5,263.4h-0.8v-9.1h0.8V263.4z M89.8,260.4v0.2c0,0.1,0,0.1,0,0.2h-4.7c0,0.3,0.1,0.5,0.2,0.8
	c0.1,0.2,0.2,0.5,0.4,0.6c0.2,0.2,0.4,0.3,0.7,0.4c0.6,0.3,1.3,0.2,1.9-0.1c0.3-0.2,0.5-0.4,0.7-0.7l0.6,0.5
	c-0.3,0.4-0.7,0.7-1.1,0.9c-0.4,0.2-0.9,0.3-1.3,0.3c-0.4,0-0.8-0.1-1.2-0.2c-0.3-0.1-0.7-0.4-0.9-0.6c-0.3-0.3-0.5-0.6-0.6-0.9
	c-0.2-0.4-0.2-0.8-0.2-1.2c0-0.4,0.1-0.8,0.2-1.2c0.1-0.3,0.3-0.7,0.6-0.9c0.5-0.5,1.2-0.8,2-0.8c0.4,0,0.8,0.1,1.2,0.2
	c0.3,0.1,0.6,0.3,0.8,0.6c0.2,0.3,0.4,0.6,0.5,0.9C89.8,259.6,89.8,260,89.8,260.4L89.8,260.4z M89,260.1c0-0.5-0.2-0.9-0.5-1.3
	c-0.4-0.4-0.8-0.6-1.3-0.5c-0.3,0-0.5,0-0.8,0.1c-0.4,0.2-0.8,0.6-1,1c-0.1,0.2-0.2,0.5-0.2,0.7L89,260.1L89,260.1z M94.6,259.1
	c-0.1-0.2-0.3-0.4-0.6-0.6c-0.3-0.1-0.5-0.2-0.8-0.2c-0.1,0-0.3,0-0.4,0c-0.1,0-0.3,0.1-0.4,0.2c-0.1,0.1-0.2,0.2-0.3,0.3
	c-0.1,0.1-0.1,0.3-0.1,0.4c0,0.2,0.1,0.5,0.3,0.6c0.3,0.2,0.6,0.3,1,0.4c0.5,0.1,1,0.3,1.5,0.6c0.3,0.2,0.5,0.6,0.5,1
	c0,0.5-0.2,1-0.7,1.4c-0.2,0.1-0.4,0.2-0.7,0.3c-0.2,0.1-0.5,0.1-0.8,0.1c-0.4,0-0.8-0.1-1.2-0.3c-0.4-0.2-0.8-0.5-1-0.8l0.7-0.5
	c0.3,0.5,0.9,0.9,1.6,0.9c0.2,0,0.3,0,0.5,0c0.1,0,0.3-0.1,0.4-0.2c0.3-0.2,0.4-0.5,0.4-0.8c0-0.3-0.2-0.6-0.4-0.7
	c-0.4-0.2-0.8-0.3-1.2-0.4l-0.5-0.1c-0.2-0.1-0.4-0.1-0.5-0.3c-0.2-0.1-0.3-0.3-0.4-0.4c-0.1-0.2-0.2-0.4-0.2-0.7
	c0-0.3,0.1-0.5,0.2-0.7c0.1-0.2,0.3-0.4,0.4-0.5c0.2-0.1,0.4-0.2,0.6-0.3c0.2-0.1,0.5-0.1,0.7-0.1c0.4,0,0.8,0.1,1.1,0.3
	c0.3,0.2,0.6,0.4,0.8,0.7L94.6,259.1z M105.2,261.4l1.9,2h-1.2l-1.2-1.3c-0.3,0.4-0.7,0.8-1.1,1.1c-0.5,0.2-1,0.4-1.5,0.3
	c-0.3,0-0.7-0.1-1-0.2c-0.3-0.1-0.6-0.2-0.8-0.5c-0.2-0.2-0.4-0.4-0.6-0.7c-0.1-0.3-0.2-0.7-0.2-1c0-0.6,0.2-1.1,0.6-1.5
	c0.2-0.2,0.4-0.4,0.6-0.5c0.2-0.2,0.5-0.3,0.8-0.4c-0.1-0.1-0.3-0.3-0.4-0.4c-0.1-0.1-0.2-0.3-0.3-0.5c-0.1-0.2-0.2-0.3-0.2-0.5
	c-0.1-0.2-0.1-0.4-0.1-0.6c0-0.3,0.1-0.6,0.2-0.9c0.1-0.2,0.3-0.5,0.5-0.6c0.2-0.2,0.4-0.3,0.7-0.4c0.3-0.1,0.5-0.1,0.8-0.1
	c0.3,0,0.5,0,0.8,0.1c0.2,0.1,0.5,0.2,0.7,0.4c0.2,0.2,0.3,0.4,0.4,0.6c0.1,0.3,0.2,0.5,0.2,0.8c0,0.3,0,0.5-0.2,0.8
	c-0.1,0.2-0.3,0.4-0.4,0.6c-0.2,0.2-0.4,0.3-0.6,0.5c-0.2,0.1-0.5,0.3-0.7,0.4l2,2l1.2-2.1h1L105.2,261.4z M101.9,259.2
	c-0.4,0.2-0.8,0.5-1.2,0.8c-0.3,0.3-0.4,0.7-0.4,1.2c0,0.2,0,0.5,0.1,0.7c0.1,0.2,0.2,0.4,0.4,0.5c0.2,0.1,0.4,0.3,0.6,0.3
	c0.2,0.1,0.4,0.1,0.7,0.1c0.4,0,0.8-0.1,1.2-0.3c0.3-0.3,0.6-0.6,0.9-0.9L101.9,259.2z M103.7,256.5c0-0.3-0.1-0.6-0.3-0.9
	c-0.2-0.2-0.5-0.3-0.9-0.3c-0.3,0-0.7,0.1-0.9,0.4c-0.3,0.3-0.4,0.6-0.4,1c0,0.2,0,0.3,0.1,0.5c0.1,0.2,0.1,0.3,0.2,0.5
	c0.1,0.1,0.2,0.3,0.3,0.4c0.1,0.1,0.2,0.2,0.3,0.3c0.2-0.1,0.4-0.2,0.6-0.3c0.2-0.1,0.3-0.2,0.5-0.4c0.1-0.1,0.3-0.3,0.4-0.5
	C103.6,257,103.7,256.8,103.7,256.5L103.7,256.5z M115.6,261.9l2.8-7h1.3v8.5h-0.9V256l-3.1,7.4h-0.5l-3.1-7.4v7.4h-0.9v-8.5h1.3
	L115.6,261.9z M127.1,260.4v0.2c0,0.1,0,0.1,0,0.2h-4.7c0,0.3,0.1,0.5,0.2,0.8c0.1,0.2,0.2,0.5,0.4,0.6c0.2,0.2,0.4,0.3,0.7,0.4
	c0.6,0.3,1.3,0.2,1.9-0.1c0.3-0.2,0.5-0.4,0.7-0.7l0.6,0.5c-0.3,0.4-0.7,0.7-1.1,0.9c-0.4,0.2-0.9,0.3-1.3,0.3
	c-0.4,0-0.8-0.1-1.2-0.2c-0.3-0.1-0.7-0.4-0.9-0.6c-0.3-0.3-0.5-0.6-0.6-0.9c-0.2-0.4-0.2-0.8-0.2-1.2c0-0.4,0.1-0.8,0.2-1.2
	c0.1-0.3,0.3-0.7,0.6-0.9c0.5-0.5,1.2-0.8,2-0.8c0.4,0,0.8,0.1,1.2,0.2c0.3,0.1,0.6,0.3,0.8,0.6c0.2,0.3,0.4,0.6,0.5,0.9
	C127,259.6,127.1,260,127.1,260.4L127.1,260.4z M126.3,260.1c0-0.5-0.2-0.9-0.5-1.3c-0.4-0.4-0.8-0.6-1.3-0.5c-0.3,0-0.5,0-0.8,0.1
	c-0.4,0.2-0.8,0.6-1,1c-0.1,0.2-0.2,0.5-0.2,0.7L126.3,260.1L126.3,260.1z M133.5,262.4c-0.2,0.4-0.6,0.6-0.9,0.8
	c-0.4,0.2-0.8,0.3-1.2,0.3c-0.4,0-0.8-0.1-1.2-0.2c-0.3-0.1-0.7-0.4-0.9-0.6c-0.3-0.3-0.5-0.6-0.6-0.9c-0.3-0.8-0.3-1.6,0-2.3
	c0.1-0.3,0.3-0.7,0.6-0.9c0.3-0.3,0.6-0.5,0.9-0.6c0.4-0.2,0.8-0.2,1.2-0.2c0.4,0,0.8,0.1,1.2,0.3c0.4,0.2,0.7,0.5,0.9,0.8v-4.4h0.8
	v9.1h-0.8V262.4L133.5,262.4z M129.3,260.5c0,0.3,0,0.6,0.1,0.9c0.1,0.3,0.2,0.5,0.4,0.7c0.2,0.2,0.4,0.4,0.7,0.5
	c0.3,0.1,0.6,0.2,0.9,0.2c0.6,0,1.1-0.2,1.6-0.6c0.2-0.2,0.3-0.4,0.4-0.7c0.2-0.6,0.2-1.2,0-1.8c-0.1-0.3-0.3-0.5-0.4-0.7
	c-0.2-0.2-0.4-0.4-0.7-0.5c-0.3-0.1-0.6-0.2-0.9-0.2c-0.3,0-0.6,0.1-0.9,0.2c-0.3,0.1-0.5,0.3-0.7,0.5c-0.2,0.2-0.3,0.5-0.4,0.7
	C129.4,260,129.3,260.2,129.3,260.5L129.3,260.5z M137.5,255.6c0,0.2-0.1,0.3-0.2,0.4c-0.2,0.2-0.6,0.2-0.8,0
	c-0.2-0.2-0.2-0.6,0-0.8c0,0,0,0,0,0c0.2-0.2,0.6-0.2,0.8,0C137.4,255.3,137.5,255.4,137.5,255.6z M137.3,263.4h-0.8v-5.6h0.8V263.4
	z M143,259.7c0-0.4-0.1-0.8-0.4-1.1c-0.3-0.3-0.7-0.4-1.1-0.4c-0.3,0-0.6,0.1-0.9,0.2c-0.3,0.1-0.5,0.3-0.7,0.5l-0.5-0.5
	c0.3-0.3,0.6-0.5,0.9-0.6c0.4-0.2,0.8-0.2,1.3-0.2c0.3,0,0.6,0,0.9,0.1c0.3,0.1,0.5,0.2,0.7,0.4c0.2,0.2,0.4,0.4,0.5,0.6
	c0.1,0.3,0.2,0.6,0.2,0.9v3.1c0,0.2,0,0.4,0.1,0.6h-0.7c0-0.1,0-0.3-0.1-0.4c0-0.2,0-0.3,0-0.5c-0.2,0.3-0.5,0.6-0.9,0.8
	c-0.4,0.2-0.8,0.3-1.2,0.2c-0.2,0-0.5,0-0.7-0.1c-0.2-0.1-0.4-0.2-0.6-0.3c-0.2-0.1-0.4-0.3-0.5-0.5c-0.1-0.2-0.2-0.5-0.2-0.8
	c0-0.4,0.1-0.7,0.3-1c0.2-0.3,0.5-0.5,0.9-0.6c0.4-0.1,0.8-0.2,1.3-0.2c0.5,0,1,0,1.5,0L143,259.7L143,259.7z M142.8,260.6h-1
	c-0.3,0-0.6,0.1-0.9,0.2c-0.3,0.1-0.5,0.2-0.7,0.4c-0.2,0.2-0.3,0.4-0.3,0.6c0,0.2,0,0.3,0.1,0.5c0.1,0.1,0.2,0.2,0.3,0.3
	c0.1,0.1,0.3,0.1,0.4,0.2c0.2,0,0.3,0.1,0.5,0c0.3,0,0.5,0,0.8-0.1c0.2-0.1,0.4-0.2,0.6-0.4c0.2-0.2,0.3-0.4,0.4-0.6
	c0.1-0.2,0.1-0.4,0.1-0.6v-0.4L142.8,260.6L142.8,260.6z M221,165.5h2.5c0.3,0,0.7,0,1,0.1c0.3,0.1,0.6,0.2,0.9,0.4
	c0.3,0.2,0.5,0.4,0.6,0.7c0.2,0.3,0.3,0.7,0.2,1.1c0,0.4-0.1,0.8-0.4,1.2c-0.3,0.3-0.7,0.6-1.1,0.6c0.5,0,1,0.3,1.4,0.6
	c0.4,0.4,0.6,0.9,0.5,1.5c0,0.7-0.3,1.3-0.9,1.7c-0.3,0.2-0.6,0.4-1,0.5c-0.4,0.1-0.9,0.2-1.3,0.2H221V165.5L221,165.5z
	 M221.9,169.2h1.7c0.2,0,0.4,0,0.6-0.1c0.2,0,0.4-0.1,0.6-0.2c0.2-0.1,0.3-0.3,0.4-0.5c0.1-0.2,0.2-0.5,0.2-0.7c0-0.2,0-0.5-0.2-0.7
	c-0.1-0.2-0.3-0.3-0.4-0.5c-0.2-0.1-0.4-0.2-0.6-0.3c-0.3-0.1-0.5-0.1-0.8-0.1h-1.5L221.9,169.2L221.9,169.2z M221.9,173.2h1.6
	c0.3,0,0.6,0,0.9-0.1c0.3-0.1,0.5-0.2,0.7-0.3c0.2-0.1,0.4-0.3,0.5-0.5c0.4-0.7,0.2-1.5-0.4-2c-0.5-0.3-1-0.4-1.6-0.4h-1.8V173.2
	L221.9,173.2z M232.7,174v-1c-0.2,0.3-0.4,0.6-0.8,0.8c-0.3,0.2-0.7,0.3-1.1,0.3c-0.6,0-1.2-0.2-1.6-0.6c-0.4-0.5-0.6-1.1-0.5-1.7
	v-3.4h0.8v3.1c0,0.3,0,0.5,0.1,0.8c0,0.2,0.1,0.4,0.2,0.6c0.1,0.2,0.3,0.3,0.5,0.4c0.2,0.1,0.5,0.1,0.7,0.1c0.2,0,0.4,0,0.6-0.1
	c0.2-0.1,0.4-0.2,0.6-0.4c0.2-0.2,0.3-0.4,0.4-0.7c0.1-0.3,0.2-0.7,0.1-1v-2.9h0.8v5.6L232.7,174L232.7,174z M238.6,169.7
	c-0.1-0.2-0.3-0.4-0.6-0.6c-0.3-0.1-0.5-0.2-0.8-0.2c-0.1,0-0.3,0-0.4,0c-0.1,0-0.3,0.1-0.4,0.2c-0.1,0.1-0.2,0.2-0.3,0.3
	c-0.1,0.1-0.1,0.3-0.1,0.4c0,0.2,0.1,0.5,0.3,0.6c0.3,0.2,0.6,0.3,1,0.4c0.5,0.1,1,0.3,1.5,0.6c0.3,0.2,0.5,0.6,0.5,1
	c0,0.5-0.2,1-0.7,1.4c-0.2,0.1-0.4,0.2-0.7,0.3c-0.2,0.1-0.5,0.1-0.8,0.1c-0.4,0-0.8-0.1-1.2-0.3c-0.4-0.2-0.8-0.5-1-0.8l0.6-0.5
	c0.3,0.5,0.9,0.9,1.6,0.9c0.2,0,0.3,0,0.5,0c0.1,0,0.3-0.1,0.4-0.2c0.3-0.2,0.4-0.5,0.4-0.8c0-0.3-0.2-0.6-0.4-0.7
	c-0.4-0.2-0.8-0.3-1.2-0.4l-0.5-0.1c-0.2-0.1-0.4-0.1-0.5-0.3c-0.2-0.1-0.3-0.3-0.4-0.4c-0.1-0.2-0.2-0.4-0.2-0.7
	c0-0.3,0.1-0.5,0.2-0.7c0.1-0.2,0.3-0.4,0.4-0.5c0.2-0.1,0.4-0.2,0.6-0.3c0.2-0.1,0.5-0.1,0.7-0.1c0.4,0,0.8,0.1,1.1,0.3
	c0.3,0.2,0.6,0.4,0.8,0.7L238.6,169.7z M241.9,166.2c0,0.2-0.1,0.3-0.2,0.4c-0.2,0.2-0.6,0.2-0.8,0c-0.2-0.2-0.2-0.6,0-0.8
	c0,0,0,0,0,0c0.2-0.2,0.6-0.2,0.8,0C241.8,165.9,241.9,166,241.9,166.2z M241.7,174h-0.8v-5.6h0.8V174L241.7,174z M244.6,168.4v1
	c0.2-0.3,0.4-0.6,0.8-0.8c0.3-0.2,0.7-0.3,1.1-0.3c0.6,0,1.2,0.2,1.6,0.6c0.4,0.5,0.6,1.1,0.5,1.7v3.5h-0.8v-3.1
	c0-0.3,0-0.5-0.1-0.8c0-0.2-0.1-0.4-0.2-0.6c-0.1-0.2-0.3-0.3-0.5-0.4c-0.2-0.1-0.5-0.2-0.7-0.1c-0.2,0-0.4,0-0.6,0.1
	c-0.2,0.1-0.4,0.2-0.6,0.4c-0.2,0.2-0.3,0.4-0.4,0.7c-0.1,0.3-0.2,0.7-0.1,1v2.9h-0.7v-5.6L244.6,168.4L244.6,168.4z M256,171v0.2
	c0,0.1,0,0.1,0,0.2h-4.7c0,0.3,0.1,0.5,0.2,0.8c0.1,0.2,0.2,0.5,0.4,0.6c0.2,0.2,0.4,0.3,0.6,0.4c0.6,0.3,1.3,0.2,1.9-0.1
	c0.3-0.2,0.5-0.4,0.7-0.7l0.6,0.5c-0.3,0.4-0.7,0.7-1.1,0.9c-0.4,0.2-0.9,0.3-1.3,0.3c-0.4,0-0.8-0.1-1.2-0.2
	c-0.3-0.1-0.7-0.4-0.9-0.6c-0.3-0.3-0.5-0.6-0.6-0.9c-0.2-0.4-0.2-0.8-0.2-1.2c0-0.4,0.1-0.8,0.2-1.2c0.1-0.3,0.3-0.7,0.6-0.9
	c0.3-0.3,0.6-0.5,0.9-0.6c0.4-0.1,0.7-0.2,1.1-0.2c0.4,0,0.8,0.1,1.2,0.2c0.3,0.1,0.6,0.3,0.8,0.6c0.2,0.3,0.4,0.6,0.5,0.9
	C255.9,170.3,256,170.6,256,171L256,171z M255.2,170.7c0-0.5-0.2-0.9-0.5-1.3c-0.4-0.4-0.8-0.6-1.4-0.5c-0.3,0-0.5,0-0.8,0.1
	c-0.4,0.2-0.8,0.6-1,1c-0.1,0.2-0.2,0.5-0.2,0.7L255.2,170.7L255.2,170.7z M260.7,169.7c-0.1-0.2-0.3-0.4-0.5-0.6
	c-0.3-0.1-0.5-0.2-0.8-0.2c-0.1,0-0.3,0-0.4,0c-0.1,0-0.3,0.1-0.4,0.2c-0.1,0.1-0.2,0.2-0.3,0.3c-0.1,0.1-0.1,0.3-0.1,0.4
	c0,0.2,0.1,0.5,0.3,0.6c0.3,0.2,0.6,0.3,1,0.4c0.5,0.1,1,0.3,1.5,0.6c0.3,0.2,0.5,0.6,0.5,1c0,0.5-0.2,1-0.7,1.4
	c-0.2,0.1-0.4,0.2-0.7,0.3c-0.2,0.1-0.5,0.1-0.8,0.1c-0.4,0-0.8-0.1-1.2-0.3c-0.4-0.2-0.8-0.5-1-0.8l0.6-0.5
	c0.3,0.5,0.9,0.9,1.6,0.9c0.2,0,0.3,0,0.5,0c0.1,0,0.3-0.1,0.4-0.2c0.3-0.2,0.4-0.5,0.4-0.8c0-0.3-0.2-0.6-0.4-0.7
	c-0.4-0.2-0.8-0.3-1.2-0.4l-0.5-0.1c-0.2-0.1-0.4-0.1-0.5-0.3c-0.2-0.1-0.3-0.3-0.4-0.4c-0.1-0.2-0.2-0.4-0.2-0.7
	c0-0.3,0.1-0.5,0.2-0.7c0.1-0.2,0.3-0.4,0.5-0.5c0.2-0.1,0.4-0.2,0.6-0.3c0.2-0.1,0.5-0.1,0.7-0.1c0.4,0,0.8,0.1,1.1,0.3
	c0.3,0.2,0.6,0.4,0.8,0.7L260.7,169.7z M266.1,169.7c-0.1-0.2-0.3-0.4-0.5-0.6c-0.3-0.1-0.5-0.2-0.8-0.2c-0.1,0-0.3,0-0.4,0
	c-0.1,0-0.3,0.1-0.4,0.2c-0.1,0.1-0.2,0.2-0.3,0.3c-0.1,0.1-0.1,0.3-0.1,0.4c0,0.2,0.1,0.5,0.3,0.6c0.3,0.2,0.6,0.3,1,0.4
	c0.5,0.1,1,0.3,1.5,0.6c0.3,0.2,0.5,0.6,0.5,1c0,0.5-0.2,1-0.7,1.4c-0.2,0.1-0.4,0.2-0.7,0.3c-0.2,0.1-0.5,0.1-0.8,0.1
	c-0.4,0-0.8-0.1-1.2-0.3c-0.4-0.2-0.8-0.5-1-0.8l0.6-0.5c0.3,0.5,0.9,0.9,1.6,0.9c0.2,0,0.3,0,0.5,0c0.1,0,0.3-0.1,0.4-0.2
	c0.1-0.1,0.2-0.2,0.3-0.3c0.1-0.1,0.1-0.3,0.1-0.5c0-0.3-0.2-0.6-0.4-0.7c-0.4-0.2-0.8-0.3-1.2-0.4l-0.5-0.1
	c-0.2-0.1-0.4-0.1-0.5-0.3c-0.2-0.1-0.3-0.3-0.4-0.4c-0.1-0.2-0.2-0.4-0.2-0.7c0-0.3,0.1-0.5,0.2-0.7c0.1-0.2,0.3-0.4,0.5-0.5
	c0.2-0.1,0.4-0.2,0.6-0.3c0.2-0.1,0.5-0.1,0.7-0.1c0.4,0,0.8,0.1,1.1,0.3c0.3,0.2,0.6,0.4,0.8,0.7L266.1,169.7z M272.3,173.2h4v0.8
	h-4.8v-8.5h0.9L272.3,173.2L272.3,173.2z M282.9,171.2c0,0.4-0.1,0.8-0.2,1.2c-0.1,0.4-0.4,0.7-0.6,0.9c-0.3,0.3-0.6,0.5-1,0.6
	c-0.8,0.3-1.6,0.3-2.4,0c-0.4-0.1-0.7-0.4-1-0.6c-0.3-0.3-0.5-0.6-0.6-0.9c-0.3-0.8-0.3-1.6,0-2.4c0.3-0.7,0.9-1.3,1.6-1.6
	c0.8-0.3,1.6-0.3,2.4,0c0.4,0.1,0.7,0.4,1,0.6c0.3,0.3,0.5,0.6,0.6,0.9C282.8,170.4,282.9,170.8,282.9,171.2L282.9,171.2z
	 M282,171.2c0-0.3,0-0.6-0.1-0.9c-0.1-0.3-0.2-0.5-0.4-0.7c-0.2-0.2-0.4-0.4-0.7-0.5c-0.3-0.1-0.6-0.2-0.9-0.2
	c-0.3,0-0.6,0.1-0.9,0.2c-0.3,0.1-0.5,0.3-0.7,0.5c-0.2,0.2-0.3,0.5-0.4,0.7c-0.2,0.6-0.2,1.2,0,1.8c0.1,0.3,0.2,0.5,0.4,0.7
	c0.2,0.2,0.4,0.4,0.7,0.5c0.3,0.1,0.6,0.2,0.9,0.2c0.3,0,0.6-0.1,0.9-0.2c0.3-0.1,0.5-0.3,0.7-0.5c0.2-0.2,0.3-0.5,0.4-0.7
	C282,171.8,282,171.5,282,171.2L282,171.2z M284.9,175.1c0.2,0.3,0.6,0.6,0.9,0.7c0.7,0.4,1.5,0.4,2.2,0.1c0.3-0.1,0.5-0.3,0.7-0.5
	c0.2-0.2,0.3-0.4,0.4-0.7c0.1-0.3,0.1-0.6,0.1-0.9v-1.1c-0.2,0.4-0.5,0.6-0.9,0.8c-0.4,0.2-0.8,0.3-1.2,0.3c-0.4,0-0.8-0.1-1.2-0.2
	c-0.3-0.1-0.6-0.3-0.9-0.6c-0.3-0.3-0.5-0.6-0.6-0.9c-0.1-0.4-0.2-0.8-0.2-1.1c0-0.4,0.1-0.8,0.2-1.1c0.1-0.3,0.3-0.7,0.6-0.9
	c0.3-0.3,0.6-0.5,0.9-0.6c0.4-0.2,0.8-0.2,1.2-0.2c0.4,0,0.8,0.1,1.2,0.3c0.4,0.2,0.7,0.5,0.9,0.8v-1h0.8v5.6c0,0.3,0,0.7-0.1,1
	c-0.1,0.3-0.2,0.7-0.5,0.9c-0.3,0.3-0.6,0.6-0.9,0.7c-0.5,0.2-1,0.3-1.5,0.3c-0.5,0-1-0.1-1.5-0.3c-0.5-0.2-0.9-0.5-1.2-0.8
	L284.9,175.1z M285.1,171.1c0,0.3,0,0.6,0.1,0.8c0.1,0.3,0.2,0.5,0.4,0.7c0.2,0.2,0.4,0.4,0.7,0.5c0.3,0.1,0.6,0.2,0.9,0.2
	c0.3,0,0.6-0.1,0.9-0.2c0.3-0.1,0.5-0.2,0.7-0.4c0.2-0.2,0.3-0.4,0.5-0.7c0.1-0.3,0.2-0.6,0.2-0.9c0-0.9-0.5-1.6-1.3-2
	c-0.3-0.1-0.6-0.2-0.9-0.2c-0.3,0-0.6,0.1-0.9,0.2c-0.3,0.1-0.5,0.3-0.7,0.5c-0.2,0.2-0.3,0.4-0.4,0.7
	C285.1,170.6,285.1,170.8,285.1,171.1L285.1,171.1z M293.2,166.2c0,0.2-0.1,0.3-0.2,0.4c-0.2,0.2-0.6,0.2-0.8,0
	c-0.2-0.2-0.2-0.6,0-0.8c0,0,0,0,0,0c0.2-0.2,0.6-0.2,0.8,0C293.2,165.9,293.2,166.1,293.2,166.2z M293,174h-0.8v-5.6h0.8V174z
	 M299.3,169.6c-0.1-0.2-0.4-0.4-0.6-0.5c-0.3-0.1-0.6-0.2-0.9-0.2c-0.3,0-0.6,0.1-0.9,0.2c-0.3,0.1-0.5,0.3-0.7,0.5
	c-0.2,0.2-0.3,0.5-0.4,0.7c-0.1,0.3-0.2,0.6-0.1,0.9c0,0.3,0,0.6,0.1,0.9c0.1,0.3,0.2,0.5,0.4,0.7c0.2,0.2,0.4,0.4,0.7,0.5
	c0.3,0.1,0.6,0.2,0.9,0.2c0.3,0,0.6-0.1,0.9-0.2c0.2-0.1,0.4-0.3,0.6-0.5l0.6,0.5c-0.2,0.3-0.5,0.5-0.9,0.7
	c-0.4,0.2-0.8,0.3-1.2,0.3c-0.4,0-0.8-0.1-1.2-0.2c-0.4-0.1-0.7-0.4-0.9-0.6c-0.3-0.3-0.5-0.6-0.6-0.9c-0.3-0.8-0.3-1.6,0-2.4
	c0.1-0.4,0.3-0.7,0.6-0.9c0.3-0.3,0.6-0.5,0.9-0.6c0.4-0.2,0.8-0.2,1.2-0.2c0.4,0,0.8,0.1,1.1,0.2c0.4,0.2,0.7,0.4,0.9,0.7
	L299.3,169.6z"/>
<path class="st0" d="M237,239.2h-0.9v-7.7h-2.8v-0.8h6.6v0.8H237V239.2z M240,234.2v-0.6h0.8v1c0.3-0.7,1-1.1,1.8-1.1h0.5l-0.1,0.8
	h-0.6c-0.2,0-0.4,0-0.6,0.1c-0.2,0.1-0.4,0.2-0.5,0.4c-0.2,0.2-0.3,0.4-0.4,0.7c-0.1,0.3-0.2,0.7-0.1,1v2.9H240V234.2z M247.7,235.6
	c0-0.4-0.1-0.8-0.4-1.1c-0.3-0.3-0.7-0.4-1.1-0.4c-0.3,0-0.6,0.1-0.9,0.2c-0.3,0.1-0.5,0.3-0.7,0.5l-0.5-0.5
	c0.3-0.3,0.6-0.5,0.9-0.6c0.4-0.2,0.8-0.2,1.3-0.2c0.3,0,0.6,0,0.9,0.1c0.3,0.1,0.5,0.2,0.7,0.4c0.2,0.2,0.4,0.4,0.5,0.6
	c0.1,0.3,0.2,0.6,0.2,0.9v3.1c0,0.2,0,0.4,0.1,0.6h-0.7c0-0.1,0-0.3-0.1-0.4c0-0.2,0-0.3,0-0.5c-0.2,0.3-0.5,0.6-0.9,0.8
	c-0.4,0.2-0.8,0.3-1.2,0.2c-0.2,0-0.5,0-0.7-0.1c-0.2-0.1-0.4-0.2-0.6-0.3c-0.2-0.1-0.4-0.3-0.5-0.5c-0.1-0.2-0.2-0.5-0.2-0.8
	c0-0.4,0.1-0.7,0.3-1c0.2-0.3,0.5-0.5,0.9-0.6c0.4-0.1,0.8-0.2,1.3-0.2c0.5,0,1-0.1,1.5-0.1L247.7,235.6L247.7,235.6z M247.5,236.4
	h-1c-0.3,0-0.6,0.1-0.9,0.2c-0.3,0.1-0.5,0.2-0.7,0.4c-0.2,0.2-0.3,0.4-0.3,0.6c0,0.2,0,0.3,0.1,0.5c0.1,0.1,0.2,0.2,0.3,0.3
	c0.1,0.1,0.3,0.1,0.4,0.2c0.2,0,0.3,0.1,0.5,0.1c0.3,0,0.5,0,0.8-0.1c0.2-0.1,0.4-0.2,0.6-0.4c0.2-0.2,0.3-0.4,0.4-0.6
	c0.1-0.2,0.1-0.5,0.1-0.7v-0.4L247.5,236.4L247.5,236.4z M251.3,233.6v1c0.2-0.3,0.4-0.6,0.8-0.8c0.3-0.2,0.7-0.3,1.1-0.3
	c0.6,0,1.2,0.2,1.6,0.6c0.4,0.5,0.6,1.1,0.5,1.7v3.4h-0.8v-3.1c0-0.3,0-0.5-0.1-0.8c0-0.2-0.1-0.4-0.2-0.6c-0.1-0.2-0.3-0.3-0.5-0.4
	c-0.2-0.1-0.5-0.1-0.7-0.1c-0.2,0-0.4,0-0.6,0.1c-0.2,0.1-0.4,0.2-0.6,0.4c-0.2,0.2-0.3,0.4-0.4,0.7c-0.1,0.3-0.2,0.7-0.1,1v2.9
	h-0.8v-5.6L251.3,233.6L251.3,233.6z M260.5,234.9c-0.1-0.2-0.3-0.4-0.5-0.6c-0.3-0.1-0.5-0.2-0.8-0.2c-0.1,0-0.3,0-0.4,0
	c-0.1,0-0.3,0.1-0.4,0.2c-0.1,0.1-0.2,0.2-0.3,0.3c-0.1,0.1-0.1,0.3-0.1,0.4c0,0.2,0.1,0.5,0.3,0.6c0.3,0.2,0.6,0.3,1,0.4
	c0.5,0.1,1,0.3,1.5,0.6c0.3,0.2,0.5,0.6,0.5,1c0,0.5-0.2,1-0.7,1.4c-0.2,0.1-0.4,0.2-0.7,0.3c-0.2,0.1-0.5,0.1-0.8,0.1
	c-0.4,0-0.8-0.1-1.2-0.3c-0.4-0.2-0.8-0.5-1-0.8l0.6-0.5c0.3,0.5,0.9,0.9,1.6,0.9c0.2,0,0.3,0,0.5,0c0.1,0,0.3-0.1,0.4-0.2
	c0.3-0.2,0.4-0.5,0.4-0.8c0-0.3-0.2-0.5-0.4-0.6c-0.4-0.2-0.8-0.3-1.2-0.4l-0.5-0.1c-0.2-0.1-0.4-0.1-0.5-0.3
	c-0.2-0.1-0.3-0.3-0.4-0.4c-0.1-0.2-0.2-0.4-0.2-0.7c0-0.3,0.1-0.5,0.2-0.7c0.1-0.2,0.3-0.4,0.5-0.5c0.2-0.1,0.4-0.2,0.6-0.3
	c0.2-0.1,0.5-0.1,0.7-0.1c0.4,0,0.8,0.1,1.1,0.3c0.3,0.2,0.6,0.4,0.8,0.7L260.5,234.9z M266.4,235.6c0-0.4-0.1-0.8-0.4-1.1
	c-0.3-0.3-0.7-0.4-1.1-0.4c-0.3,0-0.6,0.1-0.9,0.2c-0.3,0.1-0.5,0.3-0.7,0.5l-0.5-0.5c0.3-0.3,0.6-0.5,0.9-0.6
	c0.4-0.2,0.8-0.2,1.3-0.2c0.3,0,0.6,0,0.9,0.1c0.3,0.1,0.5,0.2,0.7,0.4c0.2,0.2,0.4,0.4,0.5,0.6c0.1,0.3,0.2,0.6,0.2,0.9v3.1
	c0,0.2,0,0.4,0.1,0.6h-0.7c0-0.1,0-0.3-0.1-0.4s0-0.3,0-0.5c-0.2,0.3-0.5,0.6-0.9,0.8c-0.4,0.2-0.8,0.3-1.2,0.2
	c-0.2,0-0.5,0-0.7-0.1c-0.2-0.1-0.4-0.2-0.6-0.3c-0.2-0.1-0.4-0.3-0.5-0.5c-0.1-0.2-0.2-0.5-0.2-0.8c0-0.4,0.1-0.7,0.3-1
	c0.2-0.3,0.5-0.5,0.9-0.6c0.4-0.1,0.8-0.2,1.3-0.2c0.5,0,1-0.1,1.5-0.1L266.4,235.6L266.4,235.6z M266.2,236.4h-1
	c-0.3,0-0.6,0.1-0.9,0.2c-0.3,0.1-0.5,0.2-0.7,0.4c-0.2,0.2-0.3,0.4-0.3,0.6c0,0.2,0,0.3,0.1,0.5c0.1,0.1,0.2,0.2,0.3,0.3
	c0.1,0.1,0.3,0.1,0.4,0.2c0.2,0,0.3,0.1,0.5,0.1c0.3,0,0.5,0,0.8-0.1c0.2-0.1,0.4-0.2,0.6-0.4c0.2-0.2,0.3-0.4,0.4-0.6
	c0.1-0.2,0.1-0.5,0.1-0.7v-0.4L266.2,236.4L266.2,236.4z M273.3,234.9c-0.1-0.2-0.4-0.4-0.6-0.5c-0.3-0.1-0.6-0.2-0.9-0.2
	c-0.3,0-0.6,0.1-0.9,0.2c-0.3,0.1-0.5,0.3-0.7,0.5c-0.2,0.2-0.3,0.5-0.4,0.7c-0.1,0.3-0.2,0.6-0.1,0.9c0,0.3,0,0.6,0.1,0.9
	c0.1,0.3,0.2,0.5,0.4,0.7c0.2,0.2,0.4,0.4,0.7,0.5c0.3,0.1,0.6,0.2,0.9,0.2c0.6,0,1.2-0.2,1.5-0.7l0.6,0.5c-0.2,0.3-0.5,0.5-0.9,0.7
	c-0.4,0.2-0.8,0.3-1.2,0.3c-0.4,0-0.8-0.1-1.2-0.2c-0.4-0.1-0.7-0.4-0.9-0.6c-0.3-0.3-0.5-0.6-0.6-0.9c-0.3-0.8-0.3-1.6,0-2.4
	c0.1-0.4,0.3-0.7,0.6-0.9c0.3-0.3,0.6-0.5,0.9-0.6c0.4-0.2,0.8-0.2,1.2-0.2c0.4,0,0.8,0.1,1.1,0.2c0.4,0.2,0.7,0.4,0.9,0.7
	L273.3,234.9z M277.8,234.3h-1.6v3.3c0,0.2,0,0.4,0.1,0.5c0,0.1,0.1,0.2,0.2,0.3c0.1,0.1,0.2,0.1,0.3,0.2c0.1,0,0.2,0,0.3,0
	c0.1,0,0.2,0,0.4,0c0.1,0,0.2-0.1,0.4-0.1v0.7c-0.1,0.1-0.3,0.1-0.5,0.1c-0.2,0-0.3,0-0.5,0c-0.2,0-0.3,0-0.5-0.1
	c-0.2,0-0.3-0.1-0.5-0.2c-0.2-0.1-0.3-0.3-0.4-0.5c-0.1-0.2-0.1-0.5-0.1-0.8v-3.5h-1.2v-0.7h1.2V232h0.8v1.6h1.6L277.8,234.3
	L277.8,234.3z M280.1,231.4c0,0.2-0.1,0.3-0.2,0.4c-0.2,0.2-0.6,0.2-0.8,0c-0.2-0.2-0.2-0.6,0-0.8c0,0,0,0,0,0
	c0.2-0.2,0.6-0.2,0.8,0C280,231.1,280.1,231.3,280.1,231.4z M279.9,239.2h-0.8v-5.6h0.8V239.2z M287.7,236.4c0,0.4-0.1,0.8-0.2,1.2
	c-0.3,0.7-0.9,1.3-1.6,1.6c-0.4,0.2-0.8,0.2-1.2,0.2c-0.4,0-0.8-0.1-1.2-0.2c-0.4-0.1-0.7-0.4-1-0.6c-0.3-0.3-0.5-0.6-0.6-0.9
	c-0.3-0.8-0.3-1.6,0-2.4c0.1-0.4,0.4-0.7,0.6-0.9c0.3-0.3,0.6-0.5,1-0.6c0.4-0.2,0.8-0.2,1.2-0.2c0.4,0,0.8,0.1,1.2,0.2
	c0.7,0.3,1.3,0.8,1.6,1.6C287.6,235.6,287.7,236,287.7,236.4z M286.8,236.4c0-0.3,0-0.6-0.1-0.9c-0.1-0.3-0.2-0.5-0.4-0.7
	c-0.2-0.2-0.4-0.4-0.7-0.5c-0.3-0.1-0.6-0.2-0.9-0.2c-0.3,0-0.6,0.1-0.9,0.2c-0.3,0.1-0.5,0.3-0.7,0.5c-0.2,0.2-0.3,0.5-0.4,0.7
	c-0.2,0.6-0.2,1.2,0,1.8c0.1,0.3,0.2,0.5,0.4,0.7c0.2,0.2,0.4,0.4,0.7,0.5c0.3,0.1,0.6,0.2,0.9,0.2c0.3,0,0.6-0.1,0.9-0.2
	c0.3-0.1,0.5-0.3,0.7-0.5c0.2-0.2,0.3-0.5,0.4-0.7C286.8,237,286.8,236.7,286.8,236.4L286.8,236.4z M290.2,233.6v1
	c0.2-0.3,0.4-0.6,0.8-0.8c0.3-0.2,0.7-0.3,1.1-0.3c0.6,0,1.2,0.2,1.6,0.6c0.4,0.5,0.6,1.1,0.5,1.7v3.4h-0.8v-3.1
	c0-0.3,0-0.5-0.1-0.8c0-0.2-0.1-0.4-0.2-0.6c-0.1-0.2-0.3-0.3-0.5-0.4c-0.2-0.1-0.5-0.1-0.7-0.1c-0.2,0-0.4,0-0.6,0.1
	c-0.2,0.1-0.4,0.2-0.5,0.4c-0.2,0.2-0.3,0.4-0.4,0.7c-0.1,0.3-0.2,0.7-0.1,1v2.9h-0.8v-5.6L290.2,233.6L290.2,233.6z M299.4,234.9
	c-0.1-0.2-0.3-0.4-0.5-0.6c-0.3-0.1-0.5-0.2-0.8-0.2c-0.1,0-0.3,0-0.4,0c-0.1,0-0.3,0.1-0.4,0.2c-0.1,0.1-0.2,0.2-0.3,0.3
	c-0.1,0.1-0.1,0.3-0.1,0.4c0,0.2,0.1,0.5,0.3,0.6c0.3,0.2,0.6,0.3,1,0.4c0.5,0.1,1,0.3,1.5,0.6c0.3,0.2,0.5,0.6,0.5,1
	c0,0.5-0.2,1-0.7,1.4c-0.2,0.1-0.4,0.2-0.7,0.3c-0.2,0.1-0.5,0.1-0.8,0.1c-0.4,0-0.8-0.1-1.2-0.3c-0.4-0.2-0.8-0.5-1-0.8l0.6-0.5
	c0.3,0.5,0.9,0.9,1.6,0.9c0.2,0,0.3,0,0.5,0c0.1,0,0.3-0.1,0.4-0.2c0.3-0.2,0.4-0.5,0.4-0.8c0-0.3-0.2-0.6-0.4-0.7
	c-0.4-0.2-0.8-0.3-1.2-0.4l-0.5-0.1c-0.2-0.1-0.4-0.1-0.5-0.3c-0.2-0.1-0.3-0.3-0.4-0.4c-0.1-0.2-0.2-0.4-0.2-0.7
	c0-0.3,0.1-0.5,0.2-0.7c0.1-0.2,0.3-0.4,0.5-0.5c0.2-0.1,0.4-0.2,0.6-0.3c0.2-0.1,0.5-0.1,0.7-0.1c0.4,0,0.8,0.1,1.1,0.3
	c0.3,0.2,0.6,0.4,0.8,0.7L299.4,234.9z M301.9,240.9h-0.7l0.8-2.8h0.9L301.9,240.9z M314.7,237.8c-0.1,0.2-0.3,0.4-0.5,0.6
	c-0.2,0.2-0.5,0.4-0.7,0.5c-0.3,0.2-0.6,0.3-0.9,0.4c-0.3,0.1-0.7,0.1-1.1,0.1c-0.6,0-1.2-0.1-1.8-0.3c-1.1-0.4-1.9-1.3-2.3-2.3
	c-0.2-0.6-0.3-1.2-0.3-1.8c0-0.6,0.1-1.2,0.3-1.8c0.4-1.1,1.3-1.9,2.3-2.3c0.6-0.2,1.2-0.3,1.8-0.3c0.6,0,1.2,0.1,1.8,0.4
	c0.3,0.1,0.5,0.3,0.7,0.4c0.2,0.2,0.4,0.3,0.5,0.6l-0.7,0.5c-0.1-0.2-0.2-0.3-0.4-0.4c-0.2-0.1-0.3-0.3-0.5-0.4
	c-0.2-0.1-0.4-0.2-0.6-0.2c-0.2-0.1-0.5-0.1-0.8-0.1c-0.5,0-1,0.1-1.5,0.3c-0.4,0.2-0.8,0.5-1.1,0.8c-0.3,0.3-0.5,0.7-0.7,1.2
	c-0.2,0.5-0.2,0.9-0.2,1.4c0,0.5,0.1,1,0.2,1.4c0.2,0.4,0.4,0.8,0.7,1.2c0.3,0.3,0.7,0.6,1.1,0.8c0.5,0.2,1,0.3,1.5,0.3
	c0.5,0,1-0.1,1.4-0.3c0.5-0.2,0.8-0.6,1.1-1L314.7,237.8z M321.1,236.2v0.2c0,0.1,0,0.1,0,0.2h-4.7c0,0.3,0.1,0.5,0.2,0.8
	c0.1,0.2,0.2,0.5,0.4,0.6c0.2,0.2,0.4,0.3,0.6,0.4c0.6,0.3,1.3,0.2,1.9-0.1c0.3-0.2,0.5-0.4,0.7-0.7l0.6,0.5
	c-0.3,0.4-0.7,0.7-1.1,0.9c-0.4,0.2-0.9,0.3-1.3,0.3c-0.4,0-0.8-0.1-1.2-0.2c-0.3-0.1-0.7-0.4-0.9-0.6c-0.3-0.3-0.5-0.6-0.6-0.9
	c-0.2-0.4-0.2-0.8-0.2-1.2c0-0.4,0.1-0.8,0.2-1.2c0.1-0.4,0.3-0.7,0.6-0.9c0.3-0.3,0.6-0.5,0.9-0.6c0.4-0.2,0.7-0.2,1.1-0.2
	c0.4,0,0.8,0.1,1.2,0.2c0.3,0.1,0.6,0.3,0.8,0.6c0.2,0.3,0.4,0.6,0.5,0.9C321,235.5,321.1,235.8,321.1,236.2L321.1,236.2z
	 M320.3,236c0-0.5-0.2-0.9-0.5-1.3c-0.4-0.4-0.8-0.6-1.4-0.5c-0.3,0-0.5,0-0.8,0.1c-0.2,0.1-0.4,0.2-0.6,0.4
	c-0.2,0.2-0.3,0.4-0.4,0.6c-0.1,0.2-0.2,0.5-0.2,0.7L320.3,236L320.3,236z M322.8,234.2v-0.6h0.8v1c0.3-0.7,1-1.1,1.8-1.1h0.5
	l-0.1,0.8h-0.6c-0.2,0-0.4,0-0.6,0.1c-0.2,0.1-0.4,0.2-0.5,0.4c-0.2,0.2-0.3,0.4-0.4,0.7c-0.1,0.3-0.2,0.7-0.1,1v2.9h-0.8v-4.4
	C322.8,234.7,322.8,234.5,322.8,234.2L322.8,234.2z M329.6,234.3H328v3.3c0,0.2,0,0.4,0.1,0.5c0,0.1,0.1,0.2,0.2,0.3
	c0.1,0.1,0.2,0.1,0.3,0.2c0.1,0,0.2,0,0.3,0c0.1,0,0.2,0,0.4,0c0.1,0,0.2-0.1,0.4-0.1v0.7c-0.1,0.1-0.3,0.1-0.5,0.1
	c-0.2,0-0.3,0-0.5,0c-0.2,0-0.3,0-0.5-0.1c-0.2,0-0.3-0.1-0.5-0.2c-0.2-0.1-0.3-0.3-0.4-0.5c-0.1-0.2-0.2-0.5-0.1-0.8v-3.5H326v-0.7
	h1.2V232h0.8v1.6h1.6L329.6,234.3L329.6,234.3z M331.8,231.4c0,0.2-0.1,0.3-0.2,0.4c-0.2,0.2-0.6,0.2-0.8,0c-0.2-0.2-0.2-0.6,0-0.8
	c0,0,0,0,0,0c0.2-0.2,0.6-0.2,0.8,0C331.8,231.1,331.8,231.3,331.8,231.4z M331.7,239.2h-0.8v-5.6h0.8V239.2z M336.2,234.3h-1.3v4.9
	h-0.8v-4.9h-1.2v-0.7h1.2V232c0-0.5,0.1-1.1,0.5-1.5c0.4-0.4,0.9-0.6,1.5-0.5h0.3c0.1,0,0.2,0,0.3,0.1l-0.1,0.7l-0.3-0.1H336
	c-0.2,0-0.4,0-0.5,0.1c-0.1,0.1-0.2,0.2-0.3,0.3c-0.1,0.1-0.1,0.3-0.2,0.5c0,0.2,0,0.4,0,0.6v1.4h1.3L336.2,234.3L336.2,234.3z
	 M338.4,231.4c0,0.2-0.1,0.3-0.2,0.4c-0.2,0.2-0.6,0.2-0.8,0c-0.2-0.2-0.2-0.6,0-0.8c0,0,0,0,0,0c0.2-0.2,0.6-0.2,0.8,0
	C338.3,231.1,338.4,231.3,338.4,231.4z M338.2,239.2h-0.8v-5.6h0.8V239.2z M344.4,234.9c-0.1-0.2-0.4-0.4-0.6-0.5
	c-0.3-0.1-0.6-0.2-0.9-0.2c-0.3,0-0.6,0.1-0.9,0.2c-0.3,0.1-0.5,0.3-0.7,0.5c-0.2,0.2-0.3,0.5-0.4,0.7c-0.1,0.3-0.2,0.6-0.1,0.9
	c0,0.3,0,0.6,0.1,0.9c0.1,0.3,0.2,0.5,0.4,0.7c0.2,0.2,0.4,0.4,0.7,0.5c0.3,0.1,0.6,0.2,0.9,0.2c0.6,0,1.2-0.2,1.5-0.7l0.6,0.5
	c-0.2,0.3-0.5,0.5-0.9,0.7c-0.4,0.2-0.8,0.3-1.2,0.3c-0.4,0-0.8-0.1-1.2-0.2c-0.4-0.1-0.7-0.4-0.9-0.6c-0.3-0.3-0.5-0.6-0.6-0.9
	c-0.3-0.8-0.3-1.6,0-2.4c0.1-0.4,0.3-0.7,0.6-0.9c0.3-0.3,0.6-0.5,0.9-0.6c0.4-0.2,0.8-0.2,1.2-0.2c0.4,0,0.8,0.1,1.1,0.2
	c0.4,0.2,0.7,0.4,0.9,0.7L344.4,234.9z M349.9,235.6c0-0.4-0.1-0.8-0.4-1.1c-0.3-0.3-0.7-0.4-1.1-0.4c-0.3,0-0.6,0.1-0.9,0.2
	c-0.3,0.1-0.5,0.3-0.7,0.5l-0.5-0.5c0.3-0.3,0.6-0.5,0.9-0.6c0.4-0.2,0.8-0.2,1.3-0.2c0.3,0,0.6,0,0.9,0.1c0.3,0.1,0.5,0.2,0.7,0.4
	c0.2,0.2,0.4,0.4,0.5,0.6c0.1,0.3,0.2,0.6,0.2,0.9v3.1c0,0.2,0,0.4,0.1,0.6H350c0-0.1,0-0.3-0.1-0.4s0-0.3,0-0.5
	c-0.2,0.3-0.5,0.6-0.9,0.8c-0.4,0.2-0.8,0.3-1.2,0.2c-0.2,0-0.5,0-0.7-0.1c-0.2-0.1-0.4-0.2-0.6-0.3c-0.2-0.1-0.4-0.3-0.5-0.5
	c-0.1-0.2-0.2-0.5-0.2-0.8c0-0.4,0.1-0.7,0.3-1c0.2-0.3,0.5-0.5,0.9-0.6c0.4-0.1,0.8-0.2,1.3-0.2c0.5,0,1-0.1,1.5-0.1L349.9,235.6
	L349.9,235.6z M349.7,236.4h-1c-0.3,0-0.6,0.1-0.9,0.2c-0.3,0.1-0.5,0.2-0.7,0.4c-0.2,0.2-0.3,0.4-0.3,0.6c0,0.2,0,0.3,0.1,0.5
	c0.1,0.1,0.2,0.2,0.3,0.3c0.1,0.1,0.3,0.1,0.4,0.2c0.2,0,0.3,0.1,0.5,0.1c0.3,0,0.5,0,0.8-0.1c0.2-0.1,0.4-0.2,0.6-0.4
	c0.2-0.2,0.3-0.4,0.4-0.6c0.1-0.2,0.1-0.5,0.1-0.7v-0.4L349.7,236.4L349.7,236.4z M355.2,234.3h-1.6v3.3c0,0.2,0,0.4,0.1,0.5
	c0,0.1,0.1,0.2,0.2,0.3c0.1,0.1,0.2,0.1,0.3,0.2c0.1,0,0.2,0,0.3,0c0.1,0,0.2,0,0.4,0c0.1,0,0.2-0.1,0.4-0.1v0.7
	c-0.1,0.1-0.3,0.1-0.5,0.1c-0.2,0-0.3,0-0.5,0c-0.2,0-0.3,0-0.5-0.1c-0.2,0-0.3-0.1-0.5-0.2c-0.2-0.1-0.3-0.3-0.4-0.5
	c-0.1-0.2-0.1-0.5-0.1-0.8v-3.5h-1.2v-0.7h1.2V232h0.8v1.6h1.6L355.2,234.3L355.2,234.3z M361.6,236.2v0.2c0,0.1,0,0.1,0,0.2h-4.7
	c0,0.3,0.1,0.5,0.2,0.8c0.1,0.2,0.2,0.5,0.4,0.6c0.2,0.2,0.4,0.3,0.6,0.4c0.6,0.3,1.3,0.2,1.9-0.1c0.3-0.2,0.5-0.4,0.7-0.7l0.6,0.5
	c-0.3,0.4-0.7,0.7-1.1,0.9c-0.4,0.2-0.9,0.3-1.3,0.3c-0.4,0-0.8-0.1-1.2-0.2c-0.3-0.1-0.7-0.4-0.9-0.6c-0.3-0.3-0.5-0.6-0.6-0.9
	c-0.2-0.4-0.2-0.8-0.2-1.2c0-0.4,0.1-0.8,0.2-1.2c0.1-0.3,0.3-0.7,0.6-0.9c0.5-0.5,1.2-0.8,2-0.8c0.4,0,0.8,0.1,1.2,0.2
	c0.3,0.1,0.6,0.3,0.8,0.6c0.2,0.3,0.4,0.6,0.5,0.9C361.5,235.5,361.6,235.8,361.6,236.2L361.6,236.2z M360.7,236
	c0-0.5-0.2-0.9-0.5-1.3c-0.4-0.4-0.8-0.6-1.4-0.5c-0.3,0-0.5,0-0.8,0.1c-0.2,0.1-0.4,0.2-0.6,0.4c-0.2,0.2-0.3,0.4-0.4,0.6
	c-0.1,0.2-0.2,0.5-0.2,0.7L360.7,236L360.7,236z M366.3,234.9c-0.1-0.2-0.3-0.4-0.5-0.6c-0.3-0.1-0.5-0.2-0.8-0.2
	c-0.1,0-0.3,0-0.4,0c-0.1,0-0.3,0.1-0.4,0.2c-0.1,0.1-0.2,0.2-0.3,0.3c-0.1,0.1-0.1,0.3-0.1,0.4c0,0.2,0.1,0.5,0.3,0.6
	c0.3,0.2,0.6,0.3,1,0.4c0.5,0.1,1,0.3,1.5,0.6c0.3,0.2,0.5,0.6,0.5,1c0,0.5-0.2,1-0.7,1.4c-0.2,0.1-0.4,0.2-0.7,0.3
	c-0.2,0.1-0.5,0.1-0.8,0.1c-0.4,0-0.8-0.1-1.2-0.3c-0.4-0.2-0.8-0.5-1-0.8l0.6-0.5c0.3,0.5,0.9,0.9,1.6,0.9c0.2,0,0.3,0,0.5,0
	c0.1,0,0.3-0.1,0.4-0.2c0.3-0.2,0.4-0.5,0.4-0.8c0-0.3-0.2-0.6-0.4-0.7c-0.4-0.2-0.8-0.3-1.2-0.4l-0.5-0.1c-0.2-0.1-0.4-0.1-0.5-0.3
	c-0.2-0.1-0.3-0.3-0.4-0.4c-0.1-0.2-0.2-0.4-0.2-0.7c0-0.3,0.1-0.5,0.2-0.7c0.1-0.2,0.3-0.4,0.5-0.5c0.2-0.1,0.4-0.2,0.6-0.3
	c0.2-0.1,0.5-0.1,0.7-0.1c0.4,0,0.8,0.1,1.1,0.3c0.3,0.2,0.6,0.4,0.8,0.7L366.3,234.9z M368.8,240.9h-0.7l0.8-2.8h0.9L368.8,240.9z
	 M381.6,237.8c-0.1,0.2-0.3,0.4-0.5,0.6c-0.2,0.2-0.5,0.4-0.7,0.5c-0.3,0.2-0.6,0.3-0.9,0.4c-0.3,0.1-0.7,0.1-1.1,0.1
	c-0.6,0-1.2-0.1-1.8-0.3c-0.5-0.2-1-0.5-1.4-0.9c-0.4-0.4-0.7-0.9-0.9-1.4c-0.2-0.6-0.3-1.2-0.3-1.8c0-0.6,0.1-1.2,0.3-1.8
	c0.4-1.1,1.3-1.9,2.3-2.3c0.6-0.2,1.2-0.3,1.8-0.3c0.6,0,1.2,0.1,1.8,0.4c0.3,0.1,0.5,0.3,0.7,0.4c0.2,0.2,0.4,0.3,0.5,0.6l-0.7,0.5
	c-0.1-0.2-0.2-0.3-0.4-0.4c-0.2-0.1-0.3-0.3-0.5-0.4c-0.2-0.1-0.4-0.2-0.6-0.2c-0.2-0.1-0.5-0.1-0.8-0.1c-0.5,0-1,0.1-1.5,0.3
	c-0.4,0.2-0.8,0.5-1.1,0.8c-0.3,0.3-0.5,0.7-0.7,1.2c-0.2,0.5-0.2,0.9-0.2,1.4c0,0.5,0.1,1,0.2,1.4c0.2,0.4,0.4,0.8,0.7,1.2
	c0.3,0.3,0.7,0.6,1.1,0.8c0.5,0.2,1,0.3,1.5,0.3c0.5,0,1-0.1,1.4-0.3c0.5-0.2,0.8-0.6,1.1-1L381.6,237.8z M388.5,236.4
	c0,0.4-0.1,0.8-0.2,1.2c-0.1,0.4-0.4,0.7-0.6,0.9c-0.3,0.3-0.6,0.5-1,0.6c-0.8,0.3-1.6,0.3-2.4,0c-0.7-0.3-1.3-0.8-1.6-1.6
	c-0.3-0.8-0.3-1.6,0-2.4c0.3-0.7,0.9-1.3,1.6-1.6c0.8-0.3,1.6-0.3,2.4,0c0.4,0.1,0.7,0.4,1,0.6c0.3,0.3,0.5,0.6,0.6,0.9
	C388.4,235.6,388.5,236,388.5,236.4L388.5,236.4z M387.6,236.4c0-0.3,0-0.6-0.1-0.9c-0.1-0.3-0.2-0.5-0.4-0.7
	c-0.2-0.2-0.4-0.4-0.7-0.5c-0.3-0.1-0.6-0.2-0.9-0.2c-0.3,0-0.6,0.1-0.9,0.2c-0.3,0.1-0.5,0.3-0.7,0.5c-0.2,0.2-0.3,0.5-0.4,0.7
	c-0.2,0.6-0.2,1.2,0,1.8c0.1,0.3,0.2,0.5,0.4,0.7c0.2,0.2,0.4,0.4,0.7,0.5c0.3,0.1,0.6,0.2,0.9,0.2c0.3,0,0.6-0.1,0.9-0.2
	c0.2-0.1,0.5-0.3,0.6-0.5c0.2-0.2,0.3-0.5,0.4-0.7C387.5,237,387.6,236.7,387.6,236.4L387.6,236.4z M391,233.6v1
	c0.2-0.3,0.4-0.6,0.8-0.8c0.3-0.2,0.7-0.3,1.1-0.3c0.6,0,1.2,0.2,1.6,0.6c0.4,0.5,0.6,1.1,0.5,1.7v3.4h-0.8v-3.1
	c0-0.3,0-0.5-0.1-0.8c0-0.2-0.1-0.4-0.2-0.6c-0.1-0.2-0.3-0.3-0.5-0.4c-0.2-0.1-0.5-0.2-0.7-0.1c-0.2,0-0.4,0-0.6,0.1
	c-0.2,0.1-0.4,0.2-0.5,0.4c-0.2,0.2-0.3,0.4-0.4,0.7c-0.1,0.3-0.2,0.7-0.1,1v2.9h-0.8v-5.6L391,233.6L391,233.6z M399.7,234.3h-1.6
	v3.3c0,0.2,0,0.4,0.1,0.5c0,0.1,0.1,0.2,0.2,0.3c0.1,0.1,0.2,0.1,0.3,0.2c0.1,0,0.2,0,0.3,0c0.1,0,0.2,0,0.4,0
	c0.1,0,0.2-0.1,0.4-0.1v0.7c-0.1,0.1-0.3,0.1-0.5,0.1c-0.2,0-0.3,0-0.5,0c-0.2,0-0.3,0-0.5-0.1c-0.2,0-0.3-0.1-0.5-0.2
	c-0.2-0.1-0.3-0.3-0.4-0.5c-0.1-0.2-0.1-0.5-0.1-0.8v-3.5h-1.2v-0.7h1.2V232h0.8v1.6h1.6L399.7,234.3L399.7,234.3z M401,234.2v-0.6
	h0.8v1c0.3-0.7,1-1.1,1.8-1.1h0.5l-0.1,0.8h-0.6c-0.2,0-0.4,0-0.6,0.1c-0.2,0.1-0.4,0.2-0.5,0.4c-0.2,0.2-0.3,0.4-0.4,0.7
	c-0.1,0.3-0.2,0.7-0.1,1v2.9H401V234.2z M408.7,235.6c0-0.4-0.1-0.8-0.4-1.1c-0.3-0.3-0.7-0.4-1.1-0.4c-0.3,0-0.6,0.1-0.9,0.2
	c-0.3,0.1-0.5,0.3-0.7,0.5l-0.5-0.5c0.3-0.3,0.6-0.5,0.9-0.6c0.4-0.2,0.8-0.2,1.3-0.2c0.3,0,0.6,0,0.9,0.1c0.3,0.1,0.5,0.2,0.7,0.4
	c0.2,0.2,0.4,0.4,0.5,0.6c0.1,0.3,0.2,0.6,0.2,0.9v3.1c0,0.2,0,0.4,0.1,0.6h-0.7c0-0.1,0-0.3-0.1-0.4c0-0.2,0-0.3,0-0.5
	c-0.2,0.3-0.5,0.6-0.9,0.8c-0.4,0.2-0.8,0.3-1.2,0.2c-0.2,0-0.5,0-0.7-0.1c-0.2-0.1-0.4-0.2-0.6-0.3c-0.2-0.1-0.4-0.3-0.5-0.5
	c-0.1-0.2-0.2-0.5-0.2-0.8c0-0.4,0.1-0.7,0.3-1c0.2-0.3,0.5-0.5,0.9-0.6c0.4-0.1,0.8-0.2,1.3-0.2c0.5,0,1-0.1,1.5-0.1L408.7,235.6
	L408.7,235.6z M408.5,236.4h-1c-0.3,0-0.6,0.1-0.9,0.2c-0.3,0.1-0.5,0.2-0.7,0.4c-0.2,0.2-0.3,0.4-0.3,0.6c0,0.2,0,0.3,0.1,0.5
	c0.1,0.1,0.2,0.2,0.3,0.3c0.1,0.1,0.3,0.1,0.4,0.2c0.2,0,0.3,0.1,0.5,0.1c0.3,0,0.5,0,0.8-0.1c0.2-0.1,0.4-0.2,0.6-0.4
	c0.2-0.2,0.3-0.4,0.4-0.6c0.1-0.2,0.1-0.5,0.1-0.7v-0.4L408.5,236.4L408.5,236.4z M415.6,234.9c-0.1-0.2-0.4-0.4-0.6-0.5
	c-0.3-0.1-0.6-0.2-0.9-0.2c-0.3,0-0.6,0.1-0.9,0.2c-0.3,0.1-0.5,0.3-0.7,0.5c-0.2,0.2-0.3,0.5-0.4,0.7c-0.1,0.3-0.2,0.6-0.1,0.9
	c0,0.3,0,0.6,0.1,0.9c0.1,0.3,0.2,0.5,0.4,0.7c0.2,0.2,0.4,0.4,0.7,0.5c0.3,0.1,0.6,0.2,0.9,0.2c0.6,0,1.2-0.2,1.5-0.7l0.6,0.5
	c-0.2,0.3-0.5,0.5-0.9,0.7c-0.4,0.2-0.8,0.3-1.2,0.3c-0.4,0-0.8-0.1-1.2-0.2c-0.4-0.1-0.7-0.4-0.9-0.6c-0.3-0.3-0.5-0.6-0.6-0.9
	c-0.3-0.8-0.3-1.6,0-2.4c0.1-0.4,0.3-0.7,0.6-0.9c0.3-0.3,0.6-0.5,0.9-0.6c0.4-0.2,0.8-0.2,1.2-0.2c0.4,0,0.8,0.1,1.1,0.2
	c0.4,0.2,0.7,0.4,0.9,0.7L415.6,234.9z M420.1,234.3h-1.6v3.3c0,0.2,0,0.4,0.1,0.5c0,0.1,0.1,0.2,0.2,0.3c0.1,0.1,0.2,0.1,0.3,0.2
	c0.1,0,0.2,0,0.3,0c0.1,0,0.2,0,0.4,0c0.1,0,0.2-0.1,0.4-0.1v0.7c-0.1,0.1-0.3,0.1-0.5,0.1c-0.2,0-0.3,0-0.5,0c-0.2,0-0.3,0-0.5-0.1
	c-0.2,0-0.3-0.1-0.5-0.2c-0.2-0.1-0.3-0.3-0.4-0.5c-0.1-0.2-0.1-0.5-0.1-0.8v-3.5h-1.2v-0.7h1.2V232h0.8v1.6h1.6L420.1,234.3
	L420.1,234.3z M424.4,234.9c-0.1-0.2-0.3-0.4-0.5-0.6c-0.3-0.1-0.5-0.2-0.8-0.2c-0.1,0-0.3,0-0.4,0c-0.1,0-0.3,0.1-0.4,0.2
	c-0.1,0.1-0.2,0.2-0.3,0.3c-0.1,0.1-0.1,0.3-0.1,0.4c0,0.2,0.1,0.5,0.3,0.6c0.3,0.2,0.6,0.3,1,0.4c0.5,0.1,1,0.3,1.5,0.6
	c0.3,0.2,0.5,0.6,0.5,1c0,0.5-0.2,1-0.7,1.4c-0.2,0.1-0.4,0.2-0.7,0.3c-0.2,0.1-0.5,0.1-0.8,0.1c-0.4,0-0.8-0.1-1.2-0.3
	c-0.4-0.2-0.8-0.5-1-0.8l0.6-0.5c0.3,0.5,0.9,0.9,1.6,0.9c0.2,0,0.3,0,0.5,0c0.1,0,0.3-0.1,0.4-0.2c0.3-0.2,0.4-0.5,0.4-0.8
	c0-0.3-0.2-0.6-0.4-0.7c-0.4-0.2-0.8-0.3-1.2-0.4l-0.5-0.1c-0.2-0.1-0.4-0.1-0.5-0.3c-0.2-0.1-0.3-0.3-0.4-0.4
	c-0.1-0.2-0.2-0.4-0.2-0.7c0-0.3,0.1-0.5,0.2-0.7c0.1-0.2,0.3-0.4,0.5-0.5c0.2-0.1,0.4-0.2,0.6-0.3c0.2-0.1,0.5-0.1,0.7-0.1
	c0.4,0,0.8,0.1,1.1,0.3c0.3,0.2,0.6,0.4,0.8,0.7L424.4,234.9z M435,237.2l1.9,2h-1.2l-1.2-1.3c-0.3,0.4-0.7,0.8-1.1,1.1
	c-0.5,0.2-1,0.4-1.5,0.3c-0.3,0-0.7-0.1-1-0.2c-0.3-0.1-0.6-0.2-0.9-0.4c-0.2-0.2-0.4-0.4-0.6-0.7c-0.4-0.9-0.3-1.9,0.4-2.6
	c0.2-0.2,0.4-0.4,0.6-0.6c0.2-0.2,0.5-0.3,0.8-0.4c-0.1-0.1-0.3-0.3-0.4-0.4c-0.1-0.1-0.2-0.3-0.3-0.5c-0.1-0.2-0.2-0.3-0.2-0.5
	c-0.1-0.2-0.1-0.4-0.1-0.6c0-0.3,0.1-0.6,0.2-0.9c0.1-0.2,0.3-0.5,0.5-0.6c0.2-0.2,0.4-0.3,0.7-0.4c0.3-0.1,0.5-0.1,0.8-0.1
	c0.3,0,0.5,0,0.8,0.1c0.2,0.1,0.5,0.2,0.6,0.4c0.2,0.2,0.3,0.4,0.4,0.6c0.1,0.3,0.2,0.5,0.2,0.8c0,0.3,0,0.5-0.2,0.8
	c-0.1,0.2-0.3,0.4-0.4,0.6c-0.2,0.2-0.4,0.3-0.6,0.5c-0.2,0.1-0.5,0.3-0.7,0.4l2,2l1.2-2.1h1L435,237.2z M431.7,235
	c-0.4,0.2-0.8,0.5-1.2,0.8c-0.3,0.3-0.4,0.7-0.4,1.2c0,0.2,0,0.5,0.1,0.7c0.1,0.2,0.2,0.4,0.4,0.5c0.2,0.1,0.4,0.3,0.6,0.3
	c0.2,0.1,0.4,0.1,0.7,0.1c0.4,0,0.8-0.1,1.2-0.3c0.3-0.3,0.6-0.6,0.9-0.9L431.7,235z M433.5,232.4c0-0.3-0.1-0.6-0.3-0.9
	c-0.2-0.2-0.5-0.3-0.9-0.3c-0.3,0-0.7,0.1-0.9,0.4c-0.4,0.4-0.5,0.9-0.3,1.4c0.1,0.2,0.1,0.3,0.2,0.5c0.1,0.1,0.2,0.3,0.3,0.4
	c0.1,0.1,0.2,0.2,0.3,0.3c0.2-0.1,0.4-0.2,0.6-0.3c0.2-0.1,0.3-0.2,0.5-0.4c0.1-0.1,0.3-0.3,0.4-0.5
	C433.4,232.8,433.5,232.6,433.5,232.4L433.5,232.4z M442.1,239.2h-0.9v-8.5h2.5c0.4,0,0.8,0,1.2,0.1c0.3,0.1,0.6,0.2,0.9,0.4
	c0.3,0.2,0.5,0.4,0.6,0.7c0.2,0.3,0.2,0.7,0.2,1.1c0,0.6-0.2,1.1-0.6,1.5c-0.2,0.2-0.4,0.3-0.7,0.4c-0.3,0.1-0.6,0.2-0.9,0.2l2.5,4
	h-1.1l-2.4-4h-1.4L442.1,239.2L442.1,239.2z M442.1,234.5h1.5c0.6,0,1.1-0.1,1.6-0.4c0.4-0.3,0.6-0.7,0.6-1.1c0-0.2,0-0.5-0.2-0.7
	c-0.1-0.2-0.2-0.4-0.4-0.5c-0.2-0.1-0.4-0.2-0.7-0.3c-0.3-0.1-0.6-0.1-0.9-0.1h-1.5L442.1,234.5L442.1,234.5z M453.3,236.2v0.2
	c0,0.1,0,0.1,0,0.2h-4.7c0,0.3,0.1,0.5,0.2,0.8c0.1,0.2,0.2,0.5,0.4,0.6c0.2,0.2,0.4,0.3,0.6,0.4c0.6,0.3,1.3,0.2,1.9-0.1
	c0.3-0.2,0.5-0.4,0.7-0.7l0.6,0.5c-0.3,0.4-0.7,0.7-1.1,0.9c-0.4,0.2-0.9,0.3-1.3,0.3c-0.4,0-0.8-0.1-1.2-0.2
	c-0.3-0.1-0.7-0.4-0.9-0.6c-0.3-0.3-0.5-0.6-0.6-0.9c-0.2-0.4-0.2-0.8-0.2-1.2c0-0.4,0.1-0.8,0.2-1.2c0.1-0.4,0.3-0.7,0.6-0.9
	c0.3-0.3,0.6-0.5,0.9-0.6c0.4-0.2,0.7-0.2,1.1-0.2c0.4,0,0.8,0.1,1.2,0.2c0.3,0.1,0.6,0.3,0.8,0.6c0.2,0.3,0.4,0.6,0.5,0.9
	C453.3,235.5,453.3,235.8,453.3,236.2L453.3,236.2z M452.5,236c0-0.5-0.2-0.9-0.5-1.3c-0.4-0.4-0.8-0.6-1.4-0.5
	c-0.3,0-0.5,0-0.8,0.1c-0.2,0.1-0.4,0.2-0.6,0.4c-0.2,0.2-0.3,0.4-0.4,0.6c-0.1,0.2-0.2,0.5-0.2,0.7L452.5,236L452.5,236z
	 M459.1,234.9c-0.1-0.2-0.4-0.4-0.6-0.5c-0.3-0.1-0.6-0.2-0.9-0.2c-0.3,0-0.6,0.1-0.9,0.2c-0.3,0.1-0.5,0.3-0.7,0.5
	c-0.2,0.2-0.3,0.5-0.4,0.7c-0.1,0.3-0.2,0.6-0.1,0.9c0,0.3,0,0.6,0.1,0.9c0.1,0.3,0.2,0.5,0.4,0.7c0.2,0.2,0.4,0.4,0.7,0.5
	c0.3,0.1,0.6,0.2,0.9,0.2c0.6,0,1.2-0.2,1.5-0.7l0.6,0.5c-0.2,0.3-0.5,0.5-0.9,0.7c-0.4,0.2-0.8,0.3-1.2,0.3c-0.4,0-0.8-0.1-1.2-0.2
	c-0.4-0.1-0.7-0.4-0.9-0.6c-0.3-0.3-0.5-0.6-0.6-0.9c-0.3-0.8-0.3-1.6,0-2.4c0.1-0.4,0.3-0.7,0.6-0.9c0.3-0.3,0.6-0.5,0.9-0.6
	c0.4-0.2,0.8-0.2,1.2-0.2c0.4,0,0.8,0.1,1.1,0.2c0.4,0.2,0.7,0.4,0.9,0.7L459.1,234.9z M466.2,236.2v0.2c0,0.1,0,0.1,0,0.2h-4.7
	c0,0.3,0.1,0.5,0.2,0.8c0.1,0.2,0.2,0.5,0.4,0.6c0.2,0.2,0.4,0.3,0.6,0.4c0.6,0.3,1.3,0.2,1.9-0.1c0.3-0.2,0.5-0.4,0.7-0.7l0.6,0.5
	c-0.3,0.4-0.7,0.7-1.1,0.9c-0.4,0.2-0.9,0.3-1.3,0.3c-0.4,0-0.8-0.1-1.2-0.2c-0.3-0.1-0.7-0.4-0.9-0.6c-0.3-0.3-0.5-0.6-0.6-0.9
	c-0.2-0.4-0.2-0.8-0.2-1.2c0-0.4,0.1-0.8,0.2-1.2c0.1-0.4,0.3-0.7,0.6-0.9c0.3-0.3,0.6-0.5,0.9-0.6c0.4-0.2,0.7-0.2,1.1-0.2
	c0.4,0,0.8,0.1,1.2,0.2c0.3,0.1,0.6,0.3,0.8,0.6c0.2,0.3,0.4,0.6,0.5,0.9C466.1,235.5,466.2,235.8,466.2,236.2L466.2,236.2z
	 M465.4,236c0-0.5-0.2-0.9-0.5-1.3c-0.4-0.4-0.8-0.6-1.4-0.5c-0.3,0-0.5,0-0.8,0.1c-0.2,0.1-0.4,0.2-0.6,0.4
	c-0.2,0.2-0.3,0.4-0.4,0.6c-0.1,0.2-0.2,0.5-0.2,0.7L465.4,236L465.4,236z M468.9,231.4c0,0.2-0.1,0.3-0.2,0.4
	c-0.2,0.2-0.6,0.2-0.8,0c-0.2-0.2-0.2-0.6,0-0.8c0,0,0,0,0,0c0.2-0.2,0.6-0.2,0.8,0C468.9,231.1,468.9,231.3,468.9,231.4z
	 M468.8,239.2H468v-5.6h0.8L468.8,239.2L468.8,239.2z M471.8,242.1h-0.8v-8.5h0.8v1c0.2-0.4,0.5-0.6,0.9-0.8
	c0.4-0.2,0.8-0.3,1.2-0.3c0.4,0,0.8,0.1,1.2,0.2c0.3,0.1,0.7,0.4,0.9,0.6c0.3,0.3,0.5,0.6,0.6,0.9c0.3,0.8,0.3,1.6,0,2.3
	c-0.1,0.3-0.3,0.7-0.6,0.9c-0.3,0.3-0.6,0.5-0.9,0.6c-0.4,0.2-0.8,0.2-1.2,0.2c-0.4,0-0.8-0.1-1.2-0.3c-0.4-0.2-0.7-0.5-0.9-0.8
	V242.1L471.8,242.1z M475.9,236.4c0-0.3,0-0.6-0.1-0.9c-0.1-0.3-0.2-0.5-0.4-0.7c-0.2-0.2-0.4-0.4-0.7-0.5c-0.3-0.1-0.6-0.2-0.9-0.2
	c-0.3,0-0.6,0.1-0.9,0.2c-0.3,0.1-0.5,0.3-0.7,0.5c-0.2,0.2-0.3,0.5-0.5,0.7c-0.2,0.6-0.2,1.2,0,1.8c0.1,0.3,0.3,0.5,0.5,0.7
	c0.2,0.2,0.4,0.4,0.7,0.5c0.3,0.1,0.6,0.2,0.9,0.2c0.3,0,0.6-0.1,0.9-0.2c0.3-0.1,0.5-0.3,0.7-0.5c0.2-0.2,0.3-0.5,0.4-0.7
	C475.9,237,476,236.7,475.9,236.4z M481.1,234.3h-1.6v3.3c0,0.2,0,0.4,0.1,0.5c0,0.1,0.1,0.2,0.2,0.3c0.1,0.1,0.2,0.1,0.3,0.2
	c0.1,0,0.2,0,0.3,0c0.1,0,0.2,0,0.4,0c0.1,0,0.2-0.1,0.4-0.1v0.7c-0.1,0.1-0.3,0.1-0.5,0.1c-0.2,0-0.3,0-0.5,0c-0.2,0-0.3,0-0.5-0.1
	c-0.2,0-0.3-0.1-0.5-0.2c-0.2-0.1-0.3-0.3-0.4-0.5c-0.1-0.2-0.1-0.5-0.1-0.8v-3.5h-1.2v-0.7h1.2V232h0.8v1.6h1.6L481.1,234.3
	L481.1,234.3z M485.4,234.9c-0.1-0.2-0.3-0.4-0.5-0.6c-0.3-0.1-0.5-0.2-0.8-0.2c-0.1,0-0.3,0-0.4,0c-0.1,0-0.3,0.1-0.4,0.2
	c-0.1,0.1-0.2,0.2-0.3,0.3c-0.1,0.1-0.1,0.3-0.1,0.4c0,0.2,0.1,0.5,0.3,0.6c0.3,0.2,0.6,0.3,1,0.4c0.5,0.1,1,0.3,1.5,0.6
	c0.3,0.2,0.5,0.6,0.5,1c0,0.5-0.2,1-0.7,1.4c-0.2,0.1-0.4,0.2-0.7,0.3c-0.2,0.1-0.5,0.1-0.8,0.1c-0.4,0-0.8-0.1-1.2-0.3
	c-0.4-0.2-0.8-0.5-1-0.8l0.6-0.5c0.3,0.5,0.9,0.9,1.6,0.9c0.2,0,0.3,0,0.5,0c0.1,0,0.3-0.1,0.4-0.2c0.3-0.2,0.4-0.5,0.4-0.8
	c0-0.3-0.2-0.6-0.4-0.7c-0.4-0.2-0.8-0.3-1.2-0.4l-0.5-0.1c-0.2-0.1-0.4-0.1-0.5-0.3c-0.2-0.1-0.3-0.3-0.4-0.4
	c-0.1-0.2-0.2-0.4-0.2-0.7c0-0.3,0.1-0.5,0.2-0.7c0.1-0.2,0.3-0.4,0.5-0.5c0.2-0.1,0.4-0.2,0.6-0.3c0.2-0.1,0.5-0.1,0.7-0.1
	c0.4,0,0.8,0.1,1.1,0.3c0.3,0.2,0.6,0.4,0.8,0.7L485.4,234.9z M233,207.8h4.7c0.9,0,1.8,0.2,2.6,0.4c0.9,0.3,1.7,0.7,2.4,1.3
	c0.7,0.6,1.3,1.4,1.7,2.2c0.9,2,0.9,4.2,0,6.2c-0.4,0.8-1,1.6-1.7,2.2c-0.7,0.6-1.5,1-2.4,1.3c-0.9,0.3-1.7,0.4-2.6,0.4H233V207.8
	L233,207.8z M234.4,220.7h2.9c1,0,1.9-0.1,2.8-0.5c0.8-0.3,1.4-0.7,2-1.3c0.5-0.5,0.9-1.2,1.2-1.9c0.5-1.4,0.5-2.9,0-4.3
	c-0.3-0.7-0.7-1.3-1.2-1.9c-0.6-0.6-1.2-1-2-1.3c-0.9-0.4-1.8-0.5-2.8-0.5h-2.9V220.7z M256.6,217v0.3c0,0.1,0,0.2,0,0.3h-7.8
	c0,0.5,0.1,0.9,0.3,1.3c0.2,0.4,0.4,0.8,0.7,1.1c0.3,0.3,0.7,0.6,1.1,0.7c1,0.4,2.2,0.3,3.2-0.2c0.5-0.3,0.9-0.7,1.2-1.1l1,0.8
	c-0.5,0.6-1.1,1.2-1.9,1.5c-0.7,0.3-1.4,0.5-2.2,0.5c-0.7,0-1.3-0.1-1.9-0.4c-0.6-0.2-1.1-0.6-1.5-1c-0.4-0.5-0.8-1-1-1.6
	c-0.3-0.6-0.4-1.3-0.4-2c0-0.7,0.1-1.4,0.4-2c0.2-0.6,0.6-1.1,1-1.6c0.4-0.4,0.9-0.8,1.5-1c0.6-0.2,1.2-0.4,1.9-0.4
	c0.7,0,1.3,0.1,1.9,0.4c0.5,0.2,1,0.6,1.4,1c0.4,0.4,0.7,0.9,0.8,1.5C256.5,215.8,256.6,216.4,256.6,217L256.6,217z M255.2,216.6
	c0-0.8-0.3-1.6-0.9-2.2c-0.6-0.6-1.4-0.9-2.2-0.9c-0.4,0-0.9,0.1-1.3,0.2c-0.4,0.2-0.7,0.4-1,0.7c-0.3,0.3-0.5,0.6-0.7,1
	c-0.2,0.4-0.3,0.8-0.3,1.1L255.2,216.6L255.2,216.6z M266.3,214.8c-0.2-0.4-0.6-0.7-1-0.9c-0.4-0.2-0.9-0.4-1.4-0.4
	c-0.5,0-1,0.1-1.5,0.3c-0.4,0.2-0.8,0.5-1.1,0.8c-0.3,0.3-0.6,0.8-0.7,1.2c-0.2,0.5-0.3,1-0.2,1.5c0,0.5,0.1,1,0.2,1.5
	c0.2,0.4,0.4,0.8,0.7,1.2c0.3,0.3,0.7,0.6,1.1,0.8c0.5,0.2,1,0.3,1.5,0.3c1,0,1.9-0.4,2.5-1.2l1,0.8c-0.4,0.5-0.9,0.9-1.4,1.2
	c-0.7,0.3-1.4,0.5-2.1,0.4c-0.7,0-1.4-0.1-2.1-0.4c-0.6-0.2-1.1-0.6-1.6-1c-0.4-0.4-0.8-1-1-1.6c-0.5-1.3-0.5-2.7,0-3.9
	c0.2-0.6,0.6-1.1,1-1.6c0.4-0.4,1-0.8,1.6-1c0.7-0.3,1.4-0.4,2.1-0.4c0.7,0,1.3,0.1,1.9,0.4c0.6,0.3,1.2,0.7,1.6,1.2L266.3,214.8z
	 M278.1,217v0.3c0,0.1,0,0.2,0,0.3h-7.8c0,0.5,0.1,0.9,0.3,1.3c0.2,0.4,0.4,0.8,0.7,1.1c0.3,0.3,0.7,0.6,1.1,0.7
	c1,0.4,2.2,0.3,3.2-0.2c0.5-0.3,0.9-0.7,1.2-1.1l1,0.8c-0.5,0.6-1.1,1.2-1.9,1.5c-0.7,0.3-1.4,0.5-2.2,0.5c-0.7,0-1.3-0.1-1.9-0.4
	c-0.6-0.2-1.1-0.6-1.5-1c-0.4-0.5-0.8-1-1-1.6c-0.3-0.6-0.4-1.3-0.4-2c0-0.7,0.1-1.4,0.4-2c0.2-0.6,0.6-1.1,1-1.6
	c0.4-0.4,0.9-0.8,1.5-1c0.6-0.2,1.2-0.4,1.9-0.4c0.7,0,1.3,0.1,1.9,0.4c0.5,0.2,1,0.6,1.4,1c0.4,0.4,0.7,0.9,0.9,1.5
	C278,215.8,278.1,216.4,278.1,217L278.1,217z M276.7,216.6c0-0.8-0.3-1.6-0.9-2.2c-0.6-0.6-1.4-0.9-2.2-0.9c-0.4,0-0.9,0.1-1.3,0.2
	c-0.8,0.3-1.4,0.9-1.7,1.7c-0.2,0.4-0.3,0.8-0.3,1.1H276.7z M282.2,212.6c0,0.3,0,0.5,0.1,0.8c0,0.3,0,0.6,0,0.8
	c0.3-0.6,0.7-1,1.3-1.3c0.6-0.3,1.2-0.5,1.9-0.5c1-0.1,2,0.3,2.7,1.1c0.6,0.8,0.9,1.8,0.9,2.8v5.7h-1.4v-5.2c0-0.4,0-0.9-0.1-1.3
	c-0.1-0.4-0.2-0.7-0.4-1c-0.2-0.3-0.5-0.5-0.8-0.7c-0.4-0.2-0.8-0.3-1.2-0.2c-0.3,0-0.7,0.1-1,0.2c-0.3,0.2-0.7,0.4-0.9,0.7
	c-0.3,0.3-0.5,0.7-0.6,1.1c-0.2,0.5-0.3,1.1-0.2,1.6v4.8H281v-8.3c0-0.4,0-0.8-0.1-1.1L282.2,212.6L282.2,212.6z M296.8,213.8h-2.6
	v5.5c0,0.3,0,0.6,0.1,0.9c0.1,0.2,0.2,0.4,0.3,0.5c0.1,0.1,0.3,0.2,0.5,0.3c0.2,0,0.4,0.1,0.6,0.1c0.2,0,0.4,0,0.6-0.1
	c0.2-0.1,0.4-0.1,0.6-0.2l0.1,1.2c-0.2,0.1-0.5,0.2-0.8,0.2c-0.3,0-0.6,0.1-0.9,0.1c-0.3,0-0.5,0-0.8-0.1c-0.3-0.1-0.6-0.2-0.8-0.4
	c-0.3-0.2-0.5-0.5-0.6-0.8c-0.2-0.4-0.2-0.8-0.2-1.3v-5.8h-1.9v-1.1h1.9V210h1.4v2.6h2.6V213.8z M298.9,213.7c0-0.4,0-0.8-0.1-1.1
	h1.3c0,0.3,0,0.5,0.1,0.8c0,0.3,0,0.6,0,0.8c0.3-0.5,0.7-1,1.2-1.3c0.5-0.3,1.2-0.5,1.8-0.5h0.5c0.1,0,0.3,0,0.4,0.1l-0.1,1.3
	c-0.1,0-0.3-0.1-0.4-0.1c-0.2,0-0.4,0-0.6,0c-0.3,0-0.7,0.1-1,0.2c-0.3,0.1-0.6,0.4-0.9,0.6c-0.3,0.3-0.5,0.7-0.6,1.1
	c-0.2,0.5-0.2,1.1-0.2,1.6v4.7H299v-7.3C298.9,214.4,298.9,214.1,298.9,213.7z M311.8,215.9c0.1-0.7-0.2-1.3-0.6-1.8
	c-0.5-0.4-1.2-0.6-1.9-0.6c-0.5,0-1.1,0.1-1.6,0.3c-0.5,0.2-0.9,0.5-1.2,0.8l-0.8-0.9c0.4-0.4,1-0.8,1.5-1c0.7-0.3,1.4-0.4,2.1-0.4
	c0.5,0,1,0.1,1.4,0.2c0.4,0.1,0.8,0.3,1.2,0.6c0.3,0.3,0.6,0.7,0.8,1.1c0.2,0.5,0.3,1,0.3,1.5v5.2c0,0.3,0.1,0.7,0.1,1H312
	c0-0.2-0.1-0.5-0.1-0.7c0-0.3,0-0.5,0-0.8c-0.4,0.6-0.9,1-1.5,1.4c-0.6,0.3-1.3,0.4-2,0.4c-0.4,0-0.7-0.1-1.1-0.1
	c-0.4-0.1-0.7-0.3-1-0.5c-0.3-0.2-0.6-0.5-0.8-0.9c-0.2-0.4-0.3-0.9-0.3-1.3c0-0.6,0.2-1.2,0.5-1.7c0.4-0.4,0.9-0.8,1.5-0.9
	c0.7-0.2,1.4-0.4,2.1-0.4c0.8-0.1,1.6-0.1,2.5-0.1L311.8,215.9L311.8,215.9z M311.4,217.3c-0.6,0-1.1,0-1.7,0.1
	c-0.5,0-1,0.1-1.5,0.3c-0.4,0.1-0.8,0.3-1.1,0.6c-0.3,0.3-0.5,0.7-0.4,1.1c0,0.3,0.1,0.6,0.2,0.8c0.1,0.2,0.3,0.4,0.5,0.6
	c0.2,0.1,0.5,0.2,0.7,0.3c0.3,0.1,0.5,0.1,0.8,0.1c0.4,0,0.9-0.1,1.3-0.2c0.4-0.2,0.7-0.4,0.9-0.7c0.3-0.3,0.5-0.6,0.6-1
	c0.1-0.4,0.2-0.8,0.2-1.2v-0.7L311.4,217.3L311.4,217.3z M318,222h-1.4v-15.1h1.4V222z M323.3,209c0,0.3-0.1,0.5-0.3,0.7
	c-0.4,0.4-1,0.4-1.3,0c-0.4-0.4-0.4-0.9-0.1-1.3c0,0,0,0,0.1-0.1c0.4-0.4,1-0.4,1.3,0C323.2,208.5,323.3,208.7,323.3,209z M323,222
	h-1.4v-9.4h1.4V222z M332.9,213.6l-5.6,7.2h5.8v1.2h-7.6v-1l5.6-7.3h-5.3v-1.1h7.1L332.9,213.6L332.9,213.6z M344,217v0.3
	c0,0.1,0,0.2,0,0.3h-7.8c0,0.5,0.1,0.9,0.3,1.3c0.2,0.4,0.4,0.8,0.7,1.1c0.3,0.3,0.7,0.6,1.1,0.7c1,0.4,2.2,0.3,3.2-0.2
	c0.5-0.3,0.9-0.7,1.2-1.1l1,0.8c-0.5,0.6-1.1,1.2-1.9,1.5c-0.7,0.3-1.4,0.5-2.2,0.5c-0.7,0-1.3-0.1-1.9-0.4c-0.6-0.2-1.1-0.6-1.5-1
	c-0.4-0.5-0.8-1-1-1.6c-0.3-0.6-0.4-1.3-0.4-2c0-0.7,0.1-1.4,0.4-2c0.2-0.6,0.6-1.1,1-1.6c0.4-0.4,0.9-0.8,1.5-1
	c0.6-0.2,1.2-0.4,1.9-0.4c0.7,0,1.3,0.1,1.9,0.4c0.5,0.2,1,0.6,1.4,1c0.4,0.4,0.7,0.9,0.9,1.5C343.9,215.8,344,216.4,344,217z
	 M342.6,216.6c0-0.8-0.3-1.6-0.9-2.2c-0.6-0.6-1.4-0.9-2.2-0.9c-0.4,0-0.9,0.1-1.3,0.2c-0.8,0.3-1.4,0.9-1.7,1.7
	c-0.2,0.4-0.3,0.8-0.3,1.1H342.6z M354.6,220.4c-0.4,0.6-0.9,1.1-1.6,1.4c-0.6,0.3-1.3,0.5-2,0.5c-0.7,0-1.4-0.1-2-0.4
	c-0.6-0.2-1.1-0.6-1.5-1c-0.4-0.4-0.8-1-1-1.6c-0.5-1.3-0.5-2.6,0-3.9c0.2-0.6,0.6-1.1,1-1.6c0.4-0.4,1-0.8,1.5-1
	c0.6-0.3,1.3-0.4,2-0.4c0.7,0,1.4,0.2,2,0.5c0.6,0.3,1.2,0.8,1.6,1.4V207h1.4v15h-1.4L354.6,220.4L354.6,220.4z M347.7,217.3
	c0,0.5,0.1,1,0.2,1.5c0.1,0.4,0.4,0.8,0.7,1.2c0.3,0.3,0.7,0.6,1.1,0.8c0.5,0.2,1,0.3,1.5,0.3c1.5,0,2.8-0.9,3.3-2.3
	c0.4-1,0.4-2,0-3c-0.2-0.4-0.4-0.9-0.8-1.2c-0.3-0.3-0.7-0.6-1.1-0.8c-0.5-0.2-0.9-0.3-1.4-0.3c-0.5,0-1,0.1-1.5,0.3
	c-0.4,0.2-0.8,0.5-1.1,0.8c-0.3,0.4-0.5,0.8-0.7,1.2C347.7,216.3,347.7,216.8,347.7,217.3L347.7,217.3z M364.7,207.8h4.7
	c0.9,0,1.8,0.2,2.6,0.4c0.9,0.3,1.7,0.7,2.4,1.3c0.7,0.6,1.3,1.4,1.7,2.2c0.9,2,0.9,4.2,0,6.2c-0.4,0.8-1,1.6-1.7,2.2
	c-0.7,0.6-1.5,1-2.4,1.3c-0.9,0.3-1.7,0.4-2.6,0.4h-4.7V207.8L364.7,207.8z M366.2,220.7h2.8c1,0,1.9-0.1,2.8-0.5
	c0.7-0.3,1.4-0.7,2-1.3c0.5-0.5,0.9-1.2,1.2-1.9c0.5-1.4,0.5-2.9,0-4.3c-0.3-0.7-0.7-1.3-1.2-1.9c-0.6-0.6-1.3-1-2-1.3
	c-0.9-0.4-1.8-0.5-2.8-0.5h-2.9L366.2,220.7L366.2,220.7z M385.7,215.9c0.1-0.7-0.2-1.3-0.6-1.8c-0.5-0.4-1.2-0.6-1.9-0.6
	c-0.5,0-1.1,0.1-1.6,0.3c-0.5,0.2-0.9,0.5-1.2,0.8l-0.8-0.9c0.4-0.4,1-0.8,1.5-1c0.7-0.3,1.4-0.4,2.1-0.4c0.5,0,1,0.1,1.4,0.2
	c0.4,0.1,0.8,0.3,1.2,0.6c0.3,0.3,0.6,0.7,0.8,1.1c0.2,0.5,0.3,1,0.3,1.5v5.2c0,0.3,0.1,0.7,0.1,1h-1.2c0-0.2-0.1-0.5-0.1-0.7
	c0-0.3,0-0.5,0-0.8c-0.4,0.6-0.9,1-1.5,1.4c-0.6,0.3-1.3,0.4-2,0.4c-0.4,0-0.7-0.1-1.1-0.1c-0.4-0.1-0.7-0.3-1-0.5
	c-0.3-0.2-0.6-0.5-0.8-0.9c-0.2-0.4-0.3-0.9-0.3-1.3c0-0.6,0.2-1.2,0.5-1.7c0.4-0.4,0.9-0.8,1.5-0.9c0.7-0.2,1.4-0.4,2.1-0.4
	c0.8-0.1,1.6-0.1,2.5-0.1L385.7,215.9L385.7,215.9z M385.3,217.3c-0.6,0-1.1,0-1.7,0.1c-0.5,0-1,0.1-1.5,0.3
	c-0.4,0.1-0.8,0.3-1.1,0.6c-0.3,0.3-0.5,0.7-0.4,1.1c0,0.3,0.1,0.6,0.2,0.8c0.1,0.2,0.3,0.4,0.5,0.6c0.2,0.1,0.5,0.2,0.7,0.3
	c0.3,0.1,0.5,0.1,0.8,0.1c0.4,0,0.9-0.1,1.3-0.2c0.4-0.2,0.7-0.4,0.9-0.7c0.3-0.3,0.5-0.6,0.6-1c0.1-0.4,0.2-0.8,0.2-1.2v-0.7
	L385.3,217.3L385.3,217.3z M394.5,213.8h-2.6v5.5c0,0.3,0,0.6,0.1,0.9c0.1,0.2,0.2,0.4,0.3,0.5c0.1,0.1,0.3,0.2,0.5,0.3
	c0.2,0,0.4,0.1,0.6,0.1c0.2,0,0.4,0,0.6-0.1c0.2-0.1,0.4-0.1,0.6-0.2l0.1,1.2c-0.2,0.1-0.5,0.2-0.8,0.2c-0.3,0-0.6,0.1-0.9,0.1
	c-0.3,0-0.5,0-0.8-0.1c-0.3-0.1-0.6-0.2-0.8-0.4c-0.3-0.2-0.5-0.5-0.6-0.8c-0.2-0.4-0.2-0.8-0.2-1.3v-5.8h-1.9v-1.1h1.9V210h1.4v2.6
	h2.6V213.8L394.5,213.8z M402.5,215.9c0.1-0.7-0.2-1.3-0.6-1.8c-0.5-0.4-1.2-0.6-1.9-0.6c-0.5,0-1.1,0.1-1.6,0.3
	c-0.5,0.2-0.9,0.5-1.2,0.8l-0.8-0.9c0.4-0.4,1-0.8,1.5-1c0.7-0.3,1.4-0.4,2.1-0.4c0.5,0,1,0.1,1.4,0.2c0.4,0.1,0.8,0.3,1.2,0.6
	c0.3,0.3,0.6,0.7,0.8,1.1c0.2,0.5,0.3,1,0.3,1.5v5.2c0,0.3,0.1,0.7,0.1,1h-1.2c0-0.2-0.1-0.5-0.1-0.7c0-0.3,0-0.5,0-0.8
	c-0.4,0.6-0.9,1-1.5,1.4c-0.6,0.3-1.3,0.4-2,0.4c-0.4,0-0.7-0.1-1.1-0.1c-0.4-0.1-0.7-0.3-1-0.5c-0.3-0.2-0.6-0.5-0.8-0.9
	c-0.2-0.4-0.3-0.9-0.3-1.3c0-0.6,0.2-1.2,0.5-1.7c0.4-0.4,0.9-0.8,1.5-0.9c0.7-0.2,1.4-0.4,2.1-0.4c0.8-0.1,1.6-0.1,2.5-0.1
	L402.5,215.9L402.5,215.9z M402.1,217.3c-0.6,0-1.1,0-1.7,0.1c-0.5,0-1,0.1-1.5,0.3c-0.4,0.1-0.8,0.3-1.1,0.6
	c-0.3,0.3-0.5,0.7-0.4,1.1c0,0.3,0.1,0.6,0.2,0.8c0.1,0.2,0.3,0.4,0.5,0.6c0.2,0.1,0.5,0.2,0.7,0.3c0.3,0.1,0.5,0.1,0.8,0.1
	c0.4,0,0.9-0.1,1.3-0.2c0.4-0.2,0.7-0.4,0.9-0.7c0.3-0.3,0.5-0.6,0.6-1c0.1-0.4,0.2-0.8,0.2-1.2v-0.7L402.1,217.3L402.1,217.3z
	 M408.7,220.4v1.6h-1.4v-15.1h1.4v7.4c0.4-0.6,0.9-1.1,1.6-1.4c0.6-0.3,1.3-0.5,2-0.5c0.7,0,1.4,0.1,2,0.4c0.6,0.2,1.1,0.6,1.5,1
	c0.4,0.4,0.8,1,1,1.6c0.5,1.3,0.5,2.6,0,3.9c-0.2,0.6-0.6,1.1-1,1.6c-0.4,0.4-1,0.8-1.5,1c-0.6,0.3-1.3,0.4-2,0.4
	c-0.7,0-1.4-0.2-2-0.5C409.6,221.4,409.1,220.9,408.7,220.4L408.7,220.4z M415.7,217.3c0-0.5-0.1-1-0.2-1.5
	c-0.1-0.4-0.4-0.8-0.7-1.2c-0.3-0.3-0.7-0.6-1.1-0.8c-0.5-0.2-1-0.3-1.5-0.3c-0.5,0-1,0.1-1.4,0.3c-0.4,0.2-0.8,0.5-1.1,0.8
	c-0.3,0.3-0.6,0.8-0.8,1.2c-0.4,1-0.4,2,0,3c0.2,0.4,0.4,0.8,0.8,1.2c0.7,0.7,1.6,1.1,2.6,1.1c0.5,0,1-0.1,1.5-0.3
	c0.4-0.2,0.8-0.5,1.1-0.8c0.3-0.4,0.5-0.8,0.7-1.2C415.6,218.3,415.7,217.8,415.7,217.3L415.7,217.3z M425.9,215.9
	c0.1-0.7-0.2-1.3-0.6-1.8c-0.5-0.4-1.2-0.6-1.9-0.6c-0.5,0-1.1,0.1-1.6,0.3c-0.5,0.2-0.9,0.5-1.2,0.8l-0.8-0.9c0.4-0.4,1-0.8,1.5-1
	c0.7-0.3,1.4-0.4,2.1-0.4c0.5,0,1,0.1,1.4,0.2c0.4,0.1,0.8,0.3,1.2,0.6c0.3,0.3,0.6,0.7,0.8,1.1c0.2,0.5,0.3,1,0.3,1.5v5.2
	c0,0.3,0.1,0.7,0.1,1h-1.2c0-0.2-0.1-0.5-0.1-0.7c0-0.3,0-0.5,0-0.8c-0.4,0.6-0.9,1-1.5,1.4c-0.6,0.3-1.3,0.4-2,0.4
	c-0.4,0-0.7-0.1-1.1-0.1c-0.4-0.1-0.7-0.3-1-0.5c-0.3-0.2-0.6-0.5-0.8-0.9c-0.2-0.4-0.3-0.9-0.3-1.3c0-0.6,0.2-1.2,0.5-1.7
	c0.4-0.4,0.9-0.8,1.5-0.9c0.7-0.2,1.4-0.4,2.1-0.4c0.8-0.1,1.6-0.1,2.5-0.1L425.9,215.9L425.9,215.9z M425.5,217.3
	c-0.6,0-1.1,0-1.7,0.1c-0.5,0-1,0.1-1.5,0.3c-0.4,0.1-0.8,0.3-1.1,0.6c-0.3,0.3-0.5,0.7-0.4,1.1c0,0.3,0.1,0.6,0.2,0.8
	c0.1,0.2,0.3,0.4,0.5,0.6c0.2,0.1,0.5,0.2,0.7,0.3c0.3,0.1,0.5,0.1,0.8,0.1c0.4,0,0.9-0.1,1.3-0.2c0.4-0.2,0.7-0.4,0.9-0.7
	c0.3-0.3,0.5-0.6,0.6-1c0.1-0.4,0.2-0.8,0.2-1.2v-0.7L425.5,217.3L425.5,217.3z M435.7,214.9c-0.2-0.4-0.5-0.7-0.9-0.9
	c-0.4-0.3-0.9-0.4-1.4-0.4c-0.2,0-0.5,0-0.7,0.1c-0.2,0-0.4,0.1-0.6,0.3c-0.2,0.1-0.3,0.3-0.5,0.5c-0.1,0.2-0.2,0.4-0.2,0.7
	c0,0.4,0.2,0.8,0.5,1c0.5,0.3,1.1,0.5,1.7,0.6c0.9,0.1,1.7,0.5,2.5,1c0.5,0.4,0.8,1.1,0.8,1.8c0,0.9-0.4,1.7-1.1,2.2
	c-0.3,0.2-0.7,0.4-1.1,0.5c-0.4,0.1-0.8,0.1-1.3,0.1c-0.7,0-1.4-0.2-2.1-0.4c-0.7-0.3-1.2-0.8-1.6-1.4l1.1-0.8
	c0.6,0.9,1.5,1.5,2.6,1.5c0.3,0,0.6,0,0.8-0.1c0.2,0,0.5-0.1,0.7-0.3c0.2-0.1,0.4-0.3,0.5-0.5c0.1-0.2,0.2-0.5,0.2-0.8
	c0-0.5-0.3-0.9-0.7-1.1c-0.6-0.3-1.3-0.5-2-0.7c-0.3-0.1-0.6-0.2-0.9-0.2c-0.3-0.1-0.7-0.2-0.9-0.4c-0.3-0.2-0.5-0.4-0.7-0.7
	c-0.2-0.3-0.3-0.7-0.3-1.1c0-0.4,0.1-0.9,0.3-1.2c0.2-0.3,0.4-0.6,0.8-0.8c0.3-0.2,0.7-0.4,1.1-0.5c0.4-0.1,0.8-0.2,1.2-0.2
	c0.7,0,1.3,0.2,1.9,0.4c0.6,0.3,1.1,0.7,1.4,1.2L435.7,214.9z M448.1,217v0.3c0,0.1,0,0.2,0,0.3h-7.8c0,0.5,0.1,0.9,0.3,1.3
	c0.2,0.4,0.4,0.8,0.7,1.1c0.3,0.3,0.7,0.6,1.1,0.7c1,0.4,2.2,0.3,3.2-0.2c0.5-0.3,0.9-0.7,1.2-1.1l1,0.8c-0.5,0.6-1.1,1.2-1.9,1.5
	c-0.7,0.3-1.4,0.5-2.2,0.5c-0.7,0-1.3-0.1-1.9-0.4c-0.6-0.2-1.1-0.6-1.5-1c-0.4-0.5-0.8-1-1-1.6c-0.3-0.6-0.4-1.3-0.4-2
	c0-0.7,0.1-1.4,0.4-2c0.2-0.6,0.6-1.1,1-1.6c0.4-0.4,0.9-0.8,1.5-1c0.6-0.2,1.2-0.4,1.9-0.4c0.7,0,1.3,0.1,1.9,0.4
	c0.5,0.2,1,0.6,1.4,1c0.4,0.4,0.7,0.9,0.9,1.5C448,215.8,448.1,216.4,448.1,217L448.1,217z M446.7,216.6c0-0.8-0.3-1.6-0.9-2.2
	c-0.6-0.6-1.4-0.9-2.2-0.9c-0.4,0-0.9,0.1-1.3,0.2c-0.8,0.3-1.4,0.9-1.7,1.7c-0.2,0.4-0.3,0.8-0.3,1.1H446.7z"/>
<path class="st3" d="M196.3,194.3V300"/>
<g>
	<g>
		<path class="st6" d="M407,280.3c-6.4,0-11.7-5.2-11.7-11.7c0-6.4,5.2-11.7,11.7-11.7c6.4,0,11.7,5.2,11.7,11.7
			C418.7,275.1,413.4,280.3,407,280.3z M407,258.2c-5.8,0-10.5,4.7-10.5,10.5c0,5.8,4.7,10.5,10.5,10.5s10.5-4.7,10.5-10.5
			C417.5,262.9,412.8,258.2,407,258.2z"/>
	</g>
	<g>
		<path class="st6" d="M401.8,263.4h2.2c0.9,0,1.5,0.2,2,0.7c0.5,0.5,0.7,1.1,0.7,2v4.9c0,1-0.2,1.7-0.7,2.2c-0.5,0.5-1.2,0.7-2,0.7
			h-2.1V263.4z M403.3,272.5h0.7c0.4,0,0.7-0.1,0.9-0.3c0.2-0.2,0.3-0.5,0.3-1v-5c0-0.4-0.1-0.7-0.2-1c-0.2-0.2-0.5-0.3-0.9-0.3
			h-0.7V272.5z"/>
		<path class="st6" d="M408.1,263.4h2.2c0.5,0,0.9,0.1,1.2,0.2c0.3,0.1,0.6,0.3,0.8,0.6c0.2,0.2,0.4,0.5,0.5,0.8
			c0.1,0.3,0.1,0.6,0.1,1v0.4c0,0.3,0,0.5-0.1,0.7c0,0.2-0.1,0.4-0.2,0.5c-0.1,0.1-0.2,0.3-0.3,0.4c-0.1,0.1-0.3,0.2-0.4,0.3
			c0.4,0.2,0.6,0.4,0.8,0.7c0.2,0.3,0.2,0.8,0.2,1.3v0.6c0,0.9-0.2,1.6-0.7,2.1c-0.4,0.5-1.2,0.7-2.1,0.7h-2V263.4z M409.6,267.7
			h0.7c0.5,0,0.8-0.1,1-0.4c0.2-0.2,0.3-0.6,0.3-1.1c0-0.5-0.1-0.8-0.3-1.1c-0.2-0.2-0.5-0.4-1-0.4h-0.6V267.7z M409.6,272.4h0.6
			c0.3,0,0.5,0,0.7-0.1c0.2-0.1,0.3-0.2,0.4-0.4c0.1-0.2,0.1-0.3,0.2-0.6c0-0.2,0-0.5,0-0.7c0-0.3,0-0.5,0-0.7
			c0-0.2-0.1-0.4-0.2-0.5c-0.1-0.1-0.2-0.2-0.4-0.3c-0.2-0.1-0.4-0.1-0.7-0.1h-0.7V272.4z"/>
	</g>
	<g>
		<path class="st6" d="M306.7,278.9c-1,0.9-2.3,1.3-4.4,1.3h-4.1c-0.2,0-0.4-0.2-0.4-0.4v-22.6c0-0.2,0.2-0.4,0.4-0.4h4.2
			c2.1,0,3.3,0.4,4.3,1.3c1.1,1,1.4,2.3,1.4,4.7c0,1.6-0.2,3.1-1.5,4.3c-0.5,0.5-1.1,0.8-1.6,0.9c0.7,0.1,1.2,0.5,1.7,0.9
			c1.4,1.3,1.6,3,1.6,4.7C308.2,276.7,307.7,277.9,306.7,278.9z M302.3,258.7h-2.1c-0.2,0-0.4,0.2-0.4,0.4v7.9
			c0,0.2,0.2,0.4,0.4,0.4h2.1c2.3,0,3.6-1.2,3.6-4.3C305.9,259.6,304.6,258.7,302.3,258.7z M302.3,269.1h-2.1
			c-0.2,0-0.4,0.2-0.4,0.4v8.8c0,0.2,0.2,0.4,0.4,0.4h2.1c2.4,0,3.8-1,3.8-4.7C306.1,270.4,304.7,269.1,302.3,269.1z"/>
		<path class="st6" d="M311.7,279.9v-22.6c0-0.2,0.2-0.4,0.4-0.4h1.3c0.2,0,0.4,0.2,0.4,0.4v22.6c0,0.2-0.2,0.4-0.4,0.4H312
			C311.8,280.3,311.7,280.1,311.7,279.9z"/>
		<path class="st6" d="M322.8,280.5c-1.6,0-2.9-0.5-3.8-1.4c-1.6-1.6-1.8-3.4-1.8-10.5c0-7.1,0.2-9,1.8-10.5
			c0.9-0.9,2.1-1.4,3.8-1.4c1.6,0,2.8,0.5,3.7,1.3c1,0.9,1.5,2.3,1.6,3.9c0,0.2-0.2,0.4-0.4,0.4h-1.3c-0.2,0-0.4-0.2-0.4-0.4
			c-0.1-1.8-0.8-3.5-3.2-3.5c-1,0-1.7,0.3-2.2,0.9c-1,1.1-1.2,2.5-1.2,9.3c0,6.8,0.2,8.2,1.2,9.3c0.5,0.5,1.2,0.9,2.2,0.9
			c1.8,0,3.2-1.3,3.2-3.5v-5.4c0-0.2-0.2-0.4-0.4-0.4h-2.8v-1.6h4.9c0.2,0,0.4,0.2,0.4,0.4v7C328.1,278.8,325.6,280.5,322.8,280.5z"
			/>
		<path class="st6" d="M340.1,279.4c-0.9,0.7-2,1.1-3.5,1.1c-1.6,0-2.9-0.5-3.8-1.4c-1.6-1.6-1.8-3.4-1.8-10.5c0-7.1,0.2-9,1.8-10.5
			c0.9-0.9,2.1-1.4,3.8-1.4c1.6,0,2.8,0.5,3.6,1.2c1,0.9,1.5,2.4,1.6,4c0,0.2-0.2,0.4-0.4,0.4h-1.3c-0.2,0-0.4-0.2-0.4-0.3
			c0-1.1-0.3-2-1-2.7c-0.5-0.5-1.2-0.8-2.2-0.8c-1,0-1.7,0.3-2.2,0.9c-1,1.1-1.2,2.5-1.2,9.3c0,6.8,0.2,8.2,1.2,9.3
			c0.5,0.5,1.2,0.9,2.2,0.9c1,0,1.7-0.3,2.2-0.8c0.7-0.7,0.9-1.7,1-2.7c0-0.2,0.2-0.3,0.4-0.3h1.3c0.2,0,0.4,0.2,0.4,0.4
			C341.8,277,341.2,278.5,340.1,279.4z"/>
		<path class="st6" d="M353.3,279.9v-10.6H347v10.6c0,0.2-0.2,0.4-0.4,0.4h-1.3c-0.2,0-0.4-0.2-0.4-0.4v-22.6c0-0.2,0.2-0.4,0.4-0.4
			h1.3c0.2,0,0.4,0.2,0.4,0.4v10.2h6.3v-10.2c0-0.2,0.2-0.4,0.4-0.4h1.3c0.2,0,0.4,0.2,0.4,0.4v22.6c0,0.2-0.2,0.4-0.4,0.4h-1.3
			C353.5,280.3,353.3,280.1,353.3,279.9z"/>
		<path class="st6" d="M368,280l-1.3-5.8c0-0.2-0.2-0.3-0.4-0.3h-5.3c-0.2,0-0.3,0.1-0.4,0.3l-1.2,5.8c0,0.2-0.2,0.3-0.4,0.3h-1.5
			c-0.3,0-0.4-0.2-0.4-0.4l5.5-22.6c0-0.2,0.2-0.3,0.4-0.3h1.3c0.2,0,0.3,0.1,0.4,0.3l5.4,22.6c0.1,0.2-0.1,0.4-0.4,0.4h-1.4
			C368.2,280.3,368,280.2,368,280z M363.7,260.5l-2.4,11.3c0,0.2,0.1,0.4,0.4,0.4h4.1c0.2,0,0.4-0.2,0.4-0.4L363.7,260.5z"/>
		<path class="st6" d="M372.1,279.9v-22.6c0-0.2,0.2-0.4,0.4-0.4h1.3c0.2,0,0.4,0.2,0.4,0.4v22.6c0,0.2-0.2,0.4-0.4,0.4h-1.3
			C372.3,280.3,372.1,280.1,372.1,279.9z"/>
		<path class="st6" d="M387.3,280l-7-17.9v17.8c0,0.2-0.2,0.4-0.4,0.4h-1.3c-0.2,0-0.4-0.2-0.4-0.4v-22.6c0-0.2,0.2-0.4,0.4-0.4h1.4
			c0.2,0,0.3,0.1,0.4,0.2l7,17.9l0-17.8c0-0.2,0.2-0.4,0.4-0.4h1.3c0.2,0,0.4,0.2,0.4,0.4v22.6c0,0.2-0.2,0.4-0.4,0.4h-1.4
			C387.5,280.3,387.4,280.2,387.3,280z"/>
	</g>
</g>
</svg>
