<?xml version="1.0" encoding="utf-8"?>
<!-- Generator: Adobe Illustrator 21.0.0, SVG Export Plug-In . SVG Version: 6.00 Build 0)  -->
<svg version="1.1" id="Layer_1" xmlns="http://www.w3.org/2000/svg" xmlns:xlink="http://www.w3.org/1999/xlink" x="0px" y="0px"
	 viewBox="0 0 520 300" style="enable-background:new 0 0 520 300;" xml:space="preserve">
<style type="text/css">
	.st0{fill:#074354;}
	.st1{fill:#70859B;}
	.st2{fill:#54C695;}
	.st3{fill:none;stroke:#70859B;stroke-miterlimit:10;}
	.st4{fill:#BFE6EC;}
	.st5{fill:#ACB8C5;}
	.st6{fill:#FFFFFF;}
</style>
<title>stacks</title>
<path class="st0" d="M5,0.5h510c2.5,0,4.5,2,4.5,4.5v290c0,2.5-2,4.5-4.5,4.5H5c-2.5,0-4.5-2-4.5-4.5V5C0.5,2.5,2.5,0.5,5,0.5z"/>
<path class="st1" d="M515,1c2.2,0,4,1.8,4,4v290c0,2.2-1.8,4-4,4H5c-2.2,0-4-1.8-4-4V5c0-2.2,1.8-4,4-4H515 M515,0H5
	C2.2,0,0,2.2,0,5v290c0,2.8,2.2,5,5,5h510c2.8,0,5-2.2,5-5V5C520,2.2,517.8,0,515,0z"/>
<path class="st2" d="M197.1,195h321.7v100c0,2.8-2.2,5-5,5H197.1L197.1,195L197.1,195z"/>
<path class="st3" d="M0,50h520 M0,119h520 M0,194.3h520"/>
<path class="st4" d="M204.8,31.7h-1.6l6.1-14.2h1.4l6.1,14.2h-1.6l-1.6-3.7h-7.3L204.8,31.7z M206.9,26.7h6.2l-3.1-7.6L206.9,26.7z
	 M220.2,36.5h-1.4V22.3h1.4v1.6h0.1c0.4-0.6,0.9-1.1,1.6-1.4c0.6-0.3,1.3-0.5,2-0.5c0.7,0,1.4,0.1,2,0.4c0.6,0.2,1.1,0.6,1.5,1
	c0.4,0.4,0.8,1,1,1.6c0.5,1.3,0.5,2.6,0,3.9c-0.2,0.6-0.6,1.1-1,1.6c-0.4,0.4-1,0.8-1.5,1c-0.6,0.3-1.3,0.4-2,0.4
	c-0.7,0-1.4-0.2-2-0.5c-0.6-0.3-1.2-0.8-1.6-1.4h-0.1V36.5L220.2,36.5z M227.2,27c0-0.5-0.1-1-0.2-1.5c-0.1-0.4-0.4-0.8-0.7-1.2
	c-0.3-0.3-0.7-0.6-1.1-0.8c-0.5-0.2-1-0.3-1.5-0.3c-0.5,0-1,0.1-1.4,0.3c-0.4,0.2-0.8,0.5-1.1,0.8c-0.3,0.3-0.6,0.8-0.8,1.2
	c-0.4,1-0.4,2,0,3c0.2,0.4,0.4,0.8,0.8,1.2c0.7,0.7,1.6,1.1,2.6,1.1c0.5,0,1-0.1,1.5-0.3c0.4-0.2,0.8-0.5,1.1-0.8
	c0.3-0.4,0.5-0.8,0.7-1.2C227.1,28,227.2,27.5,227.2,27L227.2,27z M232.9,36.5h-1.4V22.3h1.4v1.6h0.1c0.4-0.6,0.9-1.1,1.6-1.4
	c0.6-0.3,1.3-0.5,2-0.5c0.7,0,1.4,0.1,2,0.4c0.6,0.2,1.1,0.6,1.5,1c0.4,0.4,0.8,1,1,1.6c0.5,1.3,0.5,2.6,0,3.9
	c-0.2,0.6-0.6,1.1-1,1.6c-0.4,0.4-1,0.8-1.5,1c-0.6,0.3-1.3,0.4-2,0.4c-0.7,0-1.4-0.2-2-0.5c-0.6-0.3-1.2-0.8-1.6-1.4h-0.1V36.5
	L232.9,36.5z M239.9,27c0-0.5-0.1-1-0.2-1.5c-0.1-0.4-0.4-0.8-0.7-1.2c-0.3-0.3-0.7-0.6-1.1-0.8c-0.5-0.2-1-0.3-1.5-0.3
	c-0.5,0-1,0.1-1.4,0.3c-0.4,0.2-0.8,0.5-1.1,0.8c-0.3,0.3-0.6,0.8-0.8,1.2c-0.4,1-0.4,2,0,3c0.2,0.4,0.4,0.8,0.8,1.2
	c0.7,0.7,1.6,1.1,2.6,1.1c0.5,0,1-0.1,1.5-0.3c0.4-0.2,0.8-0.5,1.1-0.8c0.3-0.4,0.5-0.8,0.7-1.2C239.8,28,239.9,27.5,239.9,27
	L239.9,27z M245.6,31.7h-1.4V16.6h1.4C245.6,16.6,245.6,31.7,245.6,31.7z M250.9,18.7c0,0.3-0.1,0.5-0.3,0.7c-0.4,0.4-1,0.4-1.3,0
	c-0.4-0.4-0.4-0.9-0.1-1.3c0,0,0,0,0.1-0.1c0.4-0.4,1-0.4,1.3,0C250.8,18.2,250.9,18.4,250.9,18.7z M250.6,31.7h-1.4v-9.4h1.4V31.7
	L250.6,31.7z M261,24.5c-0.2-0.4-0.6-0.7-1-0.9c-0.4-0.2-0.9-0.4-1.4-0.4c-0.5,0-1,0.1-1.5,0.3c-0.4,0.2-0.8,0.5-1.1,0.8
	c-0.3,0.3-0.6,0.8-0.7,1.2c-0.2,0.5-0.3,1-0.3,1.5c0,0.5,0.1,1,0.2,1.5c0.2,0.4,0.4,0.8,0.7,1.2c0.3,0.3,0.7,0.6,1.1,0.8
	c0.5,0.2,1,0.3,1.5,0.3c1,0,1.9-0.4,2.5-1.2l1,0.8c-0.4,0.5-0.9,0.9-1.5,1.2c-0.7,0.3-1.4,0.5-2.1,0.4c-0.7,0-1.4-0.1-2.1-0.4
	c-0.6-0.2-1.1-0.6-1.6-1c-0.4-0.4-0.8-1-1-1.6c-0.5-1.3-0.5-2.7,0-3.9c0.2-0.6,0.6-1.1,1-1.6c0.4-0.4,1-0.8,1.6-1
	c0.7-0.3,1.4-0.4,2.1-0.4c0.7,0,1.3,0.1,1.9,0.4c0.6,0.3,1.2,0.7,1.6,1.2L261,24.5z M270.1,25.6c0.1-0.7-0.2-1.3-0.6-1.8
	c-0.5-0.4-1.2-0.6-1.9-0.6c-0.5,0-1.1,0.1-1.6,0.3c-0.5,0.2-0.9,0.5-1.2,0.8l-0.8-0.9c0.4-0.4,1-0.8,1.5-1c0.7-0.3,1.4-0.4,2.1-0.4
	c0.5,0,1,0.1,1.4,0.2c0.4,0.1,0.8,0.3,1.2,0.6c0.3,0.3,0.6,0.7,0.8,1.1c0.2,0.5,0.3,1,0.3,1.5v5.2c0,0.3,0.1,0.7,0.1,1h-1.2
	c0-0.2-0.1-0.5-0.1-0.7c0-0.3,0-0.5,0-0.8c-0.4,0.6-0.9,1-1.5,1.4c-0.6,0.3-1.3,0.4-2,0.4c-0.4,0-0.7-0.1-1.1-0.1
	c-0.4-0.1-0.7-0.3-1-0.5c-0.3-0.2-0.6-0.5-0.8-0.9c-0.2-0.4-0.3-0.9-0.3-1.3c0-0.6,0.2-1.2,0.5-1.7c0.4-0.4,0.9-0.8,1.5-0.9
	c0.7-0.2,1.4-0.4,2.1-0.4c0.8-0.1,1.6-0.1,2.5-0.1L270.1,25.6L270.1,25.6z M269.8,27c-0.6,0-1.1,0-1.7,0.1c-0.5,0-1,0.1-1.5,0.3
	c-0.4,0.1-0.8,0.3-1.1,0.6c-0.3,0.3-0.4,0.7-0.4,1c0,0.3,0.1,0.6,0.2,0.8c0.1,0.2,0.3,0.4,0.5,0.5c0.2,0.1,0.5,0.2,0.7,0.3
	c0.3,0.1,0.5,0.1,0.8,0.1c0.4,0,0.9-0.1,1.3-0.2c0.4-0.2,0.7-0.4,0.9-0.7c0.3-0.3,0.5-0.6,0.6-1c0.1-0.4,0.2-0.8,0.2-1.2V27H269.8
	L269.8,27z M279,23.5h-2.6v5.5c0,0.3,0,0.6,0.1,0.9c0.1,0.2,0.2,0.4,0.3,0.5c0.1,0.1,0.3,0.2,0.5,0.3c0.2,0,0.4,0.1,0.6,0.1
	c0.2,0,0.4,0,0.6-0.1c0.2-0.1,0.4-0.1,0.6-0.2l0.1,1.2c-0.2,0.1-0.5,0.2-0.8,0.2c-0.3,0-0.6,0.1-0.9,0.1c-0.3,0-0.5,0-0.8-0.1
	c-0.3-0.1-0.6-0.2-0.8-0.4c-0.3-0.2-0.5-0.5-0.6-0.8c-0.2-0.4-0.2-0.8-0.2-1.3v-5.8h-2v-1.1h2v-2.6h1.4v2.6h2.6V23.5z M282.7,18.7
	c0,0.3-0.1,0.5-0.3,0.7c-0.4,0.4-1,0.4-1.3,0c-0.4-0.4-0.4-0.9-0.1-1.3c0,0,0,0,0.1-0.1c0.4-0.4,1-0.4,1.3,0
	C282.6,18.2,282.7,18.4,282.7,18.7z M282.5,31.7h-1.4v-9.4h1.4V31.7L282.5,31.7z M295.4,27c0,0.7-0.1,1.4-0.4,2
	c-0.5,1.2-1.4,2.1-2.6,2.6c-0.6,0.2-1.3,0.4-2,0.4c-0.7,0-1.4-0.1-2-0.4c-1.2-0.5-2.1-1.4-2.6-2.6c-0.5-1.3-0.5-2.7,0-3.9
	c0.5-1.2,1.4-2.1,2.6-2.6c0.6-0.3,1.3-0.4,2-0.4c0.7,0,1.4,0.1,2,0.4c1.2,0.4,2.1,1.4,2.6,2.5C295.3,25.6,295.4,26.3,295.4,27z
	 M293.9,27c0-0.5-0.1-1-0.2-1.5c-0.2-0.4-0.4-0.8-0.7-1.2c-0.3-0.3-0.7-0.6-1.1-0.8c-0.5-0.2-1-0.3-1.5-0.3c-0.5,0-1,0.1-1.5,0.3
	c-0.4,0.2-0.8,0.5-1.1,0.8c-0.3,0.4-0.6,0.8-0.7,1.2c-0.3,1-0.3,2,0,2.9c0.2,0.4,0.4,0.8,0.7,1.2c0.3,0.3,0.7,0.6,1.1,0.8
	c0.5,0.2,1,0.3,1.5,0.3c0.5,0,1-0.1,1.5-0.3c0.4-0.2,0.8-0.5,1.1-0.8c0.3-0.4,0.6-0.8,0.7-1.2C293.8,28,293.9,27.5,293.9,27z
	 M299.5,22.3c0,0.3,0,0.5,0.1,0.8v0.8c0.3-0.6,0.7-1,1.3-1.3c0.6-0.3,1.2-0.5,1.9-0.5c1-0.1,2,0.3,2.7,1.1c0.6,0.8,0.9,1.8,0.9,2.8
	v5.7H305v-5.2c0-0.4,0-0.9-0.1-1.3c-0.1-0.4-0.2-0.7-0.4-1c-0.2-0.3-0.5-0.5-0.8-0.7c-0.4-0.2-0.8-0.3-1.2-0.2c-0.3,0-0.7,0.1-1,0.2
	c-0.3,0.2-0.7,0.4-0.9,0.7c-0.3,0.3-0.5,0.7-0.6,1.1c-0.2,0.5-0.3,1.1-0.2,1.6v4.8h-1.4v-8.3c0-0.4,0-0.8-0.1-1.1L299.5,22.3
	L299.5,22.3z M314.9,24.5c-0.2-0.4-0.5-0.7-0.9-1c-0.4-0.3-0.9-0.4-1.4-0.4c-0.2,0-0.5,0-0.7,0.1c-0.2,0-0.4,0.1-0.6,0.3
	c-0.2,0.1-0.3,0.3-0.5,0.5c-0.1,0.2-0.2,0.4-0.2,0.7c0,0.4,0.2,0.8,0.5,1c0.5,0.3,1.1,0.5,1.7,0.6c0.9,0.1,1.7,0.5,2.5,1
	c0.5,0.4,0.8,1.1,0.8,1.8c0,0.9-0.4,1.7-1.1,2.2c-0.3,0.2-0.7,0.4-1.1,0.5c-0.4,0.1-0.8,0.1-1.3,0.1c-0.7,0-1.4-0.2-2.1-0.4
	c-0.7-0.3-1.2-0.8-1.6-1.4l1.1-0.8c0.6,0.9,1.5,1.5,2.6,1.5c0.3,0,0.6,0,0.8-0.1c0.2,0,0.5-0.1,0.7-0.3c0.4-0.3,0.7-0.8,0.7-1.3
	c0-0.5-0.3-0.9-0.8-1.1c-0.6-0.3-1.3-0.5-2-0.7c-0.3-0.1-0.6-0.2-0.9-0.2c-0.3-0.1-0.6-0.2-0.9-0.4c-0.3-0.2-0.5-0.4-0.7-0.7
	c-0.2-0.3-0.3-0.7-0.3-1.1c0-0.4,0.1-0.9,0.3-1.2c0.2-0.3,0.4-0.6,0.8-0.8c0.3-0.2,0.7-0.4,1.1-0.5c0.4-0.1,0.8-0.2,1.2-0.2
	c0.7,0,1.3,0.2,1.9,0.4c0.6,0.3,1.1,0.7,1.4,1.2L314.9,24.5z M223.7,75.2h4c0.7,0,1.3,0.1,2,0.2c0.5,0.1,1.1,0.4,1.5,0.7
	c0.4,0.3,0.8,0.7,1,1.2c0.2,0.5,0.4,1.1,0.3,1.7c0,0.6-0.1,1.1-0.4,1.7c-0.2,0.5-0.6,0.9-1,1.2c-0.5,0.3-1,0.6-1.5,0.7
	c-0.7,0.2-1.3,0.2-2,0.2h-2.5v6.6h-1.4L223.7,75.2L223.7,75.2z M225.1,81.6h2.4c0.9,0.1,1.8-0.2,2.6-0.7c0.6-0.5,0.9-1.2,0.9-1.9
	c0.1-0.8-0.3-1.5-0.9-1.9c-0.8-0.4-1.7-0.7-2.6-0.6h-2.4L225.1,81.6L225.1,81.6z M236.6,89.4h-1.4V74.3h1.4V89.4z M246.1,83.3
	c0.1-0.7-0.2-1.3-0.6-1.8c-0.5-0.4-1.2-0.6-1.9-0.6c-0.5,0-1.1,0.1-1.6,0.3c-0.5,0.2-0.9,0.5-1.2,0.8l-0.8-0.9c0.4-0.4,1-0.8,1.5-1
	c0.7-0.3,1.4-0.4,2.1-0.4c0.5,0,1,0.1,1.4,0.2c0.4,0.1,0.8,0.3,1.2,0.6c0.3,0.3,0.6,0.7,0.8,1.1c0.2,0.5,0.3,1,0.3,1.5v5.2
	c0,0.3,0.1,0.7,0.1,1h-1.2c0-0.2-0.1-0.5-0.1-0.7c0-0.3,0-0.5,0-0.8c-0.4,0.6-0.9,1-1.4,1.3c-0.6,0.3-1.3,0.4-2,0.4
	c-0.4,0-0.7-0.1-1.1-0.2c-0.4-0.1-0.7-0.3-1-0.5c-0.3-0.2-0.6-0.5-0.8-0.9c-0.2-0.4-0.3-0.9-0.3-1.3c0-0.6,0.2-1.2,0.6-1.7
	c0.4-0.4,0.9-0.8,1.5-0.9c0.7-0.2,1.4-0.4,2.1-0.4c0.8-0.1,1.6-0.1,2.5-0.1L246.1,83.3L246.1,83.3z M245.7,84.7
	c-0.6,0-1.1,0-1.7,0.1c-0.5,0-1,0.1-1.5,0.3c-0.4,0.1-0.8,0.3-1.1,0.6c-0.3,0.3-0.5,0.7-0.4,1.1c0,0.3,0.1,0.6,0.2,0.8
	c0.1,0.2,0.3,0.4,0.5,0.6c0.2,0.1,0.5,0.2,0.7,0.3c0.3,0.1,0.5,0.1,0.8,0.1c0.4,0,0.9-0.1,1.3-0.2c0.4-0.2,0.7-0.4,0.9-0.7
	c0.3-0.3,0.5-0.6,0.6-1c0.1-0.4,0.2-0.8,0.2-1.2v-0.7L245.7,84.7L245.7,84.7z M254.9,81.2h-2.6v5.5c0,0.3,0,0.6,0.1,0.9
	c0.1,0.2,0.2,0.4,0.3,0.5c0.1,0.1,0.3,0.2,0.4,0.3c0.2,0,0.4,0.1,0.6,0.1c0.2,0,0.4,0,0.6-0.1c0.2-0.1,0.4-0.1,0.6-0.2l0.1,1.2
	c-0.2,0.1-0.5,0.2-0.8,0.2c-0.3,0-0.6,0.1-0.9,0.1c-0.3,0-0.5,0-0.8-0.1c-0.3-0.1-0.6-0.2-0.8-0.4c-0.3-0.2-0.5-0.5-0.6-0.8
	c-0.2-0.4-0.2-0.8-0.2-1.3v-5.8H249V80h1.9v-2.6h1.4V80h2.6L254.9,81.2L254.9,81.2z M261,81.2h-2.2v8.2h-1.4v-8.2h-2V80h2v-2.5
	c-0.1-0.9,0.2-1.8,0.8-2.5c0.6-0.7,1.5-1,2.4-0.9h0.6c0.2,0,0.4,0.1,0.6,0.1l-0.2,1.2l-0.4-0.1c-0.2,0-0.3,0-0.5,0
	c-0.3,0-0.6,0.1-0.9,0.2c-0.2,0.1-0.4,0.3-0.5,0.5c-0.1,0.2-0.2,0.5-0.3,0.8c0,0.3-0.1,0.6-0.1,0.9V80h2.2L261,81.2L261,81.2z
	 M272.2,84.7c0,0.7-0.1,1.4-0.4,2c-0.5,1.2-1.4,2.1-2.6,2.6c-0.6,0.2-1.3,0.4-2,0.4c-0.7,0-1.4-0.1-2-0.4c-1.2-0.5-2.1-1.4-2.6-2.6
	c-0.5-1.3-0.5-2.7,0-3.9c0.5-1.2,1.4-2.1,2.6-2.6c0.6-0.3,1.3-0.4,2-0.4c0.7,0,1.4,0.1,2,0.4c1.2,0.5,2.1,1.4,2.6,2.6
	C272.1,83.4,272.2,84.1,272.2,84.7z M270.8,84.7c0-0.5-0.1-1-0.2-1.5c-0.2-0.4-0.4-0.8-0.7-1.2c-0.3-0.3-0.7-0.6-1.1-0.8
	c-0.5-0.2-1-0.3-1.5-0.3c-0.5,0-1,0.1-1.5,0.3c-0.4,0.2-0.8,0.5-1.1,0.8c-0.3,0.4-0.6,0.8-0.7,1.2c-0.3,1-0.3,2,0,2.9
	c0.2,0.4,0.4,0.8,0.7,1.2c0.3,0.3,0.7,0.6,1.1,0.8c0.5,0.2,1,0.3,1.5,0.3c0.5,0,1-0.1,1.5-0.3c0.4-0.2,0.8-0.5,1.1-0.8
	c0.3-0.4,0.6-0.8,0.7-1.2C270.7,85.7,270.8,85.2,270.8,84.7z M275.1,81.1c0-0.4,0-0.8-0.1-1.1h1.3c0,0.3,0,0.5,0.1,0.8v0.8
	c0.6-1.1,1.7-1.9,3-1.8h0.5c0.1,0,0.3,0,0.4,0.1l-0.2,1.3c-0.1,0-0.3-0.1-0.4-0.1c-0.2,0-0.4,0-0.6,0c-0.3,0-0.7,0.1-1,0.2
	c-0.3,0.1-0.6,0.4-0.9,0.6c-0.3,0.3-0.5,0.7-0.6,1.1c-0.2,0.5-0.2,1.1-0.2,1.6v4.8h-1.4v-7.3C275.2,81.8,275.2,81.5,275.1,81.1z
	 M284.9,80.3c0.6-0.3,1.2-0.5,1.9-0.5c0.3,0,0.5,0,0.8,0.1c0.3,0.1,0.6,0.2,0.8,0.3c0.3,0.2,0.5,0.4,0.7,0.6c0.2,0.3,0.4,0.6,0.6,1
	c0.3-0.6,0.8-1.1,1.3-1.5c0.6-0.4,1.3-0.5,2-0.5c1-0.1,2,0.3,2.7,1.1c0.6,0.8,0.9,1.8,0.9,2.8v5.7h-1.4v-5.2c0-0.8-0.2-1.7-0.5-2.4
	c-0.4-0.6-1.1-1-1.9-0.9c-0.4,0-0.9,0.1-1.2,0.3c-0.3,0.2-0.6,0.5-0.8,0.8c-0.2,0.3-0.4,0.7-0.5,1.1c-0.1,0.4-0.1,0.8-0.1,1.3v5
	h-1.4v-5.5c0-0.4,0-0.8-0.1-1.2c-0.1-0.3-0.2-0.7-0.4-0.9c-0.2-0.3-0.4-0.5-0.7-0.6c-0.4-0.2-0.7-0.2-1.1-0.2c-0.3,0-0.7,0.1-1,0.2
	c-0.3,0.2-0.6,0.4-0.9,0.7c-0.3,0.4-0.4,0.7-0.6,1.2c-0.2,0.5-0.3,1.1-0.2,1.6v4.8h-1.4v-8.3c0-0.4,0-0.8-0.1-1.1h1.3
	c0,0.3,0,0.5,0.1,0.8v0.8C283.9,81.1,284.4,80.6,284.9,80.3L284.9,80.3z M279.2,140.7h4c0.7,0,1.3,0.1,2,0.2
	c0.5,0.1,1.1,0.4,1.5,0.7c0.4,0.3,0.8,0.7,1,1.2c0.2,0.5,0.4,1.1,0.3,1.7c0,0.6-0.1,1.1-0.4,1.7c-0.2,0.5-0.6,0.9-1,1.2
	c-0.5,0.3-1,0.6-1.5,0.7c-0.7,0.2-1.3,0.2-2,0.2h-2.5v6.6h-1.4L279.2,140.7L279.2,140.7z M280.7,147h2.4c0.9,0.1,1.8-0.2,2.6-0.7
	c0.6-0.5,0.9-1.2,0.9-1.9c0.1-0.8-0.3-1.5-0.9-1.9c-0.8-0.4-1.7-0.7-2.5-0.6h-2.4V147L280.7,147z M289.8,146.6c0-0.4,0-0.8-0.1-1.1
	h1.3c0,0.3,0,0.5,0.1,0.8v0.8c0.3-0.5,0.7-1,1.2-1.3c0.5-0.3,1.2-0.5,1.8-0.5h0.5c0.1,0,0.3,0,0.4,0.1l-0.2,1.3
	c-0.1,0-0.3-0.1-0.4-0.1c-0.2,0-0.4,0-0.6,0c-0.3,0-0.7,0.1-1,0.2c-0.3,0.1-0.6,0.4-0.9,0.6c-0.3,0.3-0.5,0.7-0.6,1.1
	c-0.2,0.5-0.2,1.1-0.2,1.6v4.8h-1.4v-7.3C289.8,147.3,289.8,147,289.8,146.6z M305.9,150.2c0,0.7-0.1,1.4-0.4,2
	c-0.2,0.6-0.6,1.1-1,1.6c-0.5,0.4-1,0.8-1.6,1c-0.6,0.2-1.3,0.4-2,0.4c-0.7,0-1.4-0.1-2-0.4c-0.6-0.2-1.1-0.6-1.6-1
	c-0.4-0.4-0.8-1-1-1.6c-0.5-1.3-0.5-2.7,0-3.9c0.5-1.2,1.4-2.1,2.6-2.6c0.6-0.3,1.3-0.4,2-0.4c0.7,0,1.4,0.1,2,0.4
	c1.2,0.5,2.1,1.4,2.6,2.6C305.8,148.8,305.9,149.5,305.9,150.2z M304.5,150.2c0-0.5-0.1-1-0.2-1.5c-0.2-0.4-0.4-0.8-0.7-1.2
	c-0.3-0.3-0.7-0.6-1.1-0.8c-0.5-0.2-1-0.3-1.5-0.3c-0.5,0-1,0.1-1.5,0.3c-0.4,0.2-0.8,0.5-1.1,0.8c-0.3,0.3-0.6,0.8-0.7,1.2
	c-0.3,1-0.3,2,0,2.9c0.2,0.4,0.4,0.9,0.7,1.2c0.3,0.3,0.7,0.6,1.1,0.8c0.5,0.2,1,0.3,1.5,0.3c0.5,0,1-0.1,1.5-0.3
	c0.4-0.2,0.8-0.5,1.1-0.8c0.3-0.4,0.6-0.8,0.7-1.2C304.4,151.1,304.5,150.7,304.5,150.2z M315.6,147.6c-0.2-0.4-0.6-0.7-1-0.9
	c-0.4-0.2-0.9-0.4-1.4-0.4c-0.5,0-1,0.1-1.5,0.3c-0.4,0.2-0.8,0.5-1.1,0.8c-0.3,0.3-0.6,0.8-0.7,1.2c-0.2,0.5-0.3,1-0.2,1.5
	c0,0.5,0.1,1,0.2,1.5c0.2,0.4,0.4,0.8,0.7,1.2c0.3,0.3,0.7,0.6,1.1,0.8c0.5,0.2,1,0.3,1.5,0.3c1,0,1.9-0.4,2.5-1.2l1,0.8
	c-0.4,0.5-0.9,0.9-1.5,1.2c-0.7,0.3-1.4,0.5-2.1,0.4c-0.7,0-1.4-0.1-2.1-0.4c-0.6-0.2-1.1-0.6-1.6-1c-0.4-0.4-0.8-1-1-1.6
	c-0.5-1.3-0.5-2.7,0-3.9c0.2-0.6,0.6-1.1,1-1.6c0.4-0.4,1-0.8,1.6-1c0.7-0.3,1.4-0.4,2.1-0.4c0.7,0,1.3,0.1,1.9,0.4
	c0.6,0.3,1.2,0.7,1.6,1.2L315.6,147.6z M327.4,149.9v0.3c0,0.1,0,0.2,0,0.3h-7.8c0,0.5,0.1,0.9,0.3,1.3c0.2,0.4,0.4,0.8,0.7,1.1
	c0.3,0.3,0.7,0.6,1.1,0.7c1,0.4,2.2,0.3,3.2-0.2c0.5-0.3,0.9-0.7,1.2-1.1l1,0.8c-0.5,0.6-1.1,1.2-1.9,1.5c-0.7,0.3-1.4,0.5-2.2,0.5
	c-0.7,0-1.3-0.1-1.9-0.4c-0.6-0.2-1.1-0.6-1.5-1c-0.4-0.5-0.8-1-1-1.6c-0.3-0.6-0.4-1.3-0.4-2c0-0.7,0.1-1.4,0.4-2
	c0.2-0.6,0.6-1.1,1-1.6c0.4-0.4,0.9-0.8,1.5-1c0.6-0.2,1.2-0.4,1.9-0.4c0.7,0,1.3,0.1,1.9,0.4c0.5,0.2,1,0.6,1.4,1
	c0.4,0.4,0.7,0.9,0.9,1.5C327.3,148.6,327.4,149.3,327.4,149.9L327.4,149.9z M326,149.4c0-0.8-0.3-1.6-0.9-2.2
	c-0.6-0.6-1.4-0.9-2.2-0.9c-0.4,0-0.9,0.1-1.3,0.2c-0.4,0.2-0.7,0.4-1,0.7c-0.3,0.3-0.5,0.6-0.7,1c-0.2,0.4-0.3,0.8-0.3,1.1
	L326,149.4L326,149.4z M335.3,147.7c-0.2-0.4-0.5-0.7-0.9-0.9c-0.4-0.3-0.9-0.4-1.4-0.4c-0.2,0-0.5,0-0.7,0.1
	c-0.2,0-0.4,0.1-0.6,0.3c-0.2,0.1-0.3,0.3-0.5,0.5c-0.1,0.2-0.2,0.4-0.2,0.7c0,0.4,0.2,0.8,0.5,1c0.5,0.3,1.1,0.5,1.7,0.6
	c0.9,0.1,1.7,0.5,2.5,1c0.5,0.4,0.8,1.1,0.8,1.8c0,0.9-0.4,1.7-1.1,2.2c-0.3,0.2-0.7,0.4-1.1,0.5c-0.4,0.1-0.8,0.2-1.3,0.1
	c-0.7,0-1.4-0.2-2.1-0.4c-0.7-0.3-1.2-0.8-1.6-1.4l1.1-0.8c0.6,0.9,1.5,1.5,2.6,1.5c0.3,0,0.6,0,0.8-0.1c0.2,0,0.5-0.1,0.7-0.3
	c0.4-0.3,0.7-0.8,0.7-1.3c0-0.5-0.3-0.9-0.7-1.1c-0.7-0.3-1.3-0.5-2-0.7c-0.3-0.1-0.6-0.2-0.9-0.2c-0.3-0.1-0.6-0.2-0.9-0.4
	c-0.3-0.2-0.5-0.4-0.7-0.7c-0.2-0.3-0.3-0.7-0.3-1.1c0-0.4,0.1-0.9,0.3-1.2c0.2-0.3,0.4-0.6,0.8-0.8c0.3-0.2,0.7-0.4,1.1-0.5
	c0.4-0.1,0.8-0.2,1.2-0.2c0.7,0,1.3,0.2,1.9,0.4c0.6,0.3,1.1,0.7,1.4,1.2L335.3,147.7z M344.1,147.7c-0.2-0.4-0.5-0.7-0.9-0.9
	c-0.4-0.3-0.9-0.4-1.4-0.4c-0.2,0-0.5,0-0.7,0.1c-0.2,0-0.4,0.1-0.6,0.3c-0.2,0.1-0.3,0.3-0.5,0.5c-0.1,0.2-0.2,0.4-0.2,0.7
	c0,0.4,0.2,0.8,0.5,1c0.5,0.3,1.1,0.5,1.7,0.6c0.9,0.1,1.7,0.5,2.5,1c0.5,0.4,0.8,1.1,0.8,1.8c0,0.9-0.4,1.7-1.1,2.2
	c-0.3,0.2-0.7,0.4-1.1,0.5c-0.4,0.1-0.8,0.2-1.3,0.1c-0.7,0-1.4-0.2-2.1-0.4c-0.7-0.3-1.2-0.8-1.6-1.4l1.1-0.8
	c0.6,0.9,1.5,1.5,2.6,1.5c0.3,0,0.6,0,0.8-0.1c0.2,0,0.5-0.1,0.7-0.3c0.4-0.3,0.7-0.8,0.7-1.3c0-0.5-0.3-0.9-0.7-1.1
	c-0.6-0.3-1.3-0.5-2-0.7c-0.3-0.1-0.6-0.2-0.9-0.2c-0.3-0.1-0.6-0.2-0.9-0.4c-0.3-0.2-0.5-0.4-0.7-0.7c-0.2-0.3-0.3-0.7-0.3-1.1
	c0-0.4,0.1-0.9,0.3-1.2c0.2-0.3,0.4-0.6,0.8-0.8c0.3-0.2,0.7-0.4,1.1-0.5c0.4-0.1,0.8-0.2,1.2-0.2c0.7,0,1.3,0.2,1.9,0.4
	c0.6,0.3,1.1,0.7,1.4,1.2L344.1,147.7z M349.7,141.9c0,0.3-0.1,0.5-0.3,0.7c-0.4,0.4-1,0.4-1.3,0c-0.4-0.4-0.4-0.9-0.1-1.3
	c0,0,0,0,0.1-0.1c0.4-0.4,1-0.4,1.3,0C349.6,141.4,349.7,141.6,349.7,141.9z M349.4,154.9h-1.4v-9.4h1.4V154.9z M354.3,145.5
	c0,0.3,0,0.5,0.1,0.8v0.8c0.3-0.6,0.7-1,1.3-1.3c0.6-0.3,1.2-0.5,1.9-0.5c1-0.1,2,0.3,2.7,1.1c0.6,0.8,0.9,1.8,0.9,2.8v5.7h-1.4
	v-5.2c0-0.4,0-0.9-0.1-1.3c-0.1-0.4-0.2-0.7-0.4-1c-0.2-0.3-0.5-0.5-0.8-0.7c-0.4-0.2-0.8-0.3-1.2-0.2c-0.3,0-0.7,0.1-1,0.2
	c-0.3,0.2-0.7,0.4-0.9,0.7c-0.3,0.3-0.5,0.7-0.6,1.1c-0.2,0.5-0.3,1.1-0.2,1.6v4.8H353v-8.3c0-0.4,0-0.8-0.1-1.1L354.3,145.5
	L354.3,145.5z M365.2,156.7c0.4,0.5,0.9,0.9,1.5,1.2c1.2,0.6,2.5,0.7,3.8,0.2c0.4-0.2,0.8-0.4,1.1-0.8c0.3-0.3,0.5-0.7,0.6-1.2
	c0.1-0.5,0.2-0.9,0.2-1.4V153c-0.4,0.6-0.9,1.1-1.5,1.4c-0.6,0.3-1.3,0.5-2,0.5c-0.7,0-1.4-0.1-2-0.4c-0.6-0.2-1.1-0.6-1.5-1
	c-0.4-0.4-0.8-0.9-1-1.5c-0.5-1.2-0.5-2.6,0-3.8c0.2-0.6,0.6-1.1,1-1.5c0.4-0.4,1-0.8,1.5-1c0.6-0.3,1.3-0.4,2-0.4
	c0.7,0,1.4,0.2,2,0.5c0.6,0.3,1.2,0.8,1.5,1.4v-1.6h1.4v9.3c0,0.5-0.1,1.1-0.2,1.6c-0.1,0.6-0.4,1.1-0.8,1.6
	c-0.4,0.5-0.9,0.9-1.5,1.2c-0.8,0.3-1.7,0.5-2.5,0.5c-0.9,0-1.7-0.2-2.5-0.5c-0.8-0.3-1.4-0.8-2-1.4L365.2,156.7z M365.4,150
	c0,0.5,0.1,1,0.2,1.4c0.2,0.4,0.4,0.8,0.7,1.2c0.3,0.3,0.7,0.6,1.1,0.8c0.5,0.2,1,0.3,1.5,0.3c0.5,0,1-0.1,1.4-0.3
	c0.4-0.2,0.8-0.4,1.1-0.7c0.3-0.3,0.6-0.7,0.8-1.1c0.2-0.5,0.3-1,0.3-1.5c0-1.5-0.8-2.8-2.2-3.4c-0.5-0.2-0.9-0.3-1.4-0.3
	c-0.5,0-1,0.1-1.5,0.3c-0.4,0.2-0.8,0.5-1.1,0.8c-0.3,0.3-0.5,0.7-0.7,1.2C365.5,149.1,365.4,149.5,365.4,150L365.4,150z"/>
<path class="st5" d="M39,271.6h4v0.8h-4.8v-8.5H39V271.6z M47.7,268.7c0-0.4-0.1-0.8-0.4-1.1c-0.3-0.3-0.7-0.4-1.1-0.4
	c-0.3,0-0.6,0.1-0.9,0.2c-0.3,0.1-0.5,0.3-0.7,0.5l-0.5-0.5c0.3-0.3,0.6-0.5,0.9-0.6c0.4-0.2,0.8-0.2,1.3-0.2c0.3,0,0.6,0,0.8,0.1
	c0.3,0.1,0.5,0.2,0.7,0.4c0.2,0.2,0.4,0.4,0.5,0.6c0.1,0.3,0.2,0.6,0.2,0.9v3.1c0,0.2,0,0.4,0.1,0.6h-0.7c0-0.1,0-0.3-0.1-0.4
	c0-0.2,0-0.3,0-0.5c-0.2,0.3-0.5,0.6-0.9,0.8c-0.4,0.2-0.8,0.3-1.2,0.2c-0.2,0-0.5,0-0.7-0.1c-0.2-0.1-0.4-0.2-0.6-0.3
	c-0.2-0.1-0.4-0.3-0.5-0.5c-0.1-0.2-0.2-0.5-0.2-0.8c0-0.4,0.1-0.7,0.3-1c0.2-0.3,0.5-0.5,0.9-0.6c0.4-0.1,0.8-0.2,1.3-0.2
	c0.5,0,1,0,1.5,0L47.7,268.7L47.7,268.7z M47.5,269.6h-1c-0.3,0-0.6,0.1-0.9,0.2c-0.3,0.1-0.5,0.2-0.7,0.4c-0.2,0.2-0.3,0.4-0.3,0.6
	c0,0.2,0,0.3,0.1,0.5c0.1,0.1,0.2,0.2,0.3,0.3c0.1,0.1,0.3,0.1,0.4,0.2c0.2,0,0.3,0.1,0.5,0c0.3,0,0.5,0,0.8-0.1
	c0.2-0.1,0.4-0.2,0.6-0.4c0.2-0.2,0.3-0.4,0.3-0.6c0.1-0.2,0.1-0.5,0.1-0.7v-0.4L47.5,269.6L47.5,269.6z M50.6,267.4v-0.6h0.8v1
	c0.3-0.7,1-1.1,1.8-1.1h0.5l-0.1,0.8H53c-0.2,0-0.4,0-0.6,0.1c-0.2,0.1-0.4,0.2-0.5,0.4c-0.2,0.2-0.3,0.4-0.4,0.7
	c-0.1,0.3-0.2,0.7-0.1,1v2.9h-0.8V268C50.6,267.8,50.6,267.6,50.6,267.4L50.6,267.4z M55,273.5c0.2,0.3,0.6,0.6,0.9,0.7
	c0.7,0.4,1.5,0.4,2.2,0.1c0.3-0.1,0.5-0.3,0.7-0.5c0.2-0.2,0.3-0.4,0.4-0.7c0.1-0.3,0.1-0.6,0.1-0.9v-1.1c-0.2,0.4-0.5,0.6-0.9,0.8
	c-0.4,0.2-0.8,0.3-1.2,0.3c-0.4,0-0.8-0.1-1.2-0.2c-0.3-0.1-0.6-0.3-0.9-0.6c-0.3-0.3-0.5-0.6-0.6-0.9c-0.1-0.4-0.2-0.8-0.2-1.1
	c0-0.4,0.1-0.8,0.2-1.1c0.1-0.3,0.3-0.7,0.6-0.9c0.3-0.3,0.6-0.5,0.9-0.6c0.4-0.2,0.8-0.2,1.2-0.2c0.4,0,0.8,0.1,1.2,0.3
	c0.4,0.2,0.7,0.5,0.9,0.8v-1h0.8v5.6c0,0.3,0,0.7-0.1,1c-0.1,0.3-0.2,0.7-0.5,1c-0.3,0.3-0.6,0.6-0.9,0.7c-0.5,0.2-1,0.3-1.5,0.3
	c-0.5,0-1-0.1-1.5-0.3c-0.5-0.2-0.9-0.5-1.2-0.8L55,273.5z M55.2,269.5c0,0.3,0,0.6,0.1,0.8c0.1,0.3,0.2,0.5,0.4,0.7
	c0.2,0.2,0.4,0.4,0.7,0.5c0.3,0.1,0.6,0.2,0.9,0.2c0.3,0,0.6-0.1,0.9-0.2c0.3-0.1,0.5-0.2,0.7-0.4c0.2-0.2,0.3-0.4,0.5-0.7
	c0.1-0.3,0.2-0.6,0.2-0.9c0-0.9-0.5-1.7-1.3-2c-0.3-0.1-0.6-0.2-0.9-0.2c-0.3,0-0.6,0.1-0.9,0.2c-0.3,0.1-0.5,0.3-0.7,0.5
	c-0.2,0.2-0.3,0.4-0.4,0.7C55.2,268.9,55.2,269.2,55.2,269.5L55.2,269.5z M67.4,269.4v0.2c0,0.1,0,0.1,0,0.2h-4.7
	c0,0.3,0.1,0.5,0.2,0.8c0.1,0.2,0.2,0.5,0.4,0.6c0.2,0.2,0.4,0.3,0.7,0.4c0.6,0.3,1.3,0.2,1.9-0.1c0.3-0.2,0.5-0.4,0.7-0.7l0.6,0.5
	c-0.3,0.4-0.7,0.7-1.1,0.9c-0.4,0.2-0.9,0.3-1.3,0.3c-0.4,0-0.8-0.1-1.2-0.2c-0.3-0.1-0.7-0.4-0.9-0.6c-0.3-0.3-0.5-0.6-0.6-0.9
	c-0.2-0.4-0.2-0.8-0.2-1.2c0-0.4,0.1-0.8,0.2-1.2c0.1-0.3,0.3-0.7,0.6-0.9c0.5-0.5,1.2-0.8,2-0.8c0.4,0,0.8,0.1,1.2,0.2
	c0.3,0.1,0.6,0.3,0.8,0.6c0.2,0.3,0.4,0.6,0.5,0.9C67.3,268.6,67.4,269,67.4,269.4L67.4,269.4z M66.6,269.1c0-0.5-0.2-0.9-0.5-1.3
	c-0.4-0.4-0.8-0.6-1.3-0.5c-0.3,0-0.5,0-0.8,0.1c-0.4,0.2-0.8,0.6-1,1c-0.1,0.2-0.2,0.5-0.2,0.7L66.6,269.1L66.6,269.1z M73.1,272.4
	h-0.9v-8.5h5.1v0.8h-4.3v2.9h4v0.8h-4V272.4L73.1,272.4z M79.7,264.6c0,0.2-0.1,0.3-0.2,0.4c-0.2,0.2-0.6,0.2-0.8,0
	c-0.2-0.2-0.2-0.6,0-0.8c0,0,0,0,0,0c0.2-0.2,0.6-0.2,0.8,0C79.6,264.3,79.7,264.4,79.7,264.6L79.7,264.6z M79.5,272.4h-0.8v-5.6
	h0.8L79.5,272.4L79.5,272.4z M82.5,272.4h-0.8v-9.1h0.8V272.4z M89.8,269.4v0.2c0,0.1,0,0.1,0,0.2h-4.7c0,0.3,0.1,0.5,0.2,0.8
	c0.1,0.2,0.2,0.5,0.4,0.6c0.2,0.2,0.4,0.3,0.7,0.4c0.6,0.3,1.3,0.2,1.9-0.1c0.3-0.2,0.5-0.4,0.7-0.7l0.6,0.5
	c-0.3,0.4-0.7,0.7-1.1,0.9c-0.4,0.2-0.9,0.3-1.3,0.3c-0.4,0-0.8-0.1-1.2-0.2c-0.3-0.1-0.7-0.4-0.9-0.6c-0.3-0.3-0.5-0.6-0.6-0.9
	c-0.2-0.4-0.2-0.8-0.2-1.2c0-0.4,0.1-0.8,0.2-1.2c0.1-0.3,0.3-0.7,0.6-0.9c0.5-0.5,1.2-0.8,2-0.8c0.4,0,0.8,0.1,1.2,0.2
	c0.3,0.1,0.6,0.3,0.8,0.6c0.2,0.3,0.4,0.6,0.5,0.9C89.8,268.6,89.8,269,89.8,269.4L89.8,269.4z M89,269.1c0-0.5-0.2-0.9-0.5-1.3
	c-0.4-0.4-0.8-0.6-1.3-0.5c-0.3,0-0.5,0-0.8,0.1c-0.4,0.2-0.8,0.6-1,1c-0.1,0.2-0.2,0.5-0.2,0.7L89,269.1L89,269.1z M94.6,268.1
	c-0.1-0.2-0.3-0.4-0.6-0.6c-0.3-0.1-0.5-0.2-0.8-0.2c-0.1,0-0.3,0-0.4,0c-0.1,0-0.3,0.1-0.4,0.2c-0.1,0.1-0.2,0.2-0.3,0.3
	c-0.1,0.1-0.1,0.3-0.1,0.4c0,0.2,0.1,0.5,0.3,0.6c0.3,0.2,0.6,0.3,1,0.4c0.5,0.1,1,0.3,1.5,0.6c0.3,0.2,0.5,0.6,0.5,1
	c0,0.5-0.2,1-0.7,1.4c-0.2,0.1-0.4,0.2-0.7,0.3c-0.2,0.1-0.5,0.1-0.8,0.1c-0.4,0-0.8-0.1-1.2-0.3c-0.4-0.2-0.8-0.5-1-0.8l0.7-0.5
	c0.3,0.5,0.9,0.9,1.6,0.9c0.2,0,0.3,0,0.5,0c0.1,0,0.3-0.1,0.4-0.2c0.3-0.2,0.4-0.5,0.4-0.8c0-0.3-0.2-0.6-0.4-0.7
	c-0.4-0.2-0.8-0.3-1.2-0.4l-0.5-0.1c-0.2-0.1-0.4-0.1-0.5-0.3c-0.2-0.1-0.3-0.3-0.4-0.4c-0.1-0.2-0.2-0.4-0.2-0.7
	c0-0.3,0.1-0.5,0.2-0.7c0.1-0.2,0.3-0.4,0.4-0.5c0.2-0.1,0.4-0.2,0.6-0.3c0.2-0.1,0.5-0.1,0.7-0.1c0.4,0,0.8,0.1,1.1,0.3
	c0.3,0.2,0.6,0.4,0.8,0.7L94.6,268.1z M105.2,270.4l1.9,2h-1.2l-1.2-1.3c-0.3,0.4-0.7,0.8-1.1,1.1c-0.5,0.2-1,0.4-1.5,0.3
	c-0.3,0-0.7-0.1-1-0.2c-0.3-0.1-0.6-0.2-0.8-0.5c-0.2-0.2-0.4-0.4-0.6-0.7c-0.1-0.3-0.2-0.7-0.2-1c0-0.6,0.2-1.1,0.6-1.5
	c0.2-0.2,0.4-0.4,0.6-0.5c0.2-0.2,0.5-0.3,0.8-0.4c-0.1-0.1-0.3-0.3-0.4-0.4c-0.1-0.1-0.2-0.3-0.3-0.5c-0.1-0.2-0.2-0.3-0.2-0.5
	c-0.1-0.2-0.1-0.4-0.1-0.6c0-0.3,0.1-0.6,0.2-0.9c0.1-0.2,0.3-0.5,0.5-0.6c0.2-0.2,0.4-0.3,0.7-0.4c0.3-0.1,0.5-0.1,0.8-0.1
	c0.3,0,0.5,0,0.8,0.1c0.2,0.1,0.5,0.2,0.7,0.4c0.2,0.2,0.3,0.4,0.4,0.6c0.1,0.3,0.2,0.5,0.2,0.8c0,0.3,0,0.5-0.2,0.8
	c-0.1,0.2-0.3,0.4-0.4,0.6c-0.2,0.2-0.4,0.3-0.6,0.5c-0.2,0.1-0.5,0.3-0.7,0.4l2,2l1.2-2.1h1L105.2,270.4z M101.9,268.2
	c-0.4,0.2-0.8,0.5-1.2,0.8c-0.3,0.3-0.4,0.7-0.4,1.2c0,0.2,0,0.5,0.1,0.7c0.1,0.2,0.2,0.4,0.4,0.5c0.2,0.1,0.4,0.3,0.6,0.3
	c0.2,0.1,0.4,0.1,0.7,0.1c0.4,0,0.8-0.1,1.2-0.3c0.3-0.3,0.6-0.6,0.9-0.9L101.9,268.2z M103.7,265.5c0-0.3-0.1-0.6-0.3-0.9
	c-0.2-0.2-0.5-0.3-0.9-0.3c-0.3,0-0.7,0.1-0.9,0.4c-0.3,0.3-0.4,0.6-0.4,1c0,0.2,0,0.3,0.1,0.5c0.1,0.2,0.1,0.3,0.2,0.5
	c0.1,0.1,0.2,0.3,0.3,0.4c0.1,0.1,0.2,0.2,0.3,0.3c0.2-0.1,0.4-0.2,0.6-0.3c0.2-0.1,0.3-0.2,0.5-0.4c0.1-0.1,0.3-0.3,0.4-0.5
	C103.6,266,103.7,265.8,103.7,265.5L103.7,265.5z M115.6,270.9l2.8-7h1.3v8.5h-0.9V265l-3.1,7.4h-0.5l-3.1-7.4v7.4h-0.9v-8.5h1.3
	L115.6,270.9z M127.1,269.4v0.2c0,0.1,0,0.1,0,0.2h-4.7c0,0.3,0.1,0.5,0.2,0.8c0.1,0.2,0.2,0.5,0.4,0.6c0.2,0.2,0.4,0.3,0.7,0.4
	c0.6,0.3,1.3,0.2,1.9-0.1c0.3-0.2,0.5-0.4,0.7-0.7l0.6,0.5c-0.3,0.4-0.7,0.7-1.1,0.9c-0.4,0.2-0.9,0.3-1.3,0.3
	c-0.4,0-0.8-0.1-1.2-0.2c-0.3-0.1-0.7-0.4-0.9-0.6c-0.3-0.3-0.5-0.6-0.6-0.9c-0.2-0.4-0.2-0.8-0.2-1.2c0-0.4,0.1-0.8,0.2-1.2
	c0.1-0.3,0.3-0.7,0.6-0.9c0.5-0.5,1.2-0.8,2-0.8c0.4,0,0.8,0.1,1.2,0.2c0.3,0.1,0.6,0.3,0.8,0.6c0.2,0.3,0.4,0.6,0.5,0.9
	C127,268.6,127.1,269,127.1,269.4L127.1,269.4z M126.3,269.1c0-0.5-0.2-0.9-0.5-1.3c-0.4-0.4-0.8-0.6-1.3-0.5c-0.3,0-0.5,0-0.8,0.1
	c-0.4,0.2-0.8,0.6-1,1c-0.1,0.2-0.2,0.5-0.2,0.7L126.3,269.1L126.3,269.1z M133.5,271.4c-0.2,0.4-0.6,0.6-0.9,0.8
	c-0.4,0.2-0.8,0.3-1.2,0.3c-0.4,0-0.8-0.1-1.2-0.2c-0.3-0.1-0.7-0.4-0.9-0.6c-0.3-0.3-0.5-0.6-0.6-0.9c-0.3-0.8-0.3-1.6,0-2.3
	c0.1-0.3,0.3-0.7,0.6-0.9c0.3-0.3,0.6-0.5,0.9-0.6c0.4-0.2,0.8-0.2,1.2-0.2c0.4,0,0.8,0.1,1.2,0.3c0.4,0.2,0.7,0.5,0.9,0.8v-4.4h0.8
	v9.1h-0.8V271.4L133.5,271.4z M129.3,269.5c0,0.3,0,0.6,0.1,0.9c0.1,0.3,0.2,0.5,0.4,0.7c0.2,0.2,0.4,0.4,0.7,0.5
	c0.3,0.1,0.6,0.2,0.9,0.2c0.6,0,1.1-0.2,1.6-0.6c0.2-0.2,0.3-0.4,0.4-0.7c0.2-0.6,0.2-1.2,0-1.8c-0.1-0.3-0.3-0.5-0.4-0.7
	c-0.2-0.2-0.4-0.4-0.7-0.5c-0.3-0.1-0.6-0.2-0.9-0.2c-0.3,0-0.6,0.1-0.9,0.2c-0.3,0.1-0.5,0.3-0.7,0.5c-0.2,0.2-0.3,0.5-0.4,0.7
	C129.4,269,129.3,269.2,129.3,269.5L129.3,269.5z M137.5,264.6c0,0.2-0.1,0.3-0.2,0.4c-0.2,0.2-0.6,0.2-0.8,0
	c-0.2-0.2-0.2-0.6,0-0.8c0,0,0,0,0,0c0.2-0.2,0.6-0.2,0.8,0C137.4,264.3,137.5,264.4,137.5,264.6L137.5,264.6z M137.3,272.4h-0.8
	v-5.6h0.8V272.4z M143,268.7c0-0.4-0.1-0.8-0.4-1.1c-0.3-0.3-0.7-0.4-1.1-0.4c-0.3,0-0.6,0.1-0.9,0.2c-0.3,0.1-0.5,0.3-0.7,0.5
	l-0.5-0.5c0.3-0.3,0.6-0.5,0.9-0.6c0.4-0.2,0.8-0.2,1.3-0.2c0.3,0,0.6,0,0.9,0.1c0.3,0.1,0.5,0.2,0.7,0.4c0.2,0.2,0.4,0.4,0.5,0.6
	c0.1,0.3,0.2,0.6,0.2,0.9v3.1c0,0.2,0,0.4,0.1,0.6h-0.7c0-0.1,0-0.3-0.1-0.4c0-0.2,0-0.3,0-0.5c-0.2,0.3-0.5,0.6-0.9,0.8
	c-0.4,0.2-0.8,0.3-1.2,0.2c-0.2,0-0.5,0-0.7-0.1c-0.2-0.1-0.4-0.2-0.6-0.3c-0.2-0.1-0.4-0.3-0.5-0.5c-0.1-0.2-0.2-0.5-0.2-0.8
	c0-0.4,0.1-0.7,0.3-1c0.2-0.3,0.5-0.5,0.9-0.6c0.4-0.1,0.8-0.2,1.3-0.2c0.5,0,1,0,1.5,0L143,268.7L143,268.7z M142.8,269.6h-1
	c-0.3,0-0.6,0.1-0.9,0.2c-0.3,0.1-0.5,0.2-0.7,0.4c-0.2,0.2-0.3,0.4-0.3,0.6c0,0.2,0,0.3,0.1,0.5c0.1,0.1,0.2,0.2,0.3,0.3
	c0.1,0.1,0.3,0.1,0.4,0.2c0.2,0,0.3,0.1,0.5,0c0.3,0,0.5,0,0.8-0.1c0.2-0.1,0.4-0.2,0.6-0.4c0.2-0.2,0.3-0.4,0.4-0.6
	c0.1-0.2,0.1-0.4,0.1-0.6v-0.4L142.8,269.6L142.8,269.6z M219.1,162.8h2.5c0.3,0,0.7,0,1,0.1c0.3,0.1,0.6,0.2,0.9,0.4
	c0.3,0.2,0.5,0.4,0.6,0.7c0.2,0.3,0.3,0.7,0.2,1.1c0,0.4-0.1,0.8-0.4,1.2c-0.3,0.3-0.7,0.6-1.1,0.6c0.5,0,1,0.3,1.4,0.6
	c0.4,0.4,0.6,0.9,0.5,1.5c0,0.7-0.3,1.3-0.9,1.7c-0.3,0.2-0.6,0.4-1,0.5c-0.4,0.1-0.9,0.2-1.3,0.2h-2.5L219.1,162.8L219.1,162.8z
	 M220,166.5h1.7c0.2,0,0.4,0,0.6-0.1c0.2,0,0.4-0.1,0.6-0.2c0.2-0.1,0.3-0.3,0.4-0.5c0.1-0.2,0.2-0.5,0.2-0.7c0-0.2,0-0.5-0.2-0.7
	c-0.1-0.2-0.3-0.3-0.4-0.5c-0.2-0.1-0.4-0.2-0.6-0.3c-0.3-0.1-0.5-0.1-0.8-0.1H220L220,166.5L220,166.5z M220,170.5h1.6
	c0.3,0,0.6,0,0.9-0.1c0.3-0.1,0.5-0.2,0.7-0.3c0.2-0.1,0.4-0.3,0.5-0.5c0.4-0.7,0.2-1.5-0.4-2c-0.5-0.3-1-0.4-1.6-0.4H220L220,170.5
	L220,170.5z M230.8,171.3v-1c-0.2,0.3-0.4,0.6-0.8,0.8c-0.3,0.2-0.7,0.3-1.1,0.3c-0.6,0-1.2-0.2-1.6-0.6c-0.4-0.5-0.6-1.1-0.5-1.7
	v-3.4h0.8v3.1c0,0.3,0,0.5,0.1,0.8c0,0.2,0.1,0.4,0.2,0.6c0.1,0.2,0.3,0.3,0.5,0.4c0.2,0.1,0.5,0.1,0.7,0.1c0.2,0,0.4,0,0.6-0.1
	c0.2-0.1,0.4-0.2,0.6-0.4c0.2-0.2,0.3-0.4,0.4-0.7c0.1-0.3,0.2-0.7,0.1-1v-2.9h0.8v5.6L230.8,171.3L230.8,171.3z M236.7,167
	c-0.1-0.2-0.3-0.4-0.6-0.6c-0.3-0.1-0.5-0.2-0.8-0.2c-0.1,0-0.3,0-0.4,0c-0.1,0-0.3,0.1-0.4,0.2c-0.1,0.1-0.2,0.2-0.3,0.3
	c-0.1,0.1-0.1,0.3-0.1,0.4c0,0.2,0.1,0.5,0.3,0.6c0.3,0.2,0.6,0.3,1,0.4c0.5,0.1,1,0.3,1.5,0.6c0.3,0.2,0.5,0.6,0.5,1
	c0,0.5-0.2,1-0.7,1.4c-0.2,0.1-0.4,0.2-0.7,0.3c-0.2,0.1-0.5,0.1-0.8,0.1c-0.4,0-0.8-0.1-1.2-0.3c-0.4-0.2-0.8-0.5-1-0.8l0.6-0.5
	c0.3,0.5,0.9,0.9,1.6,0.9c0.2,0,0.3,0,0.5,0c0.1,0,0.3-0.1,0.4-0.2c0.3-0.2,0.4-0.5,0.4-0.8c0-0.3-0.2-0.6-0.4-0.7
	c-0.4-0.2-0.8-0.3-1.2-0.4l-0.5-0.1c-0.2-0.1-0.4-0.1-0.5-0.3c-0.2-0.1-0.3-0.3-0.4-0.4c-0.1-0.2-0.2-0.4-0.2-0.7
	c0-0.3,0.1-0.5,0.2-0.7c0.1-0.2,0.3-0.4,0.4-0.5c0.2-0.1,0.4-0.2,0.6-0.3c0.2-0.1,0.5-0.1,0.7-0.1c0.4,0,0.8,0.1,1.1,0.3
	c0.3,0.2,0.6,0.4,0.8,0.7L236.7,167z M240,163.5c0,0.2-0.1,0.3-0.2,0.4c-0.2,0.2-0.6,0.2-0.8,0c-0.2-0.2-0.2-0.6,0-0.8c0,0,0,0,0,0
	c0.2-0.2,0.6-0.2,0.8,0C239.9,163.2,240,163.4,240,163.5z M239.8,171.3H239v-5.6h0.8L239.8,171.3L239.8,171.3z M242.8,165.7v1
	c0.2-0.3,0.4-0.6,0.8-0.8c0.3-0.2,0.7-0.3,1.1-0.3c0.6,0,1.2,0.2,1.6,0.6c0.4,0.5,0.6,1.1,0.5,1.7v3.4H246v-3.1c0-0.3,0-0.5-0.1-0.8
	c0-0.2-0.1-0.4-0.2-0.6c-0.1-0.2-0.3-0.3-0.5-0.4c-0.2-0.1-0.5-0.2-0.7-0.1c-0.2,0-0.4,0-0.6,0.1c-0.2,0.1-0.4,0.2-0.6,0.4
	c-0.2,0.2-0.3,0.4-0.4,0.7c-0.1,0.3-0.2,0.7-0.1,1v2.9H242v-5.6L242.8,165.7L242.8,165.7z M254.1,168.3v0.2c0,0.1,0,0.1,0,0.2h-4.7
	c0,0.3,0.1,0.5,0.2,0.8c0.1,0.2,0.2,0.5,0.4,0.6c0.2,0.2,0.4,0.3,0.6,0.4c0.6,0.3,1.3,0.2,1.9-0.1c0.3-0.2,0.5-0.4,0.7-0.7l0.6,0.5
	c-0.3,0.4-0.7,0.7-1.1,0.9c-0.4,0.2-0.9,0.3-1.3,0.3c-0.4,0-0.8-0.1-1.2-0.2c-0.3-0.1-0.7-0.4-0.9-0.6c-0.3-0.3-0.5-0.6-0.6-0.9
	c-0.2-0.4-0.2-0.8-0.2-1.2c0-0.4,0.1-0.8,0.2-1.2c0.1-0.3,0.3-0.7,0.6-0.9c0.3-0.3,0.6-0.5,0.9-0.6c0.4-0.1,0.7-0.2,1.1-0.2
	c0.4,0,0.8,0.1,1.2,0.2c0.3,0.1,0.6,0.3,0.8,0.6c0.2,0.3,0.4,0.6,0.5,0.9C254.1,167.6,254.1,167.9,254.1,168.3L254.1,168.3z
	 M253.3,168.1c0-0.5-0.2-0.9-0.5-1.3c-0.4-0.4-0.8-0.6-1.4-0.5c-0.3,0-0.5,0-0.8,0.1c-0.4,0.2-0.8,0.6-1,1c-0.1,0.2-0.2,0.5-0.2,0.7
	L253.3,168.1L253.3,168.1z M258.9,167c-0.1-0.2-0.3-0.4-0.5-0.6c-0.3-0.1-0.5-0.2-0.8-0.2c-0.1,0-0.3,0-0.4,0
	c-0.1,0-0.3,0.1-0.4,0.2c-0.1,0.1-0.2,0.2-0.3,0.3c-0.1,0.1-0.1,0.3-0.1,0.4c0,0.2,0.1,0.5,0.3,0.6c0.3,0.2,0.6,0.3,1,0.4
	c0.5,0.1,1,0.3,1.5,0.6c0.3,0.2,0.5,0.6,0.5,1c0,0.5-0.2,1-0.7,1.4c-0.2,0.1-0.4,0.2-0.7,0.3c-0.2,0.1-0.5,0.1-0.8,0.1
	c-0.4,0-0.8-0.1-1.2-0.3c-0.4-0.2-0.8-0.5-1-0.8l0.6-0.5c0.3,0.5,0.9,0.9,1.6,0.9c0.2,0,0.3,0,0.5,0c0.1,0,0.3-0.1,0.4-0.2
	c0.3-0.2,0.4-0.5,0.4-0.8c0-0.3-0.2-0.6-0.4-0.7c-0.4-0.2-0.8-0.3-1.2-0.4l-0.5-0.1c-0.2-0.1-0.4-0.1-0.5-0.3
	c-0.2-0.1-0.3-0.3-0.4-0.4c-0.1-0.2-0.2-0.4-0.2-0.7c0-0.3,0.1-0.5,0.2-0.7c0.1-0.2,0.3-0.4,0.4-0.5c0.2-0.1,0.4-0.2,0.6-0.3
	c0.2-0.1,0.5-0.1,0.7-0.1c0.4,0,0.8,0.1,1.1,0.3c0.3,0.2,0.6,0.4,0.8,0.7L258.9,167z M264.2,167c-0.1-0.2-0.3-0.4-0.5-0.6
	c-0.3-0.1-0.5-0.2-0.8-0.2c-0.1,0-0.3,0-0.4,0c-0.1,0-0.3,0.1-0.4,0.2c-0.1,0.1-0.2,0.2-0.3,0.3c-0.1,0.1-0.1,0.3-0.1,0.4
	c0,0.2,0.1,0.5,0.3,0.6c0.3,0.2,0.6,0.3,1,0.4c0.5,0.1,1,0.3,1.5,0.6c0.3,0.2,0.5,0.6,0.5,1c0,0.5-0.2,1-0.7,1.4
	c-0.2,0.1-0.4,0.2-0.7,0.3c-0.2,0.1-0.5,0.1-0.8,0.1c-0.4,0-0.8-0.1-1.2-0.3c-0.4-0.2-0.8-0.5-1-0.8l0.6-0.5
	c0.3,0.5,0.9,0.9,1.6,0.9c0.2,0,0.3,0,0.5,0c0.1,0,0.3-0.1,0.4-0.2c0.1-0.1,0.2-0.2,0.3-0.3c0.1-0.1,0.1-0.3,0.1-0.5
	c0-0.3-0.2-0.6-0.4-0.7c-0.4-0.2-0.8-0.3-1.2-0.4l-0.5-0.1c-0.2-0.1-0.4-0.1-0.5-0.3c-0.2-0.1-0.3-0.3-0.4-0.4
	c-0.1-0.2-0.2-0.4-0.2-0.7c0-0.3,0.1-0.5,0.2-0.7c0.1-0.2,0.3-0.4,0.5-0.5c0.2-0.1,0.4-0.2,0.6-0.3c0.2-0.1,0.5-0.1,0.7-0.1
	c0.4,0,0.8,0.1,1.1,0.3c0.3,0.2,0.6,0.4,0.8,0.7L264.2,167z M270.4,170.5h4v0.8h-4.8v-8.5h0.9L270.4,170.5L270.4,170.5z M281,168.5
	c0,0.4-0.1,0.8-0.2,1.2c-0.1,0.4-0.4,0.7-0.6,0.9c-0.3,0.3-0.6,0.5-1,0.6c-0.8,0.3-1.6,0.3-2.4,0c-0.4-0.1-0.7-0.4-1-0.6
	c-0.3-0.3-0.5-0.6-0.6-0.9c-0.3-0.8-0.3-1.6,0-2.4c0.3-0.7,0.9-1.3,1.6-1.6c0.8-0.3,1.6-0.3,2.4,0c0.4,0.1,0.7,0.4,1,0.6
	c0.3,0.3,0.5,0.6,0.6,0.9C280.9,167.7,281,168.1,281,168.5L281,168.5z M280.1,168.5c0-0.3,0-0.6-0.1-0.9c-0.1-0.3-0.2-0.5-0.4-0.7
	c-0.2-0.2-0.4-0.4-0.7-0.5c-0.3-0.1-0.6-0.2-0.9-0.2c-0.3,0-0.6,0.1-0.9,0.2c-0.3,0.1-0.5,0.3-0.7,0.5c-0.2,0.2-0.3,0.5-0.4,0.7
	c-0.2,0.6-0.2,1.2,0,1.8c0.1,0.3,0.2,0.5,0.4,0.7c0.2,0.2,0.4,0.4,0.7,0.5c0.3,0.1,0.6,0.2,0.9,0.2c0.3,0,0.6-0.1,0.9-0.2
	c0.3-0.1,0.5-0.3,0.7-0.5c0.2-0.2,0.3-0.5,0.4-0.7C280.1,169.1,280.1,168.8,280.1,168.5L280.1,168.5z M283.1,172.4
	c0.2,0.3,0.6,0.6,0.9,0.7c0.7,0.4,1.5,0.4,2.2,0.1c0.3-0.1,0.5-0.3,0.7-0.5c0.2-0.2,0.3-0.4,0.4-0.7c0.1-0.3,0.1-0.6,0.1-0.9v-1.1
	c-0.2,0.4-0.5,0.6-0.9,0.8c-0.4,0.2-0.8,0.3-1.2,0.3c-0.4,0-0.8-0.1-1.2-0.2c-0.3-0.1-0.6-0.3-0.9-0.6c-0.3-0.3-0.5-0.6-0.6-0.9
	c-0.1-0.4-0.2-0.8-0.2-1.1c0-0.4,0.1-0.8,0.2-1.1c0.1-0.3,0.3-0.7,0.6-0.9c0.3-0.3,0.6-0.5,0.9-0.6c0.4-0.2,0.8-0.2,1.2-0.2
	c0.4,0,0.8,0.1,1.2,0.3c0.4,0.2,0.7,0.5,0.9,0.8v-1h0.8v5.6c0,0.3,0,0.7-0.1,1c-0.1,0.3-0.2,0.7-0.5,0.9c-0.3,0.3-0.6,0.6-0.9,0.7
	c-0.5,0.2-1,0.3-1.5,0.3c-0.5,0-1-0.1-1.5-0.3c-0.5-0.2-0.9-0.5-1.2-0.8L283.1,172.4z M283.2,168.4c0,0.3,0,0.6,0.1,0.8
	c0.1,0.3,0.2,0.5,0.4,0.7c0.2,0.2,0.4,0.4,0.7,0.5c0.3,0.1,0.6,0.2,0.9,0.2c0.3,0,0.6-0.1,0.9-0.2c0.3-0.1,0.5-0.2,0.7-0.4
	c0.2-0.2,0.3-0.4,0.5-0.7c0.1-0.3,0.2-0.6,0.2-0.9c0-0.9-0.5-1.6-1.3-2c-0.3-0.1-0.6-0.2-0.9-0.2c-0.3,0-0.6,0.1-0.9,0.2
	c-0.3,0.1-0.5,0.3-0.7,0.5c-0.2,0.2-0.3,0.4-0.4,0.7C283.3,167.9,283.2,168.1,283.2,168.4L283.2,168.4z M291.3,163.5
	c0,0.2-0.1,0.3-0.2,0.4c-0.2,0.2-0.6,0.2-0.8,0c-0.2-0.2-0.2-0.6,0-0.8c0,0,0,0,0,0c0.2-0.2,0.6-0.2,0.8,0
	C291.3,163.2,291.3,163.4,291.3,163.5z M291.2,171.3h-0.8v-5.6h0.8V171.3z M297.4,167c-0.1-0.2-0.4-0.4-0.6-0.5
	c-0.3-0.1-0.6-0.2-0.9-0.2c-0.3,0-0.6,0.1-0.9,0.2c-0.3,0.1-0.5,0.3-0.7,0.5c-0.2,0.2-0.3,0.5-0.4,0.7c-0.1,0.3-0.2,0.6-0.1,0.9
	c0,0.3,0,0.6,0.1,0.9c0.1,0.3,0.2,0.5,0.4,0.7c0.2,0.2,0.4,0.4,0.7,0.5c0.3,0.1,0.6,0.2,0.9,0.2c0.3,0,0.6-0.1,0.9-0.2
	c0.2-0.1,0.4-0.3,0.6-0.5l0.6,0.5c-0.2,0.3-0.5,0.5-0.9,0.7c-0.4,0.2-0.8,0.3-1.2,0.3c-0.4,0-0.8-0.1-1.2-0.2
	c-0.4-0.1-0.7-0.4-0.9-0.6c-0.3-0.3-0.5-0.6-0.6-0.9c-0.3-0.8-0.3-1.6,0-2.4c0.1-0.4,0.3-0.7,0.6-0.9c0.3-0.3,0.6-0.5,0.9-0.6
	c0.4-0.2,0.8-0.2,1.2-0.2c0.4,0,0.8,0.1,1.1,0.2c0.4,0.2,0.7,0.4,0.9,0.7L297.4,167z"/>
<path class="st0" d="M237,239.2h-0.9v-7.7h-2.8v-0.8h6.6v0.8H237V239.2z M240,234.2v-0.6h0.8v1c0.3-0.7,1-1.1,1.8-1.1h0.5l-0.1,0.8
	h-0.6c-0.2,0-0.4,0-0.6,0.1c-0.2,0.1-0.4,0.2-0.5,0.4c-0.2,0.2-0.3,0.4-0.4,0.7c-0.1,0.3-0.2,0.7-0.1,1v2.9H240V234.2z M247.7,235.6
	c0-0.4-0.1-0.8-0.4-1.1c-0.3-0.3-0.7-0.4-1.1-0.4c-0.3,0-0.6,0.1-0.9,0.2c-0.3,0.1-0.5,0.3-0.7,0.5l-0.5-0.5
	c0.3-0.3,0.6-0.5,0.9-0.6c0.4-0.2,0.8-0.2,1.3-0.2c0.3,0,0.6,0,0.9,0.1c0.3,0.1,0.5,0.2,0.7,0.4c0.2,0.2,0.4,0.4,0.5,0.6
	c0.1,0.3,0.2,0.6,0.2,0.9v3.1c0,0.2,0,0.4,0.1,0.6h-0.7c0-0.1,0-0.3-0.1-0.4c0-0.2,0-0.3,0-0.5c-0.2,0.3-0.5,0.6-0.9,0.8
	c-0.4,0.2-0.8,0.3-1.2,0.2c-0.2,0-0.5,0-0.7-0.1c-0.2-0.1-0.4-0.2-0.6-0.3c-0.2-0.1-0.4-0.3-0.5-0.5c-0.1-0.2-0.2-0.5-0.2-0.8
	c0-0.4,0.1-0.7,0.3-1c0.2-0.3,0.5-0.5,0.9-0.6c0.4-0.1,0.8-0.2,1.3-0.2c0.5,0,1-0.1,1.5-0.1L247.7,235.6L247.7,235.6z M247.5,236.4
	h-1c-0.3,0-0.6,0.1-0.9,0.2c-0.3,0.1-0.5,0.2-0.7,0.4c-0.2,0.2-0.3,0.4-0.3,0.6c0,0.2,0,0.3,0.1,0.5c0.1,0.1,0.2,0.2,0.3,0.3
	c0.1,0.1,0.3,0.1,0.4,0.2c0.2,0,0.3,0.1,0.5,0.1c0.3,0,0.5,0,0.8-0.1c0.2-0.1,0.4-0.2,0.6-0.4c0.2-0.2,0.3-0.4,0.4-0.6
	c0.1-0.2,0.1-0.5,0.1-0.7v-0.4L247.5,236.4L247.5,236.4z M251.3,233.6v1c0.2-0.3,0.4-0.6,0.8-0.8c0.3-0.2,0.7-0.3,1.1-0.3
	c0.6,0,1.2,0.2,1.6,0.6c0.4,0.5,0.6,1.1,0.5,1.7v3.4h-0.8v-3.1c0-0.3,0-0.5-0.1-0.8c0-0.2-0.1-0.4-0.2-0.6c-0.1-0.2-0.3-0.3-0.5-0.4
	c-0.2-0.1-0.5-0.1-0.7-0.1c-0.2,0-0.4,0-0.6,0.1c-0.2,0.1-0.4,0.2-0.6,0.4c-0.2,0.2-0.3,0.4-0.4,0.7c-0.1,0.3-0.2,0.7-0.1,1v2.9
	h-0.8v-5.6L251.3,233.6L251.3,233.6z M260.5,234.9c-0.1-0.2-0.3-0.4-0.5-0.6c-0.3-0.1-0.5-0.2-0.8-0.2c-0.1,0-0.3,0-0.4,0
	c-0.1,0-0.3,0.1-0.4,0.2c-0.1,0.1-0.2,0.2-0.3,0.3c-0.1,0.1-0.1,0.3-0.1,0.4c0,0.2,0.1,0.5,0.3,0.6c0.3,0.2,0.6,0.3,1,0.4
	c0.5,0.1,1,0.3,1.5,0.6c0.3,0.2,0.5,0.6,0.5,1c0,0.5-0.2,1-0.7,1.4c-0.2,0.1-0.4,0.2-0.7,0.3c-0.2,0.1-0.5,0.1-0.8,0.1
	c-0.4,0-0.8-0.1-1.2-0.3c-0.4-0.2-0.8-0.5-1-0.8l0.6-0.5c0.3,0.5,0.9,0.9,1.6,0.9c0.2,0,0.3,0,0.5,0c0.1,0,0.3-0.1,0.4-0.2
	c0.3-0.2,0.4-0.5,0.4-0.8c0-0.3-0.2-0.5-0.4-0.6c-0.4-0.2-0.8-0.3-1.2-0.4l-0.5-0.1c-0.2-0.1-0.4-0.1-0.5-0.3
	c-0.2-0.1-0.3-0.3-0.4-0.4c-0.1-0.2-0.2-0.4-0.2-0.7c0-0.3,0.1-0.5,0.2-0.7c0.1-0.2,0.3-0.4,0.5-0.5c0.2-0.1,0.4-0.2,0.6-0.3
	c0.2-0.1,0.5-0.1,0.7-0.1c0.4,0,0.8,0.1,1.1,0.3c0.3,0.2,0.6,0.4,0.8,0.7L260.5,234.9z M266.4,235.6c0-0.4-0.1-0.8-0.4-1.1
	c-0.3-0.3-0.7-0.4-1.1-0.4c-0.3,0-0.6,0.1-0.9,0.2c-0.3,0.1-0.5,0.3-0.7,0.5l-0.5-0.5c0.3-0.3,0.6-0.5,0.9-0.6
	c0.4-0.2,0.8-0.2,1.3-0.2c0.3,0,0.6,0,0.9,0.1c0.3,0.1,0.5,0.2,0.7,0.4c0.2,0.2,0.4,0.4,0.5,0.6c0.1,0.3,0.2,0.6,0.2,0.9v3.1
	c0,0.2,0,0.4,0.1,0.6h-0.7c0-0.1,0-0.3-0.1-0.4s0-0.3,0-0.5c-0.2,0.3-0.5,0.6-0.9,0.8c-0.4,0.2-0.8,0.3-1.2,0.2
	c-0.2,0-0.5,0-0.7-0.1c-0.2-0.1-0.4-0.2-0.6-0.3c-0.2-0.1-0.4-0.3-0.5-0.5c-0.1-0.2-0.2-0.5-0.2-0.8c0-0.4,0.1-0.7,0.3-1
	c0.2-0.3,0.5-0.5,0.9-0.6c0.4-0.1,0.8-0.2,1.3-0.2c0.5,0,1-0.1,1.5-0.1L266.4,235.6L266.4,235.6z M266.2,236.4h-1
	c-0.3,0-0.6,0.1-0.9,0.2c-0.3,0.1-0.5,0.2-0.7,0.4c-0.2,0.2-0.3,0.4-0.3,0.6c0,0.2,0,0.3,0.1,0.5c0.1,0.1,0.2,0.2,0.3,0.3
	c0.1,0.1,0.3,0.1,0.4,0.2c0.2,0,0.3,0.1,0.5,0.1c0.3,0,0.5,0,0.8-0.1c0.2-0.1,0.4-0.2,0.6-0.4c0.2-0.2,0.3-0.4,0.4-0.6
	c0.1-0.2,0.1-0.5,0.1-0.7v-0.4L266.2,236.4L266.2,236.4z M273.3,234.9c-0.1-0.2-0.4-0.4-0.6-0.5c-0.3-0.1-0.6-0.2-0.9-0.2
	c-0.3,0-0.6,0.1-0.9,0.2c-0.3,0.1-0.5,0.3-0.7,0.5c-0.2,0.2-0.3,0.5-0.4,0.7c-0.1,0.3-0.2,0.6-0.1,0.9c0,0.3,0,0.6,0.1,0.9
	c0.1,0.3,0.2,0.5,0.4,0.7c0.2,0.2,0.4,0.4,0.7,0.5c0.3,0.1,0.6,0.2,0.9,0.2c0.6,0,1.2-0.2,1.5-0.7l0.6,0.5c-0.2,0.3-0.5,0.5-0.9,0.7
	c-0.4,0.2-0.8,0.3-1.2,0.3c-0.4,0-0.8-0.1-1.2-0.2c-0.4-0.1-0.7-0.4-0.9-0.6c-0.3-0.3-0.5-0.6-0.6-0.9c-0.3-0.8-0.3-1.6,0-2.4
	c0.1-0.4,0.3-0.7,0.6-0.9c0.3-0.3,0.6-0.5,0.9-0.6c0.4-0.2,0.8-0.2,1.2-0.2c0.4,0,0.8,0.1,1.1,0.2c0.4,0.2,0.7,0.4,0.9,0.7
	L273.3,234.9z M277.8,234.3h-1.6v3.3c0,0.2,0,0.4,0.1,0.5c0,0.1,0.1,0.2,0.2,0.3c0.1,0.1,0.2,0.1,0.3,0.2c0.1,0,0.2,0,0.3,0
	c0.1,0,0.2,0,0.4,0c0.1,0,0.2-0.1,0.4-0.1v0.7c-0.1,0.1-0.3,0.1-0.5,0.1c-0.2,0-0.3,0-0.5,0c-0.2,0-0.3,0-0.5-0.1
	c-0.2,0-0.3-0.1-0.5-0.2c-0.2-0.1-0.3-0.3-0.4-0.5c-0.1-0.2-0.1-0.5-0.1-0.8v-3.5h-1.2v-0.7h1.2V232h0.8v1.6h1.6L277.8,234.3
	L277.8,234.3z M280.1,231.4c0,0.2-0.1,0.3-0.2,0.4c-0.2,0.2-0.6,0.2-0.8,0c-0.2-0.2-0.2-0.6,0-0.8c0,0,0,0,0,0
	c0.2-0.2,0.6-0.2,0.8,0C280,231.1,280.1,231.3,280.1,231.4z M279.9,239.2h-0.8v-5.6h0.8V239.2z M287.7,236.4c0,0.4-0.1,0.8-0.2,1.2
	c-0.3,0.7-0.9,1.3-1.6,1.6c-0.4,0.2-0.8,0.2-1.2,0.2c-0.4,0-0.8-0.1-1.2-0.2c-0.4-0.1-0.7-0.4-1-0.6c-0.3-0.3-0.5-0.6-0.6-0.9
	c-0.3-0.8-0.3-1.6,0-2.4c0.1-0.4,0.4-0.7,0.6-0.9c0.3-0.3,0.6-0.5,1-0.6c0.4-0.2,0.8-0.2,1.2-0.2c0.4,0,0.8,0.1,1.2,0.2
	c0.7,0.3,1.3,0.8,1.6,1.6C287.6,235.6,287.7,236,287.7,236.4z M286.8,236.4c0-0.3,0-0.6-0.1-0.9c-0.1-0.3-0.2-0.5-0.4-0.7
	c-0.2-0.2-0.4-0.4-0.7-0.5c-0.3-0.1-0.6-0.2-0.9-0.2c-0.3,0-0.6,0.1-0.9,0.2c-0.3,0.1-0.5,0.3-0.7,0.5c-0.2,0.2-0.3,0.5-0.4,0.7
	c-0.2,0.6-0.2,1.2,0,1.8c0.1,0.3,0.2,0.5,0.4,0.7c0.2,0.2,0.4,0.4,0.7,0.5c0.3,0.1,0.6,0.2,0.9,0.2c0.3,0,0.6-0.1,0.9-0.2
	c0.3-0.1,0.5-0.3,0.7-0.5c0.2-0.2,0.3-0.5,0.4-0.7C286.8,237,286.8,236.7,286.8,236.4L286.8,236.4z M290.2,233.6v1
	c0.2-0.3,0.4-0.6,0.8-0.8c0.3-0.2,0.7-0.3,1.1-0.3c0.6,0,1.2,0.2,1.6,0.6c0.4,0.5,0.6,1.1,0.5,1.7v3.4h-0.8v-3.1
	c0-0.3,0-0.5-0.1-0.8c0-0.2-0.1-0.4-0.2-0.6c-0.1-0.2-0.3-0.3-0.5-0.4c-0.2-0.1-0.5-0.1-0.7-0.1c-0.2,0-0.4,0-0.6,0.1
	c-0.2,0.1-0.4,0.2-0.5,0.4c-0.2,0.2-0.3,0.4-0.4,0.7c-0.1,0.3-0.2,0.7-0.1,1v2.9h-0.8v-5.6L290.2,233.6L290.2,233.6z M299.4,234.9
	c-0.1-0.2-0.3-0.4-0.5-0.6c-0.3-0.1-0.5-0.2-0.8-0.2c-0.1,0-0.3,0-0.4,0c-0.1,0-0.3,0.1-0.4,0.2c-0.1,0.1-0.2,0.2-0.3,0.3
	c-0.1,0.1-0.1,0.3-0.1,0.4c0,0.2,0.1,0.5,0.3,0.6c0.3,0.2,0.6,0.3,1,0.4c0.5,0.1,1,0.3,1.5,0.6c0.3,0.2,0.5,0.6,0.5,1
	c0,0.5-0.2,1-0.7,1.4c-0.2,0.1-0.4,0.2-0.7,0.3c-0.2,0.1-0.5,0.1-0.8,0.1c-0.4,0-0.8-0.1-1.2-0.3c-0.4-0.2-0.8-0.5-1-0.8l0.6-0.5
	c0.3,0.5,0.9,0.9,1.6,0.9c0.2,0,0.3,0,0.5,0c0.1,0,0.3-0.1,0.4-0.2c0.3-0.2,0.4-0.5,0.4-0.8c0-0.3-0.2-0.6-0.4-0.7
	c-0.4-0.2-0.8-0.3-1.2-0.4l-0.5-0.1c-0.2-0.1-0.4-0.1-0.5-0.3c-0.2-0.1-0.3-0.3-0.4-0.4c-0.1-0.2-0.2-0.4-0.2-0.7
	c0-0.3,0.1-0.5,0.2-0.7c0.1-0.2,0.3-0.4,0.5-0.5c0.2-0.1,0.4-0.2,0.6-0.3c0.2-0.1,0.5-0.1,0.7-0.1c0.4,0,0.8,0.1,1.1,0.3
	c0.3,0.2,0.6,0.4,0.8,0.7L299.4,234.9z M301.9,240.9h-0.7l0.8-2.8h0.9L301.9,240.9z M314.7,237.8c-0.1,0.2-0.3,0.4-0.5,0.6
	c-0.2,0.2-0.5,0.4-0.7,0.5c-0.3,0.2-0.6,0.3-0.9,0.4c-0.3,0.1-0.7,0.1-1.1,0.1c-0.6,0-1.2-0.1-1.8-0.3c-1.1-0.4-1.9-1.3-2.3-2.3
	c-0.2-0.6-0.3-1.2-0.3-1.8c0-0.6,0.1-1.2,0.3-1.8c0.4-1.1,1.3-1.9,2.3-2.3c0.6-0.2,1.2-0.3,1.8-0.3c0.6,0,1.2,0.1,1.8,0.4
	c0.3,0.1,0.5,0.3,0.7,0.4c0.2,0.2,0.4,0.3,0.5,0.6l-0.7,0.5c-0.1-0.2-0.2-0.3-0.4-0.4c-0.2-0.1-0.3-0.3-0.5-0.4
	c-0.2-0.1-0.4-0.2-0.6-0.2c-0.2-0.1-0.5-0.1-0.8-0.1c-0.5,0-1,0.1-1.5,0.3c-0.4,0.2-0.8,0.5-1.1,0.8c-0.3,0.3-0.5,0.7-0.7,1.2
	c-0.2,0.5-0.2,0.9-0.2,1.4c0,0.5,0.1,1,0.2,1.4c0.2,0.4,0.4,0.8,0.7,1.2c0.3,0.3,0.7,0.6,1.1,0.8c0.5,0.2,1,0.3,1.5,0.3
	c0.5,0,1-0.1,1.4-0.3c0.5-0.2,0.8-0.6,1.1-1L314.7,237.8z M321.1,236.2v0.2c0,0.1,0,0.1,0,0.2h-4.7c0,0.3,0.1,0.5,0.2,0.8
	c0.1,0.2,0.2,0.5,0.4,0.6c0.2,0.2,0.4,0.3,0.6,0.4c0.6,0.3,1.3,0.2,1.9-0.1c0.3-0.2,0.5-0.4,0.7-0.7l0.6,0.5
	c-0.3,0.4-0.7,0.7-1.1,0.9c-0.4,0.2-0.9,0.3-1.3,0.3c-0.4,0-0.8-0.1-1.2-0.2c-0.3-0.1-0.7-0.4-0.9-0.6c-0.3-0.3-0.5-0.6-0.6-0.9
	c-0.2-0.4-0.2-0.8-0.2-1.2c0-0.4,0.1-0.8,0.2-1.2c0.1-0.4,0.3-0.7,0.6-0.9c0.3-0.3,0.6-0.5,0.9-0.6c0.4-0.2,0.7-0.2,1.1-0.2
	c0.4,0,0.8,0.1,1.2,0.2c0.3,0.1,0.6,0.3,0.8,0.6c0.2,0.3,0.4,0.6,0.5,0.9C321,235.5,321.1,235.8,321.1,236.2L321.1,236.2z
	 M320.3,236c0-0.5-0.2-0.9-0.5-1.3c-0.4-0.4-0.8-0.6-1.4-0.5c-0.3,0-0.5,0-0.8,0.1c-0.2,0.1-0.4,0.2-0.6,0.4
	c-0.2,0.2-0.3,0.4-0.4,0.6c-0.1,0.2-0.2,0.5-0.2,0.7L320.3,236L320.3,236z M322.8,234.2v-0.6h0.8v1c0.3-0.7,1-1.1,1.8-1.1h0.5
	l-0.1,0.8h-0.6c-0.2,0-0.4,0-0.6,0.1c-0.2,0.1-0.4,0.2-0.5,0.4c-0.2,0.2-0.3,0.4-0.4,0.7c-0.1,0.3-0.2,0.7-0.1,1v2.9h-0.8v-4.4
	C322.8,234.7,322.8,234.5,322.8,234.2L322.8,234.2z M329.6,234.3H328v3.3c0,0.2,0,0.4,0.1,0.5c0,0.1,0.1,0.2,0.2,0.3
	c0.1,0.1,0.2,0.1,0.3,0.2c0.1,0,0.2,0,0.3,0c0.1,0,0.2,0,0.4,0c0.1,0,0.2-0.1,0.4-0.1v0.7c-0.1,0.1-0.3,0.1-0.5,0.1
	c-0.2,0-0.3,0-0.5,0c-0.2,0-0.3,0-0.5-0.1c-0.2,0-0.3-0.1-0.5-0.2c-0.2-0.1-0.3-0.3-0.4-0.5c-0.1-0.2-0.2-0.5-0.1-0.8v-3.5H326v-0.7
	h1.2V232h0.8v1.6h1.6L329.6,234.3L329.6,234.3z M331.8,231.4c0,0.2-0.1,0.3-0.2,0.4c-0.2,0.2-0.6,0.2-0.8,0c-0.2-0.2-0.2-0.6,0-0.8
	c0,0,0,0,0,0c0.2-0.2,0.6-0.2,0.8,0C331.8,231.1,331.8,231.3,331.8,231.4z M331.7,239.2h-0.8v-5.6h0.8V239.2z M336.2,234.3h-1.3v4.9
	h-0.8v-4.9h-1.2v-0.7h1.2V232c0-0.5,0.1-1.1,0.5-1.5c0.4-0.4,0.9-0.6,1.5-0.5h0.3c0.1,0,0.2,0,0.3,0.1l-0.1,0.7l-0.3-0.1H336
	c-0.2,0-0.4,0-0.5,0.1c-0.1,0.1-0.2,0.2-0.3,0.3c-0.1,0.1-0.1,0.3-0.2,0.5c0,0.2,0,0.4,0,0.6v1.4h1.3L336.2,234.3L336.2,234.3z
	 M338.4,231.4c0,0.2-0.1,0.3-0.2,0.4c-0.2,0.2-0.6,0.2-0.8,0c-0.2-0.2-0.2-0.6,0-0.8c0,0,0,0,0,0c0.2-0.2,0.6-0.2,0.8,0
	C338.3,231.1,338.4,231.3,338.4,231.4z M338.2,239.2h-0.8v-5.6h0.8V239.2z M344.4,234.9c-0.1-0.2-0.4-0.4-0.6-0.5
	c-0.3-0.1-0.6-0.2-0.9-0.2c-0.3,0-0.6,0.1-0.9,0.2c-0.3,0.1-0.5,0.3-0.7,0.5c-0.2,0.2-0.3,0.5-0.4,0.7c-0.1,0.3-0.2,0.6-0.1,0.9
	c0,0.3,0,0.6,0.1,0.9c0.1,0.3,0.2,0.5,0.4,0.7c0.2,0.2,0.4,0.4,0.7,0.5c0.3,0.1,0.6,0.2,0.9,0.2c0.6,0,1.2-0.2,1.5-0.7l0.6,0.5
	c-0.2,0.3-0.5,0.5-0.9,0.7c-0.4,0.2-0.8,0.3-1.2,0.3c-0.4,0-0.8-0.1-1.2-0.2c-0.4-0.1-0.7-0.4-0.9-0.6c-0.3-0.3-0.5-0.6-0.6-0.9
	c-0.3-0.8-0.3-1.6,0-2.4c0.1-0.4,0.3-0.7,0.6-0.9c0.3-0.3,0.6-0.5,0.9-0.6c0.4-0.2,0.8-0.2,1.2-0.2c0.4,0,0.8,0.1,1.1,0.2
	c0.4,0.2,0.7,0.4,0.9,0.7L344.4,234.9z M349.9,235.6c0-0.4-0.1-0.8-0.4-1.1c-0.3-0.3-0.7-0.4-1.1-0.4c-0.3,0-0.6,0.1-0.9,0.2
	c-0.3,0.1-0.5,0.3-0.7,0.5l-0.5-0.5c0.3-0.3,0.6-0.5,0.9-0.6c0.4-0.2,0.8-0.2,1.3-0.2c0.3,0,0.6,0,0.9,0.1c0.3,0.1,0.5,0.2,0.7,0.4
	c0.2,0.2,0.4,0.4,0.5,0.6c0.1,0.3,0.2,0.6,0.2,0.9v3.1c0,0.2,0,0.4,0.1,0.6H350c0-0.1,0-0.3-0.1-0.4s0-0.3,0-0.5
	c-0.2,0.3-0.5,0.6-0.9,0.8c-0.4,0.2-0.8,0.3-1.2,0.2c-0.2,0-0.5,0-0.7-0.1c-0.2-0.1-0.4-0.2-0.6-0.3c-0.2-0.1-0.4-0.3-0.5-0.5
	c-0.1-0.2-0.2-0.5-0.2-0.8c0-0.4,0.1-0.7,0.3-1c0.2-0.3,0.5-0.5,0.9-0.6c0.4-0.1,0.8-0.2,1.3-0.2c0.5,0,1-0.1,1.5-0.1L349.9,235.6
	L349.9,235.6z M349.7,236.4h-1c-0.3,0-0.6,0.1-0.9,0.2c-0.3,0.1-0.5,0.2-0.7,0.4c-0.2,0.2-0.3,0.4-0.3,0.6c0,0.2,0,0.3,0.1,0.5
	c0.1,0.1,0.2,0.2,0.3,0.3c0.1,0.1,0.3,0.1,0.4,0.2c0.2,0,0.3,0.1,0.5,0.1c0.3,0,0.5,0,0.8-0.1c0.2-0.1,0.4-0.2,0.6-0.4
	c0.2-0.2,0.3-0.4,0.4-0.6c0.1-0.2,0.1-0.5,0.1-0.7v-0.4L349.7,236.4L349.7,236.4z M355.2,234.3h-1.6v3.3c0,0.2,0,0.4,0.1,0.5
	c0,0.1,0.1,0.2,0.2,0.3c0.1,0.1,0.2,0.1,0.3,0.2c0.1,0,0.2,0,0.3,0c0.1,0,0.2,0,0.4,0c0.1,0,0.2-0.1,0.4-0.1v0.7
	c-0.1,0.1-0.3,0.1-0.5,0.1c-0.2,0-0.3,0-0.5,0c-0.2,0-0.3,0-0.5-0.1c-0.2,0-0.3-0.1-0.5-0.2c-0.2-0.1-0.3-0.3-0.4-0.5
	c-0.1-0.2-0.1-0.5-0.1-0.8v-3.5h-1.2v-0.7h1.2V232h0.8v1.6h1.6L355.2,234.3L355.2,234.3z M361.6,236.2v0.2c0,0.1,0,0.1,0,0.2h-4.7
	c0,0.3,0.1,0.5,0.2,0.8c0.1,0.2,0.2,0.5,0.4,0.6c0.2,0.2,0.4,0.3,0.6,0.4c0.6,0.3,1.3,0.2,1.9-0.1c0.3-0.2,0.5-0.4,0.7-0.7l0.6,0.5
	c-0.3,0.4-0.7,0.7-1.1,0.9c-0.4,0.2-0.9,0.3-1.3,0.3c-0.4,0-0.8-0.1-1.2-0.2c-0.3-0.1-0.7-0.4-0.9-0.6c-0.3-0.3-0.5-0.6-0.6-0.9
	c-0.2-0.4-0.2-0.8-0.2-1.2c0-0.4,0.1-0.8,0.2-1.2c0.1-0.3,0.3-0.7,0.6-0.9c0.5-0.5,1.2-0.8,2-0.8c0.4,0,0.8,0.1,1.2,0.2
	c0.3,0.1,0.6,0.3,0.8,0.6c0.2,0.3,0.4,0.6,0.5,0.9C361.5,235.5,361.6,235.8,361.6,236.2L361.6,236.2z M360.7,236
	c0-0.5-0.2-0.9-0.5-1.3c-0.4-0.4-0.8-0.6-1.4-0.5c-0.3,0-0.5,0-0.8,0.1c-0.2,0.1-0.4,0.2-0.6,0.4c-0.2,0.2-0.3,0.4-0.4,0.6
	c-0.1,0.2-0.2,0.5-0.2,0.7L360.7,236L360.7,236z M366.3,234.9c-0.1-0.2-0.3-0.4-0.5-0.6c-0.3-0.1-0.5-0.2-0.8-0.2
	c-0.1,0-0.3,0-0.4,0c-0.1,0-0.3,0.1-0.4,0.2c-0.1,0.1-0.2,0.2-0.3,0.3c-0.1,0.1-0.1,0.3-0.1,0.4c0,0.2,0.1,0.5,0.3,0.6
	c0.3,0.2,0.6,0.3,1,0.4c0.5,0.1,1,0.3,1.5,0.6c0.3,0.2,0.5,0.6,0.5,1c0,0.5-0.2,1-0.7,1.4c-0.2,0.1-0.4,0.2-0.7,0.3
	c-0.2,0.1-0.5,0.1-0.8,0.1c-0.4,0-0.8-0.1-1.2-0.3c-0.4-0.2-0.8-0.5-1-0.8l0.6-0.5c0.3,0.5,0.9,0.9,1.6,0.9c0.2,0,0.3,0,0.5,0
	c0.1,0,0.3-0.1,0.4-0.2c0.3-0.2,0.4-0.5,0.4-0.8c0-0.3-0.2-0.6-0.4-0.7c-0.4-0.2-0.8-0.3-1.2-0.4l-0.5-0.1c-0.2-0.1-0.4-0.1-0.5-0.3
	c-0.2-0.1-0.3-0.3-0.4-0.4c-0.1-0.2-0.2-0.4-0.2-0.7c0-0.3,0.1-0.5,0.2-0.7c0.1-0.2,0.3-0.4,0.5-0.5c0.2-0.1,0.4-0.2,0.6-0.3
	c0.2-0.1,0.5-0.1,0.7-0.1c0.4,0,0.8,0.1,1.1,0.3c0.3,0.2,0.6,0.4,0.8,0.7L366.3,234.9z M368.8,240.9h-0.7l0.8-2.8h0.9L368.8,240.9z
	 M381.6,237.8c-0.1,0.2-0.3,0.4-0.5,0.6c-0.2,0.2-0.5,0.4-0.7,0.5c-0.3,0.2-0.6,0.3-0.9,0.4c-0.3,0.1-0.7,0.1-1.1,0.1
	c-0.6,0-1.2-0.1-1.8-0.3c-0.5-0.2-1-0.5-1.4-0.9c-0.4-0.4-0.7-0.9-0.9-1.4c-0.2-0.6-0.3-1.2-0.3-1.8c0-0.6,0.1-1.2,0.3-1.8
	c0.4-1.1,1.3-1.9,2.3-2.3c0.6-0.2,1.2-0.3,1.8-0.3c0.6,0,1.2,0.1,1.8,0.4c0.3,0.1,0.5,0.3,0.7,0.4c0.2,0.2,0.4,0.3,0.5,0.6l-0.7,0.5
	c-0.1-0.2-0.2-0.3-0.4-0.4c-0.2-0.1-0.3-0.3-0.5-0.4c-0.2-0.1-0.4-0.2-0.6-0.2c-0.2-0.1-0.5-0.1-0.8-0.1c-0.5,0-1,0.1-1.5,0.3
	c-0.4,0.2-0.8,0.5-1.1,0.8c-0.3,0.3-0.5,0.7-0.7,1.2c-0.2,0.5-0.2,0.9-0.2,1.4c0,0.5,0.1,1,0.2,1.4c0.2,0.4,0.4,0.8,0.7,1.2
	c0.3,0.3,0.7,0.6,1.1,0.8c0.5,0.2,1,0.3,1.5,0.3c0.5,0,1-0.1,1.4-0.3c0.5-0.2,0.8-0.6,1.1-1L381.6,237.8z M388.5,236.4
	c0,0.4-0.1,0.8-0.2,1.2c-0.1,0.4-0.4,0.7-0.6,0.9c-0.3,0.3-0.6,0.5-1,0.6c-0.8,0.3-1.6,0.3-2.4,0c-0.7-0.3-1.3-0.8-1.6-1.6
	c-0.3-0.8-0.3-1.6,0-2.4c0.3-0.7,0.9-1.3,1.6-1.6c0.8-0.3,1.6-0.3,2.4,0c0.4,0.1,0.7,0.4,1,0.6c0.3,0.3,0.5,0.6,0.6,0.9
	C388.4,235.6,388.5,236,388.5,236.4L388.5,236.4z M387.6,236.4c0-0.3,0-0.6-0.1-0.9c-0.1-0.3-0.2-0.5-0.4-0.7
	c-0.2-0.2-0.4-0.4-0.7-0.5c-0.3-0.1-0.6-0.2-0.9-0.2c-0.3,0-0.6,0.1-0.9,0.2c-0.3,0.1-0.5,0.3-0.7,0.5c-0.2,0.2-0.3,0.5-0.4,0.7
	c-0.2,0.6-0.2,1.2,0,1.8c0.1,0.3,0.2,0.5,0.4,0.7c0.2,0.2,0.4,0.4,0.7,0.5c0.3,0.1,0.6,0.2,0.9,0.2c0.3,0,0.6-0.1,0.9-0.2
	c0.2-0.1,0.5-0.3,0.6-0.5c0.2-0.2,0.3-0.5,0.4-0.7C387.5,237,387.6,236.7,387.6,236.4L387.6,236.4z M391,233.6v1
	c0.2-0.3,0.4-0.6,0.8-0.8c0.3-0.2,0.7-0.3,1.1-0.3c0.6,0,1.2,0.2,1.6,0.6c0.4,0.5,0.6,1.1,0.5,1.7v3.4h-0.8v-3.1
	c0-0.3,0-0.5-0.1-0.8c0-0.2-0.1-0.4-0.2-0.6c-0.1-0.2-0.3-0.3-0.5-0.4c-0.2-0.1-0.5-0.2-0.7-0.1c-0.2,0-0.4,0-0.6,0.1
	c-0.2,0.1-0.4,0.2-0.5,0.4c-0.2,0.2-0.3,0.4-0.4,0.7c-0.1,0.3-0.2,0.7-0.1,1v2.9h-0.8v-5.6L391,233.6L391,233.6z M399.7,234.3h-1.6
	v3.3c0,0.2,0,0.4,0.1,0.5c0,0.1,0.1,0.2,0.2,0.3c0.1,0.1,0.2,0.1,0.3,0.2c0.1,0,0.2,0,0.3,0c0.1,0,0.2,0,0.4,0
	c0.1,0,0.2-0.1,0.4-0.1v0.7c-0.1,0.1-0.3,0.1-0.5,0.1c-0.2,0-0.3,0-0.5,0c-0.2,0-0.3,0-0.5-0.1c-0.2,0-0.3-0.1-0.5-0.2
	c-0.2-0.1-0.3-0.3-0.4-0.5c-0.1-0.2-0.1-0.5-0.1-0.8v-3.5h-1.2v-0.7h1.2V232h0.8v1.6h1.6L399.7,234.3L399.7,234.3z M401,234.2v-0.6
	h0.8v1c0.3-0.7,1-1.1,1.8-1.1h0.5l-0.1,0.8h-0.6c-0.2,0-0.4,0-0.6,0.1c-0.2,0.1-0.4,0.2-0.5,0.4c-0.2,0.2-0.3,0.4-0.4,0.7
	c-0.1,0.3-0.2,0.7-0.1,1v2.9H401V234.2z M408.7,235.6c0-0.4-0.1-0.8-0.4-1.1c-0.3-0.3-0.7-0.4-1.1-0.4c-0.3,0-0.6,0.1-0.9,0.2
	c-0.3,0.1-0.5,0.3-0.7,0.5l-0.5-0.5c0.3-0.3,0.6-0.5,0.9-0.6c0.4-0.2,0.8-0.2,1.3-0.2c0.3,0,0.6,0,0.9,0.1c0.3,0.1,0.5,0.2,0.7,0.4
	c0.2,0.2,0.4,0.4,0.5,0.6c0.1,0.3,0.2,0.6,0.2,0.9v3.1c0,0.2,0,0.4,0.1,0.6h-0.7c0-0.1,0-0.3-0.1-0.4c0-0.2,0-0.3,0-0.5
	c-0.2,0.3-0.5,0.6-0.9,0.8c-0.4,0.2-0.8,0.3-1.2,0.2c-0.2,0-0.5,0-0.7-0.1c-0.2-0.1-0.4-0.2-0.6-0.3c-0.2-0.1-0.4-0.3-0.5-0.5
	c-0.1-0.2-0.2-0.5-0.2-0.8c0-0.4,0.1-0.7,0.3-1c0.2-0.3,0.5-0.5,0.9-0.6c0.4-0.1,0.8-0.2,1.3-0.2c0.5,0,1-0.1,1.5-0.1L408.7,235.6
	L408.7,235.6z M408.5,236.4h-1c-0.3,0-0.6,0.1-0.9,0.2c-0.3,0.1-0.5,0.2-0.7,0.4c-0.2,0.2-0.3,0.4-0.3,0.6c0,0.2,0,0.3,0.1,0.5
	c0.1,0.1,0.2,0.2,0.3,0.3c0.1,0.1,0.3,0.1,0.4,0.2c0.2,0,0.3,0.1,0.5,0.1c0.3,0,0.5,0,0.8-0.1c0.2-0.1,0.4-0.2,0.6-0.4
	c0.2-0.2,0.3-0.4,0.4-0.6c0.1-0.2,0.1-0.5,0.1-0.7v-0.4L408.5,236.4L408.5,236.4z M415.6,234.9c-0.1-0.2-0.4-0.4-0.6-0.5
	c-0.3-0.1-0.6-0.2-0.9-0.2c-0.3,0-0.6,0.1-0.9,0.2c-0.3,0.1-0.5,0.3-0.7,0.5c-0.2,0.2-0.3,0.5-0.4,0.7c-0.1,0.3-0.2,0.6-0.1,0.9
	c0,0.3,0,0.6,0.1,0.9c0.1,0.3,0.2,0.5,0.4,0.7c0.2,0.2,0.4,0.4,0.7,0.5c0.3,0.1,0.6,0.2,0.9,0.2c0.6,0,1.2-0.2,1.5-0.7l0.6,0.5
	c-0.2,0.3-0.5,0.5-0.9,0.7c-0.4,0.2-0.8,0.3-1.2,0.3c-0.4,0-0.8-0.1-1.2-0.2c-0.4-0.1-0.7-0.4-0.9-0.6c-0.3-0.3-0.5-0.6-0.6-0.9
	c-0.3-0.8-0.3-1.6,0-2.4c0.1-0.4,0.3-0.7,0.6-0.9c0.3-0.3,0.6-0.5,0.9-0.6c0.4-0.2,0.8-0.2,1.2-0.2c0.4,0,0.8,0.1,1.1,0.2
	c0.4,0.2,0.7,0.4,0.9,0.7L415.6,234.9z M420.1,234.3h-1.6v3.3c0,0.2,0,0.4,0.1,0.5c0,0.1,0.1,0.2,0.2,0.3c0.1,0.1,0.2,0.1,0.3,0.2
	c0.1,0,0.2,0,0.3,0c0.1,0,0.2,0,0.4,0c0.1,0,0.2-0.1,0.4-0.1v0.7c-0.1,0.1-0.3,0.1-0.5,0.1c-0.2,0-0.3,0-0.5,0c-0.2,0-0.3,0-0.5-0.1
	c-0.2,0-0.3-0.1-0.5-0.2c-0.2-0.1-0.3-0.3-0.4-0.5c-0.1-0.2-0.1-0.5-0.1-0.8v-3.5h-1.2v-0.7h1.2V232h0.8v1.6h1.6L420.1,234.3
	L420.1,234.3z M424.4,234.9c-0.1-0.2-0.3-0.4-0.5-0.6c-0.3-0.1-0.5-0.2-0.8-0.2c-0.1,0-0.3,0-0.4,0c-0.1,0-0.3,0.1-0.4,0.2
	c-0.1,0.1-0.2,0.2-0.3,0.3c-0.1,0.1-0.1,0.3-0.1,0.4c0,0.2,0.1,0.5,0.3,0.6c0.3,0.2,0.6,0.3,1,0.4c0.5,0.1,1,0.3,1.5,0.6
	c0.3,0.2,0.5,0.6,0.5,1c0,0.5-0.2,1-0.7,1.4c-0.2,0.1-0.4,0.2-0.7,0.3c-0.2,0.1-0.5,0.1-0.8,0.1c-0.4,0-0.8-0.1-1.2-0.3
	c-0.4-0.2-0.8-0.5-1-0.8l0.6-0.5c0.3,0.5,0.9,0.9,1.6,0.9c0.2,0,0.3,0,0.5,0c0.1,0,0.3-0.1,0.4-0.2c0.3-0.2,0.4-0.5,0.4-0.8
	c0-0.3-0.2-0.6-0.4-0.7c-0.4-0.2-0.8-0.3-1.2-0.4l-0.5-0.1c-0.2-0.1-0.4-0.1-0.5-0.3c-0.2-0.1-0.3-0.3-0.4-0.4
	c-0.1-0.2-0.2-0.4-0.2-0.7c0-0.3,0.1-0.5,0.2-0.7c0.1-0.2,0.3-0.4,0.5-0.5c0.2-0.1,0.4-0.2,0.6-0.3c0.2-0.1,0.5-0.1,0.7-0.1
	c0.4,0,0.8,0.1,1.1,0.3c0.3,0.2,0.6,0.4,0.8,0.7L424.4,234.9z M435,237.2l1.9,2h-1.2l-1.2-1.3c-0.3,0.4-0.7,0.8-1.1,1.1
	c-0.5,0.2-1,0.4-1.5,0.3c-0.3,0-0.7-0.1-1-0.2c-0.3-0.1-0.6-0.2-0.9-0.4c-0.2-0.2-0.4-0.4-0.6-0.7c-0.4-0.9-0.3-1.9,0.4-2.6
	c0.2-0.2,0.4-0.4,0.6-0.6c0.2-0.2,0.5-0.3,0.8-0.4c-0.1-0.1-0.3-0.3-0.4-0.4c-0.1-0.1-0.2-0.3-0.3-0.5c-0.1-0.2-0.2-0.3-0.2-0.5
	c-0.1-0.2-0.1-0.4-0.1-0.6c0-0.3,0.1-0.6,0.2-0.9c0.1-0.2,0.3-0.5,0.5-0.6c0.2-0.2,0.4-0.3,0.7-0.4c0.3-0.1,0.5-0.1,0.8-0.1
	c0.3,0,0.5,0,0.8,0.1c0.2,0.1,0.5,0.2,0.6,0.4c0.2,0.2,0.3,0.4,0.4,0.6c0.1,0.3,0.2,0.5,0.2,0.8c0,0.3,0,0.5-0.2,0.8
	c-0.1,0.2-0.3,0.4-0.4,0.6c-0.2,0.2-0.4,0.3-0.6,0.5c-0.2,0.1-0.5,0.3-0.7,0.4l2,2l1.2-2.1h1L435,237.2z M431.7,235
	c-0.4,0.2-0.8,0.5-1.2,0.8c-0.3,0.3-0.4,0.7-0.4,1.2c0,0.2,0,0.5,0.1,0.7c0.1,0.2,0.2,0.4,0.4,0.5c0.2,0.1,0.4,0.3,0.6,0.3
	c0.2,0.1,0.4,0.1,0.7,0.1c0.4,0,0.8-0.1,1.2-0.3c0.3-0.3,0.6-0.6,0.9-0.9L431.7,235z M433.5,232.4c0-0.3-0.1-0.6-0.3-0.9
	c-0.2-0.2-0.5-0.3-0.9-0.3c-0.3,0-0.7,0.1-0.9,0.4c-0.4,0.4-0.5,0.9-0.3,1.4c0.1,0.2,0.1,0.3,0.2,0.5c0.1,0.1,0.2,0.3,0.3,0.4
	c0.1,0.1,0.2,0.2,0.3,0.3c0.2-0.1,0.4-0.2,0.6-0.3c0.2-0.1,0.3-0.2,0.5-0.4c0.1-0.1,0.3-0.3,0.4-0.5
	C433.5,232.8,433.5,232.6,433.5,232.4L433.5,232.4z M442.1,239.2h-0.9v-8.5h2.5c0.4,0,0.8,0,1.2,0.1c0.3,0.1,0.6,0.2,0.9,0.4
	c0.3,0.2,0.5,0.4,0.6,0.7c0.2,0.3,0.2,0.7,0.2,1.1c0,0.6-0.2,1.1-0.6,1.5c-0.2,0.2-0.4,0.3-0.7,0.4c-0.3,0.1-0.6,0.2-0.9,0.2l2.5,4
	h-1.1l-2.4-4h-1.4L442.1,239.2L442.1,239.2z M442.1,234.5h1.5c0.6,0,1.1-0.1,1.6-0.4c0.4-0.3,0.6-0.7,0.6-1.1c0-0.2,0-0.5-0.2-0.7
	c-0.1-0.2-0.2-0.4-0.4-0.5c-0.2-0.1-0.4-0.2-0.7-0.3c-0.3-0.1-0.6-0.1-0.9-0.1h-1.5L442.1,234.5L442.1,234.5z M453.3,236.2v0.2
	c0,0.1,0,0.1,0,0.2h-4.7c0,0.3,0.1,0.5,0.2,0.8c0.1,0.2,0.2,0.5,0.4,0.6c0.2,0.2,0.4,0.3,0.6,0.4c0.6,0.3,1.3,0.2,1.9-0.1
	c0.3-0.2,0.5-0.4,0.7-0.7l0.6,0.5c-0.3,0.4-0.7,0.7-1.1,0.9c-0.4,0.2-0.9,0.3-1.3,0.3c-0.4,0-0.8-0.1-1.2-0.2
	c-0.3-0.1-0.7-0.4-0.9-0.6c-0.3-0.3-0.5-0.6-0.6-0.9c-0.2-0.4-0.2-0.8-0.2-1.2c0-0.4,0.1-0.8,0.2-1.2c0.1-0.4,0.3-0.7,0.6-0.9
	c0.3-0.3,0.6-0.5,0.9-0.6c0.4-0.2,0.7-0.2,1.1-0.2c0.4,0,0.8,0.1,1.2,0.2c0.3,0.1,0.6,0.3,0.8,0.6c0.2,0.3,0.4,0.6,0.5,0.9
	C453.3,235.5,453.3,235.8,453.3,236.2L453.3,236.2z M452.5,236c0-0.5-0.2-0.9-0.5-1.3c-0.4-0.4-0.8-0.6-1.4-0.5
	c-0.3,0-0.5,0-0.8,0.1c-0.2,0.1-0.4,0.2-0.6,0.4c-0.2,0.2-0.3,0.4-0.4,0.6c-0.1,0.2-0.2,0.5-0.2,0.7L452.5,236L452.5,236z
	 M459.1,234.9c-0.1-0.2-0.4-0.4-0.6-0.5c-0.3-0.1-0.6-0.2-0.9-0.2c-0.3,0-0.6,0.1-0.9,0.2c-0.3,0.1-0.5,0.3-0.7,0.5
	c-0.2,0.2-0.3,0.5-0.4,0.7c-0.1,0.3-0.2,0.6-0.1,0.9c0,0.3,0,0.6,0.1,0.9c0.1,0.3,0.2,0.5,0.4,0.7c0.2,0.2,0.4,0.4,0.7,0.5
	c0.3,0.1,0.6,0.2,0.9,0.2c0.6,0,1.2-0.2,1.5-0.7l0.6,0.5c-0.2,0.3-0.5,0.5-0.9,0.7c-0.4,0.2-0.8,0.3-1.2,0.3c-0.4,0-0.8-0.1-1.2-0.2
	c-0.4-0.1-0.7-0.4-0.9-0.6c-0.3-0.3-0.5-0.6-0.6-0.9c-0.3-0.8-0.3-1.6,0-2.4c0.1-0.4,0.3-0.7,0.6-0.9c0.3-0.3,0.6-0.5,0.9-0.6
	c0.4-0.2,0.8-0.2,1.2-0.2c0.4,0,0.8,0.1,1.1,0.2c0.4,0.2,0.7,0.4,0.9,0.7L459.1,234.9z M466.2,236.2v0.2c0,0.1,0,0.1,0,0.2h-4.7
	c0,0.3,0.1,0.5,0.2,0.8c0.1,0.2,0.2,0.5,0.4,0.6c0.2,0.2,0.4,0.3,0.6,0.4c0.6,0.3,1.3,0.2,1.9-0.1c0.3-0.2,0.5-0.4,0.7-0.7l0.6,0.5
	c-0.3,0.4-0.7,0.7-1.1,0.9c-0.4,0.2-0.9,0.3-1.3,0.3c-0.4,0-0.8-0.1-1.2-0.2c-0.3-0.1-0.7-0.4-0.9-0.6c-0.3-0.3-0.5-0.6-0.6-0.9
	c-0.2-0.4-0.2-0.8-0.2-1.2c0-0.4,0.1-0.8,0.2-1.2c0.1-0.4,0.3-0.7,0.6-0.9c0.3-0.3,0.6-0.5,0.9-0.6c0.4-0.2,0.7-0.2,1.1-0.2
	c0.4,0,0.8,0.1,1.2,0.2c0.3,0.1,0.6,0.3,0.8,0.6c0.2,0.3,0.4,0.6,0.5,0.9C466.1,235.5,466.2,235.8,466.2,236.2L466.2,236.2z
	 M465.4,236c0-0.5-0.2-0.9-0.5-1.3c-0.4-0.4-0.8-0.6-1.4-0.5c-0.3,0-0.5,0-0.8,0.1c-0.2,0.1-0.4,0.2-0.6,0.4
	c-0.2,0.2-0.3,0.4-0.4,0.6c-0.1,0.2-0.2,0.5-0.2,0.7L465.4,236L465.4,236z M468.9,231.4c0,0.2-0.1,0.3-0.2,0.4
	c-0.2,0.2-0.6,0.2-0.8,0c-0.2-0.2-0.2-0.6,0-0.8c0,0,0,0,0,0c0.2-0.2,0.6-0.2,0.8,0C468.9,231.1,468.9,231.3,468.9,231.4z
	 M468.8,239.2H468v-5.6h0.8L468.8,239.2L468.8,239.2z M471.8,242.1h-0.8v-8.5h0.8v1c0.2-0.4,0.5-0.6,0.9-0.8
	c0.4-0.2,0.8-0.3,1.2-0.3c0.4,0,0.8,0.1,1.2,0.2c0.3,0.1,0.7,0.4,0.9,0.6c0.3,0.3,0.5,0.6,0.6,0.9c0.3,0.8,0.3,1.6,0,2.3
	c-0.1,0.3-0.3,0.7-0.6,0.9c-0.3,0.3-0.6,0.5-0.9,0.6c-0.4,0.2-0.8,0.2-1.2,0.2c-0.4,0-0.8-0.1-1.2-0.3c-0.4-0.2-0.7-0.5-0.9-0.8
	V242.1L471.8,242.1z M475.9,236.4c0-0.3,0-0.6-0.1-0.9c-0.1-0.3-0.2-0.5-0.4-0.7c-0.2-0.2-0.4-0.4-0.7-0.5c-0.3-0.1-0.6-0.2-0.9-0.2
	c-0.3,0-0.6,0.1-0.9,0.2c-0.3,0.1-0.5,0.3-0.7,0.5c-0.2,0.2-0.3,0.5-0.5,0.7c-0.2,0.6-0.2,1.2,0,1.8c0.1,0.3,0.3,0.5,0.5,0.7
	c0.2,0.2,0.4,0.4,0.7,0.5c0.3,0.1,0.6,0.2,0.9,0.2c0.3,0,0.6-0.1,0.9-0.2c0.3-0.1,0.5-0.3,0.7-0.5c0.2-0.2,0.3-0.5,0.4-0.7
	C475.9,237,476,236.7,475.9,236.4z M481.1,234.3h-1.6v3.3c0,0.2,0,0.4,0.1,0.5c0,0.1,0.1,0.2,0.2,0.3c0.1,0.1,0.2,0.1,0.3,0.2
	c0.1,0,0.2,0,0.3,0c0.1,0,0.2,0,0.4,0c0.1,0,0.2-0.1,0.4-0.1v0.7c-0.1,0.1-0.3,0.1-0.5,0.1c-0.2,0-0.3,0-0.5,0c-0.2,0-0.3,0-0.5-0.1
	c-0.2,0-0.3-0.1-0.5-0.2c-0.2-0.1-0.3-0.3-0.4-0.5c-0.1-0.2-0.1-0.5-0.1-0.8v-3.5h-1.2v-0.7h1.2V232h0.8v1.6h1.6L481.1,234.3
	L481.1,234.3z M485.4,234.9c-0.1-0.2-0.3-0.4-0.5-0.6c-0.3-0.1-0.5-0.2-0.8-0.2c-0.1,0-0.3,0-0.4,0c-0.1,0-0.3,0.1-0.4,0.2
	c-0.1,0.1-0.2,0.2-0.3,0.3c-0.1,0.1-0.1,0.3-0.1,0.4c0,0.2,0.1,0.5,0.3,0.6c0.3,0.2,0.6,0.3,1,0.4c0.5,0.1,1,0.3,1.5,0.6
	c0.3,0.2,0.5,0.6,0.5,1c0,0.5-0.2,1-0.7,1.4c-0.2,0.1-0.4,0.2-0.7,0.3c-0.2,0.1-0.5,0.1-0.8,0.1c-0.4,0-0.8-0.1-1.2-0.3
	c-0.4-0.2-0.8-0.5-1-0.8l0.6-0.5c0.3,0.5,0.9,0.9,1.6,0.9c0.2,0,0.3,0,0.5,0c0.1,0,0.3-0.1,0.4-0.2c0.3-0.2,0.4-0.5,0.4-0.8
	c0-0.3-0.2-0.6-0.4-0.7c-0.4-0.2-0.8-0.3-1.2-0.4l-0.5-0.1c-0.2-0.1-0.4-0.1-0.5-0.3c-0.2-0.1-0.3-0.3-0.4-0.4
	c-0.1-0.2-0.2-0.4-0.2-0.7c0-0.3,0.1-0.5,0.2-0.7c0.1-0.2,0.3-0.4,0.5-0.5c0.2-0.1,0.4-0.2,0.6-0.3c0.2-0.1,0.5-0.1,0.7-0.1
	c0.4,0,0.8,0.1,1.1,0.3c0.3,0.2,0.6,0.4,0.8,0.7L485.4,234.9z M233,207.8h4.7c0.9,0,1.8,0.2,2.6,0.4c0.9,0.3,1.7,0.7,2.4,1.3
	c0.7,0.6,1.3,1.4,1.7,2.2c0.9,2,0.9,4.2,0,6.2c-0.4,0.8-1,1.6-1.7,2.2c-0.7,0.6-1.5,1-2.4,1.3c-0.9,0.3-1.7,0.4-2.6,0.4H233V207.8
	L233,207.8z M234.4,220.7h2.9c1,0,1.9-0.1,2.8-0.5c0.8-0.3,1.4-0.7,2-1.3c0.5-0.5,0.9-1.2,1.2-1.9c0.5-1.4,0.5-2.9,0-4.3
	c-0.3-0.7-0.7-1.3-1.2-1.9c-0.6-0.6-1.2-1-2-1.3c-0.9-0.4-1.8-0.5-2.8-0.5h-2.9V220.7z M256.6,217v0.3c0,0.1,0,0.2,0,0.3h-7.8
	c0,0.5,0.1,0.9,0.3,1.3c0.2,0.4,0.4,0.8,0.7,1.1c0.3,0.3,0.7,0.6,1.1,0.7c1,0.4,2.2,0.3,3.2-0.2c0.5-0.3,0.9-0.7,1.2-1.1l1,0.8
	c-0.5,0.6-1.1,1.2-1.9,1.5c-0.7,0.3-1.4,0.5-2.2,0.5c-0.7,0-1.3-0.1-1.9-0.4c-0.6-0.2-1.1-0.6-1.5-1c-0.4-0.5-0.8-1-1-1.6
	c-0.3-0.6-0.4-1.3-0.4-2c0-0.7,0.1-1.4,0.4-2c0.2-0.6,0.6-1.1,1-1.6c0.4-0.4,0.9-0.8,1.5-1c0.6-0.2,1.2-0.4,1.9-0.4
	c0.7,0,1.3,0.1,1.9,0.4c0.5,0.2,1,0.6,1.4,1c0.4,0.4,0.7,0.9,0.8,1.5C256.5,215.8,256.6,216.4,256.6,217L256.6,217z M255.2,216.6
	c0-0.8-0.3-1.6-0.9-2.2c-0.6-0.6-1.4-0.9-2.2-0.9c-0.4,0-0.9,0.1-1.3,0.2c-0.4,0.2-0.7,0.4-1,0.7c-0.3,0.3-0.5,0.6-0.7,1
	c-0.2,0.4-0.3,0.8-0.3,1.1L255.2,216.6L255.2,216.6z M266.3,214.8c-0.2-0.4-0.6-0.7-1-0.9c-0.4-0.2-0.9-0.4-1.4-0.4
	c-0.5,0-1,0.1-1.5,0.3c-0.4,0.2-0.8,0.5-1.1,0.8c-0.3,0.3-0.6,0.8-0.7,1.2c-0.2,0.5-0.3,1-0.2,1.5c0,0.5,0.1,1,0.2,1.5
	c0.2,0.4,0.4,0.8,0.7,1.2c0.3,0.3,0.7,0.6,1.1,0.8c0.5,0.2,1,0.3,1.5,0.3c1,0,1.9-0.4,2.5-1.2l1,0.8c-0.4,0.5-0.9,0.9-1.4,1.2
	c-0.7,0.3-1.4,0.5-2.1,0.4c-0.7,0-1.4-0.1-2.1-0.4c-0.6-0.2-1.1-0.6-1.6-1c-0.4-0.4-0.8-1-1-1.6c-0.5-1.3-0.5-2.7,0-3.9
	c0.2-0.6,0.6-1.1,1-1.6c0.4-0.4,1-0.8,1.6-1c0.7-0.3,1.4-0.4,2.1-0.4c0.7,0,1.3,0.1,1.9,0.4c0.6,0.3,1.2,0.7,1.6,1.2L266.3,214.8z
	 M278.1,217v0.3c0,0.1,0,0.2,0,0.3h-7.8c0,0.5,0.1,0.9,0.3,1.3c0.2,0.4,0.4,0.8,0.7,1.1c0.3,0.3,0.7,0.6,1.1,0.7
	c1,0.4,2.2,0.3,3.2-0.2c0.5-0.3,0.9-0.7,1.2-1.1l1,0.8c-0.5,0.6-1.1,1.2-1.9,1.5c-0.7,0.3-1.4,0.5-2.2,0.5c-0.7,0-1.3-0.1-1.9-0.4
	c-0.6-0.2-1.1-0.6-1.5-1c-0.4-0.5-0.8-1-1-1.6c-0.3-0.6-0.4-1.3-0.4-2c0-0.7,0.1-1.4,0.4-2c0.2-0.6,0.6-1.1,1-1.6
	c0.4-0.4,0.9-0.8,1.5-1c0.6-0.2,1.2-0.4,1.9-0.4c0.7,0,1.3,0.1,1.9,0.4c0.5,0.2,1,0.6,1.4,1c0.4,0.4,0.7,0.9,0.9,1.5
	C278,215.8,278.1,216.4,278.1,217L278.1,217z M276.7,216.6c0-0.8-0.3-1.6-0.9-2.2c-0.6-0.6-1.4-0.9-2.2-0.9c-0.4,0-0.9,0.1-1.3,0.2
	c-0.8,0.3-1.4,0.9-1.7,1.7c-0.2,0.4-0.3,0.8-0.3,1.1H276.7z M282.2,212.6c0,0.3,0,0.5,0.1,0.8c0,0.3,0,0.6,0,0.8
	c0.3-0.6,0.7-1,1.3-1.3c0.6-0.3,1.2-0.5,1.9-0.5c1-0.1,2,0.3,2.7,1.1c0.6,0.8,0.9,1.8,0.9,2.8v5.7h-1.4v-5.2c0-0.4,0-0.9-0.1-1.3
	c-0.1-0.4-0.2-0.7-0.4-1c-0.2-0.3-0.5-0.5-0.8-0.7c-0.4-0.2-0.8-0.3-1.2-0.2c-0.3,0-0.7,0.1-1,0.2c-0.3,0.2-0.7,0.4-0.9,0.7
	c-0.3,0.3-0.5,0.7-0.6,1.1c-0.2,0.5-0.3,1.1-0.2,1.6v4.8H281v-8.3c0-0.4,0-0.8-0.1-1.1L282.2,212.6L282.2,212.6z M296.8,213.8h-2.6
	v5.5c0,0.3,0,0.6,0.1,0.9c0.1,0.2,0.2,0.4,0.3,0.5c0.1,0.1,0.3,0.2,0.5,0.3c0.2,0,0.4,0.1,0.6,0.1c0.2,0,0.4,0,0.6-0.1
	c0.2-0.1,0.4-0.1,0.6-0.2l0.1,1.2c-0.2,0.1-0.5,0.2-0.8,0.2c-0.3,0-0.6,0.1-0.9,0.1c-0.3,0-0.5,0-0.8-0.1c-0.3-0.1-0.6-0.2-0.8-0.4
	c-0.3-0.2-0.5-0.5-0.6-0.8c-0.2-0.4-0.2-0.8-0.2-1.3v-5.8h-1.9v-1.1h1.9V210h1.4v2.6h2.6V213.8z M298.9,213.7c0-0.4,0-0.8-0.1-1.1
	h1.3c0,0.3,0,0.5,0.1,0.8c0,0.3,0,0.6,0,0.8c0.3-0.5,0.7-1,1.2-1.3c0.5-0.3,1.2-0.5,1.8-0.5h0.5c0.1,0,0.3,0,0.4,0.1l-0.1,1.3
	c-0.1,0-0.3-0.1-0.4-0.1c-0.2,0-0.4,0-0.6,0c-0.3,0-0.7,0.1-1,0.2c-0.3,0.1-0.6,0.4-0.9,0.6c-0.3,0.3-0.5,0.7-0.6,1.1
	c-0.2,0.5-0.2,1.1-0.2,1.6v4.7H299v-7.3C298.9,214.4,298.9,214.1,298.9,213.7z M311.8,215.9c0.1-0.7-0.2-1.3-0.6-1.8
	c-0.5-0.4-1.2-0.6-1.9-0.6c-0.5,0-1.1,0.1-1.6,0.3c-0.5,0.2-0.9,0.5-1.2,0.8l-0.8-0.9c0.4-0.4,1-0.8,1.5-1c0.7-0.3,1.4-0.4,2.1-0.4
	c0.5,0,1,0.1,1.4,0.2c0.4,0.1,0.8,0.3,1.2,0.6c0.3,0.3,0.6,0.7,0.8,1.1c0.2,0.5,0.3,1,0.3,1.5v5.2c0,0.3,0.1,0.7,0.1,1H312
	c0-0.2-0.1-0.5-0.1-0.7c0-0.3,0-0.5,0-0.8c-0.4,0.6-0.9,1-1.5,1.4c-0.6,0.3-1.3,0.4-2,0.4c-0.4,0-0.7-0.1-1.1-0.1
	c-0.4-0.1-0.7-0.3-1-0.5c-0.3-0.2-0.6-0.5-0.8-0.9c-0.2-0.4-0.3-0.9-0.3-1.3c0-0.6,0.2-1.2,0.5-1.7c0.4-0.4,0.9-0.8,1.5-0.9
	c0.7-0.2,1.4-0.4,2.1-0.4c0.8-0.1,1.6-0.1,2.5-0.1L311.8,215.9L311.8,215.9z M311.4,217.3c-0.6,0-1.1,0-1.7,0.1
	c-0.5,0-1,0.1-1.5,0.3c-0.4,0.1-0.8,0.3-1.1,0.6c-0.3,0.3-0.5,0.7-0.4,1.1c0,0.3,0.1,0.6,0.2,0.8c0.1,0.2,0.3,0.4,0.5,0.6
	c0.2,0.1,0.5,0.2,0.7,0.3c0.3,0.1,0.5,0.1,0.8,0.1c0.4,0,0.9-0.1,1.3-0.2c0.4-0.2,0.7-0.4,0.9-0.7c0.3-0.3,0.5-0.6,0.6-1
	c0.1-0.4,0.2-0.8,0.2-1.2v-0.7L311.4,217.3L311.4,217.3z M318,222h-1.4v-15.1h1.4V222z M323.3,209c0,0.3-0.1,0.5-0.3,0.7
	c-0.4,0.4-1,0.4-1.3,0c-0.4-0.4-0.4-0.9-0.1-1.3c0,0,0,0,0.1-0.1c0.4-0.4,1-0.4,1.3,0C323.2,208.5,323.3,208.7,323.3,209z M323,222
	h-1.4v-9.4h1.4V222z M332.9,213.6l-5.6,7.2h5.8v1.2h-7.6v-1l5.6-7.3h-5.3v-1.1h7.1L332.9,213.6L332.9,213.6z M344,217v0.3
	c0,0.1,0,0.2,0,0.3h-7.8c0,0.5,0.1,0.9,0.3,1.3c0.2,0.4,0.4,0.8,0.7,1.1c0.3,0.3,0.7,0.6,1.1,0.7c1,0.4,2.2,0.3,3.2-0.2
	c0.5-0.3,0.9-0.7,1.2-1.1l1,0.8c-0.5,0.6-1.1,1.2-1.9,1.5c-0.7,0.3-1.4,0.5-2.2,0.5c-0.7,0-1.3-0.1-1.9-0.4c-0.6-0.2-1.1-0.6-1.5-1
	c-0.4-0.5-0.8-1-1-1.6c-0.3-0.6-0.4-1.3-0.4-2c0-0.7,0.1-1.4,0.4-2c0.2-0.6,0.6-1.1,1-1.6c0.4-0.4,0.9-0.8,1.5-1
	c0.6-0.2,1.2-0.4,1.9-0.4c0.7,0,1.3,0.1,1.9,0.4c0.5,0.2,1,0.6,1.4,1c0.4,0.4,0.7,0.9,0.9,1.5C343.9,215.8,344,216.4,344,217z
	 M342.6,216.6c0-0.8-0.3-1.6-0.9-2.2c-0.6-0.6-1.4-0.9-2.2-0.9c-0.4,0-0.9,0.1-1.3,0.2c-0.8,0.3-1.4,0.9-1.7,1.7
	c-0.2,0.4-0.3,0.8-0.3,1.1H342.6z M354.6,220.4c-0.4,0.6-0.9,1.1-1.6,1.4c-0.6,0.3-1.3,0.5-2,0.5c-0.7,0-1.4-0.1-2-0.4
	c-0.6-0.2-1.1-0.6-1.5-1c-0.4-0.4-0.8-1-1-1.6c-0.5-1.3-0.5-2.6,0-3.9c0.2-0.6,0.6-1.1,1-1.6c0.4-0.4,1-0.8,1.5-1
	c0.6-0.3,1.3-0.4,2-0.4c0.7,0,1.4,0.2,2,0.5c0.6,0.3,1.2,0.8,1.6,1.4V207h1.4v15h-1.4L354.6,220.4L354.6,220.4z M347.7,217.3
	c0,0.5,0.1,1,0.2,1.5c0.1,0.4,0.4,0.8,0.7,1.2c0.3,0.3,0.7,0.6,1.1,0.8c0.5,0.2,1,0.3,1.5,0.3c1.5,0,2.8-0.9,3.3-2.3
	c0.4-1,0.4-2,0-3c-0.2-0.4-0.4-0.9-0.8-1.2c-0.3-0.3-0.7-0.6-1.1-0.8c-0.5-0.2-0.9-0.3-1.4-0.3c-0.5,0-1,0.1-1.5,0.3
	c-0.4,0.2-0.8,0.5-1.1,0.8c-0.3,0.4-0.5,0.8-0.7,1.2C347.7,216.3,347.7,216.8,347.7,217.3L347.7,217.3z M364.7,207.8h4.7
	c0.9,0,1.8,0.2,2.6,0.4c0.9,0.3,1.7,0.7,2.4,1.3c0.7,0.6,1.3,1.4,1.7,2.2c0.9,2,0.9,4.2,0,6.2c-0.4,0.8-1,1.6-1.7,2.2
	c-0.7,0.6-1.5,1-2.4,1.3c-0.9,0.3-1.7,0.4-2.6,0.4h-4.7V207.8L364.7,207.8z M366.2,220.7h2.8c1,0,1.9-0.1,2.8-0.5
	c0.7-0.3,1.4-0.7,2-1.3c0.5-0.5,0.9-1.2,1.2-1.9c0.5-1.4,0.5-2.9,0-4.3c-0.3-0.7-0.7-1.3-1.2-1.9c-0.6-0.6-1.3-1-2-1.3
	c-0.9-0.4-1.8-0.5-2.8-0.5h-2.9L366.2,220.7L366.2,220.7z M385.7,215.9c0.1-0.7-0.2-1.3-0.6-1.8c-0.5-0.4-1.2-0.6-1.9-0.6
	c-0.5,0-1.1,0.1-1.6,0.3c-0.5,0.2-0.9,0.5-1.2,0.8l-0.8-0.9c0.4-0.4,1-0.8,1.5-1c0.7-0.3,1.4-0.4,2.1-0.4c0.5,0,1,0.1,1.4,0.2
	c0.4,0.1,0.8,0.3,1.2,0.6c0.3,0.3,0.6,0.7,0.8,1.1c0.2,0.5,0.3,1,0.3,1.5v5.2c0,0.3,0.1,0.7,0.1,1h-1.2c0-0.2-0.1-0.5-0.1-0.7
	c0-0.3,0-0.5,0-0.8c-0.4,0.6-0.9,1-1.5,1.4c-0.6,0.3-1.3,0.4-2,0.4c-0.4,0-0.7-0.1-1.1-0.1c-0.4-0.1-0.7-0.3-1-0.5
	c-0.3-0.2-0.6-0.5-0.8-0.9c-0.2-0.4-0.3-0.9-0.3-1.3c0-0.6,0.2-1.2,0.5-1.7c0.4-0.4,0.9-0.8,1.5-0.9c0.7-0.2,1.4-0.4,2.1-0.4
	c0.8-0.1,1.6-0.1,2.5-0.1L385.7,215.9L385.7,215.9z M385.3,217.3c-0.6,0-1.1,0-1.7,0.1c-0.5,0-1,0.1-1.5,0.3
	c-0.4,0.1-0.8,0.3-1.1,0.6c-0.3,0.3-0.5,0.7-0.4,1.1c0,0.3,0.1,0.6,0.2,0.8c0.1,0.2,0.3,0.4,0.5,0.6c0.2,0.1,0.5,0.2,0.7,0.3
	c0.3,0.1,0.5,0.1,0.8,0.1c0.4,0,0.9-0.1,1.3-0.2c0.4-0.2,0.7-0.4,0.9-0.7c0.3-0.3,0.5-0.6,0.6-1c0.1-0.4,0.2-0.8,0.2-1.2v-0.7
	L385.3,217.3L385.3,217.3z M394.5,213.8h-2.6v5.5c0,0.3,0,0.6,0.1,0.9c0.1,0.2,0.2,0.4,0.3,0.5c0.1,0.1,0.3,0.2,0.5,0.3
	c0.2,0,0.4,0.1,0.6,0.1c0.2,0,0.4,0,0.6-0.1c0.2-0.1,0.4-0.1,0.6-0.2l0.1,1.2c-0.2,0.1-0.5,0.2-0.8,0.2c-0.3,0-0.6,0.1-0.9,0.1
	c-0.3,0-0.5,0-0.8-0.1c-0.3-0.1-0.6-0.2-0.8-0.4c-0.3-0.2-0.5-0.5-0.6-0.8c-0.2-0.4-0.2-0.8-0.2-1.3v-5.8h-1.9v-1.1h1.9V210h1.4v2.6
	h2.6V213.8L394.5,213.8z M402.5,215.9c0.1-0.7-0.2-1.3-0.6-1.8c-0.5-0.4-1.2-0.6-1.9-0.6c-0.5,0-1.1,0.1-1.6,0.3
	c-0.5,0.2-0.9,0.5-1.2,0.8l-0.8-0.9c0.4-0.4,1-0.8,1.5-1c0.7-0.3,1.4-0.4,2.1-0.4c0.5,0,1,0.1,1.4,0.2c0.4,0.1,0.8,0.3,1.2,0.6
	c0.3,0.3,0.6,0.7,0.8,1.1c0.2,0.5,0.3,1,0.3,1.5v5.2c0,0.3,0.1,0.7,0.1,1h-1.2c0-0.2-0.1-0.5-0.1-0.7c0-0.3,0-0.5,0-0.8
	c-0.4,0.6-0.9,1-1.5,1.4c-0.6,0.3-1.3,0.4-2,0.4c-0.4,0-0.7-0.1-1.1-0.1c-0.4-0.1-0.7-0.3-1-0.5c-0.3-0.2-0.6-0.5-0.8-0.9
	c-0.2-0.4-0.3-0.9-0.3-1.3c0-0.6,0.2-1.2,0.5-1.7c0.4-0.4,0.9-0.8,1.5-0.9c0.7-0.2,1.4-0.4,2.1-0.4c0.8-0.1,1.6-0.1,2.5-0.1
	L402.5,215.9L402.5,215.9z M402.1,217.3c-0.6,0-1.1,0-1.7,0.1c-0.5,0-1,0.1-1.5,0.3c-0.4,0.1-0.8,0.3-1.1,0.6
	c-0.3,0.3-0.5,0.7-0.4,1.1c0,0.3,0.1,0.6,0.2,0.8c0.1,0.2,0.3,0.4,0.5,0.6c0.2,0.1,0.5,0.2,0.7,0.3c0.3,0.1,0.5,0.1,0.8,0.1
	c0.4,0,0.9-0.1,1.3-0.2c0.4-0.2,0.7-0.4,0.9-0.7c0.3-0.3,0.5-0.6,0.6-1c0.1-0.4,0.2-0.8,0.2-1.2v-0.7L402.1,217.3L402.1,217.3z
	 M408.7,220.4v1.6h-1.4v-15.1h1.4v7.4c0.4-0.6,0.9-1.1,1.6-1.4c0.6-0.3,1.3-0.5,2-0.5c0.7,0,1.4,0.1,2,0.4c0.6,0.2,1.1,0.6,1.5,1
	c0.4,0.4,0.8,1,1,1.6c0.5,1.3,0.5,2.6,0,3.9c-0.2,0.6-0.6,1.1-1,1.6c-0.4,0.4-1,0.8-1.5,1c-0.6,0.3-1.3,0.4-2,0.4
	c-0.7,0-1.4-0.2-2-0.5C409.6,221.4,409.1,220.9,408.7,220.4L408.7,220.4z M415.7,217.3c0-0.5-0.1-1-0.2-1.5
	c-0.1-0.4-0.4-0.8-0.7-1.2c-0.3-0.3-0.7-0.6-1.1-0.8c-0.5-0.2-1-0.3-1.5-0.3c-0.5,0-1,0.1-1.4,0.3c-0.4,0.2-0.8,0.5-1.1,0.8
	c-0.3,0.3-0.6,0.8-0.8,1.2c-0.4,1-0.4,2,0,3c0.2,0.4,0.4,0.8,0.8,1.2c0.7,0.7,1.6,1.1,2.6,1.1c0.5,0,1-0.1,1.5-0.3
	c0.4-0.2,0.8-0.5,1.1-0.8c0.3-0.4,0.5-0.8,0.7-1.2C415.6,218.3,415.7,217.8,415.7,217.3L415.7,217.3z M425.9,215.9
	c0.1-0.7-0.2-1.3-0.6-1.8c-0.5-0.4-1.2-0.6-1.9-0.6c-0.5,0-1.1,0.1-1.6,0.3c-0.5,0.2-0.9,0.5-1.2,0.8l-0.8-0.9c0.4-0.4,1-0.8,1.5-1
	c0.7-0.3,1.4-0.4,2.1-0.4c0.5,0,1,0.1,1.4,0.2c0.4,0.1,0.8,0.3,1.2,0.6c0.3,0.3,0.6,0.7,0.8,1.1c0.2,0.5,0.3,1,0.3,1.5v5.2
	c0,0.3,0.1,0.7,0.1,1h-1.2c0-0.2-0.1-0.5-0.1-0.7c0-0.3,0-0.5,0-0.8c-0.4,0.6-0.9,1-1.5,1.4c-0.6,0.3-1.3,0.4-2,0.4
	c-0.4,0-0.7-0.1-1.1-0.1c-0.4-0.1-0.7-0.3-1-0.5c-0.3-0.2-0.6-0.5-0.8-0.9c-0.2-0.4-0.3-0.9-0.3-1.3c0-0.6,0.2-1.2,0.5-1.7
	c0.4-0.4,0.9-0.8,1.5-0.9c0.7-0.2,1.4-0.4,2.1-0.4c0.8-0.1,1.6-0.1,2.5-0.1L425.9,215.9L425.9,215.9z M425.5,217.3
	c-0.6,0-1.1,0-1.7,0.1c-0.5,0-1,0.1-1.5,0.3c-0.4,0.1-0.8,0.3-1.1,0.6c-0.3,0.3-0.5,0.7-0.4,1.1c0,0.3,0.1,0.6,0.2,0.8
	c0.1,0.2,0.3,0.4,0.5,0.6c0.2,0.1,0.5,0.2,0.7,0.3c0.3,0.1,0.5,0.1,0.8,0.1c0.4,0,0.9-0.1,1.3-0.2c0.4-0.2,0.7-0.4,0.9-0.7
	c0.3-0.3,0.5-0.6,0.6-1c0.1-0.4,0.2-0.8,0.2-1.2v-0.7L425.5,217.3L425.5,217.3z M435.7,214.9c-0.2-0.4-0.5-0.7-0.9-0.9
	c-0.4-0.3-0.9-0.4-1.4-0.4c-0.2,0-0.5,0-0.7,0.1c-0.2,0-0.4,0.1-0.6,0.3c-0.2,0.1-0.3,0.3-0.5,0.5c-0.1,0.2-0.2,0.4-0.2,0.7
	c0,0.4,0.2,0.8,0.5,1c0.5,0.3,1.1,0.5,1.7,0.6c0.9,0.1,1.7,0.5,2.5,1c0.5,0.4,0.8,1.1,0.8,1.8c0,0.9-0.4,1.7-1.1,2.2
	c-0.3,0.2-0.7,0.4-1.1,0.5c-0.4,0.1-0.8,0.1-1.3,0.1c-0.7,0-1.4-0.2-2.1-0.4c-0.7-0.3-1.2-0.8-1.6-1.4l1.1-0.8
	c0.6,0.9,1.5,1.5,2.6,1.5c0.3,0,0.6,0,0.8-0.1c0.2,0,0.5-0.1,0.7-0.3c0.2-0.1,0.4-0.3,0.5-0.5c0.1-0.2,0.2-0.5,0.2-0.8
	c0-0.5-0.3-0.9-0.7-1.1c-0.6-0.3-1.3-0.5-2-0.7c-0.3-0.1-0.6-0.2-0.9-0.2c-0.3-0.1-0.7-0.2-0.9-0.4c-0.3-0.2-0.5-0.4-0.7-0.7
	c-0.2-0.3-0.3-0.7-0.3-1.1c0-0.4,0.1-0.9,0.3-1.2c0.2-0.3,0.4-0.6,0.8-0.8c0.3-0.2,0.7-0.4,1.1-0.5c0.4-0.1,0.8-0.2,1.2-0.2
	c0.7,0,1.3,0.2,1.9,0.4c0.6,0.3,1.1,0.7,1.4,1.2L435.7,214.9z M448.1,217v0.3c0,0.1,0,0.2,0,0.3h-7.8c0,0.5,0.1,0.9,0.3,1.3
	c0.2,0.4,0.4,0.8,0.7,1.1c0.3,0.3,0.7,0.6,1.1,0.7c1,0.4,2.2,0.3,3.2-0.2c0.5-0.3,0.9-0.7,1.2-1.1l1,0.8c-0.5,0.6-1.1,1.2-1.9,1.5
	c-0.7,0.3-1.4,0.5-2.2,0.5c-0.7,0-1.3-0.1-1.9-0.4c-0.6-0.2-1.1-0.6-1.5-1c-0.4-0.5-0.8-1-1-1.6c-0.3-0.6-0.4-1.3-0.4-2
	c0-0.7,0.1-1.4,0.4-2c0.2-0.6,0.6-1.1,1-1.6c0.4-0.4,0.9-0.8,1.5-1c0.6-0.2,1.2-0.4,1.9-0.4c0.7,0,1.3,0.1,1.9,0.4
	c0.5,0.2,1,0.6,1.4,1c0.4,0.4,0.7,0.9,0.9,1.5C448,215.8,448.1,216.4,448.1,217L448.1,217z M446.7,216.6c0-0.8-0.3-1.6-0.9-2.2
	c-0.6-0.6-1.4-0.9-2.2-0.9c-0.4,0-0.9,0.1-1.3,0.2c-0.8,0.3-1.4,0.9-1.7,1.7c-0.2,0.4-0.3,0.8-0.3,1.1H446.7z"/>
<path class="st3" d="M196.3,194.3V300"/>
<path class="st4" d="M153.6,141.5h4.4c0.9,0,1.7,0.1,2.5,0.4c0.8,0.3,1.6,0.7,2.3,1.3c0.7,0.6,1.2,1.3,1.6,2.1c0.8,1.9,0.8,4,0,5.8
	c-0.4,0.8-0.9,1.5-1.6,2.1c-0.7,0.6-1.4,1-2.3,1.3c-0.8,0.3-1.6,0.4-2.5,0.4h-4.4L153.6,141.5L153.6,141.5z M154.9,153.6h2.7
	c0.9,0,1.8-0.1,2.6-0.5c0.7-0.3,1.3-0.7,1.9-1.2c0.5-0.5,0.9-1.1,1.1-1.8c0.5-1.3,0.5-2.7,0-4c-0.2-0.7-0.6-1.3-1.1-1.8
	c-0.5-0.5-1.2-1-1.9-1.2c-0.8-0.3-1.7-0.5-2.6-0.5h-2.7V153.6L154.9,153.6z M175.8,150.2v0.3c0,0.1,0,0.2,0,0.3h-7.3
	c0,0.4,0.1,0.9,0.3,1.2c0.2,0.4,0.4,0.7,0.7,1c0.3,0.3,0.6,0.5,1,0.7c1,0.4,2.1,0.3,3-0.2c0.4-0.3,0.8-0.6,1.1-1.1l1,0.8
	c-0.5,0.6-1.1,1.1-1.8,1.4c-0.6,0.3-1.3,0.4-2.1,0.4c-0.6,0-1.2-0.1-1.8-0.4c-0.5-0.2-1-0.6-1.4-1c-0.4-0.4-0.8-0.9-1-1.5
	c-0.2-0.6-0.4-1.2-0.4-1.9c0-0.6,0.1-1.3,0.3-1.9c0.2-0.5,0.5-1,0.9-1.5c0.4-0.4,0.9-0.8,1.4-1c0.6-0.2,1.2-0.4,1.8-0.4
	c0.6,0,1.3,0.1,1.8,0.4c0.5,0.2,1,0.5,1.3,0.9c0.4,0.4,0.6,0.9,0.8,1.4C175.8,148.9,175.8,149.5,175.8,150.2L175.8,150.2z
	 M174.5,149.7c0-0.8-0.3-1.5-0.8-2.1c-0.6-0.6-1.3-0.9-2.1-0.8c-0.4,0-0.8,0.1-1.2,0.2c-0.7,0.3-1.3,0.9-1.6,1.6
	c-0.2,0.3-0.3,0.7-0.3,1.1L174.5,149.7L174.5,149.7z M185,148c-0.2-0.4-0.6-0.6-0.9-0.8c-0.4-0.2-0.9-0.3-1.3-0.3
	c-0.5,0-1,0.1-1.4,0.3c-0.4,0.2-0.8,0.4-1.1,0.8c-0.3,0.3-0.5,0.7-0.7,1.1c-0.2,0.5-0.2,0.9-0.2,1.4c0,0.5,0.1,1,0.2,1.4
	c0.1,0.4,0.4,0.8,0.7,1.1c0.3,0.3,0.7,0.6,1.1,0.8c0.4,0.2,0.9,0.3,1.4,0.3c0.9,0,1.8-0.4,2.4-1.1l1,0.7c-0.4,0.5-0.9,0.8-1.4,1.1
	c-0.6,0.3-1.3,0.4-2,0.4c-0.7,0-1.3-0.1-1.9-0.4c-0.6-0.2-1.1-0.6-1.5-1c-0.4-0.4-0.8-0.9-1-1.5c-0.5-1.2-0.5-2.5,0-3.7
	c0.2-0.6,0.6-1.1,1-1.5c0.4-0.4,0.9-0.8,1.5-1c0.6-0.2,1.3-0.4,1.9-0.4c0.6,0,1.2,0.1,1.8,0.4c0.6,0.3,1.1,0.7,1.5,1.2L185,148z
	 M196.1,150.1v0.3c0,0.1,0,0.2,0,0.3h-7.3c0,0.4,0.1,0.9,0.2,1.2c0.2,0.4,0.4,0.7,0.7,1c0.3,0.3,0.6,0.5,1,0.7c1,0.4,2.1,0.3,3-0.2
	c0.4-0.3,0.8-0.6,1.1-1.1l1,0.8c-0.5,0.6-1.1,1.1-1.8,1.4c-0.6,0.3-1.3,0.4-2.1,0.4c-0.6,0-1.2-0.1-1.8-0.4c-0.5-0.2-1-0.6-1.4-1
	c-0.4-0.4-0.8-0.9-1-1.5c-0.2-0.6-0.4-1.2-0.4-1.9c0-0.6,0.1-1.3,0.3-1.9c0.2-0.5,0.5-1,0.9-1.5c0.4-0.4,0.9-0.8,1.4-1
	c0.6-0.2,1.2-0.4,1.8-0.4c0.6,0,1.3,0.1,1.8,0.4c0.5,0.2,1,0.5,1.3,0.9c0.4,0.4,0.6,0.9,0.8,1.4C196,148.9,196.1,149.5,196.1,150.1
	L196.1,150.1z M194.8,149.7c0-0.8-0.3-1.5-0.8-2.1c-0.6-0.6-1.3-0.9-2.1-0.8c-0.4,0-0.8,0.1-1.2,0.2c-0.7,0.3-1.3,0.9-1.6,1.6
	c-0.2,0.3-0.3,0.7-0.3,1.1L194.8,149.7L194.8,149.7z M200,146c0,0.2,0,0.5,0.1,0.8s0,0.5,0,0.7c0.3-0.5,0.7-1,1.2-1.3
	c0.5-0.3,1.2-0.5,1.8-0.5c0.9-0.1,1.9,0.3,2.5,1c0.6,0.8,0.9,1.7,0.8,2.6v5.4h-1.3v-4.9c0-0.4,0-0.9-0.1-1.3c-0.1-0.4-0.2-0.7-0.4-1
	c-0.2-0.3-0.4-0.5-0.7-0.6c-0.4-0.2-0.8-0.2-1.2-0.2c-0.3,0-0.7,0.1-1,0.2c-0.3,0.1-0.6,0.4-0.9,0.6c-0.3,0.3-0.5,0.7-0.6,1.1
	c-0.2,0.5-0.2,1-0.2,1.5v4.5h-1.3V147c0-0.4,0-0.7-0.1-1L200,146L200,146z M213.8,147.1h-2.5v5.2c0,0.3,0,0.5,0.1,0.8
	c0,0.2,0.1,0.4,0.3,0.5c0.1,0.1,0.3,0.2,0.4,0.2c0.2,0,0.4,0.1,0.5,0.1c0.2,0,0.4,0,0.6-0.1c0.2,0,0.4-0.1,0.6-0.2l0.1,1.1
	c-0.2,0.1-0.5,0.2-0.7,0.2c-0.3,0-0.5,0.1-0.8,0.1c-0.3,0-0.5,0-0.8-0.1c-0.3-0.1-0.5-0.2-0.7-0.4c-0.2-0.2-0.4-0.4-0.6-0.7
	c-0.2-0.4-0.2-0.8-0.2-1.2v-5.5h-1.8V146h1.8v-2.5h1.3v2.5h2.5L213.8,147.1L213.8,147.1z M215.8,147c0-0.4,0-0.7-0.1-1h1.3
	c0,0.2,0,0.5,0.1,0.8s0,0.5,0,0.7c0.3-0.5,0.6-1,1.1-1.3c0.5-0.3,1.1-0.5,1.7-0.5h0.4c0.1,0,0.3,0,0.4,0.1l-0.2,1.2
	c-0.1,0-0.3-0.1-0.4-0.1c-0.2,0-0.4,0-0.5,0c-0.3,0-0.7,0.1-1,0.2c-0.3,0.1-0.6,0.3-0.8,0.6c-0.3,0.3-0.4,0.6-0.6,1
	c-0.2,0.5-0.2,1-0.2,1.5v4.5h-1.3v-6.9C215.8,147.7,215.8,147.4,215.8,147L215.8,147z M228,149.1c0-0.6-0.2-1.3-0.6-1.7
	c-0.5-0.4-1.1-0.6-1.8-0.6c-0.5,0-1,0.1-1.5,0.3c-0.4,0.2-0.8,0.4-1.1,0.8l-0.7-0.9c0.4-0.4,0.9-0.7,1.4-0.9c0.6-0.2,1.3-0.4,2-0.4
	c0.5,0,0.9,0.1,1.3,0.2c0.4,0.1,0.8,0.3,1.1,0.6c0.3,0.3,0.6,0.6,0.7,1c0.2,0.5,0.3,0.9,0.3,1.4v4.9c0,0.3,0.1,0.6,0.1,0.9h-1.1
	c0-0.2-0.1-0.4-0.1-0.7c0-0.2,0-0.5,0-0.7c-0.3,0.5-0.8,1-1.4,1.3c-0.6,0.3-1.2,0.4-1.8,0.4c-0.3,0-0.7-0.1-1-0.1
	c-0.4-0.1-0.7-0.2-1-0.5c-0.3-0.2-0.6-0.5-0.7-0.8c-0.2-0.4-0.3-0.8-0.3-1.2c0-0.6,0.2-1.2,0.5-1.6c0.4-0.4,0.9-0.7,1.4-0.9
	c0.6-0.2,1.3-0.3,2-0.4c0.8-0.1,1.5-0.1,2.3-0.1L228,149.1L228,149.1z M227.6,150.4c-0.5,0-1.1,0-1.6,0.1c-0.5,0-1,0.1-1.4,0.3
	c-0.4,0.1-0.8,0.3-1.1,0.6c-0.3,0.3-0.4,0.6-0.4,1c0,0.3,0.1,0.5,0.2,0.8c0.1,0.2,0.3,0.4,0.5,0.5c0.2,0.1,0.4,0.2,0.7,0.3
	c0.2,0.1,0.5,0.1,0.8,0.1c0.4,0,0.8-0.1,1.2-0.2c0.3-0.1,0.6-0.4,0.9-0.6c0.2-0.3,0.4-0.6,0.6-0.9c0.1-0.4,0.2-0.7,0.2-1.1v-0.7
	L227.6,150.4L227.6,150.4z M233.8,154.8h-1.3v-14.3h1.3V154.8L233.8,154.8z M238.8,142.6c0,0.2-0.1,0.5-0.3,0.6
	c-0.3,0.3-0.9,0.3-1.2,0c-0.4-0.3-0.4-0.9,0-1.3c0,0,0,0,0,0c0.3-0.3,0.9-0.3,1.2,0C238.7,142.1,238.8,142.3,238.8,142.6
	L238.8,142.6z M238.5,154.8h-1.3V146h1.3V154.8L238.5,154.8z M247.8,146.9l-5.3,6.8h5.5v1.1h-7.2v-0.9l5.3-6.9h-5V146h6.7
	L247.8,146.9L247.8,146.9z M258.3,150.2v0.3c0,0.1,0,0.2,0,0.3H251c0,0.4,0.1,0.9,0.3,1.2c0.2,0.4,0.4,0.7,0.7,1
	c0.3,0.3,0.6,0.5,1,0.7c1,0.4,2.1,0.3,3-0.2c0.4-0.3,0.8-0.6,1.1-1.1l1,0.8c-0.5,0.6-1.1,1.1-1.8,1.4c-0.6,0.3-1.3,0.4-2.1,0.4
	c-0.6,0-1.2-0.1-1.8-0.4c-0.5-0.2-1-0.6-1.4-1c-0.4-0.4-0.8-0.9-1-1.5c-0.2-0.6-0.4-1.2-0.4-1.9c0-0.6,0.1-1.3,0.3-1.9
	c0.2-0.5,0.5-1,0.9-1.5c0.4-0.4,0.9-0.8,1.4-1c0.6-0.2,1.2-0.4,1.8-0.4c0.6,0,1.3,0.1,1.8,0.4c0.5,0.2,1,0.5,1.3,0.9
	c0.4,0.4,0.6,0.9,0.8,1.4C258.3,148.9,258.3,149.5,258.3,150.2L258.3,150.2z M257,149.7c0-0.8-0.3-1.5-0.8-2.1
	c-0.6-0.6-1.3-0.9-2.1-0.8c-0.4,0-0.8,0.1-1.2,0.2c-0.7,0.3-1.3,0.9-1.6,1.6c-0.2,0.3-0.3,0.7-0.3,1.1L257,149.7L257,149.7z
	 M268.4,153.3c-0.4,0.6-0.9,1-1.5,1.3c-0.6,0.3-1.2,0.4-1.9,0.4c-0.6,0-1.3-0.1-1.9-0.4c-0.5-0.2-1-0.6-1.4-1
	c-0.4-0.4-0.7-0.9-0.9-1.5c-0.4-1.2-0.4-2.5,0-3.7c0.2-0.5,0.5-1,0.9-1.5c0.4-0.4,0.9-0.8,1.4-1c0.6-0.2,1.2-0.4,1.9-0.4
	c0.6,0,1.3,0.2,1.9,0.4c0.6,0.3,1.1,0.7,1.5,1.3v-7h1.3v14.3h-1.3L268.4,153.3L268.4,153.3z M261.8,150.4c0,0.5,0.1,0.9,0.2,1.4
	c0.1,0.4,0.4,0.8,0.6,1.1c0.3,0.3,0.6,0.6,1,0.8c0.4,0.2,0.9,0.3,1.4,0.3c0.9,0,1.8-0.3,2.4-1c0.3-0.3,0.5-0.7,0.7-1.1
	c0.3-0.9,0.3-1.9,0-2.8c-0.2-0.4-0.4-0.8-0.7-1.1c-0.3-0.3-0.7-0.6-1.1-0.8c-0.4-0.2-0.9-0.3-1.4-0.3c-0.5,0-1,0.1-1.4,0.3
	c-0.4,0.2-0.7,0.4-1,0.8c-0.3,0.3-0.5,0.7-0.7,1.1C261.9,149.5,261.8,149.9,261.8,150.4L261.8,150.4z M38.4,219.5h4.5
	c0.9,0,1.7,0.1,2.5,0.4c0.8,0.3,1.6,0.7,2.3,1.3c0.7,0.6,1.2,1.3,1.6,2.1c0.8,1.9,0.8,4,0,5.9c-0.4,0.8-1,1.5-1.6,2.1
	c-0.7,0.6-1.4,1-2.3,1.3c-0.8,0.3-1.7,0.4-2.5,0.4h-4.5V219.5z M39.8,231.7h2.7c0.9,0,1.8-0.1,2.7-0.5c0.7-0.3,1.3-0.7,1.8-1.2
	c0.5-0.5,0.9-1.1,1.1-1.8c0.5-1.3,0.5-2.8,0-4.1c-0.2-0.7-0.6-1.3-1.1-1.8c-0.5-0.5-1.2-1-1.9-1.2c-0.8-0.3-1.7-0.5-2.7-0.5h-2.7
	L39.8,231.7L39.8,231.7z M60.8,228.2v0.3c0,0.1,0,0.2,0,0.3h-7.4c0,0.4,0.1,0.9,0.3,1.2c0.2,0.4,0.4,0.7,0.7,1
	c0.3,0.3,0.6,0.5,1,0.7c1,0.4,2.1,0.3,3-0.2c0.4-0.3,0.8-0.6,1.1-1.1l1,0.8c-0.5,0.6-1.1,1.1-1.8,1.4c-0.6,0.3-1.3,0.4-2.1,0.4
	c-0.6,0-1.2-0.1-1.8-0.4c-0.5-0.2-1-0.6-1.5-1c-0.4-0.4-0.8-0.9-1-1.5c-0.2-0.6-0.4-1.2-0.3-1.9c0-0.6,0.1-1.3,0.3-1.9
	c0.2-0.6,0.6-1.1,1-1.5c0.4-0.4,0.9-0.8,1.4-1c0.6-0.2,1.2-0.4,1.8-0.4c0.6,0,1.3,0.1,1.8,0.4c0.5,0.2,1,0.5,1.3,0.9
	c0.4,0.4,0.6,0.9,0.8,1.4C60.8,227,60.9,227.6,60.8,228.2L60.8,228.2z M59.5,227.8c0-0.8-0.3-1.5-0.8-2.1c-0.6-0.6-1.3-0.9-2.1-0.8
	c-0.4,0-0.8,0.1-1.2,0.2c-0.4,0.2-0.7,0.4-1,0.6c-0.3,0.3-0.5,0.6-0.7,0.9c-0.2,0.3-0.3,0.7-0.3,1.1L59.5,227.8L59.5,227.8z
	 M70,226.1c-0.2-0.4-0.6-0.6-0.9-0.8c-0.4-0.2-0.9-0.3-1.3-0.3c-0.5,0-1,0.1-1.4,0.3c-0.4,0.2-0.8,0.4-1.1,0.8
	c-0.3,0.3-0.5,0.7-0.7,1.1c-0.2,0.5-0.2,0.9-0.2,1.4c0,0.5,0.1,1,0.2,1.4c0.1,0.4,0.4,0.8,0.7,1.1c0.3,0.3,0.7,0.6,1.1,0.8
	c0.4,0.2,0.9,0.3,1.4,0.3c0.9,0,1.9-0.4,2.4-1.2l1,0.7c-0.4,0.5-0.9,0.9-1.4,1.1c-0.6,0.3-1.3,0.4-2,0.4c-0.7,0-1.4-0.1-2-0.4
	c-0.6-0.2-1.1-0.6-1.5-1c-0.4-0.4-0.8-0.9-1-1.5c-0.5-1.2-0.5-2.5,0-3.7c0.2-0.6,0.6-1.1,1-1.5c0.4-0.4,0.9-0.8,1.5-1
	c0.6-0.2,1.3-0.4,2-0.4c0.6,0,1.2,0.1,1.8,0.4c0.6,0.2,1.1,0.6,1.5,1.1L70,226.1z M81.2,228.2v0.3c0,0.1,0,0.2,0,0.3h-7.4
	c0,0.4,0.1,0.9,0.3,1.2c0.2,0.4,0.4,0.7,0.7,1c0.3,0.3,0.6,0.5,1,0.7c1,0.4,2.1,0.3,3-0.2c0.4-0.3,0.8-0.6,1.1-1.1l1,0.8
	c-0.5,0.6-1.1,1.1-1.8,1.4c-0.6,0.3-1.3,0.4-2.1,0.4c-0.6,0-1.2-0.1-1.8-0.4c-0.5-0.2-1-0.6-1.4-1c-0.4-0.4-0.8-0.9-1-1.5
	c-0.2-0.6-0.4-1.2-0.3-1.9c0-0.6,0.1-1.3,0.3-1.9c0.2-0.6,0.6-1.1,1-1.5c0.4-0.4,0.9-0.8,1.4-1c0.6-0.2,1.2-0.4,1.8-0.4
	c0.6,0,1.3,0.1,1.8,0.4c0.5,0.2,1,0.5,1.3,0.9c0.4,0.4,0.6,0.9,0.8,1.4C81.1,227,81.2,227.6,81.2,228.2L81.2,228.2z M79.9,227.8
	c0-0.8-0.3-1.5-0.8-2.1c-0.6-0.6-1.3-0.9-2.1-0.8c-0.4,0-0.8,0.1-1.2,0.2c-0.4,0.2-0.7,0.4-1,0.6c-0.3,0.3-0.5,0.6-0.7,0.9
	c-0.2,0.3-0.3,0.7-0.3,1.1L79.9,227.8L79.9,227.8z M85.1,224c0,0.2,0,0.5,0.1,0.8v0.7c0.3-0.5,0.7-1,1.2-1.3
	c0.6-0.3,1.2-0.5,1.8-0.5c1-0.1,1.9,0.3,2.5,1c0.6,0.8,0.9,1.7,0.8,2.7v5.4h-1.3V228c0-0.4,0-0.9-0.1-1.3c-0.1-0.4-0.2-0.7-0.4-1
	c-0.2-0.3-0.4-0.5-0.7-0.6c-0.4-0.2-0.8-0.2-1.2-0.2c-0.3,0-0.7,0.1-1,0.2c-0.3,0.1-0.6,0.4-0.9,0.6c-0.3,0.3-0.5,0.7-0.6,1.1
	c-0.2,0.5-0.2,1-0.2,1.6v4.6H84v-7.8c0-0.4,0-0.7-0.1-1L85.1,224L85.1,224z M99,225.1h-2.5v5.2c0,0.3,0,0.6,0.1,0.8
	c0.1,0.2,0.1,0.4,0.3,0.5c0.1,0.1,0.3,0.2,0.4,0.2c0.2,0,0.4,0.1,0.5,0.1c0.2,0,0.4,0,0.6-0.1c0.2,0,0.4-0.1,0.6-0.2l0.1,1.1
	c-0.2,0.1-0.5,0.2-0.7,0.2c-0.3,0-0.5,0.1-0.8,0.1c-0.3,0-0.5,0-0.8-0.1c-0.3-0.1-0.5-0.2-0.7-0.4c-0.2-0.2-0.4-0.4-0.6-0.7
	c-0.2-0.4-0.2-0.8-0.2-1.2v-5.6h-1.8V224h1.8v-2.5h1.3v2.5H99V225.1L99,225.1z M101,225.1c0-0.4,0-0.7-0.1-1h1.2
	c0,0.2,0,0.5,0.1,0.8v0.7c0.3-0.5,0.6-1,1.1-1.3c0.5-0.3,1.1-0.5,1.7-0.5h0.4c0.1,0,0.3,0,0.4,0.1l-0.2,1.2c-0.1,0-0.3-0.1-0.4-0.1
	c-0.2,0-0.4,0-0.5,0c-0.3,0-0.7,0.1-1,0.2c-0.3,0.1-0.6,0.3-0.8,0.6c-0.2,0.3-0.4,0.6-0.6,1c-0.2,0.5-0.2,1-0.2,1.5v4.6H101V225.1
	L101,225.1z M113.3,227.2c0.1-0.6-0.2-1.3-0.6-1.7c-0.5-0.4-1.1-0.6-1.8-0.6c-0.5,0-1,0.1-1.5,0.3c-0.4,0.2-0.8,0.4-1.2,0.8
	l-0.7-0.9c0.4-0.4,0.9-0.7,1.4-0.9c0.6-0.2,1.3-0.4,2-0.4c0.5,0,0.9,0.1,1.3,0.2c0.4,0.1,0.8,0.3,1.1,0.6c0.3,0.3,0.6,0.6,0.7,1
	c0.2,0.5,0.3,0.9,0.3,1.4v4.9c0,0.3,0.1,0.6,0.1,0.9h-1.2c0-0.2-0.1-0.4-0.1-0.7c0-0.2,0-0.5,0-0.7c-0.3,0.5-0.8,1-1.4,1.3
	c-0.9,0.4-1.9,0.5-2.9,0.2c-0.4-0.1-0.7-0.3-1-0.5c-0.3-0.2-0.6-0.5-0.7-0.8c-0.2-0.4-0.3-0.8-0.3-1.3c0-0.6,0.2-1.2,0.5-1.6
	c0.4-0.4,0.9-0.7,1.4-0.9c0.6-0.2,1.3-0.3,2-0.4c0.8-0.1,1.5-0.1,2.3-0.1L113.3,227.2L113.3,227.2z M112.9,228.5
	c-0.5,0-1.1,0-1.6,0.1c-0.5,0-1,0.1-1.5,0.3c-0.4,0.1-0.8,0.3-1.1,0.6c-0.3,0.3-0.4,0.6-0.4,1c0,0.3,0.1,0.6,0.2,0.8
	c0.1,0.2,0.3,0.4,0.5,0.5c0.2,0.1,0.4,0.2,0.7,0.3c0.2,0.1,0.5,0.1,0.8,0.1c0.4,0,0.8-0.1,1.2-0.2c0.3-0.2,0.6-0.4,0.9-0.6
	c0.2-0.3,0.4-0.6,0.6-0.9c0.1-0.4,0.2-0.7,0.2-1.1v-0.7L112.9,228.5L112.9,228.5z M119.1,232.9h-1.3v-14.4h1.3V232.9L119.1,232.9z
	 M124.2,220.6c0,0.2-0.1,0.5-0.3,0.6c-0.3,0.3-0.9,0.3-1.2,0c-0.4-0.3-0.4-0.9,0-1.3c0,0,0,0,0,0c0.3-0.3,0.9-0.3,1.2,0
	C124.1,220.1,124.2,220.4,124.2,220.6z M123.9,232.9h-1.3V224h1.3V232.9L123.9,232.9z M133.3,224.9l-5.3,6.9h5.5v1.1h-7.2V232
	l5.3-6.9h-5V224h6.8L133.3,224.9L133.3,224.9z M143.8,228.2v0.3c0,0.1,0,0.2,0,0.3h-7.4c0,0.4,0.1,0.9,0.3,1.2
	c0.2,0.4,0.4,0.7,0.7,1c0.3,0.3,0.6,0.5,1,0.7c1,0.4,2.1,0.3,3-0.2c0.4-0.3,0.8-0.6,1.1-1.1l1,0.8c-0.5,0.6-1.1,1.1-1.8,1.4
	c-0.6,0.3-1.3,0.4-2.1,0.4c-0.6,0-1.2-0.1-1.8-0.4c-0.5-0.2-1-0.6-1.4-1c-0.4-0.4-0.8-0.9-1-1.5c-0.2-0.6-0.4-1.2-0.4-1.9
	c0-0.6,0.1-1.3,0.3-1.9c0.2-0.6,0.6-1.1,1-1.5c0.4-0.4,0.9-0.8,1.4-1c0.6-0.2,1.2-0.4,1.8-0.4c0.6,0,1.3,0.1,1.8,0.4
	c0.5,0.2,1,0.5,1.3,0.9c0.4,0.4,0.6,0.9,0.8,1.4C143.8,227,143.8,227.6,143.8,228.2L143.8,228.2z M142.5,227.8
	c0-0.8-0.3-1.5-0.8-2.1c-0.6-0.6-1.3-0.9-2.1-0.8c-0.4,0-0.8,0.1-1.2,0.2c-0.4,0.2-0.7,0.4-1,0.6c-0.3,0.3-0.5,0.6-0.7,0.9
	c-0.2,0.3-0.3,0.7-0.3,1.1L142.5,227.8L142.5,227.8z M153.9,231.4c-0.4,0.6-0.9,1-1.5,1.3c-0.6,0.3-1.2,0.4-1.9,0.4
	c-0.6,0-1.3-0.1-1.9-0.4c-0.5-0.2-1-0.6-1.4-1c-0.4-0.4-0.7-0.9-0.9-1.5c-0.4-1.2-0.4-2.5,0-3.7c0.2-0.5,0.5-1.1,0.9-1.5
	c0.4-0.4,0.9-0.8,1.4-1c0.6-0.2,1.2-0.4,1.9-0.4c0.7,0,1.3,0.2,1.9,0.4c0.6,0.3,1.1,0.8,1.5,1.3v-7h1.3v14.4H154L153.9,231.4
	L153.9,231.4z M147.3,228.5c0,0.5,0.1,0.9,0.2,1.4c0.1,0.4,0.4,0.8,0.7,1.1c0.3,0.3,0.6,0.6,1.1,0.8c0.4,0.2,0.9,0.3,1.4,0.3
	c0.5,0,0.9-0.1,1.4-0.3c0.4-0.2,0.8-0.4,1.1-0.8c0.3-0.3,0.5-0.7,0.7-1.1c0.3-0.9,0.3-1.9,0-2.8c-0.2-0.4-0.4-0.8-0.7-1.1
	c-0.3-0.3-0.7-0.6-1.1-0.8c-0.4-0.2-0.9-0.3-1.4-0.3c-0.5,0-1,0.1-1.4,0.3c-0.4,0.2-0.8,0.4-1.1,0.8c-0.3,0.3-0.5,0.7-0.7,1.1
	C147.4,227.5,147.3,228,147.3,228.5L147.3,228.5z M39.8,255.7h-1.4v-13.4h8.1v1.2h-6.8v4.6h6.3v1.2h-6.3L39.8,255.7L39.8,255.7z
	 M50.3,243.4c0,0.3-0.1,0.5-0.3,0.7c-0.3,0.3-0.9,0.3-1.2,0c-0.4-0.3-0.4-0.9,0-1.3c0,0,0,0,0,0c0.3-0.3,0.9-0.3,1.2,0
	C50.2,242.9,50.3,243.2,50.3,243.4z M50,255.7h-1.3v-8.9H50V255.7z M54.8,255.7h-1.3v-14.4h1.3V255.7z M66.3,251v0.3
	c0,0.1,0,0.2,0,0.3H59c0,0.4,0.1,0.9,0.3,1.2c0.2,0.4,0.4,0.7,0.7,1c0.3,0.3,0.6,0.5,1,0.7c1,0.4,2.1,0.3,3-0.2
	c0.4-0.3,0.8-0.6,1.1-1.1l1,0.8c-0.5,0.6-1.1,1.1-1.8,1.4c-0.6,0.3-1.3,0.4-2.1,0.4c-0.6,0-1.2-0.1-1.8-0.4c-0.5-0.2-1-0.6-1.5-1
	c-0.4-0.4-0.8-0.9-1-1.5c-0.2-0.6-0.4-1.2-0.3-1.9c0-0.6,0.1-1.3,0.3-1.9c0.2-0.6,0.6-1.1,1-1.5c0.4-0.4,0.9-0.8,1.4-1
	c0.6-0.2,1.2-0.4,1.8-0.4c0.6,0,1.3,0.1,1.8,0.4c0.5,0.2,1,0.6,1.3,1c0.4,0.4,0.6,0.9,0.8,1.4C66.3,249.8,66.3,250.4,66.3,251
	L66.3,251z M65,250.6c0-0.8-0.3-1.5-0.8-2.1c-0.6-0.6-1.3-0.9-2.1-0.8c-0.4,0-0.8,0.1-1.2,0.2c-0.4,0.2-0.7,0.4-1,0.6
	c-0.3,0.3-0.5,0.6-0.7,0.9c-0.2,0.3-0.3,0.7-0.3,1.1L65,250.6L65,250.6z M80.4,244.4c-0.3-0.4-0.7-0.8-1.1-1
	c-0.5-0.3-1.1-0.4-1.7-0.4c-0.3,0-0.7,0.1-1,0.1c-0.3,0.1-0.7,0.3-0.9,0.5c-0.3,0.2-0.5,0.5-0.7,0.8c-0.2,0.3-0.3,0.7-0.3,1.1
	c0,0.4,0.1,0.7,0.2,1.1c0.2,0.3,0.4,0.5,0.7,0.7c0.3,0.2,0.6,0.4,0.9,0.5l1.1,0.4c0.5,0.1,0.9,0.3,1.4,0.5c0.5,0.2,0.9,0.4,1.3,0.7
	c0.4,0.3,0.7,0.7,0.9,1.1c0.3,0.5,0.4,1.1,0.4,1.7c0,0.6-0.1,1.2-0.4,1.7c-0.2,0.5-0.6,0.9-1,1.2c-0.4,0.3-0.9,0.6-1.4,0.7
	c-0.5,0.2-1.1,0.2-1.6,0.2c-0.4,0-0.8,0-1.2-0.1c-0.4-0.1-0.8-0.2-1.2-0.4c-0.4-0.2-0.7-0.4-1-0.6c-0.3-0.3-0.6-0.5-0.8-0.9l1.2-0.9
	c0.3,0.5,0.7,0.9,1.2,1.2c0.6,0.3,1.2,0.5,1.8,0.5c0.3,0,0.7-0.1,1-0.2c0.4-0.1,0.7-0.3,1-0.5c0.3-0.2,0.5-0.5,0.7-0.8
	c0.4-0.7,0.4-1.6,0-2.3c-0.2-0.3-0.4-0.6-0.7-0.8c-0.3-0.2-0.6-0.4-1-0.5l-1.4-0.4c-0.4-0.1-0.9-0.3-1.3-0.5
	c-0.4-0.2-0.8-0.4-1.2-0.7c-0.3-0.3-0.6-0.6-0.8-1.1c-0.4-1-0.4-2.2,0.1-3.2c0.2-0.5,0.6-0.9,1-1.2c0.4-0.3,0.9-0.5,1.4-0.7
	c0.5-0.1,1-0.2,1.5-0.2c0.8,0,1.6,0.1,2.3,0.5c0.6,0.3,1.1,0.7,1.5,1.1L80.4,244.4z M87.4,254.3l2.8-7.5h1.4L87.2,258
	c-0.2,0.6-0.6,1.2-1,1.6c-0.5,0.4-1.1,0.7-1.8,0.6c-0.4,0-0.8,0-1.2-0.1l0.1-1.2c0.3,0.1,0.7,0.2,1,0.1c0.4,0,0.7-0.1,1-0.4
	c0.3-0.3,0.5-0.7,0.7-1.2l0.7-1.9l-3.8-8.9h1.4L87.4,254.3z M98.3,248.9c-0.2-0.4-0.5-0.7-0.9-0.9c-0.4-0.2-0.9-0.4-1.3-0.4
	c-0.2,0-0.5,0-0.7,0.1c-0.2,0-0.4,0.1-0.6,0.2c-0.2,0.1-0.3,0.3-0.4,0.4c-0.1,0.2-0.2,0.4-0.2,0.6c0,0.4,0.2,0.8,0.5,1
	c0.5,0.3,1.1,0.5,1.6,0.6c0.8,0.1,1.6,0.4,2.3,0.9c0.5,0.4,0.8,1,0.8,1.7c0,0.4-0.1,0.9-0.3,1.3c-0.2,0.3-0.5,0.6-0.8,0.9
	c-0.3,0.2-0.7,0.4-1.1,0.5c-0.4,0.1-0.8,0.1-1.2,0.1c-0.7,0-1.4-0.1-2-0.4c-0.6-0.3-1.2-0.7-1.6-1.3l1-0.8c0.5,0.9,1.5,1.4,2.5,1.4
	c0.3,0,0.5,0,0.8-0.1c0.2,0,0.5-0.1,0.7-0.3c0.4-0.3,0.7-0.7,0.6-1.2c0-0.5-0.3-0.9-0.7-1.1c-0.6-0.3-1.3-0.5-1.9-0.7
	c-0.3-0.1-0.6-0.1-0.8-0.2c-0.3-0.1-0.6-0.2-0.8-0.4c-0.3-0.2-0.5-0.4-0.6-0.7c-0.2-0.3-0.3-0.7-0.2-1c0-0.4,0.1-0.8,0.3-1.2
	c0.2-0.3,0.4-0.6,0.7-0.8c0.3-0.2,0.6-0.4,1-0.5c0.4-0.1,0.8-0.2,1.2-0.1c0.6,0,1.2,0.1,1.8,0.4c0.5,0.2,1,0.7,1.3,1.2L98.3,248.9z
	 M106.1,247.9h-2.5v5.2c0,0.3,0,0.6,0.1,0.8c0,0.2,0.1,0.4,0.3,0.5c0.1,0.1,0.3,0.2,0.4,0.2c0.2,0,0.4,0.1,0.5,0.1
	c0.2,0,0.4,0,0.6-0.1c0.2-0.1,0.4-0.1,0.6-0.2l0.1,1.1c-0.2,0.1-0.5,0.2-0.7,0.2c-0.3,0-0.5,0.1-0.8,0.1c-0.3,0-0.5,0-0.8-0.1
	c-0.3-0.1-0.5-0.2-0.7-0.4c-0.2-0.2-0.4-0.4-0.6-0.7c-0.2-0.4-0.2-0.8-0.2-1.2v-5.6h-1.8v-1.1h1.8v-2.5h1.3v2.5h2.5
	C106.1,246.8,106.1,247.9,106.1,247.9z M116.2,251v0.3c0,0.1,0,0.2,0,0.3h-7.4c0,0.4,0.1,0.9,0.3,1.2c0.2,0.4,0.4,0.7,0.7,1
	c0.3,0.3,0.6,0.5,1,0.7c1,0.4,2.1,0.3,3-0.2c0.4-0.3,0.8-0.6,1.1-1.1l1,0.8c-0.5,0.6-1.1,1.1-1.8,1.4c-0.7,0.3-1.4,0.5-2.1,0.5
	c-0.6,0-1.2-0.1-1.8-0.4c-0.5-0.2-1-0.6-1.4-1c-0.4-0.4-0.8-0.9-1-1.5c-0.2-0.6-0.4-1.2-0.3-1.9c0-0.6,0.1-1.3,0.3-1.9
	c0.2-0.6,0.6-1.1,1-1.5c0.4-0.4,0.9-0.8,1.4-1c0.6-0.2,1.2-0.4,1.8-0.4c0.6,0,1.3,0.1,1.8,0.4c0.5,0.2,1,0.6,1.3,1
	c0.4,0.4,0.6,0.9,0.8,1.4C116.1,249.9,116.2,250.4,116.2,251L116.2,251z M114.9,250.6c0-0.8-0.3-1.5-0.8-2.1
	c-0.6-0.6-1.3-0.9-2.1-0.8c-0.4,0-0.8,0.1-1.2,0.2c-0.4,0.2-0.7,0.4-1,0.6c-0.3,0.3-0.5,0.6-0.7,0.9c-0.2,0.3-0.3,0.7-0.3,1.1
	L114.9,250.6L114.9,250.6z M121.4,247.1c0.5-0.3,1.1-0.5,1.8-0.5c0.3,0,0.5,0,0.8,0.1c0.3,0.1,0.5,0.2,0.8,0.3
	c0.3,0.2,0.5,0.4,0.7,0.6c0.2,0.3,0.4,0.6,0.5,0.9c0.3-0.6,0.7-1.1,1.2-1.4c0.6-0.3,1.2-0.5,1.9-0.5c1-0.1,1.9,0.3,2.5,1
	c0.6,0.8,0.9,1.7,0.8,2.7v5.4h-1.3v-4.9c0-0.8-0.1-1.6-0.5-2.3c-0.4-0.6-1.1-0.9-1.8-0.9c-0.4,0-0.8,0.1-1.2,0.3
	c-0.3,0.2-0.6,0.4-0.8,0.8c-0.2,0.3-0.3,0.7-0.4,1.1c-0.1,0.4-0.1,0.8-0.1,1.2v4.7H125v-5.2c0-0.4,0-0.8-0.1-1.2
	c0-0.3-0.2-0.6-0.3-0.9c-0.2-0.2-0.4-0.4-0.7-0.6c-0.3-0.1-0.7-0.2-1.1-0.2c-0.3,0-0.6,0.1-0.9,0.2c-0.3,0.1-0.6,0.4-0.8,0.6
	c-0.3,0.3-0.5,0.7-0.6,1.1c-0.2,0.5-0.2,1-0.2,1.6v4.6H119v-7.9c0-0.4,0-0.7-0.1-1h1.2c0,0.2,0,0.5,0.1,0.8s0,0.5,0,0.7
	C120.5,247.8,120.9,247.4,121.4,247.1L121.4,247.1z M140.4,248.9c-0.2-0.4-0.5-0.7-0.9-0.9c-0.4-0.2-0.9-0.4-1.3-0.4
	c-0.2,0-0.5,0-0.7,0.1c-0.2,0-0.4,0.1-0.6,0.2c-0.2,0.1-0.3,0.3-0.4,0.4c-0.1,0.2-0.2,0.4-0.2,0.6c0,0.4,0.2,0.8,0.5,1
	c0.5,0.3,1.1,0.5,1.6,0.6c0.8,0.1,1.6,0.4,2.3,0.9c0.5,0.4,0.8,1,0.8,1.7c0,0.4-0.1,0.9-0.3,1.3c-0.2,0.3-0.5,0.6-0.8,0.9
	c-0.3,0.2-0.7,0.4-1.1,0.5c-0.4,0.1-0.8,0.1-1.2,0.1c-0.7,0-1.4-0.1-2-0.4c-0.6-0.3-1.2-0.7-1.6-1.3l1-0.8c0.5,0.9,1.5,1.4,2.5,1.4
	c0.3,0,0.5,0,0.8-0.1c0.2,0,0.5-0.1,0.7-0.3c0.4-0.3,0.7-0.7,0.6-1.2c0-0.5-0.3-0.9-0.7-1.1c-0.6-0.3-1.3-0.5-1.9-0.7
	c-0.3-0.1-0.6-0.1-0.8-0.2c-0.3-0.1-0.6-0.2-0.8-0.4c-0.3-0.2-0.5-0.4-0.6-0.7c-0.2-0.3-0.3-0.7-0.2-1c0-0.4,0.1-0.8,0.3-1.2
	c0.2-0.3,0.4-0.6,0.7-0.8c0.3-0.2,0.6-0.4,1-0.5c0.4-0.1,0.8-0.2,1.2-0.1c0.6,0,1.2,0.1,1.8,0.4c0.5,0.2,1,0.7,1.3,1.2L140.4,248.9z
	"/>
<g>
	<g>
		<path class="st6" d="M407,280.3c-6.4,0-11.7-5.2-11.7-11.7c0-6.4,5.2-11.7,11.7-11.7c6.4,0,11.7,5.2,11.7,11.7
			C418.7,275.1,413.4,280.3,407,280.3z M407,258.2c-5.8,0-10.5,4.7-10.5,10.5s4.7,10.5,10.5,10.5s10.5-4.7,10.5-10.5
			C417.5,262.9,412.8,258.2,407,258.2z"/>
	</g>
	<g>
		<path class="st6" d="M401.8,263.4h2.2c0.9,0,1.5,0.2,2,0.7s0.7,1.1,0.7,2v4.9c0,1-0.2,1.7-0.7,2.2s-1.2,0.7-2,0.7h-2.1v-10.5
			H401.8z M403.3,272.5h0.7c0.4,0,0.7-0.1,0.9-0.3c0.2-0.2,0.3-0.5,0.3-1v-5c0-0.4-0.1-0.7-0.2-1c-0.2-0.2-0.5-0.3-0.9-0.3h-0.7
			L403.3,272.5L403.3,272.5z"/>
		<path class="st6" d="M408.1,263.4h2.2c0.5,0,0.9,0.1,1.2,0.2c0.3,0.1,0.6,0.3,0.8,0.6c0.2,0.2,0.4,0.5,0.5,0.8s0.1,0.6,0.1,1v0.4
			c0,0.3,0,0.5-0.1,0.7c0,0.2-0.1,0.4-0.2,0.5s-0.2,0.3-0.3,0.4c-0.1,0.1-0.3,0.2-0.4,0.3c0.4,0.2,0.6,0.4,0.8,0.7
			c0.2,0.3,0.2,0.8,0.2,1.3v0.6c0,0.9-0.2,1.6-0.7,2.1c-0.4,0.5-1.2,0.7-2.1,0.7h-2V263.4z M409.6,267.7h0.7c0.5,0,0.8-0.1,1-0.4
			c0.2-0.2,0.3-0.6,0.3-1.1s-0.1-0.8-0.3-1.1c-0.2-0.2-0.5-0.4-1-0.4h-0.6v3H409.6z M409.6,272.4h0.6c0.3,0,0.5,0,0.7-0.1
			s0.3-0.2,0.4-0.4c0.1-0.2,0.1-0.3,0.2-0.6c0-0.2,0-0.5,0-0.7c0-0.3,0-0.5,0-0.7s-0.1-0.4-0.2-0.5s-0.2-0.2-0.4-0.3
			c-0.2-0.1-0.4-0.1-0.7-0.1h-0.7v3.4H409.6z"/>
	</g>
	<g>
		<path class="st6" d="M306.7,278.9c-1,0.9-2.3,1.3-4.4,1.3h-4.1c-0.2,0-0.4-0.2-0.4-0.4v-22.6c0-0.2,0.2-0.4,0.4-0.4h4.2
			c2.1,0,3.3,0.4,4.3,1.3c1.1,1,1.4,2.3,1.4,4.7c0,1.6-0.2,3.1-1.5,4.3c-0.5,0.5-1.1,0.8-1.6,0.9c0.7,0.1,1.2,0.5,1.7,0.9
			c1.4,1.3,1.6,3,1.6,4.7C308.2,276.7,307.7,277.9,306.7,278.9z M302.3,258.7h-2.1c-0.2,0-0.4,0.2-0.4,0.4v7.9
			c0,0.2,0.2,0.4,0.4,0.4h2.1c2.3,0,3.6-1.2,3.6-4.3C305.9,259.6,304.6,258.7,302.3,258.7z M302.3,269.1h-2.1
			c-0.2,0-0.4,0.2-0.4,0.4v8.8c0,0.2,0.2,0.4,0.4,0.4h2.1c2.4,0,3.8-1,3.8-4.7C306.1,270.4,304.7,269.1,302.3,269.1z"/>
		<path class="st6" d="M311.7,279.9v-22.6c0-0.2,0.2-0.4,0.4-0.4h1.3c0.2,0,0.4,0.2,0.4,0.4v22.6c0,0.2-0.2,0.4-0.4,0.4H312
			C311.8,280.3,311.7,280.1,311.7,279.9z"/>
		<path class="st6" d="M322.8,280.5c-1.6,0-2.9-0.5-3.8-1.4c-1.6-1.6-1.8-3.4-1.8-10.5s0.2-9,1.8-10.5c0.9-0.9,2.1-1.4,3.8-1.4
			c1.6,0,2.8,0.5,3.7,1.3c1,0.9,1.5,2.3,1.6,3.9c0,0.2-0.2,0.4-0.4,0.4h-1.3c-0.2,0-0.4-0.2-0.4-0.4c-0.1-1.8-0.8-3.5-3.2-3.5
			c-1,0-1.7,0.3-2.2,0.9c-1,1.1-1.2,2.5-1.2,9.3s0.2,8.2,1.2,9.3c0.5,0.5,1.2,0.9,2.2,0.9c1.8,0,3.2-1.3,3.2-3.5v-5.4
			c0-0.2-0.2-0.4-0.4-0.4h-2.8v-1.6h4.9c0.2,0,0.4,0.2,0.4,0.4v7C328.1,278.8,325.6,280.5,322.8,280.5z"/>
		<path class="st6" d="M340.1,279.4c-0.9,0.7-2,1.1-3.5,1.1c-1.6,0-2.9-0.5-3.8-1.4c-1.6-1.6-1.8-3.4-1.8-10.5s0.2-9,1.8-10.5
			c0.9-0.9,2.1-1.4,3.8-1.4c1.6,0,2.8,0.5,3.6,1.2c1,0.9,1.5,2.4,1.6,4c0,0.2-0.2,0.4-0.4,0.4h-1.3c-0.2,0-0.4-0.2-0.4-0.3
			c0-1.1-0.3-2-1-2.7c-0.5-0.5-1.2-0.8-2.2-0.8s-1.7,0.3-2.2,0.9c-1,1.1-1.2,2.5-1.2,9.3s0.2,8.2,1.2,9.3c0.5,0.5,1.2,0.9,2.2,0.9
			s1.7-0.3,2.2-0.8c0.7-0.7,0.9-1.7,1-2.7c0-0.2,0.2-0.3,0.4-0.3h1.3c0.2,0,0.4,0.2,0.4,0.4C341.8,277,341.2,278.5,340.1,279.4z"/>
		<path class="st6" d="M353.3,279.9v-10.6H347v10.6c0,0.2-0.2,0.4-0.4,0.4h-1.3c-0.2,0-0.4-0.2-0.4-0.4v-22.6c0-0.2,0.2-0.4,0.4-0.4
			h1.3c0.2,0,0.4,0.2,0.4,0.4v10.2h6.3v-10.2c0-0.2,0.2-0.4,0.4-0.4h1.3c0.2,0,0.4,0.2,0.4,0.4v22.6c0,0.2-0.2,0.4-0.4,0.4h-1.3
			C353.5,280.3,353.3,280.1,353.3,279.9z"/>
		<path class="st6" d="M368,280l-1.3-5.8c0-0.2-0.2-0.3-0.4-0.3H361c-0.2,0-0.3,0.1-0.4,0.3l-1.2,5.8c0,0.2-0.2,0.3-0.4,0.3h-1.5
			c-0.3,0-0.4-0.2-0.4-0.4l5.5-22.6c0-0.2,0.2-0.3,0.4-0.3h1.3c0.2,0,0.3,0.1,0.4,0.3l5.4,22.6c0.1,0.2-0.1,0.4-0.4,0.4h-1.4
			C368.2,280.3,368,280.2,368,280z M363.7,260.5l-2.4,11.3c0,0.2,0.1,0.4,0.4,0.4h4.1c0.2,0,0.4-0.2,0.4-0.4L363.7,260.5z"/>
		<path class="st6" d="M372.1,279.9v-22.6c0-0.2,0.2-0.4,0.4-0.4h1.3c0.2,0,0.4,0.2,0.4,0.4v22.6c0,0.2-0.2,0.4-0.4,0.4h-1.3
			C372.3,280.3,372.1,280.1,372.1,279.9z"/>
		<path class="st6" d="M387.3,280l-7-17.9v17.8c0,0.2-0.2,0.4-0.4,0.4h-1.3c-0.2,0-0.4-0.2-0.4-0.4v-22.6c0-0.2,0.2-0.4,0.4-0.4h1.4
			c0.2,0,0.3,0.1,0.4,0.2l7,17.9v-17.8c0-0.2,0.2-0.4,0.4-0.4h1.3c0.2,0,0.4,0.2,0.4,0.4v22.6c0,0.2-0.2,0.4-0.4,0.4h-1.4
			C387.5,280.3,387.4,280.2,387.3,280z"/>
	</g>
</g>
</svg>
