<svg xmlns="http://www.w3.org/2000/svg" width="1188" height="281" viewBox="0 0 1188 281">
  <g fill="none" fill-rule="evenodd" opacity=".7">
    <polygon fill="#5D6F82" points="1188 73.5 0 73.5 0 0 1188 0" transform="translate(0 206)"/>
    <g transform="translate(46.883 .18)">
      <path fill="#093749" d="M51.0810302,279 C30.9357077,262.19217 20.8630464,253.788255 20.8630464,253.788255 C20.8630464,253.788255 44.3381201,253.819672 91.2882674,253.882507 L120.590004,279 L51.0810302,279 Z" opacity=".2" transform="matrix(-1 0 0 1 141.453 0)"/>
      <path fill="#E5E5E5" fill-rule="nonzero" d="M75.1538806,84.7543605 C75.1538806,79.6033735 79.3180687,75.4273256 84.4544271,75.4273256 C89.5907855,75.4273256 93.7549735,79.6033735 93.7549735,84.7543605 C93.7549735,89.9053475 89.5907855,94.0813953 84.4544271,94.0813953 C79.3180687,94.0813953 75.1538806,89.9053475 75.1538806,84.7543605"/>
      <path fill="#7DACBC" fill-rule="nonzero" d="M84.8418801,85.9709302 C65.6772747,85.9709302 50.1420765,101.550941 50.1420765,120.770128 C50.1420765,132.042948 55.4891276,142.062602 63.7756985,148.421512 L112.415301,99.6439491 C106.073884,91.3326425 96.0832514,85.9709302 84.8418801,85.9709302"/>
      <path fill="#E5E5E5" fill-rule="nonzero" d="M118.076503,120.592087 C118.076503,112.756207 115.456147,105.535444 111.048146,99.7587209 L63.0819672,147.86095 C68.8417261,152.281506 76.0430992,154.909884 83.8567256,154.909884 C102.755656,154.909884 118.076503,139.545402 118.076503,120.592087"/>
      <path fill="#7DACBC" fill-opacity=".6" fill-rule="nonzero" d="M121.146357,121.124727 C121.146357,112.563681 118.283182,104.672874 113.467228,98.3613554 L61.0601093,150.918296 C67.3537037,155.747965 75.2209775,158.619858 83.757711,158.619858 C104.407058,158.619858 121.146357,141.832322 121.146357,121.124727"/>
      <path fill="#FFF" fill-rule="nonzero" d="M129.395533,119.11444 C129.395533,108.833011 125.968136,99.3573472 120.204262,91.7767029 L57.4764356,154.897435 C65.0093981,160.697361 74.4261634,164.146195 84.6436856,164.146195 C109.360305,164.146195 129.395533,143.984521 129.395533,119.11444" opacity=".1"/>
      <path fill="#B7E8F8" fill-rule="nonzero" d="M84.705114,22.7093023 C75.4428211,22.7093023 67.9344262,30.239225 67.9344262,39.5275024 C67.9344262,44.8763559 70.4269578,49.6377564 74.3066373,52.7180233 L97.8579235,29.0997836 C94.786463,25.2084084 90.0386752,22.7093023 84.705114,22.7093023"/>
      <polygon fill="#FFF" fill-rule="nonzero" points="85.727 182.485 83.301 182.485 84.454 0 84.435 0 85.727 182.485"/>
      <path fill="#6594A4" fill-rule="nonzero" d="M101.476733,39.5128789 C101.476733,35.5670705 100.119952,31.9419664 97.8540816,29.0722355 L74.2754387,52.7190244 C77.1374705,54.9914435 80.7526988,56.3510008 84.685994,56.3510008 C93.9584747,56.3510008 101.476733,48.8121586 101.476733,39.5128789"/>
      <path stroke="#FFF" stroke-width=".1" d="M33.9672131,120.846212 C33.9672131,93.0743468 56.4165765,70.5610465 84.1095703,70.5610465 C111.802003,70.5610465 134.251366,93.0743468 134.251366,120.846212 C134.251366,148.617514 111.802003,171.130814 84.1095703,171.130814 C56.4165765,171.130814 33.9672131,148.617514 33.9672131,120.846212 Z"/>
      <path stroke="#124354" stroke-width=".29" d="M38.010929 253.857558L130.20765 253.857558M29.1147541 257.101744L83.3005464 257.101744"/>
      <path fill="#B8D6DD" fill-rule="nonzero" d="M84.9164001,181.845301 C84.10272,181.845301 83.29471,181.870919 82.4918033,181.914186 C85.2883682,182.066189 88.0168902,182.474378 90.6529873,183.121104 C110.108733,187.890705 124.549146,205.503731 124.549146,226.506373 C124.549146,231.082982 123.861913,235.49677 122.587809,239.654373 C121.07442,244.595334 118.731475,249.816142 115.71944,253.862162 L120.569201,253.862162 C123.581235,249.816142 125.923614,244.595334 127.437569,239.654373 C128.711106,235.49677 129.398907,231.082982 129.398907,226.506373 C129.398907,205.503731 114.957927,187.890705 95.502748,183.121104 C92.1096733,182.289355 88.5646359,181.845301 84.9164001,181.845301 Z"/>
      <path fill="#E6F9FF" fill-rule="nonzero" d="M115.762813,253.859513 C118.736437,249.709356 121.0505,244.863507 122.544311,239.79479 L43.3605784,239.79479 C44.8549491,244.863507 47.1684523,249.708688 50.1420765,253.858845 L115.762813,253.859513 Z" opacity=".6"/>
      <path fill="#E6F9FF" d="M90.9992495,183.150722 C88.4001606,182.509956 85.7099443,182.104607 82.9526403,181.953872 C80.1953363,182.104607 77.50512,182.509956 74.9054721,183.150722 C61.9374219,186.348344 51.231345,195.367062 45.6541218,207.309031 C42.9532833,213.153837 41.4857401,219.490369 41.4857401,226.1741 C41.4857401,230.712533 42.0277987,235.090069 43.2834566,239.212428 L122.725616,239.212428 C123.981833,235.090069 124.60509,230.712533 124.60509,226.1741 C124.60509,205.346648 110.181856,187.879974 90.9992495,183.150722 Z"/>
      <path fill="#E5E5E5" fill-rule="nonzero" d="M33.4577997,103.343483 C33.4577997,101.328206 35.0871565,99.6937738 37.0974236,99.6937738 C39.1071314,99.6937738 40.7364882,101.328206 40.7364882,103.343483 C40.7364882,105.35876 39.1071314,106.993192 37.0974236,106.993192 C35.0871565,106.993192 33.4577997,105.35876 33.4577997,103.343483"/>
      <path fill="#6594A4" fill-rule="nonzero" d="M102.760139,76.0732323 C102.760139,73.6091587 104.751151,71.6124764 107.208227,71.6124764 C109.664195,71.6124764 111.656314,73.6091587 111.656314,76.0732323 C111.656314,78.5373058 109.664195,80.5339881 107.208227,80.5339881 C104.751151,80.5339881 102.760139,78.5373058 102.760139,76.0732323"/>
      <g transform="translate(42.81 202.97)">
        <ellipse cx="12.59" cy="13.29" fill="#7DACBC" rx="3.313" ry="3.322"/>
        <ellipse cx="16.054" cy="4.244" fill="#7DACBC" rx="3.313" ry="3.322"/>
        <path fill="#124354" fill-rule="nonzero" d="M16.0050951,1.21764482 C14.3454471,1.21764482 12.99456,2.57245446 12.99456,4.23749051 C12.99456,5.90206353 14.3454471,7.25733619 16.0050951,7.25733619 C17.6647432,7.25733619 19.0147072,5.90206353 19.0147072,4.23749051 C19.0147072,2.57245446 17.6647432,1.21764482 16.0050951,1.21764482 M16.0050951,7.84676636 C14.0209942,7.84676636 12.4070372,6.22803276 12.4070372,4.23749051 C12.4070372,2.24741127 14.0209942,0.62775163 16.0050951,0.62775163 C17.9891961,0.62775163 19.6026915,2.24741127 19.6026915,4.23749051 C19.6026915,6.22803276 17.9891961,7.84676636 16.0050951,7.84676636"/>
        <polygon fill="#124354" fill-rule="nonzero" points="3.511 3.943 12.747 3.943 12.747 4.532 3.252 4.532"/>
        <path fill="#124354" fill-rule="nonzero" d="M12.5831698,10.3447835 C10.9235217,10.3447835 9.5735577,11.6995931 9.5735577,13.3646291 C9.5735577,15.0292022 10.9235217,16.3844748 12.5831698,16.3844748 C14.2428178,16.3844748 15.5937049,15.0292022 15.5937049,13.3646291 C15.5937049,11.6995931 14.2428178,10.3447835 12.5831698,10.3447835 M12.5831698,16.973905 C10.5990688,16.973905 8.98557338,15.3547084 8.98557338,13.3646291 C8.98557338,11.3736239 10.5990688,9.75489026 12.5831698,9.75489026 C14.5672707,9.75489026 16.1812277,11.3736239 16.1812277,13.3646291 C16.1812277,15.3547084 14.5672707,16.973905 12.5831698,16.973905"/>
        <polygon fill="#124354" fill-rule="nonzero" points=".308 13.07 9.325 13.07 9.325 13.659 .15 13.659"/>
      </g>
      <rect width="85.17" height="2.052" x=".169" y="222.261" fill="#BADDE5" fill-rule="nonzero" opacity=".703"/>
    </g>
    <g transform="translate(520.423 62.298)">
      <path fill="#093749" d="M39.995091,218 C26.0623942,203.988878 19.0960458,196.983316 19.0960458,196.983316 C19.0960458,196.983316 37.3281931,197.007702 73.7924877,197.056473 L93.9799205,218 L39.995091,218 Z" opacity=".2" transform="matrix(-1 0 0 1 113.076 0)"/>
      <path fill="#E5E5E5" fill-rule="nonzero" d="M58.6915076,70.5576771 C58.6915076,66.5596256 61.9256653,63.3182946 65.9148686,63.3182946 C69.904072,63.3182946 73.1382297,66.5596256 73.1382297,70.5576771 C73.1382297,74.5557286 69.904072,77.7970597 65.9148686,77.7970597 C61.9256653,77.7970597 58.6915076,74.5557286 58.6915076,70.5576771"/>
      <path fill="#39BA91" fill-rule="nonzero" d="M66.2157878,71.5019444 C51.3314082,71.5019444 39.2658434,83.5947113 39.2658434,98.5121046 C39.2658434,107.261751 43.4186833,115.038724 49.8545303,119.974332 L87.6309566,82.1145577 C82.7058326,75.6635548 74.9465096,71.5019444 66.2157878,71.5019444"/>
      <path fill="#074354" fill-rule="nonzero" d="M92.027785,98.3739142 C92.027785,92.2919241 89.9926602,86.6873703 86.5691423,82.2036403 L49.315737,119.53924 C53.7891106,122.970351 59.3821279,125.010424 65.4506579,125.010424 C80.1286981,125.010424 92.027785,113.084945 92.027785,98.3739142"/>
      <path fill="#7DACBC" fill-opacity=".6" fill-rule="nonzero" d="M94.4120176,98.7873346 C94.4120176,92.1424907 92.1883042,86.0178682 88.4479466,81.1190444 L47.7454411,121.912266 C52.6334233,125.660919 58.743619,127.890002 65.3737572,127.890002 C81.4112763,127.890002 94.4120176,114.859988 94.4120176,98.7873346"/>
      <path fill="#7DACBC" fill-rule="nonzero" d="M100.818822,97.2270061 C100.818822,89.2468495 98.1569001,81.8921053 93.6803301,76.0082221 L44.9621457,125.000762 C50.8126952,129.502501 58.1263188,132.179389 66.0618581,132.179389 C85.258264,132.179389 100.818822,116.530465 100.818822,97.2270061" opacity=".205"/>
      <g transform="translate(63.509)">
        <path fill="#A7C6D1" fill-rule="nonzero" d="M80.4202298,42.2250354 L50.6177648,23.0729927 L80.6601231,3.7660817 C82.2322813,2.76115871 81.3541003,0.703131473 79.3235745,0.703131473 L2.21499763,0.703131473 C1.03266612,0.703131473 0.0730927202,1.47403131 0.0730927202,2.42389003 L0.0730927202,43.7220954 C0.0730927202,44.6719541 1.03266612,45.4428539 2.21499763,45.4428539 L79.3235745,45.4428539 C79.3364259,45.4428539 79.3492773,45.4428539 79.3664126,45.4428539 C81.5554394,45.4428539 82.330809,43.0957393 80.4202298,42.2250354 Z"/>
        <path fill="#074354" d="M12.793697,19.7258861 C13.2238119,19.7258861 13.6117529,19.6455902 13.9575316,19.4849959 C14.3033102,19.3244016 14.5984827,19.1067573 14.8430578,18.8320565 C15.087633,18.5573557 15.2752783,18.240398 15.4059995,17.881174 C15.5367207,17.5219499 15.6020804,17.1394876 15.6020804,16.7337757 C15.6020804,16.3280638 15.5367207,15.9434884 15.4059995,15.5800382 C15.2752783,15.2165879 15.087633,14.8996302 14.8430578,14.6291556 C14.5984827,14.358681 14.3033102,14.1431498 13.9575316,13.9825555 C13.6117529,13.8219612 13.2238119,13.7416652 12.793697,13.7416652 L11.4274565,13.7416652 L11.4274565,19.7258861 L12.793697,19.7258861 Z M12.7683963,12.2963237 C13.4093518,12.2963237 13.9996968,12.4083155 14.5394488,12.6323023 C15.0792009,12.856289 15.540935,13.1647945 15.9246649,13.5578279 C16.3083949,13.9508614 16.6077841,14.4178457 16.8228416,14.9587949 C17.037899,15.4997441 17.1454262,16.0913985 17.1454262,16.7337757 C17.1454262,17.3761529 17.037899,17.9678072 16.8228416,18.5087564 C16.6077841,19.0497057 16.3083949,19.51669 15.9246649,19.9097234 C15.540935,20.3027568 15.0792009,20.6112623 14.5394488,20.8352491 C13.9996968,21.0592359 13.4093518,21.1712276 12.7683963,21.1712276 L9.90941143,21.1712276 L9.90941143,12.2963237 L12.7683963,12.2963237 Z M22.4838846,19.8780273 C22.9308667,19.8780273 23.3356747,19.7935053 23.6983206,19.6244586 C24.0609665,19.455412 24.3687892,19.2293155 24.621798,18.9461624 C24.8748068,18.6630093 25.0708856,18.3312603 25.2100405,17.9509053 C25.3491953,17.5705504 25.4187717,17.1648446 25.4187717,16.7337757 C25.4187717,16.3027068 25.3491953,15.8970009 25.2100405,15.516646 C25.0708856,15.1362911 24.8748068,14.804542 24.621798,14.5213889 C24.3687892,14.2382358 24.0609665,14.0121393 23.6983206,13.8430927 C23.3356747,13.6740461 22.9308667,13.589524 22.4838846,13.589524 C22.0369024,13.589524 21.6320944,13.6740461 21.2694485,13.8430927 C20.9068026,14.0121393 20.5989799,14.2382358 20.3459711,14.5213889 C20.0929624,14.804542 19.8968835,15.1362911 19.7577287,15.516646 C19.6185738,15.8970009 19.5489975,16.3027068 19.5489975,16.7337757 C19.5489975,17.1648446 19.6185738,17.5705504 19.7577287,17.9509053 C19.8968835,18.3312603 20.0929624,18.6630093 20.3459711,18.9461624 C20.5989799,19.2293155 20.9068026,19.455412 21.2694485,19.6244586 C21.6320944,19.7935053 22.0369024,19.8780273 22.4838846,19.8780273 Z M22.4838846,12.1441825 C23.1248401,12.1441825 23.7194018,12.2604004 24.2675875,12.4928395 C24.8157732,12.7252786 25.2901575,13.0464624 25.6907547,13.4564005 C26.091352,13.8663385 26.4033914,14.3502273 26.6268825,14.9080812 C26.8503736,15.4659351 26.9621175,16.0744938 26.9621175,16.7337757 C26.9621175,17.3930575 26.8503736,18.0016163 26.6268825,18.5594702 C26.4033914,19.1173241 26.091352,19.6012128 25.6907547,20.0111509 C25.2901575,20.421089 24.8157732,20.7422727 24.2675875,20.9747119 C23.7194018,21.207151 23.1248401,21.3233688 22.4838846,21.3233688 C21.8344954,21.3233688 21.2378253,21.207151 20.6938565,20.9747119 C20.1498876,20.7422727 19.6776116,20.421089 19.2770144,20.0111509 C18.8764172,19.6012128 18.5643777,19.1173241 18.3408866,18.5594702 C18.1173955,18.0016163 18.0056517,17.3930575 18.0056517,16.7337757 C18.0056517,16.0744938 18.1173955,15.4659351 18.3408866,14.9080812 C18.5643777,14.3502273 18.8764172,13.8663385 19.2770144,13.4564005 C19.6776116,13.0464624 20.1498876,12.7252786 20.6938565,12.4928395 C21.2378253,12.2604004 21.8344954,12.1441825 22.4838846,12.1441825 Z M29.6945986,12.2963237 L34.1222299,18.407329 L34.1222299,12.2963237 L35.640275,12.2963237 L35.640275,21.1712276 L34.2740344,21.1712276 L29.8464031,15.0729008 L29.8464031,21.1712276 L28.328358,21.1712276 L28.328358,12.2963237 L29.6945986,12.2963237 Z M37.0824178,12.2963237 L38.4233576,12.2963237 L38.4233576,15.4152185 L37.0824178,15.4152185 L37.0824178,12.2963237 Z M41.5480003,13.7416652 L39.1064778,13.7416652 L39.1064778,12.2963237 L45.5075678,12.2963237 L45.5075678,13.7416652 L43.0660453,13.7416652 L43.0660453,21.1712276 L41.5480003,21.1712276 L41.5480003,13.7416652 Z M9.65640392,24.9747578 L12.6671933,24.9747578 C13.1057418,24.9747578 13.506333,25.0466016 13.8689789,25.1902912 C14.2316248,25.3339808 14.5415559,25.5326076 14.7987815,25.7861776 C15.0560071,26.0397475 15.2541943,26.3398008 15.3933492,26.6863464 C15.532504,27.032892 15.6020804,27.4090151 15.6020804,27.814727 C15.6020804,28.220439 15.532504,28.5965621 15.3933492,28.9431077 C15.2541943,29.2896533 15.0560071,29.5897065 14.7987815,29.8432765 C14.5415559,30.0968464 14.2316248,30.2954733 13.8689789,30.4391629 C13.506333,30.5828525 13.1057418,30.6546963 12.6671933,30.6546963 L11.174449,30.6546963 L11.174449,33.8496617 L9.65640392,33.8496617 L9.65640392,24.9747578 Z M12.4774376,29.2093548 C13.0003224,29.2093548 13.3945885,29.0825717 13.6602477,28.8290018 C13.9259069,28.5754318 14.0587346,28.2373436 14.0587346,27.814727 C14.0587346,27.3921105 13.9259069,27.0540223 13.6602477,26.8004523 C13.3945885,26.5468824 13.0003224,26.4200993 12.4774376,26.4200993 L11.174449,26.4200993 L11.174449,29.2093548 L12.4774376,29.2093548 Z M18.8405765,30.3504139 L21.4971553,30.3504139 L20.1688659,26.8892014 L18.8405765,30.3504139 Z M19.397193,24.9747578 L20.9405388,24.9747578 L24.3814409,33.8496617 L22.8507455,33.8496617 L22.0411214,31.7450416 L18.2966103,31.7450416 L17.4869863,33.8496617 L15.9562909,33.8496617 L19.397193,24.9747578 Z M26.7597115,24.9747578 L31.1873428,31.085763 L31.1873428,24.9747578 L32.7053879,24.9747578 L32.7053879,33.8496617 L31.3391474,33.8496617 L26.911516,27.7513349 L26.911516,33.8496617 L25.3934709,33.8496617 L25.3934709,24.9747578 L26.7597115,24.9747578 Z M34.7547487,24.9747578 L36.2727938,24.9747578 L36.2727938,33.8496617 L34.7547487,33.8496617 L34.7547487,24.9747578 Z M42.3196732,32.5818182 C42.8509916,32.5818182 43.3211592,32.4698265 43.7301901,32.2458397 C44.1392209,32.021853 44.4618023,31.7703999 44.6979438,31.4914729 L45.7099738,32.4930692 C45.5497349,32.6874728 45.3557644,32.8734213 45.1280565,33.0509203 C44.9003486,33.2284193 44.6431269,33.3890112 44.3563836,33.5327008 C44.0696404,33.6763904 43.7533841,33.7904952 43.4076055,33.8750185 C43.0618268,33.9595418 42.6949696,34.0018029 42.3070228,34.0018029 C41.6660673,34.0018029 41.0715056,33.885585 40.5233199,33.6531459 C39.9751342,33.4207068 39.5007499,33.099523 39.1001527,32.6895849 C38.6995554,32.2796469 38.3854076,31.7957581 38.1576997,31.2379042 C37.9299918,30.6800503 37.8161396,30.0714916 37.8161396,29.4122097 C37.8161396,28.7529279 37.9299918,28.1443691 38.1576997,27.5865152 C38.3854076,27.0286613 38.6995554,26.5447726 39.1001527,26.1348345 C39.5007499,25.7248964 39.9751342,25.4037127 40.5233199,25.1712735 C41.0715056,24.9388344 41.6618505,24.8226166 42.2943725,24.8226166 C42.6907529,24.8226166 43.0576101,24.8648776 43.3949551,24.9494009 C43.7323001,25.0339243 44.0401229,25.1438029 44.3184325,25.2790402 C44.5967422,25.4142775 44.8413136,25.5643042 45.0521543,25.7291246 C45.2629949,25.8939451 45.4400984,26.05665 45.5834701,26.2172443 L44.5587896,27.2188406 C44.347949,26.9821754 44.0506682,26.760305 43.6669382,26.5532229 C43.2832082,26.3461407 42.8299076,26.2426012 42.3070228,26.2426012 C41.8684743,26.2426012 41.4678831,26.3271233 41.1052372,26.4961699 C40.7425913,26.6652165 40.4326602,26.8955391 40.1754346,27.1871446 C39.918209,27.47875 39.7179134,27.8147251 39.5745417,28.1950801 C39.4311701,28.575435 39.3594854,28.9811408 39.3594854,29.4122097 C39.3594854,29.8432786 39.4311701,30.2489845 39.5745417,30.6293394 C39.7179134,31.0096943 39.9203174,31.3456695 40.1817598,31.6372749 C40.4432022,31.9288804 40.7552416,32.1592029 41.1178875,32.3282496 C41.4805334,32.4972962 41.8811247,32.5818182 42.3196732,32.5818182 Z"/>
      </g>
      <polygon fill="#074354" fill-rule="nonzero" points="66.903 141.64 65.019 141.64 65.915 0 65.9 0 66.903 141.64"/>
      <path stroke="#074354" stroke-width=".1" d="M26.7034763,98.5711585 C26.7034763,77.0154169 44.1389956,59.5412254 65.6470322,59.5412254 C87.1546328,59.5412254 104.590152,77.0154169 104.590152,98.5711585 C104.590152,120.126463 87.1546328,137.600655 65.6470322,137.600655 C44.1389956,137.600655 26.7034763,120.126463 26.7034763,98.5711585 Z"/>
      <path stroke="#124354" stroke-width=".29" d="M29.8440681 197.037108L101.44956 197.037108M22.9347662 199.555154L65.0186959 199.555154"/>
      <path fill="#B8D6DD" fill-rule="nonzero" d="M66.2736646,141.143216 C65.6417118,141.143216 65.0141629,141.1631 64.3905775,141.196683 C66.5625572,141.314663 68.6816908,141.631488 70.7290415,142.133458 C85.839538,145.835489 97.0548275,159.506225 97.0548275,175.807886 C97.0548275,179.360121 96.5210806,182.78598 95.5315351,186.012994 C94.3561471,189.84803 92.5364755,193.900274 90.1971494,197.040681 L93.9637639,197.040681 C96.30309,193.900274 98.1223212,189.84803 99.2981496,186.012994 C100.287255,182.78598 100.821442,179.360121 100.821442,175.807886 C100.821442,159.506225 89.6057121,145.835489 74.495656,142.133458 C71.860391,141.487878 69.1071028,141.143216 66.2736646,141.143216 Z"/>
      <path fill="#43707D" fill-rule="nonzero" d="M90.2308351,197.038625 C92.5403296,193.81739 94.3375695,190.056177 95.4977524,186.121982 L33.998926,186.121982 C35.1595438,190.056177 36.9563488,193.816871 39.2658434,197.038107 L90.2308351,197.038625 Z" opacity=".6"/>
      <path fill="#074354" d="M70.9979695,142.156447 C68.9793615,141.659102 66.8899785,141.344482 64.7484911,141.227486 C62.6070038,141.344482 60.5176208,141.659102 58.4985786,142.156447 C48.4268147,144.638352 40.1118345,151.638427 35.7802292,160.907448 C33.6825963,165.444023 32.5428144,170.36226 32.5428144,175.549985 C32.5428144,179.072589 32.9638096,182.47031 33.9390286,185.669969 L95.6385646,185.669969 C96.6142179,182.47031 97.0982766,179.072589 97.0982766,175.549985 C97.0982766,159.384301 85.8963298,145.82716 70.9979695,142.156447 Z"/>
      <path fill="#E5E5E5" fill-rule="nonzero" d="M26.3078354,84.9860321 C26.3078354,83.4218309 27.5732914,82.1532302 29.1345852,82.1532302 C30.6954445,82.1532302 31.9609005,83.4218309 31.9609005,84.9860321 C31.9609005,86.5502333 30.6954445,87.818834 29.1345852,87.818834 C27.5732914,87.818834 26.3078354,86.5502333 26.3078354,84.9860321"/>
      <path fill="#39BA91" fill-rule="nonzero" d="M80.1321803,63.8196292 C80.1321803,61.9070845 81.6785192,60.3573158 83.5868313,60.3573158 C85.4942835,60.3573158 87.0414822,61.9070845 87.0414822,63.8196292 C87.0414822,65.7321739 85.4942835,67.2819426 83.5868313,67.2819426 C81.6785192,67.2819426 80.1321803,65.7321739 80.1321803,63.8196292"/>
      <ellipse cx="43.35" cy="167.855" fill="#7DACBC" rx="2.573" ry="2.579"/>
      <ellipse cx="46.04" cy="160.834" fill="#7DACBC" rx="2.573" ry="2.579"/>
      <path fill="#EAF3F5" fill-rule="nonzero" d="M46.0025022,158.485279 C44.7135202,158.485279 43.6643404,159.536844 43.6643404,160.829199 C43.6643404,162.121193 44.7135202,163.173118 46.0025022,163.173118 C47.2914842,163.173118 48.3399471,162.121193 48.3399471,160.829199 C48.3399471,159.536844 47.2914842,158.485279 46.0025022,158.485279 M46.0025022,163.630617 C44.4615306,163.630617 43.208035,162.374202 43.208035,160.829199 C43.208035,159.284555 44.4615306,158.027421 46.0025022,158.027421 C47.5434737,158.027421 48.7966109,159.284555 48.7966109,160.829199 C48.7966109,162.374202 47.5434737,163.630617 46.0025022,163.630617"/>
      <polygon fill="#EAF3F5" fill-rule="nonzero" points="36.299 160.6 43.472 160.6 43.472 161.178 36.098 161.178"/>
      <path fill="#EAF3F5" fill-rule="nonzero" d="M43.3448301,165.569508 C42.0558481,165.569508 41.0073853,166.621073 41.0073853,167.913427 C41.0073853,169.205422 42.0558481,170.257347 43.3448301,170.257347 C44.6338121,170.257347 45.6829919,169.205422 45.6829919,167.913427 C45.6829919,166.621073 44.6338121,165.569508 43.3448301,165.569508 M43.3448301,170.714846 C41.8038586,170.714846 40.5507214,169.458071 40.5507214,167.913427 C40.5507214,166.368065 41.8038586,165.111649 43.3448301,165.111649 C44.8858017,165.111649 46.1392973,166.368065 46.1392973,167.913427 C46.1392973,169.458071 44.8858017,170.714846 43.3448301,170.714846"/>
      <polygon fill="#EAF3F5" fill-rule="nonzero" points="33.811 167.684 40.815 167.684 40.815 168.263 33.688 168.263"/>
      <rect width="66.148" height="1.593" x=".454" y="172.513" fill="#BADDE5" fill-rule="nonzero" opacity=".703"/>
    </g>
    <g transform="translate(1036.045 147.59)">
      <path fill="#093749" d="M83.0419624,132.99208 L36.3001902,132.99208 L0.638500548,92.2157425 C0.638500548,92.2157425 47.9861629,92.511294 47.7685576,92.511294 L83.0419624,132.99208 Z" opacity=".2" transform="matrix(-1 0 0 1 83.68 0)"/>
      <path fill="#E6F9FF" fill-opacity=".05" stroke="#074354" stroke-width=".1" d="M1.06211069,65.8752176 C1.06211069,33.5674777 26.7703958,7.3772594 58.4836324,7.3772594 C90.1962391,7.3772594 115.905154,33.5674777 115.905154,65.8752176 C115.905154,98.1829575 90.1962391,124.373176 58.4836324,124.373176 C26.7703958,124.373176 1.06211069,98.1829575 1.06211069,65.8752176 Z"/>
      <path fill="#39BA91" fill-rule="nonzero" d="M59.4017535,29.0479589 C52.6774661,29.0479589 47.2260201,34.6018355 47.2260201,41.4520801 C47.2260201,45.3964763 49.0354151,48.9083286 51.8524762,51.1797371 L68.9505456,33.7613923 C66.720902,30.8912469 63.2736231,29.0479589 59.4017535,29.0479589"/>
      <path fill="#D2EAF1" fill-rule="nonzero" d="M71.344787,84.1176818 C71.344787,84.1176818 71.5102189,84.3914754 71.8410827,84.9390627 L79.0050502,78.4589987 C78.8336778,78.2384879 78.6191209,77.9753882 78.3613796,77.6696997 C73.6836512,81.9683544 71.344787,84.1176818 71.344787,84.1176818 Z"/>
      <path stroke="#A9CAD3" stroke-width=".2" d="M49.0363972,53.6743809 C51.7508012,55.8637017 55.1791236,57.1737604 58.9098523,57.1737604 C67.7048616,57.1737604 74.8342712,49.9106125 74.8342712,40.951263 C74.8342712,37.1502295 73.5477043,33.6579175 71.3986961,30.8922737"/>
      <rect width="1" height="73.312" x="58.541" y="3.689" fill="#074354" fill-rule="nonzero"/>
      <path fill="#B8D6DD" fill-rule="nonzero" d="M44.3374503,55.4319291 L72.6718976,26.5659944 C69.2329426,23.7923842 64.8885815,22.1317782 60.1614084,22.1317782 C49.0182412,22.1317782 39.9845116,31.3345325 39.9845116,42.6869155 C39.9845116,47.5027053 41.6145604,51.9285068 44.3374503,55.4319291 Z" opacity=".2"/>
      <path fill="#074354" fill-rule="nonzero" d="M71.5809183,41.4364169 C71.5809183,38.5286241 70.5964893,35.8563761 68.9525672,33.740583 L51.8426807,51.1712152 C53.9195405,52.8459546 56.5426158,53.848838 59.3972118,53.848838 C66.1259026,53.848838 71.5809183,48.2915613 71.5809183,41.4364169"/>
      <path stroke="#A9CAD3" stroke-width=".1" d="M73.0948493,24.6986426 C69.3841994,21.7056528 64.6970625,19.9141654 59.596504,19.9141654 C47.5730342,19.9141654 37.8263428,29.8435704 37.8263428,42.0924348 C37.8263428,47.2886095 39.5852873,52.0631818 42.5232023,55.8438231"/>
      <path fill="#074354" fill-rule="nonzero" d="M44.7368068,92.2217649 L63.6993437,92.2157425 L71.8787344,84.9006488 C69.4647141,80.531883 64.2807621,77.2870247 59.1508042,77.2870247 C51.2247866,77.2870247 44.7368068,83.9954266 44.7368068,92.2217649 Z"/>
      <path stroke="#074354" stroke-width=".1" d="M83.4296962,73.148864 C85.8446435,76.3188294 87.6622373,79.9644021 88.699016,83.8379835 C89.7622736,87.7051422 90.0144545,91.7887487 89.5435067,95.7699119 C89.0662544,99.7536441 87.8034586,103.637823 85.8522089,107.125395 C83.904742,110.615215 81.2770171,113.707786 78.1688876,116.17542 C75.0632799,118.646265 71.4763219,120.488641 67.6750101,121.55097 C63.8746441,122.613298 59.8684354,122.909068 55.9571097,122.413229 C52.044208,121.92606 48.2293415,120.639898 44.8022032,118.65333 C41.3706517,116.673828 38.3359698,113.988783 35.9140876,110.819781 C33.4912597,107.650779 31.6856445,103.993967 30.6447678,100.119743 C29.5991628,96.2464825 29.3230247,92.1644817 29.8050055,88.179786 C30.2854101,84.1944481 31.5513581,80.3093056 33.5054448,76.8226969 C35.4557488,73.3335191 38.0863108,70.2419117 41.1957012,67.7765257 C44.302885,65.3079284 47.8911039,63.4684429 51.6917852,62.4090045 C55.4921512,61.3386475 59.4955229,61.0762767 63.4065333,61.5493148 C67.3169133,62.0486863 71.1232686,63.3390238 74.5516679,65.3169203 C77.968719,67.3160121 80.9983572,69.9904596 83.4296962,73.148864" opacity=".503"/>
      <path fill="#FFF" fill-rule="nonzero" d="M44.2839943,64.0899411 C45.1589137,64.0899411 45.8682373,64.8125618 45.8682373,65.7038826 C45.8682373,66.5952034 45.1589137,67.317492 44.2839943,67.317492 C43.4090749,67.317492 42.7000773,66.5952034 42.7000773,65.7038826 C42.7000773,64.8125618 43.4090749,64.0899411 44.2839943,64.0899411 Z"/>
      <path fill="#B8D6DD" fill-rule="nonzero" d="M59.0061785,77.3583365 C66.6075956,77.3583365 71.3879912,84.0633396 71.3654499,84.1067908 L78.3828712,77.7005434 C77.3474461,76.3203048 75.7912005,74.5662391 74.4985679,73.4456719 C74.3139062,73.2858239 74.126732,73.1285857 73.9373594,72.9742834 C69.9416928,69.7202347 64.9077748,67.7785708 59.4366982,67.7785708 C58.4216865,67.7785708 57.4217491,67.8451197 56.4400268,67.9749555 C56.0477775,68.0264983 55.6583547,68.0884802 55.2717583,68.1602487 C54.6926489,68.2675752 54.1207626,68.3970847 53.5570417,68.5477985 C43.5975531,71.2097571 36.189726,80.4760482 35.9187003,91.5848322 C35.9136755,91.794592 35.9111631,92.0046779 35.9111631,92.2157425 L44.7918877,92.2157425 C44.7918877,84.0315246 51.4047615,77.3583365 59.0061785,77.3583365 Z"/>
      <path fill="#8EA9B1" fill-rule="nonzero" d="M63.6804631,92.2157425 L73.4764884,92.2157425 C74.2942508,92.2088632 77.4624108,92.2119147 82.9809683,92.2157425 C82.9809683,91.3831174 82.9532481,90.5601218 82.8721843,89.7486815 C82.8646142,89.6732509 82.8418667,89.5978203 82.8336657,89.5220688 C82.7500786,88.7603805 82.7497215,88.0092846 82.5983184,87.270707 C82.5819164,87.1917457 82.5714407,87.1129727 82.5532357,87.0344649 C81.888872,84.1694349 81.0914755,81.4697718 79.0006027,78.4510627 L63.6804631,92.2157425 Z"/>
      <path fill="#39BA91" fill-rule="nonzero" d="M59.0653281,4.53425517e-15 C57.0260923,4.53425517e-15 55.3727172,1.6843697 55.3727172,3.76151437 C55.3727172,4.81795462 55.8008596,5.77165437 56.4886436,6.45510198 L61.7090371,1.13684585 C61.038479,0.436168474 60.1017021,0 59.0653281,0"/>
      <path fill="#074354" fill-rule="nonzero" d="M59.0573508,7.51898257 C61.0976717,7.51898257 62.7521807,5.83345771 62.7521807,3.75456922 C62.7521807,2.7325262 62.3519519,1.80658908 61.7028728,1.12810066 L56.4788991,6.45000412 C57.1445891,7.11093166 58.0538012,7.51898257 59.0573508,7.51898257"/>
      <rect width="57.932" height="1.383" x="31.838" y="88.527" fill="#39BA91" fill-rule="nonzero"/>
    </g>
    <g transform="translate(933.103 113.719)">
      <path fill="#093749" d="M30.4637897,167 C18.9841128,156.266709 13.2442744,150.900063 13.2442744,150.900063 C13.2442744,150.900063 27.2443778,150.918744 55.2445847,150.956105 L71.9176669,167 L30.4637897,167 Z" opacity=".2" transform="matrix(-1 0 0 1 85.162 0)"/>
      <path fill="#E5E5E5" fill-rule="nonzero" d="M44.8203962,50.3941303 C44.8203962,47.3314028 47.3038416,44.8483647 50.3670716,44.8483647 C53.4303015,44.8483647 55.9137469,47.3314028 55.9137469,50.3941303 C55.9137469,53.4568578 53.4303015,55.9398958 50.3670716,55.9398958 C47.3038416,55.9398958 44.8203962,53.4568578 44.8203962,50.3941303"/>
      <path fill="#39BA91" fill-rule="nonzero" d="M50.5981414,51.117491 C39.1687222,51.117491 29.9038149,60.3812161 29.9038149,71.8087605 C29.9038149,78.5114711 33.0926981,84.469061 38.0346571,88.250008 L67.0424237,59.2473369 C63.2605189,54.3055137 57.3022891,51.117491 50.5981414,51.117491"/>
      <path fill="#074354" fill-rule="nonzero" d="M70.4186609,71.7028991 C70.4186609,67.0437599 68.855929,62.7503631 66.2270777,59.3155792 L37.6209284,87.9167034 C41.055943,90.5451235 45.3507098,92.1079319 50.0106134,92.1079319 C61.2815886,92.1079319 70.4186609,82.9723583 70.4186609,71.7028991"/>
      <path fill="#7DACBC" fill-opacity=".6" fill-rule="nonzero" d="M72.2494657,72.0196018 C72.2494657,66.9292856 70.5419203,62.2374876 67.6697741,58.484719 L36.4151294,89.7345719 C40.1685137,92.606247 44.8604116,94.3138472 49.9515629,94.3138472 C62.2664549,94.3138472 72.2494657,84.332139 72.2494657,72.0196018"/>
      <path fill="#7DACBC" fill-rule="nonzero" d="M77.1691231,70.8243043 C77.1691231,64.7110651 75.1250865,59.0769262 71.6876174,54.5695478 L34.2778922,92.10053 C38.7704128,95.5491102 44.386399,97.5997538 50.4799419,97.5997538 C65.2204803,97.5997538 77.1691231,85.6118161 77.1691231,70.8243043" opacity=".205"/>
      <path fill="#39BA91" fill-rule="nonzero" d="M50.5165766,13.5027335 C44.992715,13.5027335 40.514846,17.9799533 40.514846,23.502674 C40.514846,26.683051 42.0013461,29.5141341 44.3151158,31.3456313 L58.360671,17.3024524 C56.5289083,14.988678 53.6974147,13.5027335 50.5165766,13.5027335"/>
      <polygon fill="#074354" fill-rule="nonzero" points="51.126 108.504 49.679 108.504 50.367 0 50.355 0 51.126 108.504"/>
      <path fill="#074354" fill-rule="nonzero" d="M60.5188628,23.493979 C60.5188628,21.1478392 59.7097033,18.992387 58.3583798,17.2860725 L44.2965095,31.3462265 C46.0033728,32.6973852 48.1594287,33.5057649 50.5051738,33.5057649 C56.0351113,33.5057649 60.5188628,29.0232416 60.5188628,23.493979"/>
      <path stroke="#074354" stroke-width=".1" d="M20.257423,71.8539991 C20.257423,55.3411144 33.6458116,41.9549218 50.1614053,41.9549218 C66.6766642,41.9549218 80.0650528,55.3411144 80.0650528,71.8539991 C80.0650528,88.366549 66.6766642,101.752741 50.1614053,101.752741 C33.6458116,101.752741 20.257423,88.366549 20.257423,71.8539991 Z"/>
      <path fill="#B8D6DD" fill-rule="nonzero" d="M50.6425838,108.123473 C50.1573199,108.123473 49.6754376,108.138705 49.1965987,108.164431 C50.8644188,108.254811 52.4916593,108.497516 54.0637792,108.882053 C65.666829,111.718012 74.2788268,122.190548 74.2788268,134.678518 C74.2788268,137.399726 73.8689733,140.024122 73.1091209,142.496193 C72.2065638,145.434041 70.8092742,148.538283 69.0129522,150.944008 L71.9052606,150.944008 C73.7015826,148.538283 75.098534,145.434041 76.0014293,142.496193 C76.7609435,140.024122 77.1711352,137.399726 77.1711352,134.678518 C77.1711352,122.190548 68.5587992,111.718012 56.9560876,108.882053 C54.93252,108.387503 52.8183247,108.123473 50.6425838,108.123473 Z"/>
      <path fill="#43707D" fill-rule="nonzero" d="M69.0388187,150.942433 C70.8122337,148.474789 72.1922985,145.593494 73.0831798,142.579684 L25.8594538,142.579684 C26.7506691,145.593494 28.1304,148.474392 29.9038149,150.942036 L69.0388187,150.942433 Z" opacity=".6"/>
      <path fill="#074354" d="M54.2702836,108.899664 C52.7202347,108.51867 51.115839,108.277654 49.4714335,108.188028 C47.8270279,108.277654 46.2226323,108.51867 44.6722499,108.899664 C36.9383426,110.800939 30.5534347,116.163382 27.227281,123.263962 C25.6165505,126.739228 24.7413346,130.506869 24.7413346,134.480951 C24.7413346,137.17946 25.0646084,139.782301 25.8134598,142.233416 L73.1913068,142.233416 C73.9404915,139.782301 74.3121905,137.17946 74.3121905,134.480951 C74.3121905,122.097148 65.7104383,111.711631 54.2702836,108.899664 Z"/>
      <path fill="#E5E5E5" fill-rule="nonzero" d="M19.9536182,61.4470444 C19.9536182,60.2487802 20.9253367,59.2769622 22.1242231,59.2769622 C23.322776,59.2769622 24.2944945,60.2487802 24.2944945,61.4470444 C24.2944945,62.6453086 23.322776,63.6171266 22.1242231,63.6171266 C20.9253367,63.6171266 19.9536182,62.6453086 19.9536182,61.4470444"/>
      <path fill="#39BA91" fill-rule="nonzero" d="M61.2842625,45.2324146 C61.2842625,43.7673001 62.4716654,42.580092 63.9370203,42.580092 C65.401715,42.580092 66.5897781,43.7673001 66.5897781,45.2324146 C66.5897781,46.6975292 65.401715,47.8847373 63.9370203,47.8847373 C62.4716654,47.8847373 61.2842625,46.6975292 61.2842625,45.2324146"/>
      <g transform="translate(25.532 120.684)">
        <ellipse cx="7.508" cy="7.902" fill="#7DACBC" rx="1.976" ry="1.976"/>
        <ellipse cx="9.574" cy="2.523" fill="#7DACBC" rx="1.976" ry="1.976"/>
        <path fill="#EAF3F5" fill-rule="nonzero" d="M9.54514523,0.723999939 C8.55536156,0.723999939 7.74971729,1.52955676 7.74971729,2.51957123 C7.74971729,3.5093104 8.55536156,4.31514253 9.54514523,4.31514253 C10.5349289,4.31514253 11.3400227,3.5093104 11.3400227,2.51957123 C11.3400227,1.52955676 10.5349289,0.723999939 9.54514523,0.723999939 M9.54514523,4.66561206 C8.36186381,4.66561206 7.39932947,3.70312858 7.39932947,2.51957123 C7.39932947,1.3362892 8.36186381,0.373255101 9.54514523,0.373255101 C10.7284266,0.373255101 11.6906857,1.3362892 11.6906857,2.51957123 C11.6906857,3.70312858 10.7284266,4.66561206 9.54514523,4.66561206"/>
        <polygon fill="#EAF3F5" fill-rule="nonzero" points="2.094 2.344 7.602 2.344 7.602 2.787 1.94 2.787"/>
        <path fill="#EAF3F5" fill-rule="nonzero" d="M7.50437169,6.15090907 C6.51458803,6.15090907 5.70949425,6.9564659 5.70949425,7.94648037 C5.70949425,8.93621953 6.51458803,9.74205167 7.50437169,9.74205167 C8.49415536,9.74205167 9.29979963,8.93621953 9.29979963,7.94648037 C9.29979963,6.9564659 8.49415536,6.15090907 7.50437169,6.15090907 M7.50437169,10.0925212 C6.32109028,10.0925212 5.35883118,9.1297624 5.35883118,7.94648037 C5.35883118,6.76264772 6.32109028,5.80016424 7.50437169,5.80016424 C8.68765311,5.80016424 9.65018745,6.76264772 9.65018745,7.94648037 C9.65018745,9.1297624 8.68765311,10.0925212 7.50437169,10.0925212"/>
        <polygon fill="#EAF3F5" fill-rule="nonzero" points=".184 7.771 5.561 7.771 5.561 8.214 .089 8.214"/>
      </g>
      <rect width="50.794" height="1.22" x=".101" y="132.154" fill="#BADDE5" fill-rule="nonzero" opacity=".703"/>
    </g>
    <g transform="translate(195.627 117.452)">
      <path fill="#093749" d="M108.461987,162.36078 L48.2828201,162.36078 L0.212926167,116.955017 C0.212926167,116.955017 61.1721659,117.329858 60.8920031,117.329858 L108.461987,162.36078 Z" opacity=".2" transform="matrix(-1 0 0 1 108.675 0)"/>
      <path fill="#E6F9FF" fill-opacity=".05" stroke="#E6F9FF" stroke-width=".1" d="M2.91444432,83.5479605 C2.91444432,42.5728279 36.013386,9.35640138 76.8435917,9.35640138 C117.672986,9.35640138 150.772739,42.5728279 150.772739,83.5479605 C150.772739,124.523093 117.672986,157.73952 76.8435917,157.73952 C36.013386,157.73952 2.91444432,124.523093 2.91444432,83.5479605 Z"/>
      <path fill="#A1D1E1" fill-rule="nonzero" d="M78.0256556,36.8408304 C69.3682599,36.8408304 62.3496241,43.8846792 62.3496241,52.5726803 C62.3496241,57.5752635 64.6791867,62.0292616 68.3061008,64.9100346 L90.3195489,42.8187651 C87.448924,39.1786285 83.0106161,36.8408304 78.0256556,36.8408304"/>
      <path fill="#D2EAF1" fill-rule="nonzero" d="M93.4020904,106.684441 C93.4020904,106.684441 93.6150809,107.031687 94.041062,107.726179 L103.264538,99.5076687 C103.043899,99.228 102.767661,98.894317 102.435824,98.5066197 C96.4133348,103.9585 93.4020904,106.684441 93.4020904,106.684441 Z"/>
      <path stroke="#A9CAD3" stroke-width=".2" d="M64.6804511,68.0739316 C68.175196,70.8505947 72.5890977,72.5121107 77.3923419,72.5121107 C88.7157538,72.5121107 97.8947368,63.3004342 97.8947368,51.9375059 C97.8947368,47.1167462 96.2383057,42.6875306 93.4714974,39.1799308"/>
      <rect width="1.165" height="92.979" x="76.917" y="4.678" fill="#E5E5E5" fill-rule="nonzero"/>
      <path fill="#FFF" fill-rule="nonzero" d="M53.0263158,54.1387924 C53.0263158,60.2465433 55.1249734,65.8596812 58.6306438,70.3029879 L95.1107208,33.6930143 C90.6831299,30.175311 85.0898453,28.0692042 79.0036972,28.0692042 C64.6570756,28.0692042 53.0263158,39.7408369 53.0263158,54.1387924" opacity=".2"/>
      <path fill="#FFF" fill-rule="nonzero" d="M93.7061052,52.552815 C93.7061052,48.864931 92.4386709,45.4757829 90.3221516,42.7923732 L68.2934892,64.8992265 C70.9674078,67.0232584 74.3445687,68.2951914 78.0198083,68.2951914 C86.6828732,68.2951914 93.7061052,61.2470304 93.7061052,52.552815"/>
      <path stroke="#A9CAD3" stroke-width=".1" d="M95.6552633,31.3246967 C90.8778701,27.5287595 84.8432681,25.256659 78.2763933,25.256659 C62.7963983,25.256659 50.2477134,37.8498855 50.2477134,53.3848268 C50.2477134,59.9750107 52.5123219,66.0304864 56.2948331,70.8253832"/>
      <path fill="#EBFAFF" fill-rule="nonzero" d="M59.144808,116.962655 L83.5587236,116.955017 L94.0895379,107.677459 C90.9815314,102.136658 84.3072891,98.0212821 77.702563,98.0212821 C67.497962,98.0212821 59.144808,106.529388 59.144808,116.962655 Z"/>
      <path stroke="#A9CAD3" stroke-width=".1" d="M108.961188,92.772952 C112.070388,96.7933432 114.410506,101.416936 115.745339,106.329706 C117.114264,111.234331 117.438942,116.413471 116.832606,121.462685 C116.218152,126.515157 114.592326,131.441369 112.080128,135.864573 C109.5728,140.290628 106.189653,144.212861 102.187994,147.342502 C98.1895812,150.476216 93.5714392,152.812857 88.6773206,154.160183 C83.7844196,155.507509 78.6264999,155.882626 73.5907405,155.253766 C68.5529518,154.635902 63.6413818,153.004693 59.2290046,150.485177 C54.8109455,147.974621 50.9038487,144.569243 47.7857201,140.550074 C44.666374,136.530904 42.3416778,131.893057 41.0015684,126.979472 C39.6553712,122.067108 39.2998486,116.890004 39.9203898,111.83631 C40.5389019,106.781802 42.1687866,101.854369 44.6846371,97.4323863 C47.1956174,93.0071456 50.5824173,89.086134 54.5856999,85.9593441 C58.5861416,82.8284812 63.2059071,80.4955058 68.099214,79.1518455 C72.992115,77.7943373 78.146382,77.4615787 83.1817356,78.0615216 C88.2162775,78.6948625 93.1168896,80.3313666 97.5308903,82.8398854 C101.93028,85.3752856 105.830884,88.7672234 108.961188,92.772952" opacity=".503"/>
      <path fill="#FFF" fill-rule="nonzero" d="M58.5618202,81.283737 C59.6882627,81.283737 60.6015038,82.2002196 60.6015038,83.3306604 C60.6015038,84.4611012 59.6882627,85.3771626 58.5618202,85.3771626 C57.4353777,85.3771626 56.5225564,84.4611012 56.5225564,83.3306604 C56.5225564,82.2002196 57.4353777,81.283737 58.5618202,81.283737 Z"/>
      <path fill="#D9F1F8" fill-rule="nonzero" d="M77.5163602,98.1117252 C87.3030441,98.1117252 93.457715,106.61552 93.4286935,106.670628 L102.463494,98.5457379 C101.130403,96.7952144 99.1267656,94.5705748 97.4625251,93.1493864 C97.2247764,92.946655 96.9837931,92.7472335 96.7399795,92.5515356 C91.5956326,88.4245036 85.1145562,85.9619377 78.0706463,85.9619377 C76.7638375,85.9619377 75.4764367,86.0463402 74.2124873,86.2110077 C73.7074736,86.2763783 73.2060989,86.3549884 72.7083632,86.4460106 C71.9627705,86.5821303 71.2264776,86.7463841 70.5006973,86.9375309 C57.6780398,90.3136292 48.1405995,102.065844 47.7916589,116.154849 C47.7851896,116.420882 47.7819549,116.687329 47.7819549,116.955017 L59.2157236,116.955017 C59.2157236,106.57517 67.7296763,98.1117252 77.5163602,98.1117252 Z"/>
      <path fill="#E6F5FA" fill-rule="nonzero" d="M83.5344151,116.955017 L96.1466165,116.955017 C97.1994706,116.946292 101.278418,116.950163 108.383459,116.955017 C108.383459,115.899019 108.347769,114.855233 108.243401,113.826103 C108.233655,113.730436 108.204368,113.634769 108.193809,113.538695 C108.086192,112.572664 108.085733,111.620068 107.890804,110.683347 C107.869687,110.583202 107.856199,110.483297 107.832761,110.383727 C106.977405,106.750078 105.950772,103.32616 103.258812,99.4976036 L83.5344151,116.955017 Z"/>
      <path fill="#A1D1E1" fill-rule="nonzero" d="M77.5925142,5.75068722e-15 C74.9670358,5.75068722e-15 72.8383459,2.13624574 72.8383459,4.77063857 C72.8383459,6.11049643 73.3895713,7.32005099 74.2750805,8.18685121 L80.9962406,1.44183436 C80.1329094,0.553182028 78.9268265,0 77.5925142,0"/>
      <path fill="#FFF" fill-rule="nonzero" d="M77.5822435,9.53614548 C80.2091189,9.53614548 82.3392687,7.39843468 82.3392687,4.7618302 C82.3392687,3.46559753 81.8239815,2.29125365 80.9883042,1.43074305 L74.2625347,8.18038572 C75.1195982,9.01862429 76.290192,9.53614548 77.5822435,9.53614548"/>
      <rect width="74.586" height="1.754" x="42.538" y="112.277" fill="#7DACBC" fill-rule="nonzero"/>
      <path stroke="#124354" stroke-width=".35" d="M23.3082707,126.896194 L124.116541,126.896194"/>
      <path stroke="#124354" stroke-width=".2" d="M48.9473684,110.522491 L108.966165,110.522491"/>
    </g>
    <g transform="translate(765.707 179.743)">
      <path fill="#093749" d="M65.9489024,100 L45.5613626,70.8333333 C45.1063169,70.8333333 116.914626,70.8333333 116.627558,70.8333333 L136.677785,100 L65.9489024,100 Z" opacity=".2" transform="matrix(-1 0 0 1 182.237 0)"/>
      <path fill="#E6F9FF" fill-rule="nonzero" d="M98.7835082,0 C95.9863131,0.150145643 93.2577378,0.556617275 90.6210716,1.19867655 C71.1633896,5.93655965 56.7216117,23.4347486 56.7216117,44.2991863 C56.7216117,54.2490312 60.0057999,63.4344605 65.5519484,70.8347328 L132.014652,70.8347328 C137.560801,63.4344605 140.845405,54.2490312 140.845405,44.2991863 C140.845405,23.4347486 126.403211,5.93655965 106.945529,1.19867655 C104.308863,0.556617275 101.580287,0.150145643 98.7835082,0 Z"/>
      <g fill="#BADDE5" fill-rule="nonzero" opacity=".7" transform="matrix(-1 0 0 1 80.604 70.833)">
        <path d="M79.5844472 6.16823708L19.7616508 6.16823708C19.3998369 6.16823708 19.1062271 5.87582637 19.1062271 5.51414957L19.1062271 3.63069276C19.1062271 3.26901596 19.3998369 2.97619048 19.7616508 2.97619048L79.5844472 2.97619048C79.9466769 2.97619048 80.2402867 3.26901596 80.2402867 3.63069276L80.2402867 5.51414957C80.2402867 5.87582637 79.9466769 6.16823708 79.5844472 6.16823708M40.8566822 2.15595871L.443325901 2.15595871C.198789663 2.15595871 0 1.95852964 0 1.71423189L0 .441726824C0 .197429078.198789663 0 .443325901 0L40.8566822 0C41.1012184 0 41.2995922.197429078 41.2995922.441726824L41.2995922 1.71423189C41.2995922 1.95852964 41.1012184 2.15595871 40.8566822 2.15595871"/>
      </g>
      <path fill="#B8D6DD" fill-rule="nonzero" d="M111.529721,1.26752786 C108.135325,0.44089729 104.590381,0 100.941884,0 C100.128011,0 99.3199597,0.0248860182 98.5164835,0.0688513171 C101.314095,0.21899696 104.04267,0.625468592 106.67892,1.26752786 C126.136186,6.00541097 140.57838,23.5035999 140.57838,44.3680376 C140.57838,54.3178825 137.294192,63.5033118 131.748043,70.9035841 L136.598012,70.9035841 C142.144161,63.5033118 145.428765,54.3178825 145.428765,44.3680376 C145.428765,23.5035999 130.986571,6.00541097 111.529721,1.26752786"/>
      <g transform="translate(57.916 22.024)">
        <ellipse cx="11.344" cy="11.905" fill="#7DACBC" rx="2.985" ry="2.976"/>
        <ellipse cx="14.466" cy="3.801" fill="#7DACBC" rx="2.985" ry="2.976"/>
        <path fill="#124354" fill-rule="nonzero" d="M14.4220781,1.09073898 C12.9265809,1.09073898 11.7093062,2.30434714 11.7093062,3.79584916 C11.7093062,5.28693642 12.9265809,6.50095935 14.4220781,6.50095935 C15.9175752,6.50095935 17.1340182,5.28693642 17.1340182,3.79584916 C17.1340182,2.30434714 15.9175752,1.09073898 14.4220781,1.09073898 M14.4220781,7.0289577 C12.6342187,7.0289577 11.1798935,5.57893237 11.1798935,3.79584916 C11.1798935,2.01318072 12.6342187,0.562325861 14.4220781,0.562325861 C16.2099374,0.562325861 17.6638467,2.01318072 17.6638467,3.79584916 C17.6638467,5.57893237 16.2099374,7.0289577 14.4220781,7.0289577"/>
        <polygon fill="#124354" fill-rule="nonzero" points="3.163 3.532 11.486 3.532 11.486 4.06 2.931 4.06"/>
        <path fill="#124354" fill-rule="nonzero" d="M11.3386053,9.26662551 C9.84310819,9.26662551 8.62666516,10.4802337 8.62666516,11.9717357 C8.62666516,13.4628229 9.84310819,14.6768459 11.3386053,14.6768459 C12.8341024,14.6768459 14.0513772,13.4628229 14.0513772,11.9717357 C14.0513772,10.4802337 12.8341024,9.26662551 11.3386053,9.26662551 M11.3386053,15.2048442 C9.55074598,15.2048442 8.09683665,13.7544041 8.09683665,11.9717357 C8.09683665,10.1882377 9.55074598,8.73821239 11.3386053,8.73821239 C13.1264647,8.73821239 14.5807899,10.1882377 14.5807899,11.9717357 C14.5807899,13.7544041 13.1264647,15.2048442 11.3386053,15.2048442"/>
        <polygon fill="#124354" fill-rule="nonzero" points=".278 11.708 8.403 11.708 8.403 12.236 .135 12.236"/>
      </g>
    </g>
  </g>
</svg>
