<svg xmlns="http://www.w3.org/2000/svg" width="1188" height="280" viewBox="0 0 1188 280">
  <g fill="none" fill-rule="evenodd">
    <polygon fill="#5D6F82" points="1188 73.5 0 73.5 0 0 1188 0" transform="translate(0 206)"/>
    <g transform="translate(46.883 .18)">
      <path fill="#093749" d="M50.1647829,279 C67.8989516,262.19217 76.7660359,253.788255 76.7660359,253.788255 C76.7660359,253.788255 100.24111,253.819672 147.191257,253.882507 L119.673757,279 L50.1647829,279 Z" opacity=".2" transform="matrix(-1 0 0 1 197.356 0)"/>
      <path fill="#E5E5E5" fill-rule="nonzero" d="M75.1538806,84.7543605 C75.1538806,79.6033735 79.3180687,75.4273256 84.4544271,75.4273256 C89.5907855,75.4273256 93.7549735,79.6033735 93.7549735,84.7543605 C93.7549735,89.9053475 89.5907855,94.0813953 84.4544271,94.0813953 C79.3180687,94.0813953 75.1538806,89.9053475 75.1538806,84.7543605"/>
      <path fill="#7DACBC" fill-rule="nonzero" d="M84.8418801,85.9709302 C65.6772747,85.9709302 50.1420765,101.550941 50.1420765,120.770128 C50.1420765,132.042948 55.4891276,142.062602 63.7756985,148.421512 L112.415301,99.6439491 C106.073884,91.3326425 96.0832514,85.9709302 84.8418801,85.9709302"/>
      <path fill="#E5E5E5" fill-rule="nonzero" d="M118.076503,120.592087 C118.076503,112.756207 115.456147,105.535444 111.048146,99.7587209 L63.0819672,147.86095 C68.8417261,152.281506 76.0430992,154.909884 83.8567256,154.909884 C102.755656,154.909884 118.076503,139.545402 118.076503,120.592087"/>
      <path fill="#7DACBC" fill-opacity=".6" fill-rule="nonzero" d="M121.146357,121.124727 C121.146357,112.563681 118.283182,104.672874 113.467228,98.3613554 L61.0601093,150.918296 C67.3537037,155.747965 75.2209775,158.619858 83.757711,158.619858 C104.407058,158.619858 121.146357,141.832322 121.146357,121.124727"/>
      <path fill="#FFF" fill-rule="nonzero" d="M129.395533,119.11444 C129.395533,108.833011 125.968136,99.3573472 120.204262,91.7767029 L57.4764356,154.897435 C65.0093981,160.697361 74.4261634,164.146195 84.6436856,164.146195 C109.360305,164.146195 129.395533,143.984521 129.395533,119.11444" opacity=".1"/>
      <path fill="#B7E8F8" fill-rule="nonzero" d="M84.705114,22.7093023 C75.4428211,22.7093023 67.9344262,30.239225 67.9344262,39.5275024 C67.9344262,44.8763559 70.4269578,49.6377564 74.3066373,52.7180233 L97.8579235,29.0997836 C94.786463,25.2084084 90.0386752,22.7093023 84.705114,22.7093023"/>
      <polygon fill="#FFF" fill-rule="nonzero" points="85.727 182.485 83.301 182.485 84.454 0 84.435 0 85.727 182.485"/>
      <path fill="#6594A4" fill-rule="nonzero" d="M101.476733,39.5128789 C101.476733,35.5670705 100.119952,31.9419664 97.8540816,29.0722355 L74.2754387,52.7190244 C77.1374705,54.9914435 80.7526988,56.3510008 84.685994,56.3510008 C93.9584747,56.3510008 101.476733,48.8121586 101.476733,39.5128789"/>
      <path stroke="#FFF" stroke-width=".1" d="M33.9672131,120.846212 C33.9672131,93.0743468 56.4165765,70.5610465 84.1095703,70.5610465 C111.802003,70.5610465 134.251366,93.0743468 134.251366,120.846212 C134.251366,148.617514 111.802003,171.130814 84.1095703,171.130814 C56.4165765,171.130814 33.9672131,148.617514 33.9672131,120.846212 Z"/>
      <path stroke="#124354" stroke-width=".29" d="M38.010929 253.857558L130.20765 253.857558M29.1147541 257.101744L83.3005464 257.101744"/>
      <path fill="#B8D6DD" fill-rule="nonzero" d="M84.9164001,181.845301 C84.10272,181.845301 83.29471,181.870919 82.4918033,181.914186 C85.2883682,182.066189 88.0168902,182.474378 90.6529873,183.121104 C110.108733,187.890705 124.549146,205.503731 124.549146,226.506373 C124.549146,231.082982 123.861913,235.49677 122.587809,239.654373 C121.07442,244.595334 118.731475,249.816142 115.71944,253.862162 L120.569201,253.862162 C123.581235,249.816142 125.923614,244.595334 127.437569,239.654373 C128.711106,235.49677 129.398907,231.082982 129.398907,226.506373 C129.398907,205.503731 114.957927,187.890705 95.502748,183.121104 C92.1096733,182.289355 88.5646359,181.845301 84.9164001,181.845301 Z"/>
      <path fill="#E6F9FF" fill-rule="nonzero" d="M115.762813,253.859513 C118.736437,249.709356 121.0505,244.863507 122.544311,239.79479 L43.3605784,239.79479 C44.8549491,244.863507 47.1684523,249.708688 50.1420765,253.858845 L115.762813,253.859513 Z" opacity=".6"/>
      <path fill="#E6F9FF" d="M90.9992495,183.150722 C88.4001606,182.509956 85.7099443,182.104607 82.9526403,181.953872 C80.1953363,182.104607 77.50512,182.509956 74.9054721,183.150722 C61.9374219,186.348344 51.231345,195.367062 45.6541218,207.309031 C42.9532833,213.153837 41.4857401,219.490369 41.4857401,226.1741 C41.4857401,230.712533 42.0277987,235.090069 43.2834566,239.212428 L122.725616,239.212428 C123.981833,235.090069 124.60509,230.712533 124.60509,226.1741 C124.60509,205.346648 110.181856,187.879974 90.9992495,183.150722 Z"/>
      <path fill="#E5E5E5" fill-rule="nonzero" d="M33.4577997,103.343483 C33.4577997,101.328206 35.0871565,99.6937738 37.0974236,99.6937738 C39.1071314,99.6937738 40.7364882,101.328206 40.7364882,103.343483 C40.7364882,105.35876 39.1071314,106.993192 37.0974236,106.993192 C35.0871565,106.993192 33.4577997,105.35876 33.4577997,103.343483"/>
      <path fill="#6594A4" fill-rule="nonzero" d="M102.760139,76.0732323 C102.760139,73.6091587 104.751151,71.6124764 107.208227,71.6124764 C109.664195,71.6124764 111.656314,73.6091587 111.656314,76.0732323 C111.656314,78.5373058 109.664195,80.5339881 107.208227,80.5339881 C104.751151,80.5339881 102.760139,78.5373058 102.760139,76.0732323"/>
      <g transform="translate(42.81 202.97)">
        <ellipse cx="12.59" cy="13.29" fill="#7DACBC" rx="3.313" ry="3.322"/>
        <ellipse cx="16.054" cy="4.244" fill="#7DACBC" rx="3.313" ry="3.322"/>
        <path fill="#124354" fill-rule="nonzero" d="M16.0050951,1.21764482 C14.3454471,1.21764482 12.99456,2.57245446 12.99456,4.23749051 C12.99456,5.90206353 14.3454471,7.25733619 16.0050951,7.25733619 C17.6647432,7.25733619 19.0147072,5.90206353 19.0147072,4.23749051 C19.0147072,2.57245446 17.6647432,1.21764482 16.0050951,1.21764482 M16.0050951,7.84676636 C14.0209942,7.84676636 12.4070372,6.22803276 12.4070372,4.23749051 C12.4070372,2.24741127 14.0209942,0.62775163 16.0050951,0.62775163 C17.9891961,0.62775163 19.6026915,2.24741127 19.6026915,4.23749051 C19.6026915,6.22803276 17.9891961,7.84676636 16.0050951,7.84676636"/>
        <polygon fill="#124354" fill-rule="nonzero" points="3.511 3.943 12.747 3.943 12.747 4.532 3.252 4.532"/>
        <path fill="#124354" fill-rule="nonzero" d="M12.5831698,10.3447835 C10.9235217,10.3447835 9.5735577,11.6995931 9.5735577,13.3646291 C9.5735577,15.0292022 10.9235217,16.3844748 12.5831698,16.3844748 C14.2428178,16.3844748 15.5937049,15.0292022 15.5937049,13.3646291 C15.5937049,11.6995931 14.2428178,10.3447835 12.5831698,10.3447835 M12.5831698,16.973905 C10.5990688,16.973905 8.98557338,15.3547084 8.98557338,13.3646291 C8.98557338,11.3736239 10.5990688,9.75489026 12.5831698,9.75489026 C14.5672707,9.75489026 16.1812277,11.3736239 16.1812277,13.3646291 C16.1812277,15.3547084 14.5672707,16.973905 12.5831698,16.973905"/>
        <polygon fill="#124354" fill-rule="nonzero" points=".308 13.07 9.325 13.07 9.325 13.659 .15 13.659"/>
      </g>
      <rect width="85.17" height="2.052" x=".169" y="222.261" fill="#BADDE5" fill-rule="nonzero" opacity=".703"/>
    </g>
    <g transform="translate(520.423 62.298)">
      <path fill="#093749" d="M39.2834785,216.551965 C53.0568954,203.506199 59.9436038,196.983316 59.9436038,196.983316 C59.9436038,196.983316 78.1757511,197.007702 114.640046,197.056473 L93.268308,216.551965 L39.2834785,216.551965 Z" opacity=".2" transform="matrix(-1 0 0 1 153.924 0)"/>
      <path fill="#E5E5E5" fill-rule="nonzero" d="M58.6915076,70.5576771 C58.6915076,66.5596256 61.9256653,63.3182946 65.9148686,63.3182946 C69.904072,63.3182946 73.1382297,66.5596256 73.1382297,70.5576771 C73.1382297,74.5557286 69.904072,77.7970597 65.9148686,77.7970597 C61.9256653,77.7970597 58.6915076,74.5557286 58.6915076,70.5576771"/>
      <path fill="#39BA91" fill-rule="nonzero" d="M66.2157878,71.5019444 C51.3314082,71.5019444 39.2658434,83.5947113 39.2658434,98.5121046 C39.2658434,107.261751 43.4186833,115.038724 49.8545303,119.974332 L87.6309566,82.1145577 C82.7058326,75.6635548 74.9465096,71.5019444 66.2157878,71.5019444"/>
      <path fill="#074354" fill-rule="nonzero" d="M92.027785,98.3739142 C92.027785,92.2919241 89.9926602,86.6873703 86.5691423,82.2036403 L49.315737,119.53924 C53.7891106,122.970351 59.3821279,125.010424 65.4506579,125.010424 C80.1286981,125.010424 92.027785,113.084945 92.027785,98.3739142"/>
      <path fill="#7DACBC" fill-opacity=".6" fill-rule="nonzero" d="M94.4120176,98.7873346 C94.4120176,92.1424907 92.1883042,86.0178682 88.4479466,81.1190444 L47.7454411,121.912266 C52.6334233,125.660919 58.743619,127.890002 65.3737572,127.890002 C81.4112763,127.890002 94.4120176,114.859988 94.4120176,98.7873346"/>
      <path fill="#7DACBC" fill-rule="nonzero" d="M100.818822,97.2270061 C100.818822,89.2468495 98.1569001,81.8921053 93.6803301,76.0082221 L44.9621457,125.000762 C50.8126952,129.502501 58.1263188,132.179389 66.0618581,132.179389 C85.258264,132.179389 100.818822,116.530465 100.818822,97.2270061" opacity=".205"/>
      <g transform="translate(63.509)">
        <path fill="#A7C6D1" fill-rule="nonzero" d="M80.4202298,42.2250354 L50.6177648,23.0729927 L80.6601231,3.7660817 C82.2322813,2.76115871 81.3541003,0.703131473 79.3235745,0.703131473 L2.21499763,0.703131473 C1.03266612,0.703131473 0.0730927202,1.47403131 0.0730927202,2.42389003 L0.0730927202,43.7220954 C0.0730927202,44.6719541 1.03266612,45.4428539 2.21499763,45.4428539 L79.3235745,45.4428539 C79.3364259,45.4428539 79.3492773,45.4428539 79.3664126,45.4428539 C81.5554394,45.4428539 82.330809,43.0957393 80.4202298,42.2250354 Z"/>
        <path fill="#074354" d="M12.793697,19.7258861 C13.2238119,19.7258861 13.6117529,19.6455902 13.9575316,19.4849959 C14.3033102,19.3244016 14.5984827,19.1067573 14.8430578,18.8320565 C15.087633,18.5573557 15.2752783,18.240398 15.4059995,17.881174 C15.5367207,17.5219499 15.6020804,17.1394876 15.6020804,16.7337757 C15.6020804,16.3280638 15.5367207,15.9434884 15.4059995,15.5800382 C15.2752783,15.2165879 15.087633,14.8996302 14.8430578,14.6291556 C14.5984827,14.358681 14.3033102,14.1431498 13.9575316,13.9825555 C13.6117529,13.8219612 13.2238119,13.7416652 12.793697,13.7416652 L11.4274565,13.7416652 L11.4274565,19.7258861 L12.793697,19.7258861 Z M12.7683963,12.2963237 C13.4093518,12.2963237 13.9996968,12.4083155 14.5394488,12.6323023 C15.0792009,12.856289 15.540935,13.1647945 15.9246649,13.5578279 C16.3083949,13.9508614 16.6077841,14.4178457 16.8228416,14.9587949 C17.037899,15.4997441 17.1454262,16.0913985 17.1454262,16.7337757 C17.1454262,17.3761529 17.037899,17.9678072 16.8228416,18.5087564 C16.6077841,19.0497057 16.3083949,19.51669 15.9246649,19.9097234 C15.540935,20.3027568 15.0792009,20.6112623 14.5394488,20.8352491 C13.9996968,21.0592359 13.4093518,21.1712276 12.7683963,21.1712276 L9.90941143,21.1712276 L9.90941143,12.2963237 L12.7683963,12.2963237 Z M22.4838846,19.8780273 C22.9308667,19.8780273 23.3356747,19.7935053 23.6983206,19.6244586 C24.0609665,19.455412 24.3687892,19.2293155 24.621798,18.9461624 C24.8748068,18.6630093 25.0708856,18.3312603 25.2100405,17.9509053 C25.3491953,17.5705504 25.4187717,17.1648446 25.4187717,16.7337757 C25.4187717,16.3027068 25.3491953,15.8970009 25.2100405,15.516646 C25.0708856,15.1362911 24.8748068,14.804542 24.621798,14.5213889 C24.3687892,14.2382358 24.0609665,14.0121393 23.6983206,13.8430927 C23.3356747,13.6740461 22.9308667,13.589524 22.4838846,13.589524 C22.0369024,13.589524 21.6320944,13.6740461 21.2694485,13.8430927 C20.9068026,14.0121393 20.5989799,14.2382358 20.3459711,14.5213889 C20.0929624,14.804542 19.8968835,15.1362911 19.7577287,15.516646 C19.6185738,15.8970009 19.5489975,16.3027068 19.5489975,16.7337757 C19.5489975,17.1648446 19.6185738,17.5705504 19.7577287,17.9509053 C19.8968835,18.3312603 20.0929624,18.6630093 20.3459711,18.9461624 C20.5989799,19.2293155 20.9068026,19.455412 21.2694485,19.6244586 C21.6320944,19.7935053 22.0369024,19.8780273 22.4838846,19.8780273 Z M22.4838846,12.1441825 C23.1248401,12.1441825 23.7194018,12.2604004 24.2675875,12.4928395 C24.8157732,12.7252786 25.2901575,13.0464624 25.6907547,13.4564005 C26.091352,13.8663385 26.4033914,14.3502273 26.6268825,14.9080812 C26.8503736,15.4659351 26.9621175,16.0744938 26.9621175,16.7337757 C26.9621175,17.3930575 26.8503736,18.0016163 26.6268825,18.5594702 C26.4033914,19.1173241 26.091352,19.6012128 25.6907547,20.0111509 C25.2901575,20.421089 24.8157732,20.7422727 24.2675875,20.9747119 C23.7194018,21.207151 23.1248401,21.3233688 22.4838846,21.3233688 C21.8344954,21.3233688 21.2378253,21.207151 20.6938565,20.9747119 C20.1498876,20.7422727 19.6776116,20.421089 19.2770144,20.0111509 C18.8764172,19.6012128 18.5643777,19.1173241 18.3408866,18.5594702 C18.1173955,18.0016163 18.0056517,17.3930575 18.0056517,16.7337757 C18.0056517,16.0744938 18.1173955,15.4659351 18.3408866,14.9080812 C18.5643777,14.3502273 18.8764172,13.8663385 19.2770144,13.4564005 C19.6776116,13.0464624 20.1498876,12.7252786 20.6938565,12.4928395 C21.2378253,12.2604004 21.8344954,12.1441825 22.4838846,12.1441825 Z M29.6945986,12.2963237 L34.1222299,18.407329 L34.1222299,12.2963237 L35.640275,12.2963237 L35.640275,21.1712276 L34.2740344,21.1712276 L29.8464031,15.0729008 L29.8464031,21.1712276 L28.328358,21.1712276 L28.328358,12.2963237 L29.6945986,12.2963237 Z M37.0824178,12.2963237 L38.4233576,12.2963237 L38.4233576,15.4152185 L37.0824178,15.4152185 L37.0824178,12.2963237 Z M41.5480003,13.7416652 L39.1064778,13.7416652 L39.1064778,12.2963237 L45.5075678,12.2963237 L45.5075678,13.7416652 L43.0660453,13.7416652 L43.0660453,21.1712276 L41.5480003,21.1712276 L41.5480003,13.7416652 Z M9.65640392,24.9747578 L12.6671933,24.9747578 C13.1057418,24.9747578 13.506333,25.0466016 13.8689789,25.1902912 C14.2316248,25.3339808 14.5415559,25.5326076 14.7987815,25.7861776 C15.0560071,26.0397475 15.2541943,26.3398008 15.3933492,26.6863464 C15.532504,27.032892 15.6020804,27.4090151 15.6020804,27.814727 C15.6020804,28.220439 15.532504,28.5965621 15.3933492,28.9431077 C15.2541943,29.2896533 15.0560071,29.5897065 14.7987815,29.8432765 C14.5415559,30.0968464 14.2316248,30.2954733 13.8689789,30.4391629 C13.506333,30.5828525 13.1057418,30.6546963 12.6671933,30.6546963 L11.174449,30.6546963 L11.174449,33.8496617 L9.65640392,33.8496617 L9.65640392,24.9747578 Z M12.4774376,29.2093548 C13.0003224,29.2093548 13.3945885,29.0825717 13.6602477,28.8290018 C13.9259069,28.5754318 14.0587346,28.2373436 14.0587346,27.814727 C14.0587346,27.3921105 13.9259069,27.0540223 13.6602477,26.8004523 C13.3945885,26.5468824 13.0003224,26.4200993 12.4774376,26.4200993 L11.174449,26.4200993 L11.174449,29.2093548 L12.4774376,29.2093548 Z M18.8405765,30.3504139 L21.4971553,30.3504139 L20.1688659,26.8892014 L18.8405765,30.3504139 Z M19.397193,24.9747578 L20.9405388,24.9747578 L24.3814409,33.8496617 L22.8507455,33.8496617 L22.0411214,31.7450416 L18.2966103,31.7450416 L17.4869863,33.8496617 L15.9562909,33.8496617 L19.397193,24.9747578 Z M26.7597115,24.9747578 L31.1873428,31.085763 L31.1873428,24.9747578 L32.7053879,24.9747578 L32.7053879,33.8496617 L31.3391474,33.8496617 L26.911516,27.7513349 L26.911516,33.8496617 L25.3934709,33.8496617 L25.3934709,24.9747578 L26.7597115,24.9747578 Z M34.7547487,24.9747578 L36.2727938,24.9747578 L36.2727938,33.8496617 L34.7547487,33.8496617 L34.7547487,24.9747578 Z M42.3196732,32.5818182 C42.8509916,32.5818182 43.3211592,32.4698265 43.7301901,32.2458397 C44.1392209,32.021853 44.4618023,31.7703999 44.6979438,31.4914729 L45.7099738,32.4930692 C45.5497349,32.6874728 45.3557644,32.8734213 45.1280565,33.0509203 C44.9003486,33.2284193 44.6431269,33.3890112 44.3563836,33.5327008 C44.0696404,33.6763904 43.7533841,33.7904952 43.4076055,33.8750185 C43.0618268,33.9595418 42.6949696,34.0018029 42.3070228,34.0018029 C41.6660673,34.0018029 41.0715056,33.885585 40.5233199,33.6531459 C39.9751342,33.4207068 39.5007499,33.099523 39.1001527,32.6895849 C38.6995554,32.2796469 38.3854076,31.7957581 38.1576997,31.2379042 C37.9299918,30.6800503 37.8161396,30.0714916 37.8161396,29.4122097 C37.8161396,28.7529279 37.9299918,28.1443691 38.1576997,27.5865152 C38.3854076,27.0286613 38.6995554,26.5447726 39.1001527,26.1348345 C39.5007499,25.7248964 39.9751342,25.4037127 40.5233199,25.1712735 C41.0715056,24.9388344 41.6618505,24.8226166 42.2943725,24.8226166 C42.6907529,24.8226166 43.0576101,24.8648776 43.3949551,24.9494009 C43.7323001,25.0339243 44.0401229,25.1438029 44.3184325,25.2790402 C44.5967422,25.4142775 44.8413136,25.5643042 45.0521543,25.7291246 C45.2629949,25.8939451 45.4400984,26.05665 45.5834701,26.2172443 L44.5587896,27.2188406 C44.347949,26.9821754 44.0506682,26.760305 43.6669382,26.5532229 C43.2832082,26.3461407 42.8299076,26.2426012 42.3070228,26.2426012 C41.8684743,26.2426012 41.4678831,26.3271233 41.1052372,26.4961699 C40.7425913,26.6652165 40.4326602,26.8955391 40.1754346,27.1871446 C39.918209,27.47875 39.7179134,27.8147251 39.5745417,28.1950801 C39.4311701,28.575435 39.3594854,28.9811408 39.3594854,29.4122097 C39.3594854,29.8432786 39.4311701,30.2489845 39.5745417,30.6293394 C39.7179134,31.0096943 39.9203174,31.3456695 40.1817598,31.6372749 C40.4432022,31.9288804 40.7552416,32.1592029 41.1178875,32.3282496 C41.4805334,32.4972962 41.8811247,32.5818182 42.3196732,32.5818182 Z"/>
      </g>
      <polygon fill="#074354" fill-rule="nonzero" points="66.903 141.64 65.019 141.64 65.915 0 65.9 0 66.903 141.64"/>
      <path stroke="#074354" stroke-width=".1" d="M26.7034763,98.5711585 C26.7034763,77.0154169 44.1389956,59.5412254 65.6470322,59.5412254 C87.1546328,59.5412254 104.590152,77.0154169 104.590152,98.5711585 C104.590152,120.126463 87.1546328,137.600655 65.6470322,137.600655 C44.1389956,137.600655 26.7034763,120.126463 26.7034763,98.5711585 Z"/>
      <path stroke="#124354" stroke-width=".29" d="M29.8440681 197.037108L101.44956 197.037108M22.9347662 199.555154L65.0186959 199.555154"/>
      <path fill="#B8D6DD" fill-rule="nonzero" d="M66.2736646,141.143216 C65.6417118,141.143216 65.0141629,141.1631 64.3905775,141.196683 C66.5625572,141.314663 68.6816908,141.631488 70.7290415,142.133458 C85.839538,145.835489 97.0548275,159.506225 97.0548275,175.807886 C97.0548275,179.360121 96.5210806,182.78598 95.5315351,186.012994 C94.3561471,189.84803 92.5364755,193.900274 90.1971494,197.040681 L93.9637639,197.040681 C96.30309,193.900274 98.1223212,189.84803 99.2981496,186.012994 C100.287255,182.78598 100.821442,179.360121 100.821442,175.807886 C100.821442,159.506225 89.6057121,145.835489 74.495656,142.133458 C71.860391,141.487878 69.1071028,141.143216 66.2736646,141.143216 Z"/>
      <path fill="#43707D" fill-rule="nonzero" d="M90.2308351,197.038625 C92.5403296,193.81739 94.3375695,190.056177 95.4977524,186.121982 L33.998926,186.121982 C35.1595438,190.056177 36.9563488,193.816871 39.2658434,197.038107 L90.2308351,197.038625 Z" opacity=".6"/>
      <path fill="#074354" d="M70.9979695,142.156447 C68.9793615,141.659102 66.8899785,141.344482 64.7484911,141.227486 C62.6070038,141.344482 60.5176208,141.659102 58.4985786,142.156447 C48.4268147,144.638352 40.1118345,151.638427 35.7802292,160.907448 C33.6825963,165.444023 32.5428144,170.36226 32.5428144,175.549985 C32.5428144,179.072589 32.9638096,182.47031 33.9390286,185.669969 L95.6385646,185.669969 C96.6142179,182.47031 97.0982766,179.072589 97.0982766,175.549985 C97.0982766,159.384301 85.8963298,145.82716 70.9979695,142.156447 Z"/>
      <path fill="#E5E5E5" fill-rule="nonzero" d="M26.3078354,84.9860321 C26.3078354,83.4218309 27.5732914,82.1532302 29.1345852,82.1532302 C30.6954445,82.1532302 31.9609005,83.4218309 31.9609005,84.9860321 C31.9609005,86.5502333 30.6954445,87.818834 29.1345852,87.818834 C27.5732914,87.818834 26.3078354,86.5502333 26.3078354,84.9860321"/>
      <path fill="#39BA91" fill-rule="nonzero" d="M80.1321803,63.8196292 C80.1321803,61.9070845 81.6785192,60.3573158 83.5868313,60.3573158 C85.4942835,60.3573158 87.0414822,61.9070845 87.0414822,63.8196292 C87.0414822,65.7321739 85.4942835,67.2819426 83.5868313,67.2819426 C81.6785192,67.2819426 80.1321803,65.7321739 80.1321803,63.8196292"/>
      <ellipse cx="43.35" cy="167.855" fill="#7DACBC" rx="2.573" ry="2.579"/>
      <ellipse cx="46.04" cy="160.834" fill="#7DACBC" rx="2.573" ry="2.579"/>
      <path fill="#EAF3F5" fill-rule="nonzero" d="M46.0025022,158.485279 C44.7135202,158.485279 43.6643404,159.536844 43.6643404,160.829199 C43.6643404,162.121193 44.7135202,163.173118 46.0025022,163.173118 C47.2914842,163.173118 48.3399471,162.121193 48.3399471,160.829199 C48.3399471,159.536844 47.2914842,158.485279 46.0025022,158.485279 M46.0025022,163.630617 C44.4615306,163.630617 43.208035,162.374202 43.208035,160.829199 C43.208035,159.284555 44.4615306,158.027421 46.0025022,158.027421 C47.5434737,158.027421 48.7966109,159.284555 48.7966109,160.829199 C48.7966109,162.374202 47.5434737,163.630617 46.0025022,163.630617"/>
      <polygon fill="#EAF3F5" fill-rule="nonzero" points="36.299 160.6 43.472 160.6 43.472 161.178 36.098 161.178"/>
      <path fill="#EAF3F5" fill-rule="nonzero" d="M43.3448301,165.569508 C42.0558481,165.569508 41.0073853,166.621073 41.0073853,167.913427 C41.0073853,169.205422 42.0558481,170.257347 43.3448301,170.257347 C44.6338121,170.257347 45.6829919,169.205422 45.6829919,167.913427 C45.6829919,166.621073 44.6338121,165.569508 43.3448301,165.569508 M43.3448301,170.714846 C41.8038586,170.714846 40.5507214,169.458071 40.5507214,167.913427 C40.5507214,166.368065 41.8038586,165.111649 43.3448301,165.111649 C44.8858017,165.111649 46.1392973,166.368065 46.1392973,167.913427 C46.1392973,169.458071 44.8858017,170.714846 43.3448301,170.714846"/>
      <polygon fill="#EAF3F5" fill-rule="nonzero" points="33.811 167.684 40.815 167.684 40.815 168.263 33.688 168.263"/>
      <rect width="66.148" height="1.593" x=".454" y="172.513" fill="#BADDE5" fill-rule="nonzero" opacity=".703"/>
    </g>
    <g transform="translate(1037.106 147.59)">
      <path fill="#093749" d="M81.5915263,132.329591 L34.8497541,132.329591 L72.8066795,92.2157425 C72.8066795,92.2157425 120.154342,92.511294 119.936737,92.511294 L81.5915263,132.329591 Z" opacity=".2" transform="matrix(-1 0 0 1 154.787 0)"/>
      <path fill="#E6F9FF" fill-opacity=".05" stroke="#074354" stroke-width=".1" d="M0.000707181261,65.8752176 C0.000707181261,33.5674777 25.7089923,7.3772594 57.4222289,7.3772594 C89.1348356,7.3772594 114.843751,33.5674777 114.843751,65.8752176 C114.843751,98.1829575 89.1348356,124.373176 57.4222289,124.373176 C25.7089923,124.373176 0.000707181261,98.1829575 0.000707181261,65.8752176 Z"/>
      <path fill="#39BA91" fill-rule="nonzero" d="M58.34035,29.0479589 C51.6160626,29.0479589 46.1646166,34.6018355 46.1646166,41.4520801 C46.1646166,45.3964763 47.9740116,48.9083286 50.7910727,51.1797371 L67.8891421,33.7613923 C65.6594985,30.8912469 62.2122196,29.0479589 58.34035,29.0479589"/>
      <path fill="#D2EAF1" fill-rule="nonzero" d="M70.2833835,84.1176818 C70.2833835,84.1176818 70.4488154,84.3914754 70.7796792,84.9390627 L77.9436467,78.4589987 C77.7722743,78.2384879 77.5577174,77.9753882 77.299976,77.6696997 C72.6222477,81.9683544 70.2833835,84.1176818 70.2833835,84.1176818 Z"/>
      <path stroke="#A9CAD3" stroke-width=".2" d="M47.9749937,53.6743809 C50.6893976,55.8637017 54.1177201,57.1737604 57.8484488,57.1737604 C66.6434581,57.1737604 73.7728677,49.9106125 73.7728677,40.951263 C73.7728677,37.1502295 72.4863008,33.6579175 70.3372926,30.8922737"/>
      <rect width="1" height="73.312" x="57.479" y="3.689" fill="#074354" fill-rule="nonzero"/>
      <path fill="#B8D6DD" fill-rule="nonzero" d="M43.2760468,55.4319291 L71.6104941,26.5659944 C68.1715391,23.7923842 63.827178,22.1317782 59.1000048,22.1317782 C47.9568377,22.1317782 38.9231081,31.3345325 38.9231081,42.6869155 C38.9231081,47.5027053 40.5531569,51.9285068 43.2760468,55.4319291 Z" opacity=".2"/>
      <path fill="#074354" fill-rule="nonzero" d="M70.5195148,41.4364169 C70.5195148,38.5286241 69.5350857,35.8563761 67.8911637,33.740583 L50.7812772,51.1712152 C52.858137,52.8459546 55.4812122,53.848838 58.3358083,53.848838 C65.0644991,53.848838 70.5195148,48.2915613 70.5195148,41.4364169"/>
      <path stroke="#A9CAD3" stroke-width=".1" d="M72.0334458,24.6986426 C68.3227958,21.7056528 63.635659,19.9141654 58.5351005,19.9141654 C46.5116307,19.9141654 36.7649393,29.8435704 36.7649393,42.0924348 C36.7649393,47.2886095 38.5238838,52.0631818 41.4617988,55.8438231"/>
      <path fill="#074354" fill-rule="nonzero" d="M43.6754033,92.2217649 L62.6379402,92.2157425 L70.8173309,84.9006488 C68.4033106,80.531883 63.2193586,77.2870247 58.0894007,77.2870247 C50.1633831,77.2870247 43.6754033,83.9954266 43.6754033,92.2217649 Z"/>
      <path stroke="#074354" stroke-width=".1" d="M82.3682927,73.148864 C84.78324,76.3188294 86.6008338,79.9644021 87.6376125,83.8379835 C88.7008701,87.7051422 88.953051,91.7887487 88.4821032,95.7699119 C88.0048509,99.7536441 86.7420551,103.637823 84.7908054,107.125395 C82.8433385,110.615215 80.2156135,113.707786 77.107484,116.17542 C74.0018763,118.646265 70.4149184,120.488641 66.6136066,121.55097 C62.8132406,122.613298 58.8070319,122.909068 54.8957062,122.413229 C50.9828044,121.92606 47.167938,120.639898 43.7407997,118.65333 C40.3092482,116.673828 37.2745663,113.988783 34.8526841,110.819781 C32.4298562,107.650779 30.624241,103.993967 29.5833643,100.119743 C28.5377593,96.2464825 28.2616212,92.1644817 28.743602,88.179786 C29.2240066,84.1944481 30.4899546,80.3093056 32.4440413,76.8226969 C34.3943453,73.3335191 37.0249072,70.2419117 40.1342977,67.7765257 C43.2414815,65.3079284 46.8297004,63.4684429 50.6303816,62.4090045 C54.4307477,61.3386475 58.4341194,61.0762767 62.3451298,61.5493148 C66.2555098,62.0486863 70.0618651,63.3390238 73.4902644,65.3169203 C76.9073155,67.3160121 79.9369537,69.9904596 82.3682927,73.148864" opacity=".503"/>
      <path fill="#FFF" fill-rule="nonzero" d="M43.2225908,64.0899411 C44.0975102,64.0899411 44.8068338,64.8125618 44.8068338,65.7038826 C44.8068338,66.5952034 44.0975102,67.317492 43.2225908,67.317492 C42.3476714,67.317492 41.6386738,66.5952034 41.6386738,65.7038826 C41.6386738,64.8125618 42.3476714,64.0899411 43.2225908,64.0899411 Z"/>
      <path fill="#B8D6DD" fill-rule="nonzero" d="M57.944775,77.3583365 C65.5461921,77.3583365 70.3265877,84.0633396 70.3040464,84.1067908 L77.3214676,77.7005434 C76.2860426,76.3203048 74.729797,74.5662391 73.4371644,73.4456719 C73.2525027,73.2858239 73.0653285,73.1285857 72.8759559,72.9742834 C68.8802893,69.7202347 63.8463713,67.7785708 58.3752947,67.7785708 C57.3602829,67.7785708 56.3603456,67.8451197 55.3786233,67.9749555 C54.986374,68.0264983 54.5969512,68.0884802 54.2103548,68.1602487 C53.6312454,68.2675752 53.0593591,68.3970847 52.4956382,68.5477985 C42.5361495,71.2097571 35.1283225,80.4760482 34.8572968,91.5848322 C34.852272,91.794592 34.8497596,92.0046779 34.8497596,92.2157425 L43.7304842,92.2157425 C43.7304842,84.0315246 50.343358,77.3583365 57.944775,77.3583365 Z"/>
      <path fill="#8EA9B1" fill-rule="nonzero" d="M62.6190596,92.2157425 L72.4150849,92.2157425 C73.2328473,92.2088632 76.4010073,92.2119147 81.9195648,92.2157425 C81.9195648,91.3831174 81.8918445,90.5601218 81.8107808,89.7486815 C81.8032107,89.6732509 81.7804632,89.5978203 81.7722622,89.5220688 C81.6886751,88.7603805 81.6883179,88.0092846 81.5369149,87.270707 C81.5205129,87.1917457 81.5100372,87.1129727 81.4918322,87.0344649 C80.8274685,84.1694349 80.030072,81.4697718 77.9391992,78.4510627 L62.6190596,92.2157425 Z"/>
      <path fill="#39BA91" fill-rule="nonzero" d="M58.0039246,4.53425517e-15 C55.9646888,4.53425517e-15 54.3113137,1.6843697 54.3113137,3.76151437 C54.3113137,4.81795462 54.7394561,5.77165437 55.4272401,6.45510198 L60.6476336,1.13684585 C59.9770755,0.436168474 59.0402986,0 58.0039246,0"/>
      <path fill="#074354" fill-rule="nonzero" d="M57.9959472,7.51898257 C60.0362681,7.51898257 61.6907772,5.83345771 61.6907772,3.75456922 C61.6907772,2.7325262 61.2905484,1.80658908 60.6414693,1.12810066 L55.4174956,6.45000412 C56.0831856,7.11093166 56.9923977,7.51898257 57.9959472,7.51898257"/>
      <rect width="57.932" height="1.383" x="30.776" y="88.527" fill="#39BA91" fill-rule="nonzero"/>
    </g>
    <g transform="translate(933.103 113.719)">
      <path fill="#093749" d="M29.9173566,165.890725 C40.4936896,155.896951 45.781856,150.900063 45.781856,150.900063 C45.781856,150.900063 59.7819595,150.918744 87.7821663,150.956105 L71.3712338,165.890725 L29.9173566,165.890725 Z" opacity=".2" transform="matrix(-1 0 0 1 117.7 0)"/>
      <path fill="#E5E5E5" fill-rule="nonzero" d="M44.8203962,50.3941303 C44.8203962,47.3314028 47.3038416,44.8483647 50.3670716,44.8483647 C53.4303015,44.8483647 55.9137469,47.3314028 55.9137469,50.3941303 C55.9137469,53.4568578 53.4303015,55.9398958 50.3670716,55.9398958 C47.3038416,55.9398958 44.8203962,53.4568578 44.8203962,50.3941303"/>
      <path fill="#39BA91" fill-rule="nonzero" d="M50.5981414,51.117491 C39.1687222,51.117491 29.9038149,60.3812161 29.9038149,71.8087605 C29.9038149,78.5114711 33.0926981,84.469061 38.0346571,88.250008 L67.0424237,59.2473369 C63.2605189,54.3055137 57.3022891,51.117491 50.5981414,51.117491"/>
      <path fill="#074354" fill-rule="nonzero" d="M70.4186609,71.7028991 C70.4186609,67.0437599 68.855929,62.7503631 66.2270777,59.3155792 L37.6209284,87.9167034 C41.055943,90.5451235 45.3507098,92.1079319 50.0106134,92.1079319 C61.2815886,92.1079319 70.4186609,82.9723583 70.4186609,71.7028991"/>
      <path fill="#7DACBC" fill-opacity=".6" fill-rule="nonzero" d="M72.2494657,72.0196018 C72.2494657,66.9292856 70.5419203,62.2374876 67.6697741,58.484719 L36.4151294,89.7345719 C40.1685137,92.606247 44.8604116,94.3138472 49.9515629,94.3138472 C62.2664549,94.3138472 72.2494657,84.332139 72.2494657,72.0196018"/>
      <path fill="#7DACBC" fill-rule="nonzero" d="M77.1691231,70.8243043 C77.1691231,64.7110651 75.1250865,59.0769262 71.6876174,54.5695478 L34.2778922,92.10053 C38.7704128,95.5491102 44.386399,97.5997538 50.4799419,97.5997538 C65.2204803,97.5997538 77.1691231,85.6118161 77.1691231,70.8243043" opacity=".205"/>
      <path fill="#39BA91" fill-rule="nonzero" d="M50.5165766,13.5027335 C44.992715,13.5027335 40.514846,17.9799533 40.514846,23.502674 C40.514846,26.683051 42.0013461,29.5141341 44.3151158,31.3456313 L58.360671,17.3024524 C56.5289083,14.988678 53.6974147,13.5027335 50.5165766,13.5027335"/>
      <polygon fill="#074354" fill-rule="nonzero" points="51.126 108.504 49.679 108.504 50.367 0 50.355 0 51.126 108.504"/>
      <path fill="#074354" fill-rule="nonzero" d="M60.5188628,23.493979 C60.5188628,21.1478392 59.7097033,18.992387 58.3583798,17.2860725 L44.2965095,31.3462265 C46.0033728,32.6973852 48.1594287,33.5057649 50.5051738,33.5057649 C56.0351113,33.5057649 60.5188628,29.0232416 60.5188628,23.493979"/>
      <path stroke="#074354" stroke-width=".1" d="M20.257423,71.8539991 C20.257423,55.3411144 33.6458116,41.9549218 50.1614053,41.9549218 C66.6766642,41.9549218 80.0650528,55.3411144 80.0650528,71.8539991 C80.0650528,88.366549 66.6766642,101.752741 50.1614053,101.752741 C33.6458116,101.752741 20.257423,88.366549 20.257423,71.8539991 Z"/>
      <path fill="#B8D6DD" fill-rule="nonzero" d="M50.6425838,108.123473 C50.1573199,108.123473 49.6754376,108.138705 49.1965987,108.164431 C50.8644188,108.254811 52.4916593,108.497516 54.0637792,108.882053 C65.666829,111.718012 74.2788268,122.190548 74.2788268,134.678518 C74.2788268,137.399726 73.8689733,140.024122 73.1091209,142.496193 C72.2065638,145.434041 70.8092742,148.538283 69.0129522,150.944008 L71.9052606,150.944008 C73.7015826,148.538283 75.098534,145.434041 76.0014293,142.496193 C76.7609435,140.024122 77.1711352,137.399726 77.1711352,134.678518 C77.1711352,122.190548 68.5587992,111.718012 56.9560876,108.882053 C54.93252,108.387503 52.8183247,108.123473 50.6425838,108.123473 Z"/>
      <path fill="#43707D" fill-rule="nonzero" d="M69.0388187,150.942433 C70.8122337,148.474789 72.1922985,145.593494 73.0831798,142.579684 L25.8594538,142.579684 C26.7506691,145.593494 28.1304,148.474392 29.9038149,150.942036 L69.0388187,150.942433 Z" opacity=".6"/>
      <path fill="#074354" d="M54.2702836,108.899664 C52.7202347,108.51867 51.115839,108.277654 49.4714335,108.188028 C47.8270279,108.277654 46.2226323,108.51867 44.6722499,108.899664 C36.9383426,110.800939 30.5534347,116.163382 27.227281,123.263962 C25.6165505,126.739228 24.7413346,130.506869 24.7413346,134.480951 C24.7413346,137.17946 25.0646084,139.782301 25.8134598,142.233416 L73.1913068,142.233416 C73.9404915,139.782301 74.3121905,137.17946 74.3121905,134.480951 C74.3121905,122.097148 65.7104383,111.711631 54.2702836,108.899664 Z"/>
      <path fill="#E5E5E5" fill-rule="nonzero" d="M19.9536182,61.4470444 C19.9536182,60.2487802 20.9253367,59.2769622 22.1242231,59.2769622 C23.322776,59.2769622 24.2944945,60.2487802 24.2944945,61.4470444 C24.2944945,62.6453086 23.322776,63.6171266 22.1242231,63.6171266 C20.9253367,63.6171266 19.9536182,62.6453086 19.9536182,61.4470444"/>
      <path fill="#39BA91" fill-rule="nonzero" d="M61.2842625,45.2324146 C61.2842625,43.7673001 62.4716654,42.580092 63.9370203,42.580092 C65.401715,42.580092 66.5897781,43.7673001 66.5897781,45.2324146 C66.5897781,46.6975292 65.401715,47.8847373 63.9370203,47.8847373 C62.4716654,47.8847373 61.2842625,46.6975292 61.2842625,45.2324146"/>
      <g transform="translate(25.532 120.684)">
        <ellipse cx="7.508" cy="7.902" fill="#7DACBC" rx="1.976" ry="1.976"/>
        <ellipse cx="9.574" cy="2.523" fill="#7DACBC" rx="1.976" ry="1.976"/>
        <path fill="#EAF3F5" fill-rule="nonzero" d="M9.54514523,0.723999939 C8.55536156,0.723999939 7.74971729,1.52955676 7.74971729,2.51957123 C7.74971729,3.5093104 8.55536156,4.31514253 9.54514523,4.31514253 C10.5349289,4.31514253 11.3400227,3.5093104 11.3400227,2.51957123 C11.3400227,1.52955676 10.5349289,0.723999939 9.54514523,0.723999939 M9.54514523,4.66561206 C8.36186381,4.66561206 7.39932947,3.70312858 7.39932947,2.51957123 C7.39932947,1.3362892 8.36186381,0.373255101 9.54514523,0.373255101 C10.7284266,0.373255101 11.6906857,1.3362892 11.6906857,2.51957123 C11.6906857,3.70312858 10.7284266,4.66561206 9.54514523,4.66561206"/>
        <polygon fill="#EAF3F5" fill-rule="nonzero" points="2.094 2.344 7.602 2.344 7.602 2.787 1.94 2.787"/>
        <path fill="#EAF3F5" fill-rule="nonzero" d="M7.50437169,6.15090907 C6.51458803,6.15090907 5.70949425,6.9564659 5.70949425,7.94648037 C5.70949425,8.93621953 6.51458803,9.74205167 7.50437169,9.74205167 C8.49415536,9.74205167 9.29979963,8.93621953 9.29979963,7.94648037 C9.29979963,6.9564659 8.49415536,6.15090907 7.50437169,6.15090907 M7.50437169,10.0925212 C6.32109028,10.0925212 5.35883118,9.1297624 5.35883118,7.94648037 C5.35883118,6.76264772 6.32109028,5.80016424 7.50437169,5.80016424 C8.68765311,5.80016424 9.65018745,6.76264772 9.65018745,7.94648037 C9.65018745,9.1297624 8.68765311,10.0925212 7.50437169,10.0925212"/>
        <polygon fill="#EAF3F5" fill-rule="nonzero" points=".184 7.771 5.561 7.771 5.561 8.214 .089 8.214"/>
      </g>
      <rect width="50.794" height="1.22" x=".101" y="132.154" fill="#BADDE5" fill-rule="nonzero" opacity=".703"/>
    </g>
    <g transform="translate(195.277 117.452)">
      <path fill="#093749" d="M105.047581,162.36078 L44.868414,162.36078 L89.8773416,116.955017 C89.8773416,116.955017 150.836581,117.329858 150.556419,117.329858 L105.047581,162.36078 Z" opacity=".2" transform="matrix(-1 0 0 1 195.426 0)"/>
      <path fill="#E6F9FF" fill-opacity=".05" stroke="#E6F9FF" stroke-width=".1" d="M0.000910482797,83.5479605 C0.000910482797,42.5728279 33.0998522,9.35640138 73.9300579,9.35640138 C114.759453,9.35640138 147.859205,42.5728279 147.859205,83.5479605 C147.859205,124.523093 114.759453,157.73952 73.9300579,157.73952 C33.0998522,157.73952 0.000910482797,124.523093 0.000910482797,83.5479605 Z"/>
      <path fill="#A1D1E1" fill-rule="nonzero" d="M75.1121218,36.8408304 C66.4547261,36.8408304 59.4360902,43.8846792 59.4360902,52.5726803 C59.4360902,57.5752635 61.7656528,62.0292616 65.3925669,64.9100346 L87.406015,42.8187651 C84.5353902,39.1786285 80.0970823,36.8408304 75.1121218,36.8408304"/>
      <path fill="#D2EAF1" fill-rule="nonzero" d="M90.4885566,106.684441 C90.4885566,106.684441 90.7015471,107.031687 91.1275281,107.726179 L100.351004,99.5076687 C100.130365,99.228 99.854127,98.894317 99.5222898,98.5066197 C93.499801,103.9585 90.4885566,106.684441 90.4885566,106.684441 Z"/>
      <path stroke="#A9CAD3" stroke-width=".2" d="M61.7669173,68.0739316 C65.2616621,70.8505947 69.6755639,72.5121107 74.4788081,72.5121107 C85.8022199,72.5121107 94.981203,63.3004342 94.981203,51.9375059 C94.981203,47.1167462 93.3247719,42.6875306 90.5579636,39.1799308"/>
      <rect width="1.165" height="92.979" x="74.004" y="4.678" fill="#E5E5E5" fill-rule="nonzero"/>
      <path fill="#FFF" fill-rule="nonzero" d="M50.112782,54.1387924 C50.112782,60.2465433 52.2114396,65.8596812 55.71711,70.3029879 L92.197187,33.6930143 C87.769596,30.175311 82.1763115,28.0692042 76.0901634,28.0692042 C61.7435418,28.0692042 50.112782,39.7408369 50.112782,54.1387924" opacity=".2"/>
      <path fill="#FFF" fill-rule="nonzero" d="M90.7925713,52.552815 C90.7925713,48.864931 89.5251371,45.4757829 87.4086178,42.7923732 L65.3799553,64.8992265 C68.053874,67.0232584 71.4310348,68.2951914 75.1062745,68.2951914 C83.7693394,68.2951914 90.7925713,61.2470304 90.7925713,52.552815"/>
      <path stroke="#A9CAD3" stroke-width=".1" d="M92.7417295,31.3246967 C87.9643363,27.5287595 81.9297343,25.256659 75.3628595,25.256659 C59.8828645,25.256659 47.3341796,37.8498855 47.3341796,53.3848268 C47.3341796,59.9750107 49.598788,66.0304864 53.3812992,70.8253832"/>
      <path fill="#EBFAFF" fill-rule="nonzero" d="M56.2312741,116.962655 L80.6451897,116.955017 L91.1760041,107.677459 C88.0679975,102.136658 81.3937552,98.0212821 74.7890292,98.0212821 C64.5844282,98.0212821 56.2312741,106.529388 56.2312741,116.962655 Z"/>
      <path stroke="#A9CAD3" stroke-width=".1" d="M106.047654,92.772952 C109.156854,96.7933432 111.496972,101.416936 112.831805,106.329706 C114.20073,111.234331 114.525408,116.413471 113.919072,121.462685 C113.304618,126.515157 111.678792,131.441369 109.166594,135.864573 C106.659266,140.290628 103.276119,144.212861 99.2744599,147.342502 C95.2760474,150.476216 90.6579053,152.812857 85.7637868,154.160183 C80.8708857,155.507509 75.7129661,155.882626 70.6772067,155.253766 C65.639418,154.635902 60.7278479,153.004693 56.3154707,150.485177 C51.8974116,147.974621 47.9903149,144.569243 44.8721863,140.550074 C41.7528401,136.530904 39.4281439,131.893057 38.0880345,126.979472 C36.7418374,122.067108 36.3863147,116.890004 37.006856,111.83631 C37.625368,106.781802 39.2552528,101.854369 41.7711033,97.4323863 C44.2820836,93.0071456 47.6688834,89.086134 51.6721661,85.9593441 C55.6726078,82.8284812 60.2923733,80.4955058 65.1856801,79.1518455 C70.0785812,77.7943373 75.2328482,77.4615787 80.2682018,78.0615216 C85.3027437,78.6948625 90.2033558,80.3313666 94.6173564,82.8398854 C99.0167465,85.3752856 102.91735,88.7672234 106.047654,92.772952" opacity=".503"/>
      <path fill="#FFF" fill-rule="nonzero" d="M55.6482864,81.283737 C56.7747289,81.283737 57.6879699,82.2002196 57.6879699,83.3306604 C57.6879699,84.4611012 56.7747289,85.3771626 55.6482864,85.3771626 C54.5218439,85.3771626 53.6090226,84.4611012 53.6090226,83.3306604 C53.6090226,82.2002196 54.5218439,81.283737 55.6482864,81.283737 Z"/>
      <path fill="#D9F1F8" fill-rule="nonzero" d="M74.6028263,98.1117252 C84.3895102,98.1117252 90.5441812,106.61552 90.5151597,106.670628 L99.5499598,98.5457379 C98.2168692,96.7952144 96.2132317,94.5705748 94.5489913,93.1493864 C94.3112426,92.946655 94.0702593,92.7472335 93.8264456,92.5515356 C88.6820988,88.4245036 82.2010224,85.9619377 75.1571125,85.9619377 C73.8503036,85.9619377 72.5629028,86.0463402 71.2989534,86.2110077 C70.7939397,86.2763783 70.2925651,86.3549884 69.7948294,86.4460106 C69.0492367,86.5821303 68.3129437,86.7463841 67.5871634,86.9375309 C54.764506,90.3136292 45.2270657,102.065844 44.8781251,116.154849 C44.8716557,116.420882 44.8684211,116.687329 44.8684211,116.955017 L56.3021898,116.955017 C56.3021898,106.57517 64.8161424,98.1117252 74.6028263,98.1117252 Z"/>
      <path fill="#E6F5FA" fill-rule="nonzero" d="M80.6208813,116.955017 L93.2330827,116.955017 C94.2859367,116.946292 98.3648841,116.950163 105.469925,116.955017 C105.469925,115.899019 105.434236,114.855233 105.329867,113.826103 C105.320121,113.730436 105.290834,113.634769 105.280275,113.538695 C105.172659,112.572664 105.172199,111.620068 104.97727,110.683347 C104.956153,110.583202 104.942666,110.483297 104.919227,110.383727 C104.063871,106.750078 103.037238,103.32616 100.345278,99.4976036 L80.6208813,116.955017 Z"/>
      <path fill="#A1D1E1" fill-rule="nonzero" d="M74.6789803,5.75068722e-15 C72.053502,5.75068722e-15 69.924812,2.13624574 69.924812,4.77063857 C69.924812,6.11049643 70.4760375,7.32005099 71.3615467,8.18685121 L78.0827068,1.44183436 C77.2193756,0.553182028 76.0132927,0 74.6789803,0"/>
      <path fill="#FFF" fill-rule="nonzero" d="M74.6687096,9.53614548 C77.2955851,9.53614548 79.4257349,7.39843468 79.4257349,4.7618302 C79.4257349,3.46559753 78.9104477,2.29125365 78.0747704,1.43074305 L71.3490009,8.18038572 C72.2060644,9.01862429 73.3766582,9.53614548 74.6687096,9.53614548"/>
      <rect width="74.586" height="1.754" x="39.624" y="112.277" fill="#7DACBC" fill-rule="nonzero"/>
      <path stroke="#124354" stroke-width=".35" d="M20.3947368,126.896194 L121.203008,126.896194"/>
      <path stroke="#124354" stroke-width=".2" d="M46.0338346,110.522491 L106.052632,110.522491"/>
    </g>
    <g transform="translate(765.707 179.743)">
      <path fill="#093749" d="M65.6085774,100 L91.0230492,70.8333333 C90.5680035,70.8333333 162.376313,70.8333333 162.089245,70.8333333 L136.33746,100 L65.6085774,100 Z" opacity=".2" transform="matrix(-1 0 0 1 227.699 0)"/>
      <path fill="#E6F9FF" fill-rule="nonzero" d="M98.7835082,0 C95.9863131,0.150145643 93.2577378,0.556617275 90.6210716,1.19867655 C71.1633896,5.93655965 56.7216117,23.4347486 56.7216117,44.2991863 C56.7216117,54.2490312 60.0057999,63.4344605 65.5519484,70.8347328 L132.014652,70.8347328 C137.560801,63.4344605 140.845405,54.2490312 140.845405,44.2991863 C140.845405,23.4347486 126.403211,5.93655965 106.945529,1.19867655 C104.308863,0.556617275 101.580287,0.150145643 98.7835082,0 Z"/>
      <g fill="#BADDE5" fill-rule="nonzero" opacity=".7" transform="matrix(-1 0 0 1 80.604 70.833)">
        <path d="M79.5844472 6.16823708L19.7616508 6.16823708C19.3998369 6.16823708 19.1062271 5.87582637 19.1062271 5.51414957L19.1062271 3.63069276C19.1062271 3.26901596 19.3998369 2.97619048 19.7616508 2.97619048L79.5844472 2.97619048C79.9466769 2.97619048 80.2402867 3.26901596 80.2402867 3.63069276L80.2402867 5.51414957C80.2402867 5.87582637 79.9466769 6.16823708 79.5844472 6.16823708M40.8566822 2.15595871L.443325901 2.15595871C.198789663 2.15595871 0 1.95852964 0 1.71423189L0 .441726824C0 .197429078.198789663 0 .443325901 0L40.8566822 0C41.1012184 0 41.2995922.197429078 41.2995922.441726824L41.2995922 1.71423189C41.2995922 1.95852964 41.1012184 2.15595871 40.8566822 2.15595871"/>
      </g>
      <path fill="#B8D6DD" fill-rule="nonzero" d="M111.529721,1.26752786 C108.135325,0.44089729 104.590381,0 100.941884,0 C100.128011,0 99.3199597,0.0248860182 98.5164835,0.0688513171 C101.314095,0.21899696 104.04267,0.625468592 106.67892,1.26752786 C126.136186,6.00541097 140.57838,23.5035999 140.57838,44.3680376 C140.57838,54.3178825 137.294192,63.5033118 131.748043,70.9035841 L136.598012,70.9035841 C142.144161,63.5033118 145.428765,54.3178825 145.428765,44.3680376 C145.428765,23.5035999 130.986571,6.00541097 111.529721,1.26752786"/>
      <g transform="translate(57.916 22.024)">
        <ellipse cx="11.344" cy="11.905" fill="#7DACBC" rx="2.985" ry="2.976"/>
        <ellipse cx="14.466" cy="3.801" fill="#7DACBC" rx="2.985" ry="2.976"/>
        <path fill="#124354" fill-rule="nonzero" d="M14.4220781,1.09073898 C12.9265809,1.09073898 11.7093062,2.30434714 11.7093062,3.79584916 C11.7093062,5.28693642 12.9265809,6.50095935 14.4220781,6.50095935 C15.9175752,6.50095935 17.1340182,5.28693642 17.1340182,3.79584916 C17.1340182,2.30434714 15.9175752,1.09073898 14.4220781,1.09073898 M14.4220781,7.0289577 C12.6342187,7.0289577 11.1798935,5.57893237 11.1798935,3.79584916 C11.1798935,2.01318072 12.6342187,0.562325861 14.4220781,0.562325861 C16.2099374,0.562325861 17.6638467,2.01318072 17.6638467,3.79584916 C17.6638467,5.57893237 16.2099374,7.0289577 14.4220781,7.0289577"/>
        <polygon fill="#124354" fill-rule="nonzero" points="3.163 3.532 11.486 3.532 11.486 4.06 2.931 4.06"/>
        <path fill="#124354" fill-rule="nonzero" d="M11.3386053,9.26662551 C9.84310819,9.26662551 8.62666516,10.4802337 8.62666516,11.9717357 C8.62666516,13.4628229 9.84310819,14.6768459 11.3386053,14.6768459 C12.8341024,14.6768459 14.0513772,13.4628229 14.0513772,11.9717357 C14.0513772,10.4802337 12.8341024,9.26662551 11.3386053,9.26662551 M11.3386053,15.2048442 C9.55074598,15.2048442 8.09683665,13.7544041 8.09683665,11.9717357 C8.09683665,10.1882377 9.55074598,8.73821239 11.3386053,8.73821239 C13.1264647,8.73821239 14.5807899,10.1882377 14.5807899,11.9717357 C14.5807899,13.7544041 13.1264647,15.2048442 11.3386053,15.2048442"/>
        <polygon fill="#124354" fill-rule="nonzero" points=".278 11.708 8.403 11.708 8.403 12.236 .135 12.236"/>
      </g>
    </g>
  </g>
</svg>
