<svg xmlns="http://www.w3.org/2000/svg" width="250" height="250" viewBox="0 0 250 250" xmlns:xlink="http://www.w3.org/1999/xlink">
  <defs>
    <rect id="a" width="250" height="250"/>
  </defs>
  <g fill="none" fill-rule="evenodd">
    <mask id="b" fill="white">
      <use xlink:href="#a"/>
    </mask>
    <use fill="#FFFFFF" fill-rule="nonzero" xlink:href="#a"/>
    <g transform="rotate(-14 329.47 30.763)" mask="url(#b)">
      <path fill="#231F20" fill-rule="nonzero" d="M113.474775,143.00975 C113.513395,143.053705 113.554103,143.093822 113.598291,143.136032 C113.554103,143.093822 113.513395,143.053705 113.474775,143.00975 M179.851638,7.40679845 C179.94384,5.56106534 180.012382,3.70661114 179.998117,1.85669191 C179.983852,0.376896061 178.465474,-0.464166595 177.178818,0.269800982 C176.688929,0.548876107 176.26132,0.958418852 175.855282,1.35958934 C173.056512,4.11894464 170.375342,7.00318605 167.459666,9.62823644 C162.869738,13.7595948 157.696674,16.9909359 151.788081,18.939578 C145.539905,21.0005478 139.097583,21.4700917 132.586718,21.2119472 C129.408005,21.0877587 126.23973,20.6900767 123.06206,20.4692585 C120.972029,20.3203021 118.872255,20.3035576 116.782571,20.1668108 C113.904124,19.9770397 111.034027,19.6376146 108.153492,19.5298219 C104.881532,19.4063311 101.600875,19.4963328 98.3212612,19.4443551 C92.0323774,19.3431904 85.7887249,19.8137808 79.5823012,20.8188001 C74.2425779,21.6846307 69.029502,23.0248889 64.0491932,25.145511 C58.9338865,27.3233435 54.2653254,30.2177014 50.270362,34.1502188 C47.906855,36.4822403 45.8227381,39.028452 44.1457024,41.8959489 C40.6263631,47.9002502 39.0624055,54.4811904 38.5408544,61.3478339 C38.3895037,63.3414768 38.5050173,65.3570969 38.4942314,67.361554 C38.4761389,71.0680205 38.9848165,74.7235557 39.592655,78.3672303 C41.0045659,86.8751843 43.5242946,95.0674346 46.7221442,103.056658 C47.9002443,105.993575 49.1921185,108.884793 50.4881678,111.768685 C52.2671478,115.730157 54.1125829,119.658488 55.9103512,123.611587 C57.6030439,127.32817 59.2685977,131.05487 60.958159,134.77215 C61.1255146,135.139483 61.0781958,135.378092 60.8381222,135.704261 C60.0751058,136.745909 59.3319215,137.806395 58.6524089,138.903857 C58.4032891,139.307819 58.1131132,139.445961 57.6914188,139.553405 C56.6886767,139.810852 55.6636669,140.052949 54.7155503,140.458306 C51.71811,141.732982 49.4638539,143.912558 47.5425695,146.505166 C46.7364094,147.588675 46.3856932,148.748232 46.231907,150.059537 C45.8571834,153.20576 45.5238639,156.3621 44.9567336,159.47309 C43.9327676,165.099244 42.7181345,170.686328 41.1754009,176.189689 C40.3741118,179.065559 39.514718,181.926776 38.5728642,184.75904 C37.4953166,187.983055 36.3391362,191.182652 35.1192841,194.35748 C34.6523584,195.575294 34.3948882,196.779154 34.4338567,198.05976 C34.452993,198.659423 34.5131853,199.254551 34.5382365,199.663047 C34.2480606,199.969681 33.997897,200.124219 33.9067386,200.344339 C33.6329156,201.004701 33.4203287,201.690877 33.1656419,202.412286 C33.2404475,202.455543 33.3639636,202.524614 33.5414093,202.627523 C33.2505375,203.099857 33.046301,203.627309 32.6691419,203.957316 C32.4819541,204.12197 31.9774517,203.896268 31.6152538,203.900105 C31.2714962,203.905338 30.9256511,203.95906 30.5892002,204.02534 C27.8975927,204.568141 25.4735455,205.730838 23.2238126,207.274123 C19.1011579,210.100108 16.0007295,213.864482 13.4528183,218.112355 C12.4758232,219.747037 11.6261716,221.465093 10.7149358,223.142684 C12.0120289,222.785119 13.0826179,221.949638 14.5181883,222.256271 C14.4033705,222.443601 14.3188228,222.598836 14.2200099,222.745699 C10.7740843,227.878937 8.31211248,233.448928 6.72693104,239.433345 C5.3331126,244.686237 3.76393607,249.889941 1.69721577,254.92655 C1.15792006,256.24518 0.601227726,257.553693 0,259 C0.315227037,258.83116 0.509025557,258.724762 0.703519943,258.621504 C2.50929072,257.639858 4.28235581,256.591582 6.12744298,255.68982 C10.5886362,253.513034 15.103759,251.448227 19.5524267,249.248069 C23.2704356,247.412452 26.3722557,244.833449 28.4821197,241.1821 C28.5193485,241.117913 28.594502,241.073609 28.7510717,240.929188 C28.8070889,243.093067 27.7483296,244.713796 26.8433566,246.416503 C30.9983691,243.711218 34.9143517,240.774999 37.1599095,236.115142 C37.2465447,236.15805 37.3345717,236.206539 37.420859,236.249447 C37.0541379,237.774593 36.6874168,239.299738 36.3161726,240.82 L36.448735,240.93477 C38.4180341,238.87973 40.3894209,236.821551 42.364287,234.765116 C42.8051177,235.088843 43.2466443,235.41571 43.6860833,235.746065 C45.4591484,237.078649 47.2729216,238.33972 49.2871041,239.294505 C54.4177199,241.723157 59.8044141,242.852364 65.4764132,242.634686 C65.7352751,242.625267 66.0605922,242.652477 66.2467362,242.797945 C66.620068,243.094811 66.9074604,243.49633 67.2501741,243.834709 C69.1168331,245.686721 70.9897549,247.53978 73.2565365,248.911085 C74.2731959,249.525748 75.3458725,250.04727 76.3997607,250.597746 C77.0382172,250.931938 77.670063,251.318806 78.3488797,251.545903 C79.4664396,251.919864 80.6194886,252.190916 81.7610558,252.486038 C82.1834461,252.595226 82.6141868,252.69046 83.0452755,252.730926 C85.2664779,252.943721 87.4678481,252.812904 89.6281624,252.226498 C91.4589843,251.731488 93.2484022,251.103569 94.6829288,249.79994 C95.7576929,248.82213 96.6577949,247.698504 97.37558,246.407433 C98.3306553,244.691121 99.0553992,242.877132 99.2954727,240.9557 C99.5345025,239.064617 99.5035365,237.128882 99.4607408,235.217218 C99.397765,232.588679 98.7899265,230.034444 97.7631771,227.640677 C96.6772791,225.094465 95.3457406,222.683256 93.5232691,220.536471 C91.5710186,218.241078 89.226648,216.511161 86.6039312,215.121367 C85.9505136,214.776012 85.1655774,214.69194 84.4599699,214.433098 C83.6844278,214.148093 82.9687303,213.918902 82.5748704,212.950511 C80.8025012,208.632173 77.9017862,205.225014 73.921088,202.764269 C73.7554721,202.66136 73.6027296,202.527753 73.4026683,202.373913 C77.4136366,196.727874 82.0620176,191.825222 87.7750727,187.931078 C88.5179091,191.32812 87.6181551,194.576205 87.4180938,198.051737 C92.3093318,195.798903 96.3029035,192.670471 99.790581,189.154124 C100.931104,190.376822 102.045533,191.582078 103.173879,192.771636 C103.42439,193.035362 103.696474,193.356647 104.015876,193.451532 C104.649809,193.63328 105.320971,193.7177 105.977868,193.760957 C108.012579,193.894564 110.039983,193.843284 112.04825,193.439323 C112.259446,193.39781 112.662004,193.557232 112.74516,193.733747 C113.760427,195.835532 115.077701,197.720684 116.738731,199.353971 C120.21771,202.768455 124.298613,204.762796 129.260482,204.257321 C132.962834,203.879872 136.026729,202.135653 137.962279,198.898032 C139.62992,196.108676 140.537677,193.02385 140.373452,189.703205 C140.302474,188.223409 140.297603,186.723031 139.613567,185.36568 C138.526626,183.19587 136.635611,181.870961 134.462424,181.073504 C131.327202,179.923366 128.063941,179.259167 124.699432,179.383704 C123.531074,179.426612 122.352974,179.589522 121.202708,179.823596 C119.987379,180.071624 119.569512,180.810127 119.774444,182.003871 C119.840551,182.386553 119.895177,182.781095 119.897264,183.1718 C119.904571,185.490217 119.206966,187.495372 117.06544,188.648301 C116.214049,189.111914 115.205044,189.313895 114.240922,189.524597 C111.340207,190.171702 108.427663,190.764388 105.566264,191.367539 C104.817513,189.419943 103.080633,188.300503 102.071976,186.75059 C102.953985,185.445216 103.884705,184.211006 104.667902,182.884004 C105.51651,181.443279 106.420439,180.062903 107.696656,178.964743 C108.074511,178.637527 108.478461,178.318335 108.922771,178.093331 C112.226044,176.402484 115.66849,174.963154 118.650274,172.687297 C121.390592,170.596675 124.226939,168.573729 126.257822,165.749838 C128.251477,162.978273 130.028021,160.045194 131.830661,157.141068 C133.034508,155.198705 134.108228,153.173666 135.268584,151.203396 C136.095968,149.795462 137.408022,149.470339 138.850899,150.253145 C139.071488,150.371403 139.29834,150.479196 139.531455,150.576175 C142.571343,151.842129 145.731964,152.100274 148.953821,151.632125 C153.223999,151.008741 156.794833,149.218474 159.183043,145.428983 C162.003385,140.954362 164.134821,136.159502 166.001828,131.227896 C166.174055,130.772306 166.116994,130.390322 165.815336,130.013919 C164.779193,128.742383 163.781669,127.436312 162.717343,126.193381 C159.884127,122.882503 156.763519,119.865352 153.405272,117.09309 C153.217041,116.938901 153.060819,116.601569 153.078563,116.365053 C153.188162,114.966538 153.418494,113.571162 153.485993,112.171949 C153.629341,109.238172 153.711453,106.299511 153.787998,103.362943 C153.79948,102.95654 153.924388,102.760489 154.285542,102.585021 C156.753777,101.386393 158.853551,99.7178727 160.561552,97.5613197 C162.659239,94.9090595 163.99704,91.895397 164.756577,88.6155666 C165.418345,85.7564419 165.653547,82.8519676 165.173052,79.9534236 C164.656024,76.8389452 163.971293,73.748537 163.335272,70.6508031 C162.974118,68.9062348 161.128335,68.3456426 159.73556,69.4570593 C158.858422,70.1624217 158.700112,71.1196494 158.523362,72.08804 C158.045303,74.6904156 157.051955,77.0730194 155.561063,79.2431774 C154.413581,80.9148374 152.836054,81.9645087 150.799256,82.4183546 C150.625638,82.0377659 150.47707,81.6505492 150.275965,81.2919376 C150.055028,80.891116 150.140272,80.6151805 150.413399,80.2440105 C153.407012,76.1712579 156.432983,72.1169941 159.333002,67.9734262 C161.092498,65.4600058 162.592087,62.7700705 164.302525,60.2186261 C166.919675,56.3195978 169.266829,52.2639386 171.275096,48.0195548 C174.316028,41.5837336 176.566109,34.884884 177.812056,27.8657958 C178.334999,24.9145764 178.891691,21.9539382 179.175604,18.9734158 C179.538846,15.1319467 179.658187,11.2657097 179.851638,7.40679845"/>
      <path stroke="#FFFFFF" stroke-width="8.88" d="M113.474775,143.00975 C113.513395,143.053705 113.554103,143.093822 113.598291,143.136032 C113.554103,143.093822 113.513395,143.053705 113.474775,143.00975 Z M179.851638,7.40679845 C179.94384,5.56106534 180.012382,3.70661114 179.998117,1.85669191 C179.983852,0.376896061 178.465474,-0.464166595 177.178818,0.269800982 C176.688929,0.548876107 176.26132,0.958418852 175.855282,1.35958934 C173.056512,4.11894464 170.375342,7.00318605 167.459666,9.62823644 C162.869738,13.7595948 157.696674,16.9909359 151.788081,18.939578 C145.539905,21.0005478 139.097583,21.4700917 132.586718,21.2119472 C129.408005,21.0877587 126.23973,20.6900767 123.06206,20.4692585 C120.972029,20.3203021 118.872255,20.3035576 116.782571,20.1668108 C113.904124,19.9770397 111.034027,19.6376146 108.153492,19.5298219 C104.881532,19.4063311 101.600875,19.4963328 98.3212612,19.4443551 C92.0323774,19.3431904 85.7887249,19.8137808 79.5823012,20.8188001 C74.2425779,21.6846307 69.029502,23.0248889 64.0491932,25.145511 C58.9338865,27.3233435 54.2653254,30.2177014 50.270362,34.1502188 C47.906855,36.4822403 45.8227381,39.028452 44.1457024,41.8959489 C40.6263631,47.9002502 39.0624055,54.4811904 38.5408544,61.3478339 C38.3895037,63.3414768 38.5050173,65.3570969 38.4942314,67.361554 C38.4761389,71.0680205 38.9848165,74.7235557 39.592655,78.3672303 C41.0045659,86.8751843 43.5242946,95.0674346 46.7221442,103.056658 C47.9002443,105.993575 49.1921185,108.884793 50.4881678,111.768685 C52.2671478,115.730157 54.1125829,119.658488 55.9103512,123.611587 C57.6030439,127.32817 59.2685977,131.05487 60.958159,134.77215 C61.1255146,135.139483 61.0781958,135.378092 60.8381222,135.704261 C60.0751058,136.745909 59.3319215,137.806395 58.6524089,138.903857 C58.4032891,139.307819 58.1131132,139.445961 57.6914188,139.553405 C56.6886767,139.810852 55.6636669,140.052949 54.7155503,140.458306 C51.71811,141.732982 49.4638539,143.912558 47.5425695,146.505166 C46.7364094,147.588675 46.3856932,148.748232 46.231907,150.059537 C45.8571834,153.20576 45.5238639,156.3621 44.9567336,159.47309 C43.9327676,165.099244 42.7181345,170.686328 41.1754009,176.189689 C40.3741118,179.065559 39.514718,181.926776 38.5728642,184.75904 C37.4953166,187.983055 36.3391362,191.182652 35.1192841,194.35748 C34.6523584,195.575294 34.3948882,196.779154 34.4338567,198.05976 C34.452993,198.659423 34.5131853,199.254551 34.5382365,199.663047 C34.2480606,199.969681 33.997897,200.124219 33.9067386,200.344339 C33.6329156,201.004701 33.4203287,201.690877 33.1656419,202.412286 C33.2404475,202.455543 33.3639636,202.524614 33.5414093,202.627523 C33.2505375,203.099857 33.046301,203.627309 32.6691419,203.957316 C32.4819541,204.12197 31.9774517,203.896268 31.6152538,203.900105 C31.2714962,203.905338 30.9256511,203.95906 30.5892002,204.02534 C27.8975927,204.568141 25.4735455,205.730838 23.2238126,207.274123 C19.1011579,210.100108 16.0007295,213.864482 13.4528183,218.112355 C12.4758232,219.747037 11.6261716,221.465093 10.7149358,223.142684 C12.0120289,222.785119 13.0826179,221.949638 14.5181883,222.256271 C14.4033705,222.443601 14.3188228,222.598836 14.2200099,222.745699 C10.7740843,227.878937 8.31211248,233.448928 6.72693104,239.433345 C5.3331126,244.686237 3.76393607,249.889941 1.69721577,254.92655 C1.15792006,256.24518 0.601227726,257.553693 0,259 C0.315227037,258.83116 0.509025557,258.724762 0.703519943,258.621504 C2.50929072,257.639858 4.28235581,256.591582 6.12744298,255.68982 C10.5886362,253.513034 15.103759,251.448227 19.5524267,249.248069 C23.2704356,247.412452 26.3722557,244.833449 28.4821197,241.1821 C28.5193485,241.117913 28.594502,241.073609 28.7510717,240.929188 C28.8070889,243.093067 27.7483296,244.713796 26.8433566,246.416503 C30.9983691,243.711218 34.9143517,240.774999 37.1599095,236.115142 C37.2465447,236.15805 37.3345717,236.206539 37.420859,236.249447 C37.0541379,237.774593 36.6874168,239.299738 36.3161726,240.82 L36.448735,240.93477 C38.4180341,238.87973 40.3894209,236.821551 42.364287,234.765116 C42.8051177,235.088843 43.2466443,235.41571 43.6860833,235.746065 C45.4591484,237.078649 47.2729216,238.33972 49.2871041,239.294505 C54.4177199,241.723157 59.8044141,242.852364 65.4764132,242.634686 C65.7352751,242.625267 66.0605922,242.652477 66.2467362,242.797945 C66.620068,243.094811 66.9074604,243.49633 67.2501741,243.834709 C69.1168331,245.686721 70.9897549,247.53978 73.2565365,248.911085 C74.2731959,249.525748 75.3458725,250.04727 76.3997607,250.597746 C77.0382172,250.931938 77.670063,251.318806 78.3488797,251.545903 C79.4664396,251.919864 80.6194886,252.190916 81.7610558,252.486038 C82.1834461,252.595226 82.6141868,252.69046 83.0452755,252.730926 C85.2664779,252.943721 87.4678481,252.812904 89.6281624,252.226498 C91.4589843,251.731488 93.2484022,251.103569 94.6829288,249.79994 C95.7576929,248.82213 96.6577949,247.698504 97.37558,246.407433 C98.3306553,244.691121 99.0553992,242.877132 99.2954727,240.9557 C99.5345025,239.064617 99.5035365,237.128882 99.4607408,235.217218 C99.397765,232.588679 98.7899265,230.034444 97.7631771,227.640677 C96.6772791,225.094465 95.3457406,222.683256 93.5232691,220.536471 C91.5710186,218.241078 89.226648,216.511161 86.6039312,215.121367 C85.9505136,214.776012 85.1655774,214.69194 84.4599699,214.433098 C83.6844278,214.148093 82.9687303,213.918902 82.5748704,212.950511 C80.8025012,208.632173 77.9017862,205.225014 73.921088,202.764269 C73.7554721,202.66136 73.6027296,202.527753 73.4026683,202.373913 C77.4136366,196.727874 82.0620176,191.825222 87.7750727,187.931078 C88.5179091,191.32812 87.6181551,194.576205 87.4180938,198.051737 C92.3093318,195.798903 96.3029035,192.670471 99.790581,189.154124 C100.931104,190.376822 102.045533,191.582078 103.173879,192.771636 C103.42439,193.035362 103.696474,193.356647 104.015876,193.451532 C104.649809,193.63328 105.320971,193.7177 105.977868,193.760957 C108.012579,193.894564 110.039983,193.843284 112.04825,193.439323 C112.259446,193.39781 112.662004,193.557232 112.74516,193.733747 C113.760427,195.835532 115.077701,197.720684 116.738731,199.353971 C120.21771,202.768455 124.298613,204.762796 129.260482,204.257321 C132.962834,203.879872 136.026729,202.135653 137.962279,198.898032 C139.62992,196.108676 140.537677,193.02385 140.373452,189.703205 C140.302474,188.223409 140.297603,186.723031 139.613567,185.36568 C138.526626,183.19587 136.635611,181.870961 134.462424,181.073504 C131.327202,179.923366 128.063941,179.259167 124.699432,179.383704 C123.531074,179.426612 122.352974,179.589522 121.202708,179.823596 C119.987379,180.071624 119.569512,180.810127 119.774444,182.003871 C119.840551,182.386553 119.895177,182.781095 119.897264,183.1718 C119.904571,185.490217 119.206966,187.495372 117.06544,188.648301 C116.214049,189.111914 115.205044,189.313895 114.240922,189.524597 C111.340207,190.171702 108.427663,190.764388 105.566264,191.367539 C104.817513,189.419943 103.080633,188.300503 102.071976,186.75059 C102.953985,185.445216 103.884705,184.211006 104.667902,182.884004 C105.51651,181.443279 106.420439,180.062903 107.696656,178.964743 C108.074511,178.637527 108.478461,178.318335 108.922771,178.093331 C112.226044,176.402484 115.66849,174.963154 118.650274,172.687297 C121.390592,170.596675 124.226939,168.573729 126.257822,165.749838 C128.251477,162.978273 130.028021,160.045194 131.830661,157.141068 C133.034508,155.198705 134.108228,153.173666 135.268584,151.203396 C136.095968,149.795462 137.408022,149.470339 138.850899,150.253145 C139.071488,150.371403 139.29834,150.479196 139.531455,150.576175 C142.571343,151.842129 145.731964,152.100274 148.953821,151.632125 C153.223999,151.008741 156.794833,149.218474 159.183043,145.428983 C162.003385,140.954362 164.134821,136.159502 166.001828,131.227896 C166.174055,130.772306 166.116994,130.390322 165.815336,130.013919 C164.779193,128.742383 163.781669,127.436312 162.717343,126.193381 C159.884127,122.882503 156.763519,119.865352 153.405272,117.09309 C153.217041,116.938901 153.060819,116.601569 153.078563,116.365053 C153.188162,114.966538 153.418494,113.571162 153.485993,112.171949 C153.629341,109.238172 153.711453,106.299511 153.787998,103.362943 C153.79948,102.95654 153.924388,102.760489 154.285542,102.585021 C156.753777,101.386393 158.853551,99.7178727 160.561552,97.5613197 C162.659239,94.9090595 163.99704,91.895397 164.756577,88.6155666 C165.418345,85.7564419 165.653547,82.8519676 165.173052,79.9534236 C164.656024,76.8389452 163.971293,73.748537 163.335272,70.6508031 C162.974118,68.9062348 161.128335,68.3456426 159.73556,69.4570593 C158.858422,70.1624217 158.700112,71.1196494 158.523362,72.08804 C158.045303,74.6904156 157.051955,77.0730194 155.561063,79.2431774 C154.413581,80.9148374 152.836054,81.9645087 150.799256,82.4183546 C150.625638,82.0377659 150.47707,81.6505492 150.275965,81.2919376 C150.055028,80.891116 150.140272,80.6151805 150.413399,80.2440105 C153.407012,76.1712579 156.432983,72.1169941 159.333002,67.9734262 C161.092498,65.4600058 162.592087,62.7700705 164.302525,60.2186261 C166.919675,56.3195978 169.266829,52.2639386 171.275096,48.0195548 C174.316028,41.5837336 176.566109,34.884884 177.812056,27.8657958 C178.334999,24.9145764 178.891691,21.9539382 179.175604,18.9734158 C179.538846,15.1319467 179.658187,11.2657097 179.851638,7.40679845 L179.851638,7.40679845 Z"/>
      <path fill="#231F20" fill-rule="nonzero" d="M159.767631,134.726386 C158.463236,137.291778 157.166496,139.864147 155.777554,142.383143 C154.817612,144.137127 153.262706,145.192726 151.372395,145.835993 C149.204435,146.574842 147.012816,146.943918 144.727603,146.694147 C143.239501,146.528097 141.799413,146.20472 140.424388,145.484708 C140.496758,145.329821 140.537814,145.201447 140.611227,145.094352 C141.29526,144.116196 141.969899,143.125133 142.685942,142.165465 C142.836596,141.965578 143.148691,141.752086 143.381805,141.758714 C147.483915,141.899647 150.173076,139.787053 151.923867,136.297924 C154.177418,131.800988 152.355649,126.647528 147.827323,124.484352 C144.920357,123.098399 141.245158,123.622361 138.830515,125.739839 C137.584921,126.829625 136.442314,127.979411 135.83761,129.568392 C135.78716,129.705487 135.665036,129.82235 135.522732,130.020144 C135.310494,129.809442 135.134092,129.643044 134.969173,129.464437 C133.742367,128.153833 132.51069,126.847764 131.300585,125.520416 C131.142276,125.343204 131.006235,125.02471 131.043116,124.804241 C131.214646,123.782829 131.387916,122.758277 131.676003,121.768958 C132.285579,119.669969 132.947692,117.587026 133.619547,115.507573 C134.079513,114.083944 134.117089,114.055688 135.458712,114.628139 C138.731354,116.024209 141.809155,117.779588 144.766571,119.75997 C147.64953,121.685235 150.408626,123.775852 152.891812,126.193684 C155.168326,128.41093 157.287924,130.793878 159.457972,133.118219 C159.875489,133.568925 160.057805,134.160911 159.767631,134.726386 M146.940098,132.138319 C146.944273,131.041556 146.257109,130.278288 145.35214,129.880258 C144.412029,129.461995 143.352578,129.54188 142.582258,130.332707 C141.991123,130.939694 141.47027,130.956439 140.843646,130.498756 C139.886834,129.804559 138.837474,129.382458 137.613103,129.473506 C138.401864,126.977534 142.150128,125.278319 144.808671,125.779956 C149.933004,126.747646 151.649001,130.855274 151.090571,134.123236 C150.432981,137.929463 147.45956,139.877752 144.005993,139.725308 C144.072796,138.729012 144.192485,137.727832 144.186918,136.730141 C144.18483,136.170945 144.262419,135.900243 144.834418,135.614192 C146.21327,134.921738 146.935575,133.704625 146.940098,132.138319 M139.600487,142.952107 C138.366722,144.288873 136.66499,144.974699 134.783378,145.471103 C135.004662,144.692485 135.184195,143.994101 135.403391,143.309322 C135.902325,141.727667 136.457623,140.166943 136.914109,138.57273 C137.128783,137.825857 137.565089,137.458874 138.280088,137.483642 C139.322838,137.522364 140.192666,137.339919 140.582349,136.2149 C140.622709,136.095595 140.755619,136.008733 140.837383,135.911406 C140.326968,134.956274 138.743532,134.602198 137.842042,135.115346 C136.108648,136.098386 135.619109,137.816089 135.05372,139.529956 C133.352684,144.66667 131.93556,149.910829 129.561276,154.80754 C127.346346,159.369012 124.700328,163.643387 120.869952,167.022979 C118.153652,169.41674 114.961034,170.94851 111.460845,171.970272 C109.294972,172.603422 107.264445,172.227718 105.190426,171.903294 C101.418503,171.312354 97.7561778,170.301058 94.2904338,168.664983 C91.0564121,167.144027 88.1685821,165.145156 85.8294398,162.411971 C83.3535604,159.516573 82.0449907,156.091282 81.3814857,152.395987 C80.9667515,150.090832 80.7917421,147.763351 81.1177537,145.421567 C81.1476758,145.196912 81.1379337,144.958652 81.1073158,144.732253 C81.0624326,144.395271 80.8968173,144.258873 80.5294018,144.366665 C77.9460117,145.111794 75.487181,146.142626 73.1556932,147.482532 C73.0043431,147.567999 72.9211875,147.774165 72.8049784,147.922772 C73.0050389,147.953121 73.2162332,148.04696 73.3978534,148.007192 C74.1827865,147.832422 74.960413,147.620325 75.8037985,147.406135 C75.8378958,148.432083 75.8445065,149.390355 75.90783,150.345487 C76.399109,157.710263 79.7476001,163.365708 86.1791108,166.988792 C92.0069605,170.274546 98.1820457,172.669354 104.892945,173.451809 C105.388399,173.508321 105.873416,173.615765 106.364347,173.700534 C106.380352,173.771698 106.393225,173.843211 106.409926,173.917165 C105.862978,174.082168 105.324032,174.368219 104.771517,174.390197 C103.296984,174.44357 101.814797,174.435197 100.341655,174.358452 C94.132473,174.049377 88.0217551,173.108896 82.1472825,171.030489 C76.8027094,169.137666 71.7399606,166.660531 67.3055758,163.039539 C63.9233354,160.279493 61.4940789,156.884203 60.4527204,152.571455 C59.811483,149.902457 59.9621372,147.276715 60.8023914,144.670508 C61.5222613,142.433726 62.5806684,140.373807 63.9866589,138.491101 C67.6827334,133.552529 72.5297647,130.258055 78.3871887,128.476862 C80.7691265,127.752663 83.2227383,127.475682 85.6516469,128.388256 C85.9526075,128.503025 86.2413905,128.651283 86.542699,128.768843 C87.8088211,129.271526 88.7451043,129.989097 88.4684989,131.5711 C88.4361413,131.754243 88.5600048,132.127156 88.6466397,132.136924 C88.9228972,132.17111 89.3296289,132.176343 89.4736725,132.008201 C89.7179203,131.720056 89.912066,131.300747 89.9343336,130.924345 C90.0484551,129.082105 90.1378734,127.249283 90.6966511,125.46495 C92.2901766,120.37498 95.5788235,117.147135 100.87399,116.136886 C104.004329,115.539666 106.767947,116.52445 109.310977,118.26727 C112.117739,120.188698 113.616627,123.000374 114.533426,126.184614 C114.669468,126.647877 114.831952,127.121955 114.848304,127.598824 C114.876487,128.265463 115.248773,128.321975 115.759884,128.313952 C116.268212,128.306975 116.493672,128.104995 116.514895,127.56673 C116.569173,126.074379 116.117558,124.687728 115.57061,123.34817 C115.109949,122.219663 114.450271,121.178017 113.910629,120.080208 C113.80799,119.863925 113.750929,119.539152 113.838956,119.3288 C115.082462,116.35561 115.825991,113.251604 116.21985,110.063876 C116.518027,107.642207 116.727481,105.202398 116.972425,102.771311 C116.98669,102.634913 116.999912,102.492934 116.998868,102.354792 C116.991909,101.170818 116.932761,101.006164 115.784587,100.697438 C112.45906,99.8002138 109.136316,98.8572909 105.773559,98.123325 C102.656095,97.4441274 99.4972261,96.9564448 96.3407931,96.4893438 C91.8904035,95.8310769 87.4055687,95.5160716 82.9075125,95.4543263 C80.4003193,95.4176978 77.8931262,95.4592101 75.3852372,95.4766523 C74.9844203,95.4822338 74.5811679,95.5453744 74.0185629,95.597352 C74.27638,94.5166361 74.499404,93.5660386 74.7297345,92.6192784 C75.4885728,89.5173654 76.5956902,86.5382453 77.9508828,83.6581965 C78.3739673,82.758879 78.3475245,82.8052751 79.2267469,83.2762133 C81.172031,84.3098355 83.0776509,85.4770645 85.1314895,86.2434728 C87.094866,86.9739503 89.207853,87.6130309 91.2738692,87.6719854 C94.9862965,87.7822198 98.4600429,86.7737144 101.232708,84.0304121 C103.086138,82.1934043 104.212392,79.9827855 104.504654,77.4153002 C104.68523,75.8109708 104.292416,74.2401302 103.695713,72.7031275 C102.468908,69.5502835 100.108889,67.8189751 96.9587192,67.0159383 C95.9528497,66.756399 94.9184499,66.6039546 93.8962276,66.4061605 C93.8871814,66.327322 93.8746559,66.2463904 93.8607386,66.1720868 C94.9452406,65.5916118 96.002256,64.9525313 97.1187676,64.4477553 C98.9631516,63.6094853 100.815538,62.7687734 102.722897,62.0996923 C105.456942,61.1424668 107.836444,61.9929463 109.718057,64.0577487 C112.412785,67.0204732 115.27452,69.7878456 118.487318,72.1721883 C121.320871,74.2729215 124.372576,75.9871365 127.855021,76.7308701 C132.313761,77.6790256 136.553304,77.1990175 140.379505,74.4888554 C141.047185,74.0112892 141.471314,74.0932673 142.062449,74.8673502 C142.507105,75.4520112 142.925319,76.0739985 143.253418,76.7291258 C144.388022,78.9976526 145.605086,81.237923 146.559461,83.5849395 C147.753214,86.5235939 148.2264,89.6645772 148.596947,92.8034675 C149.088922,96.9690031 149.261844,101.154074 149.072569,105.342982 C148.949054,108.015469 148.683234,110.681328 148.475519,113.35242 C148.462994,113.49719 148.396539,113.641262 148.326953,113.89801 C148.033299,113.708937 147.804708,113.571842 147.587599,113.422537 C143.866125,110.819819 139.874309,108.731993 135.627807,107.140222 C134.653947,106.775681 134.216945,106.938242 133.821695,107.929305 C133.113655,109.705614 132.419184,111.487156 131.800214,113.293814 C131.054598,115.468502 130.329509,117.652609 129.714018,119.864274 C129.268666,121.455696 129.021287,123.102236 128.666745,124.71738 C128.488256,125.520765 128.766601,126.146939 129.404011,126.57776 C130.933518,127.617312 132.045158,129.070244 133.267789,130.421313 C133.570837,130.758296 133.82935,131.073999 133.539175,131.582263 C133.45254,131.740987 133.613633,132.040643 133.661995,132.277507 C133.862056,132.229716 134.089951,132.228669 134.260785,132.125761 C135.328238,131.492959 136.425614,130.960276 137.708784,131.112023 C139.338843,131.303189 140.309571,132.363672 141.051361,133.723462 C142.976813,137.245033 141.837685,140.530438 139.600487,142.952107 M86.6860467,184.879909 C80.9403087,189.348938 76.3423962,194.821589 72.6303169,201.070415 C72.502974,201.279372 72.3631056,201.485539 72.2274124,201.696589 C69.2212857,200.174586 66.1121714,199.390736 62.6297267,199.468528 C65.0896012,189.375799 66.4336599,179.152254 68.120431,168.930104 C71.1056818,170.294778 74.3449225,170.712692 77.1509886,172.372488 C81.8191833,175.127302 85.0629471,179.020042 86.8892386,184.123966 C87.0096228,184.461995 86.9817883,184.650021 86.6860467,184.879909 M72.893005,207.870763 C75.8424189,210.16929 77.6534015,213.125736 78.8297573,216.595678 C79.722897,219.242002 80.2242661,221.948327 80.4838228,224.716746 C80.6153409,226.095722 80.8195766,227.467374 80.9382212,228.843908 C81.060345,230.243816 80.6205599,231.562792 79.7896998,232.610716 C79.2841556,233.24596 78.3537872,233.583291 77.5636352,233.940157 C74.4593919,235.342856 71.1759639,236.062519 67.7982466,236.340896 C66.2819619,236.462293 64.7566309,236.471712 63.8955009,236.507294 C57.1689445,236.114497 51.5084497,234.466213 46.409864,231.10197 C44.7811975,230.02858 43.5770072,228.522275 42.7903344,226.735152 C42.2266857,225.44513 42.3383716,224.054641 42.5224273,222.699037 C42.9924825,219.247234 44.2537336,216.10346 46.3228812,213.31132 C48.6181842,210.218128 51.3518806,207.620642 54.9039116,205.995382 C58.3244245,204.429426 61.9095089,203.815113 65.6059313,204.528497 C68.2710853,205.04339 70.6923394,206.150618 72.893005,207.870763 M82.1511098,236.896952 C83.6931414,235.366228 84.7459816,233.533406 85.0486819,231.272903 C85.5552699,227.519351 85.4884671,223.799288 84.8298331,220.076086 C84.8159158,220.013643 84.8458379,219.94527 84.8688014,219.773639 C86.5253024,220.445162 87.8290011,221.482272 89.025189,222.689967 C90.4805858,224.158945 91.6437202,225.838625 92.5726968,227.674586 C93.0883311,228.694952 93.5479484,229.76311 93.8850938,230.855338 C94.5813044,233.124213 94.912535,235.475765 94.8321629,237.847898 C94.7309149,240.704225 94.0016508,243.388922 92.1019458,245.63582 C91.4286986,246.430834 90.5414738,246.963866 89.577704,247.231778 C88.1908497,247.613412 86.8029516,248.070745 85.3151973,247.973767 C83.7390683,247.870509 82.2008639,247.663645 80.680404,247.163404 C78.4950474,246.444439 76.5835126,245.233255 74.666411,244.036026 C73.7468285,243.458342 72.974073,242.645537 72.0141305,241.838314 C72.9319734,241.600752 73.6859405,241.422144 74.4291219,241.204466 C77.3308691,240.358871 79.9953273,239.029081 82.1511098,236.896952 M37.8876341,197.180117 C37.9116413,195.304736 38.8754111,193.688546 39.5236072,191.991425 C39.5608358,191.894446 39.889283,191.80898 40.026368,191.862353 C40.5802746,192.080728 41.1094782,192.353873 41.5381296,192.554806 C41.2131617,194.101577 40.801559,195.548578 40.6185471,197.021393 C40.3805621,198.972124 40.5903646,200.947274 41.9406861,202.462648 C43.0373657,203.690576 44.4071713,204.671174 45.6719017,205.74282 C45.9833002,206.00829 46.3514116,206.20713 46.7577954,206.480274 C46.1844045,207.097727 45.6419796,207.685876 45.0452774,208.327747 C40.9222911,205.68247 37.8225709,202.440322 37.8876341,197.180117 M40.5980191,214.488317 C40.0441125,215.257167 39.4407995,215.987993 38.8534915,216.732773 C38.1753733,217.597904 38.1746774,217.595114 37.1479321,216.898823 C38.0744732,215.783222 38.9707443,214.699716 39.8711906,213.621442 C40.7431065,212.571424 41.6494676,211.548267 42.4845028,210.472435 C42.81295,210.049986 43.0293633,210.085219 43.4204381,210.45883 C42.4761524,211.810946 41.5548303,213.159922 40.5980191,214.488317 M36.8233122,229.566363 C36.0168073,230.59231 35.1911663,231.602909 34.3742235,232.622926 L34.2447931,232.543041 C34.376659,231.631863 34.5074812,230.717894 34.6393472,229.806715 C34.584722,229.782296 34.5273133,229.758575 34.473384,229.736947 C33.3175561,232.689904 31.0974063,234.715985 28.686938,236.681715 C29.0473949,235.51344 29.3786255,234.440398 29.7550872,233.219796 C29.4603894,233.307705 29.3647083,233.309449 29.3476596,233.347124 C28.1375545,235.95054 26.087891,237.738012 23.6948193,239.184665 C20.5742232,241.076092 17.4428413,242.949728 14.3215493,244.838714 C13.7714699,245.172906 13.254096,245.561866 12.5791093,246.023036 C12.9141671,244.952088 13.2589671,244.040561 13.4757283,243.100778 C14.2937148,239.567346 15.1259666,236.033216 15.8416613,232.476412 C16.5100374,229.136588 17.611588,225.969441 19.19224,222.965902 C19.298707,222.768457 19.3923005,222.568919 19.4932006,222.373218 C19.4504051,222.303449 19.4114367,222.235773 19.3686412,222.166005 C18.6960899,222.457986 18.0224949,222.744387 17.3332429,223.040903 C17.3391578,222.985088 17.3335909,222.896133 17.3617733,222.822528 C18.7284476,219.084674 20.5923157,215.658685 23.5657368,212.936663 C25.0329632,211.597454 26.6699801,210.534529 28.6013469,209.988589 C28.9837235,209.880099 29.4001973,209.888472 29.8570311,209.835099 C29.9161794,211.516522 30.3277822,212.988989 31.2007419,214.301337 C32.6878004,216.529049 34.7854784,217.90977 37.3292043,218.655945 C37.5504886,218.719784 37.7703812,218.79025 37.9822714,218.87467 C38.2752296,218.994672 38.5626209,219.137349 38.9234256,219.296073 C38.6878761,220.190157 38.3747379,221.062614 38.2359133,221.957745 C37.9787921,223.612657 37.8253544,225.28536 37.6301649,226.947597 C37.6277294,226.972365 37.6235542,227.000621 37.6315566,227.019808 C38.1444074,228.118664 37.4113161,228.824373 36.8233122,229.566363 M40.1519712,208.43868 C40.5496567,208.702056 40.9017632,208.941362 41.3505946,209.239274 C39.4578482,211.50222 37.6110287,213.722955 35.7217616,215.987993 C35.3362537,215.679267 35.0011958,215.414146 34.6035103,215.09356 C36.4628553,212.863754 38.2863634,210.679299 40.1519712,208.43868 M33.5200521,213.780514 C32.892384,213.21783 32.8965592,212.762241 33.3920134,212.144789 C34.7656463,210.433364 36.0596029,208.659148 37.3855692,206.915631 C37.5240458,206.737023 37.6743522,206.569927 37.8420551,206.365505 C38.197293,206.706673 38.506256,207.008772 38.870888,207.36215 C37.0814772,209.507186 35.3132902,211.628501 33.5200521,213.780514 M32.3102949,209.332416 C33.3725292,207.388662 34.5182671,205.486071 35.6365184,203.572318 C35.6549587,203.540225 35.7099319,203.531504 35.7996982,203.486154 C36.1076174,203.987441 36.418668,204.487682 36.7286748,204.985482 C35.2666674,206.92784 33.8269275,208.840547 32.3896232,210.752556 C32.3210808,210.743835 32.2556697,210.734416 32.1902586,210.724997 C32.2208765,210.256152 32.1077989,209.708817 32.3102949,209.332416 M50.4319502,148.266034 C52.0884513,146.343559 53.9373583,144.657949 56.305031,143.645607 C56.3589604,143.622234 56.431678,143.635839 56.4254153,143.634444 C56.1641188,145.12819 55.8019223,146.603796 55.6683167,148.102426 C55.5381904,149.58187 55.6352632,151.078756 55.6303922,152.599712 C53.6169136,153.53496 51.5143646,154.518349 49.32866,155.538715 C49.3352707,155.371619 49.3091758,155.206965 49.3432731,155.053474 C49.8074135,153.050766 50.0721892,151.02015 50.1870065,148.96686 C50.1984883,148.729297 50.280948,148.442199 50.4319502,148.266034 M43.6535521,188.64288 C43.3059687,189.353124 43.0095312,189.962553 42.7023078,190.586982 C41.9580827,190.341397 41.2862273,190.118486 40.6129802,189.889994 C40.5273891,189.862086 40.3736034,189.791969 40.3802141,189.772085 C40.4887687,189.312658 40.5827102,188.84486 40.7618948,188.414387 C40.8186076,188.279036 41.1317458,188.146825 41.3015363,188.176127 C42.0495886,188.291246 42.7889427,188.462876 43.6535521,188.64288 M57.8936855,165.718655 C55.317254,166.916233 52.7376911,168.102997 50.15952,169.294994 C49.0993732,169.787561 49.0315266,170.218033 49.2340226,171.234911 C49.6049174,173.082733 50.9708958,174.13903 52.2133586,175.250095 C54.7080262,177.486877 57.3102046,179.607843 59.8643685,181.774856 C60.1983826,182.058466 60.515696,182.358122 60.834749,182.642778 C58.7088886,185.919461 54.3966277,188.002055 49.5141074,182.132769 C48.0242654,183.297557 46.6454136,184.573625 45.4561843,186.054813 C45.4259142,186.087255 45.4039946,186.129116 45.3824228,186.170977 C44.9186304,186.963549 44.322624,187.361579 43.3411097,187.080411 C42.7332737,186.906687 42.0749876,186.903199 41.3137139,186.806569 C41.7778543,185.342475 42.2291212,184.008499 42.6212398,182.657429 C43.7189632,178.880156 44.8466086,175.113348 45.8611763,171.31654 C46.5949635,168.570447 47.1895782,165.78633 47.7998497,163.003957 C47.9560709,162.296852 48.2671215,161.933358 48.9918624,161.825914 C52.0411326,161.386023 55.0855317,160.917178 58.1351498,160.456007 C58.5644971,160.389029 58.8358835,160.517404 59.1065741,160.890317 C59.8654123,161.932311 60.6889658,162.924072 61.5375703,163.999207 C60.3358155,164.568868 59.117012,165.152133 57.8936855,165.718655 M62.5006442,187.651467 C62.2529171,191.543161 61.5299158,195.352179 60.6854865,199.14515 C60.5991995,199.541436 60.4102728,199.676438 60.0473804,199.722834 C56.2702379,200.214006 52.9172237,201.740892 49.8498611,203.943138 C49.4939273,204.195352 49.206884,204.233376 48.847123,204.010814 C47.4682711,203.174637 46.0368817,202.412415 44.7157864,201.49112 C43.4733236,200.627385 43.1821051,199.357247 43.542562,197.876059 C44.1824077,195.272294 45.1618344,192.815392 46.6875132,190.605471 C47.4703587,189.468242 48.3815909,188.419969 49.2235847,187.323904 C49.4643532,187.012387 49.6699806,186.984479 50.0384399,187.18332 C52.332699,188.411945 54.7998801,188.826371 57.3352557,188.31706 C58.8024821,188.021939 59.9861445,187.060178 61.0386368,186.000742 C61.265488,185.771203 61.4867723,185.543409 61.7379787,185.292241 C62.4334934,186.008416 62.5538777,186.761569 62.5006442,187.651467 M52.348356,171.18398 C53.5205366,170.582923 54.6596638,169.994076 55.7977472,169.411508 C57.1585066,168.718008 58.5102198,168.01474 59.8782858,167.337287 C60.9913181,166.785417 62.1380997,166.426108 63.4163995,166.738672 C63.8527053,166.844371 63.9689144,167.020537 63.9379485,167.444381 C63.626202,171.62422 63.3301125,175.805802 63.0301957,179.985291 C62.9954025,180.506463 62.9606094,181.027286 62.9212932,181.621714 C59.2050387,178.286076 56.6887993,173.879141 52.348356,171.18398 M56.1143647,154.691026 C56.5190088,155.812906 56.8547625,156.74327 57.1748593,157.638053 C54.3249538,158.328762 51.4656542,159.018774 48.5193717,159.731809 C48.6286221,159.073542 48.7072546,158.435508 48.8499065,157.813172 C48.8867872,157.646774 49.0889353,157.460143 49.2601175,157.393165 C51.5261942,156.483382 53.7992296,155.598716 56.1143647,154.691026 M96.8324201,115.660366 C94.8735667,116.776664 93.1864477,118.247037 91.83717,120.072185 C91.3159689,120.784173 90.5727876,120.631729 89.9409443,120.503355 C88.0788158,120.128 86.3617747,119.397522 85.1467985,117.839938 C83.4210591,115.616063 82.9297801,113.126718 83.9513065,110.501674 C84.8733245,108.123262 86.8965452,107.010801 89.2972713,106.615562 C93.5757829,105.911596 97.3369205,109.123744 97.7328664,113.155323 C97.7641802,113.475213 97.7436523,113.802427 97.7457398,114.124061 C97.7780975,114.840585 97.506711,115.274894 96.8324201,115.660366 M66.4761076,110.516325 C66.3772951,108.674085 66.2040253,106.824519 66.2802222,104.986464 C66.3518961,103.233528 66.0283199,103.40481 67.9742999,103.273296 C70.9741638,103.075153 73.9764632,102.762241 76.9780668,102.76259 C81.2169141,102.764334 85.4606326,102.918522 89.6911296,103.181201 C92.5319889,103.353879 95.3697168,103.729234 98.1816978,104.186567 C101.626218,104.754135 105.047775,105.472054 108.466548,106.17881 C109.788339,106.452652 111.110826,106.795565 112.365814,107.280108 C112.731142,107.422785 113.127088,108.207333 113.061677,108.624898 C112.646943,111.207384 112.108345,113.77452 111.597234,116.343749 C111.552003,116.578521 111.412134,116.796897 111.280964,117.102832 C107.740067,114.231853 103.823752,113.27986 99.4147664,114.506393 C99.3980657,113.692193 99.3935426,112.989274 99.3695353,112.282518 C99.2571535,109.065138 96.5457247,105.703686 93.2616009,104.825299 C90.3268001,104.042844 87.6226778,104.561573 85.2539614,106.603352 C83.6113775,108.016864 82.3967493,109.649101 81.9754044,111.824138 C80.9270874,117.213067 84.2999336,121.522325 88.8769703,122.429666 C89.2948358,122.5099 89.734621,122.494202 90.1382213,122.521063 C89.5985799,124.185743 89.0836415,125.774723 88.5561776,127.406262 C87.8561398,127.100676 87.1661919,126.720437 86.431013,126.496479 C84.0716907,125.778909 81.6692249,125.684024 79.2792846,126.311244 C78.5468891,126.501712 77.9668876,126.398803 77.3270419,126.02589 C74.9002209,124.616564 72.6101369,123.0227 70.7403539,120.912548 C68.925892,118.863094 67.284352,116.673755 66.7892457,113.878475 C66.5964918,112.774387 66.5394311,111.640298 66.4761076,110.516325 M68.7136539,67.2214069 C67.6284561,64.4522902 67.1089946,61.5882883 67.2025882,58.6468432 C67.2819165,56.1247075 67.9718643,53.6971083 69.0904636,51.4132325 C70.4327826,48.6633022 72.2827335,46.2970994 74.488966,44.196715 C74.560292,44.1262487 74.6573648,44.0850852 74.6879828,44.0648523 C74.4670464,46.0232576 74.1486892,47.9778255 74.0439619,49.9442541 C73.82059,54.1181619 75.0400893,57.8054336 77.8325861,60.9976969 C80.6619637,64.2401936 84.1576297,66.4131374 88.1814555,67.7338574 C90.5533034,68.5110798 92.9940417,69.095392 95.419123,69.7016814 C98.5268457,70.4799504 100.219184,72.5444039 101.040997,75.5409662 C101.817928,78.3686885 100.313473,82.1075889 97.1549524,83.485868 C95.0875445,84.3872786 92.9589006,84.9140317 90.7436219,84.8020531 C87.910417,84.6572832 85.1561926,84.0216911 82.5912429,82.7243435 C78.8113169,80.8116368 75.6051297,78.1820574 73.0001679,74.8370008 C71.1951002,72.5199849 69.7908493,69.9716859 68.7136539,67.2214069 M156.168629,83.4862169 C157.962911,81.6526975 159.181714,79.4295204 160.417218,76.9757579 C160.504897,77.6744907 160.592924,78.1956623 160.625629,78.7224154 C160.779415,81.0495478 160.805162,83.3812151 160.357026,85.6804401 C159.655249,89.3000362 158.395041,92.6482323 155.452934,95.1058321 C154.076866,96.2580609 152.520917,97.0851679 150.855717,97.7284346 C150.431937,94.0198835 150.018943,90.3748218 149.592031,86.6313864 C152.094353,86.4255689 154.335727,85.3661324 156.168629,83.4862169 M116.505849,191.375019 C118.883612,190.995129 120.500797,189.588593 121.642707,187.54821 C122.356314,186.275979 122.985374,184.969213 123.143335,183.482443 C123.156209,183.328255 123.41333,183.087902 123.57477,183.074646 C128.058213,182.676616 132.36943,183.264068 136.370292,185.463523 C137.319101,185.981904 137.639546,186.967386 137.597446,187.944844 C137.490979,190.555586 137.270043,193.155165 136.298271,195.640323 C135.020319,198.899914 132.624464,200.762387 129.258576,201.410886 C125.550672,202.127061 122.356314,200.833202 119.458394,198.638281 C117.215977,196.941508 115.596009,194.755309 114.62528,192.099915 C114.586312,191.999099 114.560565,191.891655 114.516726,191.737816 C115.209457,191.611883 115.855565,191.480369 116.505849,191.375019 M165.815373,130.017004 C164.780973,128.741634 163.781714,127.439402 162.716349,126.193684 C159.883492,122.882814 156.765679,119.864972 153.404314,117.093413 C153.216084,116.939225 153.059862,116.601893 153.080738,116.36468 C153.187205,114.966866 153.417884,113.571493 153.487818,112.171237 C153.631166,109.237466 153.710842,106.299859 153.79017,103.362251 C153.798869,102.956895 153.923428,102.760845 154.287712,102.58468 C156.753153,101.386752 158.855355,99.7171891 160.560566,97.5616876 C162.658592,94.9094334 163.996388,91.8957778 164.755574,88.6159548 C165.417339,85.7564879 165.652541,82.852369 165.172396,79.9538316 C164.657805,76.8386626 163.973076,73.7482615 163.334623,70.6512323 C162.976253,68.9056214 161.130478,68.3453794 159.738056,69.4595843 C158.860226,70.1618054 158.702613,71.1221705 158.522732,72.0884659 C158.044327,74.6908355 157.05481,77.075527 155.560097,79.243587 C154.413663,80.9180339 152.836143,81.9677028 150.798309,82.418757 C150.624691,82.0381691 150.476124,81.6506044 150.278151,81.2916449 C150.054084,80.8915218 150.139327,80.6155869 150.413149,80.2472086 C153.409881,76.1737676 156.432361,72.1174199 159.332021,67.9735126 C161.092553,65.4632376 162.593877,62.7694711 164.301524,60.2190791 C166.921447,56.3190131 169.265808,52.2644096 171.274415,48.0200355 C174.318467,41.586322 176.565059,34.8853947 177.811001,27.8663225 C178.333942,24.9151098 178.893416,21.9537806 179.174544,18.9739628 C179.537784,15.1325024 179.659908,11.2655765 179.850575,7.40702289 C179.94556,5.56094515 180.01445,3.70649517 179.997402,1.85727784 C179.98592,0.376438836 178.4672,-0.464273061 177.177766,0.270041687 C176.688227,0.549116176 176.263055,0.958309145 175.854235,1.36017641 C173.058259,4.11847888 170.377101,7.00271372 167.461784,9.62775813 C162.868742,13.7601536 157.696047,16.9914874 151.78713,18.940125 C145.538979,21.0010901 139.096682,21.4706329 132.588975,21.2117913 C129.407143,21.0883008 126.23888,20.6902709 123.064007,20.4691043 C120.973983,20.3201483 118.871782,20.3041015 116.782107,20.167355 C113.906454,19.9768867 111.033237,19.63816 108.155497,19.529321 C104.881116,19.4068771 101.600819,19.4996693 98.3205224,19.444901 C92.034795,19.3430388 85.7880359,19.8143258 79.5819848,20.8193428 C74.2450662,21.6844737 69.0320111,23.024729 64.0485907,25.1460439 C58.9333043,27.3238714 54.2647617,30.2182227 50.2736414,34.1524753 C47.9066646,36.4827473 45.8253394,39.0282555 44.145179,41.8964436 C40.628985,47.9000335 39.0646858,54.4809588 38.5407012,61.3482842 C38.3890031,63.3419226 38.5072998,65.3568404 38.4965139,67.3609441 C38.475986,71.0684487 38.9846616,74.7239756 39.5921497,78.3676419 C41.0071864,86.8748789 43.5237737,95.0678082 46.724394,103.056315 C47.899706,105.993923 49.191575,108.885135 50.4876192,111.769021 C52.26694,115.730483 54.1120199,119.658806 55.9129124,123.610849 C57.6052504,127.327424 59.2687101,131.057952 60.9607001,134.771736 C61.1277072,135.139067 61.0776051,135.378374 60.8378804,135.704542 C60.074519,136.746188 59.334817,137.808764 58.6521758,138.904131 C58.4034049,139.310882 58.1153177,139.445536 57.6908415,139.553677 C56.6881034,139.810774 55.666925,140.055313 54.7177683,140.45753 C51.7186003,141.73604 49.4664408,143.911774 47.5420326,146.505423 C46.7365716,147.59172 46.3855089,148.748484 46.2317232,150.059785 C45.8594367,153.205303 45.523683,156.362333 44.9569028,159.476107 C43.9322451,165.099458 42.7207482,170.685483 41.1748893,176.189878 C40.3736034,179.065741 39.5173444,181.926254 38.5723629,184.759209 C37.4948196,187.983217 36.3389917,191.182806 35.1198404,194.360418 C34.6515248,195.572648 34.3944035,196.779296 34.4337198,198.059899 C34.452856,198.659561 34.5127002,199.254687 34.5405347,199.662485 C34.2475765,199.969815 33.9977618,200.124353 33.9066038,200.344473 C33.6327819,201.004833 33.4226313,201.69031 33.1655101,202.412415 C33.2399674,202.455671 33.363483,202.524742 33.5437114,202.626604 C33.2528409,203.099287 33.0458217,203.627087 32.6686642,203.957441 C32.4814771,204.122095 31.9769767,203.896393 31.6147802,203.900231 C31.2738075,203.904766 30.9279637,203.958487 30.5887307,204.025465 C27.8978298,204.570707 25.4734443,205.730959 23.2233724,207.274241 C19.1035175,210.099522 16.000318,213.864585 13.4555483,218.11175 C12.4764695,219.749917 11.6261253,221.465179 10.7173287,223.141719 C12.0147646,222.784155 13.0850014,221.949024 14.5181305,222.256355 C14.4057487,222.442986 14.318418,222.598919 14.2196055,222.745782 C10.7736936,227.87866 8.31207944,233.448638 6.72655637,239.43339 C5.33274347,244.686269 3.76392111,249.889962 1.69964454,254.925861 C1.15791546,256.245186 0.600877404,257.553348 0,259 C0.314877852,258.83116 0.508675602,258.724763 0.703169215,258.621505 C2.50893281,257.639861 4.28477431,256.590889 6.12776656,255.69227 C10.5882462,253.513047 15.1061345,251.447547 19.5551324,249.247044 C23.2727786,247.411781 26.3721509,244.833481 28.4847899,241.181094 C28.5216707,241.117256 28.5940404,241.07365 28.7506095,240.929229 C28.8066264,243.093103 27.7506548,244.71313 26.8432499,246.416531 C30.9978979,243.711253 34.913865,240.775041 37.1594138,236.114845 C37.2467446,236.160893 37.3340753,236.206591 37.4234937,236.248801 C37.0536427,237.774641 36.6869231,239.299783 36.3184638,240.818995 L36.4485901,240.934811 C38.4206649,238.879078 40.3927396,236.823346 42.3637706,234.764823 C42.8045996,235.088898 43.2489079,235.415066 43.6855617,235.746118 C45.4614032,237.077652 47.2723858,238.339767 49.2865603,239.29455 C54.4171556,241.723196 59.8066119,242.851704 65.4761529,242.634723 C65.7346659,242.625304 66.0599817,242.652165 66.2468208,242.800772 C66.6194553,243.094847 66.9075424,243.499156 67.2495589,243.834395 C69.1162105,245.686403 70.9901686,247.542597 73.2558974,248.911108 C74.2725528,249.52577 75.345573,250.04729 76.3998049,250.600556 C77.0413903,250.93405 77.6694063,251.318824 78.3485683,251.54592 C79.4661237,251.91988 80.6191681,252.190931 81.7635143,252.485355 C82.1831194,252.59524 82.6142064,252.692917 83.0473809,252.730243 C85.2685745,252.943037 87.4671525,252.812919 89.6278061,252.226513 C91.4614042,251.730807 93.2504671,251.102541 94.6825524,249.799961 C95.7569644,248.822153 96.6574106,247.69853 97.374845,246.407113 C98.3299165,244.691153 99.0550054,242.877169 99.2947301,240.955741 C99.5365424,239.063965 99.5055765,237.128235 99.4603454,235.217272 C99.3998054,232.588042 98.7902297,230.037301 97.765224,227.640051 C96.6775907,225.097333 95.3457095,222.68613 93.5232452,220.539349 C91.5730901,218.240473 89.2259454,216.511258 86.6060225,215.12042 C85.9526075,214.775415 85.1648909,214.692041 84.4592862,214.4332 C83.6865307,214.147148 82.970836,213.918307 82.5748901,212.953058 C80.8018321,208.632287 77.903912,205.224439 73.9235776,202.7637 C73.7558747,202.66428 73.6052205,202.527184 73.4055079,202.376135 C77.4133289,196.728016 82.0644749,191.824678 87.7775073,187.930542 C88.5199927,191.327227 87.6174589,194.576352 87.4205297,198.051178 C92.308617,195.799047 96.3021728,192.670622 99.7901843,189.154284 C100.930355,190.376979 102.044779,191.582232 103.176252,192.771089 C103.426763,193.034814 103.699193,193.35889 104.018246,193.450635 C104.652177,193.632731 105.320205,193.717849 105.979883,193.760408 C108.014585,193.894015 110.039545,193.843433 112.047805,193.439472 C112.261435,193.396913 112.661556,193.557381 112.747495,193.732849 C113.759627,195.835676 115.076895,197.720824 116.741051,199.35341 C120.216885,202.768235 124.298119,204.76292 129.259968,204.257446 C132.965089,203.878951 136.026188,202.135782 137.961382,198.898169 C139.632149,196.107773 140.53677,193.023651 140.375678,189.702316 C140.301569,188.22357 140.296698,186.723196 139.615796,185.36515 C138.525727,183.196043 136.6382,181.87323 134.461541,181.073682 C131.32668,179.923546 128.066215,179.258651 124.701372,179.383188 C123.530583,179.426793 122.355271,179.589005 121.20501,179.82273 C119.986554,180.071804 119.568689,180.810305 119.77362,182.004046 C119.839727,182.386378 119.894352,182.781269 119.896788,183.171973 C119.907574,185.492129 119.206144,187.495535 117.064975,188.648461 C116.213239,189.112074 115.204586,189.314054 114.243948,189.526848 C111.342896,190.173603 108.430015,190.763846 105.565496,191.367693 C104.817792,189.422893 103.082658,188.299967 102.07157,186.750755 C102.956011,185.444686 103.887076,184.210479 104.667138,182.884177 C105.518526,181.442758 106.419668,180.063083 107.69588,178.964576 C108.077561,178.639454 108.480465,178.317472 108.92199,178.093515 C112.228033,176.401975 115.668378,174.966137 118.649454,172.687493 C121.389761,170.596877 124.226097,168.573935 126.256973,165.75005 C128.250967,162.978492 130.027504,160.045419 131.829789,157.1413 C133.033631,155.198942 134.107347,153.173907 135.267698,151.203642 C136.096123,149.798501 137.409911,149.469542 138.849999,150.253393 C139.071631,150.374441 139.30057,150.478397 139.533336,150.575375 C142.570429,151.842024 145.732081,152.103308 148.956012,151.631672 C153.225826,151.007941 156.796645,149.218027 159.182062,145.429242 C162.003437,140.957422 164.136952,136.158736 166.001516,131.230978 C166.173394,130.772249 166.116333,130.390615 165.815373,130.017004"/>
      <path fill="#F7F7F7" fill-rule="nonzero" d="M128.720383,143.374982 C128.542346,143.321824 128.422749,143.065129 128.278348,142.893766 C128.437019,142.759473 128.59433,142.519914 128.753,142.521313 C128.906914,142.515018 129.061847,142.761921 129.307837,142.974901 C129.04384,143.165149 128.841,143.411353 128.720383,143.374982 M123.686081,138.877218 C123.049361,138.829656 122.57403,138.275698 122.596794,137.60878 C122.621597,136.904791 123.162503,136.381608 123.827763,136.415182 C124.486908,136.447706 124.995876,137.040483 124.953406,137.722089 C124.910595,138.412789 124.346925,138.927229 123.686081,138.877218 M120.587422,147.175052 C119.934054,147.107905 119.448529,146.481555 119.527354,145.804844 C119.601763,145.156811 120.172908,144.670349 120.801474,144.720359 C121.456881,144.772118 121.968908,145.387977 121.905711,146.057343 C121.841835,146.723562 121.234675,147.240799 120.587422,147.175052 M120.269062,141.144111 C120.31493,140.959458 120.554465,140.820968 120.712456,140.662894 C120.847682,140.821668 121.080761,140.974496 121.091294,141.137466 C121.09707,141.29589 120.872825,141.469351 120.676441,141.740735 C120.479717,141.469002 120.238143,141.273158 120.269062,141.144111 M118.266486,134.002805 C118.111213,134.003155 117.963075,133.760449 117.723881,133.539775 C117.991955,133.354073 118.20159,133.112415 118.31779,133.152633 C118.49175,133.213485 118.600475,133.472978 118.739439,133.64609 C118.582807,133.776536 118.420399,134.008401 118.266486,134.002805 M115.227625,139.366478 C114.573917,139.320665 114.073443,138.716347 114.125087,138.03544 C114.176052,137.375516 114.715259,136.879961 115.357416,136.913884 C116.021996,136.945009 116.534362,137.527645 116.500046,138.207153 C116.464371,138.892606 115.893225,139.412292 115.227625,139.366478 M113.10783,145.569132 C112.937268,145.284459 112.732049,145.093511 112.754474,144.942432 C112.776559,144.779462 113.018132,144.649366 113.16559,144.50633 C113.306253,144.675595 113.537633,144.83192 113.565494,145.017622 C113.583841,145.14527 113.326978,145.318382 113.10783,145.569132 M106.533712,133.409678 C104.66908,135.773443 100.509334,135.457645 99.5335282,132.350373 C99.4696524,132.138792 99.3422404,131.941549 99.2100717,131.670515 C97.2278812,133.266992 96.0770963,135.310063 95.2433123,137.567862 C94.3874437,139.888612 93.867263,142.291896 93.6321455,144.767571 C93.3834373,147.41566 93.081386,150.060601 92.8004001,152.708689 C92.7881686,152.796469 92.7518137,152.881801 92.6954127,153.081492 C92.5968808,152.894391 92.5071827,152.798567 92.4901945,152.688405 C92.1548462,150.014438 91.7559617,147.345716 91.5198249,144.659158 C91.3744054,142.985393 91.4481344,141.287496 91.4844893,139.60289 C91.5466663,136.644249 92.1035416,133.760099 93.2944188,131.084382 C95.1719616,126.867445 98.3124119,124.157806 102.891768,123.643016 C104.352759,123.478298 105.935725,123.603148 107.090927,124.898515 C107.874765,125.780862 108.294715,126.820582 108.299472,127.986902 C108.306607,129.985209 107.787785,131.820895 106.533712,133.409678 M136.831599,132.578391 C135.578545,132.426262 134.504207,132.960986 133.461467,133.59538 C133.297701,133.697848 133.072436,133.699597 132.876731,133.747509 C132.829844,133.510048 132.672193,133.209638 132.759512,133.049815 C133.040498,132.540971 132.788053,132.224124 132.492117,131.886643 C131.3009,130.531473 130.21535,129.074885 128.719024,128.033415 C128.096574,127.60151 127.824422,126.973411 127.998722,126.168353 C128.345282,124.549144 128.586855,122.89846 129.021755,121.303032 C129.625518,119.084751 130.33087,116.895846 131.058987,114.716035 C131.66343,112.904829 132.341601,111.118803 133.032684,109.338023 C133.421715,108.343766 133.84846,108.180796 134.796745,108.546954 C138.94358,110.142731 142.841707,112.235463 146.478554,114.844033 C146.68751,114.994762 146.911075,115.132203 147.200555,115.320702 C147.269188,115.066455 147.331365,114.92272 147.342577,114.774788 C147.545417,112.096973 147.808055,109.423705 147.925614,106.745191 C148.113165,102.54504 147.941583,98.3501349 147.461495,94.1741149 C147.099645,91.0273242 146.639942,87.8773859 145.471829,84.9320346 C144.542571,82.5787611 143.354073,80.332852 142.24338,78.0593149 C141.922981,77.4025386 141.516962,76.7782864 141.083082,76.1921538 C140.50582,75.4157729 140.091647,75.3339382 139.436919,75.8134058 C135.700181,78.5303893 131.563199,79.0105564 127.209107,78.0603641 C123.808397,77.3147586 120.825598,75.5969285 118.061267,73.4902084 C114.923875,71.0998644 112.126588,68.3262261 109.494766,65.3560446 C107.660373,63.2853458 105.333661,62.4334251 102.664125,63.3930599 C100.801532,64.0634753 98.9950003,64.9056038 97.1942444,65.7463334 C96.103598,66.2523798 95.0717309,66.893069 94.0123428,67.4746552 C94.0232153,67.550195 94.0357866,67.6313303 94.0473386,67.7096678 C95.0428508,67.9086591 96.0529729,68.0614873 97.0379524,68.3209803 C100.111469,69.1267378 102.416776,70.8652016 103.613769,74.0228336 C104.199524,75.5630055 104.580401,77.1384992 104.404063,78.7472164 C104.121378,81.3204645 103.021558,83.5366473 101.208911,85.3789782 C98.5036997,88.1284857 95.1118232,89.1395295 91.4861881,89.0290176 C89.4690018,88.9699148 87.4028893,88.3299251 85.4855939,87.597609 C83.4826778,86.8282226 81.6214437,85.6580557 79.7194378,84.6228811 C78.860851,84.1507576 78.8866731,84.1042447 78.4735186,85.0058257 C77.1497931,87.8931234 76.071718,90.8786927 75.33069,93.9887627 C75.1030472,94.9386053 74.8876361,95.8908959 74.6334917,96.9746817 C75.1856102,96.9222235 75.57668,96.8596235 75.9680896,96.8540279 C78.4167778,96.8365419 80.8661455,96.7977228 83.3138144,96.8316458 C87.7062997,96.8935464 92.0882522,97.2082954 96.4341896,97.8682192 C99.5141616,98.337545 102.59889,98.8264551 105.643187,99.5073621 C108.929736,100.242126 112.171776,101.188472 115.421971,102.087255 C116.543196,102.396758 116.600956,102.561826 116.605034,103.749479 C116.606053,103.887969 116.59586,104.029256 116.58159,104.165997 C116.340017,106.604253 116.138196,109.049503 115.843959,111.477967 C115.459345,114.673718 114.733606,117.785187 113.519285,120.76621 C113.436043,120.976393 113.488707,121.302682 113.591995,121.51846 C114.118971,122.619382 114.760448,123.664349 115.212676,124.794648 C115.744408,126.138626 116.188142,127.527719 116.13208,129.024525 C116.111355,129.564494 115.894245,129.766284 115.397848,129.773278 C114.898732,129.781322 114.532465,129.725366 114.507663,129.05635 C114.488976,128.578631 114.329965,128.103709 114.200175,127.63858 C113.301836,124.446675 111.841185,121.627573 109.099959,119.70096 C106.614236,117.954802 103.915481,116.967539 100.861331,117.565213 C95.6877253,118.578705 92.4789822,121.814324 90.9201392,126.917805 C90.3771943,128.705579 90.2871565,130.544063 90.1784317,132.390241 C90.1539686,132.76794 89.9643795,133.188305 89.7258643,133.477524 C89.5879196,133.64539 89.1880159,133.640844 88.9209604,133.605872 C88.8363589,133.59608 88.7154025,133.222228 88.7466609,133.038624 C89.0140561,131.452989 88.1028057,130.732913 86.8636818,130.230014 C86.5691053,130.112158 86.2901581,129.962827 85.993543,129.848468 C83.621302,128.933597 81.2283353,129.210577 78.9023023,129.936598 C73.1792964,131.722973 68.4463663,135.02574 64.8397581,139.976042 C63.4640486,141.863837 62.4332008,143.928241 61.7275084,146.171702 C60.9096934,148.783769 60.7595172,151.416819 61.3884227,154.091836 C62.4029617,158.416138 64.7779209,161.819274 68.0807789,164.586268 C72.408369,168.217073 77.3522932,170.700442 82.5714273,172.59768 C88.310742,174.680619 94.2753211,175.624516 100.338432,175.934369 C101.780056,176.010608 103.224738,176.019351 104.664663,175.966193 C105.20421,175.944161 105.732885,175.65669 106.264618,175.491622 C106.251027,175.417131 106.235398,175.345788 106.219769,175.274795 C105.74036,175.189813 105.267067,175.082098 104.785959,175.024744 C98.2325671,174.24032 92.2024133,171.839484 86.5086271,168.54616 C80.2280664,164.913607 76.9608837,159.243578 76.4811351,151.860266 C76.4192978,150.902729 76.4125025,149.942045 76.3764874,148.913865 C75.5532362,149.128944 74.7962392,149.340875 74.0300686,149.516085 C73.849993,149.556653 73.6437555,149.462578 73.4511086,149.431103 C73.5645902,149.282121 73.6457941,149.075786 73.7905341,148.990454 C76.067301,147.647525 78.47148,146.6134 80.994237,145.866395 C81.350311,145.759031 81.5127188,145.89822 81.555869,146.233602 C81.5857683,146.460571 81.5979999,146.698731 81.5657222,146.924651 C81.25042,149.27163 81.4213219,151.604969 81.823604,153.916626 C82.4715364,157.621222 83.7493935,161.055134 86.167163,163.957819 C88.4514049,166.697884 91.2741746,168.701087 94.4295745,170.22657 C97.8166944,171.865713 101.390345,172.880604 105.076459,173.472332 C107.101799,173.797573 109.081611,174.174922 111.199708,173.539479 C114.617747,172.515145 117.733394,170.983017 120.385262,168.580083 C124.125737,165.192335 126.709652,160.907202 128.872258,156.334248 C131.191156,151.425213 132.57502,146.167855 134.236132,141.018211 C134.790969,139.299332 135.269019,137.577305 136.961729,136.591441 C137.842061,136.077351 139.385614,136.433017 139.88405,137.390554 C139.803865,137.488126 139.674075,137.575207 139.635002,137.694811 C139.257183,138.821613 138.405052,139.005566 137.389154,138.965698 C136.690936,138.941217 136.26521,139.309124 136.055575,140.057877 C135.607085,141.656802 135.06448,143.221454 134.577596,144.80709 C134.366262,145.492893 134.190943,146.193035 133.974853,146.973612 C135.812303,146.475959 137.471377,145.789107 138.678903,144.448276 C140.860875,142.021211 141.975985,138.726489 140.092666,135.197103 C139.368626,133.83389 138.420681,132.770738 136.831599,132.578391"/>
      <path fill="#FFFFFF" fill-rule="nonzero" d="M91.5175106,84.9852692 C93.7293298,85.0955242 95.8518704,84.5791744 97.9157024,83.6943946 C101.072417,82.3408595 102.574175,78.6709406 101.798805,75.8950466 C100.978275,72.9541123 99.2885797,70.9277474 96.1857102,70.1638372 C93.7612895,69.5694185 91.3274894,68.9948595 88.9593455,68.2319766 C84.9386771,66.9366507 81.4515966,64.8031123 78.623511,61.6211235 C75.8385016,58.4867293 74.6209067,54.867829 74.8435824,50.7705862 C74.9484936,48.84078 75.2660062,46.9222732 75.486945,45 C75.4563748,45.0198596 75.3594536,45.0602636 75.2882391,45.1294299 C73.0854519,47.1910628 71.2380426,49.5132675 69.8981672,52.2128047 C68.7813148,54.4545437 68.0920971,56.8373545 68.0101135,59.3136423 C67.9197927,62.2001338 68.4353164,65.0119806 69.5215986,67.729323 C70.5974592,70.4288603 71.9995171,72.9298014 73.8014185,75.2040691 C76.3995332,78.4880952 79.6034925,81.0688172 83.3778629,82.9462351 C85.9388071,84.219647 88.6887303,84.8431702 91.5175106,84.9852692"/>
      <path fill="#D7D7D7" fill-rule="nonzero" d="M71.4018581,122.148984 C73.2390476,124.374874 75.4903142,126.059381 77.8745915,127.543676 C78.5034006,127.937108 79.0733978,128.045679 79.7904248,127.845099 C82.1425607,127.185944 84.5005094,127.283842 86.8215297,128.040159 C87.5440276,128.27607 88.2193392,128.678335 88.9100377,129 C89.4284034,127.278689 89.9344597,125.602279 90.4654769,123.848949 C90.0681543,123.817298 89.6366387,123.837172 89.2252971,123.749211 C84.7244735,122.79305 81.4125403,118.24558 82.4400398,112.560875 C82.8568523,110.265794 84.0505297,108.543379 85.6647808,107.052459 C87.9926397,104.898337 90.6508029,104.353641 93.5342979,105.176573 C96.7621163,106.102923 99.4267762,109.649699 99.5372195,113.04374 C99.5604708,113.789384 99.5652578,114.531347 99.5813285,115.389978 C103.914264,114.095959 107.760292,115.101437 111.240797,118.133329 C111.372098,117.806511 111.506476,117.577224 111.554005,117.328431 C112.0563,114.618204 112.583556,111.913129 112.992846,109.185236 C113.057812,108.747272 112.668354,107.916611 112.310012,107.769028 C111.075645,107.255248 109.776311,106.893467 108.474242,106.605294 C105.114438,105.85965 101.754635,105.101125 98.3702127,104.505641 C95.6063932,104.0202 92.8172708,103.624191 90.025755,103.442013 C85.8651517,103.165249 81.6949745,103.002944 77.5316358,103 C74.5818064,103 71.631635,103.33013 68.6814637,103.542855 C66.7683658,103.678661 67.0887541,103.497218 67.0190004,105.349183 C66.9434339,107.285795 67.1109796,109.237865 67.211165,111.180735 C67.2730544,112.366183 67.3291309,113.563041 67.5195858,114.730455 C68.0051263,117.676594 69.6183517,119.986397 71.4018581,122.148984"/>
      <path fill="#BFBFBF" fill-rule="nonzero" d="M77.923602,173.466565 C75.0400768,171.794941 71.7113644,171.376859 68.639752,170 C66.9062041,180.294999 65.5277331,190.590701 63,200.755358 C66.5758002,200.677714 69.7739958,201.466448 72.8609841,203 C73.003301,202.786743 73.1441875,202.57981 73.2750618,202.369715 C77.0907982,196.078815 81.8183636,190.563649 87.7230824,186.062771 C88.027383,185.831245 88.0556318,185.641878 87.9294061,185.302494 C86.052111,180.161846 82.7216107,176.24066 77.923602,173.466565"/>
      <path fill="#E4E4E4" fill-rule="nonzero" d="M120.136877,200.814829 C123.152378,203.167902 126.470261,204.556178 130.327801,203.787034 C133.823641,203.092709 136.317931,201.097273 137.643203,197.599462 C138.654158,194.937384 138.88637,192.149236 138.996688,189.346124 C139.037561,188.299025 138.705157,187.245192 137.717714,186.686291 C133.558514,184.327232 129.076678,183.697626 124.416161,184.124097 C124.248693,184.14168 123.981035,184.39644 123.967652,184.561417 C123.806333,186.155446 123.149123,187.557564 122.407997,188.92489 C121.220533,191.109619 119.539347,192.61798 117.067121,193.025746 C116.391464,193.138724 115.719423,193.279758 115,193.4178 C115.045213,193.57941 115.071978,193.694632 115.112489,193.803121 C116.124528,196.650002 117.805714,198.995219 120.136877,200.814829"/>
      <path fill="#D7D7D7" fill-rule="nonzero" d="M160.547185,134.135332 C158.366837,131.771818 156.238561,129.354451 153.951275,127.099351 C151.457802,124.646909 148.683005,122.521128 145.790087,120.565409 C142.819586,118.554066 139.728867,116.774079 136.441746,115.356183 C135.093488,114.771947 135.055745,114.800645 134.591648,116.250074 C133.919616,118.361329 133.253875,120.474001 132.641253,122.605805 C132.352939,123.613425 132.178903,124.653995 132.005915,125.688187 C131.96957,125.915291 132.106213,126.238764 132.265222,126.418747 C133.480681,127.766492 134.717807,129.093334 135.950041,130.424427 C136.11569,130.605827 136.292173,130.771638 136.506049,130.988822 C136.648283,130.785101 136.768501,130.669955 136.82197,130.530008 C137.429001,128.913351 138.576663,127.745589 139.827768,126.638411 C142.253793,124.491018 145.944553,123.95603 148.865079,125.366486 C153.410644,127.564189 155.242919,132.797507 152.979747,137.364748 C151.220861,140.908071 148.519802,143.054047 144.399892,142.910911 C144.165048,142.901345 143.851573,143.11782 143.700951,143.324021 C142.98174,144.298691 142.303418,145.30206 141.617057,146.298697 C141.542271,146.404632 141.501383,146.535013 141.428343,146.692321 C142.809801,147.423589 144.256959,147.754857 145.750946,147.920668 C148.046269,148.174344 150.248284,147.802333 152.425836,147.051932 C154.324161,146.398609 155.885246,145.323318 156.850484,143.545102 C158.244872,140.98389 159.548048,138.37414 160.858214,135.768641 C161.148973,135.191491 160.96655,134.592729 160.547185,134.135332"/>
      <path fill="#CDCDCD" fill-rule="nonzero" d="M59.2986374,160.016299 C55.9818319,160.484927 52.669947,160.958488 49.3527631,161.402804 C48.5635882,161.508509 48.2252082,161.87566 48.0560182,162.592696 C47.3913702,165.399884 46.7445117,168.212004 45.9470098,170.988889 C44.8433005,174.823887 43.6165783,178.628583 42.4216503,182.440678 C41.9950795,183.80569 41.505299,185.155902 41,186.634723 C41.8243755,186.729858 42.5435276,186.733029 43.2047691,186.9085 C44.2694928,187.193201 44.9220288,186.793281 45.4254353,185.989919 C45.4500379,185.950103 45.4735049,185.907821 45.5056775,185.872586 C46.7993944,184.3765 48.2993944,183.087244 49.9208933,181.913912 C55.2316427,187.839062 59.9235428,185.738692 62.2354277,182.425879 C61.8883422,182.138713 61.5431491,181.83569 61.179788,181.549228 C58.4012112,179.36077 55.5715367,177.22129 52.8542771,174.962714 C51.5049205,173.83695 50.0196821,172.772495 49.6154428,170.90362 C49.3959122,169.879333 49.4697199,169.444179 50.6230129,168.94701 C53.4277063,167.742671 56.2339137,166.544322 59.0367146,165.334346 C60.3667676,164.759308 61.6926571,164.170175 63,163.595137 C62.0775927,162.512007 61.1816805,161.510271 60.3554126,160.454625 C60.0609387,160.078313 59.7664648,159.951114 59.2986374,160.016299"/>
      <path fill="#BFBEBE" fill-rule="nonzero" d="M59.3143525,189.20668 C56.5255608,189.747785 53.8181965,189.307282 51.2939481,188.005747 C50.889105,187.794927 50.6631727,187.824516 50.4016877,188.154061 C49.4738744,189.316898 48.4722796,190.428326 47.6121314,191.634067 C45.9388563,193.976016 44.8630976,196.581305 44.1596875,199.341566 C43.7605787,200.913098 44.0809362,202.259386 45.446087,203.175527 C46.8972526,204.152326 48.4730442,204.959729 49.9853759,205.847021 C50.3825733,206.078923 50.6987255,206.041937 51.0890417,205.77157 C54.4592936,203.436278 58.1445509,201.820733 62.29123,201.30071 C62.6930148,201.250779 62.8975389,201.108384 62.9946401,200.684525 C63.9232179,196.665633 64.7145543,192.628249 64.9867434,188.502098 C65.0482918,187.557478 64.9160201,186.758951 64.1518262,186 C63.8727559,186.267038 63.6300029,186.508557 63.3838094,186.751184 C62.2239473,187.874817 60.9264615,188.894149 59.3143525,189.20668"/>
      <path fill="#FFFFFF" fill-rule="nonzero" d="M91.9044864,115.361691 C91.6352083,115.97198 91.2876072,116.57031 90.8623764,117.077185 C90.1425684,117.928777 88.9004924,118.1845 87.9682424,117.779634 C86.8145395,117.28296 86.2281577,116.249864 86.3151446,114.86959 C86.4288167,112.99053 87.9419037,111.632416 89.75338,111.776986 C91.3576126,111.908189 92.559834,113.869207 91.9044864,115.361691 M87.8535305,107.887312 C85.4619105,108.285847 83.4463095,109.40477 82.5248028,111.803719 C81.5107642,114.452763 81.9973364,116.963569 83.7155877,119.203174 C84.9264732,120.776561 86.6367535,121.51313 88.4946691,121.890911 C89.1202124,122.018245 89.8611606,122.174775 90.3803095,121.457201 C91.7242745,119.616835 93.4047506,118.133848 95.3558912,117.008593 C96.0296065,116.615686 96.297845,116.181624 96.2656148,115.459126 C96.2628423,115.131997 96.2843291,114.804867 96.252792,114.482311 C95.8584052,110.417113 92.1113836,107.175366 87.8535305,107.887312 M153.745938,96.2819585 C156.676461,93.8035139 157.932053,90.4273982 158.63384,86.7772677 C159.077438,84.4595738 159.051793,82.1084634 158.901385,79.7612223 C158.866036,79.2304285 158.778009,78.7052628 158.693448,78 C157.460383,80.4745753 156.246378,82.7166426 154.459161,84.5654511 C152.633129,86.4606909 150.400234,87.5264995 147.908112,87.7368471 C148.332996,91.5086839 148.744018,95.1841405 149.166822,98.9260783 C150.825465,98.2777994 152.375288,97.4437954 153.745938,96.2819585"/>
      <path fill="#CDCDCD" fill-rule="nonzero" d="M61.9956262,168.767721 C62.024344,168.369447 61.9173949,168.206946 61.503132,168.108273 C60.2907116,167.816488 59.2027352,168.151911 58.1438066,168.667746 C56.8488638,169.299514 55.5628333,169.954077 54.2754825,170.60343 C53.1931176,171.147923 52.1114129,171.695021 51,172.258727 C55.1172119,174.772121 57.5054127,178.889032 61.0301131,182 C61.0680735,181.447692 61.1010825,180.961491 61.1370623,180.474313 C61.4212697,176.572659 61.6992055,172.667096 61.9956262,168.767721"/>
      <path fill="#FFFFFF" fill-rule="nonzero" d="M143.382783,135.186041 C142.877203,135.45086 142.808624,135.701469 142.810777,136.219159 C142.816313,137.14538 142.709907,138.069664 142.648094,138.992334 C145.703403,139.13314 148.331861,137.331723 148.910017,133.806074 C149.40637,130.780029 147.889325,126.977612 143.360025,126.081425 C141.01019,125.617022 137.69717,127.190113 137,129.501146 C138.082813,129.419116 139.009708,129.807626 139.853262,130.45062 C140.409276,130.873685 140.867188,130.859152 141.389989,130.296895 C142.073013,129.564121 143.006981,129.490811 143.840387,129.877706 C144.637812,130.246838 145.245184,130.953454 145.243953,131.967841 C145.239956,133.417888 144.602139,134.547568 143.382783,135.186041"/>
      <path fill="#CDCDCD" fill-rule="nonzero" d="M50.3611372,155.476667 C50.3243471,155.630879 50.3487487,155.794203 50.3449946,155.961382 C52.7040635,154.93903 54.9726589,153.951024 57.1440234,153.008932 C57.1462759,151.481186 57.0419123,149.977623 57.1856938,148.492986 C57.3302262,146.98732 57.7206514,145.504786 57.9995801,144.005079 C58.0063375,144.00613 57.9301295,143.988956 57.8723165,144.012439 C55.3172842,145.029534 53.3231127,146.725861 51.5361668,148.657712 C51.3728639,148.834354 51.283892,149.1228 51.2685003,149.362529 C51.1479941,151.424758 50.862308,153.464557 50.3611372,155.476667 M46.3975711,206.403638 C45.0355879,205.325909 43.5546002,204.341759 42.3746904,203.107015 C40.9173534,201.584877 40.6879786,199.601155 40.9451336,197.640916 C41.1422233,196.161536 41.5855811,194.704938 41.9403424,193.153008 C41.4774633,192.951131 40.9064665,192.676705 40.3088157,192.457304 C40.1609047,192.40368 39.8065187,192.489198 39.7633467,192.587683 C39.0643355,194.292772 38.027081,195.915849 38.0011778,197.800034 C37.9279731,203.085636 41.2754934,206.342304 45.7240877,209 C46.3649105,208.355816 46.9501728,207.764905 47.5688465,207.144554 C47.1303691,206.870128 46.7361898,206.669653 46.3975711,206.403638"/>
      <path fill="#FFFFFF" fill-rule="nonzero" d="M49.3356936,158.187308 C49.1869268,158.822064 49.1051232,159.473553 48.9914669,160.145333 C52.0601885,159.41944 55.0311801,158.713127 58,158.01073 C57.6633745,157.095087 57.3148042,156.148827 56.8956511,155 C54.4875118,155.92668 52.1206363,156.832711 49.7620859,157.758323 C49.5840002,157.827032 49.3736997,158.017494 49.3356936,158.187308 M41.5346688,210.66878 C41.0677366,210.364752 40.7021541,210.123381 40.2884304,209.854598 C38.3468613,212.138367 36.4505376,214.370515 34.5162078,216.646096 C34.9292075,216.970416 35.2785017,217.243827 35.6788327,217.556043 C37.6442913,215.244506 39.5663144,212.981029 41.5346688,210.66878 M37.4104633,208.297078 C36.0288508,210.080305 34.6830727,211.890588 33.2565768,213.636434 C32.7386079,214.26763 32.7360741,214.728656 33.3897792,215.306095 C35.255336,213.109547 37.0922979,210.945752 38.955683,208.75312 C38.5770698,208.394979 38.2556467,208.08668 37.8853586,207.736015 C37.7083588,207.945346 37.5545245,208.114804 37.4104633,208.297078 M32.2119518,212.213484 C33.7072206,210.262223 35.2050232,208.31025 36.7267153,206.330865 C36.4034824,205.819999 36.0802495,205.309488 35.7606363,204.801114 C35.666164,204.844191 35.6100597,204.855939 35.5901517,204.885843 C34.426441,206.838884 33.235583,208.78338 32.1294243,210.764189 C31.9187619,211.148318 32.0363998,211.706889 32.005271,212.188207 C32.0754918,212.19426 32.1439028,212.203872 32.2119518,212.213484 M42.7150299,211.929036 C41.8463188,213.02731 40.9034054,214.071115 39.9956024,215.139841 C39.0595663,216.243455 38.1271499,217.349205 37.1632426,218.487707 C38.2306712,219.195444 38.2313952,219.198292 38.9375848,218.317893 C39.5489402,217.557823 40.1762219,216.811994 40.7524669,216.02736 C41.7478649,214.671695 42.7056188,213.292177 43.6858144,211.915864 C43.2818638,211.533871 43.0538271,211.498983 42.7150299,211.929036 M40.9215036,189.417447 C40.7350927,189.856757 40.6373627,190.334159 40.5244303,190.803017 C40.5204487,190.822597 40.6775406,190.894866 40.7673074,190.926194 C41.4673437,191.156529 42.1691898,191.383304 42.9437904,191.636423 C43.260146,190.997395 43.5714341,190.374743 43.9297774,189.65063 C43.0302996,189.466932 42.2614903,189.291778 41.4858038,189.173584 C41.3062702,189.144392 40.9808655,189.279318 40.9215036,189.417447"/>
      <path fill="#231F20" fill-rule="nonzero" d="M106.850994,123.641986 C105.647289,122.384072 103.996798,122.260488 102.47482,122.4204 C97.7028403,122.920171 94.4315965,125.553472 92.4745148,129.644323 C91.2332831,132.242314 90.6512566,135.045714 90.5885932,137.91464 C90.5514199,139.552814 90.4742412,141.201173 90.6257664,142.826106 C90.8686315,145.431906 91.2874498,148.025144 91.6372321,150.621098 C91.6510393,150.726009 91.7445034,150.819037 91.8500046,151 C91.9094818,150.808851 91.946655,150.723293 91.9565678,150.638753 C92.2528915,148.06996 92.5679789,145.502186 92.8260673,142.928301 C93.0717646,140.527909 93.6141396,138.194742 94.5048809,135.938646 C95.37084,133.747737 96.5727743,131.763594 98.6353572,130.214034 C98.7737832,130.480216 98.9058367,130.668988 98.9752267,130.873718 C99.9895247,133.890674 104.327463,134.199635 106.270029,131.904833 C107.576403,130.359687 108.114884,128.580953 108.109927,126.639929 C108.104263,125.504921 107.666681,124.495534 106.850994,123.641986 M121.136487,142.883485 C120.482238,142.837989 119.886405,143.307203 119.808872,143.936669 C119.726737,144.593297 120.232647,145.201374 120.913448,145.266561 C121.587876,145.33039 122.221237,144.830959 122.287087,144.181462 C122.352937,143.531624 121.819412,142.933733 121.136487,142.883485 M115.463499,135.305105 C114.795089,135.274549 114.232534,135.753269 114.17943,136.3936 C114.123139,137.05532 114.647812,137.644044 115.329321,137.688521 C116.021805,137.730282 116.617285,137.225758 116.654104,136.560303 C116.690569,135.903675 116.155983,135.334983 115.463499,135.305105 M124.290193,134.821971 C123.594168,134.789717 123.030551,135.297975 123.007185,135.980406 C122.983465,136.627867 123.479108,137.165664 124.13973,137.212517 C124.831152,137.260389 125.418489,136.760958 125.463096,136.09041 C125.506642,135.425974 124.977012,134.853207 124.290193,134.821971 M128.927287,141.110522 C129.077396,141.276886 129.202015,141.526092 129.387527,141.578038 C129.51427,141.615725 129.724564,141.373988 130,141.18929 C129.743682,140.982524 129.582598,140.74588 129.421868,140.748936 C129.256536,140.747578 129.092265,140.980147 128.927287,141.110522 M117.928615,132.031474 C118.177852,132.245709 118.334334,132.47794 118.494002,132.480995 C118.654378,132.486428 118.822542,132.258611 118.986459,132.134687 C118.844846,131.965947 118.731556,131.714024 118.547461,131.655627 C118.425674,131.613867 118.207945,131.851529 117.928615,132.031474 M121.436705,139.405463 C121.428916,139.246229 121.183219,139.098539 121.043023,138.947114 C120.878399,139.100916 120.628099,139.232309 120.581013,139.414291 C120.548796,139.539912 120.803344,139.729363 121.00762,139.990113 C121.209771,139.730382 121.443786,139.561641 121.436705,139.405463 M113.178939,142.677058 C113.028122,142.815581 112.77322,142.942561 112.7495,143.09806 C112.727196,143.247108 112.940676,143.432485 113.118754,143.708853 C113.347103,143.465758 113.614751,143.297357 113.595279,143.173433 C113.566602,142.993489 113.32834,142.840705 113.178939,142.677058 M90.5209733,111.010222 C88.6708088,110.870341 87.1251107,112.181559 87.0086346,113.995263 C86.9197729,115.327532 87.5191469,116.324696 88.6977151,116.803756 C89.6497037,117.19488 90.9164256,116.951106 91.6542256,116.126078 C92.0886213,115.636493 92.4433601,115.059313 92.718796,114.469909 C93.388268,113.029674 92.1601355,111.136862 90.5209733,111.010222"/>
    </g>
  </g>
</svg>
