<svg id="bigchain-graph" xmlns="http://www.w3.org/2000/svg" viewBox="0 0 661.18 194.29">
  <defs>
    <style>
      .cls-1, .cls-2 {
        fill: none;
      }

      .cls-1 {
        stroke: #bfe6ec;
        stroke-miterlimit: 10;
        stroke-opacity: .2;
      }

      .cls-2 {
        stroke: #54c695;
        stroke-linecap: round;
        stroke-linejoin: round;
        stroke-width: 2px;
      }

      .cls-3 {
        fill: #bfe6ec;
      }
    </style>
  </defs>
  <title>bigchain graph</title>
  <g id="lines">
    <line class="cls-1" x1="30.18" y1="31.66" x2="660.18" y2="31.66"/>
    <line class="cls-1" x1="30.18" y1="111.66" x2="660.18" y2="111.66"/>
    <line class="cls-1" x1="30.18" y1="191" x2="660.18" y2="191"/>
  </g>
  <polyline id="graph" class="cls-2" points="24.59 21.09 28.72 18.38 33.45 26.52 51.51 42.66 59.18 42.66 64.84 71.25 78.18 44.77 90.84 52.39 102.18 30.36 108.18 48.35 116.18 41.67 128.84 49.67 140.18 37.67 148.84 29 155.51 44.64 160.18 37.01 166.84 44.66 177.18 44.66 180.84 28.58 185.51 35.79 194.18 33.06 200.18 35.7 206.84 49.68 218.18 57.01 226.18 57.67 244.84 44.59 253.51 65 260.18 39 266.18 44.58 277.51 40.33 285.51 48.33 290.84 63 296.84 44.58 302.18 57.66 310.18 61 315.51 44.58 322.84 41 327.51 27.66 338.84 40.33 343.51 41 353.51 21.66 360.84 38.33 367.51 27.66 373.18 41.66 380.18 41 386.18 32.33 394.84 34.33 402.18 50.33 406.18 36.33 414.84 38.33 419.51 44.58 427.51 50.33 432.18 64.33 440.18 54.33 447.01 58.33 457.18 51 457.18 38.66 468.59 36.33 476.05 38.33 481.45 49 488.15 44.63 508.16 65.67 522.84 40.33 528.84 48.33 542.18 39.66 554.18 27 562.18 30.83 568.18 38.66 574.18 38.66 578.84 41.91 590.84 27.79 598.84 29.73 606.18 23.7 610.18 33.01 616.84 18.39 622.84 26.34 630.84 1 638.84 27 650.18 5 660.18 21.66"/>
  <g id="labels-y">
    <g>
      <path class="cls-3" d="M2.2,35.12H1.55V29.55l-1.15,1L0,30.08l1.62-1.33H2.2v6.37Z"/>
      <path class="cls-3" d="M6.8,28.59a1.64,1.64,0,0,1,1,.29,2.14,2.14,0,0,1,.64.77,3.72,3.72,0,0,1,.35,1.08,7.19,7.19,0,0,1,.1,1.22,7.11,7.11,0,0,1-.1,1.22,3.72,3.72,0,0,1-.35,1.07,2.1,2.1,0,0,1-.64.76,1.65,1.65,0,0,1-1,.29,1.67,1.67,0,0,1-1-.29,2.1,2.1,0,0,1-.64-0.76,3.63,3.63,0,0,1-.34-1.07,7.47,7.47,0,0,1-.1-1.22,7.55,7.55,0,0,1,.1-1.22,3.63,3.63,0,0,1,.34-1.08,2.15,2.15,0,0,1,.64-0.77A1.65,1.65,0,0,1,6.8,28.59Zm0,0.55a1,1,0,0,0-.7.26,1.82,1.82,0,0,0-.44.67,3.67,3.67,0,0,0-.23.9,7.8,7.8,0,0,0-.06,1,7.69,7.69,0,0,0,.06,1,3.59,3.59,0,0,0,.23.9,1.78,1.78,0,0,0,.44.66,1,1,0,0,0,.7.26,1,1,0,0,0,.7-0.26,1.79,1.79,0,0,0,.44-0.66,3.72,3.72,0,0,0,.23-0.9,7.12,7.12,0,0,0,.07-1,7.22,7.22,0,0,0-.07-1,3.8,3.8,0,0,0-.23-0.9,1.83,1.83,0,0,0-.44-0.67A1,1,0,0,0,6.8,29.14Z"/>
      <path class="cls-3" d="M12,28.59a1.64,1.64,0,0,1,1,.29,2.14,2.14,0,0,1,.64.77A3.72,3.72,0,0,1,14,30.72a7.19,7.19,0,0,1,.1,1.22,7.11,7.11,0,0,1-.1,1.22,3.72,3.72,0,0,1-.35,1.07A2.1,2.1,0,0,1,13,35a1.65,1.65,0,0,1-1,.29A1.67,1.67,0,0,1,11,35a2.1,2.1,0,0,1-.64-0.76A3.63,3.63,0,0,1,10,33.17a7.47,7.47,0,0,1-.1-1.22,7.55,7.55,0,0,1,.1-1.22,3.63,3.63,0,0,1,.34-1.08A2.15,2.15,0,0,1,11,28.88,1.65,1.65,0,0,1,12,28.59Zm0,0.55a1,1,0,0,0-.7.26,1.82,1.82,0,0,0-.44.67,3.67,3.67,0,0,0-.23.9,7.8,7.8,0,0,0-.06,1,7.69,7.69,0,0,0,.06,1,3.59,3.59,0,0,0,.23.9,1.78,1.78,0,0,0,.44.66,1,1,0,0,0,.7.26,1,1,0,0,0,.7-0.26,1.79,1.79,0,0,0,.44-0.66,3.72,3.72,0,0,0,.23-0.9,7.12,7.12,0,0,0,.07-1,7.22,7.22,0,0,0-.07-1,3.8,3.8,0,0,0-.23-0.9,1.83,1.83,0,0,0-.44-0.67A1,1,0,0,0,12,29.14Z"/>
      <path class="cls-3" d="M21.13,31.61h0l3-2.86H25.1l-3.21,2.89,3.39,3.48h-1l-3.19-3.39h0v3.39H20.48V28.75h0.65v2.86Z"/>
      <path class="cls-3" d="M17,28.59a1.64,1.64,0,0,1,1,.29,2.14,2.14,0,0,1,.64.77A3.72,3.72,0,0,1,19,30.72a7.19,7.19,0,0,1,.1,1.22,7.11,7.11,0,0,1-.1,1.22,3.72,3.72,0,0,1-.35,1.07A2.1,2.1,0,0,1,18,35a1.65,1.65,0,0,1-1,.29A1.67,1.67,0,0,1,16,35a2.1,2.1,0,0,1-.64-0.76A3.63,3.63,0,0,1,15,33.17a7.47,7.47,0,0,1-.1-1.22,7.55,7.55,0,0,1,.1-1.22,3.63,3.63,0,0,1,.34-1.08A2.15,2.15,0,0,1,16,28.88,1.65,1.65,0,0,1,17,28.59Zm0,0.55a1,1,0,0,0-.7.26,1.82,1.82,0,0,0-.44.67,3.67,3.67,0,0,0-.23.9,7.8,7.8,0,0,0-.06,1,7.69,7.69,0,0,0,.06,1,3.59,3.59,0,0,0,.23.9,1.78,1.78,0,0,0,.44.66,1,1,0,0,0,.7.26,1,1,0,0,0,.7-0.26,1.79,1.79,0,0,0,.44-0.66,3.72,3.72,0,0,0,.23-0.9,7.12,7.12,0,0,0,.07-1,7.22,7.22,0,0,0-.07-1,3.8,3.8,0,0,0-.23-0.9,1.83,1.83,0,0,0-.44-0.67A1,1,0,0,0,17,29.14Z"/>
    </g>
    <g>
      <path class="cls-3" d="M8.47,108.33H5.81l0,2a2.44,2.44,0,0,1,.44-0.11,2.8,2.8,0,0,1,.44,0,2.3,2.3,0,0,1,.83.14,2,2,0,0,1,.66.41,1.83,1.83,0,0,1,.43.63,2.09,2.09,0,0,1,.15.81,2.35,2.35,0,0,1-.15.85,1.93,1.93,0,0,1-1.1,1.12,2.22,2.22,0,0,1-.86.16A2.08,2.08,0,0,1,5.44,114a2.1,2.1,0,0,1-.74-0.85l0.58-.26a1.43,1.43,0,0,0,.52.63,1.34,1.34,0,0,0,.77.23,1.58,1.58,0,0,0,.6-0.11,1.4,1.4,0,0,0,.47-0.32A1.45,1.45,0,0,0,8,112.82a1.69,1.69,0,0,0,0-1.24,1.41,1.41,0,0,0-.33-0.48,1.49,1.49,0,0,0-.5-0.31,1.8,1.8,0,0,0-.63-0.11,2.49,2.49,0,0,0-.68.09,3.24,3.24,0,0,0-.64.26l0.06-3.29H8.47v0.58Z"/>
      <path class="cls-3" d="M12,107.59a1.63,1.63,0,0,1,1,.29,2.15,2.15,0,0,1,.64.76,3.72,3.72,0,0,1,.35,1.08,7.26,7.26,0,0,1,0,2.44,3.71,3.71,0,0,1-.35,1.07A2.09,2.09,0,0,1,13,114a1.65,1.65,0,0,1-1,.29,1.67,1.67,0,0,1-1-.29,2.1,2.1,0,0,1-.64-0.76,3.62,3.62,0,0,1-.34-1.07,7.62,7.62,0,0,1,0-2.44,3.63,3.63,0,0,1,.34-1.08,2.15,2.15,0,0,1,.64-0.76A1.65,1.65,0,0,1,12,107.59Zm0,0.55a1,1,0,0,0-.7.26,1.81,1.81,0,0,0-.44.67,3.66,3.66,0,0,0-.23.9,7.8,7.8,0,0,0-.06,1,7.68,7.68,0,0,0,.06,1,3.59,3.59,0,0,0,.23.9,1.78,1.78,0,0,0,.44.66,1,1,0,0,0,.7.26,1,1,0,0,0,.7-0.26,1.78,1.78,0,0,0,.44-0.66,3.72,3.72,0,0,0,.23-0.9,7.11,7.11,0,0,0,.07-1,7.22,7.22,0,0,0-.07-1,3.79,3.79,0,0,0-.23-0.9,1.82,1.82,0,0,0-.44-0.67A1,1,0,0,0,12,108.14Z"/>
      <path class="cls-3" d="M21.13,110.61h0l3-2.86H25.1l-3.21,2.89,3.39,3.48h-1l-3.19-3.39h0v3.39H20.48v-6.37h0.65v2.86Z"/>
      <path class="cls-3" d="M17,107.67a1.63,1.63,0,0,1,1,.29,2.15,2.15,0,0,1,.64.76A3.72,3.72,0,0,1,19,109.8a7.26,7.26,0,0,1,0,2.44,3.71,3.71,0,0,1-.35,1.07,2.09,2.09,0,0,1-.64.76,1.65,1.65,0,0,1-1,.29,1.67,1.67,0,0,1-1-.29,2.1,2.1,0,0,1-.64-0.76,3.62,3.62,0,0,1-.34-1.07,7.62,7.62,0,0,1,0-2.44,3.63,3.63,0,0,1,.34-1.08A2.15,2.15,0,0,1,16,108,1.65,1.65,0,0,1,17,107.67Zm0,0.55a1,1,0,0,0-.7.26,1.81,1.81,0,0,0-.44.67,3.66,3.66,0,0,0-.23.9,7.8,7.8,0,0,0-.06,1,7.68,7.68,0,0,0,.06,1,3.59,3.59,0,0,0,.23.9,1.78,1.78,0,0,0,.44.66,1,1,0,0,0,.7.26,1,1,0,0,0,.7-0.26,1.78,1.78,0,0,0,.44-0.66,3.72,3.72,0,0,0,.23-0.9,7.11,7.11,0,0,0,.07-1,7.22,7.22,0,0,0-.07-1,3.79,3.79,0,0,0-.23-0.9,1.82,1.82,0,0,0-.44-0.67A1,1,0,0,0,17,108.22Z"/>
    </g>
    <path class="cls-3" d="M22.56,187.59a1.63,1.63,0,0,1,1,.29,2.15,2.15,0,0,1,.64.76,3.72,3.72,0,0,1,.35,1.08,7.26,7.26,0,0,1,0,2.44,3.71,3.71,0,0,1-.35,1.07,2.09,2.09,0,0,1-.64.76,1.65,1.65,0,0,1-1,.29,1.67,1.67,0,0,1-1-.29,2.1,2.1,0,0,1-.64-0.76,3.62,3.62,0,0,1-.34-1.07,7.62,7.62,0,0,1,0-2.44,3.63,3.63,0,0,1,.34-1.08,2.15,2.15,0,0,1,.64-0.76A1.65,1.65,0,0,1,22.56,187.59Zm0,0.55a1,1,0,0,0-.7.26,1.81,1.81,0,0,0-.44.67,3.66,3.66,0,0,0-.23.9,7.8,7.8,0,0,0-.06,1,7.68,7.68,0,0,0,.06,1,3.59,3.59,0,0,0,.23.9,1.78,1.78,0,0,0,.44.66,1,1,0,0,0,.7.26,1,1,0,0,0,.7-0.26,1.78,1.78,0,0,0,.44-0.66,3.72,3.72,0,0,0,.23-0.9,7.11,7.11,0,0,0,.07-1,7.22,7.22,0,0,0-.07-1,3.79,3.79,0,0,0-.23-0.9,1.82,1.82,0,0,0-.44-0.67A1,1,0,0,0,22.56,188.14Z"/>
  </g>
</svg>
