<svg id="bigchain-graph" xmlns="http://www.w3.org/2000/svg" viewBox="0 0 667.67 194.29">
  <defs>
    <style>
      .cls-1, .cls-2 {
        fill: none;
      }

      .cls-1 {
        stroke: #bfe6ec;
        stroke-miterlimit: 10;
        stroke-opacity: .4;
        stroke-width: 1px;
      }

      .cls-2 {
        stroke: #54c695;
        stroke-linecap: round;
        stroke-linejoin: round;
        stroke-width: 2px;
      }

      .cls-3 {
        fill: #bfe6ec;
        fill-opacity: .4;
      }
    </style>
  </defs>
  <title>graph-bigchain</title>
  <g id="lines">
    <line class="cls-1" x1="36.67" y1="31.66" x2="666.67" y2="31.66"/>
    <line class="cls-1" x1="36.67" y1="111.66" x2="666.67" y2="111.66"/>
    <line class="cls-1" x1="36.67" y1="191" x2="666.67" y2="191"/>
  </g>
  <polyline id="graph" class="cls-2" points="31.08 21.09 35.21 18.38 39.94 26.52 58 42.66 65.67 42.66 71.33 71.25 84.67 44.77 97.33 52.39 108.67 30.36 114.67 48.35 122.67 41.67 135.33 49.67 146.67 37.67 155.33 29 162 44.64 166.67 37.01 173.33 44.66 183.67 44.66 187.33 28.58 192 35.79 200.67 33.06 206.67 35.7 213.33 49.68 224.67 57.01 232.67 57.67 251.33 44.59 260 65 266.67 39 272.67 44.58 284 40.33 292 48.33 297.33 63 303.33 44.58 308.67 57.66 316.67 61 322 44.58 329.33 41 334 27.66 345.33 40.33 350 41 360 21.66 367.33 38.33 374 27.66 379.67 41.66 386.67 41 392.67 32.33 401.33 34.33 408.67 50.33 412.67 36.33 421.33 38.33 426 44.58 434 50.33 438.67 64.33 446.67 54.33 453.5 58.33 463.67 51 463.67 38.66 475.08 36.33 482.54 38.33 487.94 49 494.64 44.63 514.65 65.67 529.33 40.33 535.33 48.33 548.66 39.66 560.67 27 568.67 30.83 574.67 38.66 580.67 38.66 585.33 41.91 597.33 27.79 605.33 29.73 612.67 23.7 616.67 33.01 623.33 18.39 629.33 26.34 637.33 1 645.33 27 656.67 5 666.67 21.66"/>
  <g id="labels-y">
    <path class="cls-3" d="M31.05,187.59a1.63,1.63,0,0,1,1,.29,2.15,2.15,0,0,1,.64.76,3.72,3.72,0,0,1,.35,1.08,7.26,7.26,0,0,1,0,2.44,3.71,3.71,0,0,1-.35,1.07A2.09,2.09,0,0,1,32,194a1.65,1.65,0,0,1-1,.29,1.67,1.67,0,0,1-1-.29,2.1,2.1,0,0,1-.64-0.76,3.62,3.62,0,0,1-.34-1.07,7.62,7.62,0,0,1,0-2.44,3.63,3.63,0,0,1,.34-1.08,2.15,2.15,0,0,1,.64-0.76A1.65,1.65,0,0,1,31.05,187.59Zm0,0.55a1,1,0,0,0-.7.26,1.81,1.81,0,0,0-.44.67,3.66,3.66,0,0,0-.23.9,7.8,7.8,0,0,0-.06,1,7.68,7.68,0,0,0,.06,1,3.59,3.59,0,0,0,.23.9,1.78,1.78,0,0,0,.44.66,1,1,0,0,0,.7.26,1,1,0,0,0,.7-0.26,1.78,1.78,0,0,0,.44-0.66,3.72,3.72,0,0,0,.23-0.9,7.11,7.11,0,0,0,.07-1,7.22,7.22,0,0,0-.07-1,3.79,3.79,0,0,0-.23-0.9,1.82,1.82,0,0,0-.44-0.67A1,1,0,0,0,31.05,188.14Z"/>
    <g>
      <path class="cls-3" d="M9,33.62H8.3V27.53L7,28.6l-0.43-.49,1.77-1.46H9v7Z"/>
      <path class="cls-3" d="M18,32.42h0l2.33-5.76h1.08v7H20.73v-6h0l-2.52,6H17.82l-2.52-6h0v6H14.57v-7h1.08Z"/>
      <path class="cls-3" d="M24.06,27.25a0.44,0.44,0,0,1-.15.34,0.46,0.46,0,0,1-.65,0,0.46,0.46,0,0,1,0-.68,0.46,0.46,0,0,1,.65,0A0.44,0.44,0,0,1,24.06,27.25Zm-0.14,6.37H23.26V29h0.67v4.6Z"/>
      <path class="cls-3" d="M30.28,31.32a2.5,2.5,0,0,1-.18,1,2.32,2.32,0,0,1-.51.77,2.29,2.29,0,0,1-.78.51,2.77,2.77,0,0,1-2,0A2.3,2.3,0,0,1,26.06,33a2.32,2.32,0,0,1-.51-0.77,2.65,2.65,0,0,1,0-1.93,2.27,2.27,0,0,1,1.28-1.27,2.77,2.77,0,0,1,2,0,2.27,2.27,0,0,1,1.28,1.27A2.5,2.5,0,0,1,30.28,31.32Zm-0.71,0a2.11,2.11,0,0,0-.12-0.72A1.77,1.77,0,0,0,29.1,30a1.66,1.66,0,0,0-.55-0.4,1.74,1.74,0,0,0-.73-0.15,1.71,1.71,0,0,0-.72.15,1.68,1.68,0,0,0-.55.4,1.77,1.77,0,0,0-.35.59,2.19,2.19,0,0,0,0,1.45,1.77,1.77,0,0,0,.35.59,1.62,1.62,0,0,0,.55.39,1.76,1.76,0,0,0,.72.14A1.8,1.8,0,0,0,28.55,33a1.6,1.6,0,0,0,.55-0.39A1.77,1.77,0,0,0,29.45,32,2.1,2.1,0,0,0,29.57,31.32Z"/>
    </g>
  </g>
  <g>
    <path class="cls-3" d="M2.91,106.42a1.83,1.83,0,0,1,1.11.33,2.39,2.39,0,0,1,.72.85,4.15,4.15,0,0,1,.39,1.2,8,8,0,0,1,.12,1.37,8,8,0,0,1-.12,1.36,4.15,4.15,0,0,1-.39,1.2,2.34,2.34,0,0,1-.72.85,1.84,1.84,0,0,1-1.11.32,1.86,1.86,0,0,1-1.12-.32,2.33,2.33,0,0,1-.72-0.85,4,4,0,0,1-.38-1.2,8.48,8.48,0,0,1,0-2.73,4,4,0,0,1,.38-1.2,2.39,2.39,0,0,1,.72-0.85A1.85,1.85,0,0,1,2.91,106.42Zm0,0.61a1.11,1.11,0,0,0-.79.29,2,2,0,0,0-.49.74,4.12,4.12,0,0,0-.25,1,8.7,8.7,0,0,0-.07,1.09,8.58,8.58,0,0,0,.07,1.08,4,4,0,0,0,.25,1,2,2,0,0,0,.49.73,1.12,1.12,0,0,0,.79.29A1.11,1.11,0,0,0,3.68,113a2,2,0,0,0,.49-0.73,4.15,4.15,0,0,0,.26-1,8,8,0,0,0,.08-1.08,8.12,8.12,0,0,0-.08-1.09,4.26,4.26,0,0,0-.26-1,2,2,0,0,0-.49-0.74A1.09,1.09,0,0,0,2.91,107Z"/>
    <path class="cls-3" d="M7.67,113.23a0.54,0.54,0,0,1-.15.38,0.54,0.54,0,0,1-.78,0,0.55,0.55,0,0,1,0-.75,0.55,0.55,0,0,1,.78,0A0.54,0.54,0,0,1,7.67,113.23Z"/>
    <path class="cls-3" d="M13.21,107.25h-3l0,2.2a2.82,2.82,0,0,1,.49-0.12,3.24,3.24,0,0,1,.5,0,2.56,2.56,0,0,1,.92.16,2.18,2.18,0,0,1,.73.46,2.05,2.05,0,0,1,.48.71,2.35,2.35,0,0,1,.17.9,2.61,2.61,0,0,1-.17.95,2.15,2.15,0,0,1-1.22,1.25,2.48,2.48,0,0,1-1,.18,2.31,2.31,0,0,1-1.31-.35A2.34,2.34,0,0,1,9,112.6l0.65-.29a1.58,1.58,0,0,0,.58.7,1.49,1.49,0,0,0,.86.26,1.76,1.76,0,0,0,.67-0.12,1.56,1.56,0,0,0,.53-0.35,1.65,1.65,0,0,0,.35-0.54,1.89,1.89,0,0,0,0-1.38,1.58,1.58,0,0,0-.37-0.54,1.66,1.66,0,0,0-.56-0.34,2,2,0,0,0-.7-0.12,2.8,2.8,0,0,0-.76.11,3.63,3.63,0,0,0-.72.29l0.07-3.67h3.63v0.64Z"/>
    <path class="cls-3" d="M21.23,112.49h0l2.38-5.89h1.1v7.11H24v-6.18h0l-2.57,6.18H21l-2.57-6.18h0v6.18H17.72v-7.11h1.1Z"/>
    <path class="cls-3" d="M27.41,107.21a0.45,0.45,0,0,1-.15.35,0.47,0.47,0,0,1-.66,0,0.47,0.47,0,0,1,0-.69,0.47,0.47,0,0,1,.66,0A0.44,0.44,0,0,1,27.41,107.21Zm-0.14,6.51H26.58V109h0.68v4.7Z"/>
    <path class="cls-3" d="M33.76,111.37a2.56,2.56,0,0,1-.19,1,2.32,2.32,0,0,1-1.31,1.3,2.71,2.71,0,0,1-1,.19,2.68,2.68,0,0,1-1-.19,2.32,2.32,0,0,1-1.31-1.3,2.7,2.7,0,0,1,0-2,2.32,2.32,0,0,1,1.31-1.3,2.68,2.68,0,0,1,1-.19,2.71,2.71,0,0,1,1,.19,2.32,2.32,0,0,1,1.31,1.3A2.56,2.56,0,0,1,33.76,111.37Zm-0.72,0a2.15,2.15,0,0,0-.13-0.74,1.82,1.82,0,0,0-.36-0.6,1.7,1.7,0,0,0-.56-0.41,1.79,1.79,0,0,0-.74-0.15,1.75,1.75,0,0,0-.74.15,1.71,1.71,0,0,0-.56.41,1.81,1.81,0,0,0-.36.6,2.23,2.23,0,0,0,0,1.48,1.81,1.81,0,0,0,.36.6,1.63,1.63,0,0,0,.56.4,1.78,1.78,0,0,0,.74.15,1.82,1.82,0,0,0,.74-0.15,1.62,1.62,0,0,0,.56-0.4,1.82,1.82,0,0,0,.36-0.6A2.15,2.15,0,0,0,33,111.37Z"/>
  </g>
</svg>
