<svg xmlns="http://www.w3.org/2000/svg" width="1000" height="197" viewBox="0 0 1000 197">
  <g fill="none">
    <path fill="#04C695" d="M903.593256,194.893048 C850.350653,194.893048 807.188452,151.743267 807.186513,98.514046 C807.184573,45.2848251 850.343629,2.13190023 903.586232,2.12802165 C956.828834,2.12414306 999.994181,45.2707795 1000,98.5 C999.941936,151.708235 956.814861,194.829183 903.593256,194.893048 L903.593256,194.893048 Z M903.593256,11.9253476 C855.768748,11.9311656 817.003497,50.6945337 817.007376,98.5070223 C817.011256,146.319511 855.782797,185.076591 903.607306,185.074652 C951.431814,185.072713 990.20021,146.312489 990.200211,98.5 C990.142138,50.7060968 951.399181,11.9775906 903.593256,11.9253476 L903.593256,11.9253476 Z"/>
    <path fill="#074354" d="M860.706006 55.5497861L879.030558 55.5497861C886.055497 55.5497861 891.4366 57.5127629 895.173867 61.4387166 898.911135 65.3646702 900.772743 70.8427451 900.758693 77.8729412L900.758693 118.273743C900.758693 126.364439 898.795223 132.334135 894.868282 136.182834 890.941342 140.031533 885.300316 141.952371 877.945205 141.945348L860.706006 141.945348 860.706006 55.5497861zM873.08746 130.283369L878.81981 130.283369C882.297155 130.283369 884.755883 129.412496 886.195996 127.670749 887.636108 125.929002 888.363189 123.200499 888.377239 119.485241L888.377239 77.8729412C888.377239 74.4737255 887.674745 71.8435472 886.269758 69.9824064 884.86477 68.1212656 882.381454 67.1906952 878.81981 67.1906952L873.119073 67.1906952 873.08746 130.283369zM912.402529 55.5497861L930.453109 55.5497861C933.921242 55.4574818 937.371421 56.0777843 940.590095 57.3722995 943.208483 58.4628429 945.551623 60.1216998 947.449947 62.2288235 949.224142 64.2427993 950.530415 66.6244404 951.275026 69.2028342 952.045977 71.8627011 952.432746 74.6190689 952.423604 77.3883422L952.423604 80.5487701C952.456749 82.5433002 952.273023 84.5355266 951.875659 86.4903743 951.558322 87.9727526 951.006992 89.3951829 950.24236 90.7042781 949.523988 91.9058031 948.624791 92.989542 947.576396 93.9173797 946.451297 94.9029102 945.233875 95.7778223 943.940991 96.53 946.719434 97.7823548 948.987062 99.9453512 950.368809 102.66123 951.773797 105.372175 952.476291 108.99262 952.476291 113.522567L952.476291 118.379091C952.476291 125.985187 950.635757 131.807398 946.954689 135.845722 943.273621 139.884046 937.386723 141.90672 929.293994 141.913743L912.434141 141.913743 912.402529 55.5497861zM924.783983 90.9781818L930.368809 90.9781818C934.492448 90.9781818 937.263786 89.9457754 938.682824 87.8809626 940.101862 85.8161497 940.804355 82.8032086 940.790306 78.842139 940.790306 74.9583244 940.003512 72.0472193 938.429926 70.1088235 936.85634 68.1704278 934.004215 67.2012299 929.873551 67.2012299L924.773446 67.2012299 924.783983 90.9781818zM924.783983 129.556471L930.126449 129.556471C932.145043 129.666349 934.16156 129.305703 936.01686 128.502995 937.367116 127.83512 938.48647 126.778423 939.230769 125.468984 939.998189 124.042816 940.454309 122.470135 940.56902 120.854759 940.730594 119.077897 940.81138 117.135989 940.81138 115.029037 940.82839 113.122798 940.705121 111.21789 940.442571 109.329733 940.254005 107.859696 939.719547 106.45529 938.883035 105.231711 938.088761 104.117827 936.991665 103.254995 935.721812 102.745508 933.973097 102.116983 932.120595 101.827379 930.263435 101.892193L924.805058 101.892193 924.783983 129.556471zM73.8988409 183.63139C65.3319283 191.469251 54.7945205 194.713957 37.3867229 194.713957L3.2455216 194.713957C1.53482961 194.762293.0962948464 193.440855-.99200722e-16 191.73262L-.99200722e-16 5.26737968C.0962948464 3.55914535 1.53482961 2.23770698 3.2455216 2.28604278L37.6817703 2.28604278C54.7945205 2.28604278 65.0684932 5.26737968 73.308746 13.3686096 82.1390938 22.0176471 84.7945205 32.0151337 84.7945205 52.0206417 84.7945205 65.536738 83.024236 77.4304813 72.4341412 87.1540642 68.7050763 90.7216401 64.1566936 93.3190291 59.1886196 94.7180214 64.615187 95.8267962 69.6167304 98.4492985 73.6143309 102.281979 85.089568 113.090642 86.5542677 127.470588 86.5542677 141.165775 86.5542677 164.984866 82.7291886 175.256257 73.8988409 183.63139zM37.9346681 16.6133155L20.6217071 16.6133155C18.9110151 16.5649797 17.4724803 17.8864181 17.3761855 19.5946524L17.3761855 84.973369C17.4724803 86.6816033 18.9110151 88.0030417 20.6217071 87.9547059L37.9346681 87.9547059C56.8177028 87.9547059 67.4394099 77.9572193 67.4394099 52.2840107 67.4394099 24.1772727 56.8177028 16.6133155 37.9346681 16.6133155zM37.9346681 102.01861L20.6217071 102.01861C18.9110151 101.970274 17.4724803 103.291712 17.3761855 104.999947L17.3761855 177.405348C17.4724803 179.113582 18.9110151 180.43502 20.6217071 180.386684L37.9346681 180.386684C57.9557429 180.386684 69.14647 171.958877 69.14647 141.19738 69.1886196 113.090642 57.9557429 102.008075 37.9346681 102.008075L37.9346681 102.01861zM115.289779 191.73262L115.289779 5.26737968C115.386074 3.55914535 116.824608 2.23770698 118.5353 2.28604278L129.409905 2.28604278C131.120597 2.23770698 132.559132 3.55914535 132.655427 5.26737968L132.655427 191.73262C132.559132 193.440855 131.120597 194.762293 129.409905 194.713957L118.5353 194.713957C116.824608 194.762293 115.386074 193.440855 115.289779 191.73262zM207.586934 196.873583C194.046365 196.873583 183.445732 192.554332 176.375132 185.527647 163.12961 172.559358 161.622761 157.420909 161.622761 98.5 161.622761 39.5790909 163.097998 24.4511765 176.375132 11.4723529 183.466807 4.44566845 194.067439.126417112 207.586934.126417112 221.106428.126417112 230.842993 4.18229947 237.913593 10.6611765 246.122234 18.4463636 250.558483 29.9608556 251.09589 43.2662567 251.055593 45.0077166 249.61345 46.3882456 247.871444 46.3529412L236.996839 46.3529412C235.316616 46.4035381 233.890637 45.1306626 233.751317 43.4558824 233.119073 28.9495187 227.48156 14.4536898 207.608008 14.4536898 199.072708 14.4536898 193.182297 17.161123 189.062171 21.4803743 180.52687 30.9616578 179.051633 42.0231551 179.051633 98.5105348 179.051633 154.997914 180.52687 166.080481 189.062171 175.540695 193.182297 179.859947 199.072708 182.56738 207.608008 182.56738 222.623815 182.56738 233.814542 171.758717 233.814542 153.649465L233.814542 109.319198C233.718247 107.610964 232.279712 106.289525 230.56902 106.337861L207.586934 106.337861 207.586934 92.8217647 247.913593 92.8217647C249.624285 92.7734289 251.06282 94.0948673 251.159115 95.8031016L251.159115 153.628396C251.18019 182.251337 230.864067 196.873583 207.586934 196.873583zM350.56902 187.687273C343.498419 193.365508 334.077977 196.873583 321.717597 196.873583 308.177028 196.873583 297.576396 192.554332 290.505796 185.527647 277.260274 172.559358 275.753425 157.420909 275.753425 98.5 275.753425 39.5790909 277.228662 24.4511765 290.505796 11.4723529 297.576396 4.44566845 308.177028.126417112 321.717597.126417112 334.963119.126417112 344.678609 3.90839572 351.74921 10.3978075 360.179136 18.1724599 364.394099 29.8976471 365.16333 43.2135829 365.163633 44.066589 364.81903 44.883497 364.207826 45.4786755 363.596623 46.073854 362.770725 46.3967576 361.917808 46.3740107L351.106428 46.3740107C349.429947 46.4249684 348.005494 45.1580781 347.860906 43.4874866 347.471022 34.7963102 345.247629 26.5686631 339.683878 20.9747059 335.563751 16.9188235 329.968388 14.4852941 321.770285 14.4852941 313.234984 14.4852941 307.344573 17.1927273 303.224447 21.5119786 294.689146 30.993262 293.213909 42.0547594 293.213909 98.542139 293.213909 155.029519 294.689146 166.112086 303.224447 175.572299 307.344573 179.891551 313.234984 182.598984 321.770285 182.598984 330.010537 182.598984 335.605901 180.165455 339.683878 176.109572 345.247629 170.515615 347.48156 162.287968 347.860906 153.596791 347.973522 151.90109 349.407274 150.598007 351.106428 150.647059L361.928346 150.647059C362.781263 150.624312 363.60716 150.947215 364.218364 151.542394 364.829567 152.137573 365.174171 152.954481 365.173867 153.807487 364.373024 167.850321 359.894626 179.881016 350.56902 187.687273zM459.67334 191.73262L459.67334 104.178235 407.860906 104.178235 407.860906 191.73262C407.764611 193.440855 406.326077 194.762293 404.615385 194.713957L393.74078 194.713957C392.030088 194.762293 390.591553 193.440855 390.495258 191.73262L390.495258 5.26737968C390.591553 3.55914535 392.030088 2.23770698 393.74078 2.28604278L404.636459 2.28604278C406.339065 2.249278 407.7648 3.56751828 407.860906 5.26737968L407.860906 89.5454545 459.67334 89.5454545 459.67334 5.26737968C459.769635 3.55914535 461.20817 2.23770698 462.918862 2.28604278L473.793467 2.28604278C475.508197 2.2318805 476.953165 3.55493309 477.049526 5.26737968L477.049526 191.73262C476.953231 193.440855 475.514696 194.762293 473.804004 194.713957L462.918862 194.713957C461.20817 194.762293 459.769635 193.440855 459.67334 191.73262L459.67334 191.73262zM581.211802 192.322567L570.769231 144.410481C570.412596 142.965587 569.095987 141.965215 567.608008 142.008556L524.056902 142.008556C522.565812 141.966335 521.248115 142.971924 520.89568 144.421016L510.727081 192.301497C510.374646 193.750589 509.056949 194.756179 507.565859 194.713957L495.40569 194.713957C494.465904 194.763732 493.555597 194.377818 492.938065 193.667834 492.320533 192.95785 492.064665 192.003001 492.244468 191.079465L537.555321 4.6142246C537.940839 3.19869767 539.25002 2.23450958 540.716544 2.28604278L551.738672 2.28604278C553.208226 2.2357176 554.518448 3.20503855 554.899895 4.62475936L599.399368 191.09C599.575468 192.011945 599.317898 192.963648 598.700833 193.671038 598.083768 194.378428 597.175704 194.762982 596.238145 194.713957L584.394099 194.713957C582.901443 194.768546 581.57426 193.771212 581.211802 192.322567zM545.837724 30.9300535L525.700738 124.120535C525.550586 125.03209 525.819622 125.962734 526.43303 126.653666 527.046437 127.344598 527.938798 127.722133 528.86196 127.681283L563.045311 127.681283C563.970642 127.722764 564.865142 127.343855 565.478991 126.65038 566.09284 125.956906 566.360248 125.023188 566.206533 124.11L545.837724 30.9300535zM614.87882 191.73262L614.87882 5.26737968C614.975115 3.55914535 616.413649 2.23770698 618.124341 2.28604278L628.998946 2.28604278C630.709638 2.23770698 632.148173 3.55914535 632.244468 5.26737968L632.244468 191.73262C632.148173 193.440855 630.709638 194.762293 628.998946 194.713957L618.134879 194.713957C616.420149 194.768119 614.975181 193.445067 614.87882 191.73262zM740.885142 192.786096L683.066386 44.7200535 683.066386 191.73262C682.970091 193.440855 681.531556 194.762293 679.820864 194.713957L668.946259 194.713957C667.235567 194.762293 665.797032 193.440855 665.700738 191.73262L665.700738 5.26737968C665.797032 3.55914535 667.235567 2.23770698 668.946259 2.28604278L680.779768 2.28604278C682.110232 2.23246985 683.338446 2.99677826 683.877766 4.21390374L741.696523 152.237807 741.359326 5.26737968C741.450129 3.55497127 742.890279 2.22737504 744.604847 2.27550802L755.532139 2.27550802C757.214257 2.27311466 758.60365 3.58807638 758.693361 5.26737968L758.693361 191.73262C758.597067 193.440855 757.158532 194.762293 755.44784 194.713957L743.940991 194.713957C742.625651 194.750066 741.418671 193.988612 740.885142 192.786096z"/>
  </g>
</svg>
