<svg xmlns="http://www.w3.org/2000/svg" width="513" height="514" viewBox="0 0 513 514">
  <g fill-rule="evenodd" transform="translate(.39 91.574)">
    <path d="M346.594923,16.2375473 C264.061063,16.2375473 196.917108,83.3815016 196.917108,165.910938 C196.917108,248.440742 264.061063,315.588384 346.594923,315.588384 C429.128415,315.588384 496.272369,248.440742 496.272369,165.910938 C496.272369,83.3815016 429.128415,16.2375473 346.594923,16.2375473 M346.594923,331.247072 C255.429796,331.247072 181.262107,257.079383 181.262107,165.910938 C181.262107,74.750235 255.429796,0.582545976 346.594923,0.582545976 C437.759681,0.582545976 511.931057,74.750235 511.931057,165.910938 C511.931057,257.079383 437.759681,331.247072 346.594923,331.247072"/>
    <path d="M294.084671 220.221183L303.903152 220.221183C309.887153 220.221183 314.138263 218.731635 316.645423 215.730417 319.152583 212.74026 320.402476 208.039335 320.402476 201.63133L320.402476 129.989235C320.402476 124.137598 319.218949 119.617336 316.851895 116.413333 314.481154 113.20933 310.171052 111.605485 303.903152 111.605485L294.084671 111.605485 294.084671 220.221183zM272.776393 91.5555803L304.319783 91.5555803C316.435264 91.5555803 325.697008 94.9328722 332.101327 101.687456 338.505645 108.44204 341.709648 117.873385 341.709648 129.989235L341.709648 199.548175C341.709648 213.470286 338.328669 223.738581 331.577773 230.356745 324.823189 236.971223 315.107944 240.271088 302.439413 240.271088L272.776393 240.271088 272.776393 91.5555803zM383.063039 218.971659L392.254729 218.971659C396.568519 218.971659 399.945811 218.344869 402.382918 217.091289 404.820025 215.834022 406.667212 214.097445 407.920792 211.86681 409.174372 209.643549 409.937581 206.996283 410.217793 203.932386 410.494318 200.868489 410.634424 197.528067 410.634424 193.903747 410.634424 190.146694 410.427952 186.876325 410.007634 184.088953 409.591003 181.301581 408.720871 178.96771 407.397238 177.091027 406.073605 175.210657 404.230105 173.783788 401.863051 172.806733 399.49231 171.837052 396.35836 171.346681 392.461201 171.346681L383.063039 171.346681 383.063039 218.971659zM383.063039 152.546669L392.67136 152.546669C399.776209 152.546669 404.539813 150.773222 406.980607 147.222641 409.414027 143.668374 410.634424 138.484452 410.634424 131.659815 410.634424 124.974547 409.277608 119.960227 406.563976 116.619805 403.846657 113.275696 398.935573 111.605485 391.838098 111.605485L383.063039 111.605485 383.063039 152.546669zM361.755867 91.5518933L392.881519 91.5518933C399.702469 91.5518933 405.516868 92.5990013 410.321029 94.6858432 415.128876 96.7763721 419.059218 99.560057 422.123115 103.044272 425.187012 106.5248 427.37709 110.528882 428.70441 115.05283 430.028043 119.580466 430.688016 124.277704 430.688016 129.152655L430.688016 134.583606C430.688016 138.624558 430.374621 142.035033 429.747831 144.818718 429.121041 147.609776 428.180856 150.043196 426.927276 152.130038 425.673696 154.220567 424.139904 156.064067 422.333274 157.664225 420.51927 159.26807 418.432428 160.764992 416.065374 162.154991 421.079694 164.525732 424.766694 168.039443 427.137435 172.703497 429.500802 177.371239 430.688016 183.602269 430.688016 191.396587L430.688016 199.751328C430.688016 212.843865 427.520883 222.872504 421.18293 229.829873 414.844977 236.794616 404.713102 240.271457 390.79099 240.271457L361.755867 240.271457 361.755867 91.5518933zM65.4471739 171.96241L35.5640401 171.96241C32.4780212 171.96241 29.9745483 174.263098 29.9745483 177.098401L29.9745483 301.774301C29.9745483 304.609604 32.4780212 306.910292 35.5640401 306.910292L65.4471739 306.910292C99.9058745 306.910292 119.163075 292.483062 119.163075 239.434508 119.163075 191.042635 99.9058745 171.96241 65.4471739 171.96241M65.4471739 24.920432L35.5640401 24.920432C32.4780212 24.920432 29.9745483 27.2211199 29.9745483 30.0564228L29.9745483 142.632327C29.9745483 145.46763 32.4780212 147.768317 35.5640401 147.768317L65.4471739 147.768317C97.8780246 147.768317 116.1213 130.553715 116.1213 86.3421625 116.1213 37.9502895 97.8780246 24.920432 65.4471739 24.920432M127.270787 312.49241C112.574406 325.983142 94.3311307 331.568947 64.4332489 331.568947L5.66615833 331.568947C2.57645245 331.568947.0729795533 329.271946.0729795533 326.432956L.0729795533 5.39408078C.0729795533 2.5587779 2.57645245.261776989 5.66615833.261776989L64.9383679.261776989C94.3311307.261776989 112.069287 5.37564578 126.256862 19.3346272 141.458363 34.2301066 146.022869 51.4447089 146.022869 85.8776005 146.022869 109.146257 142.981094 129.620904 124.737819 146.370944 117.640344 152.885873 109.532631 157.538867 101.933724 159.400802 111.560481 161.262737 119.668194 165.912044 126.765668 172.430659 146.527988 191.042635 149.060957 215.704977 149.060957 239.434508 149.060957 280.382328 142.475975 298.065179 127.270787 312.49241"/>
  </g>
</svg>
