<svg xmlns="http://www.w3.org/2000/svg" viewBox="0 0 256 256">
  <g>
    <path d="M113.78,26.61h28.39q16.35,0,25,9.12t8.65,25.47v62.59q0,18.8-9.12,27.73t-26.22,8.93H113.78V26.61ZM133,142.4h8.83q8.08,0,11.47-4t3.38-12.69V61.2q0-7.89-3.19-12.22t-11.65-4.32H133V142.4Z"/>
    <path d="M193.85,26.61h28a39.27,39.27,0,0,1,15.69,2.82,29.64,29.64,0,0,1,10.62,7.52,28.18,28.18,0,0,1,5.92,10.81,45,45,0,0,1,1.78,12.69v4.89a42.67,42.67,0,0,1-.85,9.21,22.14,22.14,0,0,1-2.54,6.58,21.12,21.12,0,0,1-4.14,5,36.08,36.08,0,0,1-5.64,4,20.72,20.72,0,0,1,10,9.49q3.19,6.3,3.19,16.82V124q0,17.67-8.55,27.07T220,160.44H193.85V26.61ZM213,81.5h8.65q9.59,0,12.87-4.79t3.29-14q0-9-3.66-13.53t-13.25-4.51H213V81.5Zm0,59.78h8.27q5.83,0,9.12-1.69a11.68,11.68,0,0,0,5-4.7,17.74,17.74,0,0,0,2.07-7.14q0.37-4.13.37-9a60.22,60.22,0,0,0-.56-8.83,14.52,14.52,0,0,0-2.35-6.3,11.08,11.08,0,0,0-5-3.85,22.66,22.66,0,0,0-8.46-1.32H213v42.86Z"/>
    <path d="M88.69,109a33.15,33.15,0,0,0,3.81-9.87,64.06,64.06,0,0,0,1.27-13.82V78a67.62,67.62,0,0,0-2.68-19A42.26,42.26,0,0,0,82.2,42.73,44.47,44.47,0,0,0,66.26,31.45q-9.73-4.23-23.55-4.23h-42V228.06H39.89q28.2,0,41-14.1t12.84-40.62V162.05q0-15.79-4.8-25.25A31.07,31.07,0,0,0,74,122.56a54,54,0,0,0,8.46-6.07A31.69,31.69,0,0,0,88.69,109ZM54.84,136.95a16.62,16.62,0,0,1,7.47,5.78,21.8,21.8,0,0,1,3.53,9.45,90.64,90.64,0,0,1,.85,13.26q0,7.34-.56,13.54A26.54,26.54,0,0,1,63,189.7a17.53,17.53,0,0,1-7.47,7.05q-4.94,2.54-13.68,2.54H29.45V135h7.91V109.59H29.45V54.3H41.3q14.39,0,19.89,6.77t5.5,20.31q0,13.82-4.94,21c-2.59,3.78-7.17,6-13.68,6.85v26.07A26.28,26.28,0,0,1,54.84,136.95Z"/>
  </g>
</svg>
