<svg version="1.1"
	 xmlns="http://www.w3.org/2000/svg" xmlns:xlink="http://www.w3.org/1999/xlink"
	 x="0px" y="0px" width="256.4px" height="195.3px" viewBox="0 0 256.4 195.3" style="enable-background:new 0 0 256.4 195.3;"
	 xml:space="preserve">
<path d="M42.3,103.5c-4.1-0.2-7.6-3.7-7.3-7.8c0-4.3,3.9-7.8,8.2-7.6c4.1,0.2,7.3,3.9,7.1,8C50.1,100.3,46.5,103.7,42.3,103.5z"/>
<path d="M7.3,103.5c-4.1-0.2-7.6-3.7-7.3-7.8c0-4.3,3.9-7.8,8.2-7.6c4.1,0.2,7.3,3.9,7.1,8C15.1,100.3,11.5,103.7,7.3,103.5z"/>
<path d="M248.3,103.5c-4.1-0.2-7.6-3.7-7.3-7.8c0-4.3,3.9-7.8,8.2-7.6c4.1,0.2,7.3,3.9,7.1,8C256.1,100.3,252.5,103.7,248.3,103.5z"
	/>
<path d="M213.3,103.5c-4.1-0.2-7.6-3.7-7.3-7.8c0-4.3,3.9-7.8,8.2-7.6c4.1,0.2,7.3,3.9,7.1,8C221.1,100.3,217.5,103.7,213.3,103.5z"
	/>
<path d="M151.3,91.5c5.4,1.5,9.6,2.4,13.5,3.9c15.9,6.3,25,18.4,27.1,34.9c0.9,7.5,0.9,15.3-0.3,22.9c-3.6,20.5-17.5,31.9-36.4,37.6
	c-10.2,3-22,4.2-32.5,4.2c-18.1,0.3-37.3,0.3-55.4,0.3c0-65,0-129.7,0-195c3,0,4.8-0.3,6.3-0.3c15.3,0,31.3,0,46.6,0
	c10.8,0,22,1.8,32.2,5.4c14.1,5.1,25.3,13.5,28.9,28.9c4.2,18.1,2.4,34.9-12.9,47.8c-3.3,2.7-7.2,4.5-10.8,6.3
	C155.8,90,154,90.6,151.3,91.5z M85.4,180.8c18.1-0.9,37.9,1.8,56.3-1.8c11.4-2.1,21.7-6.9,28-17.8c4.8-8.4,5.7-17.8,4.8-26.8
	c-1.2-11.4-6.3-20.8-16.5-27.4c-9-6-19.3-7.5-29.5-7.8c-12.3-0.3-25,0-37.3,0c-1.8,0-5.7,0.3-5.7,0.6
	C85.4,127,85.4,153.5,85.4,180.8z M85.4,85.8c15,0,30.4,0.9,44.5-0.3c19.9-1.8,33.7-11.7,35.8-33.1c0.9-11.4-1.8-22.3-12-28.9
	c-5.1-3.3-10.8-5.7-16.9-6.9c-15.9-3.6-32.8-2.4-49-2.1c-0.6,0-2.4,0.3-2.4,0.9C85.4,38.5,85.4,61.7,85.4,85.8z"/>
</svg>
