<svg xmlns="http://www.w3.org/2000/svg" width="24" height="24" viewBox="0 0 24 24">
    <path d="M19.5 23.5L17.5 9.5 6.5 9.5 4.5 23.5 10.5 23.5 10.5 19.5C10.5 18.67 11.172 18 12 18 12.828 18 13.5 18.67 13.5 19.5L13.5 23.5 19.5 23.5zM11.5.5L11.5 6.5M10 5L10 4.5 8 4.5 8 5C8 5.828 7.427 6.5 6.719 6.5 6.045 6.5 5.5 5.828 5.5 5L5.5 4.5 3.5 4.5 3.5 8C3.5 8.828 4.172 9.5 5 9.5L19 9.5C19.828 9.5 20.5 8.828 20.5 8L20.5 4.5 18.5 4.5 18.5 5C18.5 5.828 17.828 6.5 17 6.5 16.172 6.5 15.5 5.828 15.5 5L15.5 4.5 13.5 4.5 13.5 5C13.5 5.828 12.696 6.5 11.703 6.5 10.762 6.5 10 5.828 10 5z" />

    <g stroke="currentColor">
        <polygon points="12 1.5 11.5 1.5 11.5 .5 12 .5 14 1" />
        <polyline points="19.5 23.5 23.5 23.5 23.5 13.5 20.5 13.5 20.5 15.5 18.375 15.5"/>
        <polyline points="5.625 15.5 3.5 15.5 3.5 13.5 .5 13.5 .5 23.5 4.5 23.5"/>
        <path d="M10.5 13.5L12.5 13.5M11.5 12.5L11.5 14.5" />
    </g>
</svg>
