<svg xmlns="http://www.w3.org/2000/svg" width="61" height="61" viewBox="0 0 61 61">
  <g transform="translate(1.806 1.072)">
    <path stroke="currentColor" d="M58.0629067 50.527906C58.0629067 53.317224 54.8424176 56.5350518 52.0563991 56.5350518L6.00650759 56.5350518C3.21848698 56.5350518 0 53.317224 0 50.527906L0 6.475503C0 3.68818732 3.21848698.468357139 6.00650759.468357139L52.0563991.468357139C54.8424176.468357139 58.0629067 3.68818732 58.0629067 6.475503L58.0629067 50.527906 58.0629067 50.527906zM6.00650759 56.5350518L6.00650759 58.5374338M52.0563991 56.5350518L52.0563991 58.5374338"/>
    <path d="M8.00867679 40.5159962L8.00867679 43.5195691C8.00867679 46.5231421 10.010846 48.525524 13.0140998 48.525524L45.0488069 48.525524C48.0520607 48.525524 50.0542299 46.5231421 50.0542299 43.5195691L50.0542299 13.4838398C50.0542299 10.4802669 48.0520607 8.47788495 45.0488069 8.47788495L13.0140998 8.47788495C10.010846 8.47788495 8.00867679 10.4802669 8.00867679 13.4838398L8.00867679 16.4874128M8.00867679 24.4969406L8.00867679 32.5064684"/>
    <polygon points="6.007 24.497 10.011 24.497 10.011 16.488 6.007 16.488"/>
    <polygon points="6.007 40.516 10.011 40.516 10.011 32.507 6.007 32.507"/>
    <path d="M18.0195228 28.5017045L24.0260304 28.5017045M21.5370337 36.9971103L25.7856368 32.749057M30.032538 40.5159962L30.032538 34.5088503M38.5271412 36.9971103L34.2795393 32.749057M42.0455531 28.5017045L36.0390456 28.5017045M38.5261401 20.0061986L34.2805403 24.2542519M30.0315369 16.4883138L30.032538 22.4944585M21.5370337 20.0071998L25.7856368 24.2542519M36.0390456 28.5017045C36.0390456 31.8186502 33.3491312 34.5088503 30.032538 34.5088503 26.7159447 34.5088503 24.0260304 31.8186502 24.0260304 28.5017045 24.0260304 25.1847588 26.7159447 22.4945586 30.032538 22.4945586 33.3491312 22.4945586 36.0390456 25.1847588 36.0390456 28.5017045L36.0390456 28.5017045z"/>
    <path d="M42.0455531,28.5017045 C42.0455531,35.1365971 36.6667256,40.5159962 30.032538,40.5159962 C23.3983503,40.5159962 18.0195228,35.1365971 18.0195228,28.5017045 C18.0195228,21.8668119 23.3983503,16.4874128 30.032538,16.4874128 C36.6667256,16.4874128 42.0455531,21.8668119 42.0455531,28.5017045 L42.0455531,28.5017045 Z"/>
  </g>
</svg>
