<svg xmlns="http://www.w3.org/2000/svg" width="51" height="61" viewBox="0 0 51 61">
  <g transform="translate(1.016 .648)">
    <g stroke="currentColor">
        <polyline points="22.393 52.53 0 52.53 0 .468 28.03 .468 40.043 12.483 40.043 17.489" />
        <polyline points="28.03 .468 28.03 12.483 40.043 12.483"/>
    </g>
    <g transform="translate(27 23)">
      <polyline points="19.05 18.735 19.05 35.537 11.041 29.53 3.033 35.537 3.033 19.32"/>
      <path d="M15.0455531,11.5088503 C15.0455531,13.7204812 13.2516095,15.5136142 11.0412148,15.5136142 C8.83081996,15.5136142 7.03687636,13.7204812 7.03687636,11.5088503 C7.03687636,9.29621828 8.83081996,7.50408644 11.0412148,7.50408644 C13.2516095,7.50408644 15.0455531,9.29621828 15.0455531,11.5088503 L15.0455531,11.5088503 Z" />
      <path d="M19.9331485,11.5518014 C21.1985194,9.97392446 21.4507927,7.7282531 20.3786311,5.87104383 C19.3064695,4.01583696 17.2342244,3.10875793 15.2370606,3.41612356 C14.5042667,1.53188214 12.6822927,0.190286234 10.5409728,0.190286234 C8.39664957,0.190286234 6.57567668,1.53188214 5.84388384,3.41712475 C3.84571898,3.10975912 1.77347386,4.01583696 0.703314425,5.87104383 C-0.36884718,7.7282531 -0.117574946,9.97592684 1.1467949,11.5518014 C-0.117574946,13.1296784 -0.36884718,15.376351 0.703314425,17.232559 C1.77347386,19.0897683 3.84672007,19.9958461 5.84488492,19.6884805 C6.57767885,21.5727219 8.39765065,22.9143178 10.5409728,22.9143178 C12.6842949,22.9143178 14.5042667,21.5727219 15.2380617,19.6874793 C17.2362266,19.9948449 19.3064695,19.0897683 20.3786311,17.232559 C21.4507927,15.376351 21.1985194,13.127676 19.9331485,11.5518014 L19.9331485,11.5518014 Z" />
    </g>
  </g>
</svg>
