<svg xmlns="http://www.w3.org/2000/svg" width="22" height="19" viewBox="0 0 22 19">
  <g fill="none" fill-rule="evenodd" transform="translate(-1 -5)">
    <g transform="translate(1 6)">
      <path d="M4.734,7.5 L12.067,7.5 C13.682,7.5 15.138,6.529 15.759,5.038 L17.234,1.5 L18.234,3.941 C20.637,5.457 21.234,5.467 21.234,7.187 C21.234,7.912 20.647,8.499 19.922,8.499 L18.734,8.499 L17.234,11.499 L15.923,16.741 C15.812,17.186 15.411,17.499 14.952,17.499 C14.534,17.499 14.196,17.156 14.199,16.741 C14.223,13.369 13.973,12.499 9.733,12.499 C4.07,12.499 3.546,14.408 1.991,17.011 C1.447,17.922 0.22,17.433 0.545,16.628 C1.191,15.031 2.577,11.571 3.467,9.089 C1.952,8.342 1.234,7 1.234,5 C1.234,0.172 6.437,-1.778 7.065,1.982 C7.225,2.948 5.868,3.401 5.597,2.587 C4.766,0.102 1.323,5.453 4.734,7.5 Z" />
      <path stroke="currentColor" d="M8.234 12.621L8.633 16.873C8.693 17.514 7.805 17.75 7.539 17.163L5.667 13.05M16.416 14.772L17.937 17.054C18.507 17.909 19.637 17.413 19.311 16.67 19.104 16.198 18.816 15.455 17.234 11.499" />
      <path stroke="currentColor" d="M18.5,6 C18.224,6 18,6.224 18,6.5 C18,6.776 18.224,7 18.5,7 C18.776,7 19,6.776 19,6.5 C19,6.224 18.776,6 18.5,6 L18.5,6 Z"/>
    </g>
    <rect width="24" height="24"/>
  </g>
</svg>
