<svg xmlns="http://www.w3.org/2000/svg" width="24" height="24" viewBox="0 0 24 24">
  <g>
    <path d="M19.536 9.692L15.646 13.582C13.507 15.721 9.848 15.561 7.515 13.228 5.181 10.894 5.022 7.234 7.161 5.095L11.05 1.206M11.051 1.207L19.536 9.692M13.172 3.328L16 .5M17.415 7.57L20.243 4.742M11.051 4.035L16.707 9.692"/>
    <circle stroke="currentColor" cx="10.697" cy="10.046" r="1.5"/>
    <polyline points="8.698 14.167 6.454 16.41 4.333 14.289 6.576 12.045"/>
    <path stroke="currentColor" d="M5.394,15.35 L0.798,19.946 C0.017,20.727 0.017,21.993 0.798,22.774 C1.578,23.555 2.845,23.555 3.626,22.774 L6.808,19.592 C7.394,19.006 8.344,19.006 8.93,19.592 C9.515,20.178 9.515,21.127 8.93,21.713 L7.247,23.395"/>
  </g>
</svg>
