<svg version="1.1"
	 xmlns="http://www.w3.org/2000/svg" xmlns:xlink="http://www.w3.org/1999/xlink" viewBox="0 0 58 60">
    <g>
    	<path class="st0" d="M51,27c3.8,0,6-2.2,6-6c0-3.8-3.5-6-6-6h-3c0,0-3-6-8-6c0,0-3.4-8-11-8c-7.6,0-11,8-11,8c-5,0-8,6-8,6H7
    		c-2.5,0-6,2.2-6,6c0,3.8,2.2,6,6,6H51z"/>
    	<polygon class="st1" points="35,59 23,59 17,43 41,43 	"/>
    </g>
    <g stroke="currentColor">
        <line class="st0" x1="29" y1="27" x2="29" y2="43"/>
        <line class="st0" x1="39" y1="27" x2="29" y2="37"/>
        <line class="st0" x1="19" y1="27" x2="29" y2="37"/>
    </g>
</svg>
