<svg xmlns="http://www.w3.org/2000/svg" width="18" height="24" viewBox="0 0 18 24">
  <g fill="#000000">
    <path d="M5.5,16 L4,16 L4,17 L5.5,17 C5.775,17 6,16.775 6,16.5 C6,16.224 5.775,16 5.5,16 Z"/>
    <path d="M17.5,4 L17,4 L17,0.5 C17,0.224 16.775,0 16.5,0 L2.5,0 C1.121,0 0,1.122 0,2.5 L0,21.5 C0,22.878 1.121,24 2.5,24 L17.5,24 C17.775,24 18,23.776 18,23.5 L18,4.5 C18,4.224 17.775,4 17.5,4 Z M7,18.5 C7,19.327 6.327,20 5.5,20 L3.5,20 C3.224,20 3,19.776 3,19.5 L3,15.5 C3,15.223 3.224,15 3.5,15 L5.5,15 C6.327,15 7,15.673 7,16.5 C7,16.883 6.856,17.234 6.617,17.5 C6.856,17.765 7,18.115 7,18.5 Z M10.5,13 C10.224,13 10,12.776 10,12.5 L10,12 L8,12 L8,12.5 C8,12.776 7.776,13 7.5,13 C7.224,13 7,12.776 7,12.5 L7,10 C7,8.896 7.898,8 9,8 C10.102,8 11,8.896 11,10 L11,12.5 C11,12.776 10.776,13 10.5,13 Z M13.5,19 L14.5,19 C14.776,19 15,19.223 15,19.5 C15,19.776 14.776,20 14.5,20 L13.5,20 C12.121,20 11,18.878 11,17.5 C11,16.121 12.121,15 13.5,15 L14.5,15 C14.776,15 15,15.223 15,15.5 C15,15.776 14.776,16 14.5,16 L13.5,16 C12.673,16 12,16.673 12,17.5 C12,18.327 12.673,19 13.5,19 Z M16,4 L15,4 L15,2.5 C15,2.224 14.775,2 14.5,2 L2.5,2 C2.224,2 2,2.224 2,2.5 C2,2.776 2.224,3 2.5,3 L14,3 L14,4 L2.5,4 C1.673,4 1,3.327 1,2.5 C1,1.673 1.673,1 2.5,1 L16,1 L16,4 Z"/>
    <path d="M9 9C8.448 9 8 9.448 8 10L8 11 10 11 10 10C10 9.448 9.552 9 9 9zM5.5 18L4 18 4 19 5.5 19C5.775 19 6 18.775 6 18.5 6 18.224 5.775 18 5.5 18z"/>
  </g>
</svg>
