<svg xmlns="http://www.w3.org/2000/svg" width="61" height="61" viewBox="0 0 61 61">
  <g transform="translate(1.415 .787)">
    <path d="M48.0520607 58.5374338L43.0466377 24.4969406 15.016269 24.4969406 10.010846 58.5374338 24.0260304 58.5374338 24.0260304 48.525524C24.0260304 45.5219511 26.0281996 44.5207601 29.0314534 44.5207601 32.0347072 44.5207601 34.0368764 45.5219511 34.0368764 48.525524L34.0368764 58.5374338 48.0520607 58.5374338 48.0520607 58.5374338zM26.0281996 32.5064684L32.0347072 32.5064684M29.0314534 29.5028955L29.0314534 35.5100413M46.0498915 11.7424684C46.0498915 13.8349575 44.1358178 15.4859214 42.0455531 15.4859214 39.9552885 15.4859214 38.0412148 13.8349575 38.0412148 11.7424684L38.0412148 10.4799665 33.0357918 10.4799665 33.0357918 11.7424684C33.0357918 13.8349575 31.1237202 15.4859214 29.0314534 15.4859214 26.9411887 15.4859214 25.027115 13.8349575 25.027115 11.7424684L25.027115 10.4799665 20.021692 10.4799665 20.021692 11.4811575C20.021692 13.5736467 18.1076182 15.4859214 16.0173536 15.4859214 13.9270889 15.4859214 12.0130152 13.5736467 12.0130152 11.4811575L12.0130152 10.4799665 8.00867679 10.4799665 8.00867679 20.4918763C8.00867679 22.5843655 9.92275054 24.4966402 12.0130152 24.4966402L46.0498915 24.4966402C48.1421584 24.4966402 50.0542299 22.5843655 50.0542299 20.4918763L50.0542299 10.4799665 46.0498915 10.4799665 46.0498915 11.7424684 46.0498915 11.7424684zM29.0314534.468357139L29.0314534 15.4862218"/>

    <g stroke="currentColor">
        <polygon points="30.033 4.473 29.031 4.473 29.031 .468 30.033 .468 37.04 2.471"/>
        <polyline points="48.052 58.537 58.063 58.537 58.063 32.506 50.054 32.506 50.054 38.514 45.111 38.514"/>
        <polyline points="10.011 58.537 0 58.537 0 32.506 8.009 32.506 8.009 38.514 12.952 38.514"/>
    </g>
  </g>
</svg>
