<svg xmlns="http://www.w3.org/2000/svg" width="61" height="61" viewBox="0 0 61 61">
  <g transform="translate(1.895 .858)">
    <path d="M52.0563991,40.5159962 C52.0563991,42.7266259 50.2634566,44.5207601 48.0520607,44.5207601 C45.8406649,44.5207601 44.0477223,42.7266259 44.0477223,40.5159962 C44.0477223,38.3033641 45.8406649,36.5112323 48.0520607,36.5112323 C50.2634566,36.5112323 52.0563991,38.3033641 52.0563991,40.5159962 L52.0563991,40.5159962 Z"/>
    <path d="M58.0629067,40.5159962 C58.0629067,46.0445728 48.0520607,58.5374338 48.0520607,58.5374338 C48.0520607,58.5374338 38.0412148,46.0445728 38.0412148,40.5159962 C38.0412148,34.9874196 42.5230705,30.5040864 48.0520607,30.5040864 C53.5800499,30.5040864 58.0629067,34.9874196 58.0629067,40.5159962 L58.0629067,40.5159962 Z"/>
    <polyline stroke="currentColor" points="33.036 44.521 18.02 54.533 0 42.518 0 .468 18.02 12.483 36.039 .468 54.059 12.483 54.059 25.498"/>
    <path stroke="currentColor" d="M18.0195228 54.5326699L18.0195228 12.4826489M36.0390456 25.4981316L36.0390456.468357139"/>
  </g>
</svg>
