<svg xmlns="http://www.w3.org/2000/svg" width="24" height="24" viewBox="0 0 24 24">
  <g>
    <path d="M23.5,21.5 C23.5,22.6 22.6,23.5 21.5,23.5 L2.5,23.5 C1.399,23.5 0.5,22.6 0.5,21.5 L0.5,2.5 C0.5,1.399 1.399,0.5 2.5,0.5 L21.5,0.5 C22.6,0.5 23.5,1.399 23.5,2.5 L23.5,21.5 Z"/>
    <polyline stroke="currentColor" points=".5 9.5 4.5 9.5 6.5 6.499 8.5 9.499 10.5 4.999 13.5 14.499 16 2.499 18 9.5 23.5 9.5"/>
    <path stroke="currentColor" d="M4.5 20.5L4.5 21.5M10.5 20.5L10.5 21.5M16.5 20.5L16.5 21.5M7.5 18.5L7.5 21.5M13.5 18.5L13.5 21.5M19.5 18.5L19.5 21.5"/>
  </g>
</svg>
