<svg xmlns="http://www.w3.org/2000/svg" width="22" height="22" viewBox="0 0 22 22">
    <g transform="translate(6 7)">
        <path d="M.386.407L9.619 7.582M.386 7.582L9.619.407"/>
    </g>
    <g stroke="currentColor">
        <ellipse cx="3.5" cy="2" rx="3" ry="1.5"/>
        <path d="M6.5,4.5 C6.5,5.328 5.156,6 3.5,6 C1.844,6 0.5,5.328 0.5,4.5"/>
        <path d="M6.5,2 L6.5,7 C6.5,7.828 5.156,8.5 3.5,8.5 C1.844,8.5 0.5,7.828 0.5,7 L0.5,2"/>
        <ellipse cx="18.5" cy="2" rx="3" ry="1.5"/>
        <path d="M21.5,4.5 C21.5,5.328 20.156,6 18.5,6 C16.844,6 15.5,5.328 15.5,4.5"/>
        <path d="M21.5,2 L21.5,7 C21.5,7.828 20.156,8.5 18.5,8.5 C16.844,8.5 15.5,7.828 15.5,7 L15.5,2"/>
        <ellipse cx="3.5" cy="15" rx="3" ry="1.5"/>
        <path d="M6.5,17.5 C6.5,18.328 5.156,19 3.5,19 C1.844,19 0.5,18.328 0.5,17.5"/>
        <path d="M6.5,15 L6.5,20 C6.5,20.828 5.156,21.5 3.5,21.5 C1.844,21.5 0.5,20.828 0.5,20 L0.5,15"/>
        <ellipse cx="18.5" cy="15" rx="3" ry="1.5"/>
        <path d="M21.5,17.5 C21.5,18.328 20.156,19 18.5,19 C16.844,19 15.5,18.328 15.5,17.5"/>
        <path d="M21.5,15 L21.5,20 C21.5,20.828 20.156,21.5 18.5,21.5 C16.844,21.5 15.5,20.828 15.5,20 L15.5,15"/>
    </g>
</svg>
