<svg xmlns="http://www.w3.org/2000/svg" width="61" height="47" viewBox="0 0 61 47">
  <g transform="matrix(-1 0 0 1 59.088 .946)">
    <path d="M54.0585683 38.5136142C54.0585683 41.8315611 51.3696551 44.5207601 48.0520607 44.5207601 44.7314631 44.5207601 42.0455531 41.8315611 42.0455531 38.5136142 42.0455531 35.1966685 44.7314631 32.5064684 48.0520607 32.5064684 51.3696551 32.5064684 54.0585683 35.1966685 54.0585683 38.5136142L54.0585683 38.5136142zM26.0281996 38.5136142C26.0281996 41.8315611 23.3392863 44.5207601 20.021692 44.5207601 16.7010944 44.5207601 14.0151844 41.8315611 14.0151844 38.5136142 14.0151844 35.1966685 16.7010944 32.5064684 20.021692 32.5064684 23.3392863 32.5064684 26.0281996 35.1966685 26.0281996 38.5136142L26.0281996 38.5136142z"/>
    <polyline stroke="currentColor" points="20.022 26.499 20.022 .468 58.063 .468 58.063 37.512"/>
    <path stroke="currentColor" d="M0 40.5159962L0 18.4897947C0 14.0845544 3.60390456 10.4802669 8.00867679 10.4802669L20.021692 10.4802669M30.032538 38.5136142L38.0412148 38.5136142M0 40.5159962L10.010846 40.5159962"/>
    <path d="M6.00650759 24.4969406L6.00650759 19.4909857C6.00650759 17.8400218 7.3579718 16.4874128 9.00976139 16.4874128L14.0151844 16.4874128M0 34.5088503L10.010846 34.5088503"/>
  </g>
</svg>
