<svg xmlns="http://www.w3.org/2000/svg" width="59" height="61" viewBox="0 0 59 61">
  <g transform="translate(1.938 1.215)">
    <path stroke="currentColor" d="M0 58.5374338L56.0607375 58.5374338M0 54.5326699L56.0607375 54.5326699M42.0455531 50.527906L54.0585683 50.527906M42.0455531 28.5017045L54.0585683 28.5017045" />
    <path d="M44.0477223 50.527906L44.0477223 28.5017045M52.0563991 50.527906L52.0563991 28.5017045"/>
    <path d="M2.0021692 50.527906L14.0151844 50.527906M2.0021692 28.5017045L14.0151844 28.5017045" />
    <path d="M4.00433839 50.527906L4.00433839 28.5017045M12.0130152 50.527906L12.0130152 28.5017045"/>
    <path d="M22.0238612 50.527906L34.0368764 50.527906M22.0238612 28.5017045L34.0368764 28.5017045" />
    <path d="M24.0260304 50.527906L24.0260304 28.5017045M32.0347072 50.527906L32.0347072 28.5017045"/>
    <polygon stroke="currentColor" points="0 24.497 56.061 24.497 28.03 .468" />
  </g>
</svg>
