<!-- Generator: Adobe Illustrator 19.2.0, SVG Export Plug-In  -->
<svg version="1.1"
	 xmlns="http://www.w3.org/2000/svg" xmlns:xlink="http://www.w3.org/1999/xlink" xmlns:a="http://ns.adobe.com/AdobeSVGViewerExtensions/3.0/"
	 x="0px" y="0px" width="58px" height="60px" viewBox="0 0 58 60" style="enable-background:new 0 0 58 60;" xml:space="preserve">
<style type="text/css">
	.st0{fill:none;stroke:#000000;stroke-width:2;stroke-miterlimit:10;}
	.st1{fill:none;stroke:#000000;stroke-width:2;stroke-linejoin:round;stroke-miterlimit:10;}
</style>
<defs>
</defs>
<g>
	<path class="st0" d="M51,27c3.8,0,6-2.2,6-6c0-3.8-3.5-6-6-6h-3c0,0-3-6-8-6c0,0-3.4-8-11-8c-7.6,0-11,8-11,8c-5,0-8,6-8,6H7
		c-2.5,0-6,2.2-6,6c0,3.8,2.2,6,6,6H51z"/>
	<line class="st0" x1="29" y1="27" x2="29" y2="43"/>
	<line class="st0" x1="39" y1="27" x2="29" y2="37"/>
	<line class="st0" x1="19" y1="27" x2="29" y2="37"/>
	<polygon class="st1" points="35,59 23,59 17,43 41,43 	"/>
</g>
</svg>
