<svg xmlns="http://www.w3.org/2000/svg" width="61" height="59" viewBox="0 0 61 59">
  <g transform="translate(1.676 .722)">
    <polyline points="0 34.509 15.016 34.509 19.021 29.503 24.026 37.512 30.033 23.496 35.038 42.518 39.042 34.509 58.063 34.509"/>
    <path stroke="currentColor" d="M52.3936645 29.0316349C54.3117426 24.9778126 56.0606374 22.6570519 56.0606374 18.4900951 56.0606374-5.53848836 32.034607-4.53729739 29.0313533 15.4865221 26.0280995-4.53729739 2.00206909-5.53848836 2.00206909 18.4900951 2.00206909 22.2755982 3.40158536 25.5484915 4.82412657 29.0316349M10.6785694 39.1295469C18.4700108 49.5439355 29.0314534 56.5352521 29.0314534 56.5352521 29.0314534 56.5352521 38.5157289 49.1865103 46.1389881 39.1295469"/>
  </g>
</svg>
