<svg xmlns="http://www.w3.org/2000/svg" width="24" height="25" viewBox="0 0 24 25">
  <g>
    <path d="M21.277 11.908C23.322 9.862 23.717 6.785 22.467 4.343L19.156 7.5 16.5 7.5 16.5 5 19.722 1.524C17.28.275 14.171.67 12.126 2.714 10.082 4.758 9.666 7.825 10.916 10.268L1.089 20.087C.308 20.867.302 22.133 1.084 22.914 1.865 23.696 3.128 23.696 3.909 22.914L13.725 13.097C16.168 14.347 19.234 13.951 21.277 11.908zM16.5 7.5L21 12.313"/>
    <path stroke="currentColor" d="M12.5 9L14 7.5M13.75 10.25L15.25 8.75M15 11.5L16.5 10"/>
  </g>
</svg>
