<svg xmlns="http://www.w3.org/2000/svg" width="61" height="56" viewBox="0 0 61 56">
  <g transform="translate(1.658 1.939)">
    <polyline stroke="currentColor" points="40.043 12.483 58.063 12.483 58.063 52.53 0 52.53 0 12.483 18.02 12.483"/>
    <path d="M0 22.4945586L58.0629067 22.4945586M30.032538 30.5040864L41.0444685 30.5040864M30.032538 36.5112323L45.0488069 36.5112323M30.032538 42.5183782L43.0466377 42.5183782M29.0314534-.315275039C25.5466779-.315275039 22.719615 2.51108709 22.0238612 5.99623288L22.0238612 16.4877131 36.0390456 16.4877131 36.0390456 5.99623288C35.3432918 2.51108709 32.5162289-.315275039 29.0314534-.315275039L29.0314534-.315275039zM20.1956805 33.7686699C20.1956805 35.8601578 18.5008443 37.5561753 16.4085774 37.5561753 14.3173117 37.5561753 12.6224755 35.8601578 12.6224755 33.7686699 12.6224755 31.6771819 14.3173117 29.9821656 16.4085774 29.9821656 18.5008443 29.9821656 20.1956805 31.6771819 20.1956805 33.7686699L20.1956805 33.7686699z"/>
    <path d="M22.7199153,46.5231421 L10.0982407,46.5231421 C10.0982407,40.9475095 12.9233014,37.5554745 16.409078,37.5554745 C19.8948546,37.5554745 22.7199153,40.9475095 22.7199153,46.5231421 L22.7199153,46.5231421 Z"/>
  </g>
</svg>
