<svg xmlns="http://www.w3.org/2000/svg" width="126" height="104" viewBox="0 0 126 104">
  <g fill="#000000" fill-rule="evenodd" transform="matrix(-1 0 0 1 126 0)">
    <path d="M114.305 4.3808C113.917 3.8078 113.545 3.232 113.204 2.656 112.201 3.029 111.215 3.455 110.253 3.9188 110.547 4.4608 110.868 5.0038 111.204 5.5458 112.207 5.1428 113.261 4.7498 114.305 4.3808M116.611 7.4169C116.082 6.7989 115.591 6.1699 115.123 5.5369 114.206 6.0829 113.283 6.6629 112.357 7.2669 112.898 8.0239 113.47 8.7769 114.099 9.5139 115.647 11.3309 117.317 12.8899 119.021 14.1949 119.649 13.3279 120.247 12.4329 120.793 11.5139 119.348 10.3309 117.936 8.9629 116.611 7.4169M113.968 2.391C114.252 2.865 114.57 3.363 114.973 3.958 115.008 4.01 115.042 4.061 115.077 4.112 118.98 2.768 124.769.819 122.504 1.849 120.355 2.675 118.109 3.807 115.814 5.139 116.307 5.802 116.768 6.384 117.218 6.909 118.44 8.332 119.776 9.642 121.188 10.81 122.852 7.826 125.943 3.411 125.898.109 122.58-.453 117.205 1.283 113.968 2.391M85.8659 38.3529C86.7409 39.4039 88.9949 39.7509 89.8649 40.8009 89.2859 42.5569 88.7089 44.3139 88.1339 46.0709 86.5139 48.1989 84.9069 50.3239 83.3209 52.4429 88.9489 47.6559 94.7449 42.7909 100.544 37.9779 100.608 35.4469 100.264 33.1369 100.306 30.6039 95.8239 33.0109 90.3429 35.9289 85.8659 38.3529M80.7155 32.0614C83.9075 28.0924 87.9865 22.9064 91.1485 18.9404 88.6495 18.5204 86.1525 18.1054 83.6575 17.7004 77.9015 22.5274 72.0655 27.3684 66.3155 32.0934 68.6945 30.8964 71.0785 29.6864 73.4665 28.4694 75.2985 28.2174 77.1315 27.9644 78.9635 27.7114 79.8375 28.7594 79.8395 31.0114 80.7155 32.0614M113.479 10.0307C112.894 9.3437 112.309 8.5887 111.692 7.7217 111.69 7.7177 111.687 7.7157 111.685 7.7117 99.0592 16.1227 86.0372 28.8597 86.0912 28.8047 90.1262 23.8767 94.1572 18.9447 98.0692 14.0717 98.0632 14.0777 101.541 10.8327 106.869 7.5997 107.791 7.0407 109.056 6.4437 110.453 5.8587 110.101 5.2857 109.797 4.7657 109.535 4.2797 102.532 7.8207 96.8672 13.1127 96.8692 13.1037 90.8602 20.7467 84.5642 28.5187 78.4092 36.1967 78.5422 36.3577 78.6762 36.5177 78.8112 36.6787 79.1412 36.3867 79.3522 36.2037 79.3632 36.1947 84.6822 31.7637 90.0582 27.2837 95.3632 22.8577 95.6642 22.6077 96.0422 22.4797 96.4322 22.4947 96.8862 22.5127 97.3142 22.7237 97.6072 23.0737 97.8802 23.3997 98.0122 23.8137 97.9772 24.2377 97.9422 24.6617 97.7432 25.0447 97.4172 25.3157 92.1012 29.7387 86.7222 34.2177 81.4102 38.6527 81.4002 38.6607 81.1822 38.8347 80.8362 39.1047 81.0342 39.3417 81.2312 39.5777 81.4282 39.8147 90.0822 35.1427 98.8562 30.3637 107.5 25.7797 107.487 25.7837 113.759 21.1217 118.535 14.8387 116.702 13.4367 115.001 11.8187 113.479 10.0307"/>
    <path d="M80.8581,37.9891 C80.5381,38.2571 74.2841,43.0461 74.0351,42.7241 C73.7591,42.4201 79.5931,37.1241 79.9151,36.8591 C85.2321,32.4271 90.6091,27.9461 95.9171,23.5201 C96.2261,23.2631 96.6901,23.3091 96.9501,23.6211 C97.2121,23.9321 97.1711,24.3961 96.8631,24.6531 C91.5501,29.0761 86.1721,33.5561 80.8581,37.9891"/>
    <path d="M80.1598 39.6293C78.2698 41.0833 74.8378 43.6343 74.0558 43.5963 73.9288 43.5903 73.8008 43.5843 73.6728 43.5783 73.5778 43.4743 73.4818 43.3703 73.3868 43.2663 73.3088 43.1743 73.2318 43.0823 73.1548 42.9903 73.1608 42.8603 73.1678 42.7313 73.1738 42.6013 73.2328 41.7963 76.3858 38.8543 78.1718 37.2493 77.8868 36.9063 77.5998 36.5653 77.3148 36.2223 75.3788 36.3903 71.0728 38.0533 69.2438 42.7573 67.2238 47.4983-.2761 103.7063.0009 103.4823-.2551 103.6903 67.3008 48.8473 72.9328 47.0503 77.5908 45.5653 80.3238 44.2663 81.2118 40.8913 80.8608 40.4703 80.5108 40.0493 80.1598 39.6293M77.1198 32.8959C76.2408 33.6049 63.1278 41.1179 63.1278 41.1179 63.1278 41.1179 73.6728 30.4229 74.5508 29.7139 75.4298 29.0039 76.7178 29.1419 77.4268 30.0209 78.1358 30.8989 77.9988 32.1869 77.1198 32.8959M87.4567 44.3324C86.5777 45.0414 73.4637 52.5544 73.4637 52.5544 73.4637 52.5544 84.0087 41.8594 84.8877 41.1504 85.7667 40.4404 87.0537 40.5784 87.7637 41.4574 88.4727 42.3354 88.3357 43.6234 87.4567 44.3324"/>
  </g>
</svg>
