<svg xmlns="http://www.w3.org/2000/svg" width="227" height="22" viewBox="0 0 227 22">
  <path fill="#000000" d="M13.7167867,0 C11.2625741,0 9.2460167,1.83916493 9.24601158,4.90332103 C9.24601158,7.77478376 10.6031428,9.57933579 13.396301,9.57933579 C15.8779523,9.57933579 17.8831004,7.72387235 17.8831004,4.6597786 C17.8831004,1.48600112 16.1577389,0 13.7167867,0 Z M38.265989,0 C36.0691238,0 34.7887195,1.14380517 34.7887195,2.79261993 C34.7887195,5.81520626 38.6505718,5.03028523 38.6505718,6.80295203 C38.6505718,7.6548284 37.9269818,8.02066421 37.0321192,8.02066421 C36.3676216,8.02066421 35.6405755,7.87473618 35.1252294,7.69594096 L35.0130594,9.35202952 C35.5825599,9.50315832 36.2370583,9.57933579 36.8879006,9.57933579 C39.138992,9.57933579 40.5093887,8.30408785 40.5093887,6.55940959 C40.5093887,3.68742731 36.6315172,4.27666751 36.6315121,2.61402214 C36.6315121,1.9547716 37.1687076,1.47748558 38.1858676,1.47749077 C38.7416513,1.47749077 39.3212175,1.58620812 39.8363688,1.73726937 L39.9325145,0.162361624 C39.390063,0.066503321 38.7810736,0 38.265989,0 Z M172.453339,0 C170.256346,0 168.96005,1.14380517 168.960045,2.79261993 C168.960045,5.81520626 172.821903,5.03028523 172.821898,6.80295203 C172.821898,7.6548284 172.11426,8.02066421 171.219469,8.02066421 C170.554269,8.02066421 169.811255,7.87473618 169.296555,7.69594096 L169.200409,9.35202952 C169.770489,9.50315832 170.408133,9.57933579 171.059226,9.57933579 C173.310764,9.57933579 174.68072,8.30408785 174.680714,6.55940959 C174.680714,3.68742731 170.802843,4.27666751 170.802838,2.61402214 C170.802838,1.9547716 171.356119,1.47748558 172.373218,1.47749077 C172.929324,1.47749077 173.492107,1.58620812 174.007694,1.73726937 L174.10384,0.162361624 C173.561835,0.066503321 172.968936,0 172.453339,0 Z M224.7566,0 C222.559607,0 221.263312,1.14380517 221.263307,2.79261993 C221.263307,5.81520626 225.141173,5.03028523 225.141183,6.80295203 C225.141183,7.6548284 224.417532,8.02066421 223.52273,8.02066421 C222.857592,8.02066421 222.130618,7.87473618 221.615841,7.69594096 L221.503671,9.35202952 C222.073751,9.50315832 222.727357,9.57933579 223.378512,9.57933579 C225.629988,9.57933579 226.999985,8.30408785 227,6.55940959 C227,3.68742731 223.122129,4.27666751 223.122123,2.61402214 C223.122123,1.9547716 223.659334,1.47748558 224.676479,1.47749077 C225.232524,1.47749077 225.795302,1.58620812 226.310956,1.73726937 L226.407102,0.162361624 C225.865096,0.066503321 225.272198,0 224.7566,0 Z M69.2569533,0.0162361624 C66.0838887,0.0162361624 64.1291774,2.08784059 64.1291825,5.00073801 C64.1291825,7.83083359 65.8584002,9.56310483 68.7602005,9.56309963 C69.8586972,9.56309963 70.9764845,9.34943173 71.8849358,8.97859779 L71.8849358,4.56236162 L70.1222646,4.56236162 L70.1222646,7.79335793 C69.7696021,7.90305204 69.3864961,7.95572475 68.9524919,7.95571956 C67.0946339,7.95571956 66.0360672,6.80321181 66.0360723,4.83837638 C66.0360723,2.76345718 67.3412899,1.60738007 69.1447833,1.60738007 C69.9991314,1.60738007 70.8482287,1.789807 71.5804744,2.07822878 L71.8528872,0.405904059 C71.066482,0.17223321 70.1655942,0.0162361624 69.2569533,0.0162361624 Z M141.430326,0.0811808118 C138.365781,0.0811808118 136.847386,2.14129263 136.847381,5.08191882 C136.847381,7.38998412 137.87774,9.54686866 141.077792,9.54686347 C141.932207,9.54686347 142.755347,9.38833098 143.433362,9.14095941 L143.24107,7.5498155 C142.766367,7.76958819 142.018035,7.92324723 141.462375,7.92324723 C139.617787,7.92324723 138.786314,6.79353765 138.786319,4.77343173 C138.786319,2.97355572 139.625479,1.67231953 141.33418,1.67232472 C141.958035,1.67232472 142.580418,1.76954427 143.176973,1.94833948 L143.369264,0.324723247 C142.772715,0.159826185 142.080979,0.0811756162 141.430326,0.0811808118 Z M210.222575,0.0811808118 C207.157963,0.0811808118 205.639645,2.14129263 205.63963,5.08191882 C205.63963,7.38998412 206.669933,9.54686866 209.870041,9.54686347 C210.724389,9.54686347 211.547278,9.38833098 212.225611,9.14095941 L212.017295,7.5498155 C211.542269,7.76958819 210.793804,7.92324723 210.238599,7.92324723 C208.393566,7.92324723 207.578558,6.79353765 207.578568,4.77343173 C207.578568,2.97355572 208.417672,1.67231953 210.126429,1.67232472 C210.750223,1.67232472 211.372678,1.76954427 211.969222,1.94833948 L212.161513,0.324723247 C211.564195,0.159826185 210.872787,0.0811756162 210.222575,0.0811808118 Z M186.891218,0.0974169742 C185.833616,0.0974169742 184.982016,0.10469597 184.263236,0.146125461 L184.263236,9.41697417 L186.025907,9.41697417 L186.025907,5.58523985 L186.090004,5.58523985 L188.685938,9.41697417 L190.817168,9.41697417 L188.621841,6.299631 C188.391286,5.98361033 188.141692,5.63667601 187.884724,5.29298893 C189.26794,5.07321624 190.208245,4.08527823 190.208245,2.71143911 C190.208245,0.815247587 188.911365,0.0974169742 186.891218,0.0974169742 Z M0,0.146125461 L3.18883242,9.41697417 L5.20789214,9.41697417 L8.41274884,0.146125461 L6.6020048,0.146125461 L4.80728505,5.47158672 C4.53628237,6.25481919 4.38193134,6.77158117 4.24643513,7.40369004 L4.23041084,7.40369004 C4.06760412,6.73014648 3.86178566,6.10758707 3.6855852,5.58523985 L1.90688974,0.146125461 L0,0.146125461 Z M20.0303544,0.146125461 L20.0303544,9.41697417 L24.7735423,9.41697417 L24.7735423,7.85830258 L21.7930256,7.85830258 L21.7930256,0.146125461 L20.0303544,0.146125461 Z M26.6644077,0.146125461 L26.6644077,9.41697417 L28.4270789,9.41697417 L28.4270789,4.96826568 L31.3915714,9.41697417 L33.6830439,9.41697417 L30.1897501,4.62730627 L33.5388254,0.146125461 L31.3915714,0.146125461 L28.4270789,4.35129151 L28.4270789,0.146125461 L26.6644077,0.146125461 Z M41.8874771,0.146125461 L44.2270224,9.41697417 L46.2621065,9.41697417 L47.592122,4.2701107 C47.754862,3.65183764 47.8769081,3.032593 47.9446562,2.38671587 L47.9606805,2.38671587 C48.0556725,3.04642362 48.1640581,3.7281502 48.3132147,4.31881919 L49.6432303,9.41697417 L51.7904843,9.41697417 L54.1300296,0.146125461 L52.3673585,0.146125461 L51.1174644,5.32546125 C50.9817066,5.87515277 50.8597323,6.46556198 50.7649301,7.11143911 L50.7489058,7.11143911 C50.6675025,6.46556198 50.5160999,5.81735203 50.3803473,5.30922509 L48.9702104,0.146125461 L47.1113935,0.146125461 L45.7172808,5.32546125 C45.5546638,5.91658745 45.4435194,6.55817824 45.3487223,7.17638376 L45.332698,7.17638376 C45.2512946,6.53050663 45.1453395,5.88125756 44.9961881,5.27675277 L43.7462939,0.146125461 L41.8874771,0.146125461 Z M57.7515177,0.146125461 L54.5626853,9.41697417 L56.3413808,9.41697417 L56.9663278,7.53357934 L60.4596216,7.53357934 L61.100593,9.41697417 L63.023507,9.41697417 L59.7545532,0.146125461 L57.7515177,0.146125461 Z M74.8013554,0.146125461 L74.8013554,9.41697417 L79.7849075,9.41697417 L79.7849075,7.90701107 L76.5640265,7.90701107 L76.5640265,5.3904059 L79.6246647,5.3904059 L79.6246647,3.92915129 L76.5640265,3.92915129 L76.5640265,1.6398524 L79.7849075,1.6398524 L79.7849075,0.146125461 L74.8013554,0.146125461 Z M82.3648172,0.146125461 L82.3648172,9.41697417 L84.0794155,9.41697417 L84.0794155,6.12103321 C84.0794155,5.00840148 84.0536536,3.42726424 83.9992941,2.6302583 C84.2704916,3.23470075 84.6956453,3.97526199 85.0889454,4.67601476 L87.7970493,9.41697417 L89.9443033,9.41697417 L89.9443033,0.146125461 L88.2457292,0.146125461 L88.2457292,3.03616236 C88.2457292,4.17639817 88.2738602,5.93360815 88.3418749,6.86789668 C88.0026062,6.16721145 87.5307231,5.34182731 87.1240294,4.62730627 L84.560144,0.146125461 L82.3648172,0.146125461 Z M96.145701,0.146125461 L96.145701,9.41697417 L97.9083722,9.41697417 L97.9083722,5.5202952 L100.872865,5.5202952 L100.872865,4.05904059 L97.9083722,4.05904059 L97.9083722,1.65608856 L101.049132,1.65608856 L101.049132,0.146125461 L96.145701,0.146125461 Z M103.116264,0.146125461 L103.116264,9.41697417 L104.878935,9.41697417 L104.878935,0.146125461 L103.965551,0.146125461 L103.116264,0.146125461 Z M107.538967,0.146125461 L107.538967,9.41697417 L109.237541,9.41697417 L109.237541,6.12103321 C109.237541,5.00840148 109.211774,3.42726424 109.157419,2.6302583 C109.428617,3.23470075 109.853832,3.97526199 110.24707,4.67601476 L112.955174,9.41697417 L115.118453,9.41697417 L115.118453,0.146125461 L113.403854,0.146125461 L113.403854,3.03616236 C113.403854,4.17639817 113.432129,5.93360815 113.5,6.86789668 C113.160865,6.16721145 112.704872,5.34182731 112.298179,4.62730627 L109.718269,0.146125461 L107.538967,0.146125461 Z M120.053932,0.146125461 L116.849075,9.41697417 L118.627771,9.41697417 L119.268742,7.53357934 L122.746012,7.53357934 L123.386983,9.41697417 L125.309897,9.41697417 L122.040943,0.146125461 L120.053932,0.146125461 Z M127.04052,0.146125461 L127.04052,9.41697417 L128.755118,9.41697417 L128.755118,6.12103321 C128.755118,5.00840148 128.729089,3.42726424 128.674996,2.6302583 C128.945999,3.23470075 129.355318,3.97526199 129.748623,4.67601476 L132.472752,9.41697417 L134.620006,9.41697417 L134.620006,0.146125461 L132.921432,0.146125461 L132.921432,3.03616236 C132.921432,4.17639817 132.949834,5.93360815 133.017577,6.86789668 C132.678827,6.16721145 132.206687,5.34182731 131.799732,4.62730627 L129.219822,0.146125461 L127.04052,0.146125461 Z M145.564591,0.146125461 L145.564591,9.41697417 L147.327262,9.41697417 L147.327262,0.146125461 L146.365805,0.146125461 L145.564591,0.146125461 Z M152.262742,0.146125461 L149.057885,9.41697417 L150.836581,9.41697417 L151.477552,7.53357934 L154.954821,7.53357934 L155.595793,9.41697417 L157.518707,9.41697417 L154.249753,0.146125461 L152.262742,0.146125461 Z M159.249329,0.146125461 L159.249329,9.41697417 L163.992517,9.41697417 L163.992517,7.85830258 L161.012001,7.85830258 L161.012001,0.146125461 L159.249329,0.146125461 Z M176.811944,0.146125461 L176.811944,9.41697417 L181.795496,9.41697417 L181.795496,7.90701107 L178.574615,7.90701107 L178.574615,5.3904059 L181.635253,5.3904059 L181.635253,3.92915129 L178.574615,3.92915129 L178.574615,1.6398524 L181.795496,1.6398524 L181.795496,0.146125461 L176.811944,0.146125461 Z M191.474163,0.146125461 L194.662996,9.41697417 L196.682056,9.41697417 L199.886912,0.146125461 L198.076168,0.146125461 L196.265424,5.47158672 C195.99436,6.25481919 195.856936,6.77158117 195.720599,7.40369004 L195.68855,7.40369004 C195.525743,6.73014648 195.320494,6.10758707 195.143724,5.58523985 L193.365029,0.146125461 L191.474163,0.146125461 Z M201.633559,0.146125461 L201.633559,9.41697417 L203.39623,9.41697417 L203.39623,0.146125461 L202.514895,0.146125461 L201.633559,0.146125461 Z M214.35684,0.146125461 L214.35684,9.41697417 L219.340392,9.41697417 L219.340392,7.90701107 L216.119512,7.90701107 L216.119512,5.3904059 L219.18015,5.3904059 L219.18015,3.92915129 L216.119512,3.92915129 L216.119512,1.6398524 L219.340392,1.6398524 L219.340392,0.146125461 L214.35684,0.146125461 Z M186.346393,1.55867159 C186.464429,1.55395401 186.586055,1.55867159 186.714951,1.55867159 C187.826267,1.55867159 188.365463,1.99672065 188.365452,2.8900369 C188.365452,3.75561919 187.724491,4.30258303 186.666878,4.30258303 C186.395814,4.30258303 186.147379,4.28387897 186.025907,4.2701107 L186.025907,1.59114391 C186.11391,1.57753671 186.228357,1.56338917 186.346393,1.55867159 Z M13.5565438,1.60738007 C15.1294875,1.60738007 15.9922298,2.72897417 15.9922349,4.7896679 C15.9922349,7.0157107 14.717789,7.95572475 13.5244953,7.95571956 C11.8837368,7.95571956 11.1208527,6.6733277 11.1208527,4.70848708 C11.1208527,2.62018928 12.2952456,1.60738007 13.5565438,1.60738007 Z M58.6809262,2.19188192 L58.7129747,2.19188192 C58.8350157,2.71429668 58.9692299,3.17741438 59.1456304,3.68560886 L59.9949174,6.12103321 L57.4150078,6.12103321 L58.2482705,3.75055351 C58.4380647,3.21437048 58.5724174,2.67286199 58.6809262,2.19188192 Z M120.967316,2.19188192 L120.999365,2.19188192 C121.121467,2.71429668 121.25563,3.17741438 121.43202,3.68560886 L122.281307,6.12103321 L119.717422,6.12103321 L120.53466,3.75055351 C120.724516,3.21437048 120.858859,2.67286199 120.967316,2.19188192 Z M153.176126,2.19188192 L153.208175,2.19188192 C153.330472,2.71429668 153.464814,3.17741438 153.64083,3.68560886 L154.506141,6.12103321 L151.926232,6.12103321 L152.74347,3.75055351 C152.933516,3.21437048 153.06793,2.67286199 153.176126,2.19188192 Z M106.112805,18.6066421 C105.012642,18.6066421 104.334115,19.3599948 104.33411,20.3763838 C104.33411,21.402769 104.979953,21.9999948 105.968587,22 C106.327213,22 106.717693,21.9440177 107.042214,21.8214022 L107.042214,20.2789668 L106.609558,20.2789668 L106.609558,21.5291513 C106.435024,21.5831177 106.250809,21.6103269 106.032684,21.6103321 C105.29608,21.6103321 104.814833,21.1364336 104.814838,20.3114391 C104.814838,19.4278022 105.391077,18.99631 106.064732,18.99631 C106.36503,18.99631 106.65878,19.0619041 106.930044,19.1749077 L107.010165,18.7527675 C106.719292,18.6594447 106.422835,18.6066421 106.112805,18.6066421 Z M114.092898,18.6066421 C113.356294,18.6066421 112.939145,19.0033863 112.93915,19.5483395 C112.93915,20.5944055 114.413389,20.2957225 114.413384,21.0420664 C114.413384,21.4497889 114.084756,21.6265735 113.692291,21.6265683 C113.46468,21.6265683 113.208297,21.5652605 113.019271,21.496679 L112.987223,21.9350554 C113.176248,21.9840236 113.406675,21.9999948 113.644219,22 C114.404923,22 114.862059,21.5873417 114.862064,20.9933579 C114.862064,19.9669727 113.38783,20.2162303 113.38783,19.499631 C113.38783,19.190297 113.630897,18.9800686 114.076874,18.9800738 C114.270642,18.9800738 114.464723,19.0072155 114.653748,19.0612546 L114.685797,18.6553506 C114.491967,18.6164461 114.291594,18.6066421 114.092898,18.6066421 Z M128.450657,18.6066421 C127.714052,18.6066421 127.296908,19.0033863 127.296908,19.5483395 C127.296908,20.5944055 128.771142,20.2957225 128.771142,21.0420664 C128.771142,21.4497889 128.442585,21.6265735 128.050049,21.6265683 C127.822438,21.6265683 127.56606,21.5652605 127.37703,21.496679 L127.361005,21.9350554 C127.549964,21.9840236 127.780462,21.9999948 128.018001,22 C128.778767,22 129.235846,21.5873417 129.235846,20.9933579 C129.235846,19.9669727 127.745593,20.2162303 127.745588,19.499631 C127.745588,19.190297 127.988706,18.9800686 128.434632,18.9800738 C128.6284,18.9800738 128.838516,19.0072155 129.027531,19.0612546 L129.043555,18.6553506 C128.849787,18.6164461 128.649424,18.6066421 128.450657,18.6066421 Z M132.520825,18.6228782 C131.415918,18.6228782 130.918401,19.3813018 130.918396,20.3926199 C130.918396,21.3256148 131.35721,21.9999948 132.408655,22 C132.738304,22 133.058728,21.940573 133.306014,21.8376384 L133.257942,21.4317343 C133.06424,21.5301281 132.758435,21.5940959 132.520825,21.5940959 C131.76012,21.5940959 131.415154,21.1268218 131.415149,20.3114391 C131.415149,19.584776 131.726723,19.0125461 132.472752,19.0125461 C132.720038,19.0125461 132.957767,19.0475487 133.209869,19.1261993 L133.257942,18.7202952 C133.02533,18.6617151 132.772849,18.6228782 132.520825,18.6228782 Z M93.3734999,18.6391144 L93.3734999,21.9675277 L93.8221799,21.9675277 L93.8221799,18.6391144 L93.5978399,18.6391144 L93.3734999,18.6391144 Z M82.6853028,18.6553506 L81.4834816,21.9675277 L81.9161372,21.9675277 L82.18855,21.1881919 L83.6788084,21.1881919 L83.9512212,21.9675277 L84.3838769,21.9675277 L83.1820556,18.6553506 L82.6853028,18.6553506 Z M85.9061838,18.6553506 L85.9061838,21.9675277 L86.3548638,21.9675277 L86.3548638,20.3276753 L87.6528307,21.9675277 L88.2457292,21.9675277 L86.819568,20.2464945 L88.1976564,18.6553506 L87.6528307,18.6553506 L86.3548638,20.2140221 L86.3548638,18.6553506 L85.9061838,18.6553506 Z M89.3353805,18.6553506 L89.3353805,19.0287823 L90.2808132,19.0287823 L90.2808132,21.9675277 L90.7294932,21.9675277 L90.7294932,19.0287823 L91.6749259,19.0287823 L91.6749259,18.6553506 L89.3353805,18.6553506 Z M96.1296767,18.6553506 L96.1296767,21.9675277 L97.8122265,21.9675277 L97.8122265,21.5778598 L96.5783566,21.5778598 L96.5783566,20.4413284 L97.7481293,20.4413284 L97.7481293,20.0678967 L96.5783566,20.0678967 L96.5783566,19.0287823 L97.8122265,19.0287823 L97.8122265,18.6553506 L96.1296767,18.6553506 Z M99.9434562,18.6553506 L99.9434562,21.9675277 L100.392136,21.9675277 L100.392136,20.895941 C100.392136,20.3702166 100.363487,19.495672 100.344063,19.1424354 C100.450659,19.3633771 100.626532,19.6161417 100.776719,19.8568266 L102.074686,21.9675277 L102.555414,21.9675277 L102.555414,18.6553506 L102.122759,18.6553506 L102.122759,19.597048 C102.122759,20.1469993 102.135383,21.0240118 102.154807,21.4317343 C102.033602,21.1960528 101.856504,20.9205524 101.706127,20.6848708 L100.440209,18.6553506 L99.9434562,18.6553506 Z M109.253565,18.6553506 L109.253565,21.9675277 L110.936115,21.9675277 L110.936115,21.5778598 L109.702245,21.5778598 L109.702245,20.4413284 L110.888042,20.4413284 L110.888042,20.0678967 L109.702245,20.0678967 L109.702245,19.0287823 L110.936115,19.0287823 L110.936115,18.6553506 L109.253565,18.6553506 Z M116.913172,18.6553506 L116.913172,21.9675277 L118.595722,21.9675277 L118.595722,21.5778598 L117.361852,21.5778598 L117.361852,20.4413284 L118.547649,20.4413284 L118.547649,20.0678967 L117.361852,20.0678967 L117.361852,19.0287823 L118.595722,19.0287823 L118.595722,18.6553506 L116.913172,18.6553506 Z M120.742976,18.6553506 L120.742976,21.9675277 L122.361429,21.9675277 L122.361429,21.5778598 L121.191656,21.5778598 L121.191656,18.6553506 L120.742976,18.6553506 Z M124.1241,18.6553506 L124.1241,21.9675277 L125.742553,21.9675277 L125.742553,21.5778598 L124.57278,21.5778598 L124.57278,18.6553506 L124.1241,18.6553506 Z M135.052661,18.6553506 L135.052661,21.9675277 L135.501341,21.9675277 L135.501341,20.4413284 L137.167867,20.4413284 L137.167867,21.9675277 L137.616547,21.9675277 L137.616547,18.6553506 L137.167867,18.6553506 L137.167867,20.0516605 L135.501341,20.0516605 L135.501341,18.6553506 L135.052661,18.6553506 Z M140.292602,18.6553506 L139.106805,21.9675277 L139.523436,21.9675277 L139.795849,21.1881919 L141.286108,21.1881919 L141.55852,21.9675277 L141.991176,21.9675277 L140.789355,18.6553506 L140.292602,18.6553506 Z M143.46541,18.6553506 L143.46541,21.9675277 L143.91409,21.9675277 L143.91409,20.4575646 L145.067838,20.4575646 L145.067838,20.100369 L143.91409,20.100369 L143.91409,19.0287823 L145.131936,19.0287823 L145.131936,18.6553506 L143.46541,18.6553506 Z M146.38183,18.6553506 L146.38183,19.0287823 L147.327262,19.0287823 L147.327262,21.9675277 L147.775942,21.9675277 L147.775942,19.0287823 L148.721375,19.0287823 L148.721375,18.6553506 L146.38183,18.6553506 Z M82.9256671,19.0774908 L82.9416914,19.0774908 C82.9997018,19.2541402 83.0759056,19.4462465 83.1339828,19.6132841 L83.5506141,20.8309963 L82.3167443,20.8309963 L82.7333757,19.6132841 C82.7915759,19.4462465 82.8772661,19.2395303 82.9256671,19.0774908 Z M140.532966,19.0774908 L140.548991,19.0774908 C140.607063,19.2541402 140.683205,19.4462465 140.741282,19.6132841 L141.157913,20.8309963 L139.924043,20.8309963 L140.340675,19.6132841 C140.398937,19.4462465 140.484642,19.2395303 140.532966,19.0774908 Z"/>
</svg>
