<svg xmlns="http://www.w3.org/2000/svg" width="337" height="87" viewBox="0 0 337 87">
  <g fill="#000000" fill-rule="evenodd" transform="translate(.027 .238)">
    <path d="M30.2751609 20.4774254C30.3677418 16.6828282 30.0899992 12.8882309 28.3309627 10.7576528 26.5731445 8.62951111 22.5921673 7.8888642 20.834349 7.8888642 13.7982033 7.8888642 11.0219956 12.147584 10.744253 13.0721744 10.4665104 13.8128214 8.80005481 15.4792769 8.80005481 26.958086L8.80005481 44.8225383C8.80005481 61.2081332 14.1685268 63.1523313 20.74055 63.1523313 23.3328142 63.1523313 31.2009695 62.2253045 31.2935504 49.173839L40.0875144 49.173839C40.4578378 70.2786216 25.554755 70.2786216 21.2034543 70.2786216 12.8723947 70.2786216.0986717109 69.7231364.0986717109 43.8041488L.0986717109 24.9213069C.0986717109 6.03724691 8.42973135.66877493 21.5737778.66877493 34.8116233.66877493 39.9023526 7.51854074 39.0691249 20.4774254L30.2751609 20.4774254M47.3989663 46.2112513C47.3989663 32.5117197 48.972841 21.2180724 65.172056 21.2180724 81.371271 21.2180724 82.9451457 32.5117197 82.9451457 46.2112513 82.9451457 66.8543478 75.0769903 69.8157173 65.172056 69.8157173 55.2671216 69.8157173 47.3989663 66.8543478 47.3989663 46.2112513zM74.9844095 42.9721392C74.9844095 30.1971981 71.0034323 27.4209903 65.172056 27.4209903 59.3406797 27.4209903 55.3597025 30.1971981 55.3597025 42.9721392 55.3597025 58.1529647 57.3039007 63.6140175 65.172056 63.6140175 73.0402113 63.6140175 74.9844095 58.1529647 74.9844095 42.9721392L74.9844095 42.9721392zM116.923541 22.143881L124.513954 22.143881 124.513954 73.6115327C124.513954 84.0719522 117.571607 86.5704174 107.296349 86.5704174 99.5207749 86.5704174 92.4858474 82.6832393 93.1339134 74.0756552L101.650135 74.0756552C101.742716 78.4245195 104.611504 80.831622 108.777643 80.831622 114.053534 80.831622 116.923541 77.5912917 116.923541 72.7783049L116.923541 63.0585323 116.645799 63.0585323C114.7016 66.7617669 110.444099 68.8911268 106.370541 68.8911268 93.6893986 68.8911268 91.1897153 57.9678029 91.1897153 44.0818914 91.1897153 22.6067853 102.020458 21.2180724 105.815056 21.2180724 110.721841 21.2180724 114.610238 23.3474322 116.738379 27.8838946L116.923541 27.8838946 116.923541 22.143881zM108.036996 27.512353C99.4281941 27.512353 99.1504515 37.8801916 99.1504515 44.0818914 99.1504515 59.0787733 102.575943 62.5968462 108.222158 62.5968462 117.386445 62.5968462 117.108703 51.7661032 117.108703 45.2854426 117.108703 38.343096 117.571607 27.512353 108.036996 27.512353L108.036996 27.512353zM161.084614 68.8911268L161.084614 36.4914787C161.084614 31.4933302 159.326795 27.4209903 152.846135 27.4209903 144.515075 27.4209903 143.312742 34.8262413 143.312742 41.2131028L143.312742 68.8911268 135.721111 68.8911268 135.721111 31.8636536C135.721111 28.6245415 135.535949 25.3842113 135.258207 22.143881L143.312742 22.143881 143.312742 28.1616372 143.681847 28.1616372C146.644435 22.8845279 150.162508 21.2180724 156.177828 21.2180724 166.176561 21.2180724 168.675026 27.2358286 168.675026 36.4914787L168.675026 68.8911268 161.084614 68.8911268M179.048956 68.8899086L186.640587 68.8899086 186.640587 22.143881 179.048956 22.143881 179.048956 68.8899086zM178.58727 10.2021676L187.103491 10.2021676 187.103491 2.05626973 178.58727 2.05626973 178.58727 10.2021676z"/>
    <polyline points="222.46 29.086 201.817 62.688 223.106 62.688 223.106 68.891 193.578 68.891 193.578 61.764 213.943 28.531 213.943 28.346 194.596 28.346 194.596 22.144 222.46 22.144 222.46 29.086"/>
    <path d="M254.300144 62.1339418L254.113764 62.1339418C251.799243 67.5011956 248.189807 69.8157173 242.357213 69.8157173 232.453497 69.8157173 229.584708 63.4288558 229.584708 54.4497301 229.584708 40.2872941 243.468183 39.6392281 254.113764 39.9169707 254.300144 33.7152709 254.391507 26.958086 246.246827 26.958086 241.15488 26.958086 238.470035 30.3823598 238.932939 35.2891456L230.69446 35.2891456C231.064784 24.8287261 236.619636 21.2180724 246.523352 21.2180724 258.557646 21.2180724 261.705395 27.4209903 261.705395 35.2891456L261.705395 57.7838594C261.705395 61.4858758 262.075719 65.2804731 262.629986 68.8911268L254.300144 68.8911268 254.300144 62.1339418zM237.173903 55.0052153C237.173903 59.5416776 239.397061 63.6140175 244.487791 63.6140175 249.115616 63.6140175 254.854411 60.7440107 254.113764 45.6557661 246.894893 45.748347 237.173903 45.1002809 237.173903 55.0052153L237.173903 55.0052153zM299.108065 68.8911268L299.108065 36.4914787C299.108065 31.4933302 297.350246 27.4209903 290.869586 27.4209903 282.538526 27.4209903 281.334975 34.8262413 281.334975 41.2131028L281.334975 68.8911268 273.74578 68.8911268 273.74578 31.8636536C273.74578 28.6245415 273.5594 25.3842113 273.282876 22.143881L281.334975 22.143881 281.334975 28.1616372 281.705298 28.1616372C284.669104 22.8845279 288.185959 21.2180724 294.202497 21.2180724 304.200012 21.2180724 306.699695 27.2358286 306.699695 36.4914787L306.699695 68.8911268 299.108065 68.8911268M318.092015 22.143881L318.092015 13.1659735 325.682427 9.74048149 325.682427 22.143881 335.865104 22.143881 335.865104 27.8838946 325.682427 27.8838946 325.682427 56.4865091C325.682427 59.4490968 325.682427 63.2449122 332.624774 63.2449122 333.180259 63.2449122 334.38381 63.0585323 336.049048 62.8733706L336.049048 68.7047469C333.549364 68.8911268 331.050899 69.4453938 328.551216 69.4453938 321.331127 69.4453938 318.092015 66.4840243 318.092015 61.1143341L318.092015 27.8838946 310.407803 27.8838946 310.407803 22.143881 318.092015 22.143881"/>
  </g>
</svg>
