<svg xmlns="http://www.w3.org/2000/svg" width="213" height="54" viewBox="0 0 213 54">
  <g>
    <polygon points="104.916 5 110.92 20.542 110.92 5 115 5 115 27 109.228 27 103.11 10.618 103.116 27 99 27 99.017 5"/>
    <polygon points="158.337 5 162.052 20.377 165.773 5 173 5 173 27 168.532 27 168.532 9.67 164.038 27 159.792 27 155.441 9.752 155.441 27 151 27 151 5"/>
    <path d="M188.071849 5.08613368C189.833406 5.2557046 191.420578 6.30461402 192.072719 7.94011733 192.842777 9.98712011 192.852189 13.0305592 191.393452 14.7914456 190.632251 15.5542386 189.61418 16.0414098 188.360829 16.2435693 188.664202 16.2999088 189.024596 16.4391006 189.463601 16.5180864 190.798885 16.7555961 191.591087 17.4603926 192.052236 18.4761611 192.879869 20.5811604 192.303017 23.2749631 192.720985 25.5572662L193 27 188.501997 27C187.731939 24.6033607 188.695757 21.2704911 187.653881 19.077116 186.951916 17.7713647 184.957847 17.8774155 183.409427 17.9216034L183.409427 27 179.01993 27 179 5.04967869C179 5.04967869 186.312507 4.91656275 188.071849 5.08613368zM183.409427 8.3206853L183.409427 14.5870767C183.409427 14.5870767 186.391672 15.0063091 187.456799 13.648637 188.143817 12.5362075 188.09344 10.7057252 187.677686 9.47895968 186.908735 7.95944952 184.877575 8.34001749 183.409427 8.3206853zM66.0064311 5L72 27 67.3685307 27 66.0587983 22.1593357 59.7372451 22.1593357 58.409322 27 54 27 60.026643 5 66.0064311 5zM62.8616402 8.97705083L60.6578061 18.7895823 60.6451277 18.7895823 65.0770503 18.7895823 62.9636185 9.4686462 62.8616402 8.97705083z"/>
    <polygon points="20.144 13.61 20.144 54 0 33.731 0 0 40 0 40 33.705"/>
    <path d="M89.0941973,5.30015911 C90.401959,5.5224267 91.9034839,6.81124697 92.3228387,8.33449872 C92.8013835,10.207739 92.8114346,12.5216441 91.3959026,14.1377838 C90.7492809,14.8432899 89.8614324,15.1988075 88.9752591,15.5526663 C89.665994,15.7705107 90.3394187,16.0165531 90.9916244,16.3665416 C93.0878403,17.6343515 93.1956105,20.5183012 92.8482887,22.8631689 C92.5221858,24.6800129 90.8592847,26.3674773 89.1405441,26.7716505 C88.4620938,26.9308869 87.5909972,27 86.7774153,27 L78,27 L78,5.02757722 C81.3576308,5.02149527 86.6361413,4.88050463 89.0941973,5.30015911 Z M85.7750958,13.9580899 C87.3525624,13.9249156 87.9036985,12.9777903 88.135991,12.1561743 C88.367725,11.0453892 88.2605131,9.80024842 87.325201,8.90896644 L86.8807184,8.58828186 C86.2419142,8.13766474 84.0630559,8.24824563 82.585542,8.27312633 C82.5838668,10.0899703 82.62798,12.0831909 82.585542,13.9580899 L85.7750958,13.9580899 Z M82.585542,17.295974 L82.585542,23.6615629 L82.585542,23.7179592 C84.3891587,23.615119 86.2240456,24.1154975 87.5831797,23.1169521 C88.7033206,22.1156421 88.674284,20.1318209 88.2175167,18.8369187 C87.2648944,16.8475685 84.4891115,17.3833329 82.585542,17.295974 Z"/>
    <polygon points="122.986 17 126 13.988 123.013 11 120 14.015"/>
    <path d="M139.007534 5L145 27 140.37031 27 139.061009 22.1593357 132.735567 22.1593357 131.410278 27 127 27 133.02444 5 139.007534 5zM135.860801 8.97926522L133.65952 18.7895823 133.645187 18.7895823 138.078068 18.7895823 135.962237 9.4686462 135.860801 8.97926522zM211.835319 8.11475154C213.298807 11.4864523 212.958716 15.7582803 212.980109 19.5529122 212.987788 21.3089714 212.59065 25.0073809 210.446431 26.6168687 208.936867 27.6893011 207.136579 28.0288768 205.161309 27.998108 202.5459 27.9583883 199.939268 27.0023178 198.869627 24.3444531 197.784079 21.4891087 198.023788 17.4125227 198.019949 13.8550903 198.018303 11.2693924 198.347972 7.98328486 200.668269 6.19813517 203.043969 4.64738777 206.881511 4.69382068 209.441518 5.81100775 210.362506 6.20764553 211.380584 7.13126889 211.835319 8.11475154zM208.348838 12.4839208C208.181536 8.1209053 206.168965 8.22440035 205.331903 8.22440035 204.425177 8.22440035 202.855822 8.70775019 202.698941 12.3748314L202.698941 20.1917843C202.95017 24.0429189 203.878289 24.7864049 205.551316 24.7864049 207.29346 24.7864049 208.331834 23.9690738 208.348838 19.8947256L208.348838 12.4839208z"/>
    <polygon points="20 54 20 53 40 33 40 34"/>
  </g>
</svg>
