<svg xmlns="http://www.w3.org/2000/svg" width="348" height="62" viewBox="0 0 348 62">
    <g class="type" transform="translate(104 3)">
      <path d="M12.0273438 21.1871L.515625 21.1871.515625 1.19881875 12.0273438 1.19881875 12.0273438 4.671475 4.75390625 4.671475 4.75390625 9.06014687 11.5214844 9.06014687 11.5214844 12.5328031 4.75390625 12.5328031 4.75390625 17.6871 12.0273438 17.6871 12.0273438 21.1871zM31.6667969 1.19881875L31.6667969 14.1324125C31.6667969 15.6089824 31.3363965 16.9032403 30.6755859 18.015225 30.0147753 19.1272097 29.0600323 19.9794147 27.8113281 20.5718656 26.562624 21.1643165 25.0860762 21.4605375 23.3816406 21.4605375 20.8113153 21.4605375 18.8152415 20.8020154 17.3933594 19.4849516 15.9714773 18.1678877 15.2605469 16.3654969 15.2605469 14.077725L15.2605469 1.19881875 19.4851562 1.19881875 19.4851562 13.4351469C19.4851562 14.9755192 19.795049 16.1057162 20.4148437 16.8257719 21.0346385 17.5458276 22.0600189 17.90585 23.4910156 17.90585 24.8764392 17.90585 25.881312 17.5435489 26.5056641 16.8189359 27.1300161 16.0943229 27.4421875 14.95729 27.4421875 13.4078031L27.4421875 1.19881875 31.6667969 1.19881875zM39.9996094 10.0718656L41.3667969 10.0718656C42.7066473 10.0718656 43.6955697 9.84856057 44.3335937 9.40194375 44.9716177 8.95532693 45.290625 8.25351104 45.290625 7.296475 45.290625 6.34855359 44.9647819 5.67408117 44.3130859 5.2730375 43.6613899 4.87199383 42.6519599 4.671475 41.2847656 4.671475L39.9996094 4.671475 39.9996094 10.0718656zM39.9996094 13.5171781L39.9996094 21.1871 35.7613281 21.1871 35.7613281 1.19881875 41.5855469 1.19881875C44.3017063 1.19881875 46.3114518 1.69327995 47.6148437 2.68221719 48.9182357 3.67115442 49.5699219 5.17276701 49.5699219 7.1871 49.5699219 8.36288713 49.2463574 9.40877511 48.5992187 10.3247953 47.9520801 11.2408155 47.0360736 11.9585818 45.8511719 12.4781156 48.8589994 16.9716277 50.8186152 19.8745934 51.7300781 21.1871L47.0269531 21.1871 42.2554687 13.5171781 39.9996094 13.5171781zM71.5882812 11.1656156C71.5882812 14.4742259 70.7679769 17.0171692 69.1273437 18.7945219 67.4867105 20.5718745 65.1351715 21.4605375 62.0726562 21.4605375 59.0101409 21.4605375 56.6586019 20.5718745 55.0179687 18.7945219 53.3773355 17.0171692 52.5570312 14.4651114 52.5570312 11.1382719 52.5570312 7.81143232 53.3796141 5.27076763 55.0248047 3.51620156 56.6699952 1.7616355 59.02837.884365625 62.1.884365625 65.1716299.884365625 67.5208903 1.76847137 69.1478515 3.53670937 70.7748128 5.30494738 71.5882812 7.8478907 71.5882812 11.1656156zM57.0003906 11.1656156C57.0003906 13.3986997 57.4242145 15.0803235 58.271875 16.2105375 59.1195355 17.3407515 60.3864499 17.90585 62.0726562 17.90585 65.4541835 17.90585 67.1449218 15.6591277 67.1449218 11.1656156 67.1449218 6.66298895 65.463298 4.41170937 62.1 4.41170937 60.4137936 4.41170937 59.142322 4.97908651 58.2855468 6.11385781 57.4287717 7.24862911 57.0003906 8.93253154 57.0003906 11.1656156zM79.1691406 10.6050687L80.5636718 10.6050687C81.8670638 10.6050687 82.8423144 10.3475843 83.4894531 9.83260781 84.1365917 9.31763128 84.4601562 8.5679643 84.4601562 7.58358437 84.4601562 6.59008982 84.1890001 5.8563732 83.6466796 5.3824125 83.1043592 4.9084518 82.2544328 4.671475 81.096875 4.671475L79.1691406 4.671475 79.1691406 10.6050687zM88.7394531 7.43319375C88.7394531 9.58424617 88.0672593 11.229412 86.7228515 12.3687406 85.3784438 13.5080692 83.466679 14.077725 80.9875 14.077725L79.1691406 14.077725 79.1691406 21.1871 74.9308593 21.1871 74.9308593 1.19881875 81.315625 1.19881875C83.7401162 1.19881875 85.5835223 1.72062343 86.8458984 2.76424844 88.1082745 3.80787345 88.7394531 5.36417299 88.7394531 7.43319375zM103.224609 21.1871L91.7128906 21.1871 91.7128906 1.19881875 103.224609 1.19881875 103.224609 4.671475 95.9511718 4.671475 95.9511718 9.06014687 102.71875 9.06014687 102.71875 12.5328031 95.9511718 12.5328031 95.9511718 17.6871 103.224609 17.6871 103.224609 21.1871zM118.830859 21.1871L117.381641 16.4292875 110.094531 16.4292875 108.645312 21.1871 104.078906 21.1871 111.133594 1.1167875 116.315234 1.1167875 123.397266 21.1871 118.830859 21.1871zM116.369922 12.8746C115.030071 8.56338053 114.275847 6.12525387 114.107226 5.56014687 113.938606 4.99503988 113.817839 4.54842977 113.744922 4.22030312 113.444139 5.38697562 112.58282 8.2717124 111.160937 12.8746L116.369922 12.8746zM142.845312 21.1871L137.458594 21.1871 128.763281 6.06600625 128.640234 6.06600625C128.813412 8.73659252 128.9 10.6415214 128.9 11.78085L128.9 21.1871 125.112891 21.1871 125.112891 1.19881875 130.458594 1.19881875 139.140234 16.1695219 139.235937 16.1695219C139.099218 13.5718526 139.030859 11.7352825 139.030859 10.6597562L139.030859 1.19881875 142.845312 1.19881875 142.845312 21.1871zM169.819531 1.19881875L169.819531 14.1324125C169.819531 15.6089824 169.489131 16.9032403 168.82832 18.015225 168.16751 19.1272097 167.212767 19.9794147 165.964062 20.5718656 164.715358 21.1643165 163.23881 21.4605375 161.534375 21.4605375 158.96405 21.4605375 156.967976 20.8020154 155.546094 19.4849516 154.124212 18.1678877 153.413281 16.3654969 153.413281 14.077725L153.413281 1.19881875 157.637891 1.19881875 157.637891 13.4351469C157.637891 14.9755192 157.947783 16.1057162 158.567578 16.8257719 159.187373 17.5458276 160.212753 17.90585 161.64375 17.90585 163.029173 17.90585 164.034046 17.5435489 164.658398 16.8189359 165.28275 16.0943229 165.594922 14.95729 165.594922 13.4078031L165.594922 1.19881875 169.819531 1.19881875zM191.646484 21.1871L186.259766 21.1871 177.564453 6.06600625 177.441406 6.06600625C177.614584 8.73659252 177.701172 10.6415214 177.701172 11.78085L177.701172 21.1871 173.914062 21.1871 173.914062 1.19881875 179.259766 1.19881875 187.941406 16.1695219 188.037109 16.1695219C187.90039 13.5718526 187.832031 11.7352825 187.832031 10.6597562L187.832031 1.19881875 191.646484 1.19881875 191.646484 21.1871zM195.877734 21.1871L195.877734 1.19881875 200.116015 1.19881875 200.116015 21.1871 195.877734 21.1871zM222.489844 11.1656156C222.489844 14.4742259 221.669539 17.0171692 220.028906 18.7945219 218.388273 20.5718745 216.036734 21.4605375 212.974219 21.4605375 209.911703 21.4605375 207.560164 20.5718745 205.919531 18.7945219 204.278898 17.0171692 203.458594 14.4651114 203.458594 11.1382719 203.458594 7.81143232 204.281177 5.27076763 205.926367 3.51620156 207.571558 1.7616355 209.929932.884365625 213.001562.884365625 216.073192.884365625 218.422453 1.76847137 220.049414 3.53670937 221.676375 5.30494738 222.489844 7.8478907 222.489844 11.1656156zM207.901953 11.1656156C207.901953 13.3986997 208.325777 15.0803235 209.173437 16.2105375 210.021098 17.3407515 211.288012 17.90585 212.974219 17.90585 216.355746 17.90585 218.046484 15.6591277 218.046484 11.1656156 218.046484 6.66298895 216.36486 4.41170937 213.001562 4.41170937 211.315356 4.41170937 210.043884 4.97908651 209.187109 6.11385781 208.330334 7.24862911 207.901953 8.93253154 207.901953 11.1656156zM243.564844 21.1871L238.178125 21.1871 229.482812 6.06600625 229.359765 6.06600625C229.532943 8.73659252 229.619531 10.6415214 229.619531 11.78085L229.619531 21.1871 225.832422 21.1871 225.832422 1.19881875 231.178125 1.19881875 239.859765 16.1695219 239.955469 16.1695219C239.818749 13.5718526 239.75039 11.7352825 239.75039 10.6597562L239.75039 1.19881875 243.564844 1.19881875 243.564844 21.1871zM5.9453125 40L.374023438 40 .374023438 30.0058594 5.9453125 30.0058594 5.9453125 31.0380859 1.53613281 31.0380859 1.53613281 34.2578125 5.67871094 34.2578125 5.67871094 35.2832031 1.53613281 35.2832031 1.53613281 38.9609375 5.9453125 38.9609375 5.9453125 40zM8.45566404 32.5078125L8.45566404 37.3681641C8.45566404 37.9788442 8.59466004 38.4345688 8.87265623 38.7353516 9.15065241 39.0361343 9.58586941 39.1865234 10.1783203 39.1865234 10.9621784 39.1865234 11.5352521 38.9723329 11.8975586 38.5439453 12.2598651 38.1155578 12.4410156 37.4160205 12.4410156 36.4453125L12.4410156 32.5078125 13.5757812 32.5078125 13.5757812 40 12.6392578 40 12.4751953 38.9951172 12.4136719 38.9951172C12.1812488 39.3642597 11.8588237 39.6468089 11.4463867 39.8427734 11.0339497 40.038738 10.5634141 40.1367188 10.0347656 40.1367188 9.12330271 40.1367188 8.44085511 39.9202496 7.98740232 39.4873047 7.53394953 39.0543598 7.30722654 38.3616584 7.30722654 37.4091797L7.30722654 32.5078125 8.45566404 32.5078125zM18.8 32.3710938C19.1326839 32.3710938 19.4311835 32.3984372 19.6955078 32.453125L19.5382812 33.5058594C19.2283838 33.4374997 18.9549491 33.4033203 18.7179687 33.4033203 18.1118459 33.4033203 17.5934591 33.6494116 17.1627929 34.1416016 16.7321267 34.6337915 16.5167968 35.2467411 16.5167968 35.9804688L16.5167968 40 15.3820312 40 15.3820312 32.5078125 16.3185546 32.5078125 16.4484375 33.8955078 16.503125 33.8955078C16.7811211 33.4078752 17.1160787 33.0319024 17.5080078 32.7675781 17.8999368 32.5032539 18.3305966 32.3710938 18.8 32.3710938zM26.6833984 36.2470703C26.6833984 37.4684306 26.3757843 38.4220343 25.7605468 39.1079102 25.1453094 39.793786 24.295383 40.1367188 23.2107421 40.1367188 22.5408169 40.1367188 21.9460963 39.9794938 21.4265624 39.6650391 20.9070286 39.3505844 20.5059909 38.899417 20.2234374 38.3115234 19.9408839 37.7236299 19.7996093 37.0354857 19.7996093 36.2470703 19.7996093 35.02571 20.1049448 34.0743849 20.7156249 33.3930664 21.3263051 32.7117479 22.1739528 32.3710938 23.2585937 32.3710938 24.306776 32.3710938 25.1396127 32.7197231 25.7571288 33.4169922 26.3746449 34.1142613 26.6833984 35.0576112 26.6833984 36.2470703zM20.9753906 36.2470703C20.9753906 37.2041063 21.1667949 37.9332657 21.5496093 38.4345703 21.9324237 38.9358749 22.4952436 39.1865234 23.2380859 39.1865234 23.9809281 39.1865234 24.5448873 38.9370142 24.9299804 38.4379883 25.3150735 37.9389623 25.5076171 37.2086637 25.5076171 36.2470703 25.5076171 35.2945916 25.3150735 34.5711288 24.9299804 34.0766602 24.5448873 33.5821915 23.9763709 33.3349609 23.224414 33.3349609 22.4815717 33.3349609 21.9210305 33.5787736 21.5427734 34.0664062 21.1645163 34.5540389 20.9753906 35.2809196 20.9753906 36.2470703zM31.5589843 40.1367188C31.0713516 40.1367188 30.6258808 40.0467131 30.2225585 39.8666992 29.8192362 39.6866853 29.4808606 39.4098326 29.2074218 39.0361328L29.1253905 39.0361328C29.1800783 39.473635 29.2074218 39.8883444 29.2074218 40.2802734L29.2074218 43.3632812 28.0726562 43.3632812 28.0726562 32.5078125 28.9955077 32.5078125 29.1527343 33.5332031 29.2074218 33.5332031C29.4990899 33.1230448 29.8386047 32.8268238 30.2259765 32.6445312 30.6133482 32.4622387 31.0576797 32.3710938 31.5589843 32.3710938 32.5524788 32.3710938 33.3192355 32.7106086 33.8592772 33.3896484 34.399319 34.0686883 34.6693358 35.0211527 34.6693358 36.2470703 34.6693358 37.4775452 34.3947618 38.4334276 33.8456054 39.1147461 33.296449 39.7960646 32.5342496 40.1367188 31.5589843 40.1367188zM31.3949218 33.3349609C30.629293 33.3349609 30.0755876 33.5468729 29.733789 33.9707031 29.3919904 34.3945334 29.2165364 35.0690058 29.2074218 35.9941406L29.2074218 36.2470703C29.2074218 37.29981 29.3828758 38.0528949 29.733789 38.5063477 30.0847022 38.9598004 30.6475221 39.1865234 31.4222655 39.1865234 32.0694042 39.1865234 32.5763978 38.9244818 32.9432616 38.4003906 33.3101254 37.8762995 33.4935546 37.153976 33.4935546 36.2333984 33.4935546 35.299149 33.3101254 34.582522 32.9432616 34.0834961 32.5763978 33.5844702 32.0602897 33.3349609 31.3949218 33.3349609zM39.2167968 40.1367188C38.1093693 40.1367188 37.2355174 39.7994825 36.5952147 39.125 35.954912 38.4505175 35.6347655 37.5140034 35.6347655 36.3154297 35.6347655 35.1077414 35.9321258 34.1484411 36.5268553 33.4375 37.1215849 32.7265589 37.9202423 32.3710938 38.9228514 32.3710938 39.8616582 32.3710938 40.6044893 32.6798472 41.1513671 33.2973633 41.6982448 33.9148794 41.9716796 34.7294871 41.9716796 35.7412109L41.9716796 36.4589844 36.8105468 36.4589844C36.8333333 37.3385461 37.0554991 38.0061826 37.4770507 38.4619141 37.8986022 38.9176455 38.4921836 39.1455078 39.2578124 39.1455078 40.064457 39.1455078 40.8619751 38.9768897 41.6503905 38.6396484L41.6503905 39.6513672C41.2493468 39.8245451 40.8699561 39.9487301 40.5122069 40.0239258 40.1544577 40.0991215 39.7226587 40.1367188 39.2167968 40.1367188zM38.9091796 33.3212891C38.3076141 33.3212891 37.8279639 33.5172506 37.4702147 33.9091797 37.1124655 34.3011087 36.9016929 34.843421 36.8378905 35.5361328L40.7548827 35.5361328C40.7548827 34.8206344 40.5953791 34.2726256 40.2763671 33.8920898 39.9573551 33.5115541 39.5016304 33.3212891 38.9091796 33.3212891zM47.9136717 40L47.6880858 38.9335938 47.6333983 38.9335938C47.2596985 39.4029971 46.8871436 39.7208651 46.5157225 39.887207 46.1443014 40.053549 45.6806016 40.1367188 45.1246092 40.1367188 44.381767 40.1367188 43.7995788 39.9453144 43.3780272 39.5625 42.9564756 39.1796856 42.745703 38.6350947 42.745703 37.9287109 42.745703 36.4156825 43.9556518 35.6227217 46.3755858 35.5498047L47.6470702 35.5087891 47.6470702 35.0439453C47.6470702 34.4560517 47.5206066 34.0219741 47.2676756 33.7416992 47.0147447 33.4614244 46.6102891 33.3212891 46.0542967 33.3212891 45.4299447 33.3212891 44.7235715 33.5126934 43.9351561 33.8955078L43.5865233 33.0273438C43.9556658 32.8268219 44.3601214 32.6695969 44.7999022 32.5556641 45.239683 32.4417312 45.6805966 32.3847656 46.1226561 32.3847656 47.0158897 32.3847656 47.6778297 32.5830058 48.108496 32.9794922 48.5391622 33.3759785 48.754492 34.0117144 48.754492 34.8867188L48.754492 40 47.9136717 40zM45.3501952 39.2001953C46.0565789 39.2001953 46.6114236 39.0065124 47.014746 38.6191406 47.4180683 38.2317689 47.6197264 37.6894566 47.6197264 36.9921875L47.6197264 36.3154297 46.4849608 36.3632812C45.5826125 36.3951825 44.9320657 36.5353178 44.5333006 36.7836914 44.1345356 37.032065 43.9351561 37.4182917 43.9351561 37.9423828 43.9351561 38.3525411 44.0593411 38.6647125 44.3077147 38.8789062 44.5560883 39.0931 44.9035784 39.2001953 45.3501952 39.2001953zM55.6193358 40L55.6193358 35.1533203C55.6193358 34.5426402 55.4803398 34.0869156 55.2023436 33.7861328 54.9243474 33.4853501 54.4891304 33.3349609 53.8966795 33.3349609 53.1128214 33.3349609 52.5386084 33.5468729 52.1740233 33.9707031 51.8094381 34.3945334 51.6271483 35.0940706 51.6271483 36.0693359L51.6271483 40 50.4923826 40 50.4923826 32.5078125 51.4152342 32.5078125 51.5998045 33.5332031 51.654492 33.5332031C51.8869151 33.1640607 52.2127582 32.8780935 52.6320311 32.675293 53.051304 32.4724925 53.5184217 32.3710938 54.0333983 32.3710938 54.9357465 32.3710938 55.6147762 32.5887023 56.0705076 33.0239258 56.5262391 33.4591493 56.7541014 34.1552687 56.7541014 35.1123047L56.7541014 40 55.6193358 40zM62.8548826 35.84375L62.8548826 40 61.6927732 40 61.6927732 30.0058594 64.4339842 30.0058594C65.6599017 30.0058594 66.5656544 30.2405575 67.1512693 30.7099609 67.7368842 31.1793643 68.0296873 31.8857375 68.0296873 32.8291016 68.0296873 34.1507228 67.3597721 35.043943 66.0199217 35.5087891L68.7337888 40 67.3597654 40 64.9398435 35.84375 62.8548826 35.84375zM62.8548826 34.8457031L64.447656 34.8457031C65.2679726 34.8457031 65.8695291 34.6827816 66.2523435 34.3569336 66.6351579 34.0310856 66.8265623 33.542321 66.8265623 32.890625 66.8265623 32.2298144 66.63174 31.7535822 66.2420896 31.4619141 65.8524392 31.1702459 65.2269572 31.0244141 64.3656248 31.0244141L62.8548826 31.0244141 62.8548826 34.8457031zM72.7412107 40.1367188C71.6337833 40.1367188 70.7599313 39.7994825 70.1196287 39.125 69.479326 38.4505175 69.1591794 37.5140034 69.1591794 36.3154297 69.1591794 35.1077414 69.4565398 34.1484411 70.0512693 33.4375 70.6459988 32.7265589 71.4446562 32.3710938 72.4472654 32.3710938 73.3860722 32.3710938 74.1289033 32.6798472 74.675781 33.2973633 75.2226587 33.9148794 75.4960935 34.7294871 75.4960935 35.7412109L75.4960935 36.4589844 70.3349607 36.4589844C70.3577473 37.3385461 70.579913 38.0061826 71.0014646 38.4619141 71.4230162 38.9176455 72.0165975 39.1455078 72.7822263 39.1455078 73.588871 39.1455078 74.386389 38.9768897 75.1748044 38.6396484L75.1748044 39.6513672C74.7737608 39.8245451 74.39437 39.9487301 74.0366209 40.0239258 73.6788717 40.0991215 73.2470726 40.1367188 72.7412107 40.1367188zM72.4335935 33.3212891C71.832028 33.3212891 71.3523779 33.5172506 70.9946287 33.9091797 70.6368795 34.3011087 70.4261069 34.843421 70.3623044 35.5361328L74.2792966 35.5361328C74.2792966 34.8206344 74.119793 34.2726256 73.800781 33.8920898 73.481769 33.5115541 73.0260444 33.3212891 72.4335935 33.3212891zM82.9624997 32.5078125L82.9624997 33.2255859 81.5748044 33.3896484C81.7024092 33.5491544 81.8163404 33.7576485 81.9166013 34.0151367 82.0168622 34.272625 82.0669919 34.5631494 82.0669919 34.8867188 82.0669919 35.6204464 81.8163434 36.2060525 81.3150388 36.6435547 80.8137342 37.0810569 80.1255901 37.2998047 79.2505857 37.2998047 79.0272773 37.2998047 78.8176439 37.2815757 78.6216794 37.2451172 78.1386041 37.5003268 77.8970701 37.8216126 77.8970701 38.2089844 77.8970701 38.4140635 77.9813791 38.565592 78.1499997 38.6635742 78.3186204 38.7615565 78.6080055 38.8105469 79.0181638 38.8105469L80.3443357 38.8105469C81.1555376 38.8105469 81.7787411 38.9814436 82.2139646 39.3232422 82.6491881 39.6650408 82.8667966 40.1617806 82.8667966 40.8134766 82.8667966 41.6429078 82.5341176 42.2752257 81.8687497 42.7104492 81.2033818 43.1456727 80.2326884 43.3632812 78.9566404 43.3632812 77.9768178 43.3632812 77.2214542 43.1809914 76.6905271 42.8164062 76.1595999 42.4518211 75.8941404 41.9368523 75.8941404 41.2714844 75.8941404 40.8157529 76.0399722 40.4215511 76.3316404 40.0888672 76.6233085 39.7561832 77.0334606 39.5305996 77.5621091 39.4121094 77.3707019 39.3255204 77.210059 39.1910816 77.0801755 39.0087891 76.9502921 38.8264965 76.8853513 38.6145845 76.8853513 38.3730469 76.8853513 38.099608 76.9582672 37.8603526 77.1041013 37.6552734 77.2499354 37.4501943 77.4800763 37.2519541 77.794531 37.0605469 77.4071593 36.9010409 77.09157 36.6298847 76.8477536 36.2470703 76.6039373 35.8642559 76.482031 35.4267603 76.482031 34.9345703 76.482031 34.1142537 76.7281223 33.4819358 77.2203122 33.0375977 77.7125022 32.5932595 78.4097609 32.3710938 79.3121091 32.3710938 79.7040382 32.3710938 80.0572247 32.4166662 80.3716794 32.5078125L82.9624997 32.5078125zM76.9878904 41.2578125C76.9878904 41.6634135 77.1587871 41.9710276 77.5005857 42.1806641 77.8423843 42.3903005 78.3322882 42.4951172 78.9703122 42.4951172 79.922791 42.4951172 80.6280248 42.3527032 81.0860349 42.0678711 81.544045 41.7830389 81.7730466 41.3968123 81.7730466 40.9091797 81.7730466 40.5035787 81.6477223 40.2221688 81.3970701 40.0649414 81.1464178 39.9077141 80.6747428 39.8291016 79.982031 39.8291016L78.6216794 39.8291016C78.1067029 39.8291016 77.7056652 39.9521472 77.4185544 40.1982422 77.1314436 40.4443372 76.9878904 40.7975237 76.9878904 41.2578125zM77.6031247 34.9072266C77.6031247 35.4313177 77.7512352 35.8277981 78.0474607 36.0966797 78.3436861 36.3655612 78.7561169 36.5 79.2847654 36.5 80.3921928 36.5 80.9458982 35.962245 80.9458982 34.8867188 80.9458982 33.7610621 80.3853569 33.1982422 79.2642576 33.1982422 78.7310518 33.1982422 78.3208996 33.3417954 78.0337888 33.6289062 77.746678 33.9160171 77.6031247 34.3421196 77.6031247 34.9072266zM85.0353513 40L83.9005857 40 83.9005857 32.5078125 85.0353513 32.5078125 85.0353513 40zM83.8048825 30.4775391C83.8048825 30.2177721 83.868684 30.0275071 83.9962888 29.9067383 84.1238936 29.7859694 84.2833972 29.7255859 84.4748044 29.7255859 84.657097 29.7255859 84.814322 29.7871088 84.9464841 29.9101562 85.0786462 30.0332037 85.1447263 30.2223295 85.1447263 30.4775391 85.1447263 30.7327487 85.0786462 30.9230137 84.9464841 31.0483398 84.814322 31.173666 84.657097 31.2363281 84.4748044 31.2363281 84.2833972 31.2363281 84.1238936 31.173666 83.9962888 31.0483398 83.868684 30.9230137 83.8048825 30.7327487 83.8048825 30.4775391zM93.3083981 36.2470703C93.3083981 37.4684306 93.000784 38.4220343 92.3855466 39.1079102 91.7703091 39.793786 90.9203827 40.1367188 89.8357419 40.1367188 89.1658167 40.1367188 88.571096 39.9794938 88.0515622 39.6650391 87.5320283 39.3505844 87.1309907 38.899417 86.8484372 38.3115234 86.5658837 37.7236299 86.4246091 37.0354857 86.4246091 36.2470703 86.4246091 35.02571 86.7299446 34.0743849 87.3406247 33.3930664 87.9513048 32.7117479 88.7989526 32.3710938 89.8835934 32.3710938 90.9317758 32.3710938 91.7646125 32.7197231 92.3821286 33.4169922 92.9996447 34.1142613 93.3083981 35.0576112 93.3083981 36.2470703zM87.6003903 36.2470703C87.6003903 37.2041063 87.7917947 37.9332657 88.1746091 38.4345703 88.5574235 38.9358749 89.1202434 39.1865234 89.8630856 39.1865234 90.6059279 39.1865234 91.1698871 38.9370142 91.5549802 38.4379883 91.9400732 37.9389623 92.1326169 37.2086637 92.1326169 36.2470703 92.1326169 35.2945916 91.9400732 34.5711288 91.5549802 34.0766602 91.1698871 33.5821915 90.6013706 33.3349609 89.8494138 33.3349609 89.1065715 33.3349609 88.5460302 33.5787736 88.1677731 34.0664062 87.789516 34.5540389 87.6003903 35.2809196 87.6003903 36.2470703zM99.824609 40L99.824609 35.1533203C99.824609 34.5426402 99.685613 34.0869156 99.4076169 33.7861328 99.1296207 33.4853501 98.6944037 33.3349609 98.1019528 33.3349609 97.3180947 33.3349609 96.7438817 33.5468729 96.3792965 33.9707031 96.0147114 34.3945334 95.8324215 35.0940706 95.8324215 36.0693359L95.8324215 40 94.6976559 40 94.6976559 32.5078125 95.6205075 32.5078125 95.8050778 33.5332031 95.8597653 33.5332031C96.0921883 33.1640607 96.4180314 32.8780935 96.8373044 32.675293 97.2565773 32.4724925 97.723695 32.3710938 98.2386715 32.3710938 99.1410198 32.3710938 99.8200495 32.5887023 100.275781 33.0239258 100.731512 33.4591493 100.959375 34.1552687 100.959375 35.1123047L100.959375 40 99.824609 40zM107.297851 40L107.072265 38.9335938 107.017578 38.9335938C106.643878 39.4029971 106.271323 39.7208651 105.899902 39.887207 105.528481 40.053549 105.064781 40.1367188 104.508789 40.1367188 103.765946 40.1367188 103.183758 39.9453144 102.762207 39.5625 102.340655 39.1796856 102.129882 38.6350947 102.129882 37.9287109 102.129882 36.4156825 103.339831 35.6227217 105.759765 35.5498047L107.03125 35.5087891 107.03125 35.0439453C107.03125 34.4560517 106.904786 34.0219741 106.651855 33.7416992 106.398924 33.4614244 105.994469 33.3212891 105.438476 33.3212891 104.814124 33.3212891 104.107751 33.5126934 103.319336 33.8955078L102.970703 33.0273438C103.339845 32.8268219 103.744301 32.6695969 104.184082 32.5556641 104.623863 32.4417312 105.064776 32.3847656 105.506836 32.3847656 106.400069 32.3847656 107.062009 32.5830058 107.492675 32.9794922 107.923342 33.3759785 108.138672 34.0117144 108.138672 34.8867188L108.138672 40 107.297851 40zM104.734375 39.2001953C105.440758 39.2001953 105.995603 39.0065124 106.398925 38.6191406 106.802248 38.2317689 107.003906 37.6894566 107.003906 36.9921875L107.003906 36.3154297 105.86914 36.3632812C104.966792 36.3951825 104.316245 36.5353178 103.91748 36.7836914 103.518715 37.032065 103.319336 37.4182917 103.319336 37.9423828 103.319336 38.3525411 103.443521 38.6647125 103.691894 38.8789062 103.940268 39.0931 104.287758 39.2001953 104.734375 39.2001953zM111.011328 40L109.876562 40 109.876562 29.3632812 111.011328 29.3632812 111.011328 40zM124.002734 34.9072266C124.002734 36.5569744 123.554985 37.8181923 122.659472 38.690918 121.76396 39.5636437 120.475399 40 118.79375 40L116.025195 40 116.025195 30.0058594 119.087695 30.0058594C120.641739 30.0058594 121.849409 30.4365191 122.710742 31.2978516 123.572074 32.159184 124.002734 33.362297 124.002734 34.9072266zM122.772265 34.9482422C122.772265 33.6448503 122.445283 32.6627637 121.791308 32.0019531 121.137334 31.3411425 120.165501 31.0107422 118.875781 31.0107422L117.187304 31.0107422 117.187304 38.9951172 118.602343 38.9951172C119.987767 38.9951172 121.029098 38.654463 121.726367 37.9731445 122.423636 37.291826 122.772265 36.2835353 122.772265 34.9482422zM128.62539 40.1367188C127.517963 40.1367188 126.644111 39.7994825 126.003808 39.125 125.363505 38.4505175 125.043359 37.5140034 125.043359 36.3154297 125.043359 35.1077414 125.340719 34.1484411 125.935449 33.4375 126.530178 32.7265589 127.328836 32.3710938 128.331445 32.3710938 129.270252 32.3710938 130.013083 32.6798472 130.55996 33.2973633 131.106838 33.9148794 131.380273 34.7294871 131.380273 35.7412109L131.380273 36.4589844 126.21914 36.4589844C126.241927 37.3385461 126.464092 38.0061826 126.885644 38.4619141 127.307196 38.9176455 127.900777 39.1455078 128.666406 39.1455078 129.47305 39.1455078 130.270569 38.9768897 131.058984 38.6396484L131.058984 39.6513672C130.65794 39.8245451 130.27855 39.9487301 129.9208 40.0239258 129.563051 40.0991215 129.131252 40.1367188 128.62539 40.1367188zM128.317773 33.3212891C127.716207 33.3212891 127.236557 33.5172506 126.878808 33.9091797 126.521059 34.3011087 126.310286 34.843421 126.246484 35.5361328L130.163476 35.5361328C130.163476 34.8206344 130.003972 34.2726256 129.68496 33.8920898 129.365948 33.5115541 128.910224 33.3212891 128.317773 33.3212891zM134.075195 40L131.231445 32.5078125 132.448242 32.5078125 134.061523 36.9511719C134.426108 37.9902396 134.640299 38.664712 134.704101 38.9746094L134.758789 38.9746094C134.808919 38.7330717 134.967283 38.232914 135.233886 37.4741211 135.500489 36.7153282 136.098628 35.0599086 137.02832 32.5078125L138.245117 32.5078125 135.401367 40 134.075195 40zM142.013281 40.1367188C140.905853 40.1367188 140.032001 39.7994825 139.391699 39.125 138.751396 38.4505175 138.431249 37.5140034 138.431249 36.3154297 138.431249 35.1077414 138.72861 34.1484411 139.323339 33.4375 139.918069 32.7265589 140.716726 32.3710938 141.719335 32.3710938 142.658142 32.3710938 143.400973 32.6798472 143.947851 33.2973633 144.494729 33.9148794 144.768164 34.7294871 144.768164 35.7412109L144.768164 36.4589844 139.607031 36.4589844C139.629817 37.3385461 139.851983 38.0061826 140.273535 38.4619141 140.695086 38.9176455 141.288668 39.1455078 142.054296 39.1455078 142.860941 39.1455078 143.658459 38.9768897 144.446874 38.6396484L144.446874 39.6513672C144.045831 39.8245451 143.66644 39.9487301 143.308691 40.0239258 142.950942 40.0991215 142.519143 40.1367188 142.013281 40.1367188zM141.705664 33.3212891C141.104098 33.3212891 140.624448 33.5172506 140.266699 33.9091797 139.90895 34.3011087 139.698177 34.843421 139.634374 35.5361328L143.551367 35.5361328C143.551367 34.8206344 143.391863 34.2726256 143.072851 33.8920898 142.753839 33.5115541 142.298114 33.3212891 141.705664 33.3212891zM147.237499 40L146.102734 40 146.102734 29.3632812 147.237499 29.3632812 147.237499 40zM155.510546 36.2470703C155.510546 37.4684306 155.202932 38.4220343 154.587695 39.1079102 153.972457 39.793786 153.122531 40.1367188 152.03789 40.1367188 151.367965 40.1367188 150.773244 39.9794938 150.25371 39.6650391 149.734177 39.3505844 149.333139 38.899417 149.050585 38.3115234 148.768032 37.7236299 148.626757 37.0354857 148.626757 36.2470703 148.626757 35.02571 148.932093 34.0743849 149.542773 33.3930664 150.153453 32.7117479 151.001101 32.3710938 152.085742 32.3710938 153.133924 32.3710938 153.966761 32.7197231 154.584277 33.4169922 155.201793 34.1142613 155.510546 35.0576112 155.510546 36.2470703zM149.802539 36.2470703C149.802539 37.2041063 149.993943 37.9332657 150.376757 38.4345703 150.759572 38.9358749 151.322392 39.1865234 152.065234 39.1865234 152.808076 39.1865234 153.372035 38.9370142 153.757128 38.4379883 154.142221 37.9389623 154.334765 37.2086637 154.334765 36.2470703 154.334765 35.2945916 154.142221 34.5711288 153.757128 34.0766602 153.372035 33.5821915 152.803519 33.3349609 152.051562 33.3349609 151.30872 33.3349609 150.748178 33.5787736 150.369921 34.0664062 149.991664 34.5540389 149.802539 35.2809196 149.802539 36.2470703zM160.386132 40.1367188C159.8985 40.1367188 159.453029 40.0467131 159.049706 39.8666992 158.646384 39.6866853 158.308009 39.4098326 158.03457 39.0361328L157.952538 39.0361328C158.007226 39.473635 158.03457 39.8883444 158.03457 40.2802734L158.03457 43.3632812 156.899804 43.3632812 156.899804 32.5078125 157.822656 32.5078125 157.979882 33.5332031 158.03457 33.5332031C158.326238 33.1230448 158.665753 32.8268238 159.053124 32.6445312 159.440496 32.4622387 159.884828 32.3710938 160.386132 32.3710938 161.379627 32.3710938 162.146383 32.7106086 162.686425 33.3896484 163.226467 34.0686883 163.496484 35.0211527 163.496484 36.2470703 163.496484 37.4775452 163.22191 38.4334276 162.672753 39.1147461 162.123597 39.7960646 161.361398 40.1367188 160.386132 40.1367188zM160.22207 33.3349609C159.456441 33.3349609 158.902736 33.5468729 158.560937 33.9707031 158.219138 34.3945334 158.043684 35.0690058 158.03457 35.9941406L158.03457 36.2470703C158.03457 37.29981 158.210024 38.0528949 158.560937 38.5063477 158.91185 38.9598004 159.47467 39.1865234 160.249413 39.1865234 160.896552 39.1865234 161.403546 38.9244818 161.77041 38.4003906 162.137273 37.8762995 162.320703 37.153976 162.320703 36.2333984 162.320703 35.299149 162.137273 34.582522 161.77041 34.0834961 161.403546 33.5844702 160.887438 33.3349609 160.22207 33.3349609zM174.42871 40L174.42871 35.1259766C174.42871 34.5289684 174.301107 34.0812189 174.045898 33.7827148 173.790688 33.4842107 173.394208 33.3349609 172.856445 33.3349609 172.150061 33.3349609 171.628256 33.5377584 171.291015 33.9433594 170.953774 34.3489604 170.785156 34.9733031 170.785156 35.8164062L170.785156 40 169.65039 40 169.65039 35.1259766C169.65039 34.5289684 169.522787 34.0812189 169.267578 33.7827148 169.012368 33.4842107 168.613609 33.3349609 168.071288 33.3349609 167.360347 33.3349609 166.839682 33.5480122 166.509277 33.9741211 166.178871 34.40023 166.013671 35.098628 166.013671 36.0693359L166.013671 40 164.878906 40 164.878906 32.5078125 165.801757 32.5078125 165.986328 33.5332031 166.041015 33.5332031C166.255209 33.168618 166.557126 32.8837901 166.946777 32.6787109 167.336427 32.4736318 167.772783 32.3710938 168.255859 32.3710938 169.427089 32.3710938 170.192706 32.7949176 170.552734 33.6425781L170.607421 33.6425781C170.83073 33.2506491 171.154294 32.9407563 171.578124 32.7128906 172.001955 32.4850249 172.485023 32.3710938 173.027343 32.3710938 173.875004 32.3710938 174.5096 32.5887023 174.931152 33.0239258 175.352703 33.4591493 175.563476 34.1552687 175.563476 35.1123047L175.563476 40 174.42871 40zM180.466406 40.1367188C179.358978 40.1367188 178.485126 39.7994825 177.844824 39.125 177.204521 38.4505175 176.884374 37.5140034 176.884374 36.3154297 176.884374 35.1077414 177.181735 34.1484411 177.776464 33.4375 178.371194 32.7265589 179.169851 32.3710938 180.17246 32.3710938 181.111267 32.3710938 181.854098 32.6798472 182.400976 33.2973633 182.947854 33.9148794 183.221288 34.7294871 183.221288 35.7412109L183.221288 36.4589844 178.060156 36.4589844C178.082942 37.3385461 178.305108 38.0061826 178.72666 38.4619141 179.148211 38.9176455 179.741792 39.1455078 180.507421 39.1455078 181.314066 39.1455078 182.111584 38.9768897 182.899999 38.6396484L182.899999 39.6513672C182.498956 39.8245451 182.119565 39.9487301 181.761816 40.0239258 181.404067 40.0991215 180.972268 40.1367188 180.466406 40.1367188zM180.158788 33.3212891C179.557223 33.3212891 179.077573 33.5172506 178.719824 33.9091797 178.362074 34.3011087 178.151302 34.843421 178.087499 35.5361328L182.004492 35.5361328C182.004492 34.8206344 181.844988 34.2726256 181.525976 33.8920898 181.206964 33.5115541 180.751239 33.3212891 180.158788 33.3212891zM189.682812 40L189.682812 35.1533203C189.682812 34.5426402 189.543816 34.0869156 189.26582 33.7861328 188.987823 33.4853501 188.552606 33.3349609 187.960156 33.3349609 187.176298 33.3349609 186.602085 33.5468729 186.237499 33.9707031 185.872914 34.3945334 185.690624 35.0940706 185.690624 36.0693359L185.690624 40 184.555859 40 184.555859 32.5078125 185.47871 32.5078125 185.663281 33.5332031 185.717968 33.5332031C185.950391 33.1640607 186.276234 32.8780935 186.695507 32.675293 187.11478 32.4724925 187.581898 32.3710938 188.096874 32.3710938 188.999223 32.3710938 189.678252 32.5887023 190.133984 33.0239258 190.589715 33.4591493 190.817577 34.1552687 190.817577 35.1123047L190.817577 40 189.682812 40zM194.968554 39.2001953C195.169076 39.2001953 195.362759 39.1853843 195.549609 39.1557617 195.736459 39.1261392 195.884569 39.0953778 195.993945 39.0634766L195.993945 39.9316406C195.870897 39.9908857 195.689747 40.0398761 195.450488 40.0786133 195.211229 40.1173505 194.995899 40.1367188 194.804492 40.1367188 193.355266 40.1367188 192.630663 39.37338 192.630663 37.8466797L192.630663 33.3896484 191.557421 33.3896484 191.557421 32.8427734 192.630663 32.3710938 193.109179 30.7714844 193.765429 30.7714844 193.765429 32.5078125 195.939257 32.5078125 195.939257 33.3896484 193.765429 33.3896484 193.765429 37.7988281C193.765429 38.2500023 193.872524 38.596353 194.086718 38.8378906 194.300912 39.0794283 194.594854 39.2001953 194.968554 39.2001953zM201.260741 40L200.098632 40 200.098632 30.0058594 205.669921 30.0058594 205.669921 31.0380859 201.260741 31.0380859 201.260741 34.6953125 205.40332 34.6953125 205.40332 35.7275391 201.260741 35.7275391 201.260741 40zM207.619726 32.5078125L207.619726 37.3681641C207.619726 37.9788442 207.758722 38.4345688 208.036718 38.7353516 208.314714 39.0361343 208.749931 39.1865234 209.342382 39.1865234 210.12624 39.1865234 210.699314 38.9723329 211.06162 38.5439453 211.423927 38.1155578 211.605077 37.4160205 211.605077 36.4453125L211.605077 32.5078125 212.739843 32.5078125 212.739843 40 211.80332 40 211.639257 38.9951172 211.577734 38.9951172C211.345311 39.3642597 211.022885 39.6468089 210.610448 39.8427734 210.198012 40.038738 209.727476 40.1367188 209.198827 40.1367188 208.287364 40.1367188 207.604917 39.9202496 207.151464 39.4873047 206.698011 39.0543598 206.471288 38.3616584 206.471288 37.4091797L206.471288 32.5078125 207.619726 32.5078125zM219.673046 40L219.673046 35.1533203C219.673046 34.5426402 219.53405 34.0869156 219.256054 33.7861328 218.978058 33.4853501 218.542841 33.3349609 217.95039 33.3349609 217.166532 33.3349609 216.592319 33.5468729 216.227734 33.9707031 215.863148 34.3945334 215.680859 35.0940706 215.680859 36.0693359L215.680859 40 214.546093 40 214.546093 32.5078125 215.468945 32.5078125 215.653515 33.5332031 215.708202 33.5332031C215.940625 33.1640607 216.266468 32.8780935 216.685741 32.675293 217.105014 32.4724925 217.572132 32.3710938 218.087109 32.3710938 218.989457 32.3710938 219.668487 32.5887023 220.124218 33.0239258 220.579949 33.4591493 220.807812 34.1552687 220.807812 35.1123047L220.807812 40 219.673046 40zM227.638476 38.9951172L227.576952 38.9951172C227.052861 39.7561887 226.269015 40.1367188 225.22539 40.1367188 224.245567 40.1367188 223.483368 39.8017612 222.938769 39.1318359 222.39417 38.4619107 222.121874 37.5094463 222.121874 36.2744141 222.121874 35.0393818 222.395309 34.0800815 222.942187 33.3964844 223.489064 32.7128872 224.250125 32.3710938 225.22539 32.3710938 226.241671 32.3710938 227.02096 32.7402307 227.56328 33.4785156L227.652148 33.4785156 227.604296 32.9384766 227.576952 32.4121094 227.576952 29.3632812 228.711718 29.3632812 228.711718 40 227.788866 40 227.638476 38.9951172zM225.368945 39.1865234C226.143688 39.1865234 226.705369 38.9757508 227.054003 38.5541992 227.402638 38.1326476 227.576952 37.4524787 227.576952 36.5136719L227.576952 36.2744141C227.576952 35.2125598 227.400359 34.4549176 227.047167 34.0014648 226.693975 33.5480121 226.130016 33.3212891 225.355273 33.3212891 224.689905 33.3212891 224.180632 33.5799128 223.827441 34.097168 223.474249 34.6144232 223.297655 35.3447218 223.297655 36.2880859 223.297655 37.245122 223.473109 37.9674455 223.824023 38.4550781 224.174936 38.9427108 224.689905 39.1865234 225.368945 39.1865234z"/>
    </g>
    <g class="flag" fill="currentColor">
      <path d="M1,60.947 L90.92,60.947 L90.92,1 L1,1 L1,60.947 Z M91.92,61.947 L0,61.947 L1.11022302e-16,0 L91.92,1.11022302e-16 L91.92,61.947 Z"/>
      <polygon points="34.224 16.699 36.121 15.314 38.019 16.699 37.297 14.46 39.224 13.075 36.847 13.075 36.12 10.806 35.394 13.078 33.02 13.075 34.946 14.46"/>
      <polygon points="55.777 10.809 55.051 13.08 52.676 13.075 54.6 14.463 53.88 16.702 55.779 15.315 57.674 16.702 56.954 14.463 58.881 13.075 56.503 13.075"/>
      <polygon points="61.051 23.87 62.948 22.485 64.846 23.87 64.123 21.631 66.05 20.249 63.677 20.249 62.948 17.98 62.22 20.251 59.847 20.249 61.774 21.631"/>
      <polygon points="28.937 18.007 28.21 20.278 25.836 20.276 27.762 21.661 27.04 23.9 28.937 22.515 30.834 23.9 30.112 21.661 32.038 20.276 29.664 20.276"/>
      <polygon points="68.658 30.056 66.282 30.056 65.554 27.787 64.828 30.058 62.453 30.056 64.38 31.441 63.659 33.68 65.554 32.293 67.452 33.68 66.731 31.441"/>
      <polygon points="26.302 32.322 28.198 33.707 27.477 31.467 29.403 30.083 27.029 30.083 26.302 27.814 25.575 30.088 23.199 30.083 25.127 31.467 24.405 33.707"/>
      <polygon points="29.664 39.919 28.937 37.65 28.21 39.922 25.836 39.919 27.762 41.304 27.04 43.543 28.937 42.156 30.834 43.543 30.112 41.304 32.038 39.919"/>
      <polygon points="63.677 39.919 62.949 37.65 62.221 39.922 59.847 39.919 61.775 41.304 61.051 43.543 62.949 42.156 64.846 43.543 64.123 41.304 66.05 39.919"/>
      <polygon points="56.476 47.118 55.75 44.852 55.022 47.12 52.649 47.118 54.574 48.503 53.853 50.742 55.75 49.357 57.648 50.742 56.924 48.503 58.852 47.118"/>
      <polygon points="36.862 47.118 36.136 44.852 35.41 47.12 33.035 47.118 34.961 48.503 34.239 50.742 36.136 49.357 38.032 50.742 37.313 48.503 39.239 47.118"/>
      <polygon points="46.669 49.726 45.942 47.457 45.216 49.729 42.841 49.726 44.767 51.111 44.046 53.35 45.943 51.965 47.839 53.35 47.117 51.111 49.045 49.726"/>
      <polygon points="44.044 14.061 45.941 12.676 47.839 14.061 47.117 11.822 49.044 10.437 46.668 10.437 45.941 8.171 45.214 10.44 42.84 10.437 44.766 11.822"/>
    </g>
</svg>
