<svg xmlns="http://www.w3.org/2000/svg" width="202" height="50" viewBox="0 0 202 50">
  <g transform="translate(.594 .447)">
    <path d="M36.8493453,7.05753556 C36.6691529,7.05753556 36.5490246,6.87734317 36.5490246,6.6671187 C36.5490246,6.48692631 36.6391208,6.33676597 36.7892811,6.27670184 C36.2186719,2.94314249 33.4557218,0.360384795 30.0320662,0.0300320662 C29.9720021,0.120128265 29.7617776,0.180192397 29.491489,0.210224464 C29.1911684,0.210224464 28.9208798,0.120128265 28.9208798,-2.84217094e-14 C28.6505912,-2.84217094e-14 28.3803026,0.0300320662 28.110014,0.0900961987 C28.0799819,0.0900961987 28.0199178,0.120128265 27.9598537,0.120128265 C27.5394047,0.210224464 27.1189558,0.300320662 26.6985069,0.450480993 C26.6684748,0.570609258 26.5483465,0.750801656 26.3681542,0.900961987 C26.0978656,1.11118645 25.827577,1.14121852 25.7074487,1.02109025 C25.6774166,0.991058186 25.6774166,0.930994053 25.6774166,0.900961987 C24.8365188,1.35144298 24.0857171,1.95208431 23.4550437,2.70288596 C23.4550437,2.70288596 23.4850758,2.70288596 23.4850758,2.73291803 C23.6052041,2.82301423 23.575172,3.06327076 23.4250117,3.27349522 C23.2748513,3.48371968 23.0345948,3.60384795 22.9144665,3.48371968 C22.9144665,3.48371968 22.8844345,3.45368762 22.8844345,3.45368762 C22.7342741,3.66391208 22.6141459,3.87413654 22.4940176,4.08436101 C22.5240497,4.08436101 22.5540817,4.08436101 22.5841138,4.11439307 C22.7342741,4.23452134 22.7042421,4.50480993 22.4940176,4.77509853 C22.3738893,4.95529093 22.1936969,5.07541919 22.0435366,5.07541919 C21.9534404,5.34570779 21.8633442,5.61599639 21.8032801,5.88628498 C21.8333122,5.88628498 21.8333122,5.91631705 21.8633442,5.91631705 C22.0135045,6.03644531 21.9834725,6.30673391 21.773248,6.5770225 C21.743216,6.63708664 21.6831518,6.6671187 21.6531198,6.72718284 C21.6230877,7.0275035 21.5930556,7.32782416 21.5930556,7.62814482 C21.5930556,11.8326341 24.9866791,15.2262576 29.1911684,15.2262576 C33.3956576,15.2262576 36.7892811,11.8326341 36.7892811,7.62814482 C36.8793773,7.41792036 36.8793773,7.23772796 36.8493453,7.05753556 C36.8493453,7.05753556 36.8493453,7.05753556 36.8493453,7.05753556 Z M22.1636649,8.64923507 C22.0135045,8.64923507 21.8933763,8.40897854 21.9234083,8.13868995 C21.9534404,7.86840135 22.0735687,7.65817689 22.223729,7.65817689 C22.3738893,7.65817689 22.4940176,7.89843342 22.4639855,8.16872201 C22.4639855,8.43901061 22.3138252,8.64923507 22.1636649,8.64923507 Z M22.9444986,6.54699044 C22.8243703,6.78724697 22.6141459,6.9374073 22.4940176,6.8473111 C22.3438573,6.78724697 22.3438573,6.51695837 22.4639855,6.27670184 C22.5841138,6.03644531 22.7943383,5.88628498 22.9144665,5.97638118 C23.0345948,6.06647738 23.0646269,6.30673391 22.9444986,6.54699044 Z M32.644856,3.33355935 C32.7049201,3.15336695 33.0052408,3.09330282 33.2755294,3.18339902 C33.545818,3.30352729 33.6959783,3.51375175 33.6359142,3.72397621 C33.57585,3.90416861 33.2755294,3.96423274 33.0052408,3.87413654 C32.7349522,3.75400828 32.5547598,3.51375175 32.644856,3.33355935 Z M31.9541185,5.91631705 C31.9541185,6.42686217 31.5336695,6.81727903 31.0531565,6.81727903 C30.5426114,6.81727903 30.1521945,6.39683011 30.1521945,5.91631705 C30.1521945,5.40577192 30.5726434,5.01535506 31.0531565,5.01535506 C31.5336695,5.01535506 31.9541185,5.40577192 31.9541185,5.91631705 Z M30.0921304,0.570609258 C30.1822266,0.330352729 30.6026755,0.270288596 31.0231244,0.420448927 C31.4435733,0.570609258 31.743894,0.870929921 31.6537978,1.11118645 C31.5637016,1.35144298 31.1432527,1.41150711 30.7228038,1.26134678 C30.3023548,1.11118645 30.0320662,0.810865788 30.0921304,0.570609258 Z M29.491489,2.70288596 C29.9720021,2.70288596 30.362419,3.00320662 30.362419,3.36359142 C30.362419,3.72397621 29.9720021,4.02429687 29.491489,4.02429687 C29.010976,4.02429687 28.6205591,3.72397621 28.6205591,3.36359142 C28.6205591,3.00320662 29.010976,2.70288596 29.491489,2.70288596 Z M26.9988275,4.02429687 C27.2991482,4.20448927 27.3592123,4.68500233 27.0889237,5.13548333 C26.8486672,5.55593225 26.3981862,5.76615672 26.0978656,5.58596432 C25.7975449,5.40577192 25.7374808,4.92525886 26.0077694,4.47477787 C26.2480259,4.05432894 26.6985069,3.84410448 26.9988275,4.02429687 Z M27.2390841,2.55272563 C27.5994689,2.28243703 28.0199178,2.25240497 28.2001102,2.4926615 C28.3803026,2.73291803 28.2301423,3.12333489 27.8697575,3.39362348 C27.5093727,3.66391208 27.0889237,3.69394415 26.9087313,3.45368762 C26.7285389,3.21343109 26.8786993,2.82301423 27.2390841,2.55272563 Z M27.7496292,6.54699044 C28.3202385,6.54699044 28.7707194,6.99747143 28.7707194,7.56808069 C28.7707194,8.13868995 28.3202385,8.58917094 27.7496292,8.58917094 C27.1790199,8.58917094 26.7285389,8.13868995 26.7285389,7.56808069 C26.7285389,7.0275035 27.209052,6.54699044 27.7496292,6.54699044 Z M28.7707194,6.03644531 C28.2601743,6.03644531 27.8697575,5.64602845 27.8697575,5.13548333 C27.8697575,4.6249382 28.2601743,4.23452134 28.7707194,4.23452134 C29.2812646,4.23452134 29.6716814,4.6249382 29.6716814,5.13548333 C29.6716814,5.61599639 29.2512325,6.03644531 28.7707194,6.03644531 Z M28.9208798,0.450480993 C29.2212004,0.450480993 29.491489,0.510545126 29.491489,0.630673391 C29.491489,0.750801656 29.2512325,0.870929921 28.9208798,0.870929921 C28.6205591,0.870929921 28.3502705,0.810865788 28.3502705,0.690737523 C28.3502705,0.600641325 28.5905271,0.48051306 28.9208798,0.450480993 Z M28.9509118,1.26134678 C29.0710401,1.50160331 28.8908477,1.80192397 28.560495,1.98211637 C28.2301423,2.16230877 27.8697575,2.10224464 27.7496292,1.86198811 C27.6295009,1.62173158 27.8096933,1.32141091 28.1400461,1.14121852 C28.4703988,0.991058186 28.8307836,1.02109025 28.9509118,1.26134678 Z M27.3592123,0.48051306 C27.6295009,0.330352729 27.9298216,0.300320662 27.9598537,0.420448927 C28.0199178,0.540577192 27.8397254,0.72076959 27.5394047,0.870929921 C27.2691161,1.02109025 26.9687955,1.05112232 26.9387634,0.930994053 C26.8786993,0.840897854 27.0588917,0.630673391 27.3592123,0.48051306 Z M26.4282183,1.38147505 C26.6985069,1.17125058 27.0288596,1.17125058 27.1790199,1.38147505 C27.3291803,1.59169951 27.2390841,1.89202017 26.9687955,2.10224464 C26.6985069,2.3124691 26.3681542,2.3124691 26.2179938,2.10224464 C26.0678335,1.92205224 26.1579297,1.59169951 26.4282183,1.38147505 Z M26.1579297,2.61278976 C26.3681542,2.76295009 26.3681542,3.09330282 26.1579297,3.36359142 C25.9477052,3.63388001 25.6473846,3.72397621 25.4371601,3.57381588 C25.2269356,3.42365555 25.2269356,3.09330282 25.4371601,2.82301423 C25.6473846,2.5827577 25.9477052,2.46262943 26.1579297,2.61278976 Z M25.0467432,1.53163538 C25.2569677,1.38147505 25.4972242,1.35144298 25.5873204,1.47157125 C25.6774166,1.59169951 25.5873204,1.83195604 25.377096,1.98211637 C25.1668715,2.1322767 24.926615,2.16230877 24.8365188,2.0421805 C24.7464226,1.92205224 24.8365188,1.68179571 25.0467432,1.53163538 Z M24.0556851,2.79298216 C24.2058454,2.5827577 24.4461019,2.46262943 24.5662302,2.5827577 C24.6863584,2.67285389 24.6563264,2.91311042 24.506166,3.12333489 C24.3560057,3.33355935 24.1157492,3.45368762 23.9956209,3.33355935 C23.8754927,3.27349522 23.9055247,3.03323869 24.0556851,2.79298216 Z M23.2448193,5.16551539 C23.0946589,5.10545126 23.0646269,4.86519473 23.1547231,4.6249382 C23.2448193,4.38468167 23.4250117,4.20448927 23.575172,4.2645534 C23.7253323,4.32461754 23.7553644,4.56487407 23.6652682,4.8051306 C23.575172,5.04538713 23.3949796,5.22557952 23.2448193,5.16551539 Z M24.3560057,6.87734317 C24.2659095,7.23772796 23.9655889,7.44795243 23.6953003,7.38788829 C23.4250117,7.32782416 23.3048834,6.96743937 23.3949796,6.60705457 C23.4850758,6.24666978 23.7853965,6.03644531 24.0556851,6.09650944 C24.2959416,6.15657358 24.4461019,6.51695837 24.3560057,6.87734317 Z M24.5662302,5.49586812 C24.3259736,5.43580399 24.1758133,5.07541919 24.2659095,4.74506646 C24.3560057,4.38468167 24.6563264,4.17445721 24.8965829,4.23452134 C25.1368394,4.29458547 25.2869998,4.65497027 25.1969036,4.98532299 C25.0767753,5.31567572 24.8064867,5.55593225 24.5662302,5.49586812 Z M25.6473846,8.07862582 C25.2869998,8.07862582 24.9866791,7.65817689 24.9866791,7.14763176 C24.9866791,6.63708664 25.2869998,6.21663771 25.6473846,6.21663771 C26.0077694,6.21663771 26.30809,6.63708664 26.30809,7.14763176 C26.30809,7.68820896 26.0077694,8.07862582 25.6473846,8.07862582 Z M27.6295009,10.421127 C27.3291803,10.7214476 26.7886031,10.7214476 26.4882824,10.421127 C26.1879618,10.1208063 26.1879618,9.58022913 26.4882824,9.27990847 C26.7886031,8.9795878 27.3291803,8.9795878 27.6295009,9.27990847 C27.9298216,9.58022913 27.9598537,10.1208063 27.6295009,10.421127 Z M29.4013928,11.5623455 C28.8608156,11.5623455 28.4403667,11.1418966 28.4403667,10.6013194 C28.4403667,10.0607422 28.8608156,9.64029326 29.4013928,9.64029326 C29.94197,9.64029326 30.362419,10.0607422 30.362419,10.6013194 C30.3323869,11.1118645 29.911938,11.5623455 29.4013928,11.5623455 Z M30.392451,9.27990847 C29.7918097,9.27990847 29.2812646,8.76936334 29.2812646,8.16872201 C29.2812646,7.56808069 29.7918097,7.05753556 30.392451,7.05753556 C30.9930924,7.05753556 31.5036375,7.56808069 31.5036375,8.16872201 C31.5036375,8.76936334 30.9930924,9.27990847 30.392451,9.27990847 Z M32.6748881,10.1508384 C32.0742467,10.1508384 31.5937337,9.67032533 31.5937337,9.069684 C31.5937337,8.46904268 32.0742467,7.98852962 32.6748881,7.98852962 C33.2755294,7.98852962 33.7560424,8.46904268 33.7560424,9.069684 C33.7560424,9.67032533 33.2755294,10.1508384 32.6748881,10.1508384 Z M33.996299,2.37253323 C33.9362348,2.52269356 33.6959783,2.55272563 33.4256897,2.43259736 C33.1854332,2.34250117 33.0052408,2.1322767 33.0653049,2.01214844 C33.1253691,1.89202017 33.3656256,1.83195604 33.6359142,1.95208431 C33.8761707,2.0421805 34.0563631,2.25240497 33.996299,2.37253323 Z M34.927293,6.33676597 C34.6870365,6.33676597 34.476812,6.12654151 34.476812,5.88628498 C34.476812,5.64602845 34.6870365,5.43580399 34.927293,5.43580399 C35.1675496,5.43580399 35.377774,5.64602845 35.377774,5.88628498 C35.377774,6.12654151 35.1975816,6.33676597 34.927293,6.33676597 Z M35.8582871,4.41471374 C35.7681909,4.534842 35.5279344,4.47477787 35.3177099,4.32461754 C35.1074854,4.14442514 35.0173892,3.90416861 35.1074854,3.81407241 C35.1975816,3.69394415 35.4378382,3.75400828 35.6480626,3.90416861 C35.828255,4.05432894 35.9483833,4.29458547 35.8582871,4.41471374 Z"/>
    <path d="M29.1611363,17.208374 C27.5694368,17.208374 26.0978656,16.8179571 24.7764546,16.1272196 C19.5809072,19.7911316 16.1872837,25.857609 16.1872837,32.7049201 C16.1872837,39.462135 19.490811,45.4685483 24.5662302,49.1324604 L24.5662302,24.5361981 L36.6391208,24.5361981 L36.6391208,13.4843977 C34.927293,15.7668348 32.194375,17.208374 29.1611363,17.208374 Z"/>
    <path d="M14.4153918,29.94197 C14.4153918,23.3349155 16.9681174,17.3285022 21.1726067,12.8537243 C21.0524784,12.6735319 20.9323502,12.4633075 20.842254,12.2831151 L0.0600641325,12.3131472 L0.0600641325,24.6262943 L12.1329548,24.6262943 L12.1329548,49.5529093 L23.8754927,49.5529093 C18.1093359,44.9279711 14.4153918,37.8704355 14.4153918,29.94197 Z"/>
    <g transform="translate(46.25 19.821)">
      <polygon points="12.193 .45 12.193 3.664 8.169 3.664 8.169 16.728 4.295 16.728 4.295 3.664 .24 3.664 .24 .45"/>
      <path d="M22.9745307 11.322089L15.2262576 11.322089C15.2262576 11.5323134 15.2262576 11.7125058 15.2262576 11.8926982 15.2262576 12.7636281 15.4665141 13.3943015 15.9169951 13.8447825 16.3674761 14.2952635 16.9080533 14.505488 17.5687587 14.505488 18.7400093 14.505488 19.4607789 13.8748146 19.7010354 12.6134678L22.9144665 12.8537243C22.0135045 15.6467065 20.1815485 17.0281816 17.4486305 17.0281816 16.2473478 17.0281816 15.2262576 16.787925 14.3853597 16.307412 13.5444619 15.8268989 12.8537243 15.1361614 12.3131472 14.2051673 11.77257 13.2741733 11.5022814 12.1629868 11.5022814 10.90164 11.5022814 8.9795878 12.0428586 7.44795243 13.154045 6.24666978 14.2351994 5.07541919 15.6467065 4.47477787 17.3585343 4.47477787 18.9202017 4.47477787 20.2416126 5.01535506 21.3527991 6.12654151 22.4339535 7.17766383 22.9745307 8.91952367 22.9745307 11.322089zM15.1962255 9.2498764L19.490811 9.2498764C19.3706827 7.59811276 18.7099773 6.7572149 17.4486305 6.7572149 16.1272196 6.78724697 15.3764179 7.59811276 15.1962255 9.2498764zM35.5579664 12.223051C35.4078061 13.6345581 34.8672289 14.8058087 33.8761707 15.6767386 32.8851125 16.5476685 31.5937337 16.9981495 30.0320662 16.9981495 28.3202385 16.9981495 26.9387634 16.4275402 25.8876411 15.3163538 24.8064867 14.2051673 24.2959416 12.6735319 24.2959416 10.8115438 24.2959416 8.94955574 24.8365188 7.38788829 25.9477052 6.21663771 27.0288596 5.04538713 28.5004309 4.4447458 30.3323869 4.4447458 31.8039581 4.4447458 33.0352729 4.8952268 33.996299 5.76615672 34.9573251 6.63708664 35.4979023 7.74827309 35.5879985 9.069684L32.2844712 9.2498764C32.1643429 7.80833722 31.5336695 7.08756763 30.392451 7.08756763 28.9809439 7.08756763 28.2902064 8.22878615 28.2902064 10.5412552 28.2902064 12.0728906 28.5004309 13.0639488 28.8908477 13.4543657 29.2812646 13.8447825 29.7617776 14.0850391 30.3323869 14.0850391 31.4435733 14.0850391 32.0742467 13.3943015 32.3145033 11.9827944L35.5579664 12.223051zM40.8436101.450480993L40.8436101 6.33676597C41.5043155 5.07541919 42.5854699 4.4447458 44.0870732 4.4447458 44.897939 4.4447458 45.5886765 4.6249382 46.1592858 4.98532299 46.7298951 5.34570779 47.150344 5.79618878 47.3906005 6.33676597 47.630857 6.90737523 47.7509853 7.71824102 47.7509853 8.76936334L47.7509853 16.7278609 44.2072015 16.7278609 44.2072015 9.94061392C44.2072015 9.12974813 44.1771694 8.55913888 44.1171053 8.25881821 44.0570412 7.95849755 43.9068808 7.71824102 43.6966564 7.50801656 43.4563998 7.29779209 43.1861112 7.2076959 42.8557585 7.2076959 42.4052775 7.2076959 41.9848286 7.38788829 41.5343476 7.71824102 41.0838666 8.07862582 40.8736421 8.79939541 40.8736421 9.94061392L40.8736421 16.7278609 37.4199545 16.7278609 37.4199545.450480993 40.8436101.450480993zM60.9350624 16.757893L57.3612465 16.757893 57.3612465 10.0006781C57.3612465 9.18981227 57.3312144 8.61920301 57.2711503 8.31888235 57.2110862 8.01856168 57.0609258 7.74827309 56.8206693 7.53804862 56.5804128 7.32782416 56.2500601 7.2076959 55.8896753 7.2076959 54.6283285 7.2076959 54.0276872 8.13868995 54.0276872 9.97064599L54.0276872 16.7278609 50.4538713 16.7278609 50.4538713 4.68500233 53.7573986 4.68500233 53.7573986 6.72718284C54.2979757 5.76615672 54.8385529 5.13548333 55.3791301 4.86519473 55.9197073 4.59490613 56.4903166 4.4447458 57.12099 4.4447458 58.2622085 4.4447458 59.1932025 4.74506646 59.8839401 5.37573986 60.5746776 6.00641325 60.9350624 7.2076959 60.9350624 9.00961987L60.9350624 16.757893zM68.5932393 4.4447458C70.4251953 4.4447458 71.8667345 5.04538713 72.8878247 6.24666978 73.908915 7.44795243 74.4194601 8.94955574 74.4194601 10.7514797 74.4194601 12.5233716 73.8788829 14.0249749 72.8277606 15.1962255 71.7466062 16.3975082 70.3350991 16.9681174 68.5632072 16.9681174 66.8513794 16.9681174 65.4699044 16.3674761 64.4488141 15.1962255 63.4277239 14.0249749 62.9171788 12.4933396 62.9171788 10.6613835 62.9171788 9.37000466 63.1574353 8.28885028 63.6079163 7.38788829 64.0583973 6.48692631 64.7191027 5.76615672 65.5299685 5.22557952 66.3408343 4.7150344 67.3619246 4.4447458 68.5932393 4.4447458zM68.7133675 6.78724697C68.0526621 6.78724697 67.542117 7.05753556 67.1817322 7.56808069 66.8513794 8.07862582 66.671187 9.12974813 66.671187 10.6914156 66.671187 12.1029227 66.8213474 13.1240129 67.1517001 13.7546863 67.4820528 14.3853597 67.9925979 14.6856804 68.6833355 14.6856804 69.2839768 14.6856804 69.7644899 14.4153918 70.1549067 13.9048467 70.5152915 13.3642695 70.725516 12.3732113 70.725516 10.871608 70.725516 9.27990847 70.5753556 8.22878615 70.2450029 7.65817689 69.8846181 7.05753556 69.374073 6.78724697 68.7133675 6.78724697z"/>
      <polygon points="80.426 .45 80.426 16.728 76.612 16.728 76.612 .45"/>
      <path d="M93.5198542.450480993L93.5198542 16.7278609 90.246359 16.7278609 90.246359 14.8358407C89.4354932 16.2473478 88.3243068 16.9681174 86.9127997 16.9681174 85.5913888 16.9681174 84.5402664 16.4275402 83.7594327 15.3463858 82.978599 14.2652315 82.6182142 12.7636281 82.6182142 10.8415759 82.6182142 8.82942747 83.0086311 7.26776003 83.7594327 6.12654151 84.5402664 4.98532299 85.6514529 4.41471374 87.0929921 4.41471374 88.3843709 4.41471374 89.3754291 4.92525886 90.0661666 5.91631705L90.0661666.420448927 93.5198542.420448927 93.5198542.450480993zM90.0661666 9.73038946C90.0661666 7.83836929 89.4955574 6.87734317 88.3543389 6.87734317 86.9728638 6.87734317 86.2821263 8.22878615 86.2821263 10.90164 86.2821263 13.2741733 86.9127997 14.4754559 88.2041785 14.4754559 88.6846916 14.4754559 89.1351726 14.2652315 89.4955574 13.8447825 89.8559422 13.4243336 90.0661666 12.7936602 90.0661666 12.0128265L90.0661666 9.73038946zM107.034284 11.322089L99.286011 11.322089C99.286011 11.5323134 99.286011 11.7125058 99.286011 11.8926982 99.286011 12.7636281 99.5262675 13.3943015 99.9767485 13.8447825 100.427229 14.2952635 100.967807 14.505488 101.628512 14.505488 102.799763 14.505488 103.520532 13.8748146 103.760789 12.6134678L106.97422 12.8537243C106.073258 15.6467065 104.241302 17.0281816 101.508384 17.0281816 100.307101 17.0281816 99.286011 16.787925 98.4451131 16.307412 97.6042153 15.8268989 96.9134777 15.1361614 96.3729005 14.2051673 95.8323233 13.2741733 95.5620347 12.1629868 95.5620347 10.90164 95.5620347 8.9795878 96.1026119 7.44795243 97.2137984 6.24666978 98.2949528 5.07541919 99.7064599 4.47477787 101.418288 4.47477787 102.979955 4.47477787 104.301366 5.01535506 105.412552 6.12654151 106.493707 7.17766383 107.034284 8.91952367 107.034284 11.322089zM99.286011 9.2498764L103.580596 9.2498764C103.460468 7.59811276 102.799763 6.7572149 101.538416 6.7572149 100.186973 6.78724697 99.4361713 7.59811276 99.286011 9.2498764zM119.527624 16.757893L115.98384 16.757893 115.98384 10.0006781C115.98384 9.18981227 115.953808 8.61920301 115.893744 8.31888235 115.833679 8.01856168 115.683519 7.74827309 115.443263 7.53804862 115.203006 7.32782416 114.872653 7.2076959 114.512269 7.2076959 113.250922 7.2076959 112.65028 8.13868995 112.65028 9.97064599L112.65028 16.7278609 109.106497 16.7278609 109.106497 4.68500233 112.410024 4.68500233 112.410024 6.72718284C112.950601 5.76615672 113.491178 5.13548333 114.031755 4.86519473 114.572333 4.59490613 115.142942 4.4447458 115.773615 4.4447458 116.914834 4.4447458 117.845828 4.74506646 118.536565 5.37573986 119.227303 6.00641325 119.587688 7.2076959 119.587688 9.00961987L119.587688 16.757893 119.527624 16.757893zM126.224774 7.47798449L126.224774 12.5834358C126.224774 13.2141091 126.314871 13.6345581 126.525095 13.8447825 126.705287 14.055007 127.155768 14.1751353 127.876538 14.1751353 128.206891 14.1751353 128.567276 14.1451032 129.017757 14.1150711L129.017757 16.757893C127.996666 16.9380854 127.245865 17.0281816 126.795384 17.0281816 125.323812 17.0281816 124.27269 16.757893 123.642017 16.1872837 123.011343 15.6166744 122.711023 14.5955842 122.711023 13.0939809L122.711023 7.47798449 120.78897 7.47798449 120.78897 4.7150344 122.891215 4.7150344 123.191536 1.17125058 126.254806.930994053 126.254806 4.7150344 128.837564 4.7150344 128.837564 7.47798449 126.224774 7.47798449zM134.123208.120128265L134.123208 3.66391208 130.579424 3.66391208 130.579424.120128265 134.123208.120128265zM134.123208 4.68500233L134.123208 16.7278609 130.579424 16.7278609 130.579424 4.68500233 134.123208 4.68500233zM140.790326 7.47798449L140.790326 12.5834358C140.790326 13.2141091 140.880423 13.6345581 141.090647 13.8447825 141.27084 14.055007 141.721321 14.1751353 142.44209 14.1751353 142.772443 14.1751353 143.132828 14.1451032 143.583309 14.1150711L143.583309 16.757893C142.562218 16.9380854 141.811417 17.0281816 141.360936 17.0281816 139.889365 17.0281816 138.838242 16.757893 138.207569 16.1872837 137.576895 15.6166744 137.276575 14.5955842 137.276575 13.0939809L137.276575 7.47798449 135.354523 7.47798449 135.354523 4.7150344 137.456767 4.7150344 137.757088 1.17125058 140.820359.930994053 140.820359 4.7150344 143.403116 4.7150344 143.403116 7.47798449 140.790326 7.47798449zM154.484949 4.68500233L150.700908 16.2473478C150.280459 17.5387267 149.920075 18.4697207 149.619754 19.04033 149.319433 19.6109392 148.898984 20.0914523 148.328375 20.421805 147.757766 20.7821898 146.976932 20.9323502 145.985874 20.9323502 145.475329 20.9323502 144.90472 20.872286 144.274046 20.7821898L144.274046 18.0492718C144.90472 18.1694001 145.475329 18.2294642 146.015906 18.2294642 146.706644 18.2294642 147.187157 18.1093359 147.427413 17.8390473 147.66767 17.5687587 147.847862 17.208374 147.96799 16.7278609L143.583309 4.68500233 147.337317 4.68500233 149.649786 11.8626662 151.872159 4.68500233 154.484949 4.68500233z"/>
    </g>
  </g>
</svg>
