<svg xmlns="http://www.w3.org/2000/svg" width="221" height="46" viewBox="0 0 221 46">
  <g fill="#000000" fill-rule="evenodd">
    <polygon points="40.929 44.937 40.929 .355 39.022 .355 20.565 21.592 2.121 .355 .215 .355 .215 44.937 2.392 44.937 2.392 4.275 20.565 25.066 38.752 4.275 38.752 44.937"/>
    <polygon points="133.81 45.086 133.81 .517 131.633 .517 131.633 41.166 101.249 .517 99.275 .517 99.275 45.086 101.452 45.086 101.452 4.438 131.836 45.086"/>
    <polygon points="217.455 44.937 220.078 44.937 203.136 22.633 220.078 .355 217.455 .355 201.77 20.984 186.085 .355 183.462 .355 200.391 22.633 183.462 44.937 186.085 44.937 201.77 24.269"/>
    <polygon points="158.838 .207 139.989 44.775 142.369 44.775 159.744 3.6 177.106 44.775 179.486 44.775 160.745 .45 160.637 .207"/>
    <path d="M70.1627815,0.368758626 C57.8444616,0.368758626 47.8248403,10.3855688 47.8248403,22.7004325 C47.8248403,35.0152963 57.8444616,45.0456244 70.1627815,45.0456244 C82.4811014,45.0456244 92.5007227,35.0288142 92.5007227,22.7139505 C92.5007227,10.3990867 82.4811014,0.368758626 70.1627815,0.368758626 Z M70.1627815,42.8016426 C59.0749415,42.8016426 50.0694518,33.7851617 50.0694518,22.7139505 C50.0694518,11.6292213 59.0884632,2.62625835 70.1627815,2.62625835 C81.2370998,2.62625835 90.2561112,11.6427393 90.2561112,22.7139505 C90.2561112,33.7851617 81.2370998,42.8016426 70.1627815,42.8016426 Z"/>
  </g>
</svg>
