<svg xmlns="http://www.w3.org/2000/svg" width="41" height="41" viewBox="0 0 41 41">
  <path d="M0,0 L41,0 L41,41 L0,41 L0,0 Z M10.877551,34.9148412 L10.877551,34.9145109 C11.8001231,36.8696727 13.6175836,38.4897959 16.7486597,38.4897959 C20.2155773,38.4897959 22.5918367,36.6462586 22.5918367,32.5960743 L22.5918367,19.244898 L18.6778469,19.244898 L18.6778469,32.5407574 C18.6778469,34.4958531 17.8670016,34.9984769 16.5809043,34.9984769 C15.2391916,34.9984769 14.6798141,34.0769147 14.0649038,32.9876681 L10.877551,34.9148412 Z M24.2653061,33.704693 C25.3922675,35.9413046 27.7015267,37.6530612 31.2753163,37.6530612 C34.9315011,37.6530612 37.6530612,35.7480444 37.6530612,32.2688708 C37.6530612,29.0385361 35.8111144,27.6028771 32.5396842,26.1946402 L31.5775945,25.7805345 C29.9283094,25.0625826 29.2134865,24.5931431 29.2134865,23.4334185 C29.2134865,22.4947844 29.9283094,21.7769141 31.0554333,21.7769141 C32.1550108,21.7769141 32.86959,22.246272 33.5294016,23.4334185 L36.5259373,21.5007348 C35.2614881,19.2642048 33.502099,18.4081633 31.0554333,18.4081633 C27.618969,18.4081633 25.4197326,20.6171896 25.4197326,23.5163376 C25.4197326,26.6639981 27.2616794,28.1549909 30.0384134,29.3420558 L31.0003406,29.756488 C32.759811,30.5293656 33.8043772,30.9988051 33.8043772,32.324123 C33.8043772,33.4286116 32.7875199,34.2293847 31.1928398,34.2293847 C29.2960442,34.2293847 28.2239316,33.2354167 27.3990047,31.8823504 L24.2653061,33.704693 L24.2653061,33.704693 Z"/>
</svg>
