<svg xmlns="http://www.w3.org/2000/svg" width="217" height="46" viewBox="0 0 217 46">
  <g>
    <path d="M66.4 12.43C67.6276953 11.7249997 68.9910926 11.2887126 70.4 11.15 71.2824581 11.0821675 72.1699222 11.1736237 73.02 11.42 74.59 11.88 75.18 13.11 75.48 14.57 75.7016115 15.7601202 75.8021244 16.9696247 75.78 18.18L75.78 25.44C75.78 25.84 75.67 25.95 75.29 25.92 74.8705585 25.8893697 74.4494415 25.8893697 74.03 25.92 73.71 25.92 73.61 25.84 73.61 25.51L73.61 20.76C73.61 19.26 73.68 17.76 73.52 16.25 73.4663033 15.7573151 73.3760546 15.2693036 73.25 14.79 73.0579024 13.9090856 72.3177102 13.2538335 71.42 13.17 69.7638135 12.9810804 68.0889386 13.2909845 66.61 14.06 66.35 14.18 66.43 14.39 66.43 14.58L66.43 25.33C66.43 25.78 66.36 25.98 65.86 25.92 65.4273597 25.8853419 64.9926403 25.8853419 64.56 25.92 64.29 25.92 64.21 25.84 64.22 25.58L64.22 23.02 64.22 11.95C64.22 11.55 64.31 11.39 64.73 11.43 65.1326786 11.4625017 65.5373214 11.4625017 65.94 11.43 66.29 11.43 66.43 11.51 66.38 11.87 66.3760442 12.0568949 66.3827216 12.2438635 66.4 12.43L66.4 12.43zM80.44 18L80.44 13.77C80.44 13.37 80.32 13.26 79.94 13.29 79.56 13.32 79.13 13.29 78.73 13.29 78.48 13.29 78.36 13.24 78.37 12.96 78.38 12.68 78.37 12.12 78.37 11.7 78.37 11.46 78.46 11.37 78.7 11.38L80.05 11.38C80.5 11.38 80.44 11.28 80.44 10.98L80.44 7.4C80.44 7.07 80.5 6.92 80.87 6.95 81.3194448 6.9816138 81.7705552 6.9816138 82.22 6.95 82.56 6.95 82.63 7.07 82.62 7.38L82.62 10.96C82.62 11.28 82.71 11.39 83.04 11.38L86.76 11.38C87.11 11.38 87.28 11.44 87.23 11.83 87.18 12.22 87.43 12.92 87.13 13.21 86.83 13.5 86.25 13.28 85.78 13.29L82.99 13.29C82.7 13.29 82.62 13.37 82.62 13.66L82.62 21.66C82.6287774 22.1087707 82.6891748 22.5550403 82.8 22.99 82.8936733 23.649309 83.45412 24.1418228 84.12 24.15 85.0012411 24.1921042 85.8844693 24.1586486 86.76 24.05 87.13 24.05 87.3 24.1 87.28 24.51 87.2828978 24.8647262 87.3096246 25.218857 87.36 25.57 87.36 25.73 87.36 25.83 87.16 25.86 85.8865512 26.1402201 84.5755116 26.2077995 83.28 26.06 81.55 25.77 80.8 24.9 80.57 23.06 80.57 22.83 80.5 22.6 80.49 22.37 80.41 20.94 80.45 19.48 80.44 18zM59.79 15.94L59.79 25.43C59.79 25.83 59.68 25.94 59.3 25.91 58.8370699 25.8826635 58.3729301 25.8826635 57.91 25.91 57.62 25.91 57.54 25.82 57.54 25.54L57.54 23.31 57.54 6.42C57.54 5.96 57.66 5.82 58.11 5.87 58.5259189 5.9053023 58.9440811 5.9053023 59.36 5.87 59.72 5.87 59.8 5.97 59.8 6.31L59.8 12.5 59.79 15.94zM163.33 11.65C163.33 11.44 163.26 11.38 163.06 11.39L161.99 11.39C160.892501 11.4949093 159.787499 11.4949093 158.69 11.39 157.429729 11.1395489 156.141186 11.062169 154.86 11.16 152.945558 11.189653 151.287312 12.4957774 150.81 14.35 150.696516 14.7844387 150.636076 15.2310248 150.63 15.68 150.63 17.55 150.86 19.29 152.71 20.32 152.89 20.42 152.85 20.52 152.77 20.65 152.596667 20.9766667 152.426667 21.31 152.26 21.65 151.670932 22.6502662 151.844619 23.9239768 152.68 24.73 152.51 24.87 152.35 25.02 152.18 25.14 150.8752 26.0223239 150.209681 27.5882508 150.48 29.14 150.52184 30.6427385 151.588849 31.920667 153.06 32.23 155.202196 32.7795696 157.445001 32.8070045 159.6 32.31 161.299923 32.08533 162.667555 30.8021696 163 29.12 163.131846 28.3388577 163.131846 27.5411423 163 26.76 162.860911 25.4169798 161.841769 24.3323514 160.51 24.11 159.599975 23.9147187 158.670606 23.8241303 157.74 23.84 156.780532 23.8677867 155.820434 23.814262 154.87 23.68 154.633822 23.6671054 154.412492 23.5607277 154.254885 23.3843581 154.097278 23.2079885 154.01636 22.9761358 154.03 22.74 154.054698 22.1820378 154.190696 21.6346439 154.43 21.13 154.5 20.91 154.62 20.87 154.85 20.9 156.007144 21.0495083 157.181525 20.9953582 158.32 20.74 159.553447 20.5974447 160.615147 19.8030791 161.1 18.66 161.875642 16.9024465 161.737294 14.8758402 160.73 13.24L163 13.24C163.22 13.24 163.35 13.24 163.33 12.95 163.32 12.52 163.32 12.09 163.33 11.65zM154.08 25.71C154.167461 25.6479871 154.272847 25.6163713 154.38 25.62 155.98 25.74 157.6 25.68 159.2 25.9 160.33 26.05 160.69 26.44 160.85 27.56 161.049117 28.2618582 160.926434 29.0158913 160.515088 29.6184255 160.103743 30.2209597 159.446174 30.6098308 158.72 30.68 158.005987 30.8238585 157.278149 30.8875862 156.55 30.87 155.713496 30.8975727 154.877575 30.7998238 154.07 30.58 153.363702 30.3930331 152.827179 29.8176315 152.69 29.1 152.282152 27.7829566 152.864948 26.3616065 154.08 25.71zM159.24 17.23C159.081747 18.4027498 158.062824 19.2662436 156.88 19.23L156.09 19.23C155.702309 19.2539808 155.313148 19.2338518 154.93 19.17 153.849568 19.0562957 153.006483 18.1837029 152.93 17.1 152.7813 16.3708373 152.7813 15.6191627 152.93 14.89 153.089246 13.9754329 153.805433 13.259246 154.72 13.1 155.587183 12.9176389 156.482817 12.9176389 157.35 13.1 158.341461 13.2280836 159.121916 14.0085393 159.25 15 159.386047 15.7374273 159.382655 16.4938225 159.24 17.23zM146.43 5.12C145.997279 5.15257096 145.562721 5.15257096 145.13 5.12 144.77 5.12 144.69 5.22 144.69 5.56L144.69 11.1C144.69 11.45 144.59 11.51 144.26 11.45 142.874205 11.1784272 141.458196 11.0943412 140.05 11.2 137.995669 11.2708496 136.220006 12.6550599 135.65 14.63 135.206344 16.0837318 135.00697 17.6010022 135.06 19.12 134.991261 20.6107951 135.222495 22.1002199 135.74 23.5 136.226321 24.8135172 137.364263 25.7769744 138.74 26.04 140.580459 26.4086219 142.491935 26.1183608 144.14 25.22 144.295333 25.0982455 144.483221 25.025178 144.68 25.01 144.689607 25.1464978 144.689607 25.2835022 144.68 25.42 144.63 25.79 144.74 25.96 145.15 25.91 145.535759 25.8725345 145.924241 25.8725345 146.31 25.91 146.73 25.91 146.85 25.81 146.84 25.38L146.84 5.66C146.837747 5.63004231 146.837747 5.59995769 146.84 5.57 146.91 5.23 146.8 5.09 146.43 5.12zM144.35 23.34C143.095824 23.9209934 141.732158 24.2278182 140.35 24.24 139.278481 24.2513999 138.309721 23.6042369 137.91 22.61 137.610962 21.944263 137.438036 21.2288227 137.4 20.5 137.225608 18.9239991 137.306649 17.3301835 137.64 15.78 137.858852 14.0740909 139.386993 12.8462779 141.1 13 142.185909 12.9927315 143.270272 13.0830951 144.34 13.27 144.65 13.27 144.71 13.44 144.71 13.72L144.71 18.23 144.71 22.74C144.767124 23.0012994 144.608492 23.2612794 144.35 23.33L144.35 23.34zM97.11 11.33C96.6406588 11.2202459 96.161717 11.1566103 95.68 11.14 92.74 11.02 90.42 12.14 89.59 15.41 89.006777 17.7535049 89.0274205 20.2066421 89.65 22.54 89.9479575 24.1016132 91.0758941 25.3753375 92.59 25.86 93.1826635 26.0477349 93.7985719 26.1520691 94.42 26.17 96.1420567 26.1979882 97.8637347 26.0943532 99.57 25.86 100.57 25.73 100.57 25.71 100.57 24.65 100.57 23.99 100.57 24.02 99.86 24.08 98.0866211 24.2695915 96.300877 24.3164088 94.52 24.22 93.1949552 24.2020816 92.0506074 23.28825 91.74 22 91.570622 21.3444989 91.4601825 20.6751683 91.41 20 91.41 19.61 91.51 19.54 91.87 19.54L96.2 19.54 100.62 19.54C100.81 19.54 100.97 19.54 101 19.28 101.140566 18.0310758 101.103531 16.7685373 100.89 15.53 100.66578 13.4621341 99.1429043 11.7700503 97.11 11.33zM98.57 17.82L95.13 17.82 91.79 17.82C91.45 17.82 91.37 17.72 91.4 17.4 91.4341765 16.7514351 91.5347012 16.1080771 91.7 15.48 92.0560751 14.0252232 93.35237 12.9964177 94.85 12.98 95.3754003 12.9356399 95.9044737 12.9693389 96.42 13.08 97.5498957 13.3033183 98.4317393 14.1891164 98.65 15.32 98.8045531 16.0304531 98.8949169 16.7533632 98.92 17.48 98.93 17.75 98.83 17.82 98.57 17.82zM128.4 11.33C127.930534 11.2209268 127.451659 11.1573 126.97 11.14 124.02 11.01 121.69 12.14 120.87 15.39 120.267121 17.7284342 120.267121 20.1815658 120.87 22.52 121.179955 24.1531078 122.395473 25.4657121 124 25.9 124.565744 26.0668976 125.150458 26.1609895 125.74 26.18 127.445351 26.2039398 129.150104 26.1003176 130.84 25.87 131.9 25.74 131.9 25.73 131.84 24.63 131.84 23.99 131.84 24.02 131.15 24.08 129.376133 24.2621277 127.590973 24.3089297 125.81 24.22 124.473729 24.2157828 123.313327 23.2990238 123 22 122.827113 21.3456287 122.719916 20.6756468 122.68 20 122.68 19.63 122.78 19.57 123.12 19.57L127.45 19.57 131.87 19.57C132.04 19.57 132.23 19.64 132.26 19.33 132.412122 18.0341567 132.368297 16.7227959 132.13 15.44 131.885044 13.4171732 130.389655 11.7694384 128.4 11.33zM129.82 17.81L126.38 17.81 123.04 17.81C122.73 17.81 122.64 17.73 122.66 17.42 122.691072 16.7434163 122.798418 16.0725021 122.98 15.42 123.362632 13.9985087 124.647933 13.0079262 126.12 13 126.645896 12.9593618 127.174909 12.9964264 127.69 13.11 128.941907 13.371341 129.878075 14.416931 130 15.69 130.1 16.27 130.12 16.86 130.19 17.44 130.21 17.73 130.11 17.82 129.82 17.82L129.82 17.81zM173.14 11.33C172.670659 11.2202459 172.191717 11.1566103 171.71 11.14 168.78 11.03 166.46 12.14 165.63 15.42 165.101091 17.5513338 165.073707 19.7762945 165.55 21.92 166.18 24.92 167.77 26.15 170.8 26.19 172.412019 26.1913694 174.02231 26.0844621 175.62 25.87 176.62 25.74 176.62 25.72 176.62 24.65 176.62 23.99 176.62 24.02 175.95 24.08 174.176341 24.264771 172.391234 24.3149144 170.61 24.23 169.288283 24.2154191 168.14242 23.3118709 167.82 22.03 167.640881 21.3765942 167.530285 20.7063135 167.49 20.03 167.49 19.69 167.49 19.57 167.91 19.58L172.28 19.58 176.7 19.58C176.89 19.58 177.04 19.58 177.07 19.31 177.21165 18.0611209 177.174611 16.7984288 176.96 15.56 176.742949 13.4689063 175.198221 11.7583828 173.14 11.33zM174.58 17.82L171.14 17.82 167.84 17.82C167.48 17.82 167.39 17.71 167.42 17.38 167.458939 16.7767415 167.549266 16.177904 167.69 15.59 168.005805 14.0715932 169.339131 12.9799322 170.89 12.97 171.415896 12.9295074 171.944888 12.9665705 172.46 13.08 173.717172 13.3534701 174.647218 14.4175404 174.75 15.7 174.85 16.28 174.87 16.87 174.94 17.45 175 17.75 174.86 17.82 174.58 17.82zM116.87 15.57L116.87 13.71 116.87 5.57C116.87 5.19 116.76 5.09 116.4 5.11 115.997328 5.14267608 115.592672 5.14267608 115.19 5.11 114.76 5.11 114.65 5.21 114.65 5.64L114.65 25.12C114.65779 25.2732344 114.65779 25.4267656 114.65 25.58 114.65 25.83 114.74 25.9 114.97 25.89L116.36 25.89C116.82 25.89 116.85 25.81 116.85 25.41 116.86 22.14 116.87 18.86 116.87 15.57zM187.93 11.45C187.93 11.19 187.93 11.09 187.59 11.17 186.98764 11.3147975 186.393457 11.491717 185.81 11.7 184.687603 12.1357132 183.617588 12.6958778 182.62 13.37L182.62 11.73C182.62 11.49 182.53 11.4 182.3 11.41L180.86 11.41C180.55 11.41 180.46 11.5 180.47 11.81L180.47 15.21 180.47 25.44C180.47 25.79 180.54 25.94 180.93 25.91 181.362628 25.8750403 181.797372 25.8750403 182.23 25.91 182.61 25.91 182.69 25.8 182.69 25.44L182.69 15.72C182.651888 15.4416818 182.808776 15.1733216 183.07 15.07 184.498203 14.3204223 186.017521 13.7590814 187.59 13.4 187.86 13.34 187.98 13.23 187.96 12.94 187.91 12.45 187.92 11.95 187.93 11.45zM111.9 11.37C111.9 11.16 111.83 11.11 111.62 11.16 111.002116 11.2997706 110.394128 11.4801625 109.8 11.7 108.67207 12.1346219 107.598254 12.6983755 106.6 13.38L106.6 11.74C106.6 11.51 106.53 11.4 106.28 11.41L104.79 11.41C104.54 11.41 104.42 11.48 104.44 11.75 104.46 12.02 104.44 12.31 104.44 12.59L104.44 25.38C104.44 25.82 104.57 25.94 104.98 25.9 105.382691 25.867799 105.787309 25.867799 106.19 25.9 106.55 25.9 106.66 25.81 106.65 25.44L106.65 15.72C106.617428 15.4291986 106.786236 15.1533418 107.06 15.05 108.475235 14.3130783 109.976812 13.7554458 111.53 13.39 111.72 13.39 111.92 13.39 111.91 13.04 111.88 12.49 111.89 11.93 111.9 11.37zM179.33 37.18C179.33 37.02 179.27 36.95 179.11 36.97 178.11 37.07 177.2 36.82 176.24 36.89 175.556666 36.8532904 174.925634 37.2552213 174.67 37.89 174.352792 38.6195113 174.498076 39.4676547 175.04 40.05 175.22 40.23 175.24 40.34 175.1 40.54 174.842479 40.8106004 174.797457 41.2198926 174.99 41.54 175.24 41.88 175.07 42 174.85 42.22 174.545523 42.5044991 174.391987 42.9152566 174.435201 43.3297184 174.478415 43.7441802 174.713383 44.1144301 175.07 44.33 176.166846 44.8404853 177.433154 44.8404853 178.53 44.33 179.18 44.02 179.39 43.33 179.24 42.48 179.14 41.9 178.87 41.62 178.12 41.48 177.53 41.38 176.92 41.37 176.32 41.32 176.1 41.32 175.96 41.18 176.01 40.95 176.06 40.72 176.01 40.49 176.38 40.54 176.595864 40.5663722 176.814136 40.5663722 177.03 40.54 178.2 40.43 178.66 39.97 178.74 38.87 178.743771 38.5446286 178.671881 38.222832 178.53 37.93 179.39 37.87 179.41 37.85 179.33 37.18zM176.33 42.28L177.62 42.37C177.878908 42.3511899 178.109148 42.5336439 178.15 42.79 178.225282 43.0725742 178.085886 43.3682626 177.82 43.49 177.504177 43.6244046 177.163109 43.6892075 176.82 43.68 176.66 43.68 176.42 43.68 176.18 43.58 176.014588 43.5683137 175.863277 43.4826206 175.768183 43.3467718 175.673089 43.210923 175.644363 43.039421 175.69 42.88 175.68 42.52 175.86 42.24 176.29 42.28L176.33 42.28zM176.66 39.59C175.99 39.59 175.73 39.32 175.74 38.66 175.75 38 176.03 37.78 176.67 37.78 177.31 37.78 177.62 38.04 177.62 38.69 177.62 39.34 177.3 39.59 176.62 39.59L176.66 39.59zM200.55 37C199.502179 36.9169203 198.450478 36.8935492 197.4 36.93 196.750944 36.9460944 196.18592 37.3779343 196 38 195.76312 38.693273 195.924255 39.4605783 196.42 40 196.499502 40.0550615 196.55085 40.1422251 196.560473 40.2384527 196.570096 40.3346803 196.537024 40.4302859 196.47 40.5 196.228336 40.7794063 196.192109 41.1819338 196.38 41.5 196.58 41.8 196.49 41.91 196.27 42.12 195.930036 42.4040142 195.756639 42.8406024 195.8091 43.2804743 195.861562 43.7203462 196.132776 44.1039074 196.53 44.3 197.573244 44.7344446 198.746756 44.7344446 199.79 44.3 200.486447 43.9744178 200.833139 43.1825899 200.6 42.45 200.51 41.83 200.2 41.57 199.41 41.45 198.86 41.34 198.3 41.45 197.74 41.33 197.36 41.26 197.3 41.09 197.4 40.74 197.5 40.39 197.69 40.53 197.87 40.53 199.47 40.53 200.17 39.94 200.06 38.53 200.023102 38.3064661 199.959305 38.088215 199.87 37.88 200.047306 37.8359577 200.232694 37.8359577 200.41 37.88 200.58 37.88 200.71 37.88 200.67 37.66 200.63 37.44 200.89 37 200.55 37zM197.72 42.28C198.15 42.28 198.58 42.34 199.01 42.37 199.28 42.37 199.49 42.5 199.53 42.8 199.601035 43.0821758 199.462876 43.3752394 199.2 43.5 198.901958 43.6333656 198.575796 43.6917314 198.25 43.67 198.004309 43.6733291 197.759139 43.6464612 197.52 43.59 197.345794 43.5737845 197.188216 43.4797974 197.091166 43.3342226 196.994116 43.1886477 196.967966 43.0070424 197.02 42.84 197.09 42.48 197.28 42.23 197.72 42.27L197.72 42.28zM198.06 39.6C197.38 39.6 197.06 39.35 197.06 38.71 197.019868 38.4514258 197.104021 38.189067 197.287071 38.0020804 197.470121 37.8150939 197.73063 37.7253776 197.99 37.76 198.64 37.76 198.99 38.04 198.99 38.67 198.99 39.3 198.73 39.59 198.06 39.59L198.06 39.6zM79.4 36.85C79.0271544 36.855298 78.6607207 36.9477626 78.33 37.12 78.26 37.12 78.13 37.27 78.1 37.18 77.95 36.77 77.63 37.04 77.39 36.98 77.15 36.92 76.86 36.98 76.88 37.46L76.88 40.67 76.88 44.06C76.88 44.37 76.96 44.45 77.27 44.45 78.07 44.45 78.07 44.45 78.07 43.65L78.07 43C78.07 42.23 78.07 42.23 78.86 42.26 79.0931298 42.2737838 79.3268702 42.2737838 79.56 42.26 80.400728 42.260713 81.1172537 41.6501822 81.25 40.82 81.4367159 40.0038765 81.4367159 39.1561235 81.25 38.34 81.2047538 37.8960255 80.9836904 37.4886304 80.6361272 37.2087011 80.2885641 36.9287719 79.8434188 36.799599 79.4 36.85L79.4 36.85zM80.12 40.43C80 41.06 79.63 41.31 78.9 41.3 78.17 41.29 78.07 41.3 78.07 40.49L78.07 39.65 78.07 38.44C78.0448401 38.2540744 78.166693 38.0799988 78.35 38.04 79.43 37.62 80.01 37.95 80.18 39.04 80.2395311 39.5033597 80.2192376 39.9734936 80.12 40.43L80.12 40.43zM194.7 38.56L194.7 35.45C194.7 34.73 194.81 34.83 194.05 34.82L194 34.82C193.7 34.82 193.59 34.89 193.61 35.2L193.61 36.64C193.61 36.96 193.5 37.02 193.23 36.94 192.901675 36.8693497 192.564966 36.8457801 192.23 36.87 191.337562 36.8314041 190.554736 37.4602318 190.4 38.34 190.220782 39.0944928 190.20374 39.8784316 190.35 40.64 190.372315 41.1786417 190.640264 41.6773462 191.077099 41.9932711 191.513933 42.309196 192.071464 42.4074904 192.59 42.26 192.845459 42.2067543 193.096257 42.133187 193.34 42.04 193.42 42.04 193.55 41.92 193.59 42.04 193.78 42.42 194.11 42.16 194.37 42.22 194.63 42.28 194.77 42.16 194.76 41.85 194.69 40.72 194.7 39.64 194.7 38.56zM193.09 41.2C192.805265 41.2675515 192.511873 41.2911578 192.22 41.27 191.848789 41.2514663 191.540699 40.9766835 191.48 40.61 191.298442 39.9556946 191.298442 39.2643054 191.48 38.61 191.585971 38.0831102 192.089451 37.7342072 192.62 37.82 193.57 37.82 193.57 37.82 193.57 38.82L193.57 39.52C193.548147 39.8763319 193.548147 40.2336681 193.57 40.59 193.63 41 193.43 41.11 193.08 41.19L193.09 41.2zM67.93 38.44C67.82 37.39 67.35 36.92 66.4 36.86 65.9516332 36.8182047 65.5001165 36.894032 65.09 37.08 64.8 37.22 64.76 37.08 64.77 36.85L64.77 35.13C64.77 34.86 64.69 34.76 64.43 34.79 64.3071871 34.806023 64.1828129 34.806023 64.06 34.79 63.68 34.73 63.57 34.88 63.58 35.27L63.58 41.36C63.58 42.24 63.58 42.23 64.48 42.2 64.7 42.2 64.77 42.13 64.77 41.91L64.77 40.14 64.77 38.75C64.77 38.03 64.77 37.99 65.52 37.91L65.8 37.91C66.47 37.91 66.66 38.04 66.8 38.7 66.8851251 39.59403 66.9051779 40.4930636 66.86 41.39 66.86 42.28 66.86 42.27 67.77 42.21 67.97 42.21 68.04 42.14 68.04 41.94 68 40.77 68 39.6 67.93 38.44zM73.44 38.62C73.3971591 37.6963334 72.6720254 36.949746 71.75 36.88 70.37 36.74 69.58 37.16 69.23 38.23 68.9327593 39.1635782 68.9327593 40.1664218 69.23 41.1 69.3872776 41.7018519 69.8932905 42.1485665 70.51 42.23 71.3850323 42.3576767 72.2770063 42.303205 73.13 42.07 73.5 41.98 73.26 41.63 73.3 41.4 73.34 41.17 73.13 41.22 72.98 41.22L71.22 41.22C70.9624634 41.2424815 70.7073514 41.1555719 70.5171014 40.980542 70.3268514 40.805512 70.2190206 40.5585142 70.22 40.3 70.22 40.06 70.22 40 70.47 40.01L71.82 40.01 72.47 40.01C73.47 40.01 73.64 39.87 73.47 38.8 73.47 38.77 73.45 38.69 73.44 38.62zM72.34 39.05C72.34 39.2 72.19 39.18 72.08 39.18L71.24 39.18C71.0068517 39.1668599 70.7731483 39.1668599 70.54 39.18 70.16 39.18 70.14 39.05 70.21 38.75 70.2445927 38.3956011 70.4516518 38.0810289 70.7634886 37.9091189 71.0753254 37.7372089 71.4518596 37.7300565 71.77 37.89 72.1655806 38.1120449 72.390029 38.5491286 72.34 39L72.34 39.05zM155.2 36.88C153.83 36.76 153.03 37.17 152.69 38.26 152.404348 39.1817087 152.404348 40.1682913 152.69 41.09 152.847134 41.7128271 153.372145 42.1742005 154.01 42.25 154.872168 42.3664588 155.748827 42.3120924 156.59 42.09 156.99 41.99 156.73 41.66 156.77 41.44 156.81 41.22 156.63 41.23 156.47 41.24L154.66 41.24C154.399713 41.2596715 154.143141 41.16905 153.952948 40.9902684 153.762755 40.8114868 153.656451 40.5610052 153.66 40.3 153.66 40.08 153.66 40.03 153.9 40.04L155.25 40.04C155.636381 40.018966 156.023619 40.018966 156.41 40.04 156.8 40.04 156.91 39.94 156.93 39.57 156.966181 39.2376485 156.966181 38.9023515 156.93 38.57 156.856525 37.6535741 156.117894 36.9320214 155.2 36.88L155.2 36.88zM155.56 39.18L154.68 39.18C154.573781 39.1938212 154.466219 39.1938212 154.36 39.18 154.13 39.12 153.74 39.37 153.68 39.04 153.607107 38.6572029 153.763217 38.2669269 154.08 38.04 154.460972 37.779502 154.95633 37.7562821 155.36 37.98 155.76 38.18 155.79 38.59 155.81 38.98 155.82 39.13 155.75 39.19 155.57 39.18L155.56 39.18zM204.07 36.88C203.027806 36.5995977 201.945871 37.1711038 201.59 38.19 201.301572 39.0810867 201.280712 40.0371813 201.53 40.94 201.686331 41.7377824 202.397428 42.3049674 203.21 42.28 203.906249 42.3017914 204.602951 42.254898 205.29 42.14 205.72 42.08 205.65 41.82 205.65 41.55 205.65 41.28 205.43 41.26 205.21 41.26 204.624098 41.3023721 204.035902 41.3023721 203.45 41.26 202.959358 41.249896 202.561003 40.8602965 202.54 40.37 202.54 40.14 202.54 40.02 202.82 40.04L204.12 40.04 204.59 40.04C205.94 40.04 205.94 40.04 205.79 38.65 205.751502 37.7078913 205.010619 36.9454712 204.07 36.88L204.07 36.88zM204.68 38.95C204.68 39.14 204.59 39.19 204.42 39.19L203.08 39.19C202.45 39.19 202.42 39.19 202.59 38.54 202.651443 38.2514438 202.837168 38.0047445 203.097485 37.8659091 203.357801 37.7270737 203.666139 37.7102722 203.94 37.82 204.465073 37.9486493 204.792839 38.4713042 204.68 39L204.68 38.95zM187.58 36.88C187.069443 36.7318564 186.520913 36.7930759 186.055579 37.0501354 185.590245 37.3071948 185.2464 37.7389403 185.1 38.25 184.827043 39.146347 184.827043 40.103653 185.1 41 185.259967 41.7452319 185.917795 42.2781555 186.68 42.28 187.423341 42.3197046 188.168756 42.2693387 188.9 42.13 189.34 42.06 189.17 41.77 189.19 41.54 189.21 41.31 189 41.26 188.79 41.26 188.171031 41.3105744 187.548969 41.3105744 186.93 41.26 186.454999 41.1934584 186.09414 40.7990312 186.07 40.32 186.07 40.11 186.13 40.05 186.33 40.05L187.68 40.05 188.98 40.05C189.2 40.05 189.32 40.05 189.33 39.75 189.354509 39.3970917 189.354509 39.0429083 189.33 38.69 189.305686 37.7235616 188.54507 36.9368672 187.58 36.88zM187.89 39.19L187.1 39.19C186.883563 39.1759018 186.666437 39.1759018 186.45 39.19 186.02 39.25 185.99 39.03 186.07 38.7 186.08812 38.3959127 186.243859 38.1166668 186.493053 37.9414526 186.742246 37.7662384 187.057716 37.7141651 187.35 37.8 187.91 37.85 188.19 38.22 188.21 38.86 188.21 39.12 188.13 39.21 187.89 39.19zM88.32 36.85C87.7825514 36.7706883 87.2359629 36.9134258 86.8059163 37.2453916 86.3758697 37.5773574 86.0993718 38.0699849 86.04 38.61 85.8871963 39.3585205 85.9111651 40.1323709 86.11 40.87 86.2477775 41.5596612 86.789348 42.0972785 87.48 42.23 88.0268197 42.3500705 88.5931803 42.3500705 89.14 42.23 89.7292901 42.1092473 90.205182 41.6755716 90.38 41.1 90.631392 40.3813404 90.6967559 39.6107347 90.57 38.86 90.577436 38.2815328 90.3340259 37.7281846 89.9025919 37.3427702 89.4711579 36.9573558 88.8939715 36.7776378 88.32 36.85zM89.37 40.47C89.297428 41.0163144 88.7965297 41.4009328 88.25 41.33 87.7011631 41.358425 87.2322388 40.9386261 87.2 40.39 87.0949817 39.8248372 87.0949817 39.2451628 87.2 38.68 87.2702496 38.1829837 87.698068 37.8150599 88.2 37.82 88.72988 37.7470142 89.2233752 38.103917 89.32 38.63 89.3918821 38.9582302 89.4221202 39.2942096 89.41 39.63 89.4256355 39.9106303 89.412231 40.1921252 89.37 40.47zM97.59 36.85C97.0619506 36.7821463 96.5286398 36.9276297 96.1081936 37.2542263 95.6877475 37.5808229 95.4148691 38.0615756 95.35 38.59 95.1933088 39.3521134 95.220735 40.1406155 95.43 40.89 95.580297 41.576337 96.1286197 42.1049359 96.82 42.23 97.338195 42.3337126 97.871805 42.3337126 98.39 42.23 99.0623987 42.1074026 99.5972089 41.5961869 99.75 40.93 99.9465961 40.2443731 99.9875939 39.5234955 99.87 38.82 99.8670261 38.2425187 99.6145826 37.6945098 99.1776118 37.3169518 98.7406411 36.9393937 98.1618005 36.7691439 97.59 36.85L97.59 36.85zM98.68 40.47C98.55221 40.9782647 98.0863371 41.3278973 97.5626096 41.3085894 97.0388821 41.2892814 96.6000182 40.9062945 96.51 40.39 96.4052094 39.8248163 96.4052094 39.2451837 96.51 38.68 96.5756679 38.179008 97.0047407 37.8057146 97.51 37.81 98.03988 37.7370142 98.5333752 38.093917 98.63 38.62 98.7029617 38.9480631 98.7332123 39.2841812 98.72 39.62 98.7357562 39.9039558 98.7223528 40.1887788 98.68 40.47L98.68 40.47zM138.68 36.93C138.162561 36.8189188 137.627439 36.8189188 137.11 36.93 136.471159 37.0557259 135.954935 37.5257216 135.77 38.15 135.633645 38.6145388 135.56296 39.0958718 135.56 39.58 135.56 39.83 135.56 40.09 135.61 40.35 135.611753 41.2526771 136.238954 42.0335638 137.12 42.23 137.637503 42.340477 138.172497 42.340477 138.69 42.23 139.326519 42.1053541 139.835545 41.6274136 140 41 140.292708 40.0793728 140.292708 39.0906272 140 38.17 139.830857 37.5397282 139.319603 37.0594597 138.68 36.93zM138.97 40.5C138.930543 40.7627206 138.788166 40.9989425 138.57429 41.1565359 138.360413 41.3141293 138.092617 41.3801398 137.83 41.34 137.307506 41.3416745 136.871797 40.9408219 136.83 40.42 136.731722 39.8710305 136.731722 39.3089695 136.83 38.76 136.914453 38.2420052 137.35016 37.8539502 137.874437 37.82979 138.398715 37.8056297 138.868265 38.1519677 139 38.66 139.062096 38.9625497 139.088941 39.2712732 139.08 39.58 139.087567 39.8853743 139.060732 40.1906299 139 40.49L138.97 40.5zM108.53 36.93C108.012626 36.8183078 107.477374 36.8183078 106.96 36.93 106.323694 37.0540023 105.80807 37.5196031 105.62 38.14 105.482719 38.6077555 105.412025 39.0925196 105.41 39.58 105.41 39.84 105.41 40.12 105.47 40.4 105.481854 41.2873161 106.103274 42.0495912 106.97 42.24 107.487374 42.3516922 108.022626 42.3516922 108.54 42.24 109.166874 42.1331306 109.67865 41.6795116 109.86 41.07 110.176401 40.1223797 110.176401 39.0976203 109.86 38.15 109.686955 37.5221461 109.170423 37.0483353 108.53 36.93L108.53 36.93zM108.83 40.46C108.715948 40.9806356 108.247953 41.3467167 107.715173 41.332053 107.182393 41.3173894 106.735242 40.9261208 106.65 40.4 106.545436 39.8347954 106.545436 39.2552046 106.65 38.69 106.751552 38.1848895 107.187324 37.8160566 107.702271 37.7993685 108.217219 37.7826804 108.675957 38.1225245 108.81 38.62 108.883523 38.9479756 108.91378 39.2841671 108.9 39.62 108.901531 39.9019726 108.87473 40.1833857 108.82 40.46L108.83 40.46zM122.51 36.94C121.963769 36.8146195 121.396231 36.8146195 120.85 36.94 120.248378 37.0757415 119.764517 37.5215033 119.58 38.11 119.431572 38.5857854 119.357367 39.0816067 119.36 39.58 119.36 39.83 119.36 40.1 119.41 40.36 119.415086 41.2450992 120.027605 42.0107481 120.89 42.21 121.435906 42.3382181 122.004094 42.3382181 122.55 42.21 123.13929 42.0892473 123.615182 41.6555716 123.79 41.08 124.12915 40.1087557 124.12915 39.0512443 123.79 38.08 123.60576 37.4933203 123.114012 37.055357 122.51 36.94L122.51 36.94zM122.78 40.46C122.665948 40.9806356 122.197953 41.3467167 121.665173 41.332053 121.132393 41.3173894 120.685242 40.9261208 120.6 40.4 120.495436 39.8347954 120.495436 39.2552046 120.6 38.69 120.701552 38.1848895 121.137324 37.8160566 121.652271 37.7993685 122.167219 37.7826804 122.625957 38.1225245 122.76 38.62 122.833409 38.9479934 122.863665 39.2841699 122.85 39.62 122.854826 39.9016367 122.831375 40.1830468 122.78 40.46L122.78 40.46zM173.29 38.66C173.19 37.25 172.46 36.66 171.08 36.89 170.827192 36.9539095 170.57977 37.0374978 170.34 37.14 170.273745 37.150481 170.206255 37.150481 170.14 37.14 169.94 36.67 169.55 37.01 169.26 36.93 168.97 36.85 168.92 36.99 168.93 37.25L168.93 39.53 168.93 41.34C168.93 42.15 168.93 42.13 169.72 42.15 170.06 42.15 170.12 42.04 170.12 41.73L170.12 38.43C170.12 38.29 170.05 38.11 170.26 38.04 171.35 37.67 172.18 37.65 172.18 39.1L172.18 41.33C172.18 42.07 172.18 42.15 173 42.14 173.25 42.14 173.35 42.08 173.35 41.81 173.32 40.8 173.37 39.73 173.29 38.66zM151.42 38.67C151.32 37.25 150.61 36.67 149.22 36.88 148.961758 36.9240469 148.712045 37.0084097 148.48 37.13 148.417277 37.1613463 148.34962 37.1816436 148.28 37.19 148.07 36.73 147.66 37.05 147.36 36.97 147.06 36.89 147.05 37.05 147.06 37.28L147.06 39.56 147.06 41.37C147.06 42.2 147.06 42.19 147.89 42.19 148.17 42.19 148.26 42.13 148.25 41.83L148.25 38.48C148.25 38.34 148.17 38.16 148.38 38.08 148.838122 37.8428777 149.374144 37.80666 149.86 37.98 150.31 38.19 150.29 38.67 150.3 39.08L150.3 41.4C150.3 42.17 150.3 42.18 151.11 42.18 151.4 42.18 151.48 42.1 151.47 41.82 151.45 40.78 151.5 39.73 151.42 38.67zM145.75 38.65C145.807112 38.0701045 145.561457 37.5016918 145.099972 37.1459216 144.638488 36.7901515 144.026277 36.6972142 143.48 36.9 143.258079 36.9609198 143.040848 37.0377863 142.83 37.13L142.61 37.21C142.43 36.74 142.04 37.05 141.75 36.97 141.46 36.89 141.37 37.07 141.38 37.35L141.38 39.53 141.38 41.39C141.38 42.19 141.38 42.17 142.19 42.18 142.5 42.18 142.58 42.1 142.57 41.79L142.57 38.49C142.57 38.35 142.49 38.16 142.68 38.08 143.136304 37.8397691 143.670954 37.7964191 144.16 37.96 144.61 38.15 144.6 38.61 144.61 38.96L144.61 41.33C144.61 42.12 144.61 42.14 145.45 42.13 145.72 42.13 145.79 42.04 145.78 41.78 145.77 40.78 145.82 39.71 145.75 38.65zM62.31 35L58.08 35C57.61 35 57.47 35.13 57.54 35.57 57.5500914 35.6329313 57.5500914 35.6970687 57.54 35.76 57.54 36.03 57.61 36.11 57.88 36.1L59.23 36.1C59.52 36.1 59.59 36.17 59.59 36.46L59.59 39.16 59.59 41.44C59.59 42.2 59.59 42.18 60.37 42.21 60.73 42.21 60.8 42.11 60.79 41.77L60.79 36.47C60.79 36.19 60.84 36.08 61.14 36.1 61.44 36.12 61.92 36.1 62.3 36.1 62.68 36.1 62.85 35.98 62.83 35.56 62.81 35.14 62.79 35 62.31 35zM213.11 39.13C212.72 39.04 212.32 38.97 211.93 38.88 211.687789 38.8538152 211.507996 38.6433267 211.52 38.4 211.52 38.09 211.73 37.97 211.99 37.92 212.142823 37.902308 212.297177 37.902308 212.45 37.92L213.89 38.02C214.05 38.02 214.29 38.11 214.24 37.82 214.19 37.53 214.53 37.17 214.01 37.07 213.328153 36.9156902 212.627425 36.861788 211.93 36.91 211.518904 36.9046613 211.122529 37.0628661 210.828089 37.3498041 210.53365 37.6367421 210.36527 38.0289035 210.36 38.44 210.31 39.34 210.68 39.76 211.73 39.98 212.14 40.07 212.55 40.15 212.95 40.25 213.155676 40.2937989 213.299502 40.4799272 213.29 40.69 213.312672 40.9132126 213.180847 41.1233089 212.97 41.2 212.793422 41.2613973 212.606752 41.2885492 212.42 41.28 211.877729 41.2949905 211.335267 41.2581566 210.8 41.17 210.51 41.17 210.43 41.28 210.46 41.51 210.49 41.74 210.22 42.05 210.69 42.13 211.206446 42.2383066 211.732341 42.2952507 212.26 42.3L212.86 42.3C213.320579 42.3228043 213.766331 42.1338966 214.070272 41.7870924 214.374213 41.4402883 214.50302 40.9736085 214.42 40.52 214.39 39.7 214 39.34 213.11 39.13zM118.73 34.75C118.39 34.75 118.05 34.67 117.73 34.67 117.409263 34.6308147 117.086381 34.7237419 116.835544 34.9274291 116.584707 35.1311162 116.427484 35.4280493 116.4 35.75 116.345333 36.039935 116.328526 36.3357388 116.35 36.63 116.35 36.87 116.35 37.02 116.03 36.97 115.71 36.92 115.68 37.14 115.72 37.36 115.76 37.58 115.5 37.99 116.02 37.96 116.3 37.96 116.35 38.05 116.35 38.3L116.35 40.06 116.35 41.45C116.35 42.19 116.35 42.17 117.11 42.19 117.41 42.19 117.5 42.11 117.49 41.81L117.49 38.88C117.49 37.95 117.49 37.94 118.39 37.97 118.77 37.97 118.87 37.88 118.89 37.5 118.91 37.12 118.76 36.9 118.33 36.97 118.130221 36.983289 117.929779 36.983289 117.73 36.97 117.6 36.97 117.51 36.97 117.49 36.78 117.39 36.02 117.65 35.67 118.41 35.78 118.91 35.78 119.05 35.66 118.97 35.21 118.91 35 119 34.77 118.73 34.75zM94.1 41.26L93.82 41.26C93.4 41.31 93.21 41.11 93.2 40.71L93.2 38.71C93.2 38.04 93.2 37.96 93.95 37.96 94.7 37.96 94.73 37.96 94.67 37.2 94.67 37.02 94.6 36.97 94.43 36.96 94.03 36.96 93.49 37.14 93.28 36.88 93.07 36.62 93.22 36.11 93.21 35.71 93.21 35.6 93.21 35.48 93.05 35.44 92.29 35.28 92.05 35.44 92.05 36.2 92.0406862 36.3531919 92.0406862 36.5068081 92.05 36.66 92.05 36.91 91.97 37 91.74 36.96 91.36 36.89 91.34 37.12 91.38 37.39 91.42 37.66 91.21 38.02 91.72 37.95 92.05 37.95 92.06 38.08 92.06 38.33L92.06 40.79C92.06 41.88 92.53 42.3 93.61 42.31L94.44 42.2C94.52 42.2 94.62 42.2 94.66 42.08 94.758326 41.8959832 94.7462002 41.6725625 94.6285358 41.5002682 94.5108715 41.327974 94.307181 41.2353779 94.1 41.26L94.1 41.26zM165.16 38L165.39 38C165.469535 37.9965531 165.536026 37.9383734 165.55 37.86 165.73 37.33 165.55 37.02 164.99 37.01 164.09 37.01 164.06 37.01 164.1 36.09 164.1 35.62 164.02 35.47 163.51 35.47 163 35.47 162.87 35.59 162.95 36.05L162.95 36.7C162.95 36.92 162.88 37.05 162.64 37 162.4 36.95 162.22 37.09 162.27 37.38 162.32 37.67 162.08 38.07 162.65 37.99 162.92 37.99 162.95 38.09 162.94 38.31L162.94 39.61 162.94 39.61 162.94 40.82 162.94 40.96C162.99 41.75 163.31 42.19 163.94 42.29 164.370864 42.3554207 164.809136 42.3554207 165.24 42.29 165.47 42.29 165.57 42.17 165.56 41.91 165.56 41.3 165.56 41.3 164.96 41.31L164.63 41.31C164.3 41.31 164.16 41.18 164.11 40.86 164.070993 40.2739817 164.070993 39.6860183 164.11 39.1 164.11 38.75 163.95 38.28 164.19 38.1 164.43 37.92 164.82 38 165.16 38zM134.52 37C133.9459 36.8728112 133.355508 36.8357009 132.77 36.89 132.03616 36.9125126 131.403093 37.4116613 131.21 38.12 131.072579 38.5971629 131.018453 39.0944461 131.05 39.59L131.05 40.29C131.14 41.47 131.69 42.17 132.62 42.29 133.127177 42.3658819 133.642823 42.3658819 134.15 42.29 134.81 42.17 134.79 42.17 134.77 41.53 134.77 41.3 134.7 41.24 134.47 41.27 134.054948 41.3149781 133.637318 41.3316833 133.22 41.32 132.976254 41.3478839 132.731689 41.2750536 132.542907 41.118365 132.354126 40.9616764 132.237492 40.7347116 132.22 40.49 132.119564 39.9244243 132.119564 39.3455757 132.22 38.78 132.267363 38.3081541 132.676375 37.9563158 133.15 37.98L134.36 37.98C134.51 37.98 134.76 38.1 134.7 37.8 134.64 37.5 135 37.09 134.52 37zM161.41 37C160.835787 36.8736101 160.24552 36.8365076 159.66 36.89 158.923342 36.9137986 158.289393 37.4177063 158.1 38.13 157.962776 38.6072015 157.908653 39.1044506 157.94 39.6L157.94 40.3C158.03 41.48 158.58 42.18 159.52 42.3 160.027188 42.3757338 160.542812 42.3757338 161.05 42.3 161.7 42.18 161.69 42.18 161.66 41.54 161.66 41.31 161.58 41.26 161.36 41.28 160.958167 41.3227411 160.55399 41.3394426 160.15 41.33 159.899276 41.3520842 159.650451 41.2704815 159.4615 41.1042046 159.272549 40.9379278 159.159973 40.7014976 159.15 40.45 159.065368 39.913316 159.065368 39.366684 159.15 38.83 159.18216 38.340669 159.600146 37.9671494 160.09 37.99L161.3 37.99C161.46 37.99 161.7 38.11 161.64 37.81 161.58 37.51 161.92 37.09 161.41 37zM104.27 37C103.695809 36.8734514 103.105518 36.8363474 102.52 36.89 101.783342 36.9137986 101.149393 37.4177063 100.96 38.13 100.822776 38.6072015 100.768653 39.1044506 100.8 39.6L100.8 40.3C100.89 41.48 101.44 42.18 102.38 42.3 102.887188 42.3757338 103.402812 42.3757338 103.91 42.3 104.57 42.18 104.55 42.18 104.52 41.54 104.52 41.31 104.45 41.26 104.22 41.28 103.818179 41.3229093 103.413991 41.3396113 103.01 41.33 102.759276 41.3520842 102.510451 41.2704815 102.3215 41.1042046 102.132549 40.9379278 102.019973 40.7014976 102.01 40.45 101.925368 39.913316 101.925368 39.366684 102.01 38.83 102.036925 38.3366911 102.456478 37.9573083 102.95 37.98L104.16 37.98C104.31 37.98 104.56 38.1 104.5 37.8 104.44 37.5 104.78 37.09 104.27 37zM85 36.92C84.5166904 37.0786065 84.0509205 37.2863599 83.61 37.54 83.74 36.92 83.38 36.92 82.98 36.97L82.89 36.97C82.54 36.91 82.42 37.03 82.43 37.41L82.43 41.41C82.43 42.21 82.43 42.19 83.24 42.2 83.55 42.2 83.63 42.11 83.62 41.81L83.62 39.53C83.62 38.46 83.62 38.46 84.62 38.18 85.38 37.97 85.37 37.97 85.37 37.18 85.43 36.86 85.31 36.84 85 36.92zM128.14 37.23C128.19 36.84 128.02 36.84 127.71 36.93 127.243327 37.0901561 126.791597 37.290925 126.36 37.53 126.49 36.96 126.18 36.91 125.78 36.96L125.59 36.96C125.27 36.91 125.17 37.03 125.18 37.36L125.18 41.36C125.18 42.15 125.18 42.13 125.99 42.15 126.31 42.15 126.37 42.05 126.37 41.76L126.37 39.67C126.37 38.41 126.37 38.38 127.58 38.1 128.04 38 128.22 37.82 128.14 37.37 128.134627 37.323488 128.134627 37.276512 128.14 37.23zM209.83 37.17C209.83 36.92 209.76 36.85 209.5 36.92 209.004395 37.088353 208.522891 37.2956669 208.06 37.54 208.15 37.01 207.89 36.91 207.48 36.97L207.29 36.97C206.95 36.91 206.88 37.08 206.89 37.39L206.89 41.39C206.89 42.21 206.89 42.2 207.7 42.2 207.99 42.2 208.07 42.1 208.06 41.83L208.06 39.69C208.06 38.45 208.06 38.42 209.26 38.14 209.71 38.04 209.91 37.87 209.82 37.41 209.812714 37.3299096 209.816076 37.2492067 209.83 37.17zM183.64 38.56L183.64 35.49C183.64 34.72 183.77 34.84 182.94 34.81 182.6 34.81 182.49 34.89 182.5 35.24L182.5 41.51C182.5 42.19 182.5 42.16 183.19 42.19 183.58 42.19 183.64 42.05 183.64 41.71 183.63 40.66 183.64 39.61 183.64 38.56zM112 34.79C111.877307 34.8077792 111.752693 34.8077792 111.63 34.79 111.29 34.74 111.19 34.85 111.19 35.21L111.19 41.39C111.19 42.2 111.19 42.18 111.98 42.19 112.3 42.19 112.35 42.08 112.35 41.8L112.35 38.5 112.35 35.15C112.38 34.87 112.31 34.75 112 34.79zM167.6 37.81C167.6 36.93 167.6 36.94 166.72 36.96 166.47 36.96 166.41 37.05 166.42 37.28L166.42 39.55 166.42 41.41C166.42 42.19 166.42 42.17 167.19 42.19 167.55 42.19 167.62 42.08 167.61 41.75 167.59 40.44 167.6 39.13 167.6 37.81zM216.42 40.68C215.52 40.68 215.52 40.68 215.52 41.56 215.524678 41.6065494 215.524678 41.6534506 215.52 41.7 215.43 42.13 215.63 42.21 216.02 42.19 216.75 42.19 216.75 42.19 216.75 41.47 216.740407 41.3168167 216.740407 41.1631833 216.75 41.01 216.79 40.73 216.67 40.68 216.42 40.68zM167 36.11C167.7 36.11 167.59 36.2 167.6 35.49 167.61 34.78 167.69 34.89 167.04 34.86 166.61 34.86 166.35 34.86 166.4 35.43 166.47 36.2 166.31 36.11 167 36.11zM23.49 38.75C34.066253 38.75 42.64 30.176253 42.64 19.6 42.64 9.02374704 34.066253.45 23.49.45 12.913747.45 4.34 9.02374704 4.34 19.6 4.34 30.176253 12.913747 38.75 23.49 38.75zM23.49 37.75C13.4660318 37.75 5.34 29.6239682 5.34 19.6 5.34 9.57603179 13.4660318 1.45 23.49 1.45 33.5139682 1.45 41.64 9.57603179 41.64 19.6 41.64 29.6239682 33.5139682 37.75 23.49 37.75z"/>
    <path d="M26.64,41.34 C37.216253,41.34 45.79,32.766253 45.79,22.19 C45.79,11.613747 37.216253,3.04 26.64,3.04 C16.063747,3.04 7.49,11.613747 7.49,22.19 C7.49,32.766253 16.063747,41.34 26.64,41.34 Z M26.64,40.34 C16.6160318,40.34 8.49,32.2139682 8.49,22.19 C8.49,12.1660318 16.6160318,4.04 26.64,4.04 C36.6639682,4.04 44.79,12.1660318 44.79,22.19 C44.79,32.2139682 36.6639682,40.34 26.64,40.34 Z"/>
    <path d="M25.84,45.54 C36.416253,45.54 44.99,36.966253 44.99,26.39 C44.99,15.813747 36.416253,7.24 25.84,7.24 C15.263747,7.24 6.69,15.813747 6.69,26.39 C6.69,36.966253 15.263747,45.54 25.84,45.54 Z M25.84,44.54 C15.8160318,44.54 7.69,36.4139682 7.69,26.39 C7.69,16.3660318 15.8160318,8.24 25.84,8.24 C35.8639682,8.24 43.99,16.3660318 43.99,26.39 C43.99,36.4139682 35.8639682,44.54 25.84,44.54 Z"/>
    <path d="M21.39,45.87 C31.966253,45.87 40.54,37.296253 40.54,26.72 C40.54,16.143747 31.966253,7.57 21.39,7.57 C10.813747,7.57 2.24,16.143747 2.24,26.72 C2.24,37.296253 10.813747,45.87 21.39,45.87 Z M21.39,44.87 C11.3660318,44.87 3.24,36.7439682 3.24,26.72 C3.24,16.6960318 11.3660318,8.57 21.39,8.57 C31.4139682,8.57 39.54,16.6960318 39.54,26.72 C39.54,36.7439682 31.4139682,44.87 21.39,44.87 Z"/>
    <path d="M19.85,41.58 C30.426253,41.58 39,33.006253 39,22.43 C39,11.853747 30.426253,3.28 19.85,3.28 C9.27374704,3.28 0.7,11.853747 0.7,22.43 C0.7,33.006253 9.27374704,41.58 19.85,41.58 Z M19.85,40.58 C9.82603179,40.58 1.7,32.4539682 1.7,22.43 C1.7,12.4060318 9.82603179,4.28 19.85,4.28 C29.8739682,4.28 38,12.4060318 38,22.43 C38,32.4539682 29.8739682,40.58 19.85,40.58 Z"/>
  </g>
</svg>
