<svg xmlns="http://www.w3.org/2000/svg" width="173" height="46" viewBox="0 0 173 46">
  <g>
    <path d="M116.43 43.94C114.84 41.77 113.26 39.59 111.64 37.44 111.12 36.76 111.19 36.52 112.02 36.22 114.23 35.42 115.78 33.96 115.94 31.46 116.13 28.46 114.35 26.33 111.08 25.53 106.74 24.48 102.36 24.77 97.98 25.28 97.25 25.36 97.03 25.72 97.04 26.43L97.04 35.13 97.04 43.83C97.04 44.56 97.24 44.9 98.04 44.83 99.04 44.78 100.15 44.78 101.19 44.83 101.98 44.83 102.19 44.49 102.19 43.83L102.19 40.13C102.19 39.2 101.79 38 102.36 37.41 102.93 36.82 104.15 37.34 105.08 37.22 105.580098 37.1442637 106.073428 37.3929341 106.31 37.84 107.88 40.03 109.54 42.15 111.12 44.33 111.311676 44.6964454 111.709143 44.9071028 112.12 44.86L116.04 44.86C116.29 44.86 116.56 44.86 116.73 44.65 116.9 44.44 116.59 44.15 116.43 43.94zM110.78 31.74C110.472379 33.0361657 109.33167 33.963505 108 34 106.45 34.23 104.9 34.13 103.35 34.2 102.35 34.2 102.06 33.87 102.16 32.94 102.193168 32.3237793 102.193168 31.7062207 102.16 31.09L102.16 28.7C102.16 28.34 102.16 28.06 102.68 28.07 104.59 28.07 106.54 27.81 108.4 28.34 110.26 28.87 111 29.49 110.78 31.73L110.78 31.74zM47.41 37.69C46.76 36.86 46.66 36.59 47.78 36.12 50.94 34.81 52.11 32.54 51.29 29.45 50.66 27.08 48.7 26.1 46.55 25.54 42.22 24.41 37.83 24.85 33.46 25.3 32.78 25.37 32.61 25.76 32.61 26.41L32.61 35.11 32.61 43.81C32.61 44.61 32.86 44.92 33.68 44.88 34.6793247 44.8280259 35.6806753 44.8280259 36.68 44.88 37.5 44.88 37.78 44.55 37.77 43.8L37.77 40.21C37.77 39.21 37.34 37.99 37.97 37.4 38.6 36.81 39.84 37.34 40.81 37.24 41.2193913 37.1704578 41.6259071 37.3777808 41.81 37.75 42.57 38.88 43.41 39.96 44.22 41.06 45.03 42.16 45.81 43.79 46.99 44.59 48.17 45.39 49.94 44.75 51.44 44.87 51.5131101 44.8780912 51.5868899 44.8780912 51.66 44.87 51.89 44.87 52.19 44.99 52.33 44.68 52.47 44.37 52.22 44.22 52.07 44.02 50.52 41.9 49 39.75 47.41 37.69zM46.35 31.49C46.2323081 32.8264825 45.1673779 33.8829609 43.83 33.99 42.075989 34.2119418 40.3063825 34.285536 38.54 34.21 37.96 34.21 37.79 33.96 37.8 33.42L37.8 28.75C37.8 28.2 38 28.07 38.49 28.1L40.55 28.1C41.7726633 28.0077696 43.0021825 28.1158592 44.19 28.42 45.92 29 46.46 29.73 46.35 31.49zM138.63 25.07C137.835422 25.1515823 137.034578 25.1515823 136.24 25.07 135.16 24.96 134.9 25.4 134.91 26.43L134.91 40.9C134.91 41.26 135.2 41.85 134.42 41.84 132.65 41.84 130.9 42.18 129.12 42.05 126.47 41.86 125.49 41.05 124.96 38.5 124.908735 38.1692989 124.891979 37.8341654 124.91 37.5L124.91 26.19C124.91 25.36 124.7 24.99 123.81 25.04 122.867695 25.1022971 121.922305 25.1022971 120.98 25.04 120.1 24.98 119.86 25.32 119.87 26.17 119.87 29.98 119.93 33.79 119.87 37.59 119.81 42.16 122.45 44.14 126.2 44.79 130.2 45.49 134.27 44.91 138.29 44.56 139.55 44.45 139.95 43.89 139.92 42.61 139.85 39.93 139.92 37.24 139.92 34.61L139.92 26.45C140 25.42 139.72 25 138.63 25.07zM71.47 25.28C68.9345597 24.9092602 66.3707747 24.7686871 63.81 24.86 62.337772 24.8523956 60.8734119 25.0750863 59.47 25.52 57.3633983 26.0746244 55.9565545 28.0585269 56.13 30.23L56.13 35.02 56.13 35.02 56.13 39.91C56.0677305 41.5346892 56.8905891 43.065589 58.28 43.91 59.5947154 44.6643738 61.0842311 45.0608884 62.6 45.06 65.3806089 45.2074303 68.1683414 45.1472634 70.94 44.88 72.19 44.76 72.24 44.62 72.24 42.88 72.24 41.82 71.57 41.88 70.86 41.88L63.25 41.88C62.7788055 41.9422125 62.3022999 41.813399 61.9266285 41.5222536 61.550957 41.2311082 61.3073238 40.8018142 61.25 40.33 61.1418558 39.2968806 61.0884479 38.258763 61.09 37.22 60.99 36.37 61.37 36.22 62.15 36.22L69.98 36.22C71.77 36.22 71.72 36.22 71.78 34.48 71.78 33.48 71.38 33.18 70.45 33.2L63.6 33.2C61.05 33.2 61.05 33.2 61.1 30.68 61.1 28.82 61.78 28.14 63.62 28.13L71.23 28.13C71.81 28.13 72.33 28.02 72.17 27.32 72.01 26.62 72.88 25.53 71.47 25.28zM92.23 25.31C88.69 24.79 85.14 24.47 81.65 25.54 78.9895264 26.1543793 76.9194655 28.2438957 76.33 30.91 76.1840163 32.1510921 76.1205435 33.4005032 76.14 34.65L76.14 37.4C76.1331738 40.5230321 78.1595709 43.2870377 81.14 44.22 84.59 45.46 88.14 45.14 91.61 44.79 93.12 44.64 93.21 44.33 93.15 42.67 93.15 41.86 92.7 41.54 91.97 41.67 89.8141955 41.8940528 87.6438538 41.9442148 85.48 41.82 83.6650722 41.8070032 82.0691388 40.6161291 81.54 38.88 80.9623333 36.3120864 80.9623333 33.6479136 81.54 31.08 81.97 29.24 83.62 28.16 85.78 28.08 87.8387566 27.9890501 89.9014554 28.0559123 91.95 28.28 92.59 28.36 93.16 28.13 93.12 27.37 93.08 26.61 93.58 25.51 92.23 25.31zM173 26.84C172.93 25.11 173 25.09 171.72 25.09L155.72 25.09C153.33 25.09 153.72 24.85 153.62 27.18 153.62 27.98 153.9 28.18 154.62 28.13L159.62 28.13C160.41 28.13 160.62 28.29 160.62 29.13L160.62 43.39C160.62 44.81 160.7 44.9 162.08 44.9 162.91 44.9 163.75 44.84 164.58 44.9 165.41 44.96 165.84 44.64 165.83 43.67L165.83 29.52C165.83 28.45 166.04 28.02 167.19 28.1 168.71 28.21 170.19 28.1 171.76 28.1 172.76 28.19 173.05 27.84 173 26.84zM150.16 35.08L150.16 28C150.16 25.06 150.16 25.07 147.16 25.06 144.91 25.06 144.97 24.92 144.98 27.25L144.98 43.54C144.98 44.54 145.32 44.93 146.32 44.86 147.185437 44.7947069 148.054563 44.7947069 148.92 44.86 149.86 44.94 150.2 44.62 150.18 43.65 150.13 40.8 150.16 37.94 150.16 35.08z"/>
    <path d="M19.23,10.87 L19.23,10.87 L19.64,10.63 C21.1641917,9.70857847 22.870045,9.12858836 24.64,8.93 C25.41,8.85 26.2,8.93 26.96,8.86 L27.36,8.93 C27.4549897,8.95546397 27.5550103,8.95546397 27.65,8.93 L27.76,8.93 L27.85,8.93 C28.0175246,9.01197746 28.1960473,9.06923945 28.38,9.1 C30.0153258,9.40781634 31.5223812,10.1944088 32.71,11.36 C32.8177699,11.4901865 32.9548454,11.5929931 33.11,11.66 L33.11,11.66 L33.21,11.82 C33.2434701,11.8689345 33.2838952,11.9127283 33.33,11.95 C33.3934354,12.1308768 33.4808843,12.3024112 33.59,12.46 C34.4820969,13.8668286 35.0333972,15.4625178 35.2,17.12 C35.41,17.66 35.2,18.29 35.58,18.79 C35.66,19.62 35.64,20.49 36.67,20.79 C37.7213261,21.2610185 38.9583126,20.9558952 39.67,20.05 C39.7685587,18.8247557 39.7148153,17.5920182 39.51,16.38 C39.4182178,12.7509975 38.1671722,9.24666828 35.94,6.38 C34.5317353,4.46837351 32.585508,3.02001831 30.35,2.22 L30.35,2.22 C28.5119769,1.3810397 26.5201941,0.931611791 24.5,0.9 L24.5,0.9 C23.1780396,0.653716809 21.8219604,0.653716809 20.5,0.9 L20.08,0.9 L20.08,0.9 C18.8195916,0.914726441 17.5699595,1.13425641 16.38,1.55 C15.4657623,1.6924982 14.5808413,1.98296846 13.76,2.41 C12.6644589,2.71590612 11.6433817,3.24346269 10.76,3.96 C9.84152343,4.33489221 9.01322137,4.90072818 8.33,5.62 C7.74041693,5.97670519 7.23269984,6.45375481 6.84,7.02 C6.38230639,7.34850502 6.00038565,7.77134585 5.72,8.26 C3.73183272,10.5710365 2.37766615,13.3586211 1.79,16.35 L1.79,16.35 C1.39448397,17.4720958 1.18177464,18.650438 1.16,19.84 L1.16,19.84 C0.896463195,21.4222388 0.822608102,23.0302656 0.94,24.63 L0.94,24.63 L0.94,27.24 L1,27.14 L1,27.14 C1,27.14 1,27.2 0.94,27.23 L0.94,38.99 C0.815805451,40.3765467 0.85608539,41.7729179 1.06,43.15 C1.06306046,43.2345686 1.08711652,43.3170465 1.13,43.39 C1.27085461,43.8482031 1.58229331,44.2348166 2,44.47 L2,44.47 C4.72870914,46.1044665 8.0756988,46.331318 11,45.08 L11,45.08 C11.4677447,44.9771361 11.9142739,44.794465 12.32,44.54 C12.7436418,44.2900932 13.1058596,43.9483783 13.38,43.54 L13.38,24.25 C13.38,24.25 13.65,20.71 13.71,20.37 C14.0555929,17.4970991 15.2736562,14.7992113 17.2,12.64"/>
  </g>
</svg>
