<svg xmlns="http://www.w3.org/2000/svg" width="199" height="25" viewBox="0 0 199 25">
  <g>
    <path d="M13.5303508 24L.0350455582 24C-.0135289814 23.7283019-.0120310881 23.3709144.0421783834 23.0504499 3.84247632 22.8351814 4.66417778 22.5161103 4.66417778 19.9941945L4.66417778 3.22345428C4.66417778 1.65317852 4.13499348 1.4016836 2.43445662 1.4016836L.885278321 1.4016836C.818871718.957910015.824649307.703628447.973654025.534339623 1.36310628.0849927431 2.97733595 0 5.81898218 0L13.2036674 0C23.0220013 0 28 4.03785196 28 11.9986067 28 19.8492888 22.9955385 24 13.5303508 24zM8.98310343 1.65039187C8.85685243 1.65039187 8.75485303 1.74931785 8.75485303 1.87332366L8.75485303 19.7454862C8.75485303 22.129463 9.74916886 22.4903338 13.1665767 22.4903338 18.3164052 22.4903338 23.5804302 21.3241219 23.5804302 12.6750653 23.5804302 5.56563135 19.7279913 1.65039187 12.7300478 1.65039187L8.98310343 1.65039187zM56.2235622 24L44.8852686 24C44.8378808 23.7268808 44.8406683 23.366476 44.8923071 23.0447866 47.5522948 22.9631324 48.513988 22.7794105 48.8206149 22.2972283 49.0087026 22.0015838 48.9091185 21.6637044 48.787095 21.3729872L46.5473951 15.9514298C46.5131783 15.86696 46.43241 15.8134624 46.3418157 15.8134624L37.1729766 15.8134624C37.0795251 15.8134624 36.9965965 15.8718874 36.9645401 15.958469L35.5081323 19.8729432C35.0035221 21.1758909 34.8188491 21.8776947 35.1289604 22.3366476 35.4091058 22.749846 36.0209657 22.8350198 36.8523425 22.8350198L39.7304534 22.8350198C39.8147758 23.2798944 39.7876672 23.5980642 39.6454342 23.7789705 39.5305188 23.9267928 39.3248698 24 39.0203336 24L29.0341249 24C28.9853434 23.7226573 28.9895247 23.3538055 29.0424178 23.0271887 31.715019 22.6660801 32.1115433 22.3514298 33.078045 20.0397712L40.1158973 3.20281566C41.2949472.419533656 41.7012277 0 43.214222 0L44.4100667 0C44.5361321.741223053 44.7988556 1.37263528 45.3222118 2.52635284L53.5314483 21.4426749C53.9621893 22.4703916 54.4506319 22.8350198 56.3301847 22.8350198L56.9622541 22.8350198C57.0353567 23.2897492 57.0026034 23.6093269 56.8611369 23.783194 56.7447581 23.9282006 56.5371578 24 56.2235622 24zM41.6524462 4.50576331L41.6497283 4.50576331C41.559134 4.50576331 41.4775295 4.56278047 41.4440793 4.64654641L37.7478322 13.9804663C37.7207236 14.050154 37.7290165 14.1282886 37.7695052 14.1909371 37.8105514 14.2535856 37.880309 14.2894853 37.9548053 14.2894853L45.5243068 14.2894853C45.5996394 14.2894853 45.6679336 14.2521777 45.7096766 14.1895293 45.7515591 14.1268808 45.7584582 14.0473383 45.7298861 13.9783546L41.8566318 4.64373075C41.8224847 4.56137264 41.7417164 4.50576331 41.6524462 4.50576331zM71.1597907 24L60.1584911 24C60.088599 23.7316701 60.0928502 23.3670167 60.1728298 23.0463968 63.0226248 22.5943642 63.8569343 22.2001256 63.8569343 20.6052828L63.8569343 3.83260044C63.8569343 2.37123456 63.3223681 2.13868198 61.6052569 2.13868198L60.0309561 2.13868198C59.9653152 1.77746866 60.0042242 1.51739508 60.1461699 1.34745281 60.3379048 1.11765234 60.755744 1 61.3854932 1L71.7138835 1C71.7614389 1.26351372 71.7599979 1.66325645 71.7095603 1.9384666 68.5317769 2.17308325 67.9899333 2.92440695 67.9899333 4.49792097L67.9899333 21.1673996C67.9899333 22.6253253 68.6211235 22.861318 70.1323053 22.861318L71.9307651 22.861318C72.0345224 23.3346795 72.0215527 23.6325945 71.8925766 23.7894642 71.7765702 23.9311975 71.537352 24 71.1597907 24zM95.0152762 24L85.2079495 5.04830688C85.1707873 4.97364267 85.0922557 4.92843315 85.008816 4.92843315 84.9940913 4.92843315 84.9786655 4.92980314 84.9639408 4.93254311 84.8657764 4.9524079 84.7921531 5.03255204 84.7844402 5.13187599L83.6408247 20.8168389C83.5959495 21.3977127 83.5594885 21.8580278 83.8806263 22.1964142 84.2880087 22.6252196 85.1792014 22.7642732 87.5484698 22.7642732L89.3000035 22.7642732C89.3974667 23.2273282 89.3799373 23.532835 89.2495189 23.6938083 89.1394345 23.8321768 88.9213693 23.8986211 88.5841044 23.8986211L77.0392675 23.8986211C76.9866794 23.5883194 76.9866794 23.2745927 77.0406698 22.964976 80.8690822 22.7389284 81.3262479 21.9991363 81.4419417 20.3948834L82.9087986 3.97766328C82.9459608 3.57420258 82.9606855 3.15361706 82.6725028 2.83441046 82.2749369 2.39464514 81.3641113 2.20969711 79.2171153 2.13914287 79.1568143 1.81103136 79.1967812 1.55552908 79.3398208 1.37469101 79.5368508 1.12603866 79.9407273 1 80.5395302 1L87.6255989 1 96.5396294 17.6857373C96.5802975 17.7576615 96.6553232 17.802186 96.7394641 17.802186L96.7436711 17.802186C96.8278121 17.800816 96.9042401 17.7535515 96.9421035 17.6788873L105.141637 1 113.302606 1C113.37623 1.3096167 113.374827 1.62334336 113.301204 1.93227507 111.417849 2.06242368 110.476873 2.31313101 110.064583 2.79057093 109.761675 3.1406022 109.778504 3.57077762 109.819873 3.94615362L111.534946 20.994937C111.657651 22.2875182 112.435955 22.4149269 114.984724 22.7396134 115.026794 23.2670578 114.983321 23.5540698 114.837477 23.7102481 114.721783 23.8362867 114.51073 23.8986211 114.190293 23.8986211L101.738838 23.8986211C101.664513 23.5848944 101.665916 23.2787027 101.74024 22.966346L103.511407 22.8683921C105.224376 22.7697531 106.245286 22.6087798 106.736108 22.0464008 107.118248 21.6066355 107.110535 20.9750722 107.045326 20.3565238L105.438234 5.12502606C105.427716 5.0277571 105.353392 4.94829794 105.253124 4.93117312 105.240503 4.92843315 105.22718 4.92843315 105.215962 4.92843315 105.130418 4.92843315 105.050485 4.97638264 105.013322 5.05310183L96.429545 22.6608393C95.8482714 23.7951872 95.6126768 23.9794502 95.0152762 24zM137.058891 24L120.037065 24C120.000018 23.7062395 119.979049 23.3842726 120.031473 23.0595537 123.288072 22.846973 124.309297 22.3564549 124.309297 19.9024886L124.309297 3.83303422C124.309297 2.37523929 123.666226 2.13995573 122.12565 2.13995573L120.597656 2.13995573C120.535445 1.77808686 120.571793 1.51734865 120.710193 1.3481096 120.896125 1.11695382 121.301539 1 121.912457 1L132.821608 1C132.867043 1.26349007 132.865645 1.66457286 132.817414 1.93907035 129.235086 2.14889926 128.320107 2.5018246 128.320107 4.9551029L128.320107 20.463867C128.320107 21.9828906 129.360904 22.1583214 130.145871 22.1583214L132.428076 22.1583214C135.222642 22.1583214 135.618271 21.8680007 137.123198 18.6985523L138.06404 16.6470447C138.365305 16.6511725 138.74276 16.7055217 138.904926 16.9291098 139.038433 17.1162359 139.031443 17.418252 138.883257 17.8289663 138.030488 20.2272075 137.464306 22.1404343 137.058891 24zM162.099037 24L143.051854 24C142.981582 23.6883245 142.98296 23.3745849 143.05461 23.0642855 146.706003 22.8489336 147.495531 22.5372581 147.495531 20.0438541L147.495531 3.83328846C147.495531 2.37123456 146.992603 2.13799396 145.378412 2.13799396L143.884785 2.13799396C143.84276 1.74169135 143.890297 1.49537826 144.032219 1.32956415 144.219611 1.11008406 144.625398 1 145.237867 1L161.75801 1C161.857218 2.38568309 162.045988 3.95506895 162.307097 5.55197583 162.387014 6.04597804 162.333966 6.40581531 162.151396 6.62185528 162.000518 6.79730174 161.748365 6.88812109 161.39976 6.88812109 161.375647 6.88812109 161.349467 6.88812109 161.323288 6.88605702L160.909233 5.45496425C160.297453 3.26360346 159.484501 2.5948428 157.430765 2.5948428L151.808997 2.5948428C151.687054 2.5948428 151.587847 2.69391845 151.587847 2.81501092L151.587847 11.8336474C151.587847 11.9554279 151.687054 12.0545036 151.808997 12.0545036L155.498282 12.0545036C156.706687 12.0545036 156.973307 11.5832062 157.086294 10.5952018L157.305377 9.001047 157.534795 9.001047C157.853086 9.001047 158.047368 9.055401 158.161732 9.17649346 158.307788 9.33267522 158.363592 9.63334231 158.335346 10.0984475 158.229938 12.283616 158.227182 14.6208382 158.32639 16.8741213 158.205825 16.9071465 158.067347 16.9257232 157.928181 16.9257232 157.780058 16.9257232 157.642959 16.9050824 157.521016 16.867241 157.068381 14.2286637 156.590255 13.7532382 155.498282 13.7532382L151.808997 13.7532382C151.687054 13.7532382 151.587847 13.8523139 151.587847 13.9740943L151.587847 20.149122C151.587847 21.5396213 152.010857 22.1609082 154.513784 22.1609082L157.534795 22.1609082C160.291252 22.1609082 160.680505 21.8684974 162.162419 18.6994526L163.088357 16.649137C163.374957 16.6532651 163.734585 16.7076191 163.897175 16.9326034 164.034275 17.1231865 164.034275 17.4266056 163.897175 17.8346047 163.071134 20.1869634 162.497245 22.1519639 162.099037 24zM193.863471 25C190.520335 25 188.456006 24.2370163 185.974389 22.081934 184.638931 20.9048582 183.465829 19.4787723 182.674779 18.0728014 181.756608 16.4157394 181.60738 16.2624491 179.380695 16.2624491L177.019291 16.2624491C176.898388 16.2624491 176.798211 16.3623306 176.798211 16.484408L176.798211 21.6844889C176.798211 22.9274587 177.330875 23.2860611 179.169979 23.2860611L180.764514 23.2860611C180.802513 23.8000347 180.757606 24.0809514 180.617358 24.2370163 180.497147 24.3701916 180.277449 24.4340048 179.945139 24.4340048L169.034869 24.4340048C169.003089 24.1974798 168.977527 23.8388775 169.030724 23.487905 172.020823 23.2652524 172.838126 22.8476923 172.838126 20.5518049L172.838126 4.20869339C172.838126 2.65636831 172.171433 2.3955666 170.677766 2.3955666L169.16199 2.3955666C169.091521 2.04390047 169.121919 1.78101789 169.253185 1.59374007 169.434194 1.33848733 169.836282 1.18450334 170.446323 1.13941794 172.130672 1 174.191547 1 179.169979 1 185.605463 1 189.449482 3.93124476 189.449482 8.84208549 189.449482 11.674836 187.764442 14.0109534 184.82754 15.2539233 184.758453 15.2823618 184.707328 15.346175 184.694892 15.4203925 184.681766 15.4939164 184.707328 15.5702147 184.763289 15.6222364 184.790924 15.6451259 187.424532 18.0783503 188.755154 19.1673362 193.334953 22.857403 194.979231 23.2708014 197.981766 23.2860611 198.033581 23.6072079 197.974857 23.8687032 197.806975 24.087194 197.339945 24.6927256 196.012777 25 193.863471 25zM177.019291 2.60573394C176.898388 2.60573394 176.798211 2.70630907 176.798211 2.82769284L176.798211 14.4319817C176.798211 14.5540591 176.898388 14.653247 177.019291 14.653247L178.71193 14.653247C182.014304 14.653247 185.239991 14.2238953 185.239991 9.09040201 185.239991 4.7268287 182.944219 2.60573394 178.220028 2.60573394L177.019291 2.60573394z"/>
    <path d="M2.62181051 1.81321782L.90372954 1.81321782C.653176065.313944541.796349479 0 5.95066257 0L13.2167133 0C23.5258308 0 28 4.53543846 28 11.999658 28 19.1854997 23.7770861 24 13.5388535 24L.0804824082 24C-.0268274694 23.6511727-.0268274694 23.0930491.0804824082 22.6402576 3.91044142 22.4302773 4.59051514 22.1860982 4.59051514 19.8482715L4.59051514 3.38294052C4.59051514 2.02388213 4.23251142 1.81321782 2.62181051 1.81321782zM23.2036906 12.6624298C23.2036906 5.96494628 19.6244255 2.05808088 12.7513997 2.05808088L9.06461415 2.05808088 9.06461415 19.6047764C9.06461415 21.7333067 9.85213811 22.0807661 13.18092 22.0807661 19.3022853 22.0807661 23.2036906 20.163584 23.2036906 12.6624298zM45.1319976 0C45.2406901.775976737 45.4942347 1.37506118 46.0739276 2.60847033L54.4439544 21.1807791C54.8432747 22.0970259 55.2410321 22.4141882 57.0888743 22.4141882L57.9228222 22.4141882C58.1394967 23.4361558 57.9228222 24 56.9801819 24L45.2406901 24C45.1319976 23.6475974 45.1319976 23.0837532 45.2406901 22.6263208 49.1904874 22.519909 49.5890262 22.2027467 49.1904874 21.2858089L46.9073072 15.9645294 37.559759 15.9645294 36.0742249 19.8057179C35.2409874 21.8855843 35.2409874 22.4141882 37.2336107 22.4141882L40.3494601 22.4141882C40.6030757 23.4361558 40.3494601 24 39.4436899 24L29.0810398 24C28.9729867 23.6475974 28.9729867 23.0837532 29.0810398 22.6263208 31.8715223 22.2725362 32.1968181 22.0610946 33.1758314 19.8057179L40.3494601 3.2780353C41.5450767.564535168 42.0161482 0 43.7189251 0L45.1319976 0zM46.0739276 14.027006L42.1248407 4.86384706 38.3567657 14.027006 46.0739276 14.027006zM71.67606 1C71.7822113 1.3233438 71.7822113 2.04188559 71.67606 2.40115648 68.5974641 2.61671901 68.1367813 3.29933371 68.1367813 4.80827145L68.1367813 21.8743432C68.1367813 23.1317914 68.4913128 23.383281 69.9776392 23.383281L71.8883626 23.383281C72.136049 24.4251666 72.0298977 25 70.9683847 25L60.2115805 25C60.0699761 24.6407291 60.0699761 24.0658957 60.2115805 23.599548 63.0415187 23.1317914 63.7138103 22.7725205 63.7138103 21.2988054L63.7138103 4.12565676C63.7138103 2.83157709 63.3953564 2.61671901 61.7677031 2.61671901L60.0699761 2.61671901C59.857049 1.68261469 60.0699761 1 61.5554005 1L71.67606 1zM112.270042 1C112.412102 1.46426275 112.412102 1.92992812 112.270042 2.39489217 108.983963 2.60949097 108.771221 3.18175443 108.877938 4.21898194L110.574337 21.6737187C110.679669 22.8175443 111.245135 22.9248437 113.967133 23.2832096 114.073158 24.3204371 113.967133 24.8927006 112.977568 24.8927006L100.501972 24.8927006C100.360605 24.4270352 100.360605 23.9627725 100.501972 23.4985097L102.411113 23.390509C105.37981 23.212378 105.873207 22.8175443 105.696499 21.0656887L104.107511 5.47080825 95.6248267 23.4985097C94.9879844 24.7861025 94.7052513 25 93.8923938 25L84.1381036 5.47080825 83.0071714 21.5299515C82.9011465 22.9248437 82.9011465 23.2832096 86.6473594 23.2832096L88.5558075 23.2832096C88.8031989 24.3204371 88.6618324 24.8927006 87.6715737 24.8927006L76.0795187 24.8927006C75.9734938 24.4270352 75.9734938 23.9627725 76.0795187 23.4985097 79.9670981 23.2832096 80.2858658 22.5685816 80.3911977 21.0656887L81.8408975 4.25474841C81.9462295 3.11022149 81.7348726 2.71679037 78.2353582 2.60949097 78.0233084 1.78686225 78.2353582 1 79.7197067 1L86.8594092 1 95.7301586 18.2043715 103.894768 1 112.270042 1zM132.918301 1C133.022788 1.3233438 133.022788 2.04188559 132.918301 2.40115648 129.261242 2.61671901 128.564659 2.94006281 128.564659 5.27532361L128.564659 21.1558015C128.564659 22.340691 129.156754 22.6654437 130.13197 22.6654437L132.361035 22.6654437C134.939074 22.6654437 135.285999 22.4851038 136.749506 19.2516657L137.724039 17.0241862C138.73545 16.9882591 139.257204 17.4186797 138.874083 18.533124 138.143354 20.6880449 137.51643 22.7725205 137.062968 25L120.065667 25C119.996009 24.5322434 119.961863 24.0658957 120.065667 23.599548 123.444093 23.383281 124.211017 22.9155244 124.211017 20.580968L124.211017 4.12565676C124.211017 2.83157709 123.757555 2.61671901 122.294732 2.61671901L120.622933 2.61671901C120.415324 1.68261469 120.622933 1 122.08644 1L132.918301 1zM161.685746 1C161.793197 2.61671901 162.008808 4.3052922 162.261885 5.85015703 162.442149 6.96460125 162.008808 7.57465731 160.855823 7.46687605L160.386429 5.85015703C159.77353 3.6586046 159.017127 3.08306672 157.03422 3.08306672L151.265762 3.08306672 151.265762 12.3177375 155.051312 12.3177375C156.132898 12.3177375 156.349215 11.9577622 156.457374 11.0236579L156.709744 9.19137632 157.141671 9.19137632C157.862729 9.19137632 158.260017 9.4435704 158.187204 10.5566057 158.079753 12.8207168 158.079753 15.3003904 158.187204 17.6349467 157.862729 17.7779506 157.322643 17.8138777 156.926768 17.6349467 156.457374 14.8326338 155.989394 14.50929 155.051312 14.50929L151.265762 14.50929 151.265762 20.8324577C151.265762 22.1258329 151.590238 22.6654437 154.042539 22.6654437L157.141671 22.6654437C159.810997 22.6654437 160.171526 22.4851038 161.685746 19.2516657L162.695226 17.0241862C163.740052 16.9882591 164.245499 17.4546068 163.883556 18.533124 163.163206 20.580968 162.478202 22.7725205 162.008808 25L142.107628 25C141.964124 24.5322434 141.964124 24.0658957 142.107628 23.599548 145.929232 23.383281 146.614236 23.1317914 146.614236 20.7239719L146.614236 4.12565676C146.614236 2.83157709 146.28976 2.61671901 144.667382 2.61671901L142.937551 2.61671901C142.79334 1.68261469 142.937551 1 144.523877 1L161.685746 1zM170.935031 1.80534589L169.212466 1.80534589C168.960452.902332444 169.212466.242438 170.683017.138244141 172.407694 0 174.56178 0 179.588685 0 186.481057 0 190.286609 3.16054707 190.286609 7.91805232 190.286609 10.8354804 188.419734 13.1978889 185.439915 14.4121219 185.439915 14.4121219 188.131819 16.8092617 189.497481 17.8866126 194.236471 21.5681289 195.816838 21.8807105 198.938855 21.8807105 199.263375 23.0963055 198.36584 24 194.559583 24 191.220046 24 189.030058 23.3040123 186.373352 21.0812099 185.188605 20.0746836 183.896153 18.6861132 182.962716 17.087112 182.064476 15.5242041 181.993377 15.4206912 179.802686 15.4206912L177.396586 15.4206912 177.396586 20.5255093C177.396586 21.5327166 177.721106 21.8807105 179.588685 21.8807105L181.41825 21.8807105C181.525955 22.8879178 181.41825 23.4436184 180.377813 23.4436184L169.067453 23.4436184C168.996354 23.0622553 168.960452 22.540605 169.067453 22.0897792 172.191581 21.8807105 172.910314 21.5327166 172.910314 19.4147892L172.910314 3.36825379C172.910314 2.01305261 172.407694 1.80534589 170.935031 1.80534589zM179.121262 13.4055956C182.675504 13.4055956 185.547619 12.849895 185.547619 8.16117133 185.547619 3.47244765 182.675504 2.01305261 178.619346 2.01305261L177.396586 2.01305261 177.396586 13.4055956 179.121262 13.4055956z"/>
  </g>
</svg>
