<svg xmlns="http://www.w3.org/2000/svg" width="25" height="33" viewBox="0 0 25 33">
  <g>
    <path d="M8.30583568 25.7288136C8.30583568 25.7288136 7.03868485 26.4811001 9.20762379 26.735664 11.8352324 27.0416881 13.1781727 26.9978009 16.0738152 26.4383078 16.0738152 26.4383078 16.8351067 26.9256289 17.8983051 27.3477123 11.4070394 30.187879 3.20729192 27.1832038 8.30583568 25.7288136M7.39276942 21.8135593C7.39276942 21.8135593 5.95967934 22.9092294 8.14833647 23.1430518 10.9786488 23.444638 13.2138079 23.4693048 17.081493 22.7000738 17.081493 22.7000738 17.616446 23.2602423 18.4576271 23.5665757 10.5438193 25.9567394 1.72926086 23.755067 7.39276942 21.8135593M13.7471775 15.5951064C15.3194312 17.3961959 13.3340832 19.0169492 13.3340832 19.0169492 13.3340832 19.0169492 17.3263038 16.9663785 15.4928571 14.3985759 13.7804746 12.0039416 12.4673054 10.8141421 19.5762712 6.71186441 19.5762712 6.71186441 8.41753973 9.48482894 13.7471775 15.5951064"/>
    <path d="M22.2945268 28.2329999C22.2945268 28.2329999 23.2297019 28.9682918 21.2646043 29.5371331 17.527915 30.6173191 5.71210486 30.9435012 2.42972245 29.5801704 1.24979038 29.0903443 3.46249726 28.4105927 4.15853061 28.2679571 4.88442325 28.1177517 5.29924451 28.1457345 5.29924451 28.1457345 3.98704026 27.2636393-3.18230828 29.8777744 1.6575702 30.6264199 14.856623 32.668992 25.7181838 29.7066457 22.2945268 28.2329999M8.66156629 18.4627994C8.66156629 18.4627994 2.59109948 19.8345397 6.51186249 20.3326691 8.16732977 20.5435348 11.4674613 20.4958288 14.5414504 20.2507895 17.0536844 20.0491739 19.5762712 19.620505 19.5762712 19.620505 19.5762712 19.620505 18.6904265 19.9814262 18.0495395 20.3977617 11.8850867 21.9401987-.0234927318 21.2226387 3.40483425 19.6449147 6.30417512 18.3115448 8.66156629 18.4627994 8.66156629 18.4627994M19.6957085 23.8972474C25.6383766 20.8495984 22.8907207 17.9208356 20.9728938 18.3154097 20.5028281 18.4119679 20.2932366 18.4956348 20.2932366 18.4956348 20.2932366 18.4956348 20.4677397 18.2258448 20.8010373 18.1090651 24.5951143 16.7926384 27.5130046 21.991698 19.5762712 24.0508474 19.5762712 24.0509316 19.6682183 23.9697924 19.6957085 23.8972474M15.352818 0C15.352818 0 18.7340481 3.39104028 12.1458681 8.60550227 6.86281659 12.7883979 10.9411678 15.173373 12.1436753 17.8983051 9.05987065 15.1088286 6.79677077 12.6532417 8.31503521 10.3678091 10.5434895 7.01299807 16.7170632 5.38646299 15.352818 0"/>
    <path d="M9.18332469,32.8886615 C15.1813615,33.2969564 24.3920264,32.662128 24.6101695,29.6440678 C24.6101695,29.6440678 24.19085,30.7881909 19.653115,31.696807 C14.5336651,32.721315 8.21954525,32.6017 4.47457627,31.945106 C4.47466604,31.9450106 5.24121901,32.6198379 9.18332469,32.8886615"/>
  </g>
</svg>
