<svg xmlns="http://www.w3.org/2000/svg" width="42" height="36" viewBox="0 0 42 36">
  <g>
    <path d="M4.2714287,32.4628581 L36.7342868,32.4628581 C37.2058525,32.4628581 37.5885725,32.0801381 37.5885725,31.6085724 L37.5885725,4.2714287 C37.5885725,3.79986297 37.2058525,3.41714296 36.7342868,3.41714296 L4.2714287,3.41714296 C3.79986297,3.41714296 3.41714296,3.79986297 3.41714296,4.2714287 L3.41714296,31.6085724 C3.41714296,32.0801381 3.79986297,32.4628581 4.2714287,32.4628581 Z M22.2114292,15.3771433 L29.0457152,15.3771433 C29.5172809,15.3771433 29.9000009,15.7598633 29.9000009,16.2314291 C29.9000009,16.7029948 29.5172809,17.0857148 29.0457152,17.0857148 L22.2114292,17.0857148 C21.7398635,17.0857148 21.3571435,16.7029948 21.3571435,16.2314291 C21.3571435,15.7598633 21.7398635,15.3771433 22.2114292,15.3771433 Z M12.2111604,11.7088403 C11.8779889,11.3756689 11.8779889,10.8340518 12.2111604,10.5008803 C12.5443318,10.1677089 13.085949,10.1677089 13.4191204,10.5008803 L17.6905491,14.772309 C18.0237205,15.1054804 18.0237205,15.6470976 17.6905491,15.980269 L13.4191204,20.2516977 C13.085949,20.5848692 12.5443318,20.5848692 12.2111604,20.2516977 C11.8779889,19.9185263 11.8779889,19.3769091 12.2111604,19.0437377 L15.8777548,15.3771433 L12.2111604,11.7088403 Z"/>
    <path d="M40.1514298,0 L0.85428574,0 C0.382720011,0 0,0.382720011 0,0.85428574 L0,35.0257153 C0,35.4972811 0.382720011,35.8800011 0.85428574,35.8800011 L40.1514298,35.8800011 C40.6229955,35.8800011 41.0057155,35.4972811 41.0057155,35.0257153 L41.0057155,0.85428574 C41.0057155,0.382720011 40.6229955,0 40.1514298,0 Z M39.297144,34.1714296 L1.70857148,34.1714296 L1.70857148,1.70857148 L39.297144,1.70857148 L39.297144,34.1714296 Z"/>
  </g>
</svg>
