<svg xmlns="http://www.w3.org/2000/svg" width="214" height="36" viewBox="0 0 214 36">
  <g>
    <path d="M32.3874735,17.9997722 C32.1616763,24.0305274 30.3969772,28.2606219 28.1353409,28.2606219 C25.6025648,28.2606219 23.8383237,24.0305274 23.6120685,17.9997722 L23.8383237,17.9997722 C25.1047117,17.9997722 26.597813,18.2699624 28.3620542,18.2699624 C30.3969772,18.2699624 30.8952883,18.2699624 32.3874735,17.9997722 Z M31.8905364,13.7701333 L31.6184806,13.7701333 L24.3361768,13.7701333 L23.8383237,13.499943 C24.6073167,9.27030413 26.0999599,6.74974371 27.8642011,6.74974371 C29.9000401,6.74974371 31.1215435,8.99965828 31.8905364,13.499943 L31.8905364,13.7701333 Z M7.28230377,8.77503132 C7.01116391,8.99965828 7.01116391,8.99965828 7.01116391,9.27030413 C7.01116391,13.0051259 12.5292265,16.2902381 20.8534952,17.5054106 L21.0792924,17.7751452 L21.0792924,18.2699624 C21.0792924,25.7851692 22.8435335,31.0048981 25.8737047,33.7505411 C13.0279956,32.7599954 3.98053472,25.7851692 3.98053472,17.0101378 C3.98053472,14.2649504 5.02066754,11.2504841 7.28230377,8.77503132 Z M30.1258373,33.7505411 C33.3831797,30.7802711 34.9211656,25.5154346 34.9211656,17.7751452 L35.1469628,17.5054106 C43.1991756,16.514865 48.7181542,13.0051259 48.7181542,9.27030413 L48.7181542,8.99965828 C50.9797905,11.5202187 51.9745806,14.2649504 51.9745806,17.2798724 C51.9745806,25.7851692 42.4297246,33.0306413 30.1258373,33.7505411 Z M56,17.9997722 C56,7.78539697 43.6961127,0 27.8642011,0 C12.3034293,0 0,7.78539697 0,17.7751452 C0,28.0350837 12.3034293,36 28.1353409,36 C43.4249728,36 56,28.0350837 56,17.9997722 Z M34.4233125,13.2753161 C33.6543196,7.29012416 30.8952883,2.51964916 28.1353409,2.51964916 C25.1047117,2.51964916 22.5714776,6.74974371 21.5766875,13.2753161 L21.0792924,13.2753161 C15.0629186,12.0154915 11.8064922,10.2599385 11.8064922,8.01002392 C11.8064922,4.76956373 18.8171981,2.24991457 27.6384038,2.24991457 C36.6854068,2.24991457 44.1939658,4.76956373 44.1939658,8.01002392 C44.1939658,10.2599385 40.4392283,12.5098531 34.4233125,13.2753161 Z"/>
    <polygon points="84 9.866 75.808 9.866 75.808 31 69.916 31 69.916 9.866 62 9.866 62 5 84 5"/>
    <path d="M112,18.5 C112,10.9854708 105.918981,5 98.6134878,5 C91.0805595,5 85,10.9854708 85,18.7250759 C85,26.0149848 91.0805595,32 98.3860527,32 C106.191903,32 112,26.0149848 112,18.5 Z M105.918981,18.5 C105.918981,23.4954101 102.924188,27.0045899 98.6134878,27.0045899 C94.0758117,27.0045899 91.0805595,23.7651367 91.0805595,18.5 C91.3075352,13.5055012 94.0758117,9.99541006 98.6134878,9.99541006 C102.924188,9.99541006 105.918981,13.5055012 105.918981,18.5 Z"/>
    <polygon points="128.378 21.452 128.378 31 122.388 31 122.388 21.452 112 5 118.739 5 125.243 15.798 131.982 5 139 5"/>
    <path d="M166,18.5 C166,10.9854708 159.96503,5 152.387203,5 C145.081375,5 139,10.9854708 139,18.7250759 C139,26.0149848 144.808457,32 152.387203,32 C159.96503,32 166,26.0149848 166,18.5 Z M159.693032,18.5 C159.693032,23.4954101 156.924802,27.0045899 152.387203,27.0045899 C147.849604,27.0045899 145.081375,23.7651367 145.081375,18.5 C145.081375,13.5055012 148.076576,9.99541006 152.614175,9.99541006 C156.924802,9.99541006 159.693032,13.5055012 159.693032,18.5 Z"/>
    <polygon points="189 9.866 180.837 9.866 180.837 31 174.934 31 174.934 9.866 167 9.866 167 5 189 5"/>
    <path d="M203.968399,5 L197.074553,5 L187,31 L193.142628,31 L195.130961,25.2998592 L205.691413,25.2998592 L207.90122,31 L214,31 L203.968399,5 Z M200.521924,10.654153 L203.968399,20.6644768 L196.853975,20.6644768 L200.521924,10.654153 Z"/>
  </g>
</svg>
