<svg xmlns="http://www.w3.org/2000/svg" width="24" height="33" viewBox="0 0 24 33">
  <g>
    <path d="M2.16263756,17.8209077 C1.85517198,18.1145698 1.56061474,18.3678211 1.31128105,18.4889905 C0.883256902,18.6969442 0.528718,18.718203 0.226605888,18.320716 C-0.0596575404,17.9442562 -0.112468207,17.1832847 0.289890945,16.9247618 C0.712119004,16.6535821 1.50384175,16.437352 2.21078778,16.3231919 C2.21096703,16.3107055 2.21113269,16.2982498 2.21128491,16.2858245 C2.24136564,13.8345189 1.74204816,12.5681817 1.7419355,10.016112 C1.74188126,8.61545399 1.88269702,7.42247554 2.13289752,6.3883047 C0.814748432,6.05033882 0.227058861,4.87063574 0.424417366,3.77081254 C0.632656205,2.61031384 1.54413915,1.74441326 3.32781251,1.98002402 C3.78293342,2.04009482 4.10231689,2.15265586 4.32220952,2.30545894 C4.33637342,2.29262646 4.3505948,2.27986301 4.36487318,2.26716827 C6.27246422,0.570971825 9.18990007,0.0926531364 11.932203,0.0108317458 C15.0949601,-0.0834296627 17.2797557,0.428985984 18.9582488,1.88378953 C18.964012,1.88878525 18.9697691,1.89379207 18.9755203,1.89881001 C19.1814372,1.6564035 19.5414039,1.47953394 20.1416477,1.39806537 C21.8949115,1.16007466 22.7908835,2.03466486 22.9955787,3.20694301 C23.1847902,4.29026467 22.6397864,5.4498663 21.4110401,5.8234608 C21.7443935,7.05076325 21.8940495,8.55614609 21.9197355,10.5760259 C21.9503232,12.9859966 21.8490965,13.9458005 21.946718,16.0573805 C21.9477674,16.0800297 21.9488395,16.1028114 21.9499348,16.1257286 C22.6122376,16.2459886 23.3229665,16.4539996 23.7136478,16.7109409 C24.1111311,16.972326 24.0589133,17.7421848 23.7761033,18.1229833 C23.4776929,18.5250513 23.1276064,18.5035475 22.7047184,18.2931386 C22.5103021,18.1963278 22.287904,18.0161774 22.0533542,17.7984304 C22.3315346,21.8652674 22.4035326,23.8554573 21.7676419,26.5557943 C21.5013203,27.6869043 20.9138734,28.922729 19.8174319,29.9813401 C20.4406829,30.3288443 20.9362276,30.860626 21.2088759,31.4913108 C21.6603202,32.5355051 20.1161068,33.2702876 19.4946035,32.4611828 C19.1049024,31.9537773 18.7813948,31.509252 18.19448,31.1772404 C18.1593813,31.1968701 18.12398,31.2163486 18.0882738,31.2356725 C16.5544948,32.0659872 14.4594908,32.6117647 11.6280159,32.6117647 C9.6887669,32.6117647 7.98165768,32.2810299 6.56701872,31.6965187 C6.47986037,31.6605104 6.39381532,31.6235365 6.30889756,31.5856149 C5.45152348,31.7807698 5.0064509,32.2259406 4.45601499,32.7423874 C3.7145937,33.4379916 2.2842893,32.6118542 2.83155262,31.6087529 C3.13915071,31.0450682 3.66318573,30.6441754 4.31261059,30.3549728 C2.86122046,29.1370207 2.06129207,27.5101688 2.08324468,25.685502 C2.10740516,23.6779263 2.07578361,20.7671937 2.16263756,17.8209077 Z M2.61307125,4.88382734 C2.6306376,4.84041495 2.64842817,4.79732452 2.66643893,4.75454985 C2.80608334,4.42279719 2.95885285,4.10998729 3.12339554,3.81374522 C3.15370661,3.75922547 3.18491617,3.70567701 3.21667236,3.65274663 C3.0886084,3.53905985 2.91934734,3.46966654 2.73325472,3.46966654 C2.3334936,3.46966654 2.00944524,3.78853697 2.00944524,4.18191775 C2.00944524,4.53493182 2.27056088,4.82750035 2.61307125,4.88382734 Z M20.8243545,4.27435959 C21.1456841,4.20503522 21.3866462,3.91647245 21.3866462,3.5708852 C21.3866462,3.1735308 21.0681123,2.8514394 20.675154,2.8514394 C20.4451751,2.8514394 20.241255,2.96230444 20.1112285,3.13357065 C20.3745174,3.48437602 20.6042927,3.84617639 20.8028619,4.23223874 C20.8100668,4.24624686 20.8172309,4.26028695 20.8243545,4.27435959 Z M11.7100519,9.90022702 C11.1166872,9.91115925 11.0277156,10.1909197 10.5168849,10.2873327 C10.4988375,10.6203588 10.475893,11.076198 10.4528936,11.6187391 C10.4033731,12.7875577 11.8064516,12.5258819 11.8064516,11.8280798 C11.8064516,11.2972268 11.8064516,10.3328062 11.8064516,9.90144817 C11.7756389,9.90022702 11.7438908,9.89964552 11.7100519,9.90022702 Z M12,11.8277379 C12,12.5259406 13.4030785,12.7877667 13.3535581,11.618277 C13.3299533,11.0607621 13.3064036,10.5948281 13.2881361,10.2595162 C12.6449759,10.2285044 12.5665136,9.92129518 12,9.9 C12,10.3315475 12,11.2965219 12,11.8277379 Z M14.0413046,8.61314288 C13.7970091,8.35862217 13.5070974,8.21992603 13.1197257,8.15294118 C12.9141449,8.4444584 12.4020444,8.65106294 11.8023588,8.65106294 C11.2256777,8.65106294 10.7300169,8.45994151 10.5099601,8.18602615 C10.0952637,8.26300713 9.79441094,8.41338351 9.54770273,8.68909165 C9.06365638,9.23013153 9.29875018,10.0413382 9.94921375,10.0850169 C10.2273426,10.1037053 10.4330918,10.0921337 10.5967597,10.0637752 C11.1176692,9.97370145 11.2083963,9.71233556 11.8134683,9.70212214 C11.8479749,9.70157887 11.8803494,9.70212214 11.91177,9.70320867 C12.489405,9.72309225 12.5694155,10.0099374 13.2253215,10.0388935 C13.3550439,10.0445978 13.5072097,10.040306 13.6904033,10.0217263 C14.3389592,9.95615391 14.5446522,9.13750446 14.0413046,8.61314288 Z M11.7096198,8.34705882 C12.325288,8.34705882 12.8509793,8.1419951 13.0620968,7.85265196 C13.1258641,7.76519118 13.1612903,7.67012745 13.1612903,7.57058824 C13.1612903,7.14175 12.5114631,6.79411765 11.7096774,6.79411765 C10.9080069,6.79411765 10.2580645,7.14175 10.2580645,7.57058824 C10.2580645,7.6827451 10.3028802,7.78918627 10.3828341,7.8854902 C10.6086406,8.15736275 11.1175691,8.34705882 11.7096198,8.34705882 Z M6.09677419,6.21176471 C5.50885817,6.21176471 5.03225806,5.73376284 5.03225806,5.14411765 C5.03225806,4.55447246 5.50885817,4.07647059 6.09677419,4.07647059 C6.68469022,4.07647059 7.16129032,4.55447246 7.16129032,5.14411765 C7.16129032,5.73376284 6.68469022,6.21176471 6.09677419,6.21176471 Z M7.74193548,8.15294118 C9.45223664,8.15294118 10.8387097,6.805845 10.8387097,5.14411765 C10.8387097,3.4823903 9.45223664,2.13529412 7.74193548,2.13529412 C6.03163432,2.13529412 4.64516129,3.4823903 4.64516129,5.14411765 C4.64516129,6.805845 6.03163432,8.15294118 7.74193548,8.15294118 Z M13.8387097,6.01764706 C13.2507937,6.01764706 12.7741935,5.53964519 12.7741935,4.95 C12.7741935,4.36035481 13.2507937,3.88235294 13.8387097,3.88235294 C14.4266257,3.88235294 14.9032258,4.36035481 14.9032258,4.95 C14.9032258,5.53964519 14.4266257,6.01764706 13.8387097,6.01764706 Z M15.483871,7.76470588 C17.1941721,7.76470588 18.5806452,6.4176097 18.5806452,4.75588235 C18.5806452,3.094155 17.1941721,1.74705882 15.483871,1.74705882 C13.7735698,1.74705882 12.3870968,3.094155 12.3870968,4.75588235 C12.3870968,6.4176097 13.7735698,7.76470588 15.483871,7.76470588 Z"/>
    <path d="M0 19C.282841141 18.7039644.482688391 18.3835989 1 18M24 19C23.7171349 18.7039644 23.5172706 18.3835989 23 18M3 33C3.07692308 32.7582047 3.30769231 32.35168 4 32M22 33C21.9970674 32.7733273 21.8529213 32.3121874 21 32"/>
  </g>
</svg>
