<svg xmlns="http://www.w3.org/2000/svg" width="223" height="42" viewBox="0 0 223 42">
  <g>
    <path d="M216.41 17.24C217.86 15.39 219.1 13.89 221.21 13.58 221.9 13.48 222.77 13.32 222.63 14.38 222.51 15.23 223.52 16.63 221.76 16.87 220.61516 17.0118192 219.519331 17.4193306 218.56 18.06 217.30734 18.7789559 216.573866 20.1488852 216.67 21.59 216.79 24.15 216.67 26.72 216.73 29.29 216.73 30.51 216.35 30.9 215.21 30.74 214.79101 30.6988143 214.36899 30.6988143 213.95 30.74 213.29 30.74 213.01 30.51 213.01 29.83L213.01 14.59C213.01 14 213.24 13.8 213.83 13.73 216.21 13.45 216.38 13.58 216.4 15.98 216.41 16.27 216.41 16.58 216.41 17.24zM187.87 15.44C187.87 14.09 187.59 13.61 186.16 13.68 185.04 13.74 184.49 13.94 184.67 15.16 184.796712 15.5561487 184.753252 15.9871249 184.55 16.35 179.74 12.59 176.08 12.47 172.88 15.97 169.68 19.47 169.97 25.4 173.21 28.74 176.21 31.84 179.93 31.65 184.32 28.04L184.32 30.43C184.17 32.6 183.22 34.35 181.05 34.93 178.41 35.64 175.77 35.4 173.77 33.32 172.77 32.32 172.45 33.11 171.83 33.58 171.03 34.19 171.16 34.66 171.83 35.33 174.46 38.03 177.72 38.33 181.14 37.77 185.254222 37.3383374 188.265053 33.6915397 187.91 29.57 187.69 24.87 187.79 20.15 187.87 15.44zM179.61 27.94C178.154463 27.9477117 176.760305 27.3542128 175.756945 26.2997383 174.753585 25.2452637 174.230034 23.8233593 174.31 22.37 174.31 19.02 176.45 16.51 179.31 16.52 182.31 16.52 184.31 18.85 184.31 22.43 184.31 26.01 182.64 27.93 179.62 27.94L179.61 27.94zM166.59 27.43C166.02 26.95 166.17 26.29 166.17 25.67 166.17 19.92 166.11 14.16 166.17 8.41 166.17 6.86 165.35 7.03 164.4 7.05 163.45 7.07 162.52 6.8 162.6 8.38 162.73 11.02 162.6 13.67 162.6 16.38 161.92 16.29 161.74 15.8 161.43 15.49 159.409485 13.3853571 156.260544 12.8275215 153.64 14.11 150.64 15.52 149.32 18.11 148.94 21.23 148.36 26.02 151.75 31.59 157.8 31.05 159.97 30.85 161.56 29.67 163.09 27.88 163.137665 28.1513942 163.171045 28.4251045 163.19 28.7 163.13722 29.2325252 163.30005 29.763991 163.64208 30.1755544 163.98411 30.5871178 164.476808 30.8444471 165.01 30.89 165.71 31.05 166.74 31.28 166.95 30.48 167.27 29.51 167.64 28.31 166.59 27.43zM157.97 27.94C156.516573 27.9355891 155.127249 27.3411263 154.120464 26.2928636 153.113679 25.2446008 152.575761 23.8324215 152.63 22.38 152.63 19.1 154.83 16.52 157.63 16.52 160.63 16.52 162.63 18.87 162.63 22.42 162.63 25.97 161 27.92 158 27.94L157.97 27.94zM209.45 22.05C209.389147 19.995003 208.65483 18.0169132 207.36 16.42 204.231973 12.8964483 198.915781 12.3818373 195.17 15.24 191.65 17.88 190.79 23.39 193.3 27.24 195.93558 30.9889938 200.945842 32.1965952 205 30.06 206.177862 29.4795367 207.173985 28.5871763 207.88 27.48 208.02 27.25 208.33 27.01 207.99 26.67 206.959893 26.0607494 205.673512 26.0878719 204.67 26.74 203.433071 28.1648281 201.499394 28.7720025 199.67 28.31 197.78638 27.8886183 196.300926 26.4418478 195.83 24.57 195.57 23.73 195.74 23.43 196.63 23.45L202.44 23.45C204.38 23.45 206.11 23.39 207.93 23.45 209.07 23.53 209.54 23.1 209.45 22.05zM204.91 21L200.68 21 196.61 21C195.7 21 195.55 20.63 195.73 19.86 196.383478 17.629823 198.406595 16.0801155 200.73 16.03 203.089135 16.13427 205.110414 17.7512937 205.73 20.03 205.83 20.71 205.62 21 204.91 21zM143.6 15.71C140.242122 12.628704 135.099168 12.5818464 131.685705 15.6014487 128.272241 18.621051 127.691351 23.731309 130.34 27.44 133.013182 31.0162491 137.875364 32.14414 141.85 30.11 143.036905 29.5404225 144.043797 28.6546339 144.76 27.55 144.92 27.3 145.29 27 144.76 26.62 143.717733 26.0300483 142.424439 26.11653 141.47 26.84 140.220501 28.24408 138.276828 28.807745 136.47 28.29 134.590639 27.828729 133.136578 26.3397705 132.72 24.45 132.49 23.63 132.72 23.45 133.49 23.45L139.3 23.45 145.11 23.45C145.98 23.45 146.35 23.2 146.32 22.3 146.381076 19.8184466 145.393617 17.4260353 143.6 15.71L143.6 15.71zM141.82 21C140.41 20.94 139.01 21 137.6 21L133.53 21C132.7 21 132.4 20.8 132.63 19.92 133.180981 17.593031 135.266629 15.9553876 137.65788 15.9721263 140.049132 15.9888651 142.111649 17.6555457 142.63 19.99 142.75 20.67 142.67 21 141.82 21zM102.11 19.21C100.952847 16.0255702 98.0702679 13.7882901 94.6982995 13.4574958 91.3263311 13.1267014 88.0639301 14.7611511 86.31 17.66 84.4116685 20.6753703 84.5464377 24.54404 86.65 27.42 89.79 32.02 97.35 32.33 100.65 28.06 100.94 27.68 101.49 27.3 101.23 26.73 100.97 26.16 98.44 26.06 98.04 26.51 96.84101 28.0302547 94.8906613 28.7495686 92.9916865 28.3718837 91.0927117 27.9941987 89.5660302 26.583342 89.04 24.72 88.71 23.77 88.81 23.39 89.92 23.43 91.8 23.49 93.69 23.43 95.57 23.43L99.34 23.43C102.86 23.43 103.22 22.93 102.2 19.43 102.21 19.39 102.15 19.3 102.11 19.21zM97.8 21C96.51 20.89 95.2 21 93.89 21 92.58 21 91.18 20.94 89.82 21 88.76 21.06 88.72 20.57 88.93 19.79 89.5464057 17.6022884 91.5264765 16.0791665 93.7991049 16.044558 96.0717334 16.0099494 98.0972648 17.4720723 98.78 19.64 99.07 20.54 99 21.08 97.8 21zM63.74 18.51C62.1026371 14.8443426 58.1673302 12.7774797 54.22 13.51 50.0717241 14.154712 47.0092579 17.7219337 47 21.92 46.92 25.54 48.31 28.38 51.56 30.03 54.6315784 31.704106 58.3949544 31.4467144 61.21 29.37 61.9450189 28.8600889 62.5622132 28.1985658 63.02 27.43 63.15 27.22 63.47 26.97 63.11 26.63 62.0749703 26.0539336 60.8097499 26.0806905 59.8 26.7 58.5487516 28.1818255 56.5449455 28.7923601 54.68 28.26 52.8019666 27.8022217 51.3429961 26.3239015 50.91 24.44 50.69 23.72 50.84 23.44 51.68 23.44L57.49 23.44 61.1 23.44C64.91 23.44 65.15 23.12 64.1 19.38 63.9984887 19.0826902 63.878248 18.7921085 63.74 18.51zM60.06 21L55.82 21 51.42 21C50.75 21 50.65 20.79 50.76 20.17 51.2735343 17.8408731 53.2873327 16.1469857 55.67 16.04 58.0913693 16.0682551 60.1990441 17.7021116 60.83 20.04 61 20.74 60.79 21 60.06 21zM79.09 14.73L74.53 27.73C73.08 23.61 71.61 19.82 70.46 15.94 69.92 14.15 69.12 13.54 67.32 13.72 66.26 13.83 65.98 13.88 66.43 15.02 68.19 19.42 69.83 23.87 71.53 28.3 72.53 30.93 72.53 30.9 75.43 30.79 76.0041664 30.8400917 76.5280311 30.4610352 76.66 29.9 78.57 24.83 80.53 19.78 82.47 14.72 82.58 14.45 82.81 14.13 82.55 13.86 82 13.23 79.38 13.93 79.09 14.73zM122.84 24.56C122.84 19.22 122.78 13.89 122.84 8.56 122.84 7.04 122.14 7.04 121.03 7.04 119.92 7.04 119.22 7.04 119.24 8.56 119.33 14.63 119.24 20.7 119.24 26.77 119.24 29.82 120.64 31.13 123.73 31 126.82 30.87 127.12 30.54 126.32 27.48 123.52 28.07 122.84 27.51 122.84 24.56zM115.79 14.37C115.98 13.21 115.02 13.55 114.4 13.62 112.24 13.88 110.99 15.43 109.58 17.35 109.525803 16.5809537 109.525803 15.8090463 109.58 15.04 109.82 13.64 108.96 13.7 108.01 13.72 107.06 13.74 106.23 13.51 106.27 15.07 106.39 19.52 106.27 23.97 106.27 28.42 106.27 30.77 106.27 30.71 108.58 30.76 109.67 30.76 109.87 30.38 109.84 29.41 109.78 26.74 109.84 24.07 109.84 21.41 109.786639 20.2993114 110.265747 19.229674 111.13 18.53 112.151176 17.6153902 113.436104 17.0482011 114.8 16.91 116.74 16.69 115.65 15.24 115.79 14.37z"/>
    <polyline points="36.43 11.14 13.09 11.23 7.28 21.4 13.12 31.51 24.78 31.47"/>
    <path d="M36.75 11.14L18.85.68 18.85.68 13.11 11.2 36.77 11.11M7.28 21.4L13.09 11.23"/>
    <polyline points="18.66 .81 1 11.11 .99 11.14 1.02 31.69"/>
    <path d="M13.09 11.23L18.83.71M25.03 31.47L13.12 31.51M1.13 31.76C1.08459166 31.7362851 1.05442591 31.6910365 1.05 31.64 1.04407379 31.693665 1.07193495 31.7454072 1.12 31.77L18.83 42M36.73 11.15L18.99 42.02M18.83 42L18.91 42C18.9564102 42.0267949 19.0135898 42.0267949 19.06 42L36.74 31.72 36.74 31.72C36.7883699 31.694489 36.8190238 31.6446764 36.82 31.59L36.75 11.17"/>
    <polyline points="1.47 31.55 13.12 31.51 7.28 21.4"/>
    <path d="M7.28 21.4L1.03 11.12M13.12 31.51L1.48 31.55"/>
    <polyline points="1.48 31.55 1.13 31.55 1.13 31.55"/>
  </g>
</svg>
