<svg xmlns="http://www.w3.org/2000/svg" width="196" height="50" viewBox="0 0 196 50">
  <g>
    <path d="M192.35 40.47C190.693146 40.47 189.35 39.1268542 189.35 37.47 189.35 35.8131458 190.693146 34.47 192.35 34.47 194.006854 34.47 195.35 35.8131458 195.35 37.47 195.389174 39.0845679 194.114454 40.4263784 192.5 40.47L192.35 40.47zM192.35 34.81C191.25708 34.8019117 190.267086 35.4535095 189.842295 36.4605305 189.417504 37.4675516 189.641715 38.6313371 190.410234 39.4084587 191.178753 40.1855803 192.33997 40.4227323 193.351657 40.0091768 194.363345 39.5956214 195.025922 38.6129421 195.03 37.52L195.03 37.52C195.043387 36.8171403 194.77695 36.1377627 194.289329 35.6313868 193.801708 35.125011 193.132864 34.8331364 192.43 34.82L192.35 34.81zM193.07 39.38L192.31 37.73 191.69 37.73 191.69 39.38 191.24 39.38 191.24 35.64 192.35 35.64C193.17 35.64 193.51 36.01 193.51 36.64 193.5647 37.1194685 193.235606 37.5582612 192.76 37.64L193.55 39.34 193.07 39.34 193.07 39.38zM191.69 37.38L192.35 37.38C192.87 37.38 193.07 37.19 193.07 36.72 193.07 36.25 192.88 36.08 192.29 36.08L191.7 36.08 191.7 37.39 191.69 37.38zM21.77 20.23C19.17 8.8 13.04 5.03 12.38 3.6 11.8079084 2.70674778 11.3191834 1.76277208 10.92.78L10.92.78C10.9078407.725361281 10.8911153.671839953 10.87.62 10.9075531 1.54888081 10.5123562 2.44269065 9.8 3.04 8.31 4.2.69 10.59.06 23.59-.53 35.73 8.84 42.95 10.06 43.86L10.41 44.05C10.49 44.11 10.29 19.61 10.98 19.61 11.35 19.61 11.82 39.61 11.98 43.89 12.9840791 43.510236 13.8873622 42.9046257 14.62 42.12 17.82 39.28 23.8 32.06 21.77 20.23zM14.69 42.15L14.69 42.15 14.69 42.15C14.69 42.15 14.68 42.17 14.7 42.15L14.69 42.15zM12.07 43.92C11.587333 44.2205576 10.9923804 44.2796833 10.46 44.08L10.91 49.61 12 50C12 50 12.12 46.53 12.07 43.92zM148.27 37.76C149.424097 38.4275508 150.749183 38.7405633 152.08 38.66 154.057535 38.7624895 155.994169 38.0713486 157.46 36.74 159.25 35.12 160.46 32.64 160.46 28.67 160.46 24.86 159.01 21.77 156.04 19.96 154.108591 18.8887129 151.915853 18.3794988 149.71 18.49 149.077876 18.4526089 148.444223 18.5305447 147.84 18.72 147.67255 18.8554442 147.553303 19.0413298 147.5 19.25 147.42 19.93 147.42 25.1 147.42 28.15 147.42 31.2 147.42 35.65 147.5 36.15 147.536912 36.7558023 147.80975 37.3230182 148.26 37.73M140.64 16.73C141.29 16.73 143.75 16.84 144.9 16.84 147.04 16.84 148.52 16.73 152.53 16.73 155.494629 16.5975557 158.4082 17.5344411 160.74 19.37 163.214714 21.5459186 164.583574 24.716684 164.47 28.01 164.47 33.1 162.14 36.01 159.82 37.71 157.5 39.41 154.48 40.43 150.17 40.43 147.88 40.43 143.95 40.36 140.67 40.32L140.67 40.32C140.52 40.02 140.95 38.84 141.22 38.81 141.745922 38.7916643 142.265652 38.6904181 142.76 38.51 143.45 38.22 143.62 37.87 143.69 36.63 143.8 34.29 143.77 31.5 143.77 28.33L143.77 20.26C143.66 19.09 143.16 18.79 142.17 18.56 141.46291 18.4103649 140.748649 18.2968842 140.03 18.22 139.95 17.99 140.54 16.98 140.73 16.75M173.95 18.71C173.8 18.71 173.61 19.13 173.61 19.31 173.61 20.67 173.53 24.21 173.53 26.66 173.548622 26.7561742 173.623826 26.8313779 173.72 26.85 174.22 26.85 175.44 26.93 176.47 26.93 177.406263 26.9907353 178.344548 26.8474336 179.22 26.51 180.415714 25.8298962 181.112604 24.5217677 181.01 23.15 181.01 19.87 178.72 18.62 175.33 18.62 174.872052 18.6157595 174.414342 18.6424871 173.96 18.7M182.62 33.79C182.62 30.47 180.18 28.59 175.72 28.59 175.070527 28.5529735 174.419473 28.5529735 173.77 28.59 173.665045 28.6080228 173.577511 28.680334 173.54 28.78 173.54 31.16 173.54 34.97 173.62 36.47 173.707988 37.2064592 174.11348 37.8676681 174.73 38.28 175.673216 38.6104558 176.671985 38.753137 177.67 38.7 180.3 38.7 182.67 37.23 182.67 33.76M167.13 16.84C167.47 16.84 168.49 16.95 171.13 16.95 173.57 16.95 175.55 16.88 177.92 16.88 180.86 16.88 184.92 17.94 184.92 22.31 184.811897 24.4459828 183.425935 26.3057777 181.41 27.02 181.29 27.02 181.29 27.13 181.41 27.17 184.23 27.89 186.71 29.62 186.71 32.94 186.71 36.26 184.71 38.22 181.71 39.5 179.716478 40.2729992 177.586876 40.6336028 175.45 40.56 173.73 40.56 169.13 40.37 166.58 40.41 166.31 40.3 166.82 39.09 167.05 38.9 167.635541 38.8811149 168.216551 38.7904371 168.78 38.63 169.69 38.4 169.78 38.11 169.92 36.75 170 35.58 170 31.39 170 28.42L170 20.24C170 19.18 169.58 18.84 168.85 18.66 168.28 18.55 167.33 18.43 166.56 18.32 166.37 18.13 166.96 17 167.15 16.85M30.26 40.47C30.1602988 40.2297669 30.1191669 39.9692649 30.14 39.71 30.1339639 39.5323564 30.1753856 39.3563141 30.26 39.2 30.7521602 39.1288977 31.2396796 39.0287225 31.72 38.9 32.4 38.73 32.65 38.37 32.72 37.5 32.83 35.5 32.84 31.65 32.8 28.97L32.8 28.89C32.8621196 28.5187379 32.7300832 28.1414911 32.45 27.89 31.8295777 27.4987433 31.15598 27.1989923 30.45 27 30.13 26.9 29.95 26.74 29.96 26.54 29.97 26.34 30.17 26.11 30.59 26.03 32.3469269 25.776523 34.0706312 25.3305061 35.73 24.7 35.8479018 24.8538536 35.901659 25.0473795 35.88 25.24L35.88 25.61C35.88 25.98 35.81 26.42 35.81 26.85 35.8253882 26.9928192 35.9463566 27.1008266 36.09 27.1 36.1646673 27.1010699 36.2366684 27.0722694 36.29 27.02 37.7192313 25.7566811 39.4969925 24.9549456 41.39 24.72 43.0357762 24.7206888 44.5422616 25.6438939 45.29 27.11 45.3355099 27.1888675 45.418962 27.2381801 45.51 27.24 45.5940399 27.2409634 45.6729401 27.1996347 45.72 27.13 47.72 25.62 49.72 24.72 51 24.72 54.12 24.72 56 27.06 56 30.97L56 34.85 56 37.85C56.0498711 38.2055363 56.2865055 38.5070542 56.62 38.64 57.2472579 38.8812722 57.9024185 39.0425425 58.57 39.12L58.57 39.12C58.6010578 39.5563041 58.5326731 39.9939664 58.37 40.4L57.52 40.4C56.87 40.4 55.98 40.32 54.95 40.32 52.88 40.32 51.79 40.32 50.76 40.43 50.6732137 40.0111146 50.6732137 39.5788854 50.76 39.16 51.18544 39.0844114 51.6061445 38.9842436 52.02 38.86 52.68 38.64 52.87 38.34 52.91 37.46 52.91 36.84 53.04 31.35 52.83 30.04 52.6320093 28.3108094 51.1286649 27.0303445 49.39 27.11 48.138848 27.182113 46.9406859 27.6397201 45.96 28.42 45.8843872 28.5096909 45.8420062 28.6227067 45.84 28.74L45.84 28.74C45.9808637 29.6561649 46.0311064 30.5839811 45.99 31.51L45.99 33.71 45.99 37.71C45.9549695 38.2112904 46.2973919 38.6607199 46.79 38.76L47.29 38.88C47.59 38.95 47.9 39.03 48.36 39.1 48.4362999 39.4120706 48.4362999 39.7379294 48.36 40.05 48.342153 40.165328 48.2976393 40.2749001 48.23 40.37 47.08 40.37 45.89 40.3 44.23 40.3L42.12 40.3 40.62 40.3C40.5386704 40.0934857 40.504505 39.8714104 40.52 39.65 40.5013605 39.4361846 40.5429279 39.2214196 40.64 39.03L41.1 38.95C41.5 38.88 41.85 38.82 42.18 38.74 42.74 38.57 42.96 38.25 43 37.53 43.1748643 34.9596373 43.1748643 32.3803627 43 29.81 42.6 27.87 41.49 26.88 39.71 26.88 38.4604923 26.9597251 37.2645346 27.4164903 36.28 28.19 36.0635882 28.3901305 35.9464952 28.6755448 35.96 28.97L35.96 30.97 35.96 37.73C35.960402 38.2665249 36.3580872 38.7198006 36.89 38.79 37.06 38.79 37.34 38.89 37.67 38.94L38.29 39.04C38.3600712 39.4685007 38.3257681 39.9075804 38.19 40.32L36.98 40.32C36.27 40.32 35.38 40.25 34.37 40.25 33.18 40.25 32.37 40.25 31.68 40.32L30.46 40.32M68.54 26.36C67.8962052 26.3459404 67.2627445 26.5234486 66.72 26.87 65.4 27.68 64.72 29.28 64.72 31.65 64.72 36.07 66.94 39.17 70.11 39.17 70.9621526 39.1994167 71.7940956 38.9066299 72.44 38.35 73.44 37.56 73.93 35.93 73.93 33.66 73.93 29.3 71.76 26.37 68.54 26.37M69.15 40.82C63.42 40.82 61.38 36.62 61.38 32.68 61.2822111 30.1086002 62.5528961 27.6775591 64.72 26.29 66.2715975 25.3263294 68.0538887 24.7978593 69.88 24.76 74.25 24.76 77.31 27.9 77.31 32.41 77.4537177 35.2033375 76.111532 37.8648956 73.78 39.41 72.3783566 40.2504654 70.7920818 40.7345882 69.16 40.82M126.88 26.36C126.23282 26.3439437 125.595591 26.5215321 125.05 26.87 123.73 27.68 123.05 29.28 123.05 31.65 123.05 36.07 125.26 39.17 128.44 39.17 129.292153 39.1994167 130.124096 38.9066299 130.77 38.35 131.77 37.56 132.26 35.93 132.26 33.66 132.26 29.3 130.1 26.37 126.87 26.37M127.48 40.82C121.75 40.82 119.71 36.62 119.71 32.68 119.612211 30.1086002 120.882896 27.6775591 123.05 26.29 124.601394 25.3258762 126.383812 24.7973685 128.21 24.76 132.58 24.76 135.64 27.9 135.64 32.41 135.783718 35.2033375 134.441532 37.8648956 132.11 39.41 130.708357 40.2504654 129.122082 40.7345882 127.49 40.82M107.59 26.21C105.82 26.21 104.68 27.61 104.68 29.76 104.68 31.91 105.68 34.48 108.43 34.48 109.079525 34.4732633 109.704676 34.2317278 110.19 33.8 110.92921 32.9416423 111.308891 31.8312567 111.25 30.7 111.25 27.88 109.88 26.2 107.59 26.2M107.36 41.1C106.861213 41.0921689 106.368788 41.2126926 105.93 41.45 104.53 42.35 103.88 43.24 103.88 44.27 103.871315 45.2195391 104.312691 46.1171272 105.07 46.69 106.211131 47.5703305 107.631013 48.0104938 109.07 47.93 112.49 47.93 114.07 46.09 114.07 44.26 114.109462 43.0413116 113.299865 41.9576969 112.12 41.65 110.570334 41.2080201 108.960176 41.0156112 107.35 41.08M107.58 49.83C105.861556 49.9330113 104.160866 49.4344721 102.77 48.42 101.724526 47.6240221 101.078183 46.4116719 101 45.1 101.013946 44.4698116 101.255486 43.8659612 101.68 43.4 102.620447 42.4564871 103.663617 41.6212805 104.79 40.91 104.85101 40.8853244 104.890688 40.8258077 104.89 40.76 104.892368 40.6851574 104.842512 40.6186826 104.77 40.6 103.727577 40.294923 102.903778 39.4935911 102.57 38.46 102.576001 38.4336709 102.576001 38.4063291 102.57 38.38 102.47441 38.152301 102.559372 37.888919 102.77 37.76 102.99 37.6 103.35 37.39 103.77 37.17 104.303591 36.8742372 104.814943 36.5400205 105.3 36.17 105.395286 36.0727891 105.395286 35.9172109 105.3 35.82L105.25 35.82C102.993757 35.1567946 101.520063 32.992307 101.73 30.65 101.720318 28.9705123 102.530197 27.3918083 103.9 26.42 105.337013 25.4565745 107.003463 24.8907406 108.73 24.78L108.82 24.78C110.090704 24.8181986 111.342714 25.096423 112.51 25.6 113.208047 25.8532742 113.947752 25.9720342 114.69 25.95 115.561485 25.9841673 116.404697 25.6373914 117 25 117.079122 25.2179951 117.119727 25.4480903 117.12 25.68 117.151311 26.228492 117.003943 26.7723512 116.7 27.23 116.328411 27.6497489 115.790422 27.8839753 115.23 27.87L115 27.87C114.702665 27.8472726 114.408074 27.7970582 114.12 27.72L113.97 27.77C113.929089 27.8447698 113.929089 27.9352302 113.97 28.01L113.97 28.07C114.073645 28.5478598 114.143815 29.0323701 114.18 29.52 114.343434 31.4366525 113.474938 33.2955375 111.9 34.4 110.751926 35.2602362 109.388355 35.7862839 107.96 35.92L107.96 35.92 107.5 35.92 107.05 35.92 107.05 35.92C106.79 35.99 106.12 36.31 106.12 36.92 106.12 37.53 106.42 38.03 107.87 38.14L108.8 38.21C110.627434 38.2644027 112.445583 38.4920899 114.23 38.89 115.763867 39.4255092 116.7803 40.8856237 116.75 42.51 116.75 45 114.98 47.34 112.01 48.77 110.611126 49.4367376 109.079617 49.7785923 107.53 49.77M98.83 39.14C98.0812857 39.071086 97.348564 38.8819965 96.66 38.58 96.5183255 38.4348089 96.4241588 38.2499633 96.39 38.05 96.31 36.88 96.31 33.49 96.31 31.26 96.4012833 29.6780905 96.0294494 28.1038777 95.24 26.73 94.3635178 25.4500596 92.9009516 24.6980975 91.35 24.73 89.86 24.73 87.88 25.73 86.24 27.14 86.24 27.14 85.95 27.42 85.95 27.04 85.95 26.66 86.01 25.92 86.05 25.44 86.0832791 25.1801269 85.9903754 24.9199965 85.8 24.74 84.1276467 25.3901478 82.3862812 25.8464594 80.61 26.1 79.8 26.26 79.61 27.03 80.46 27.31L80.46 27.31C81.1655641 27.496078 81.8395827 27.785906 82.46 28.17 82.7183849 28.4087497 82.8323084 28.7657099 82.76 29.11 82.76 31.64 82.76 35.52 82.68 37.63 82.68 38.46 82.41 38.76 81.8 38.91L81.86 38.91C81.3956478 39.0249039 80.9247949 39.1117278 80.45 39.17 80.2627806 39.6559238 80.2627806 40.1940762 80.45 40.68 80.82 40.68 82.78 40.57 84.38 40.57 86.59 40.57 87.74 40.68 88.31 40.68 88.5464598 40.2129565 88.5999552 39.6744357 88.46 39.17 87.9304005 39.1449011 87.4045446 39.0678649 86.89 38.94 86.28 38.79 86.13 38.49 86.09 37.81 86.01 36.04 86.01 32.27 86.01 29.7 85.9480529 29.2436979 86.1035084 28.7847341 86.43 28.46 87.3137086 27.7370045 88.4182489 27.3382407 89.56 27.33 90.4076359 27.2961436 91.2377479 27.5775979 91.89 28.12 92.5088616 28.6487081 92.9052948 29.3915738 93 30.2 93.15 31.63 93.11 34.49 93.11 36.99 93.11 38.35 93 38.69 92.5 38.84 91.9950715 39.0066955 91.4707408 39.1075284 90.94 39.14 90.7498681 39.625378 90.7498681 40.164622 90.94 40.65 91.94 40.65 93.08 40.54 94.75 40.54 96.85 40.54 98.18 40.65 98.75 40.65 98.9864598 40.1829565 99.0399552 39.6444357 98.9 39.14"/>
  </g>
</svg>
