<svg xmlns="http://www.w3.org/2000/svg" width="348" height="63" viewBox="0 0 348 63">
    <g fill="currentColor">
      <polygon points=".282 62.401 92.202 62.401 92.202 .454 .282 .454"/>
      <path d="M116.027344 24.1871L104.515625 24.1871 104.515625 4.19881875 116.027344 4.19881875 116.027344 7.671475 108.753906 7.671475 108.753906 12.0601469 115.521484 12.0601469 115.521484 15.5328031 108.753906 15.5328031 108.753906 20.6871 116.027344 20.6871 116.027344 24.1871zM135.666797 4.19881875L135.666797 17.1324125C135.666797 18.6089824 135.336397 19.9032403 134.675586 21.015225 134.014775 22.1272097 133.060032 22.9794147 131.811328 23.5718656 130.562624 24.1643165 129.086076 24.4605375 127.381641 24.4605375 124.811315 24.4605375 122.815241 23.8020154 121.393359 22.4849516 119.971477 21.1678877 119.260547 19.3654969 119.260547 17.077725L119.260547 4.19881875 123.485156 4.19881875 123.485156 16.4351469C123.485156 17.9755192 123.795049 19.1057162 124.414844 19.8257719 125.034639 20.5458276 126.060019 20.90585 127.491016 20.90585 128.876439 20.90585 129.881312 20.5435489 130.505664 19.8189359 131.130016 19.0943229 131.442187 17.95729 131.442187 16.4078031L131.442187 4.19881875 135.666797 4.19881875zM143.999609 13.0718656L145.366797 13.0718656C146.706647 13.0718656 147.69557 12.8485606 148.333594 12.4019437 148.971618 11.9553269 149.290625 11.253511 149.290625 10.296475 149.290625 9.34855359 148.964782 8.67408117 148.313086 8.2730375 147.66139 7.87199383 146.65196 7.671475 145.284766 7.671475L143.999609 7.671475 143.999609 13.0718656zM143.999609 16.5171781L143.999609 24.1871 139.761328 24.1871 139.761328 4.19881875 145.585547 4.19881875C148.301706 4.19881875 150.311452 4.69327995 151.614844 5.68221719 152.918236 6.67115442 153.569922 8.17276701 153.569922 10.1871 153.569922 11.3628871 153.246357 12.4087751 152.599219 13.3247953 151.95208 14.2408155 151.036074 14.9585818 149.851172 15.4781156 152.858999 19.9716277 154.818615 22.8745934 155.730078 24.1871L151.026953 24.1871 146.255469 16.5171781 143.999609 16.5171781zM175.588281 14.1656156C175.588281 17.4742259 174.767977 20.0171692 173.127344 21.7945219 171.486711 23.5718745 169.135172 24.4605375 166.072656 24.4605375 163.010141 24.4605375 160.658602 23.5718745 159.017969 21.7945219 157.377336 20.0171692 156.557031 17.4651114 156.557031 14.1382719 156.557031 10.8114323 157.379614 8.27076763 159.024805 6.51620156 160.669995 4.7616355 163.02837 3.88436562 166.1 3.88436562 169.17163 3.88436562 171.52089 4.76847137 173.147852 6.53670937 174.774813 8.30494738 175.588281 10.8478907 175.588281 14.1656156zM161.000391 14.1656156C161.000391 16.3986997 161.424214 18.0803235 162.271875 19.2105375 163.119535 20.3407515 164.38645 20.90585 166.072656 20.90585 169.454184 20.90585 171.144922 18.6591277 171.144922 14.1656156 171.144922 9.66298895 169.463298 7.41170937 166.1 7.41170937 164.413794 7.41170937 163.142322 7.97908651 162.285547 9.11385781 161.428772 10.2486291 161.000391 11.9325315 161.000391 14.1656156zM183.169141 13.6050687L184.563672 13.6050687C185.867064 13.6050687 186.842314 13.3475843 187.489453 12.8326078 188.136592 12.3176313 188.460156 11.5679643 188.460156 10.5835844 188.460156 9.59008982 188.189 8.8563732 187.64668 8.3824125 187.104359 7.9084518 186.254433 7.671475 185.096875 7.671475L183.169141 7.671475 183.169141 13.6050687zM192.739453 10.4331937C192.739453 12.5842462 192.067259 14.229412 190.722852 15.3687406 189.378444 16.5080692 187.466679 17.077725 184.9875 17.077725L183.169141 17.077725 183.169141 24.1871 178.930859 24.1871 178.930859 4.19881875 185.315625 4.19881875C187.740116 4.19881875 189.583522 4.72062343 190.845898 5.76424844 192.108274 6.80787345 192.739453 8.36417299 192.739453 10.4331937zM207.224609 24.1871L195.712891 24.1871 195.712891 4.19881875 207.224609 4.19881875 207.224609 7.671475 199.951172 7.671475 199.951172 12.0601469 206.71875 12.0601469 206.71875 15.5328031 199.951172 15.5328031 199.951172 20.6871 207.224609 20.6871 207.224609 24.1871zM222.830859 24.1871L221.381641 19.4292875 214.094531 19.4292875 212.645312 24.1871 208.078906 24.1871 215.133594 4.1167875 220.315234 4.1167875 227.397266 24.1871 222.830859 24.1871zM220.369922 15.8746C219.030071 11.5633805 218.275847 9.12525387 218.107226 8.56014687 217.938606 7.99503988 217.817839 7.54842977 217.744922 7.22030312 217.444139 8.38697562 216.58282 11.2717124 215.160937 15.8746L220.369922 15.8746zM246.845312 24.1871L241.458594 24.1871 232.763281 9.06600625 232.640234 9.06600625C232.813412 11.7365925 232.9 13.6415214 232.9 14.78085L232.9 24.1871 229.112891 24.1871 229.112891 4.19881875 234.458594 4.19881875 243.140234 19.1695219 243.235937 19.1695219C243.099218 16.5718526 243.030859 14.7352825 243.030859 13.6597562L243.030859 4.19881875 246.845312 4.19881875 246.845312 24.1871zM273.819531 4.19881875L273.819531 17.1324125C273.819531 18.6089824 273.489131 19.9032403 272.82832 21.015225 272.16751 22.1272097 271.212767 22.9794147 269.964062 23.5718656 268.715358 24.1643165 267.23881 24.4605375 265.534375 24.4605375 262.96405 24.4605375 260.967976 23.8020154 259.546094 22.4849516 258.124212 21.1678877 257.413281 19.3654969 257.413281 17.077725L257.413281 4.19881875 261.637891 4.19881875 261.637891 16.4351469C261.637891 17.9755192 261.947783 19.1057162 262.567578 19.8257719 263.187373 20.5458276 264.212753 20.90585 265.64375 20.90585 267.029173 20.90585 268.034046 20.5435489 268.658398 19.8189359 269.28275 19.0943229 269.594922 17.95729 269.594922 16.4078031L269.594922 4.19881875 273.819531 4.19881875zM295.646484 24.1871L290.259766 24.1871 281.564453 9.06600625 281.441406 9.06600625C281.614584 11.7365925 281.701172 13.6415214 281.701172 14.78085L281.701172 24.1871 277.914062 24.1871 277.914062 4.19881875 283.259766 4.19881875 291.941406 19.1695219 292.037109 19.1695219C291.90039 16.5718526 291.832031 14.7352825 291.832031 13.6597562L291.832031 4.19881875 295.646484 4.19881875 295.646484 24.1871zM299.877734 24.1871L299.877734 4.19881875 304.116015 4.19881875 304.116015 24.1871 299.877734 24.1871zM326.489844 14.1656156C326.489844 17.4742259 325.669539 20.0171692 324.028906 21.7945219 322.388273 23.5718745 320.036734 24.4605375 316.974219 24.4605375 313.911703 24.4605375 311.560164 23.5718745 309.919531 21.7945219 308.278898 20.0171692 307.458594 17.4651114 307.458594 14.1382719 307.458594 10.8114323 308.281177 8.27076763 309.926367 6.51620156 311.571558 4.7616355 313.929932 3.88436562 317.001562 3.88436562 320.073192 3.88436562 322.422453 4.76847137 324.049414 6.53670937 325.676375 8.30494738 326.489844 10.8478907 326.489844 14.1656156zM311.901953 14.1656156C311.901953 16.3986997 312.325777 18.0803235 313.173437 19.2105375 314.021098 20.3407515 315.288012 20.90585 316.974219 20.90585 320.355746 20.90585 322.046484 18.6591277 322.046484 14.1656156 322.046484 9.66298895 320.36486 7.41170937 317.001562 7.41170937 315.315356 7.41170937 314.043884 7.97908651 313.187109 9.11385781 312.330334 10.2486291 311.901953 11.9325315 311.901953 14.1656156zM347.564844 24.1871L342.178125 24.1871 333.482812 9.06600625 333.359765 9.06600625C333.532943 11.7365925 333.619531 13.6415214 333.619531 14.78085L333.619531 24.1871 329.832422 24.1871 329.832422 4.19881875 335.178125 4.19881875 343.859765 19.1695219 343.955469 19.1695219C343.818749 16.5718526 343.75039 14.7352825 343.75039 13.6597562L343.75039 4.19881875 347.564844 4.19881875 347.564844 24.1871zM109.945312 43L104.374023 43 104.374023 33.0058594 109.945312 33.0058594 109.945312 34.0380859 105.536133 34.0380859 105.536133 37.2578125 109.678711 37.2578125 109.678711 38.2832031 105.536133 38.2832031 105.536133 41.9609375 109.945312 41.9609375 109.945312 43zM112.455664 35.5078125L112.455664 40.3681641C112.455664 40.9788442 112.59466 41.4345688 112.872656 41.7353516 113.150652 42.0361343 113.585869 42.1865234 114.17832 42.1865234 114.962178 42.1865234 115.535252 41.9723329 115.897559 41.5439453 116.259865 41.1155578 116.441016 40.4160205 116.441016 39.4453125L116.441016 35.5078125 117.575781 35.5078125 117.575781 43 116.639258 43 116.475195 41.9951172 116.413672 41.9951172C116.181249 42.3642597 115.858824 42.6468089 115.446387 42.8427734 115.03395 43.038738 114.563414 43.1367188 114.034766 43.1367188 113.123303 43.1367188 112.440855 42.9202496 111.987402 42.4873047 111.53395 42.0543598 111.307227 41.3616584 111.307227 40.4091797L111.307227 35.5078125 112.455664 35.5078125zM122.8 35.3710938C123.132684 35.3710938 123.431184 35.3984372 123.695508 35.453125L123.538281 36.5058594C123.228384 36.4374997 122.954949 36.4033203 122.717969 36.4033203 122.111846 36.4033203 121.593459 36.6494116 121.162793 37.1416016 120.732127 37.6337915 120.516797 38.2467411 120.516797 38.9804688L120.516797 43 119.382031 43 119.382031 35.5078125 120.318555 35.5078125 120.448437 36.8955078 120.503125 36.8955078C120.781121 36.4078752 121.116079 36.0319024 121.508008 35.7675781 121.899937 35.5032539 122.330597 35.3710938 122.8 35.3710938zM130.683398 39.2470703C130.683398 40.4684306 130.375784 41.4220343 129.760547 42.1079102 129.145309 42.793786 128.295383 43.1367188 127.210742 43.1367188 126.540817 43.1367188 125.946096 42.9794938 125.426562 42.6650391 124.907029 42.3505844 124.505991 41.899417 124.223437 41.3115234 123.940884 40.7236299 123.799609 40.0354857 123.799609 39.2470703 123.799609 38.02571 124.104945 37.0743849 124.715625 36.3930664 125.326305 35.7117479 126.173953 35.3710938 127.258594 35.3710938 128.306776 35.3710938 129.139613 35.7197231 129.757129 36.4169922 130.374645 37.1142613 130.683398 38.0576112 130.683398 39.2470703zM124.975391 39.2470703C124.975391 40.2041063 125.166795 40.9332657 125.549609 41.4345703 125.932424 41.9358749 126.495244 42.1865234 127.238086 42.1865234 127.980928 42.1865234 128.544887 41.9370142 128.92998 41.4379883 129.315073 40.9389623 129.507617 40.2086637 129.507617 39.2470703 129.507617 38.2945916 129.315073 37.5711288 128.92998 37.0766602 128.544887 36.5821915 127.976371 36.3349609 127.224414 36.3349609 126.481572 36.3349609 125.92103 36.5787736 125.542773 37.0664062 125.164516 37.5540389 124.975391 38.2809196 124.975391 39.2470703zM135.558984 43.1367188C135.071352 43.1367188 134.625881 43.0467131 134.222558 42.8666992 133.819236 42.6866853 133.480861 42.4098326 133.207422 42.0361328L133.125391 42.0361328C133.180078 42.473635 133.207422 42.8883444 133.207422 43.2802734L133.207422 46.3632812 132.072656 46.3632812 132.072656 35.5078125 132.995508 35.5078125 133.152734 36.5332031 133.207422 36.5332031C133.49909 36.1230448 133.838605 35.8268238 134.225976 35.6445312 134.613348 35.4622387 135.05768 35.3710938 135.558984 35.3710938 136.552479 35.3710938 137.319235 35.7106086 137.859277 36.3896484 138.399319 37.0686883 138.669336 38.0211527 138.669336 39.2470703 138.669336 40.4775452 138.394762 41.4334276 137.845605 42.1147461 137.296449 42.7960646 136.53425 43.1367188 135.558984 43.1367188zM135.394922 36.3349609C134.629293 36.3349609 134.075588 36.5468729 133.733789 36.9707031 133.39199 37.3945334 133.216536 38.0690058 133.207422 38.9941406L133.207422 39.2470703C133.207422 40.29981 133.382876 41.0528949 133.733789 41.5063477 134.084702 41.9598004 134.647522 42.1865234 135.422266 42.1865234 136.069404 42.1865234 136.576398 41.9244818 136.943262 41.4003906 137.310125 40.8762995 137.493555 40.153976 137.493555 39.2333984 137.493555 38.299149 137.310125 37.582522 136.943262 37.0834961 136.576398 36.5844702 136.06029 36.3349609 135.394922 36.3349609zM143.216797 43.1367188C142.109369 43.1367188 141.235517 42.7994825 140.595215 42.125 139.954912 41.4505175 139.634766 40.5140034 139.634766 39.3154297 139.634766 38.1077414 139.932126 37.1484411 140.526855 36.4375 141.121585 35.7265589 141.920242 35.3710938 142.922851 35.3710938 143.861658 35.3710938 144.604489 35.6798472 145.151367 36.2973633 145.698245 36.9148794 145.97168 37.7294871 145.97168 38.7412109L145.97168 39.4589844 140.810547 39.4589844C140.833333 40.3385461 141.055499 41.0061826 141.477051 41.4619141 141.898602 41.9176455 142.492184 42.1455078 143.257812 42.1455078 144.064457 42.1455078 144.861975 41.9768897 145.650391 41.6396484L145.650391 42.6513672C145.249347 42.8245451 144.869956 42.9487301 144.512207 43.0239258 144.154458 43.0991215 143.722659 43.1367188 143.216797 43.1367188zM142.90918 36.3212891C142.307614 36.3212891 141.827964 36.5172506 141.470215 36.9091797 141.112466 37.3011087 140.901693 37.843421 140.837891 38.5361328L144.754883 38.5361328C144.754883 37.8206344 144.595379 37.2726256 144.276367 36.8920898 143.957355 36.5115541 143.50163 36.3212891 142.90918 36.3212891zM151.913672 43L151.688086 41.9335938 151.633398 41.9335938C151.259699 42.4029971 150.887144 42.7208651 150.515723 42.887207 150.144301 43.053549 149.680602 43.1367188 149.124609 43.1367188 148.381767 43.1367188 147.799579 42.9453144 147.378027 42.5625 146.956476 42.1796856 146.745703 41.6350947 146.745703 40.9287109 146.745703 39.4156825 147.955652 38.6227217 150.375586 38.5498047L151.64707 38.5087891 151.64707 38.0439453C151.64707 37.4560517 151.520607 37.0219741 151.267676 36.7416992 151.014745 36.4614244 150.610289 36.3212891 150.054297 36.3212891 149.429945 36.3212891 148.723572 36.5126934 147.935156 36.8955078L147.586523 36.0273438C147.955666 35.8268219 148.360121 35.6695969 148.799902 35.5556641 149.239683 35.4417312 149.680597 35.3847656 150.122656 35.3847656 151.01589 35.3847656 151.67783 35.5830058 152.108496 35.9794922 152.539162 36.3759785 152.754492 37.0117144 152.754492 37.8867188L152.754492 43 151.913672 43zM149.350195 42.2001953C150.056579 42.2001953 150.611424 42.0065124 151.014746 41.6191406 151.418068 41.2317689 151.619726 40.6894566 151.619726 39.9921875L151.619726 39.3154297 150.484961 39.3632812C149.582613 39.3951825 148.932066 39.5353178 148.533301 39.7836914 148.134536 40.032065 147.935156 40.4182917 147.935156 40.9423828 147.935156 41.3525411 148.059341 41.6647125 148.307715 41.8789062 148.556088 42.0931 148.903578 42.2001953 149.350195 42.2001953zM159.619336 43L159.619336 38.1533203C159.619336 37.5426402 159.48034 37.0869156 159.202344 36.7861328 158.924347 36.4853501 158.48913 36.3349609 157.89668 36.3349609 157.112821 36.3349609 156.538608 36.5468729 156.174023 36.9707031 155.809438 37.3945334 155.627148 38.0940706 155.627148 39.0693359L155.627148 43 154.492383 43 154.492383 35.5078125 155.415234 35.5078125 155.599805 36.5332031 155.654492 36.5332031C155.886915 36.1640607 156.212758 35.8780935 156.632031 35.675293 157.051304 35.4724925 157.518422 35.3710938 158.033398 35.3710938 158.935747 35.3710938 159.614776 35.5887023 160.070508 36.0239258 160.526239 36.4591493 160.754101 37.1552687 160.754101 38.1123047L160.754101 43 159.619336 43zM166.854883 38.84375L166.854883 43 165.692773 43 165.692773 33.0058594 168.433984 33.0058594C169.659902 33.0058594 170.565654 33.2405575 171.151269 33.7099609 171.736884 34.1793643 172.029687 34.8857375 172.029687 35.8291016 172.029687 37.1507228 171.359772 38.043943 170.019922 38.5087891L172.733789 43 171.359765 43 168.939844 38.84375 166.854883 38.84375zM166.854883 37.8457031L168.447656 37.8457031C169.267973 37.8457031 169.869529 37.6827816 170.252344 37.3569336 170.635158 37.0310856 170.826562 36.542321 170.826562 35.890625 170.826562 35.2298144 170.63174 34.7535822 170.24209 34.4619141 169.852439 34.1702459 169.226957 34.0244141 168.365625 34.0244141L166.854883 34.0244141 166.854883 37.8457031zM176.741211 43.1367188C175.633783 43.1367188 174.759931 42.7994825 174.119629 42.125 173.479326 41.4505175 173.159179 40.5140034 173.159179 39.3154297 173.159179 38.1077414 173.45654 37.1484411 174.051269 36.4375 174.645999 35.7265589 175.444656 35.3710938 176.447265 35.3710938 177.386072 35.3710938 178.128903 35.6798472 178.675781 36.2973633 179.222659 36.9148794 179.496094 37.7294871 179.496094 38.7412109L179.496094 39.4589844 174.334961 39.4589844C174.357747 40.3385461 174.579913 41.0061826 175.001465 41.4619141 175.423016 41.9176455 176.016597 42.1455078 176.782226 42.1455078 177.588871 42.1455078 178.386389 41.9768897 179.174804 41.6396484L179.174804 42.6513672C178.773761 42.8245451 178.39437 42.9487301 178.036621 43.0239258 177.678872 43.0991215 177.247073 43.1367188 176.741211 43.1367188zM176.433594 36.3212891C175.832028 36.3212891 175.352378 36.5172506 174.994629 36.9091797 174.636879 37.3011087 174.426107 37.843421 174.362304 38.5361328L178.279297 38.5361328C178.279297 37.8206344 178.119793 37.2726256 177.800781 36.8920898 177.481769 36.5115541 177.026044 36.3212891 176.433594 36.3212891zM186.9625 35.5078125L186.9625 36.2255859 185.574804 36.3896484C185.702409 36.5491544 185.81634 36.7576485 185.916601 37.0151367 186.016862 37.272625 186.066992 37.5631494 186.066992 37.8867188 186.066992 38.6204464 185.816343 39.2060525 185.315039 39.6435547 184.813734 40.0810569 184.12559 40.2998047 183.250586 40.2998047 183.027277 40.2998047 182.817644 40.2815757 182.621679 40.2451172 182.138604 40.5003268 181.89707 40.8216126 181.89707 41.2089844 181.89707 41.4140635 181.981379 41.565592 182.15 41.6635742 182.31862 41.7615565 182.608005 41.8105469 183.018164 41.8105469L184.344336 41.8105469C185.155538 41.8105469 185.778741 41.9814436 186.213965 42.3232422 186.649188 42.6650408 186.866797 43.1617806 186.866797 43.8134766 186.866797 44.6429078 186.534118 45.2752257 185.86875 45.7104492 185.203382 46.1456727 184.232688 46.3632812 182.95664 46.3632812 181.976818 46.3632812 181.221454 46.1809914 180.690527 45.8164062 180.1596 45.4518211 179.89414 44.9368523 179.89414 44.2714844 179.89414 43.8157529 180.039972 43.4215511 180.33164 43.0888672 180.623308 42.7561832 181.033461 42.5305996 181.562109 42.4121094 181.370702 42.3255204 181.210059 42.1910816 181.080176 42.0087891 180.950292 41.8264965 180.885351 41.6145845 180.885351 41.3730469 180.885351 41.099608 180.958267 40.8603526 181.104101 40.6552734 181.249935 40.4501943 181.480076 40.2519541 181.794531 40.0605469 181.407159 39.9010409 181.09157 39.6298847 180.847754 39.2470703 180.603937 38.8642559 180.482031 38.4267603 180.482031 37.9345703 180.482031 37.1142537 180.728122 36.4819358 181.220312 36.0375977 181.712502 35.5932595 182.409761 35.3710938 183.312109 35.3710938 183.704038 35.3710938 184.057225 35.4166662 184.371679 35.5078125L186.9625 35.5078125zM180.98789 44.2578125C180.98789 44.6634135 181.158787 44.9710276 181.500586 45.1806641 181.842384 45.3903005 182.332288 45.4951172 182.970312 45.4951172 183.922791 45.4951172 184.628025 45.3527032 185.086035 45.0678711 185.544045 44.7830389 185.773047 44.3968123 185.773047 43.9091797 185.773047 43.5035787 185.647722 43.2221688 185.39707 43.0649414 185.146418 42.9077141 184.674743 42.8291016 183.982031 42.8291016L182.621679 42.8291016C182.106703 42.8291016 181.705665 42.9521472 181.418554 43.1982422 181.131444 43.4443372 180.98789 43.7975237 180.98789 44.2578125zM181.603125 37.9072266C181.603125 38.4313177 181.751235 38.8277981 182.047461 39.0966797 182.343686 39.3655612 182.756117 39.5 183.284765 39.5 184.392193 39.5 184.945898 38.962245 184.945898 37.8867188 184.945898 36.7610621 184.385357 36.1982422 183.264258 36.1982422 182.731052 36.1982422 182.3209 36.3417954 182.033789 36.6289062 181.746678 36.9160171 181.603125 37.3421196 181.603125 37.9072266zM189.035351 43L187.900586 43 187.900586 35.5078125 189.035351 35.5078125 189.035351 43zM187.804883 33.4775391C187.804883 33.2177721 187.868684 33.0275071 187.996289 32.9067383 188.123894 32.7859694 188.283397 32.7255859 188.474804 32.7255859 188.657097 32.7255859 188.814322 32.7871088 188.946484 32.9101562 189.078646 33.0332037 189.144726 33.2223295 189.144726 33.4775391 189.144726 33.7327487 189.078646 33.9230137 188.946484 34.0483398 188.814322 34.173666 188.657097 34.2363281 188.474804 34.2363281 188.283397 34.2363281 188.123894 34.173666 187.996289 34.0483398 187.868684 33.9230137 187.804883 33.7327487 187.804883 33.4775391zM197.308398 39.2470703C197.308398 40.4684306 197.000784 41.4220343 196.385547 42.1079102 195.770309 42.793786 194.920383 43.1367188 193.835742 43.1367188 193.165817 43.1367188 192.571096 42.9794938 192.051562 42.6650391 191.532028 42.3505844 191.130991 41.899417 190.848437 41.3115234 190.565884 40.7236299 190.424609 40.0354857 190.424609 39.2470703 190.424609 38.02571 190.729945 37.0743849 191.340625 36.3930664 191.951305 35.7117479 192.798953 35.3710938 193.883593 35.3710938 194.931776 35.3710938 195.764612 35.7197231 196.382129 36.4169922 196.999645 37.1142613 197.308398 38.0576112 197.308398 39.2470703zM191.60039 39.2470703C191.60039 40.2041063 191.791795 40.9332657 192.174609 41.4345703 192.557423 41.9358749 193.120243 42.1865234 193.863086 42.1865234 194.605928 42.1865234 195.169887 41.9370142 195.55498 41.4379883 195.940073 40.9389623 196.132617 40.2086637 196.132617 39.2470703 196.132617 38.2945916 195.940073 37.5711288 195.55498 37.0766602 195.169887 36.5821915 194.601371 36.3349609 193.849414 36.3349609 193.106571 36.3349609 192.54603 36.5787736 192.167773 37.0664062 191.789516 37.5540389 191.60039 38.2809196 191.60039 39.2470703zM203.824609 43L203.824609 38.1533203C203.824609 37.5426402 203.685613 37.0869156 203.407617 36.7861328 203.129621 36.4853501 202.694404 36.3349609 202.101953 36.3349609 201.318095 36.3349609 200.743882 36.5468729 200.379297 36.9707031 200.014711 37.3945334 199.832422 38.0940706 199.832422 39.0693359L199.832422 43 198.697656 43 198.697656 35.5078125 199.620507 35.5078125 199.805078 36.5332031 199.859765 36.5332031C200.092188 36.1640607 200.418031 35.8780935 200.837304 35.675293 201.256577 35.4724925 201.723695 35.3710938 202.238672 35.3710938 203.14102 35.3710938 203.820049 35.5887023 204.275781 36.0239258 204.731512 36.4591493 204.959375 37.1552687 204.959375 38.1123047L204.959375 43 203.824609 43zM211.297851 43L211.072265 41.9335938 211.017578 41.9335938C210.643878 42.4029971 210.271323 42.7208651 209.899902 42.887207 209.528481 43.053549 209.064781 43.1367188 208.508789 43.1367188 207.765946 43.1367188 207.183758 42.9453144 206.762207 42.5625 206.340655 42.1796856 206.129882 41.6350947 206.129882 40.9287109 206.129882 39.4156825 207.339831 38.6227217 209.759765 38.5498047L211.03125 38.5087891 211.03125 38.0439453C211.03125 37.4560517 210.904786 37.0219741 210.651855 36.7416992 210.398924 36.4614244 209.994469 36.3212891 209.438476 36.3212891 208.814124 36.3212891 208.107751 36.5126934 207.319336 36.8955078L206.970703 36.0273438C207.339845 35.8268219 207.744301 35.6695969 208.184082 35.5556641 208.623863 35.4417312 209.064776 35.3847656 209.506836 35.3847656 210.400069 35.3847656 211.062009 35.5830058 211.492675 35.9794922 211.923342 36.3759785 212.138672 37.0117144 212.138672 37.8867188L212.138672 43 211.297851 43zM208.734375 42.2001953C209.440758 42.2001953 209.995603 42.0065124 210.398925 41.6191406 210.802248 41.2317689 211.003906 40.6894566 211.003906 39.9921875L211.003906 39.3154297 209.86914 39.3632812C208.966792 39.3951825 208.316245 39.5353178 207.91748 39.7836914 207.518715 40.032065 207.319336 40.4182917 207.319336 40.9423828 207.319336 41.3525411 207.443521 41.6647125 207.691894 41.8789062 207.940268 42.0931 208.287758 42.2001953 208.734375 42.2001953zM215.011328 43L213.876562 43 213.876562 32.3632812 215.011328 32.3632812 215.011328 43zM228.002734 37.9072266C228.002734 39.5569744 227.554985 40.8181923 226.659472 41.690918 225.76396 42.5636437 224.475399 43 222.79375 43L220.025195 43 220.025195 33.0058594 223.087695 33.0058594C224.641739 33.0058594 225.849409 33.4365191 226.710742 34.2978516 227.572074 35.159184 228.002734 36.362297 228.002734 37.9072266zM226.772265 37.9482422C226.772265 36.6448503 226.445283 35.6627637 225.791308 35.0019531 225.137334 34.3411425 224.165501 34.0107422 222.875781 34.0107422L221.187304 34.0107422 221.187304 41.9951172 222.602343 41.9951172C223.987767 41.9951172 225.029098 41.654463 225.726367 40.9731445 226.423636 40.291826 226.772265 39.2835353 226.772265 37.9482422zM232.62539 43.1367188C231.517963 43.1367188 230.644111 42.7994825 230.003808 42.125 229.363505 41.4505175 229.043359 40.5140034 229.043359 39.3154297 229.043359 38.1077414 229.340719 37.1484411 229.935449 36.4375 230.530178 35.7265589 231.328836 35.3710938 232.331445 35.3710938 233.270252 35.3710938 234.013083 35.6798472 234.55996 36.2973633 235.106838 36.9148794 235.380273 37.7294871 235.380273 38.7412109L235.380273 39.4589844 230.21914 39.4589844C230.241927 40.3385461 230.464092 41.0061826 230.885644 41.4619141 231.307196 41.9176455 231.900777 42.1455078 232.666406 42.1455078 233.47305 42.1455078 234.270569 41.9768897 235.058984 41.6396484L235.058984 42.6513672C234.65794 42.8245451 234.27855 42.9487301 233.9208 43.0239258 233.563051 43.0991215 233.131252 43.1367188 232.62539 43.1367188zM232.317773 36.3212891C231.716207 36.3212891 231.236557 36.5172506 230.878808 36.9091797 230.521059 37.3011087 230.310286 37.843421 230.246484 38.5361328L234.163476 38.5361328C234.163476 37.8206344 234.003972 37.2726256 233.68496 36.8920898 233.365948 36.5115541 232.910224 36.3212891 232.317773 36.3212891zM238.075195 43L235.231445 35.5078125 236.448242 35.5078125 238.061523 39.9511719C238.426108 40.9902396 238.640299 41.664712 238.704101 41.9746094L238.758789 41.9746094C238.808919 41.7330717 238.967283 41.232914 239.233886 40.4741211 239.500489 39.7153282 240.098628 38.0599086 241.02832 35.5078125L242.245117 35.5078125 239.401367 43 238.075195 43zM246.013281 43.1367188C244.905853 43.1367188 244.032001 42.7994825 243.391699 42.125 242.751396 41.4505175 242.431249 40.5140034 242.431249 39.3154297 242.431249 38.1077414 242.72861 37.1484411 243.323339 36.4375 243.918069 35.7265589 244.716726 35.3710938 245.719335 35.3710938 246.658142 35.3710938 247.400973 35.6798472 247.947851 36.2973633 248.494729 36.9148794 248.768164 37.7294871 248.768164 38.7412109L248.768164 39.4589844 243.607031 39.4589844C243.629817 40.3385461 243.851983 41.0061826 244.273535 41.4619141 244.695086 41.9176455 245.288668 42.1455078 246.054296 42.1455078 246.860941 42.1455078 247.658459 41.9768897 248.446874 41.6396484L248.446874 42.6513672C248.045831 42.8245451 247.66644 42.9487301 247.308691 43.0239258 246.950942 43.0991215 246.519143 43.1367188 246.013281 43.1367188zM245.705664 36.3212891C245.104098 36.3212891 244.624448 36.5172506 244.266699 36.9091797 243.90895 37.3011087 243.698177 37.843421 243.634374 38.5361328L247.551367 38.5361328C247.551367 37.8206344 247.391863 37.2726256 247.072851 36.8920898 246.753839 36.5115541 246.298114 36.3212891 245.705664 36.3212891zM251.237499 43L250.102734 43 250.102734 32.3632812 251.237499 32.3632812 251.237499 43zM259.510546 39.2470703C259.510546 40.4684306 259.202932 41.4220343 258.587695 42.1079102 257.972457 42.793786 257.122531 43.1367188 256.03789 43.1367188 255.367965 43.1367188 254.773244 42.9794938 254.25371 42.6650391 253.734177 42.3505844 253.333139 41.899417 253.050585 41.3115234 252.768032 40.7236299 252.626757 40.0354857 252.626757 39.2470703 252.626757 38.02571 252.932093 37.0743849 253.542773 36.3930664 254.153453 35.7117479 255.001101 35.3710938 256.085742 35.3710938 257.133924 35.3710938 257.966761 35.7197231 258.584277 36.4169922 259.201793 37.1142613 259.510546 38.0576112 259.510546 39.2470703zM253.802539 39.2470703C253.802539 40.2041063 253.993943 40.9332657 254.376757 41.4345703 254.759572 41.9358749 255.322392 42.1865234 256.065234 42.1865234 256.808076 42.1865234 257.372035 41.9370142 257.757128 41.4379883 258.142221 40.9389623 258.334765 40.2086637 258.334765 39.2470703 258.334765 38.2945916 258.142221 37.5711288 257.757128 37.0766602 257.372035 36.5821915 256.803519 36.3349609 256.051562 36.3349609 255.30872 36.3349609 254.748178 36.5787736 254.369921 37.0664062 253.991664 37.5540389 253.802539 38.2809196 253.802539 39.2470703zM264.386132 43.1367188C263.8985 43.1367188 263.453029 43.0467131 263.049706 42.8666992 262.646384 42.6866853 262.308009 42.4098326 262.03457 42.0361328L261.952538 42.0361328C262.007226 42.473635 262.03457 42.8883444 262.03457 43.2802734L262.03457 46.3632812 260.899804 46.3632812 260.899804 35.5078125 261.822656 35.5078125 261.979882 36.5332031 262.03457 36.5332031C262.326238 36.1230448 262.665753 35.8268238 263.053124 35.6445312 263.440496 35.4622387 263.884828 35.3710938 264.386132 35.3710938 265.379627 35.3710938 266.146383 35.7106086 266.686425 36.3896484 267.226467 37.0686883 267.496484 38.0211527 267.496484 39.2470703 267.496484 40.4775452 267.22191 41.4334276 266.672753 42.1147461 266.123597 42.7960646 265.361398 43.1367188 264.386132 43.1367188zM264.22207 36.3349609C263.456441 36.3349609 262.902736 36.5468729 262.560937 36.9707031 262.219138 37.3945334 262.043684 38.0690058 262.03457 38.9941406L262.03457 39.2470703C262.03457 40.29981 262.210024 41.0528949 262.560937 41.5063477 262.91185 41.9598004 263.47467 42.1865234 264.249413 42.1865234 264.896552 42.1865234 265.403546 41.9244818 265.77041 41.4003906 266.137273 40.8762995 266.320703 40.153976 266.320703 39.2333984 266.320703 38.299149 266.137273 37.582522 265.77041 37.0834961 265.403546 36.5844702 264.887438 36.3349609 264.22207 36.3349609zM278.42871 43L278.42871 38.1259766C278.42871 37.5289684 278.301107 37.0812189 278.045898 36.7827148 277.790688 36.4842107 277.394208 36.3349609 276.856445 36.3349609 276.150061 36.3349609 275.628256 36.5377584 275.291015 36.9433594 274.953774 37.3489604 274.785156 37.9733031 274.785156 38.8164062L274.785156 43 273.65039 43 273.65039 38.1259766C273.65039 37.5289684 273.522787 37.0812189 273.267578 36.7827148 273.012368 36.4842107 272.613609 36.3349609 272.071288 36.3349609 271.360347 36.3349609 270.839682 36.5480122 270.509277 36.9741211 270.178871 37.40023 270.013671 38.098628 270.013671 39.0693359L270.013671 43 268.878906 43 268.878906 35.5078125 269.801757 35.5078125 269.986328 36.5332031 270.041015 36.5332031C270.255209 36.168618 270.557126 35.8837901 270.946777 35.6787109 271.336427 35.4736318 271.772783 35.3710938 272.255859 35.3710938 273.427089 35.3710938 274.192706 35.7949176 274.552734 36.6425781L274.607421 36.6425781C274.83073 36.2506491 275.154294 35.9407563 275.578124 35.7128906 276.001955 35.4850249 276.485023 35.3710938 277.027343 35.3710938 277.875004 35.3710938 278.5096 35.5887023 278.931152 36.0239258 279.352703 36.4591493 279.563476 37.1552687 279.563476 38.1123047L279.563476 43 278.42871 43zM284.466406 43.1367188C283.358978 43.1367188 282.485126 42.7994825 281.844824 42.125 281.204521 41.4505175 280.884374 40.5140034 280.884374 39.3154297 280.884374 38.1077414 281.181735 37.1484411 281.776464 36.4375 282.371194 35.7265589 283.169851 35.3710938 284.17246 35.3710938 285.111267 35.3710938 285.854098 35.6798472 286.400976 36.2973633 286.947854 36.9148794 287.221288 37.7294871 287.221288 38.7412109L287.221288 39.4589844 282.060156 39.4589844C282.082942 40.3385461 282.305108 41.0061826 282.72666 41.4619141 283.148211 41.9176455 283.741792 42.1455078 284.507421 42.1455078 285.314066 42.1455078 286.111584 41.9768897 286.899999 41.6396484L286.899999 42.6513672C286.498956 42.8245451 286.119565 42.9487301 285.761816 43.0239258 285.404067 43.0991215 284.972268 43.1367188 284.466406 43.1367188zM284.158788 36.3212891C283.557223 36.3212891 283.077573 36.5172506 282.719824 36.9091797 282.362074 37.3011087 282.151302 37.843421 282.087499 38.5361328L286.004492 38.5361328C286.004492 37.8206344 285.844988 37.2726256 285.525976 36.8920898 285.206964 36.5115541 284.751239 36.3212891 284.158788 36.3212891zM293.682812 43L293.682812 38.1533203C293.682812 37.5426402 293.543816 37.0869156 293.26582 36.7861328 292.987823 36.4853501 292.552606 36.3349609 291.960156 36.3349609 291.176298 36.3349609 290.602085 36.5468729 290.237499 36.9707031 289.872914 37.3945334 289.690624 38.0940706 289.690624 39.0693359L289.690624 43 288.555859 43 288.555859 35.5078125 289.47871 35.5078125 289.663281 36.5332031 289.717968 36.5332031C289.950391 36.1640607 290.276234 35.8780935 290.695507 35.675293 291.11478 35.4724925 291.581898 35.3710938 292.096874 35.3710938 292.999223 35.3710938 293.678252 35.5887023 294.133984 36.0239258 294.589715 36.4591493 294.817577 37.1552687 294.817577 38.1123047L294.817577 43 293.682812 43zM298.968554 42.2001953C299.169076 42.2001953 299.362759 42.1853843 299.549609 42.1557617 299.736459 42.1261392 299.884569 42.0953778 299.993945 42.0634766L299.993945 42.9316406C299.870897 42.9908857 299.689747 43.0398761 299.450488 43.0786133 299.211229 43.1173505 298.995899 43.1367188 298.804492 43.1367188 297.355266 43.1367188 296.630663 42.37338 296.630663 40.8466797L296.630663 36.3896484 295.557421 36.3896484 295.557421 35.8427734 296.630663 35.3710938 297.109179 33.7714844 297.765429 33.7714844 297.765429 35.5078125 299.939257 35.5078125 299.939257 36.3896484 297.765429 36.3896484 297.765429 40.7988281C297.765429 41.2500023 297.872524 41.596353 298.086718 41.8378906 298.300912 42.0794283 298.594854 42.2001953 298.968554 42.2001953zM305.260741 43L304.098632 43 304.098632 33.0058594 309.669921 33.0058594 309.669921 34.0380859 305.260741 34.0380859 305.260741 37.6953125 309.40332 37.6953125 309.40332 38.7275391 305.260741 38.7275391 305.260741 43zM311.619726 35.5078125L311.619726 40.3681641C311.619726 40.9788442 311.758722 41.4345688 312.036718 41.7353516 312.314714 42.0361343 312.749931 42.1865234 313.342382 42.1865234 314.12624 42.1865234 314.699314 41.9723329 315.06162 41.5439453 315.423927 41.1155578 315.605077 40.4160205 315.605077 39.4453125L315.605077 35.5078125 316.739843 35.5078125 316.739843 43 315.80332 43 315.639257 41.9951172 315.577734 41.9951172C315.345311 42.3642597 315.022885 42.6468089 314.610448 42.8427734 314.198012 43.038738 313.727476 43.1367188 313.198827 43.1367188 312.287364 43.1367188 311.604917 42.9202496 311.151464 42.4873047 310.698011 42.0543598 310.471288 41.3616584 310.471288 40.4091797L310.471288 35.5078125 311.619726 35.5078125zM323.673046 43L323.673046 38.1533203C323.673046 37.5426402 323.53405 37.0869156 323.256054 36.7861328 322.978058 36.4853501 322.542841 36.3349609 321.95039 36.3349609 321.166532 36.3349609 320.592319 36.5468729 320.227734 36.9707031 319.863148 37.3945334 319.680859 38.0940706 319.680859 39.0693359L319.680859 43 318.546093 43 318.546093 35.5078125 319.468945 35.5078125 319.653515 36.5332031 319.708202 36.5332031C319.940625 36.1640607 320.266468 35.8780935 320.685741 35.675293 321.105014 35.4724925 321.572132 35.3710938 322.087109 35.3710938 322.989457 35.3710938 323.668487 35.5887023 324.124218 36.0239258 324.579949 36.4591493 324.807812 37.1552687 324.807812 38.1123047L324.807812 43 323.673046 43zM331.638476 41.9951172L331.576952 41.9951172C331.052861 42.7561887 330.269015 43.1367188 329.22539 43.1367188 328.245567 43.1367188 327.483368 42.8017612 326.938769 42.1318359 326.39417 41.4619107 326.121874 40.5094463 326.121874 39.2744141 326.121874 38.0393818 326.395309 37.0800815 326.942187 36.3964844 327.489064 35.7128872 328.250125 35.3710938 329.22539 35.3710938 330.241671 35.3710938 331.02096 35.7402307 331.56328 36.4785156L331.652148 36.4785156 331.604296 35.9384766 331.576952 35.4121094 331.576952 32.3632812 332.711718 32.3632812 332.711718 43 331.788866 43 331.638476 41.9951172zM329.368945 42.1865234C330.143688 42.1865234 330.705369 41.9757508 331.054003 41.5541992 331.402638 41.1326476 331.576952 40.4524787 331.576952 39.5136719L331.576952 39.2744141C331.576952 38.2125598 331.400359 37.4549176 331.047167 37.0014648 330.693975 36.5480121 330.130016 36.3212891 329.355273 36.3212891 328.689905 36.3212891 328.180632 36.5799128 327.827441 37.097168 327.474249 37.6144232 327.297655 38.3447218 327.297655 39.2880859 327.297655 40.245122 327.473109 40.9674455 327.824023 41.4550781 328.174936 41.9427108 328.689905 42.1865234 329.368945 42.1865234z"/>
    </g>
    <g class="flag" transform="translate(1 1)">
      <polygon fill="#174489" points=".282 60.401 90.202 60.401 90.202 .454 .282 .454"/>
      <polygon fill="#FFF101" points="43.326 13.515 45.223 12.13 47.121 13.515 46.399 11.276 48.326 9.891 45.95 9.891 45.223 7.625 44.496 9.894 42.122 9.891 44.048 11.276"/>
      <polygon fill="#FFF101" points="33.507 16.153 35.404 14.768 37.3 16.153 36.58 13.914 38.505 12.529 36.13 12.529 35.403 10.26 34.675 12.532 32.301 12.529 34.227 13.914"/>
      <polygon fill="#FFF101" points="28.219 17.461 27.492 19.732 25.118 19.73 27.044 21.115 26.322 23.354 28.219 21.969 30.116 23.354 29.394 21.115 31.32 19.73 28.946 19.73"/>
      <polygon fill="#FFF101" points="25.584 31.776 27.48 33.161 26.759 30.921 28.685 29.537 26.311 29.537 25.584 27.268 24.857 29.542 22.481 29.537 24.409 30.921 23.687 33.161"/>
      <polygon fill="#FFF101" points="28.946 39.373 28.219 37.104 27.492 39.376 25.118 39.373 27.044 40.758 26.322 42.997 28.219 41.61 30.116 42.997 29.394 40.758 31.32 39.373"/>
      <polygon fill="#FFF101" points="36.145 46.572 35.417 44.306 34.691 46.574 32.316 46.572 34.242 47.957 33.522 50.196 35.419 48.811 37.315 50.196 36.594 47.957 38.52 46.572"/>
      <polygon fill="#FFF101" points="45.951 49.18 45.224 46.911 44.498 49.183 42.123 49.18 44.049 50.565 43.328 52.804 45.225 51.419 47.121 52.804 46.399 50.565 48.327 49.18"/>
      <polygon fill="#FFF101" points="55.758 46.572 55.032 44.306 54.304 46.574 51.931 46.572 53.856 47.957 53.135 50.196 55.032 48.811 56.93 50.196 56.206 47.957 58.134 46.572"/>
      <polygon fill="#FFF101" points="62.959 39.373 62.231 37.104 61.503 39.376 59.129 39.373 61.057 40.758 60.333 42.997 62.231 41.61 64.128 42.997 63.405 40.758 65.332 39.373"/>
      <polygon fill="#FFF101" points="67.94 29.51 65.564 29.51 64.836 27.241 64.11 29.512 61.735 29.51 63.662 30.895 62.941 33.134 64.836 31.747 66.734 33.134 66.013 30.895"/>
      <polygon fill="#FFF101" points="60.333 23.324 62.23 21.939 64.128 23.324 63.405 21.085 65.332 19.703 62.959 19.703 62.23 17.434 61.502 19.705 59.129 19.703 61.056 21.085"/>
      <polygon fill="#FFF101" points="55.059 10.263 54.333 12.534 51.958 12.529 53.882 13.917 53.162 16.156 55.061 14.769 56.956 16.156 56.236 13.917 58.163 12.529 55.785 12.529"/>
    </g>
</svg>
