<?xml version="1.0" encoding="utf-8"?>
<!-- Generator: Adobe Illustrator 21.0.0, SVG Export Plug-In . SVG Version: 6.00 Build 0)  -->
<svg version="1.1" id="Layer_1" xmlns="http://www.w3.org/2000/svg" xmlns:xlink="http://www.w3.org/1999/xlink" x="0px" y="0px"
	 viewBox="0 0 885 209" style="enable-background:new 0 0 885 209;" xml:space="preserve">
<style type="text/css">
	.st0{fill:#FFFFFF;}
	.st1{fill:#04C695;}
</style>
<title>IPDB full original negative</title>
<path class="st0" d="M172.2,12.1c-3.5,0-6.4,2.8-6.4,6.4c0,3.5,2.8,6.4,6.4,6.4c0,0,0,0,0,0c43.1-0.3,78.3,34.3,78.6,77.4
	c0.3,39.5-29,73-68.2,78l-4,0.5V86.2c0-3.5-2.8-6.4-6.4-6.4s-6.4,2.8-6.4,6.4v101.1c0,3.5,2.8,6.4,6.4,6.4
	c50.1,0,90.7-40.6,90.7-90.7S222.4,12.1,172.2,12.1L172.2,12.1z"/>
<path class="st0" d="M354.3,86l-4.2-2.3l3.4-3.4c15.9-14.9,16.7-39.9,1.8-55.8c-14.9-15.9-39.9-16.7-55.8-1.8
	c-7.9,7.4-12.4,17.8-12.5,28.7v76c0,3.5,2.8,6.4,6.4,6.4c3.5,0,6.4-2.8,6.4-6.4v-76c0-14.7,11.9-26.7,26.7-26.7s26.7,11.9,26.7,26.7
	c0,0,0,0,0,0c-0.1,13.5-10,24.9-23.3,26.9v13.1c23,1.9,40.9,21,41.2,44.2c0.2,24.7-19.6,44.9-44.3,45.2h-0.5
	c-10.5,0-20.7-3.7-28.8-10.4c-1.1-1-2.6-1.5-4.1-1.5c-3.5,0-6.4,2.8-6.4,6.3c0,1.9,0.8,3.7,2.3,4.9c10.4,8.7,23.4,13.4,36.9,13.4
	h0.4c31.7-0.4,57.2-26.3,57-58.1C383.4,115,372.2,96.1,354.3,86z"/>
<path class="st0" d="M7.8,74.6c-3.5,0-6.4,2.8-6.4,6.4v106.6c0,3.5,2.8,6.4,6.4,6.4c3.5,0,6.4-2.8,6.4-6.4c0,0,0,0,0,0V81
	C14.2,77.5,11.3,74.6,7.8,74.6z"/>
<path class="st1" d="M7.8,12.1c-3.5,0-6.4,2.8-6.4,6.4v30.2c0,3.5,2.8,6.4,6.4,6.4s6.4-2.8,6.4-6.4c0,0,0,0,0,0V18.5
	C14.2,15,11.3,12.1,7.8,12.1z"/>
<path class="st0" d="M96.4,12.1c-30.7,0-55.5,24.9-55.6,55.5v120c0,3.5,2.8,6.4,6.4,6.4c3.5,0,6.4-2.8,6.4-6.4c0,0,0,0,0,0v-120
	C54,44,73.5,25.1,97.2,25.6c23.7,0.4,42.5,20,42.1,43.7c-0.4,23.4-19.6,42.2-43,42.1c-3.5,0-6.4,2.8-6.4,6.4c0,3.5,2.8,6.4,6.4,6.4
	c30.7,0,55.7-25.2,55.7-56.1C152.1,37.2,127.2,12.2,96.4,12.1z"/>
<rect x="436.5" y="1.2" class="st0" width="4.4" height="207.3"/>
<path class="st0" d="M500,36.7h6.7v46.7H500V36.7z"/>
<path class="st0" d="M516.2,36.7h6.4l10.1,28.1h0.1V36.7h6.7v46.7h-6.3L523,55.3h-0.1v28.1h-6.7L516.2,36.7z"/>
<path class="st0" d="M553.3,43h-7.7v-6.3h22.2V43h-7.7v40.4h-6.7L553.3,43z"/>
<path class="st0" d="M573.9,36.7h19.9V43h-13.2v13.7h11.5V63h-11.5v13.7h13.2v6.7h-19.9V36.7z"/>
<path class="st0" d="M601.5,36.7h10.8c7.9,0,11.8,4.6,11.8,13.7c0.1,2.4-0.4,4.8-1.3,7c-0.9,2-2.5,3.7-4.5,4.7l7.2,21.3h-7.1
	l-6.2-19.9h-4v19.9h-6.7L601.5,36.7z M608.1,57.6h3.8c1,0,1.9-0.1,2.8-0.5c0.7-0.3,1.2-0.8,1.6-1.4c0.4-0.7,0.7-1.5,0.8-2.3
	c0.3-2.1,0.3-4.2,0-6.2c-0.1-0.8-0.4-1.6-0.8-2.3c-0.4-0.6-1-1.1-1.7-1.4c-1-0.3-2-0.5-3-0.5h-3.5L608.1,57.6z"/>
<path class="st0" d="M632.7,36.7h10c1.6,0,3.3,0.2,4.8,0.7c1.5,0.5,2.8,1.4,3.8,2.6c1.1,1.2,2,2.7,2.4,4.3c0.5,2.2,0.7,4.4,0.7,6.7
	c0,1.8-0.1,3.5-0.4,5.3c-0.2,1.5-0.8,2.8-1.5,4.1c-0.9,1.5-2.2,2.7-3.7,3.6c-1.9,0.9-3.9,1.4-6,1.3h-3.4v18.2h-6.7L632.7,36.7z
	 M639.3,58.9h3.2c1.1,0.1,2.2-0.1,3.1-0.6c0.7-0.4,1.3-0.9,1.6-1.6c0.4-0.8,0.6-1.6,0.6-2.5c0.1-1,0.1-2,0.1-3.2s0-2.2-0.1-3.1
	c0-0.9-0.2-1.7-0.6-2.6c-0.3-0.7-0.9-1.3-1.5-1.7c-0.9-0.5-2-0.7-3-0.6h-3.5L639.3,58.9z"/>
<path class="st0" d="M662.6,36.7h6.7v40h13.2v6.7h-19.9V36.7z"/>
<path class="st0" d="M697.6,36.7h5.6l10.4,46.7h-6.7l-2-10h-9.1l-2,10h-6.7L697.6,36.7z M700.4,50.2h-0.1L697,67.1h6.7L700.4,50.2z"
	/>
<path class="st0" d="M719.8,36.7h6.4l10.1,28.1h0.1V36.7h6.7v46.7h-6.3l-10.2-28.1h-0.1v28.1h-6.7V36.7z"/>
<path class="st0" d="M752.5,36.7h19.9V43h-13.2v13.7h11.5V63h-11.5v13.7h13.2v6.7h-19.9V36.7z"/>
<path class="st0" d="M784.4,43h-7.7v-6.3h22.2V43h-7.7v40.4h-6.7L784.4,43z"/>
<path class="st0" d="M808.9,36.7h5.6l10.4,46.7h-6.7l-2-10h-9.1l-2,10h-6.7L808.9,36.7z M811.7,50.2h-0.1l-3.3,16.9h6.7L811.7,50.2z
	"/>
<path class="st0" d="M831.4,36.7h10.8c7.9,0,11.8,4.6,11.8,13.7c0.1,2.4-0.4,4.8-1.3,7c-0.9,2-2.5,3.7-4.5,4.7l7.2,21.3h-7.1
	l-6.2-19.9h-4v19.9h-6.7L831.4,36.7z M838.1,57.6h3.8c1,0,1.9-0.1,2.8-0.5c0.7-0.3,1.2-0.8,1.6-1.4c0.4-0.7,0.7-1.5,0.8-2.3
	c0.3-2.1,0.3-4.2,0-6.2c-0.1-0.8-0.4-1.6-0.8-2.3c-0.4-0.6-1-1.1-1.7-1.4c-1-0.3-2-0.5-3-0.5h-3.5L838.1,57.6z"/>
<path class="st0" d="M867.7,63.7l-9.2-27h7.1l5.4,18.6h0.1l5.4-18.6h7.1l-9.2,26.9v19.7h-6.7L867.7,63.7z"/>
<path class="st0" d="M499.8,122h9.9c3.8,0,6.7,1.1,8.7,3.2s3,5.1,3,8.9v21.8c0,4.4-1.1,7.6-3.2,9.7c-2.1,2.1-5.2,3.1-9.2,3.1h-9.3
	L499.8,122z M506.5,162.3h3.1c1.9,0,3.2-0.5,4-1.4c0.9-1.3,1.3-2.9,1.2-4.4V134c0.1-1.5-0.3-3-1.1-4.3c-0.7-1-2.1-1.5-4.1-1.5h-3.1
	L506.5,162.3z"/>
<path class="st0" d="M537.7,122h5.6l10.4,46.7H547l-2-10h-9.1l-2,10h-6.7L537.7,122z M540.5,135.4h-0.1l-3.3,16.9h6.7L540.5,135.4z"
	/>
<path class="st0" d="M561,128.3h-7.7V122h22.2v6.3h-7.7v40.4H561V128.3z"/>
<path class="st0" d="M585.5,122h5.5l10.4,46.7h-6.7l-2-10h-9.1l-2,10H575L585.5,122z M588.3,135.4h-0.1l-3.3,16.9h6.7L588.3,135.4z"
	/>
<path class="st0" d="M608,122h9.8c1.9,0,3.7,0.3,5.5,1c1.4,0.6,2.7,1.5,3.7,2.6c1,1.1,1.7,2.4,2.1,3.7c0.4,1.4,0.6,2.9,0.6,4.4v1.7
	c0,1.1-0.1,2.2-0.3,3.2c-0.2,0.8-0.5,1.6-0.9,2.3c-0.4,0.7-0.9,1.2-1.4,1.7c-0.6,0.5-1.3,1-2,1.4c1.5,0.7,2.7,1.8,3.5,3.3
	c0.8,1.8,1.2,3.9,1.1,5.9v2.6c0,4.1-1,7.3-3,9.4c-2,2.2-5.2,3.3-9.5,3.3h-9V122z M614.7,141.1h3c2.2,0,3.7-0.6,4.5-1.7
	c0.9-1.5,1.3-3.2,1.2-4.9c0.1-1.7-0.3-3.3-1.3-4.7c-0.9-1-2.4-1.6-4.6-1.6h-2.8L614.7,141.1z M614.7,162h2.9
	c1.1,0.1,2.2-0.2,3.2-0.6c0.7-0.4,1.3-0.9,1.7-1.6c0.4-0.8,0.7-1.6,0.7-2.5c0.1-1,0.1-2,0.1-3.1c0-1-0.1-2.1-0.2-3.1
	c-0.1-0.8-0.4-1.5-0.8-2.2c-0.4-0.6-1-1.1-1.7-1.3c-1-0.3-2-0.5-3-0.5h-3L614.7,162z"/>
<path class="st0" d="M645.8,122h5.6l10.4,46.7h-6.7l-2-10H644l-2,10h-6.7L645.8,122z M648.7,135.4h-0.1l-3.3,16.9h6.7L648.7,135.4z"
	/>
<path class="st0" d="M690,135.4h-6.7v-1.5c0-1.4-0.3-2.8-1.1-4c-0.8-1.2-2.2-1.8-3.6-1.7c-0.8,0-1.6,0.1-2.3,0.5
	c-0.6,0.3-1,0.8-1.3,1.4c-0.3,0.6-0.6,1.2-0.7,1.9c-0.1,0.7-0.2,1.5-0.2,2.3c0,0.8,0,1.6,0.1,2.3c0,0.6,0.2,1.1,0.5,1.6
	c0.3,0.5,0.7,0.9,1.2,1.2c0.7,0.4,1.3,0.7,2.1,1l5.1,2c1.3,0.5,2.5,1.1,3.6,2c0.9,0.7,1.6,1.6,2.1,2.7c0.5,1.1,0.9,2.3,1,3.5
	c0.2,1.5,0.3,3.1,0.2,4.6c0,1.8-0.2,3.7-0.6,5.5c-0.3,1.6-1,3-1.9,4.3c-0.9,1.2-2.2,2.2-3.6,2.9c-1.7,0.7-3.6,1.1-5.4,1
	c-1.5,0-3.1-0.3-4.5-0.9c-2.7-1.1-4.9-3.2-6-5.8c-0.6-1.4-0.9-2.9-0.9-4.4v-2.5h6.7v2.1c0,1.2,0.4,2.4,1.1,3.3
	c0.9,1.1,2.3,1.6,3.6,1.5c0.9,0,1.8-0.1,2.7-0.5c0.6-0.3,1.1-0.8,1.4-1.4c0.4-0.7,0.6-1.4,0.6-2.2c0.1-0.9,0.1-1.8,0.1-2.9
	c0-1,0-2-0.1-3c-0.1-0.7-0.2-1.3-0.6-1.9c-0.3-0.5-0.7-0.9-1.2-1.2c-0.6-0.4-1.3-0.7-2-1l-4.8-2c-2.9-1.2-4.8-2.7-5.8-4.7
	c-1-2.3-1.5-4.7-1.5-7.2c0-1.7,0.2-3.4,0.7-5c0.4-1.5,1.2-2.9,2.1-4.1c1-1.2,2.2-2.1,3.6-2.7c1.6-0.7,3.3-1,5-1
	c1.6,0,3.1,0.3,4.6,0.9c1.3,0.6,2.5,1.4,3.5,2.4c1,1,1.7,2.1,2.3,3.4c0.5,1.2,0.8,2.5,0.8,3.8L690,135.4z"/>
<path class="st0" d="M698.3,122h19.9v6.3H705V142h11.5v6.3H705V162h13.2v6.7h-20V122z"/>
</svg>
