<svg xmlns="http://www.w3.org/2000/svg" width="347" height="60" viewBox="0 0 347 60">
    <path class="flag" d="M0,0l89.92,0l0,59.947l-89.92,0l0,-59.947Zm45.669,48.726l-0.727,-2.269l-0.726,2.272l-2.375,-0.003l1.926,1.385l-0.721,2.239l1.897,-1.385l1.896,1.385l-0.722,-2.239l1.928,-1.385l-2.376,0Zm-9.807,-2.608l-0.726,-2.266l-0.727,2.268l-2.375,-0.002l1.926,1.385l-0.721,2.239l1.898,-1.385l1.896,1.385l-0.721,-2.239l1.926,-1.385l-2.376,0Zm19.614,0l-0.726,-2.266l-0.728,2.268l-2.373,-0.002l1.925,1.385l-0.721,2.239l1.897,-1.385l1.898,1.385l-0.724,-2.239l1.928,-1.385l-2.376,0Zm-26.812,-7.199l-0.727,-2.269l-0.727,2.272l-2.374,-0.003l1.926,1.385l-0.722,2.239l1.897,-1.387l1.897,1.387l-0.722,-2.239l1.926,-1.385l-2.374,0Zm34.013,0l-0.728,-2.269l-0.728,2.272l-2.374,-0.003l1.928,1.385l-0.724,2.239l1.898,-1.387l1.897,1.387l-0.723,-2.239l1.927,-1.385l-2.373,0Zm-37.375,-7.597l1.896,1.385l-0.721,-2.24l1.926,-1.384l-2.374,0l-0.727,-2.269l-0.727,2.274l-2.376,-0.005l1.928,1.384l-0.722,2.24l1.897,-1.385Zm42.356,-2.266l-2.376,0l-0.728,-2.269l-0.726,2.271l-2.375,-0.002l1.927,1.385l-0.721,2.239l1.895,-1.387l1.898,1.387l-0.721,-2.239l1.927,-1.385Zm-39.721,-12.049l-0.727,2.271l-2.374,-0.002l1.926,1.385l-0.722,2.239l1.897,-1.385l1.897,1.385l-0.722,-2.239l1.926,-1.385l-2.374,0l-0.727,-2.269Zm32.114,5.863l1.897,-1.385l1.898,1.385l-0.723,-2.239l1.927,-1.382l-2.373,0l-0.729,-2.269l-0.728,2.271l-2.373,-0.002l1.927,1.382l-0.723,2.239Zm-5.274,-13.061l-0.726,2.271l-2.375,-0.005l1.924,1.388l-0.72,2.239l1.899,-1.387l1.895,1.387l-0.72,-2.239l1.927,-1.388l-2.378,0l-0.726,-2.266Zm-21.553,5.89l1.897,-1.385l1.897,1.385l-0.721,-2.239l1.927,-1.385l-2.376,0l-0.728,-2.269l-0.727,2.272l-2.373,-0.003l1.925,1.385l-0.721,2.239Zm9.82,-2.638l1.897,-1.385l1.898,1.385l-0.722,-2.239l1.927,-1.385l-2.376,0l-0.727,-2.266l-0.727,2.269l-2.374,-0.003l1.926,1.385l-0.722,2.239Z"/>
    <path class="type" fill="currentColor" d="M115.027,23.187l-11.511,0l0,-19.988l11.511,0l0,3.472l-7.273,0l0,4.389l6.767,0l0.001,3.473l-6.768,0l0,5.154l7.273,0l0,3.5Zm19.64,-19.988l0,12.933c0,1.477 -0.331,2.771 -0.991,3.883c-0.661,1.112 -1.616,1.964 -2.865,2.557c-1.248,0.592 -2.725,0.889 -4.429,0.889c-2.571,0 -4.567,-0.659 -5.989,-1.976c-1.421,-1.317 -2.132,-3.12 -2.132,-5.407l0,-12.879l4.224,0l0,12.236c0,1.541 0.31,2.671 0.93,3.391c0.62,0.72 1.645,1.08 3.076,1.08c1.385,0 2.39,-0.362 3.015,-1.087c0.624,-0.725 0.936,-1.862 0.936,-3.411l0,-12.209l4.225,0Zm8.333,8.873l1.367,0c1.34,0 2.329,-0.223 2.967,-0.67c0.638,-0.447 0.957,-1.148 0.957,-2.106c0,-0.947 -0.326,-1.622 -0.978,-2.023c-0.652,-0.401 -1.661,-0.602 -3.028,-0.602l-1.285,0l0,5.401Zm0,3.445l0,7.67l-4.239,0l0,-19.988l5.825,0c2.716,0 4.726,0.494 6.029,1.483c1.303,0.989 1.955,2.491 1.955,4.505c0,1.176 -0.324,2.222 -0.971,3.138c-0.647,0.916 -1.563,1.634 -2.748,2.153c3.008,4.494 4.968,7.397 5.879,8.709l-4.703,0l-4.771,-7.67l-2.256,0Zm31.588,-2.351c0,3.308 -0.82,5.851 -2.461,7.629c-1.64,1.777 -3.992,2.666 -7.054,2.666c-3.063,0 -5.414,-0.889 -7.055,-2.666c-1.641,-1.778 -2.461,-4.33 -2.461,-7.657c0,-3.327 0.823,-5.867 2.468,-7.622c1.645,-1.754 4.003,-2.632 7.075,-2.632c3.072,0 5.421,0.884 7.048,2.653c1.627,1.768 2.44,4.311 2.44,7.629Zm-14.588,0c0,2.233 0.424,3.914 1.272,5.045c0.848,1.13 2.114,1.695 3.801,1.695c3.381,0 5.072,-2.247 5.072,-6.74c0,-4.503 -1.682,-6.754 -5.045,-6.754c-1.686,0 -2.958,0.567 -3.814,1.702c-0.857,1.135 -1.286,2.819 -1.286,5.052Zm22.169,-0.561l1.395,0c1.303,0 2.278,-0.257 2.926,-0.772c0.647,-0.515 0.97,-1.265 0.97,-2.249c0,-0.994 -0.271,-1.728 -0.813,-2.202c-0.543,-0.474 -1.393,-0.711 -2.55,-0.711l-1.928,0l0,5.934Zm9.571,-3.172c0,2.151 -0.673,3.796 -2.017,4.936c-1.345,1.139 -3.256,1.709 -5.735,1.709l-1.819,0l0,7.109l-4.238,0l0,-19.988l6.385,0c2.424,0 4.268,0.522 5.53,1.565c1.262,1.044 1.894,2.6 1.894,4.669Zm14.485,13.754l-11.512,0l0,-19.988l11.512,0l0,3.472l-7.274,0l0,4.389l6.768,0l0,3.473l-6.768,0l0,5.154l7.274,0l0,3.5Zm15.606,0l-1.449,-4.758l-7.287,0l-1.45,4.758l-4.566,0l7.055,-20.07l5.181,0l7.082,20.07l-4.566,0Zm-2.461,-8.312c-1.34,-4.312 -2.094,-6.75 -2.263,-7.315c-0.168,-0.565 -0.289,-1.012 -0.362,-1.34c-0.301,1.167 -1.162,4.052 -2.584,8.655l5.209,0Zm26.475,8.312l-5.386,0l-8.696,-15.121l-0.123,0c0.173,2.671 0.26,4.576 0.26,5.715l0,9.406l-3.787,0l0,-19.988l5.346,0l8.681,14.971l0.096,0c-0.137,-2.598 -0.205,-4.435 -0.205,-5.51l0,-9.461l3.814,0l0,19.988Zm26.975,-19.988l0,12.933c0,1.477 -0.331,2.771 -0.992,3.883c-0.66,1.112 -1.615,1.964 -2.864,2.557c-1.249,0.592 -2.725,0.889 -4.43,0.889c-2.57,0 -4.566,-0.659 -5.988,-1.976c-1.422,-1.317 -2.133,-3.119 -2.133,-5.407l0,-12.879l4.225,0l0,12.236c0,1.541 0.31,2.671 0.93,3.391c0.619,0.72 1.645,1.08 3.076,1.08c1.385,0 2.39,-0.362 3.014,-1.087c0.625,-0.725 0.937,-1.862 0.937,-3.411l0,-12.209l4.225,0Zm21.827,19.988l-5.387,0l-8.695,-15.121l-0.124,0c0.174,2.671 0.26,4.576 0.26,5.715l0,9.406l-3.787,0l0,-19.988l5.346,0l8.681,14.971l0.096,0c-0.137,-2.598 -0.205,-4.435 -0.205,-5.51l0,-9.461l3.815,0l0,19.988Zm4.231,0l0,-19.988l4.238,0l0,19.988l-4.238,0Zm26.612,-10.021c0,3.308 -0.82,5.851 -2.461,7.629c-1.641,1.777 -3.992,2.666 -7.055,2.666c-3.062,0 -5.414,-0.889 -7.055,-2.666c-1.64,-1.778 -2.46,-4.33 -2.46,-7.657c0,-3.327 0.822,-5.867 2.467,-7.622c1.646,-1.754 4.004,-2.632 7.076,-2.632c3.071,0 5.42,0.884 7.047,2.653c1.627,1.768 2.441,4.311 2.441,7.629Zm-14.588,0c0,2.233 0.424,3.914 1.271,5.045c0.848,1.13 2.115,1.695 3.801,1.695c3.382,0 5.072,-2.247 5.072,-6.74c0,-4.503 -1.681,-6.754 -5.044,-6.754c-1.687,0 -2.958,0.567 -3.815,1.702c-0.857,1.135 -1.285,2.819 -1.285,5.052Zm35.663,10.021l-5.387,0l-8.695,-15.121l-0.123,0c0.173,2.671 0.26,4.576 0.26,5.715l0,9.406l-3.788,0l0,-19.988l5.346,0l8.682,14.971l0.095,0c-0.136,-2.598 -0.205,-4.435 -0.205,-5.51l0,-9.461l3.815,0l0,19.988Z"/>
    <path class="type" fill="currentColor" d="M108.945,42l-5.571,0l0,-9.994l5.571,0l0,1.032l-4.409,0l0,3.22l4.143,0l0,1.025l-4.143,0l0,3.678l4.409,0l0,1.039Zm2.511,-7.492l0,4.86c0,0.611 0.139,1.067 0.417,1.367c0.278,0.301 0.713,0.452 1.305,0.452c0.784,0 1.357,-0.215 1.72,-0.643c0.362,-0.428 0.543,-1.128 0.543,-2.099l0,-3.937l1.135,0l0,7.492l-0.937,0l-0.164,-1.005l-0.061,0c-0.233,0.369 -0.555,0.652 -0.968,0.848c-0.412,0.196 -0.883,0.294 -1.411,0.294c-0.912,0 -1.594,-0.217 -2.048,-0.65c-0.453,-0.433 -0.68,-1.125 -0.68,-2.078l0,-4.901l1.149,0Zm10.344,-0.137c0.333,0 0.631,0.027 0.895,0.082l-0.157,1.053c-0.31,-0.068 -0.583,-0.103 -0.82,-0.103c-0.606,0 -1.124,0.246 -1.555,0.739c-0.431,0.492 -0.646,1.105 -0.646,1.838l0,4.02l-1.135,0l0,-7.492l0.937,0l0.129,1.388l0.055,0c0.278,-0.488 0.613,-0.864 1.005,-1.128c0.392,-0.265 0.823,-0.397 1.292,-0.397Zm7.883,3.876c0,1.221 -0.307,2.175 -0.923,2.861c-0.615,0.686 -1.465,1.029 -2.549,1.029c-0.67,0 -1.265,-0.158 -1.784,-0.472c-0.52,-0.314 -0.921,-0.766 -1.204,-1.353c-0.282,-0.588 -0.423,-1.277 -0.423,-2.065c0,-1.221 0.305,-2.173 0.916,-2.854c0.61,-0.681 1.458,-1.022 2.543,-1.022c1.048,0 1.881,0.349 2.498,1.046c0.618,0.697 0.926,1.641 0.926,2.83Zm-5.708,0c0,0.957 0.192,1.686 0.575,2.188c0.382,0.501 0.945,0.752 1.688,0.752c0.743,0 1.307,-0.25 1.692,-0.749c0.385,-0.499 0.578,-1.229 0.578,-2.191c0,-0.952 -0.193,-1.676 -0.578,-2.17c-0.385,-0.495 -0.954,-0.742 -1.706,-0.742c-0.742,0 -1.303,0.244 -1.681,0.731c-0.378,0.488 -0.568,1.215 -0.568,2.181Zm10.584,3.89c-0.488,0 -0.933,-0.09 -1.336,-0.27c-0.404,-0.18 -0.742,-0.457 -1.016,-0.831l-0.082,0c0.055,0.438 0.082,0.852 0.082,1.244l0,3.083l-1.134,0l0,-10.855l0.923,0l0.157,1.025l0.054,0c0.292,-0.41 0.632,-0.706 1.019,-0.888c0.387,-0.183 0.832,-0.274 1.333,-0.274c0.994,0 1.76,0.34 2.3,1.019c0.54,0.679 0.81,1.631 0.81,2.857c0,1.231 -0.274,2.186 -0.823,2.868c-0.55,0.681 -1.312,1.022 -2.287,1.022Zm-0.164,-6.802c-0.766,0 -1.319,0.212 -1.661,0.636c-0.342,0.424 -0.518,1.098 -0.527,2.023l0,0.253c0,1.053 0.176,1.806 0.527,2.259c0.351,0.454 0.913,0.681 1.688,0.681c0.647,0 1.154,-0.263 1.521,-0.787c0.367,-0.524 0.551,-1.246 0.551,-2.167c0,-0.934 -0.184,-1.65 -0.551,-2.149c-0.367,-0.5 -0.883,-0.749 -1.548,-0.749Zm7.822,6.802c-1.108,0 -1.981,-0.338 -2.622,-1.012c-0.64,-0.674 -0.96,-1.611 -0.96,-2.81c0,-1.207 0.297,-2.167 0.892,-2.877c0.595,-0.711 1.393,-1.067 2.396,-1.067c0.939,0 1.682,0.309 2.228,0.926c0.547,0.618 0.821,1.432 0.821,2.444l0,0.718l-5.161,0c0.022,0.88 0.245,1.547 0.666,2.003c0.422,0.456 1.015,0.684 1.781,0.684c0.807,0 1.604,-0.169 2.392,-0.506l0,1.011c-0.401,0.174 -0.78,0.298 -1.138,0.373c-0.357,0.075 -0.789,0.113 -1.295,0.113Zm-0.308,-6.816c-0.601,0 -1.081,0.196 -1.439,0.588c-0.357,0.392 -0.568,0.934 -0.632,1.627l3.917,0c0,-0.715 -0.16,-1.263 -0.479,-1.644c-0.319,-0.38 -0.774,-0.571 -1.367,-0.571Zm9.005,6.679l-0.226,-1.066l-0.055,0c-0.373,0.469 -0.746,0.787 -1.117,0.953c-0.372,0.167 -0.835,0.25 -1.391,0.25c-0.743,0 -1.325,-0.192 -1.747,-0.574c-0.421,-0.383 -0.632,-0.928 -0.632,-1.634c0,-1.513 1.21,-2.306 3.63,-2.379l1.271,-0.041l0,-0.465c0,-0.588 -0.126,-1.022 -0.379,-1.302c-0.253,-0.281 -0.658,-0.421 -1.214,-0.421c-0.624,0 -1.33,0.192 -2.119,0.575l-0.348,-0.869c0.369,-0.2 0.773,-0.357 1.213,-0.471c0.44,-0.114 0.881,-0.171 1.323,-0.171c0.893,0 1.555,0.198 1.986,0.594c0.43,0.397 0.646,1.033 0.646,1.908l0,5.113l-0.841,0Zm-2.564,-0.8c0.707,0 1.261,-0.193 1.665,-0.581c0.403,-0.387 0.605,-0.93 0.605,-1.627l0,-0.677l-1.135,0.048c-0.902,0.032 -1.553,0.172 -1.952,0.421c-0.398,0.248 -0.598,0.634 -0.598,1.158c0,0.411 0.124,0.723 0.373,0.937c0.248,0.214 0.596,0.321 1.042,0.321Zm10.269,0.8l0,-4.847c0,-0.61 -0.139,-1.066 -0.417,-1.367c-0.278,-0.301 -0.713,-0.451 -1.305,-0.451c-0.784,0 -1.358,0.212 -1.723,0.636c-0.365,0.424 -0.547,1.123 -0.547,2.098l0,3.931l-1.135,0l0,-7.492l0.923,0l0.185,1.025l0.055,0c0.232,-0.369 0.558,-0.655 0.977,-0.858c0.419,-0.203 0.886,-0.304 1.401,-0.304c0.903,0 1.582,0.218 2.038,0.653c0.455,0.435 0.683,1.131 0.683,2.088l0,4.888l-1.135,0Zm7.236,-4.156l0,4.156l-1.162,0l0,-9.994l2.741,0c1.226,0 2.132,0.235 2.717,0.704c0.586,0.469 0.879,1.176 0.879,2.119c0,1.322 -0.67,2.215 -2.01,2.68l2.714,4.491l-1.374,0l-2.42,-4.156l-2.085,0Zm0,-0.998l1.593,0c0.82,0 1.422,-0.163 1.804,-0.489c0.383,-0.326 0.575,-0.815 0.575,-1.466c0,-0.661 -0.195,-1.137 -0.585,-1.429c-0.39,-0.292 -1.015,-0.438 -1.876,-0.438l-1.511,0l0,3.822Zm9.886,5.291c-1.107,0 -1.981,-0.338 -2.621,-1.012c-0.641,-0.674 -0.961,-1.611 -0.961,-2.81c0,-1.207 0.298,-2.167 0.892,-2.877c0.595,-0.711 1.394,-1.067 2.396,-1.067c0.939,0 1.682,0.309 2.229,0.926c0.547,0.618 0.82,1.432 0.82,2.444l0,0.718l-5.161,0c0.023,0.88 0.245,1.547 0.667,2.003c0.421,0.456 1.015,0.684 1.78,0.684c0.807,0 1.604,-0.169 2.393,-0.506l0,1.011c-0.401,0.174 -0.781,0.298 -1.138,0.373c-0.358,0.075 -0.79,0.113 -1.296,0.113Zm-0.307,-6.816c-0.602,0 -1.082,0.196 -1.439,0.588c-0.358,0.392 -0.569,0.934 -0.633,1.627l3.917,0c0,-0.715 -0.159,-1.263 -0.478,-1.644c-0.319,-0.38 -0.775,-0.571 -1.367,-0.571Zm10.529,-0.813l0,0.718l-1.388,0.164c0.127,0.159 0.241,0.368 0.342,0.625c0.1,0.258 0.15,0.548 0.15,0.872c0,0.733 -0.251,1.319 -0.752,1.757c-0.501,0.437 -1.189,0.656 -2.064,0.656c-0.224,0 -0.433,-0.018 -0.629,-0.055c-0.483,0.255 -0.725,0.577 -0.725,0.964c0,0.205 0.084,0.357 0.253,0.455c0.169,0.098 0.458,0.147 0.868,0.147l1.326,0c0.812,0 1.435,0.17 1.87,0.512c0.435,0.342 0.653,0.839 0.653,1.49c0,0.83 -0.333,1.462 -0.998,1.897c-0.666,0.436 -1.636,0.653 -2.912,0.653c-0.98,0 -1.735,-0.182 -2.266,-0.547c-0.531,-0.364 -0.797,-0.879 -0.797,-1.545c0,-0.455 0.146,-0.849 0.438,-1.182c0.291,-0.333 0.702,-0.558 1.23,-0.677c-0.191,-0.086 -0.352,-0.221 -0.482,-0.403c-0.13,-0.182 -0.195,-0.394 -0.195,-0.636c0,-0.273 0.073,-0.513 0.219,-0.718c0.146,-0.205 0.376,-0.403 0.691,-0.594c-0.388,-0.16 -0.703,-0.431 -0.947,-0.814c-0.244,-0.383 -0.366,-0.82 -0.366,-1.312c0,-0.821 0.246,-1.453 0.738,-1.897c0.493,-0.445 1.19,-0.667 2.092,-0.667c0.392,0 0.745,0.046 1.06,0.137l2.591,0Zm-5.975,8.75c0,0.405 0.171,0.713 0.513,0.923c0.341,0.209 0.831,0.314 1.469,0.314c0.953,0 1.658,-0.142 2.116,-0.427c0.458,-0.285 0.687,-0.671 0.687,-1.159c0,-0.405 -0.125,-0.687 -0.376,-0.844c-0.251,-0.157 -0.722,-0.236 -1.415,-0.236l-1.36,0c-0.515,0 -0.916,0.123 -1.203,0.369c-0.288,0.246 -0.431,0.6 -0.431,1.06Zm0.615,-6.351c0,0.524 0.148,0.921 0.445,1.19c0.296,0.269 0.708,0.403 1.237,0.403c1.107,0 1.661,-0.538 1.661,-1.613c0,-1.126 -0.561,-1.689 -1.682,-1.689c-0.533,0 -0.943,0.144 -1.23,0.431c-0.287,0.287 -0.431,0.713 -0.431,1.278Zm7.432,5.093l-1.134,0l0,-7.492l1.134,0l0,7.492Zm-1.23,-9.522c0,-0.26 0.064,-0.45 0.191,-0.571c0.128,-0.121 0.287,-0.181 0.479,-0.181c0.182,0 0.339,0.061 0.472,0.184c0.132,0.123 0.198,0.312 0.198,0.568c0,0.255 -0.066,0.445 -0.198,0.57c-0.133,0.126 -0.29,0.188 -0.472,0.188c-0.192,0 -0.351,-0.062 -0.479,-0.188c-0.127,-0.125 -0.191,-0.315 -0.191,-0.57Zm9.503,5.769c0,1.221 -0.307,2.175 -0.922,2.861c-0.616,0.686 -1.466,1.029 -2.55,1.029c-0.67,0 -1.265,-0.158 -1.784,-0.472c-0.52,-0.314 -0.921,-0.766 -1.204,-1.353c-0.282,-0.588 -0.423,-1.277 -0.423,-2.065c0,-1.221 0.305,-2.173 0.916,-2.854c0.61,-0.681 1.458,-1.022 2.543,-1.022c1.048,0 1.881,0.349 2.498,1.046c0.618,0.697 0.926,1.641 0.926,2.83Zm-5.708,0c0,0.957 0.192,1.686 0.575,2.188c0.382,0.501 0.945,0.752 1.688,0.752c0.743,0 1.307,-0.25 1.692,-0.749c0.385,-0.499 0.578,-1.229 0.578,-2.191c0,-0.952 -0.193,-1.676 -0.578,-2.17c-0.385,-0.495 -0.954,-0.742 -1.706,-0.742c-0.742,0 -1.303,0.244 -1.681,0.731c-0.378,0.488 -0.568,1.215 -0.568,2.181Zm12.225,3.753l0,-4.847c0,-0.61 -0.139,-1.066 -0.417,-1.367c-0.278,-0.301 -0.714,-0.451 -1.306,-0.451c-0.784,0 -1.358,0.212 -1.723,0.636c-0.364,0.424 -0.547,1.123 -0.547,2.098l0,3.931l-1.134,0l0,-7.492l0.923,0l0.184,1.025l0.055,0c0.232,-0.369 0.558,-0.655 0.977,-0.858c0.42,-0.203 0.887,-0.304 1.402,-0.304c0.902,0 1.581,0.218 2.037,0.653c0.456,0.435 0.683,1.131 0.683,2.088l0,4.888l-1.134,0Zm7.473,0l-0.226,-1.066l-0.054,0c-0.374,0.469 -0.747,0.787 -1.118,0.953c-0.371,0.167 -0.835,0.25 -1.391,0.25c-0.743,0 -1.325,-0.192 -1.747,-0.574c-0.421,-0.383 -0.632,-0.928 -0.632,-1.634c0,-1.513 1.21,-2.306 3.63,-2.379l1.271,-0.041l0,-0.465c0,-0.588 -0.126,-1.022 -0.379,-1.302c-0.253,-0.281 -0.657,-0.421 -1.213,-0.421c-0.625,0 -1.331,0.192 -2.12,0.575l-0.348,-0.869c0.369,-0.2 0.773,-0.357 1.213,-0.471c0.44,-0.114 0.881,-0.171 1.323,-0.171c0.893,0 1.555,0.198 1.986,0.594c0.43,0.397 0.646,1.033 0.646,1.908l0,5.113l-0.841,0Zm-2.564,-0.8c0.707,0 1.262,-0.193 1.665,-0.581c0.403,-0.387 0.605,-0.93 0.605,-1.627l0,-0.677l-1.135,0.048c-0.902,0.032 -1.553,0.172 -1.951,0.421c-0.399,0.248 -0.599,0.634 -0.599,1.158c0,0.411 0.125,0.723 0.373,0.937c0.248,0.214 0.596,0.321 1.042,0.321Zm6.277,0.8l-1.134,0l0,-10.637l1.134,0l0,10.637Zm12.992,-5.093c0,1.65 -0.448,2.911 -1.343,3.784c-0.896,0.873 -2.185,1.309 -3.866,1.309l-2.769,0l0,-9.994l3.063,0c1.554,0 2.761,0.431 3.623,1.292c0.861,0.861 1.292,2.064 1.292,3.609Zm-1.231,0.041c0,-1.303 -0.327,-2.285 -0.981,-2.946c-0.654,-0.661 -1.625,-0.991 -2.915,-0.991l-1.689,0l0,7.984l1.415,0c1.386,0 2.427,-0.341 3.124,-1.022c0.698,-0.681 1.046,-1.689 1.046,-3.025Zm5.853,5.189c-1.107,0 -1.981,-0.338 -2.621,-1.012c-0.64,-0.674 -0.961,-1.611 -0.961,-2.81c0,-1.207 0.298,-2.167 0.892,-2.877c0.595,-0.711 1.394,-1.067 2.396,-1.067c0.939,0 1.682,0.309 2.229,0.926c0.547,0.618 0.82,1.432 0.82,2.444l0,0.718l-5.161,0c0.023,0.88 0.245,1.547 0.667,2.003c0.421,0.456 1.015,0.684 1.78,0.684c0.807,0 1.605,-0.169 2.393,-0.506l0,1.011c-0.401,0.174 -0.78,0.298 -1.138,0.373c-0.358,0.075 -0.79,0.113 -1.296,0.113Zm-0.307,-6.816c-0.602,0 -1.081,0.196 -1.439,0.588c-0.358,0.392 -0.569,0.934 -0.632,1.627l3.917,0c0,-0.715 -0.16,-1.263 -0.479,-1.644c-0.319,-0.38 -0.775,-0.571 -1.367,-0.571Zm5.757,6.679l-2.844,-7.492l1.217,0l1.614,4.443c0.364,1.039 0.578,1.714 0.642,2.024l0.055,0c0.05,-0.242 0.208,-0.742 0.475,-1.501c0.267,-0.759 0.865,-2.414 1.794,-4.966l1.217,0l-2.844,7.492l-1.326,0Zm7.938,0.137c-1.107,0 -1.981,-0.338 -2.621,-1.012c-0.641,-0.674 -0.961,-1.611 -0.961,-2.81c0,-1.207 0.298,-2.167 0.892,-2.877c0.595,-0.711 1.394,-1.067 2.396,-1.067c0.939,0 1.682,0.309 2.229,0.926c0.547,0.618 0.82,1.432 0.82,2.444l0,0.718l-5.161,0c0.023,0.88 0.245,1.547 0.667,2.003c0.421,0.456 1.015,0.684 1.78,0.684c0.807,0 1.605,-0.169 2.393,-0.506l0,1.011c-0.401,0.174 -0.781,0.298 -1.138,0.373c-0.358,0.075 -0.79,0.113 -1.296,0.113Zm-0.307,-6.816c-0.602,0 -1.082,0.196 -1.439,0.588c-0.358,0.392 -0.569,0.934 -0.633,1.627l3.917,0c0,-0.715 -0.159,-1.263 -0.478,-1.644c-0.319,-0.38 -0.775,-0.571 -1.367,-0.571Zm5.532,6.679l-1.135,0l0,-10.637l1.135,0l0,10.637Zm8.273,-3.753c0,1.221 -0.308,2.175 -0.923,2.861c-0.615,0.686 -1.465,1.029 -2.55,1.029c-0.67,0 -1.265,-0.158 -1.784,-0.472c-0.52,-0.314 -0.921,-0.766 -1.203,-1.353c-0.283,-0.588 -0.424,-1.277 -0.424,-2.065c0,-1.221 0.305,-2.173 0.916,-2.854c0.611,-0.681 1.458,-1.022 2.543,-1.022c1.048,0 1.881,0.349 2.498,1.046c0.618,0.697 0.927,1.641 0.927,2.83Zm-5.708,0c0,0.957 0.191,1.686 0.574,2.188c0.383,0.501 0.945,0.752 1.688,0.752c0.743,0 1.307,-0.25 1.692,-0.749c0.385,-0.499 0.578,-1.229 0.578,-2.191c0,-0.952 -0.193,-1.676 -0.578,-2.17c-0.385,-0.495 -0.953,-0.742 -1.705,-0.742c-0.743,0 -1.304,0.244 -1.682,0.731c-0.378,0.488 -0.567,1.215 -0.567,2.181Zm10.583,3.89c-0.487,0 -0.933,-0.09 -1.336,-0.27c-0.404,-0.18 -0.742,-0.457 -1.015,-0.831l-0.082,0c0.054,0.438 0.082,0.852 0.082,1.244l0,3.083l-1.135,0l0,-10.855l0.923,0l0.157,1.025l0.055,0c0.291,-0.41 0.631,-0.706 1.018,-0.888c0.388,-0.183 0.832,-0.274 1.333,-0.274c0.994,0 1.76,0.34 2.3,1.019c0.541,0.679 0.811,1.631 0.811,2.857c0,1.231 -0.275,2.186 -0.824,2.868c-0.549,0.681 -1.312,1.022 -2.287,1.022Zm-0.164,-6.802c-0.766,0 -1.319,0.212 -1.661,0.636c-0.342,0.424 -0.517,1.098 -0.526,2.023l0,0.253c0,1.053 0.175,1.806 0.526,2.259c0.351,0.454 0.914,0.681 1.688,0.681c0.648,0 1.155,-0.263 1.521,-0.787c0.367,-0.524 0.551,-1.246 0.551,-2.167c0,-0.934 -0.184,-1.65 -0.551,-2.149c-0.366,-0.5 -0.883,-0.749 -1.548,-0.749Zm14.207,6.665l0,-4.874c0,-0.597 -0.128,-1.045 -0.383,-1.343c-0.255,-0.299 -0.652,-0.448 -1.19,-0.448c-0.706,0 -1.228,0.203 -1.565,0.608c-0.337,0.406 -0.506,1.03 -0.506,1.873l0,4.184l-1.135,0l0,-4.874c0,-0.597 -0.127,-1.045 -0.382,-1.343c-0.256,-0.299 -0.654,-0.448 -1.197,-0.448c-0.711,0 -1.231,0.213 -1.562,0.639c-0.33,0.426 -0.495,1.125 -0.495,2.095l0,3.931l-1.135,0l0,-7.492l0.923,0l0.184,1.025l0.055,0c0.214,-0.364 0.516,-0.649 0.906,-0.854c0.389,-0.205 0.826,-0.308 1.309,-0.308c1.171,0 1.937,0.424 2.297,1.272l0.054,0c0.224,-0.392 0.547,-0.702 0.971,-0.93c0.424,-0.228 0.907,-0.342 1.449,-0.342c0.848,0 1.483,0.218 1.904,0.653c0.422,0.435 0.633,1.131 0.633,2.088l0,4.888l-1.135,0Zm6.037,0.137c-1.107,0 -1.981,-0.338 -2.621,-1.012c-0.64,-0.674 -0.961,-1.611 -0.961,-2.81c0,-1.207 0.298,-2.167 0.893,-2.877c0.594,-0.711 1.393,-1.067 2.396,-1.067c0.938,0 1.681,0.309 2.228,0.926c0.547,0.618 0.82,1.432 0.82,2.444l0,0.718l-5.161,0c0.023,0.88 0.245,1.547 0.667,2.003c0.421,0.456 1.015,0.684 1.78,0.684c0.807,0 1.605,-0.169 2.393,-0.506l0,1.011c-0.401,0.174 -0.78,0.298 -1.138,0.373c-0.358,0.075 -0.79,0.113 -1.296,0.113Zm-0.307,-6.816c-0.602,0 -1.081,0.196 -1.439,0.588c-0.358,0.392 -0.569,0.934 -0.632,1.627l3.917,0c0,-0.715 -0.16,-1.263 -0.479,-1.644c-0.319,-0.38 -0.775,-0.571 -1.367,-0.571Zm9.524,6.679l0,-4.847c0,-0.61 -0.139,-1.066 -0.417,-1.367c-0.278,-0.301 -0.713,-0.451 -1.306,-0.451c-0.784,0 -1.358,0.212 -1.722,0.636c-0.365,0.424 -0.547,1.123 -0.547,2.098l0,3.931l-1.135,0l0,-7.492l0.923,0l0.184,1.025l0.055,0c0.232,-0.369 0.558,-0.655 0.978,-0.858c0.419,-0.203 0.886,-0.304 1.401,-0.304c0.902,0 1.581,0.218 2.037,0.653c0.456,0.435 0.684,1.131 0.684,2.088l0,4.888l-1.135,0Zm5.286,-0.8c0.2,0 0.394,-0.015 0.581,-0.044c0.187,-0.03 0.335,-0.061 0.444,-0.093l0,0.869c-0.123,0.059 -0.304,0.108 -0.543,0.147c-0.24,0.038 -0.455,0.058 -0.646,0.058c-1.45,0 -2.174,-0.764 -2.174,-2.29l0,-4.457l-1.074,0l0,-0.547l1.074,-0.472l0.478,-1.6l0.656,0l0,1.737l2.174,0l0,0.882l-2.174,0l0,4.409c0,0.451 0.108,0.797 0.322,1.039c0.214,0.241 0.508,0.362 0.882,0.362Zm6.292,0.8l-1.162,0l0,-9.994l5.571,0l0,1.032l-4.409,0l0,3.657l4.142,0l0,1.033l-4.142,0l0,4.272Zm6.359,-7.492l0,4.86c0,0.611 0.139,1.067 0.417,1.367c0.278,0.301 0.713,0.452 1.305,0.452c0.784,0 1.357,-0.215 1.72,-0.643c0.362,-0.428 0.543,-1.128 0.543,-2.099l0,-3.937l1.135,0l0,7.492l-0.937,0l-0.164,-1.005l-0.061,0c-0.233,0.369 -0.555,0.652 -0.968,0.848c-0.412,0.196 -0.882,0.294 -1.411,0.294c-0.912,0 -1.594,-0.217 -2.047,-0.65c-0.454,-0.433 -0.681,-1.125 -0.681,-2.078l0,-4.901l1.149,0Zm12.053,7.492l0,-4.847c0,-0.61 -0.139,-1.066 -0.417,-1.367c-0.278,-0.301 -0.713,-0.451 -1.306,-0.451c-0.784,0 -1.358,0.212 -1.722,0.636c-0.365,0.424 -0.547,1.123 -0.547,2.098l0,3.931l-1.135,0l0,-7.492l0.923,0l0.185,1.025l0.054,0c0.233,-0.369 0.558,-0.655 0.978,-0.858c0.419,-0.203 0.886,-0.304 1.401,-0.304c0.902,0 1.582,0.218 2.037,0.653c0.456,0.435 0.684,1.131 0.684,2.088l0,4.888l-1.135,0Zm7.965,-1.005l-0.061,0c-0.524,0.761 -1.308,1.142 -2.352,1.142c-0.979,0 -1.742,-0.335 -2.286,-1.005c-0.545,-0.67 -0.817,-1.623 -0.817,-2.858c0,-1.235 0.273,-2.194 0.82,-2.878c0.547,-0.683 1.308,-1.025 2.283,-1.025c1.017,0 1.796,0.369 2.338,1.108l0.089,0l-0.048,-0.541l-0.027,-0.526l0,-3.049l1.135,0l0,10.637l-0.923,0l-0.151,-1.005Zm-2.269,0.192c0.775,0 1.336,-0.211 1.685,-0.633c0.349,-0.421 0.523,-1.102 0.523,-2.04l0,-0.24c0,-1.061 -0.177,-1.819 -0.53,-2.273c-0.353,-0.453 -0.917,-0.68 -1.692,-0.68c-0.665,0 -1.174,0.259 -1.528,0.776c-0.353,0.517 -0.529,1.248 -0.529,2.191c0,0.957 0.175,1.679 0.526,2.167c0.351,0.488 0.866,0.732 1.545,0.732Z"/>
</svg>
