<svg xmlns="http://www.w3.org/2000/svg" width="390" height="57" viewBox="0 0 390 57">
  <g fill="none" fill-rule="evenodd" transform="translate(0 .965)">
    <g fill="#FFF" fill-rule="nonzero" transform="translate(0 10)">
      <path d="M162.646786,35.6149733 C153.063118,35.6149732 145.293921,27.729734 145.293572,18.0025668 C145.293223,8.27539952 153.061853,0.389585829 162.645522,0.388877052 C172.22919,0.388168275 179.998952,8.2728328 180,18 C179.989548,27.7233323 172.226675,35.6033026 162.646786,35.6149733 L162.646786,35.6149733 Z M162.646786,2.17925134 C154.038375,2.18031453 147.060629,9.2639757 147.061328,18.0012833 C147.062026,26.7385908 154.040903,33.8211029 162.649315,33.8207485 C171.257727,33.8203942 178.236038,26.7373076 178.236038,18 C178.225585,9.26608876 171.251853,2.18879828 162.646786,2.17925134 L162.646786,2.17925134 Z"/>
      <path d="M154.927081 10.1512299L158.225501 10.1512299C159.489989 10.1512299 160.458588 10.5099465 161.131296 11.2273797 161.804004 11.9448128 162.139094 12.9458824 162.136565 14.2305882L162.136565 21.6134759C162.136565 23.0919786 161.78314 24.1828877 161.076291 24.8862032 160.369442 25.5895187 159.354057 25.9405348 158.030137 25.9392513L154.927081 25.9392513 154.927081 10.1512299zM157.155743 23.8081283L158.187566 23.8081283C158.813488 23.8081283 159.256059 23.648984 159.515279 23.3306952 159.774499 23.0124064 159.905374 22.5137968 159.907903 21.8348663L159.907903 14.2305882C159.907903 13.6094118 159.781454 13.1287701 159.528556 12.7886631 159.275659 12.4485561 158.828662 12.2785027 158.187566 12.2785027L157.161433 12.2785027 157.155743 23.8081283zM164.232455 10.1512299L167.48156 10.1512299C168.105824 10.1343622 168.726856 10.2477169 169.306217 10.4842781 169.777527 10.6835652 170.199292 10.9867066 170.540991 11.3717647 170.860345 11.7398009 171.095475 12.1750246 171.229505 12.6462032 171.368276 13.1322703 171.437894 13.635972 171.436249 14.1420321L171.436249 14.7195722C171.442215 15.0840549 171.409144 15.4481165 171.337619 15.8053476 171.280498 16.0762391 171.181258 16.3361756 171.043625 16.5754011 170.914318 16.7949691 170.752462 16.9930127 170.563751 17.1625668 170.361233 17.3426638 170.142098 17.5025462 169.909378 17.64 170.409498 17.8688567 170.817671 18.2641251 171.066386 18.7604278 171.319283 19.2558289 171.445732 19.9174332 171.445732 20.7452406L171.445732 21.6327273C171.445732 23.0226738 171.114436 24.086631 170.451844 24.8245989 169.789252 25.5625668 168.72961 25.9321925 167.272919 25.9334759L164.238145 25.9334759 164.232455 10.1512299zM166.461117 16.6254545L167.466386 16.6254545C168.208641 16.6254545 168.707482 16.4367914 168.962908 16.0594652 169.218335 15.682139 169.344784 15.1315508 169.342255 14.4077005 169.342255 13.6979679 169.200632 13.1659893 168.917387 12.8117647 168.634141 12.4575401 168.120759 12.2804278 167.377239 12.2804278L166.45922 12.2804278 166.461117 16.6254545zM166.461117 23.6752941L167.422761 23.6752941C167.786108 23.6953733 168.149081 23.6294685 168.483035 23.4827807 168.726081 23.3607326 168.927565 23.1676305 169.061538 22.9283422 169.199674 22.6677227 169.281776 22.3803293 169.302424 22.0851337 169.331507 21.7604278 169.346048 21.4055615 169.346048 21.0205348 169.34911 20.6721865 169.326922 20.3240815 169.279663 19.9790374 169.245721 19.7104013 169.149518 19.4537586 168.998946 19.2301604 168.855977 19.026608 168.6585 18.8689331 168.429926 18.7758289 168.115157 18.6609716 167.781707 18.608049 167.447418 18.619893L166.46491 18.619893 166.461117 23.6752941zM13.3017914 33.5570053C11.7597471 34.9893048 9.8630137 35.582246 6.72961012 35.582246L.584193888 35.582246C.27626933 35.5910789.0173330724 35.3495978-1.89521739e-16 35.0374332L-1.89521739e-16.962566845C.0173330724.650402196.27626933.408921072.584193888.417754011L6.78271865.417754011C9.8630137.417754011 11.7123288.962566845 13.1955743 2.44299465 14.7850369 4.02352941 15.2630137 5.85048128 15.2630137 9.50631016 15.2630137 11.9762567 14.9443625 14.1497326 13.0381454 15.926631 12.3669137 16.5785738 11.5482049 17.0532236 10.6539515 17.308877 11.6307337 17.5114958 12.5310115 17.9907347 13.2505796 18.691123 15.3161222 20.6663102 15.5797682 23.2941176 15.5797682 25.7967914 15.5797682 30.1495187 14.891254 32.0265241 13.3017914 33.5570053zM6.82824025 3.03593583L3.71190727 3.03593583C3.40398271 3.02710289 3.14504645 3.26858401 3.12771338 3.58074866L3.12771338 15.5281283C3.14504645 15.840293 3.40398271 16.0817741 3.71190727 16.0729412L6.82824025 16.0729412C10.2271865 16.0729412 12.1390938 14.2459893 12.1390938 9.5544385 12.1390938 4.41818182 10.2271865 3.03593583 6.82824025 3.03593583zM6.82824025 18.6429947L3.71190727 18.6429947C3.40398271 18.6341617 3.14504645 18.8756428 3.12771338 19.1878075L3.12771338 32.4192513C3.14504645 32.731416 3.40398271 32.9728971 3.71190727 32.9640642L6.82824025 32.9640642C10.4320337 32.9640642 12.4463646 31.4239572 12.4463646 25.8025668 12.4539515 20.6663102 10.4320337 18.6410695 6.82824025 18.6410695L6.82824025 18.6429947zM20.7521602 35.0374332L20.7521602.962566845C20.7694932.650402196 21.0284295.408921072 21.3363541.417754011L23.2937829.417754011C23.6017075.408921072 23.8606437.650402196 23.8779768.962566845L23.8779768 35.0374332C23.8606437 35.3495978 23.6017075 35.5910789 23.2937829 35.582246L21.3363541 35.582246C21.0284295 35.5910789 20.7694932 35.3495978 20.7521602 35.0374332zM37.3656481 35.9768984C34.9283456 35.9768984 33.0202318 35.1875936 31.7475237 33.9035294 29.3633298 31.5336898 29.0920969 28.7672727 29.0920969 18 29.0920969 7.23272727 29.3576396 4.46823529 31.7475237 2.09647059 33.0240253.812406417 34.9321391.0231016043 37.3656481.0231016043 39.799157.0231016043 41.5517387.764278075 42.8244468 1.94823529 44.3020021 3.37090909 45.1005269 5.47508021 45.1972603 7.90652406 45.1900068 8.2247604 44.9304209 8.47703981 44.6168599 8.47058824L42.659431 8.47058824C42.3569909 8.47983437 42.1003147 8.24722768 42.0752371 7.94117647 41.9614331 5.29026738 40.9466807 2.64128342 37.3694415 2.64128342 35.8330875 2.64128342 34.7728135 3.13604278 34.0311907 3.92534759 32.4948367 5.65796791 32.229294 7.67935829 32.229294 18.0019251 32.229294 28.324492 32.4948367 30.3497326 34.0311907 32.0785027 34.7728135 32.8678075 35.8330875 33.3625668 37.3694415 33.3625668 40.0722866 33.3625668 42.0866175 31.3873797 42.0866175 28.0780749L42.0866175 19.9771123C42.0692844 19.6649477 41.8103482 19.4234665 41.5024236 19.4322995L37.3656481 19.4322995 37.3656481 16.9623529 44.6244468 16.9623529C44.9323713 16.95352 45.1913076 17.1950011 45.2086407 17.5071658L45.2086407 28.0742246C45.2124341 33.3048128 41.5555321 35.9768984 37.3656481 35.9768984zM63.1024236 34.2981818C61.8297155 35.3358289 60.1340358 35.9768984 57.9091675 35.9768984 55.4718651 35.9768984 53.5637513 35.1875936 52.2910432 33.9035294 49.9068493 31.5336898 49.6356164 28.7672727 49.6356164 18 49.6356164 7.23272727 49.9011591 4.46823529 52.2910432 2.09647059 53.5637513.812406417 55.4718651.0231016043 57.9091675.0231016043 60.2933614.0231016043 62.0421496.714224599 63.3148577 1.90010695 64.8322445 3.32085561 65.5909378 5.46352941 65.7293994 7.8968984 65.729454 8.05277769 65.6674254 8.20206036 65.5574087 8.31082395 65.4473921 8.41958754 65.2987306 8.47859529 65.1452055 8.4744385L63.199157 8.4744385C62.8973905 8.48375057 62.6409889 8.25223763 62.6149631 7.94695187 62.544784 6.35871658 62.1445732 4.85518717 61.143098 3.83294118 60.4014752 3.09176471 59.3943098 2.64705882 57.9186512 2.64705882 56.3822972 2.64705882 55.3220232 3.14181818 54.5804004 3.93112299 53.0440464 5.66374332 52.7785037 7.68513369 52.7785037 18.0077005 52.7785037 28.3302674 53.0440464 30.355508 54.5804004 32.0842781 55.3220232 32.8735829 56.3822972 33.3683422 57.9186512 33.3683422 59.4018967 33.3683422 60.4090622 32.9236364 61.143098 32.1824599 62.1445732 31.1602139 62.5466807 29.6566845 62.6149631 28.0684492 62.635234 27.7585748 62.8933093 27.520448 63.199157 27.5294118L65.1471022 27.5294118C65.3006273 27.525255 65.4492888 27.5842627 65.5593055 27.6930263 65.6693221 27.8017899 65.7313507 27.9510726 65.7312961 28.1069519 65.5871444 30.6731551 64.7810327 32.8716578 63.1024236 34.2981818zM82.7412013 35.0374332L82.7412013 19.0376471 73.4149631 19.0376471 73.4149631 35.0374332C73.39763 35.3495978 73.1386938 35.5910789 72.8307692 35.582246L70.8733404 35.582246C70.5654158 35.5910789 70.3064795 35.3495978 70.2891465 35.0374332L70.2891465.962566845C70.3064795.650402196 70.5654158.408921072 70.8733404.417754011L72.8345627.417754011C73.1410317.411035573 73.397664.651932274 73.4149631.962566845L73.4149631 16.3636364 82.7412013 16.3636364 82.7412013.962566845C82.7585343.650402196 83.0174706.408921072 83.3253952.417754011L85.282824.417754011C85.5914754.407856335 85.8515697.649632442 85.8689146.962566845L85.8689146 35.0374332C85.8515816 35.3495978 85.5926453 35.5910789 85.2847208 35.582246L83.3253952 35.582246C83.0174706 35.5910789 82.7585343 35.3495978 82.7412013 35.0374332L82.7412013 35.0374332zM104.618124 35.1452406L102.738462 26.3897326C102.674267 26.1256909 102.437278 25.942882 102.169442 25.9508021L94.3302424 25.9508021C94.0618461 25.9430866 93.8246606 26.1268491 93.7612223 26.3916578L91.9308746 35.1413904C91.8674363 35.406199 91.6302508 35.5899616 91.3618546 35.582246L89.1730242 35.582246C89.0038628 35.591342 88.8400075 35.5208195 88.7288517 35.3910762 88.6176959 35.261333 88.5716397 35.0868428 88.6040042 34.9180749L96.7599579.843208556C96.829351.584533584 97.0650037.408336777 97.3289779.417754011L99.312961.417754011C99.5774807.40855753 99.8133207.585692324 99.881981.84513369L107.891886 34.92C107.923584 35.0884772 107.877222 35.2623926 107.76615 35.3916618 107.655078 35.5209309 107.491627 35.5912049 107.322866 35.582246L105.190938 35.582246C104.92226 35.5922217 104.683367 35.4099678 104.618124 35.1452406zM98.2507903 5.65219251L94.6261328 22.6819251C94.5991055 22.8485038 94.6475319 23.0185706 94.7579453 23.1448323 94.8683587 23.2710941 95.0289837 23.3400852 95.1951528 23.3326203L101.348156 23.3326203C101.514716 23.3402005 101.675726 23.2709583 101.786218 23.1442319 101.896711 23.0175056 101.944845 22.8468769 101.917176 22.68L98.2507903 5.65219251zM110.678188 35.0374332L110.678188.962566845C110.695521.650402196 110.954457.408921072 111.262381.417754011L113.21981.417754011C113.527735.408921072 113.786671.650402196 113.804004.962566845L113.804004 35.0374332C113.786671 35.3495978 113.527735 35.5910789 113.21981 35.582246L111.264278 35.582246C110.955627 35.5921437 110.695533 35.3503676 110.678188 35.0374332zM133.359326 35.2299465L122.951949 8.17219251 122.951949 35.0374332C122.934616 35.3495978 122.67568 35.5910789 122.367756 35.582246L120.410327 35.582246C120.102402 35.5910789 119.843466 35.3495978 119.826133 35.0374332L119.826133.962566845C119.843466.650402196 120.102402.408921072 120.410327.417754011L122.540358.417754011C122.779842.407964034 123.00092.547634605 123.097998.770053476L133.505374 27.820107 133.444679.962566845C133.461023.64963942 133.72025.407033003 134.028872.415828877L135.995785.415828877C136.298566.415391512 136.548657.655689085 136.564805.962566845L136.564805 35.0374332C136.547472 35.3495978 136.288536 35.5910789 135.980611 35.582246L133.909378 35.582246C133.672617 35.5888446 133.455361 35.4496956 133.359326 35.2299465z"/>
    </g>
    <path stroke="#B581CF" stroke-linecap="square" stroke-width="2" d="M200.5,0.5 L200.5,54.5"/>
    <path fill="#FFF" d="M243.044,34.6 C243.044,33.5439947 242.836002,32.6400038 242.42,31.888 C242.003998,31.1359962 241.444004,30.4720029 240.74,29.896 C240.035996,29.3199971 239.228005,28.8080022 238.316,28.36 C237.403995,27.9119978 236.452005,27.4640022 235.46,27.016 C234.307994,26.5039974 233.188005,25.944003 232.1,25.336 C231.011995,24.727997 230.052004,24.0480038 229.22,23.296 C228.387996,22.5439962 227.716003,21.6880048 227.204,20.728 C226.691997,19.7679952 226.436,18.6640062 226.436,17.416 C226.436,16.3919949 226.627998,15.3680051 227.012,14.344 C227.396002,13.3199949 227.971996,12.4000041 228.74,11.584 C229.508004,10.7679959 230.467994,10.1040026 231.62,9.592 C232.772006,9.07999744 234.115992,8.824 235.652,8.824 C236.772006,8.824 237.803995,8.96799856 238.748,9.256 C239.692005,9.54400144 240.547996,9.91199776 241.316,10.36 C242.084004,10.8080022 242.763997,11.3199971 243.356,11.896 C243.948003,12.4720029 244.467998,13.063997 244.916,13.672 L242.996,15.16 C242.675998,14.6799976 242.284002,14.2080023 241.82,13.744 C241.355998,13.2799977 240.828003,12.8640018 240.236,12.496 C239.643997,12.1279982 238.964004,11.8320011 238.196,11.608 C237.427996,11.3839989 236.596004,11.272 235.7,11.272 C233.65199,11.272 232.012006,11.8399943 230.78,12.976 C229.547994,14.1120057 228.932,15.5439914 228.932,17.272 C228.932,18.2960051 229.147998,19.1759963 229.58,19.912 C230.012002,20.6480037 230.611996,21.319997 231.38,21.928 C232.148004,22.536003 233.059995,23.1039974 234.116,23.632 C235.172005,24.1600026 236.307994,24.6959973 237.524,25.24 C238.868007,25.848003 240.035995,26.4639969 241.028,27.088 C242.020005,27.7120031 242.851997,28.3999962 243.524,29.152 C244.196003,29.9040038 244.699998,30.7119957 245.036,31.576 C245.372002,32.4400043 245.54,33.4159946 245.54,34.504 C245.54,35.8800069 245.284003,37.1279944 244.772,38.248 C244.259997,39.3680056 243.556004,40.3199961 242.66,41.104 C241.763996,41.8880039 240.716006,42.4959978 239.516,42.928 C238.315994,43.3600022 237.028007,43.576 235.652,43.576 C234.275993,43.576 233.036006,43.376002 231.932,42.976 C230.827994,42.575998 229.836004,42.0560032 228.956,41.416 C228.075996,40.7759968 227.316003,40.0400042 226.676,39.208 C226.035997,38.3759958 225.508002,37.5440042 225.092,36.712 L227.348,35.368 C227.668002,36.1360038 228.083997,36.8639966 228.596,37.552 C229.108003,38.2400034 229.707997,38.8479974 230.396,39.376 C231.084003,39.9040026 231.859996,40.3279984 232.724,40.648 C233.588004,40.9680016 234.547995,41.128 235.604,41.128 C236.596005,41.128 237.547995,40.9760015 238.46,40.672 C239.372005,40.3679985 240.163997,39.9360028 240.836,39.376 C241.508003,38.8159972 242.043998,38.136004 242.444,37.336 C242.844002,36.535996 243.044,35.6240051 243.044,34.6 Z M268.772,30.76 C268.74,30.151997 268.580001,29.4000045 268.292,28.504 C268.003999,27.6079955 267.540003,26.7520041 266.9,25.936 C266.259997,25.1199959 265.428005,24.4240029 264.404,23.848 C263.379995,23.2719971 262.132007,22.984 260.66,22.984 C259.155992,22.984 257.900005,23.279997 256.892,23.872 C255.883995,24.464003 255.060003,25.1679959 254.42,25.984 C253.779997,26.8000041 253.316001,27.6479956 253.028,28.528 C252.739999,29.4080044 252.58,30.151997 252.548,30.76 L268.772,30.76 Z M260.612,20.536 C262.116008,20.536 263.523993,20.8239971 264.836,21.4 C266.148007,21.9760029 267.283995,22.767995 268.244,23.776 C269.204005,24.784005 269.963997,25.9999929 270.524,27.424 C271.084003,28.8480071 271.364,30.3919917 271.364,32.056 L271.364,32.536 C271.364,32.6320005 271.348,32.8079987 271.316,33.064 L252.452,33.064 C252.484,33.9280043 252.691998,34.8319953 253.076,35.776 C253.460002,36.7200047 254.011996,37.5839961 254.732,38.368 C255.452004,39.1520039 256.339995,39.8079974 257.396,40.336 C258.452005,40.8640026 259.683993,41.128 261.092,41.128 C261.956004,41.128 262.771996,41.024001 263.54,40.816 C264.308004,40.607999 265.011997,40.3280018 265.652,39.976 C266.292003,39.6239982 266.859998,39.2240022 267.356,38.776 C267.852002,38.3279978 268.291998,37.8640024 268.676,37.384 L270.356,39.112 C269.235994,40.4560067 267.868008,41.5359959 266.252,42.352 C264.635992,43.1680041 262.900009,43.576 261.044,43.576 C259.443992,43.576 257.972007,43.272003 256.628,42.664 C255.283993,42.055997 254.116005,41.2240053 253.124,40.168 C252.131995,39.1119947 251.356003,37.880007 250.796,36.472 C250.235997,35.063993 249.956,33.560008 249.956,31.96 C249.956,30.4239923 250.219997,28.9680069 250.748,27.592 C251.276003,26.2159931 252.003995,25.0080052 252.932,23.968 C253.860005,22.9279948 254.979993,22.0960031 256.292,21.472 C257.604007,20.8479969 259.043992,20.536 260.612,20.536 Z M285.284,20.536 C285.796003,20.536 286.355997,20.5839995 286.964,20.68 C287.572003,20.7760005 288.115998,20.919999 288.596,21.112 L287.54,23.512 C287.315999,23.3839994 286.948003,23.2640006 286.436,23.152 C285.923997,23.0399994 285.396003,22.984 284.852,22.984 C284.083996,22.984 283.404003,23.1039988 282.812,23.344 C282.219997,23.5840012 281.684002,23.903998 281.204,24.304 C280.723998,24.704002 280.308002,25.1599974 279.956,25.672 C279.603998,26.1840026 279.300001,26.6959974 279.044,27.208 L279.044,43 L276.548,43 L276.548,21.112 L278.804,21.112 L278.804,24.664 C279.060001,24.1519974 279.387998,23.6480025 279.788,23.152 C280.188002,22.6559975 280.659997,22.2160019 281.204,21.832 C281.748003,21.4479981 282.355997,21.1360012 283.028,20.896 C283.700003,20.6559988 284.451996,20.536 285.284,20.536 Z M291.956,21.112 L300.26,38.728 L308.564,21.112 L311.156,21.112 L300.212,43.96 L289.268,21.112 L291.956,21.112 Z M314.996,14.008 C314.996,13.4639973 315.179998,13.0080018 315.548,12.64 C315.916002,12.2719982 316.371997,12.088 316.916,12.088 C317.460003,12.088 317.915998,12.2719982 318.284,12.64 C318.652002,13.0080018 318.836,13.4639973 318.836,14.008 C318.836,14.5520027 318.652002,15.0079982 318.284,15.376 C317.915998,15.7440018 317.460003,15.928 316.916,15.928 C316.371997,15.928 315.916002,15.7440018 315.548,15.376 C315.179998,15.0079982 314.996,14.5520027 314.996,14.008 Z M315.668,21.112 L318.164,21.112 L318.164,43 L315.668,43 L315.668,21.112 Z M335.3,41.128 C337.060009,41.128 338.547994,40.7360039 339.764,39.952 C340.980006,39.1679961 341.907997,38.3440043 342.548,37.48 L344.276,39.112 C343.411996,40.2640058 342.220008,41.2959954 340.7,42.208 C339.179992,43.1200046 337.364011,43.576 335.252,43.576 C333.619992,43.576 332.124007,43.272003 330.764,42.664 C329.403993,42.055997 328.220005,41.2320052 327.212,40.192 C326.203995,39.1519948 325.420003,37.936007 324.86,36.544 C324.299997,35.151993 324.02,33.656008 324.02,32.056 C324.02,30.4879922 324.299997,29.000007 324.86,27.592 C325.420003,26.183993 326.203995,24.9600052 327.212,23.92 C328.220005,22.8799948 329.403993,22.056003 330.764,21.448 C332.124007,20.839997 333.619992,20.536 335.252,20.536 C336.308005,20.536 337.283996,20.6639987 338.18,20.92 C339.076004,21.1760013 339.899996,21.4959981 340.652,21.88 C341.404004,22.2640019 342.059997,22.7039975 342.62,23.2 C343.180003,23.6960025 343.651998,24.1839976 344.036,24.664 L342.26,26.248 C341.651997,25.4799962 340.756006,24.7440035 339.572,24.04 C338.387994,23.3359965 336.964008,22.984 335.3,22.984 C333.987993,22.984 332.796005,23.2319975 331.724,23.728 C330.651995,24.2240025 329.740004,24.8879958 328.988,25.72 C328.235996,26.5520042 327.652002,27.5119946 327.236,28.6 C326.819998,29.6880054 326.612,30.8399939 326.612,32.056 C326.612,33.2720061 326.819998,34.4239946 327.236,35.512 C327.652002,36.6000054 328.235996,37.5599958 328.988,38.392 C329.740004,39.2240042 330.651995,39.8879975 331.724,40.384 C332.796005,40.8800025 333.987993,41.128 335.3,41.128 Z M365.876,30.76 C365.844,30.151997 365.684001,29.4000045 365.396,28.504 C365.107999,27.6079955 364.644003,26.7520041 364.004,25.936 C363.363997,25.1199959 362.532005,24.4240029 361.508,23.848 C360.483995,23.2719971 359.236007,22.984 357.764,22.984 C356.259992,22.984 355.004005,23.279997 353.996,23.872 C352.987995,24.464003 352.164003,25.1679959 351.524,25.984 C350.883997,26.8000041 350.420001,27.6479956 350.132,28.528 C349.843999,29.4080044 349.684,30.151997 349.652,30.76 L365.876,30.76 Z M357.716,20.536 C359.220008,20.536 360.627993,20.8239971 361.94,21.4 C363.252007,21.9760029 364.387995,22.767995 365.348,23.776 C366.308005,24.784005 367.067997,25.9999929 367.628,27.424 C368.188003,28.8480071 368.468,30.3919917 368.468,32.056 L368.468,32.536 C368.468,32.6320005 368.452,32.8079987 368.42,33.064 L349.556,33.064 C349.588,33.9280043 349.795998,34.8319953 350.18,35.776 C350.564002,36.7200047 351.115996,37.5839961 351.836,38.368 C352.556004,39.1520039 353.443995,39.8079974 354.5,40.336 C355.556005,40.8640026 356.787993,41.128 358.196,41.128 C359.060004,41.128 359.875996,41.024001 360.644,40.816 C361.412004,40.607999 362.115997,40.3280018 362.756,39.976 C363.396003,39.6239982 363.963998,39.2240022 364.46,38.776 C364.956002,38.3279978 365.395998,37.8640024 365.78,37.384 L367.46,39.112 C366.339994,40.4560067 364.972008,41.5359959 363.356,42.352 C361.739992,43.1680041 360.004009,43.576 358.148,43.576 C356.547992,43.576 355.076007,43.272003 353.732,42.664 C352.387993,42.055997 351.220005,41.2240053 350.228,40.168 C349.235995,39.1119947 348.460003,37.880007 347.9,36.472 C347.339997,35.063993 347.06,33.560008 347.06,31.96 C347.06,30.4239923 347.323997,28.9680069 347.852,27.592 C348.380003,26.2159931 349.107995,25.0080052 350.036,23.968 C350.964005,22.9279948 352.083993,22.0960031 353.396,21.472 C354.708007,20.8479969 356.147992,20.536 357.716,20.536 Z M373.94,37.24 C374.548003,38.2000048 375.475994,39.0879959 376.724,39.904 C377.972006,40.7200041 379.491991,41.128 381.284,41.128 C381.892003,41.128 382.531997,41.0640006 383.204,40.936 C383.876003,40.8079994 384.499997,40.5920015 385.076,40.288 C385.652003,39.9839985 386.123998,39.5920024 386.492,39.112 C386.860002,38.6319976 387.044,38.0240037 387.044,37.288 C387.044,36.6479968 386.892002,36.1200021 386.588,35.704 C386.283998,35.2879979 385.852003,34.9280015 385.292,34.624 C384.731997,34.3199985 384.084004,34.064001 383.348,33.856 C382.611996,33.647999 381.812004,33.448001 380.948,33.256 C379.859995,32.9999987 378.844005,32.7040017 377.9,32.368 C376.955995,32.0319983 376.132004,31.6080026 375.428,31.096 C374.723996,30.5839974 374.172002,29.9920034 373.772,29.32 C373.371998,28.6479966 373.172,27.8480046 373.172,26.92 C373.172,26.0559957 373.347998,25.2400038 373.7,24.472 C374.052002,23.7039962 374.563997,23.0320029 375.236,22.456 C375.908003,21.8799971 376.723995,21.4160018 377.684,21.064 C378.644005,20.7119982 379.731994,20.536 380.948,20.536 C382.676009,20.536 384.203993,20.839997 385.532,21.448 C386.860007,22.056003 387.923996,22.7759958 388.724,23.608 L387.092,25.432 C386.515997,24.8559971 385.700005,24.3040026 384.644,23.776 C383.587995,23.2479974 382.340007,22.984 380.9,22.984 C379.395992,22.984 378.156005,23.3199966 377.18,23.992 C376.203995,24.6640034 375.716,25.5919941 375.716,26.776 C375.716,27.4480034 375.883998,27.9999978 376.22,28.432 C376.556002,28.8640022 377.019997,29.2399984 377.612,29.56 C378.204003,29.8800016 378.899996,30.143999 379.7,30.352 C380.500004,30.560001 381.363995,30.7759989 382.292,31 C383.252005,31.2240011 384.179996,31.4879985 385.076,31.792 C385.972004,32.0960015 386.755997,32.4879976 387.428,32.968 C388.100003,33.4480024 388.635998,34.0239966 389.036,34.696 C389.436002,35.3680034 389.636,36.199995 389.636,37.192 C389.636,38.2800054 389.396002,39.223996 388.916,40.024 C388.435998,40.824004 387.812004,41.4879974 387.044,42.016 C386.275996,42.5440026 385.388005,42.9359987 384.38,43.192 C383.371995,43.4480013 382.340005,43.576 381.284,43.576 C380.163994,43.576 379.116005,43.4400014 378.14,43.168 C377.163995,42.8959986 376.284004,42.5360022 375.5,42.088 C374.715996,41.6399978 374.028003,41.1440027 373.436,40.6 C372.843997,40.0559973 372.356002,39.4960029 371.972,38.92 L373.94,37.24 Z"/>
  </g>
</svg>
