<svg xmlns="http://www.w3.org/2000/svg" width="194" height="51" viewBox="0 0 194 51">
  <g>
    <path d="M.84 7.92L18.6 7.92C19.47 7.92 19.47 7.92 19.47 8.78L19.47 11.78C19.47 12.14 19.39 12.24 19.02 12.24L13.02 12.24C12.61 12.24 12.51 12.34 12.52 12.75L12.52 39.42C12.52 39.9 12.4 40 11.94 39.99 10.74 39.9566667 9.54 39.9566667 8.34 39.99 7.87 39.99 7.8 39.84 7.8 39.42L7.8 22.42 7.8 12.73C7.8 12.37 7.71 12.27 7.34 12.27L.84 12.27.84 7.92zM65.73 33.08L65.73 27.08C65.6682901 23.128372 62.6357984 19.8597061 58.699877 19.5023625 54.7639555 19.1450189 51.1923738 21.8140987 50.42 25.69 50.3376282 26.1453284 50.2974579 26.6072878 50.3 27.07L50.3 39.53C50.3 39.9 50.23 40.03 49.83 40.02L45.63 40.02C45.29 40.02 45.15 40.02 45.15 39.58L45.15 26.8C45.2852188 20.7841088 49.608067 15.6817305 55.52 14.56 62.1764935 13.2822024 68.6877085 17.3697257 70.43 23.92 70.6919074 24.9156349 70.8263159 25.9404998 70.83 26.97L70.83 39.52C70.83 39.92 70.74 40.04 70.32 40.03L66.17 40.03C65.8 40.03 65.68 39.95 65.68 39.56 65.74 37.39 65.73 35.23 65.73 33.08zM153.06 32.74L153.06 39.57C153.06 39.9 152.99 40.02 152.63 40.01L148.39 40.01C148 40.01 147.95 39.88 147.95 39.54L147.95 27.08C147.8914 23.0335384 144.721754 19.7171947 140.682079 19.4757067 136.642405 19.2342187 133.100247 22.1493369 132.56 26.16 132.534762 26.5262324 132.534762 26.8937676 132.56 27.26L132.56 39.49C132.56 39.9 132.46 40.01 132.05 40L127.81 40C127.52 40 127.42 39.94 127.42 39.62L127.42 26.79C127.558353 20.6901019 131.989343 15.538762 138 14.49 144.629387 13.3457019 151.026289 17.4841057 152.7 24 152.939619 24.9208303 153.060598 25.8685037 153.06 26.82L153.06 32.74zM155.9 17.68L155.9 7.44C155.9 7.08 155.99 6.98 156.35 6.99L160.59 6.99C160.95 6.99 161.01 7.09 161.01 7.42L161.01 18.86C161.01 19.26 161.09 19.4 161.53 19.4L170.85 19.4C171.23 19.4 171.34 19.5 171.33 19.88L171.33 24.08C171.33 24.48 171.21 24.55 170.84 24.55L161.47 24.55C161.13 24.55 160.99 24.61 161 24.99 160.938334 26.3554056 161.025514 27.7234668 161.26 29.07 162.131172 32.4442959 165.165122 34.8090523 168.65 34.83L171 34.83C171.23 34.83 171.32 34.89 171.32 35.14L171.32 39.66C171.32 39.82 171.32 39.96 171.1 39.96 168.997 40.1263384 166.88115 39.9198314 164.85 39.35 160.015772 37.8347618 156.540153 33.5972557 156 28.56 155.936924 28.0726612 155.910184 27.5813057 155.92 27.09 155.906667 23.95 155.9 20.8133333 155.9 17.68zM134.9 45.3L170.53 45.3C170.77 45.3 171.06 45.19 171.04 45.65 171.04 45.96 170.94 46.07 170.65 46.02L99.25 46.02C99.06 46.02 98.73 46.22 98.69 45.77 98.65 45.32 98.81 45.3 99.18 45.3L134.9 45.3zM39.28 46L8.28 46C8.07 46 7.8 46.13 7.78 45.69 7.76 45.25 7.98 45.28 8.28 45.28L70.28 45.28C70.49 45.28 70.77 45.15 70.79 45.59 70.81 46.03 70.58 46 70.28 46L39.28 46zM193.55 5.93C193.395909 3.55031964 191.736314 1.53624791 189.43.93 189.190694.910618479 188.958563.838930728 188.75.72L186.44.72C186.38.87 186.23.82 186.12.84 183.354345 1.34769474 181.374253 3.79943974 181.46 6.61L181.46 13.53C181.393622 14.7817779 181.745414 16.020087 182.46 17.05 184.249077 19.3212693 187.334098 20.1191196 190 19 191.840143 18.3433953 193.172315 16.7309688 193.47 14.8 193.531675 14.5137128 193.568479 14.2226286 193.58 13.93 193.62 11.28 193.78 8.6 193.55 5.93zM191.8 14.14C191.71574 15.8583155 190.518242 17.3196695 188.85 17.74 187.09375 18.2876254 185.181935 17.690183 184.05 16.24 183.48534 15.3874603 183.195655 14.3822876 183.22 13.36L183.22 9.84C183.1831 8.5259904 183.213139 7.21095414 183.31 5.9 183.483777 4.2797999 184.623006 2.92696526 186.19 2.48 187.940997 1.92779857 189.851378 2.50766447 191 3.94 191.603783 4.82013794 191.902364 5.87395394 191.85 6.94 191.87 9.32 192 11.73 191.79 14.14L191.8 14.14z"/>
    <path d="M175.23.85C175.12.85 174.97.85 174.91.72L172.69.72C172.69.84 172.54.8 172.46.82 171.407618.998417997 170.426807 1.46976187 169.63 2.18 167.873625 3.7496546 167.16037 6.18014619 167.79 8.45 168.262362 10.8829231 170.316764 12.6907966 172.79 12.85 173.583686 12.8893703 174.37885 12.8118755 175.15 12.62L171 19.12 172.79 19.12C173.07968 19.1513645 173.358494 19.0000081 173.49 18.74 174.823333 16.6733333 176.136667 14.6133333 177.43 12.56 178.237834 11.3692591 178.908744 10.0911757 179.43 8.75 180.080376 7.14972388 179.987616 5.34342773 179.176732 3.81819328 178.365848 2.29295883 176.92034 1.20584484 175.23.85L175.23.85zM173.65 11.26C171.302546 11.1027147 169.478831 9.15271774 169.478831 6.8 169.478831 4.44728226 171.302546 2.49728526 173.65 2.34 174.823922 2.34231876 175.94731 2.81792709 176.76603 3.65923273 177.58475 4.50053837 178.02962 5.63644953 178 6.81 178.047068 7.9856562 177.606938 9.12863445 176.783519 9.96908941 175.9601 10.8095444 174.826373 11.2729858 173.65 11.25L173.65 11.26zM98.14 27.13C98.142294 26.3460561 98.0787372 25.5633046 97.95 24.79 96.6955313 17.8378323 90.0643075 13.2020736 83.1041758 14.4115752 76.144044 15.6210768 71.4655161 22.2221951 72.63 29.19 73.7060744 35.2947294 78.9427274 39.7904651 85.14 39.93L92.55 39.93 92.55 40.06C91.661995 42.542246 89.5495465 44.3859063 86.97 44.93 85.7110791 45.1356626 84.432703 45.1960583 83.16 45.11 82.83 45.11 82.71 45.17 82.72 45.53L82.72 48.85C82.72 49.28 82.58 49.85 82.79 50.1 83 50.35 83.63 50.18 84.07 50.19 85.5282363 50.275411 86.9913368 50.1644172 88.42 49.86 94.1624852 48.401958 98.1696133 43.2145636 98.13 37.29 98.1433333 33.8966667 98.1466667 30.51 98.14 27.13zM92.66 34.81L88.6 34.81 88.6 34.81 84.73 34.81C80.5754284 34.4747959 77.4370795 30.9022684 77.6400121 26.7391391 77.8429446 22.5760098 81.3138763 19.325653 85.4813531 19.3961087 89.6488299 19.4665645 93.0079078 22.8323902 93.07 27L93.07 34.38C93.08 34.7 93 34.82 92.66 34.81L92.66 34.81zM42.62 26.93C42.6214226 26.2227726 42.5611947 25.5167672 42.44 24.82 41.2562806 18.1249356 35.0691616 13.5054891 28.3137178 14.2729903 21.558274 15.0404915 16.5651185 20.9301542 16.9134647 27.7201273 17.2618108 34.5101003 22.83148 39.8578581 29.63 39.93L35.63 39.93 42.13 39.93C42.55 39.93 42.63 39.81 42.63 39.42 42.62 35.26 42.62 31.1 42.62 26.93zM37 34.81L33 34.81 33 34.81 29.08 34.81C25.0668575 34.4797221 21.9815929 31.1203752 21.9932404 27.0936818 22.0048878 23.0669883 25.1095349 19.7255462 29.1245209 19.4184901 33.1395068 19.111434 36.7161665 21.9419065 37.34 25.92 37.3936992 26.2841984 37.4204385 26.6518643 37.42 27.02L37.42 34.4C37.5 34.74 37.39 34.82 37 34.81zM124.37 34.25C123.31 33.2 122.25 32.15 121.21 31.08 121.02 30.89 120.92 30.91 120.74 31.08 120.03 31.79 119.36 32.53 118.6 33.17 116.328599 35.0961629 113.130082 35.4891012 110.46 34.17 110.51 34 110.67 33.91 110.78 33.79 115.293333 29.2766667 119.81 24.7633333 124.33 20.25 124.57 20.01 124.6 19.89 124.33 19.65 123.8 19.16 123.33 18.65 122.79 18.13 119.824049 15.1004414 115.525508 13.7792612 111.37 14.62 106.222896 15.572687 102.17068 19.5567139 101.130789 24.6869104 100.090897 29.8171068 102.271881 35.0646045 106.641738 37.9463813 111.011596 40.8281581 116.693945 40.7662695 121 37.79 122.22113 36.8535723 123.361775 35.8166225 124.41 34.69 124.63 34.49 124.5 34.39 124.37 34.25zM106.76 30.48C105.22124 27.4433007 105.914453 23.751635 108.45 21.48 110.62719 19.359518 113.880602 18.7881872 116.65 20.04 117.01 20.18 117.01 20.28 116.74 20.54 113.473333 23.7666667 110.213333 27.0033333 106.96 30.25L106.76 30.48z"/>
  </g>
</svg>
