<svg xmlns="http://www.w3.org/2000/svg" width="115" height="46" viewBox="0 0 115 46">
  <g>
    <path d="M24.36.7C28.7768799 1.30938297 32.105615 5.02301627 32.23 9.48 32.2885237 13.992791 29.0952144 17.8947871 24.66 18.73 24.34 18.79 24.02 18.88 23.66 18.95 23.36 19.31 22.95 19.14 22.59 19.14L8.59 19.14C8.15 19.14 7.59 19.39 7.31 18.83 7.03 18.27 7.5 17.93 7.82 17.58 9.02 16.29 10.09 14.89 11.24 13.58 12.086606 12.5267507 13.3911034 11.9490447 14.74 12.03 17.21 12.09 19.69 12.1 22.16 12.03 23.8 12.03 24.74 11.26 24.9 10.03 25.0462524 9.38465868 24.879785 8.70813127 24.4507752 8.2043399 24.0217653 7.70054853 23.380399 7.42842719 22.72 7.47 21.16 7.34 19.58 7.47 18.01 7.47L11.73 7.47C8.85 7.54 7.23 9.17 7.22 12.03 7.21 14.89 7.22 17.52 7.05 20.26 7.72954899 22.3624672 9.74426015 23.7398717 11.95 23.61L31.63 23.61 26.35 29.81C26.02 30.2 25.58 30.11 25.16 30.11 20.83 30.11 16.49 30.17 12.16 30.11 6.50837388 30.1507876 1.61451577 26.1946748.47 20.66.404860546 20.4923554.317405401 20.3342634.21 20.19L.21 10.19C.701651301 6.39917845 3.08619626 3.11807472 6.54 1.48 7.8132611.82426856 9.24082925.527002554 10.67.62L23 .62C23.4537084.546488546 23.9180392.573802118 24.36.7zM114.62 22.73C114.14 22.84 114.18 23.29 114.04 23.62 112.39 27.62 109.44 29.95 105.11 30.04 98.64 30.18 92.11 30.04 85.68 30.1 84.81 30.1 84.68 29.75 84.68 29 84.68 27.57 84.76 26.14 84.68 24.72 84.62 23.72 85.01 23.56 85.89 23.57L104.46 23.57C106.191474 23.6753228 107.73047 22.4749913 108.05 20.77 108.223033 19.7895753 107.93282 18.7842461 107.263902 18.0468713 106.594984 17.3094966 105.622595 16.9230109 104.63 17L93.34 17C88.51 17 85.03 14.19 84.34 9.73 83.7989626 5.53188824 86.5267035 1.6067079 90.65.65 90.72.65 90.77.52 90.83.45L93.4.45C93.8400679.630013955 94.3228732.678641822 94.79.59L109.5.59C109.965964.510300768 110.444589.551620916 110.89.71 111.26 1.43 110.72 1.89 110.37 2.35 109.27 3.79 108.05 5.12 106.88 6.5 106.249435 7.16726841 105.342567 7.5004039 104.43 7.4L94.43 7.4 93.14 7.4C92.28 7.4 91.42 7.63 91.43 8.7 91.44 9.77 92.33 9.96 93.17 9.98 97.17 10.06 101.07 9.98 105.02 9.98 108.419342 10.0255341 111.569668 11.7715431 113.41 14.63 113.968776 15.6185059 114.370251 16.6879792 114.6 17.8L114.62 22.73zM50.59 45.31C50.02 44.82 49.21 44.7 48.71 44.09 48.51 43.84 48.17 43.66 48.55 43.28 48.93 42.9 49.09 43.06 49.37 43.35 50.57 44.59 52.09 44.57 53.63 44.3 54.34 44.18 55.1 43.87 55.06 42.98 55.02 42.09 54.28 41.98 53.61 41.9 52.44 41.72 51.25 41.6 50.09 41.37 49.2967894 41.3110096 48.6602596 40.6913414 48.58 39.9 48.4642733 39.0743629 48.8917804 38.2677456 49.64 37.9 51.4828997 37.0447896 53.6411416 37.2313044 55.31 38.39 55.54 38.59 55.95 38.75 55.66 39.17 55.37 39.59 55.07 39.41 54.74 39.17 53.5236767 38.2043777 51.8848135 37.9604538 50.44 38.53 49.9633954 38.6332065 49.6150759 39.0429941 49.59 39.53 49.5868938 40.0420317 49.9710651 40.4736849 50.48 40.53 51.32 40.67 52.18 40.74 53.02 40.88 54.27 41.09 55.73 41.06 56.02 42.7 56.31 44.34 55.02 44.77 54.02 45.37L50.59 45.31zM108.33 45.31C107.76 44.82 106.95 44.7 106.45 44.09 106.25 43.84 105.9 43.66 106.29 43.28 106.68 42.9 106.82 43.07 107.11 43.35 108.37 44.61 109.92 44.59 111.51 44.26 112.2 44.12 112.83 43.77 112.77 42.95 112.71 42.13 112.07 42 111.43 41.95 110.26 41.77 109.07 41.66 107.9 41.44 107.053429 41.3976863 106.369161 40.7348018 106.3 39.89 106.173452 38.9472852 106.756205 38.054015 107.67 37.79 109.326646 37.0972432 111.217794 37.2616909 112.73 38.23 113.06 38.44 113.78 38.63 113.32 39.23 112.86 39.83 112.6 39.23 112.32 38.99 111.249714 38.2474051 109.90296 38.0235575 108.65 38.38 108.01 38.54 107.4 38.77 107.38 39.5 107.36 40.23 108.02 40.5 108.65 40.59 109.65 40.75 110.73 40.83 111.76 41 112.79 41.17 113.76 41.56 113.84 42.8 113.910616 43.3311763 113.765127 43.8684738 113.436147 44.2914479 113.107167 44.7144221 112.622215 44.9876922 112.09 45.05 111.66 45.38 111.09 44.98 110.65 45.33L108.33 45.31zM8 45.31L8 38.76C8 38.38 7.75 37.76 8.24 37.63 8.78598366 37.4208963 9.40447242 37.5958636 9.76 38.06 11.16 39.67 12.61 41.24 14.03 42.83 14.1912936 43.0498777 14.3318931 43.2842102 14.45 43.53L14.8 43.31 14.8 38.54C14.8 38.17 14.57 37.54 15.29 37.6 16.01 37.66 15.72 38.12 15.72 38.45L15.72 44.28C15.7050838 44.6406666 15.583254 44.9887517 15.37 45.28L14.51 45.28C12.72 43.47 11.05 41.54 9.17 39.47L9.17 43.75C9.17 44.45 9.06 45.08 8.24 45.28L8 45.31zM37.14 45C35.8832284 44.7067294 35.0317819 43.5359904 35.14 42.25L35.14 38.25C35.14 37.94 35.04 37.54 35.58 37.55 36.12 37.56 36.09 37.89 36.09 38.24L36.09 41.81C36.15 43.7 37.02 44.47 39.03 44.45 41.04 44.43 41.77 43.68 41.82 41.84L41.82 38.42C41.82 37.98 41.82 37.51 42.46 37.57 43.1 37.63 42.84 38.14 42.85 38.46L42.85 41.46C42.85 43.77 42.39 44.46 40.28 45.3L38.57 45.3C38.16 45 37.58 45.36 37.14 45zM64.31 45.31C64.31 43.36 64.31 41.41 64.37 39.47 64.37 38.67 64.17 38.36 63.37 38.47 62.7538374 38.5052615 62.1361626 38.5052615 61.52 38.47 61.19 38.47 60.81 38.47 60.85 37.99 60.89 37.51 61.17 37.58 61.46 37.58L68.46 37.58C68.78 37.58 69.03 37.68 69.04 38.04 69.05 38.4 68.76 38.47 68.45 38.47L68 38.47C65.44 38.54 65.44 38.54 65.44 41.06 65.44 42.06 65.38 43.15 65.44 44.19 65.44 44.75 65.13 44.98 64.86 45.31L64.31 45.31zM87.46 45.31L87.46 38.5C87.46 38.12 87.29 37.58 87.99 37.58 88.69 37.58 88.54 38.09 88.55 38.49L88.55 44.17C88.5334793 44.6122286 88.3299133 45.0266308 87.99 45.31L87.46 45.31z"/>
    <path d="M111.47.44L110.9 1.03C110.49.55 109.9.74 109.43.74L94.93.74C94.43.74 93.88.93 93.46.46L111.47.44zM10.21.69C10.2528894.612756528 10.2800777.527792949 10.29.44L24.29.44C24.2682354.53128078 24.2904369.627487148 24.35.7L10.21.69zM49.14.72C49.1647992.661707814 49.1848641.601513275 49.2.54L49.2.44 59.78.44 59.78.72C59.3839637 1.07170701 58.8555734 1.23569022 58.33 1.17L50.62 1.17C50.0844034 1.24613055 49.5425687 1.08138352 49.14.72L49.14.72zM72.62.74L72.62.43 78.91.43C78.9389887.517665714 78.9389887.612334286 78.91.7 76.8791307 1.42960213 74.6599842 1.44371435 72.62.74L72.62.74zM37.14 45C37.64 45 38.14 44.84 38.58 45.28L37.15 45.28 37.14 45zM110.61 45.31C111.023554 45.0050596 111.552311 44.9022459 112.05 45.03L112.05 45.31 110.61 45.31z"/>
    <path d="M49.14.72L59.75.72C63.84 1.28 67.56 5.46 67.6 9.5 67.6 10.11 67.46 10.37 66.82 10.34L63.68 10.34C62.3 10.34 60.92 10.67 60.51 8.6 60.115244 7.52681383 59.0354758 6.86488693 57.9 7 55.28 7 52.66 6.93 50.04 7 47.42 7.07 45.51 9.6 45.5 12.78L45.5 28.78C45.5 29.78 45.34 30.25 44.2 30.15 42.9188851 30.0432865 41.6311149 30.0432865 40.35 30.15 39.25 30.24 39 29.85 39.01 28.8L39.01 4.08 39.01 1.79C39.01 1.03 39.27.79 40.01.79 41.39.79 42.78.86 44.15.79 45.15.73 45.74.88 45.47 2.15 46.77 1.57 47.8.74 49.14.72zM78.84 6.82C79.22 7.28 79.07 7.73 79.07 8.13L79.07 28.66C79.07 29.89 78.68 30.19 77.54 30.11 76.17 30.02 74.78 30.06 73.41 30.11 72.73 30.11 72.51 29.9 72.51 29.21L72.51 12.67C72.4595308 12.2978821 72.5939259 11.9245623 72.87 11.67 74.89 10.05 76.86 8.44 78.84 6.82zM72.62.74L78.9.74C78.9 1.83 78.9 2.92 78.99 4.02 79.0188559 4.45197641 78.8221305 4.86812626 78.47 5.12 76.59 6.64 74.72 8.18 72.62 9.89L72.62.74zM101.39 45L94.59 45.08C94.420003 42.8175518 94.3732672 40.547528 94.45 38.28 94.45 37.81 94.66 37.6 95.14 37.61L100.55 37.61C100.89 37.61 101.27 37.61 101.26 38.08 101.25 38.55 100.83 38.49 100.52 38.49 99.858854 38.3686665 99.181146 38.3686665 98.52 38.49 97.52 38.94 95.52 37.18 95.52 39.56 95.52 41.94 97.52 40.17 98.47 40.72 98.76 40.88 99.22 40.72 99.6 40.72 99.98 40.72 100.31 40.72 100.32 41.18 100.33 41.64 99.92 41.61 99.61 41.62L97.05 41.62C96.05 41.55 95.43 41.62 95.43 42.97 95.43 44.32 96.07 44.26 96.98 44.23L100.54 44.23C101 44.25 101.54 44.21 101.39 45zM2 45C1.29 45.21 1.09 44.89 1.1 44.22 1.1 42.02 1.16 39.82 1.19 37.61 1.95 37.42 2.05 37.85 2.04 38.47 2 40.64 2 42.81 2 45zM81.61 39.4C81.41 38.2 80.53 37.62 78.8 37.59L75.25 37.59C74.55 37.59 74.25 37.72 74.25 38.51 74.31 40.78 74.3 43.06 74.32 45.33L74.89 45.33C75.61 44.94 75.57 44.24 75.54 43.59 75.48 42.49 76.03 42.21 77.01 42.27 77.7205432 42.3338188 78.3587198 42.730824 78.73 43.34 79.24 44 79.53 44.86 80.42 45.16 80.78 45.04 81.42 45.54 81.48 44.75L79.38 41.95C81.22 41.23 81.8 40.53 81.61 39.4zM75.85 40.93C74.85 40.93 75.34 40.01 75.26 39.5 75.18 38.99 75.1 38.4 75.96 38.5L77.76 38.5C78.4303896 38.4582538 79.103337 38.5087249 79.76 38.65 80.292889 38.7639897 80.6573758 39.2571189 80.61 39.8 80.6265573 40.0754504 80.5285562 40.3454995 80.3391954 40.546222 80.1498345 40.7469446 79.8859471 40.8604972 79.61 40.86 78.3630168 41.0227882 77.1015424 41.0429181 75.85 40.92L75.85 40.93zM28.78 40.85C28.62 38.85 27.23 37.63 24.88 37.58L22.04 37.58C21.26 37.58 20.95 37.75 20.97 38.58 21.04 40.71 20.97 42.84 21.03 44.98L21.03 44.98C22.485408 44.3534127 24.1405683 44.3862242 25.57 45.07 28 44.57 29 43.25 28.78 40.85zM25.33 44.2C22.05 44.64 22.05 44.64 22.05 41.36 22.05 38.08 22.05 38.07 25.32 38.48 26.0211855 38.5102613 26.6797825 38.8248752 27.1439466 39.3513052 27.6081107 39.8777351 27.8377791 40.5705442 27.78 41.27 27.8667872 41.9880948 27.6528421 42.7101205 27.188853 43.2650136 26.7248639 43.8199067 26.0521168 44.1582924 25.33 44.2L25.33 44.2z"/>
    <path d="M21,45 L21,45 L25.54,45.09 C24.1105683,44.4062242 22.455408,44.3734127 21,45 L21,45 Z"/>
  </g>
</svg>
