<svg xmlns="http://www.w3.org/2000/svg" width="38" height="41" viewBox="0 0 38 41">
  <path d="M197.646601,123.015024 C197.832363,123.20957 197.939783,123.439748 198.001887,123.680912 C198.063272,123.87574 198.09568,124.080876 198.09568,124.290509 L198.09568,142.649942 C198.095796,142.661456 198.095795,142.672987 198.09568,142.684534 L198.09568,142.708514 C198.09568,143.45238 197.687627,144.139627 197.024786,144.51156 C193.749628,146.349748 183.893892,151.882862 180.617757,153.72105 C179.954916,154.092983 179.138811,154.092983 178.476946,153.72105 C175.201788,151.882862 165.346052,146.349748 162.069917,144.51156 C161.408052,144.139627 161,143.453357 161,142.709491 C161,139.033113 161,127.967863 161,124.291486 C161,123.54762 161.408052,122.860373 162.070894,122.48844 C165.345076,120.650252 175.202764,115.117138 178.476946,113.27895 C179.139787,112.907017 179.955892,112.907017 180.617757,113.27895 C183.892915,115.117138 193.748652,120.650252 197.024786,122.48844 C197.26929,122.625276 197.479126,122.805149 197.646601,123.015024 Z M191.429802,140.256047 L185.439016,136.959922 C184.249807,138.977154 182.054318,140.333415 179.54784,140.333415 C175.7797,140.333415 172.714425,137.26814 172.714425,133.5 C172.714425,129.73186 175.7797,126.666585 179.54784,126.666585 C182.012979,126.666585 184.177301,127.978477 185.379357,129.940809 L191.316216,126.548453 C188.936259,122.529132 184.555933,119.833171 179.54784,119.833171 C172.001798,119.833171 165.88101,125.953958 165.88101,133.5 C165.88101,141.046042 172.001798,147.166829 179.54784,147.166829 C184.636705,147.166829 189.077389,144.383205 191.429802,140.256047 Z M190.286063,132.523798 L192.238467,132.523798 L192.238467,134.476202 L190.286063,134.476202 L190.286063,132.523798 Z M190.286063,131.547596 L190.286063,129.595192 L189.309861,129.595192 L189.309861,131.547596 L187.357457,131.547596 L187.357457,132.523798 L189.309861,132.523798 L189.309861,134.476202 L187.357457,134.476202 L187.357457,135.452404 L189.309861,135.452404 L189.309861,137.404808 L190.286063,137.404808 L190.286063,135.452404 L192.238467,135.452404 L192.238467,137.404808 L193.214669,137.404808 L193.214669,135.452404 L195.167073,135.452404 L195.167073,134.476202 L193.214669,134.476202 L193.214669,132.523798 L195.167073,132.523798 L195.167073,131.547596 L193.214669,131.547596 L193.214669,129.595192 L192.238467,129.595192 L192.238467,131.547596 L190.286063,131.547596 Z" transform="translate(-161 -113)"/>
</svg>
