<svg xmlns="http://www.w3.org/2000/svg" width="604" height="129" viewBox="0 0 604 129">
  <g>
    <path d="M46.2,54.3 L42.6,64.5 L42.3,64.5 C41.7,62.2 40.6,58.7 38.8,54.5 L19.5,6 L0.6,6 L0.6,83.3 L13.1,83.3 L13.1,35.6 C13.1,32.6 13.1,29.2 13,25 C12.9,22.9 12.7,21.3 12.6,20.1 L12.9,20.1 C13.5,23.1 14.2,25.3 14.7,26.7 L37.9,83.1 L46.7,83.1 L69.7,26.2 C70.2,24.9 70.7,22.3 71.2,20.1 L71.5,20.1 C71.2,25.8 71,30.9 70.9,34 L70.9,83 L84.2,83 L84.2,5.8 L66,5.8 L46.2,54.3 L46.2,54.3 Z M96.8,27.6 L109.8,27.6 L109.8,83 L96.8,83 L96.8,27.6 Z M103.4,4.2 C101.2,4.2 99.4,5 97.9,6.4 C96.4,7.8 95.6,9.6 95.6,11.8 C95.6,13.9 96.4,15.7 97.9,17.1 C99.4,18.5 101.2,19.2 103.4,19.2 C105.6,19.2 107.5,18.4 108.9,17.1 C110.4,15.7 111.2,13.9 111.2,11.8 C111.2,9.7 110.4,7.9 108.9,6.4 C107.6,5 105.7,4.2 103.4,4.2 L103.4,4.2 Z M155.9,27.1 C153.5,26.6 151,26.3 148.6,26.3 C142.7,26.3 137.3,27.6 132.8,30.2 C128.3,32.8 124.7,36.4 122.4,40.9 C120,45.5 118.8,50.8 118.8,56.9 C118.8,62.2 120,66.9 122.3,71.2 C124.6,75.4 127.8,78.8 132.1,81.1 C136.2,83.4 141,84.6 146.4,84.6 C152.6,84.6 157.9,83.3 162.1,80.9 L162.2,80.8 L162.2,68.8 L161.7,69.2 C159.8,70.6 157.6,71.8 155.4,72.5 C153.1,73.3 151,73.7 149.2,73.7 C144,73.7 139.9,72.2 137,68.9 C134,65.7 132.5,61.3 132.5,55.8 C132.5,50.1 134,45.6 137.1,42.3 C140.2,39 144.3,37.3 149.3,37.3 C153.5,37.3 157.8,38.7 161.7,41.5 L162.2,41.9 L162.2,29.2 L162.1,29.1 C160.4,28.4 158.5,27.6 155.9,27.1 L155.9,27.1 Z M198.8,26.7 C195.6,26.7 192.6,27.7 190,29.8 C187.8,31.6 186.3,34.2 185,37.3 L184.9,37.3 L184.9,27.6 L171.9,27.6 L171.9,83 L184.9,83 L184.9,54.7 C184.9,49.9 185.9,45.9 188.1,43 C190.3,40 193.1,38.5 196.5,38.5 C197.7,38.5 198.9,38.8 200.4,39 C201.8,39.4 202.8,39.8 203.5,40.3 L204,40.7 L204,27.7 L203.7,27.6 C202.8,27 201,26.7 198.8,26.7 L198.8,26.7 Z M234.2,26.4 C225.1,26.4 217.8,29.1 212.7,34.4 C207.5,39.7 205,47 205,56.2 C205,64.8 207.6,71.8 212.6,76.9 C217.6,81.9 224.4,84.5 232.9,84.5 C241.8,84.5 248.9,81.8 254,76.4 C259.2,71 261.7,63.8 261.7,54.9 C261.7,46.1 259.3,39.1 254.4,34 C249.7,28.9 242.8,26.4 234.2,26.4 L234.2,26.4 Z M244.6,69 C242.2,72.1 238.4,73.6 233.7,73.6 C229,73.6 225.2,72.1 222.5,68.8 C219.8,65.7 218.5,61.2 218.5,55.5 C218.5,49.6 219.9,45.1 222.5,41.9 C225.2,38.7 228.9,37.1 233.6,37.1 C238.2,37.1 241.8,38.6 244.4,41.7 C247,44.8 248.4,49.3 248.4,55.2 C248.2,61.2 247.1,65.9 244.6,69 L244.6,69 Z M290.7,50.6 C286.6,48.9 284,47.6 282.8,46.5 C281.8,45.5 281.3,44.1 281.3,42.3 C281.3,40.8 281.9,39.3 283.4,38.3 C284.9,37.3 286.6,36.8 289.1,36.8 C291.3,36.8 293.6,37.2 295.8,37.8 C298,38.4 300,39.3 301.6,40.5 L302.1,40.9 L302.1,28.7 L301.8,28.6 C300.3,28 298.3,27.4 295.9,26.9 C293.5,26.5 291.3,26.3 289.5,26.3 C283.3,26.3 278.2,27.8 274.2,31.1 C270.2,34.2 268.3,38.4 268.3,43.3 C268.3,45.9 268.7,48.2 269.6,50.1 C270.5,52 271.8,53.8 273.6,55.3 C275.4,56.7 278,58.3 281.6,59.8 C284.6,61.1 286.9,62.1 288.3,62.9 C289.7,63.7 290.6,64.6 291.3,65.3 C291.8,66.1 292.1,67.1 292.1,68.4 C292.1,72.1 289.3,73.9 283.6,73.9 C281.4,73.9 279.1,73.5 276.4,72.6 C273.7,71.7 271.2,70.4 269.1,68.9 L268.6,68.5 L268.6,81.2 L268.9,81.3 C270.8,82.2 273.1,82.8 275.9,83.5 C278.7,84 281.2,84.4 283.4,84.4 C290.1,84.4 295.6,82.9 299.5,79.6 C303.5,76.4 305.6,72.3 305.6,67 C305.6,63.3 304.6,60 302.4,57.5 C299.5,55.1 295.9,52.6 290.7,50.6 L290.7,50.6 Z M339.9,26.4 C330.8,26.4 323.5,29.1 318.4,34.4 C313.3,39.7 310.7,47 310.7,56.2 C310.7,64.8 313.3,71.8 318.3,76.9 C323.3,81.9 330.1,84.5 338.6,84.5 C347.5,84.5 354.6,81.8 359.7,76.4 C364.9,71 367.4,63.8 367.4,54.9 C367.4,46.1 365,39.1 360.1,34 C355.4,28.9 348.5,26.4 339.9,26.4 L339.9,26.4 Z M350.2,69 C347.8,72.1 344,73.6 339.3,73.6 C334.5,73.6 330.8,72.1 328.1,68.8 C325.4,65.7 324.1,61.2 324.1,55.5 C324.1,49.6 325.5,45.1 328.1,41.9 C330.8,38.7 334.5,37.1 339.2,37.1 C343.7,37.1 347.4,38.6 350,41.7 C352.6,44.8 354,49.3 354,55.2 C354,61.2 352.7,65.9 350.2,69 L350.2,69 Z M436.9,38.3 L436.9,38.3 L423.6,38.3 L423.6,64.5 C423.6,67.9 424.2,70.2 425.4,71.6 C426.7,73.1 428.5,73.7 431.1,73.7 C431.8,73.7 432.7,73.6 433.7,73.3 C434.9,73 435.6,72.6 436.4,72.1 L436.9,71.7 L436.9,82.4 L436.8,82.5 C436,82.9 434.6,83.4 432.7,83.8 C430.9,84.1 429,84.4 427.2,84.4 C416.2,84.4 410.7,78.5 410.7,66.8 L410.7,38.3 L391.1,38.3 L391.1,83 L378,83 L378,38.2 L368.9,38.2 L368.9,27.6 L378,27.6 L378,19.9 C378,16 378.9,12.6 380.6,9.6 C382.3,6.5 384.6,4.2 387.7,2.5 C390.8,1 394.2,0.1 398.1,0.1 C401.2,0.1 403.6,0.5 405.4,1.1 L405.7,1.2 L405.7,12.5 L405.2,12.2 C403.1,11.3 401.2,10.9 399.4,10.9 C396.8,10.9 394.7,11.7 393.3,13.3 C391.9,14.9 391.1,17.4 391.1,20.6 L391.1,27.6 L410.7,27.6 L410.7,15.1 L411,15 L423.4,11.3 L423.8,11.2 L423.8,27.6 L436.9,27.6 L436.9,38.3 Z" transform="translate(167 20)"/>
    <polygon points="0 0 61.3 0 61.3 61.3 0 61.3"/>
    <polygon points="67.7 0 129 0 129 61.3 67.7 61.3"/>
    <polygon points="0 67.7 61.3 67.7 61.3 129 0 129"/>
    <polygon points="67.7 67.7 129 67.7 129 129 67.7 129"/>
  </g>
</svg>
