<svg xmlns="http://www.w3.org/2000/svg" width="195" height="53" viewBox="0 0 195 53">
    <path d="M42.7085029 38.7587105L35.7724426 42.6663625 35.5560337 20.7497989 43.6873913 16.1420003 43.4323536 37.5361975C43.4279639 37.9347762 43.055723 38.5629328 42.7085029 38.7587105L42.7085029 38.7587105zM24.6420872 48.9369543L24.6420872 39.6458555C24.8782495 39.567281 25.1065104 39.4755377 25.3115063 39.3548227L33.0605269 34.796627 33.1531481 44.1421573 24.6420872 48.9369543zM3.33875546 38.4545088C2.99592506 38.2622429 2.63378027 37.6428656 2.63378027 37.2499933L2.63378027 28.8311147 21.2594354 39.387745C21.4881353 39.5172392 21.743173 39.6138111 22.0083069 39.6910687L22.0083069 48.9400271 3.33875546 38.4545088zM22.6329518 2.77819922C22.79888 2.68074935 23.0556735 2.63202442 23.313345 2.63202442 23.5754062 2.63202442 23.8379063 2.68206624 24.0060292 2.78214989L31.3577879 7.17310057 12.1364595 18.1748397 4.24389794 13.6100596 22.6329518 2.77819922zM34.5587089 18.2872143L25.8812808 13.3422919 33.9520615 8.72264129 42.4653172 13.8071541 34.5587089 18.2872143zM23.2277472 14.8611052L31.6821818 19.6791672 23.3164178 24.6407703 14.7737515 19.7002375 23.2277472 14.8611052zM2.63378027 15.7214734L22.0083069 26.9264526 22.0083069 36.7846922 2.63378027 25.8035843 2.63378027 15.7214734zM33.0306773 31.7585615L24.6420872 36.6929488 24.6420872 26.9167954 25.3330155 26.5072426 25.3483793 26.5340193 32.9367392 22.2339341 33.0306773 31.7585615zM44.3515429 11.8656191L25.3562806.521488494C24.200929-.169000901 22.4556106-.173829498 21.2963083.508758556L2.00913538 11.8700087C.863879929 12.5442565 0 14.0556074 0 15.3852275L0 37.2499933C0 38.5897096.880560537 40.094476 2.04864209 40.7511652L21.3033317 51.5650281C21.8792517 51.8885441 22.6009075 52.0500826 23.3230022 52.0500826 24.0464139 52.0500826 24.7707034 51.8876662 25.3475013 51.5623943L44.0012501 41.053172C45.1627472 40.3986777 46.0503312 38.9004956 46.0661338 37.5678028L46.3303898 15.4005912C46.3461925 14.0683373 45.4954814 12.5486461 44.3515429 11.8656191L44.3515429 11.8656191zM160.537248 17.1332235C162.057817 17.1332235 163.292182 18.3677641 163.292182 19.8883772 163.292182 21.4089902 162.057817 22.6435308 160.537248 22.6435308 159.016679 22.6435308 157.782314 21.4089902 157.782314 19.8883772 157.782314 18.3677641 159.016679 17.1332235 160.537248 17.1332235zM123.339491 29.0538886C123.646327 27.7102217 124.274922 27.1540551 125.447832 27.1540551 126.609768 27.1540551 127.912612 27.6610578 128.278268 29.0538886L123.339491 29.0538886zM132.317609 32.1160971C132.292149 26.2770063 129.990664 23.3161983 125.478121 23.3161983 120.465159 23.3161983 118.18211 27.3406145 118.18211 31.0797046 118.18211 33.4650316 118.992876 35.5492297 120.465159 36.9477671 121.784683 38.2014465 123.553266 38.8559409 125.604542 38.8559409 125.772665 38.8559409 125.942544 38.8515512 126.114179 38.842772 127.694886 38.7615637 129.258034 38.60222 131.002914 37.5552924L131.254001 37.404289 129.678122 34.2520929 129.423963 34.3258388C127.364346 34.9267797 125.473731 34.7569008 124.237171 33.8609766 123.696807 33.4694212 123.339491 32.9624185 123.22141 32.4339066L132.318487 32.4339066 132.317609 32.1160971zM105.836265 34.4762276C105.501336 34.5640203 105.163335 34.6083556 104.831478 34.6083556 103.367974 34.6083556 102.797761 34.0469215 102.797761 32.6058047L102.797761 27.7398956 107.10487 27.819787 107.10487 23.743573 102.797761 23.743573 102.797761 19.9895582 97.8616177 19.9895582 97.8616177 23.743573 91.6840861 23.743573 91.6840861 19.9895582 86.7479429 19.9895582 86.7479429 23.743573 84.2454126 23.743573 84.2454126 27.7337502 86.7479429 27.7337502 86.7479429 33.4293C86.7479429 37.0639168 89.6968988 38.690715 92.6190781 38.690715 94.1510602 38.690715 95.4148358 38.439189 96.5965252 37.8988251L96.9152126 37.7530893 94.9548022 34.4156507 94.7225906 34.4762276C94.3876615 34.5640203 94.0496597 34.6083556 93.7178034 34.6083556 92.2542995 34.6083556 91.6840861 34.0469215 91.6840861 32.6058047L91.6840861 27.7337502 97.8616177 27.7337502 97.8616177 33.4293C97.8616177 37.0639168 100.810135 38.690715 103.732753 38.690715 105.264735 38.690715 106.528511 38.439189 107.709761 37.8988251L108.028887 37.7530893 106.068038 34.4156507 105.836265 34.4762276zM192.631177 34.2746118L192.21065 34.3856695C191.883623 34.4743401 191.388911 34.6082239 191.100951 34.6082239 189.637447 34.6082239 189.067673 34.0467898 189.067673 32.605673L189.067673 27.7336185 193.87081 27.7336185 191.623756 23.7434414 189.067673 23.7434414 189.067673 19.9898655 184.131529 19.9898655 184.131529 23.7434414 181.628999 23.7434414 181.628999 27.7336185 184.131529 27.7336185 184.131529 33.4296073C184.131529 37.0637851 187.080046 38.6905834 190.002665 38.6905834 191.534208 38.6905834 192.797983 38.4390573 193.979673 37.8986934L194.270706 37.7656875 192.631177 34.2746118zM116.199313 34.3927368C115.066348 34.3927368 114.515449 33.8980251 114.515449 32.880069L114.515449 17.273604 109.578867 17.273604 109.578867 33.3379078C109.578867 36.608185 111.608195 38.7213547 114.7481 38.7213547 116.003096 38.7213547 116.885413 38.513286 118.119339 37.9272699L118.43627 37.7767055 116.377093 34.3927368 116.199313 34.3927368z"/>
    <polygon points="145.026 24.75 138.92 17.273 134.302 17.273 134.302 38.43 139.33 38.43 139.33 25.267 145.026 32.061 150.722 25.267 150.722 38.416 155.75 38.416 155.75 17.273 151.132 17.273"/>
    <polygon points="158.079 38.416 163.016 38.416 163.016 23.743 158.079 23.743"/>
    <path d="M174.491894 23.3160666C172.605668 23.3160666 171.289217 24.0091898 170.32218 24.7400638L170.32218 23.743178 165.599374 23.743178 165.599374 38.4159679 170.535517 38.4159679 170.535517 28.6380586C171.340137 28.0059513 172.035894 27.6424897 173.088089 27.6424897 174.613048 27.6424897 175.487902 28.7394591 175.487902 30.6524616L175.487902 38.4159679 180.424045 38.4159679 180.424045 29.9808476C180.424045 25.061385 177.228391 23.3160666 174.491894 23.3160666M74.5728546 29.0538886C74.87969 27.7102217 75.5082856 27.1540551 76.6811957 27.1540551 77.8431318 27.1540551 79.146414 27.6610578 79.5116316 29.0538886L74.5728546 29.0538886zM83.5509726 32.1160971C83.5250737 26.2770063 81.2240277 23.3161983 76.7114842 23.3161983 71.6985224 23.3161983 69.4150349 27.3406145 69.4150349 31.0797046 69.4150349 33.4650316 70.2262392 35.5492297 71.6985224 36.9477671 73.0176073 38.2014465 74.7861908 38.8559409 76.8379056 38.8559409 77.0055896 38.8559409 77.1759074 38.8515512 77.3471031 38.842772 78.9278103 38.7615637 80.4913978 38.60222 82.2358383 37.5552924L82.4873643 37.404289 80.9110468 34.2520929 80.6577649 34.3258388C78.5968319 34.9267797 76.7066556 34.7569008 75.4705347 33.8609766 74.9301708 33.4694212 74.5724156 32.9624185 74.4547734 32.4339066L83.5522895 32.4339066 83.5509726 32.1160971zM61.7134224 23.7876889C60.0730163 23.0576928 58.6560425 22.4269024 58.6560425 21.4660116 58.6560425 20.5828172 59.320633 20.034113 60.3903868 20.034113 61.7972644 20.034113 62.6615833 20.6082771 62.9069638 20.7952755 63.4609356 21.2175583 63.8305428 21.5603887 63.8305428 21.5603887L66.9814219 18.5087153C64.859473 16.0197929 63.0821102 15.1971755 60.3478074 15.0703151 56.8224925 14.9065818 53.1141298 18.0495596 53.1141298 21.8022575 53.1141298 25.89603 56.3953811 27.4644461 59.0317951 28.72471 60.9443586 29.6390707 62.5957388 30.4283269 62.5957388 31.889197 62.5957388 33.2486666 61.3855168 34.1248375 60.256064 34.1617104 58.5809798 34.2165808 56.5318987 33.1920403 55.8914511 32.0138626L51.8784479 34.4356235 52.0895893 34.8052307C53.2769853 37.0478946 56.8137132 39.032448 60.1436894 39.0579079 63.2063369 39.0816119 65.1790383 37.786231 66.2277218 36.6286846 67.5274924 35.1945912 68.2724132 33.2833447 68.2724132 31.3848281 68.2724132 26.7067953 64.4815255 25.0194201 61.7134224 23.7876889"/>
</svg>
