<svg xmlns="http://www.w3.org/2000/svg" width="681" height="136" viewBox="0 0 681 136">
  <g fill-rule="evenodd">
    <path d="M42 37.8C33.3 37.8 25.35 42 19.8 49.8L19.65 49.8 19.65 39 0 39 0 112.2 19.65 112.2 19.65 78.15C19.65 67.35 26.25 59.1 38.4 59.1 39.45 59.1 41.55 59.1 43.5 59.25L43.5 37.95C43.2 37.8 42.6 37.8 42 37.8zM118.8 74.85C118.8 53.4 104.4 37.8 82.95 37.8 62.1 37.8 46.65 53.25 46.65 75.45 46.65 98.4 62.85 113.4 84.3 113.4 99 113.4 109.65 107.55 115.95 99.6L103.2 87.75C99.15 92.7 93.45 96.15 85.65 96 76.2 96 69.3 90.6 66.9 81.9L118.35 81.9C118.8 80.7 118.8 77.25 118.8 74.85zM83.55 55.05C92.1 55.05 97.35 60.15 99.3 67.8L67.05 67.8C69.3 59.4 75.6 55.05 83.55 55.05zM158.8 113.4C178 113.4 187.3 103.65 187.3 90.6 187.3 76.2 178 72.75 162.1 66.9 154.9 64.2 151 62.1 151 59.1 151 55.2 155.05 53.55 158.2 53.55 163.6 53.55 170.05 55.95 175.75 61.35L185.2 46.95C176.95 40.5 168.7 37.8 158.5 37.8 143.5 37.8 132.1 46.5 132.1 59.7 132.1 73.8 142.6 79.5 154.6 83.55 164.2 86.55 167.95 88.2 167.95 91.65 167.95 95.25 164.65 97.65 158.95 97.65 151 97.65 144.7 94.8 138.7 89.1L129.1 102.75C137.2 109.65 147.1 113.4 158.8 113.4zM225.4 135.75L239.95 129.3C230.65 111.45 225.1 90.6 225.1 67.95 225.1 45.6 230.5 24 240.1 6.6L225.7 0C213.85 17.85 207.25 42 207.25 67.95 207.25 94.35 213.85 117.6 225.4 135.75zM340.15 135.75C351.7 117.6 358.3 94.35 358.3 67.95 358.3 42 351.7 17.85 339.85 0L325.45 6.6C335.05 24 340.45 45.6 340.45 67.95 340.45 90.6 334.9 111.45 325.6 129.3L340.15 135.75zM416.05 37.8C407.05 37.8 398.65 41.4 392.65 48.45L392.35 48.45 392.35 39 372.7 39 372.7 112.2 392.35 112.2 392.35 75.3C392.35 62.25 399.1 55.35 409 55.35 418.15 55.35 423.1 59.7 423.1 73.65L423.1 112.2 442.75 112.2 442.75 68.7C442.75 46.2 431.8 37.8 416.05 37.8zM511.05 39L511.05 47.25 510.6 47.25C505.35 40.95 497.85 37.8 489.15 37.8 469.5 37.8 454.65 53.55 454.65 75.75 454.65 98.4 469.35 113.4 489.6 113.4 499.05 113.4 506.55 109.8 511.5 103.35L511.95 103.35 511.95 112.2 530.55 112.2 530.55 39 511.05 39zM493.2 95.85C482.25 95.85 474.45 87.75 474.45 75.9 474.45 63.3 482.85 55.35 493.35 55.35 504 55.35 511.8 64.2 511.8 75.9 511.8 87.9 503.4 95.85 493.2 95.85zM580.15 113.4C590.05 113.4 594.85 111.45 599.65 108.9L594.55 93.15C591.25 94.8 587.65 95.7 585.25 95.7 580.75 95.7 578.8 92.7 578.8 86.4L578.8 55.2 598.75 55.2 598.75 39 578.8 39 578.8 12.9 559.3 15 559.3 39 550.6 39 550.6 55.2 559.3 55.2 559.3 89.1C559.3 105.6 567.55 113.4 580.15 113.4zM680.35 74.85C680.35 53.4 665.95 37.8 644.5 37.8 623.65 37.8 608.2 53.25 608.2 75.45 608.2 98.4 624.4 113.4 645.85 113.4 660.55 113.4 671.2 107.55 677.5 99.6L664.75 87.75C660.7 92.7 655 96.15 647.2 96 637.75 96 630.85 90.6 628.45 81.9L679.9 81.9C680.35 80.7 680.35 77.25 680.35 74.85zM645.1 55.05C653.65 55.05 658.9 60.15 660.85 67.8L628.6 67.8C630.85 59.4 637.15 55.05 645.1 55.05z"/>
  </g>
</svg>
