<svg id="logo" xmlns="http://www.w3.org/2000/svg" viewBox="0 0 746.22 154.89">
  <defs>
    <style>
      .green {
        fill: #04c695;
      }

      .blue {
        fill: #074354;
      }
    </style>
  </defs>
  <title>Logo</title>
  <g id="db" fill="currentColor" class="green">
    <path d="M638.44,0.82H660q12.4,0,19,6.91t6.56,19.32V74.53q0,14.26-6.91,21t-19.89,6.77H638.44V0.82ZM653,88.64h6.7q6.13,0,8.7-3.06T670.95,76V27.05q0-6-2.42-9.27t-8.84-3.28H653V88.64Z"/>
    <path  d="M699.18,0.82h21.24A29.78,29.78,0,0,1,732.32,3a22.48,22.48,0,0,1,8.06,5.7,21.37,21.37,0,0,1,4.49,8.2,34.15,34.15,0,0,1,1.35,9.62v3.71a32.36,32.36,0,0,1-.64,7,16.79,16.79,0,0,1-1.92,5,16,16,0,0,1-3.14,3.78A27.37,27.37,0,0,1,736.24,49a15.72,15.72,0,0,1,7.56,7.2Q746.22,61,746.22,69v5.7q0,13.4-6.49,20.53T719,102.32H699.18V0.82Zm14.54,41.63h6.56q7.27,0,9.76-3.63t2.49-10.62q0-6.84-2.78-10.26t-10.05-3.42h-6V42.45Zm0,45.34H720a15.33,15.33,0,0,0,6.91-1.28,8.86,8.86,0,0,0,3.78-3.56,13.45,13.45,0,0,0,1.57-5.42q0.28-3.14.28-6.84a45.67,45.67,0,0,0-.43-6.7,11,11,0,0,0-1.78-4.78,8.4,8.4,0,0,0-3.78-2.92,17.18,17.18,0,0,0-6.42-1h-6.41v32.5Z"/>
  </g>
  <g id="bigchain" class="blue">
    <rect x="92" y="0.95" width="22" height="153"/>
    <path  d="M195.27,9.31a36.53,36.53,0,0,0-11.77-7,38,38,0,0,0-26.32,0,36.47,36.47,0,0,0-11.77,7A33.67,33.67,0,0,0,137.09,21,38.94,38.94,0,0,0,134,37.23v80.44c0,6.28,1,11.73,3.09,16.37a34,34,0,0,0,8.39,11.55,36.22,36.22,0,0,0,11.74,7,37.91,37.91,0,0,0,26.29,0,36.4,36.4,0,0,0,11.76-7A34.25,34.25,0,0,0,203.76,134,38.72,38.72,0,0,0,207,117.67V69.95H168v19h17v28.72c0,5.28-1.41,9.17-4.33,11.66a15.4,15.4,0,0,1-10.35,3.74,14.89,14.89,0,0,1-10.16-3.74c-2.92-2.49-4.17-6.38-4.17-11.66V37.23c0-5.28,1.25-9.16,4.18-11.66a16,16,0,0,1,20.54,0C183.64,28.06,185,32,185,37.23v7.72h22V37.23A38.93,38.93,0,0,0,203.76,21,34,34,0,0,0,195.27,9.31Z"/>
    <path d="M285.45,10.16a33.29,33.29,0,0,0-11.12-7.49A35.83,35.83,0,0,0,260.42,0,37.77,37.77,0,0,0,246,2.67a33.86,33.86,0,0,0-11.23,7.38,32.64,32.64,0,0,0-7.23,11.13A37.09,37.09,0,0,0,225,35.09V119c0,7,1.05,12.77,3.27,17.33a31.63,31.63,0,0,0,8.43,11,30.55,30.55,0,0,0,11.54,5.88,48.86,48.86,0,0,0,12.62,1.71A32.27,32.27,0,0,0,274.43,152a36.54,36.54,0,0,0,11-7.7,36.08,36.08,0,0,0,7.63-11.23A35,35,0,0,0,296,119.59v-9.64H274v7.72a18.91,18.91,0,0,1-1.44,7.49,12.52,12.52,0,0,1-3.4,4.71,12.78,12.78,0,0,1-4.53,2.46,15.93,15.93,0,0,1-4.62.75c-5,0-8.32-1.5-10.25-4.49s-2.76-6.7-2.76-11.13V39.58c0-5.13.75-9.38,2.54-12.73s5.31-5,10.73-5a12,12,0,0,1,10,4.71A17.78,17.78,0,0,1,274,37.65v7.3h22V36.37a39.53,39.53,0,0,0-2.92-14.65A35.16,35.16,0,0,0,285.45,10.16Z"/>
    <path d="M428.57,0.95l-34,153h21.82l6.42-33h29.74l6.42,33h21.82l-34-153H428.57Zm-1.92,99,10.7-55h0.43l10.7,55H426.65Z"/>
    <rect x="492" y="0.95" width="22" height="153"/>
    <polygon points="589 0.95 589 92.95 588.17 92.95 555.22 0.95 534 0.95 534 153.95 556 153.95 556 61.95 556.51 61.95 589.88 153.95 610 153.95 610 0.95 589 0.95"/>
    <polygon points="362 65.95 353 65.95 353 84.95 362 84.95 362 153.95 384 153.95 384 0.95 362 0.95 362 65.95"/>
    <polygon points="335 0.95 313 0.95 313 153.95 335 153.95 335 84.95 345 84.95 345 65.95 335 65.95 335 0.95"/>
    <path d="M62.1,13.05A34.08,34.08,0,0,0,50,4.33,44.59,44.59,0,0,0,32.14.95H0v153H30c14.26,0,24.7-3.73,31.19-10.87s9.8-17.57,9.8-31v-8.56c0-8-1.28-14.37-3.7-19.15A23.64,23.64,0,0,0,55.93,73.6a40.81,40.81,0,0,0,6.4-4.6A24,24,0,0,0,67,63.33a25.19,25.19,0,0,0,3-7.49,48.19,48.19,0,0,0,1-10.48V39.79a51.32,51.32,0,0,0-2.1-14.44A32.19,32.19,0,0,0,62.1,13.05ZM41.24,84.51A12.76,12.76,0,0,1,47,88.89a16.55,16.55,0,0,1,2.7,7.17,68.58,68.58,0,0,1,.65,10.05q0,5.57-.42,10.27a20.13,20.13,0,0,1-2.35,8.13,13.46,13.46,0,0,1-5.67,5.43c-2.5,1.28-6,2-10.37,2H22v-49h6v-19H22v-42h9.08c7.27,0,12.3,1.65,15.08,5.07s4.17,8.53,4.17,15.37S49,54.68,46.48,58.31c-2,2.87-5.48,4.57-10.48,5.18V83.26A20.62,20.62,0,0,1,41.24,84.51Z"/>
  </g>
</svg>
