<svg xmlns="http://www.w3.org/2000/svg" width="43" height="44" viewBox="0 0 43 44">
  <g>
    <path d="M21.3552108,0.000354015061 C19.5728539,0.00855605263 17.8707429,0.159100256 16.3730606,0.421560336 C11.961076,1.19350061 11.1600306,2.80923777 11.1600302,5.78893235 L11.1600302,9.72420284 L21.5860909,9.72420284 L21.5860909,11.0359597 L11.1600302,11.0359597 L7.24721958,11.0359597 C4.21711608,11.0359597 1.56387069,12.8396728 0.733969481,16.2709525 C-0.223311067,20.2039956 -0.265771663,22.6582784 0.733969481,26.7650072 C1.47509113,29.8218972 3.24498998,31.9999992 6.27509272,32 L9.85981055,32 L9.85981055,27.2824892 C9.85981055,23.8743661 12.8372967,20.8681194 16.3730606,20.8681187 L26.7869697,20.8681187 C29.6858329,20.8681187 32.0000012,18.5042938 32,15.6210913 L32,5.78893235 C32,2.99064397 29.6163527,0.888583353 26.7869697,0.421560336 C24.9959282,0.126292183 23.1375677,-0.00784802251 21.3552108,0.000354015061 Z M15.7168749,3.1654187 C16.7938154,3.1654187 17.6732803,4.05063399 17.6732803,5.13907117 C17.6732795,6.2236504 16.7938154,7.10068918 15.7168749,7.10068918 C14.6360736,7.1006888 13.7604696,6.22365001 13.7604696,5.13907117 C13.7604692,4.05063437 14.6360736,3.1654187 15.7168749,3.1654187 Z"/>
    <path d="M33.0952083,11 L33.0952083,15.692436 C33.0952083,19.3304183 30.0582857,22.3923967 26.595191,22.3923971 L16.2024393,22.3923971 C13.3556905,22.3923971 11.0000004,24.8668437 11,27.7622189 L11,37.8244755 C11,40.6882517 13.4519959,42.3726929 16.2024393,43.1942973 C19.4960392,44.1778555 22.6544291,44.3556094 26.595191,43.1942973 C29.2146611,42.4240422 31.7976314,40.8738997 31.7976302,37.8244755 L31.7976302,33.7971103 L21.4048786,33.7971103 L21.4048786,32.4546549 L31.7976302,32.4546549 L37.0000711,32.4546549 C40.0240189,32.4546549 41.1508658,30.3124771 42.2025065,27.0971492 C43.2888166,23.7870192 43.2425946,20.6037928 42.2025065,16.3575057 C41.4551869,13.300179 40.0278646,11 37.0000711,11 L33.0952083,11 Z M27.2500435,36.4820212 C28.3286497,36.4820224 29.2024741,37.3795862 29.2024741,38.4895452 C29.2024733,39.6034531 28.3286486,40.5093864 27.2500435,40.5093864 C26.1752898,40.5093864 25.2976129,39.6034531 25.2976129,38.4895452 C25.2976136,37.3795862 26.1752887,36.4820212 27.2500435,36.4820212 Z"/>
  </g>
</svg>
