<svg xmlns="http://www.w3.org/2000/svg" width="223" height="42" viewBox="0 0 223 42">
  <g>
    <path d="M216.17397 16.767C217.629045 14.893875 218.873385 13.375125 220.99077 13.06125 221.683185 12.96 222.55623 12.798 222.41574 13.87125 222.29532 14.731875 223.308855 16.149375 221.542695 16.392375 220.393687 16.5358125 219.294297 16.9486875 218.331495 17.59725 217.076562 18.324 216.338433 19.7145 216.43488 21.171375 216.5553 23.763375 216.43488 26.3655 216.49509 28.967625 216.49509 30.202875 216.11376 30.59775 214.96977 30.43575 214.549415 30.394125 214.125715 30.394125 213.70536 30.43575 213.04305 30.43575 212.76207 30.202875 212.76207 29.514375L212.76207 14.083875C212.76207 13.4865 212.992875 13.284 213.58494 13.213125 215.97327 12.929625 216.143865 13.06125 216.163935 15.49125 216.17397 15.784875 216.17397 16.09875 216.17397 16.767zM187.53408 14.9445C187.53408 13.577625 187.2531 13.091625 185.818095 13.1625 184.694175 13.22325 184.14225 13.42575 184.32288 14.661 184.44999 15.0620625 184.406505 15.4985625 184.20246 15.865875 179.375625 12.058875 175.702815 11.937375 172.491615 15.481125 169.280415 19.024875 169.57143 25.029 172.82277 28.41075 175.83327 31.5495 179.56629 31.357125 183.971655 27.702L183.971655 30.121875C183.82113 32.319 182.867805 34.090875 180.69021 34.678125 178.04097 35.397 175.39173 35.154 173.38473 33.048 172.38123 32.0355 172.06011 32.835375 171.43794 33.31125 170.63514 33.928875 170.765595 34.40475 171.43794 35.083125 174.077145 37.816875 177.348555 38.120625 180.780525 37.553625 184.88261 37.119375 187.928232 33.3973125 187.57422 29.251125 187.35345 24.492375 187.4538 19.713375 187.53408 14.9445zM179.24517 27.60075L179.217295 27.60075C176.31049 27.60075 173.918815 25.187625 173.918815 22.25475 173.918815 22.156875 173.921045 22.059 173.92662 21.961125 173.92662 18.56925 176.07411 16.027875 178.94412 16.038 181.95462 16.038 183.96162 18.397125 183.96162 22.021875 183.96162 25.646625 182.285775 27.590625 179.255205 27.60075L179.24517 27.60075zM166.1796 27.084375C165.607605 26.598375 165.75813 25.930125 165.75813 25.302375 165.75813 19.4805 165.69792 13.6485 165.75813 7.826625 165.75813 6.25725 164.93526 6.429375 163.981935 6.449625 163.02861 6.469875 162.095355 6.1965 162.175635 7.79625 162.30609 10.46925 162.175635 13.152375 162.175635 15.89625 161.493255 15.805125 161.312625 15.309 161.00154 14.995125 158.979488 12.87 155.806755 12.303 153.184275 13.597875 150.173775 15.0255 148.849155 17.647875 148.467825 20.806875 147.885795 25.65675 151.28766 31.296375 157.358835 30.749625 159.53643 30.547125 161.131995 29.352375 162.66735 27.54 162.715295 27.8145 162.748745 28.0918125 162.7677 28.37025 162.76101 28.436625 162.757665 28.503 162.757665 28.5699375 162.757665 29.615625 163.561023 30.49875 164.59407 30.587625 165.29652 30.749625 166.330125 30.9825 166.54086 30.1725 166.86198 29.190375 167.233275 27.975375 166.1796 27.084375zM157.52943 27.60075C154.584715 27.59175 152.166838 25.144875 152.166838 22.17375 152.166838 22.10625 152.16851 22.03875 152.17074 21.97125 152.17074 18.65025 154.37844 16.038 157.18824 16.038 160.19874 16.038 162.20574 18.417375 162.20574 22.01175 162.20574 25.606125 160.570035 27.5805 157.559535 27.60075L157.52943 27.60075zM209.18961 21.637125C209.128285 19.557 208.39127 17.553375 207.092295 15.93675 203.970295 12.3885 198.598225 11.8636875 194.85963 14.742 191.32731 17.415 190.4643 22.993875 192.983085 26.892 195.6156 30.66975 200.674913 31.9005 204.724035 29.74725 205.905935 29.1594375 206.905533 28.2560625 207.614115 27.135 207.754605 26.902125 208.06569 26.659125 207.7245 26.314875 206.692568 25.6989375 205.398053 25.7265 204.39288 26.38575 203.153558 27.8263125 201.20844 28.44225 199.37538 27.975375 197.488243 27.5495625 195.993585 26.080875 195.52194 24.188625 195.26103 23.338125 195.431625 23.034375 196.32474 23.054625L202.155075 23.054625C204.101865 23.054625 205.83792 22.993875 207.66429 23.054625 208.80828 23.135625 209.279925 22.70025 209.18961 21.637125zM204.63372 20.574L196.30467 20.574C195.391485 20.574 195.24096 20.199375 195.42159 19.41975 196.075538 17.1675 198.113758 15.5925 200.43909 15.541875 202.800103 15.6470625 204.83665 17.2906875 205.45659 19.591875 205.55694 20.280375 205.346205 20.574 204.63372 20.574zM143.109135 15.217875C141.46228 13.6929375 139.30587 12.8458125 137.070853 12.8458125 132.170985 12.8458125 128.139702 16.9138125 128.139702 21.8570625 128.139702 23.7346875 128.721175 25.5661875 129.802725 27.0945 132.474265 30.700125 137.380823 31.84875 141.35301 29.797875 142.54383 29.2213125 143.554577 28.324125 144.273195 27.205875 144.433755 26.95275 144.80505 26.649 144.273195 26.26425 143.229555 25.668 141.927793 25.75575 140.97168 26.487 139.720093 27.9061875 137.764383 28.47825 135.95418 27.955125 134.071503 27.4888125 132.608622 25.977375 132.191055 24.067125 131.96025 23.236875 132.191055 23.054625 132.96375 23.054625L144.62442 23.054625C145.497465 23.054625 145.86876 22.8015 145.838655 21.89025 145.89998 19.3786875 144.908187 16.9543125 143.109135 15.217875zM141.322905 20.574C139.90797 20.51325 138.50307 20.574 137.088135 20.574L133.00389 20.574C132.170985 20.574 131.869935 20.3715 132.10074 19.4805 132.648763 17.1455625 134.73214 15.4828125 137.110435 15.4828125 139.514933 15.4828125 141.614478 17.1826875 142.13574 19.551375 142.25616 20.239875 142.17588 20.574 141.322905 20.574zM101.47392 18.761625C100.208395 15.2476875 96.8795625 12.89475 93.17386 12.89475 90.08754 12.89475 87.216415 14.5276875 85.61862 17.19225 83.717545 20.23875 83.853575 24.168375 85.95981 27.07425 89.1108 31.73175 96.69726 32.045625 100.00881 27.72225 100.299825 27.3375 100.85175 26.95275 100.59084 26.375625 100.32993 25.7985 97.791075 25.69725 97.389675 26.152875 96.4101475 27.4055625 94.91326 28.1379375 93.3316325 28.1379375 91.025255 28.1379375 88.984805 26.580375 88.358175 24.3405 88.02702 23.378625 88.12737 22.993875 89.241255 23.034375 91.127835 23.095125 93.02445 23.034375 94.91103 23.034375L98.694225 23.034375C102.226545 23.034375 102.587805 22.528125 101.564235 18.984375 101.57427 18.943875 101.51406 18.85275 101.47392 18.761625zM97.148835 20.574C95.85432 20.462625 94.539735 20.574 93.22515 20.574 91.910565 20.574 90.505665 20.51325 89.140905 20.574 88.077195 20.63475 88.037055 20.138625 88.24779 19.348875 88.87219 17.112375 90.909295 15.5559375 93.2123275 15.5559375 95.4579375 15.5559375 97.45769 17.035875 98.132265 19.197 98.42328 20.10825 98.353035 20.655 97.148835 20.574zM62.969625 18.052875C61.3322475 14.353875 57.3639625 12.25125 53.416305 12.990375 49.2712925 13.6400625 46.1805125 17.27325 46.171035 21.5055 46.090755 25.17075 47.48562 28.04625 50.746995 29.716875 53.8238375 31.408875 57.610935 31.147875 60.43077 29.048625 61.1683425 28.53225 61.787725 27.8623125 62.247105 27.084375 62.37756 26.87175 62.69868 26.618625 62.33742 26.274375 61.2999125 25.691625 60.0276975 25.7191875 59.015835 26.34525 57.762575 27.842625 55.7460975 28.4625 53.877915 27.92475 51.9963525 27.4618125 50.528455 25.961625 50.09472 24.057 49.87395 23.328 50.024475 23.0445 50.867415 23.0445L60.320385 23.0445C64.14372 23.0445 64.38456 22.7205 63.330885 18.93375 63.2288625 18.6328125 63.1084425 18.338625 62.969625 18.052875zM59.276745 20.574L50.606505 20.574C49.93416 20.574 49.83381 20.361375 49.944195 19.733625 50.4576525 17.3829375 52.4880675 15.66 54.87138 15.552 57.2937175 15.5806875 59.41835 17.24175 60.04944 19.602 60.220035 20.31075 60.0093 20.574 59.276745 20.574zM78.37335 14.225625L73.79739 27.388125C72.342315 23.216625 70.86717 19.37925 69.713145 15.45075 69.171255 13.638375 68.368455 13.02075 66.562155 13.203 65.498445 13.314375 65.217465 13.365 65.66904 14.51925 67.4352 18.97425 69.08094 23.479875 70.78689 27.96525 71.79039 30.628125 71.79039 30.59775 74.70054 30.486375 75.2742075 30.537 75.803275 30.1505625 75.934845 29.58525 77.85153 24.451875 79.81839 19.33875 81.76518 14.2155 81.875565 13.942125 82.10637 13.618125 81.84546 13.34475 81.293535 12.706875 78.664365 13.415625 78.37335 14.225625zM122.276475 24.1785C122.276475 18.77175 122.216265 13.375125 122.276475 7.9785 122.276475 6.4395 121.574025 6.4395 120.46014 6.4395 119.346255 6.4395 118.643805 6.4395 118.663875 7.9785 118.75419 14.124375 118.663875 20.27025 118.663875 26.416125 118.663875 29.50425 120.068775 30.830625 123.16959 30.699 126.270405 30.567375 126.571455 30.23325 125.768655 27.135 122.958855 27.732375 122.276475 27.165375 122.276475 24.1785zM115.2018 13.861125C115.392465 12.686625 114.429105 13.030875 113.806935 13.10175 111.639375 13.365 110.385 14.934375 108.970065 16.878375 108.91543 16.099875 108.91543 15.318 108.970065 14.5395 109.210905 13.122 108.347895 13.18275 107.39457 13.203 106.441245 13.22325 105.60834 12.990375 105.64848 14.569875 105.7689 19.0755 105.64848 23.581125 105.64848 28.08675 105.64848 30.466125 105.64848 30.405375 107.966565 30.456 109.06038 30.456 109.26108 30.07125 109.230975 29.089125 109.170765 26.38575 109.230975 23.682375 109.230975 20.989125 109.177455 19.86525 109.659135 18.78075 110.52549 18.073125 111.550175 17.14725 112.839672 16.5729375 114.208335 16.432875 116.155125 16.210125 115.06131 14.742 115.2018 13.861125zM35.88516 10.59075L17.92251 0 17.92251 0 12.16242 10.6515 35.90523 10.560375M6.312015 20.979L12.14235 10.681875"/>
    <polyline points="17.732 .132 .01 10.56 0 10.591 .03 31.398"/>
    <path d="M12.14235 10.681875L17.90244.030375M24.12414 31.174875L12.172455 31.215375M.14049 31.4685C.094775 31.4443125.06467 31.39875.06021 31.347.0540775 31.401.08251 31.453875.130455 31.478625L17.90244 41.8365M35.86509 10.600875L18.063 41.8561875M17.90244 41.8365L17.98272 41.8365C18.0289925 41.8635 18.0869725 41.8635 18.133245 41.8365L35.875125 31.428C35.9236275 31.402125 35.95429 31.3515 35.955405 31.296375L35.88516 10.621125"/>
    <polyline points=".492 31.277 12.182 31.236 6.322 21"/>
    <polyline points="12.439 41.557 23.504 41.557 18.171 31.522" transform="rotate(-180 17.971 36.54)"/>
    <polyline points=".113 31.478 17.691 41.961 12.153 31.478"/>
    <path d="M6.312015 20.979L.04014 10.5705M12.172455 31.215375L.491715 31.255875"/>
  </g>
</svg>
