<svg xmlns="http://www.w3.org/2000/svg" width="184" height="103" viewBox="0 0 184 103">
  <path d="M2.06087161,102.009392 C1.8202253,101.769956 1.62333621,96.7284513 1.62333621,90.8060043 C1.62333621,83.7204819 1.22441443,79.6410727 0.456844547,78.8773624 C-0.450428783,77.9746694 -0.0695536427,77.7167362 2.17078268,77.7167362 C4.5112095,77.7167362 5.84122676,78.7231728 9.26522696,83.0851898 C11.5829338,86.0378594 13.8251549,88.3228491 14.2479429,88.1629569 C15.4196186,87.7197987 22.0369402,79.5889451 22.0369402,78.592415 C22.0369402,78.1108008 23.3960445,77.7167362 25.057169,77.7167362 C27.6028836,77.7167362 27.9465155,77.9828578 27.2443427,79.409313 C26.7861595,80.3402266 26.3810176,85.8894821 26.3440242,91.7409755 L26.2767535,102.380061 L23.8527985,102.475105 L21.4288435,102.570148 L21.7811056,94.2539597 L22.1333677,85.9377349 L18.6973352,89.8064767 C16.8075195,91.9342792 15.2547997,94.001656 15.2468456,94.400619 C15.2112079,96.1804895 13.2788327,94.7818892 10.016003,90.6149305 L6.48369362,86.1039512 L6.48369362,94.4236487 C6.48369362,102.214686 6.3570512,102.733878 4.4910393,102.594055 C3.39507722,102.511806 2.3014922,102.248974 2.06084957,102.009355 L2.06087161,102.009392 Z M31.522505,101.603154 C27.9000139,98.6858702 29.226449,95.4363362 34.9187299,93.2830182 C36.680812,92.6164349 37.5901611,91.5698243 37.5901611,90.2083275 C37.5901611,88.4188064 37.1374778,88.1967704 34.1878962,88.5393653 C32.3166489,88.7568685 30.7856277,88.6179589 30.7856277,88.2308398 C30.7856277,86.7335772 33.9450088,84.4871897 36.050822,84.4871897 C39.8365522,84.4871897 41.273218,87.2270352 41.628603,95.1244476 L41.9549635,102.376552 L37.4573831,102.568832 C34.9837154,102.674476 32.3130263,102.240201 31.5225197,101.603483 L31.522505,101.603154 Z M37.5901611,97.5441065 C37.5901611,95.7709255 37.0717208,95.1261291 35.6460108,95.1261291 C33.7493652,95.1261291 32.899531,97.8741995 34.3499081,99.3172874 C35.8255917,100.785562 37.5901611,99.8199208 37.5901611,97.5441065 Z M46.8943227,101.343759 C45.854084,100.308773 45.3667734,98.0203836 45.3667734,94.1704677 C45.3667734,90.7378655 44.9233375,88.3699321 44.2379475,88.1426322 C43.5705085,87.9211079 44.3534944,86.4058602 46.153606,84.4350621 C48.9755973,81.3454934 49.2001699,81.2609413 49.2265859,83.2780548 C49.2464254,84.7999922 49.8395653,85.4542564 51.1992317,85.4542564 C53.7455121,85.4542564 53.7108039,87.4220935 51.1527924,88.0876532 C48.0011561,88.907695 48.749838,98.371569 52.0026156,98.8300437 C53.5524366,99.0486436 54.08777,99.6060366 53.7037499,100.601726 C53.3955389,101.400858 53.143393,102.236692 53.143393,102.459166 C53.143393,103.550594 48.2310854,102.673745 46.89433,101.343759 L46.8943227,101.343759 Z M56.5456505,102.137042 C56.0110079,101.738737 55.5735754,97.821487 55.5735754,93.432017 L55.5735754,85.4511492 L57.7607454,85.4527211 C58.9636904,85.4535618 59.9479191,85.9205905 59.9479191,86.4905219 C59.9479191,87.0604899 60.6353152,86.8429136 61.4754684,86.0069338 C63.7036953,83.7899001 65.7803774,84.1248916 65.7803774,86.7013721 C65.7803774,88.4814254 65.2561322,88.9081703 63.107168,88.877537 L60.4339585,88.8395197 L60.3217181,95.6098269 C60.21058,102.314262 59.178391,104.098482 56.5456395,102.137152 L56.5456505,102.137042 Z M67.683346,102.4898 C67.6605672,102.429484 67.5513395,98.5715988 67.4403116,93.9168115 L67.2384626,85.4535618 L69.6686523,85.4535618 L72.0988457,85.4535618 L71.9388067,93.9168115 C71.7904878,101.761255 71.630559,102.388067 69.7516367,102.4898 C68.6367021,102.550116 67.705952,102.550116 67.6833019,102.4898 L67.683346,102.4898 Z M74.7794325,102.159341 C73.9506687,101.871652 74.4537334,100.464498 76.3825374,97.6751567 L79.1933892,93.6102965 L76.3986662,89.5322399 L73.6039396,85.4541833 L76.38332,85.4541833 C78.3451789,85.4541833 79.3122391,86.0231277 79.671107,87.3885359 C79.9507344,88.4524737 80.6988541,89.3229251 81.3336093,89.3229251 C81.9683645,89.3229251 82.7164622,88.4524737 82.9960895,87.3885359 C83.3587123,86.0093099 84.3220323,85.4541833 86.3531607,85.4541833 L89.2018252,85.4541833 L86.0640912,89.3390459 L82.9263205,93.2239085 L86.0182765,97.5884113 C89.7413138,102.843763 89.7151182,102.596979 86.5317533,102.427802 C84.8785315,102.34007 83.6821703,101.561408 83.1976079,100.258144 C82.0151711,97.0778089 80.471324,96.7296576 79.2619128,99.3706579 C78.069953,101.973568 76.6997717,102.825997 74.7794325,102.159341 Z M97.2699795,102.188585 C96.79192,102.031398 96.5364308,97.168027 96.7022379,91.381419 L97.0035051,80.8603334 L93.1261603,81.3059407 C89.5805767,81.7134942 89.2941893,81.5790078 89.7788252,79.7350195 C90.2689354,77.8703775 91.0014554,77.7184543 99.5014872,77.7184543 C107.736551,77.7184543 108.659053,77.8946502 108.357529,79.4110311 C108.114311,80.6342763 107.08372,81.103608 104.640958,81.103608 L101.260998,81.103608 L101.494296,91.9236416 C101.738616,103.25786 101.593126,103.611531 97.2699428,102.188622 L97.2699795,102.188585 Z M111.048212,102.125345 C110.744373,101.823034 110.495901,96.4721631 110.495901,90.2342816 C110.495901,80.7844814 110.752345,78.7947843 112.033502,78.3056398 C114.904578,77.2094603 115.222415,77.7134463 114.805784,82.7019821 L114.389595,87.6854003 L116.164573,86.0871358 C121.035401,81.7012848 124.104946,85.2489626 124.104946,95.2643076 L124.104946,103 L121.985678,102.690743 C120.023033,102.404517 119.884046,101.906343 120.105037,95.9492781 C120.357807,89.1354702 119.627896,87.7990868 116.238383,88.8694583 C114.420603,89.4435205 114.253657,90.131781 114.54596,95.8476913 C114.819672,101.199549 114.615031,102.226932 113.235374,102.431896 C112.336202,102.565323 111.351977,102.428241 111.048212,102.125199 L111.048212,102.125345 Z M128.467661,101.60023 C128.251263,100.966181 127.946726,97.0733492 127.790765,92.9494889 L127.507133,85.4515147 L129.694296,85.4537446 C130.897234,85.4549875 131.881459,85.9223086 131.881459,86.4922766 C131.881459,87.062208 132.568862,86.8446683 133.40903,86.0086519 C135.026982,84.3988359 137.317457,84.0042596 138.020952,85.2141987 C138.932469,86.7819031 137.102455,88.8411647 134.797688,88.8411647 L132.367491,88.8411647 L132.367491,95.6663778 C132.367491,101.550881 132.125742,102.509613 130.614189,102.622276 C129.649841,102.694289 128.683875,102.234243 128.467551,101.600193 L128.467661,101.60023 Z M143.431453,102.223239 C140.4916,101.442458 138.20208,95.6867756 139.228262,91.6566793 C141.007942,84.6672239 148.584039,82.2788562 151.156457,87.8963235 C153.475883,92.9612963 152.780727,94.1607075 147.525783,94.1607075 C143.176258,94.1607075 142.802907,94.3376344 143.284346,96.1693036 C143.872736,98.4079779 147.599484,100.21139 149.856562,99.3496387 C150.762238,99.0038269 151.323109,99.3459832 151.323109,100.240488 C151.323109,102.497951 147.799422,103.383244 143.431453,102.223239 Z M148.40688,89.3248259 C147.834619,88.2609247 146.741019,87.3904367 145.976683,87.3904367 C145.212346,87.3904367 144.118746,88.2609247 143.546485,89.3248259 C142.596318,91.0913173 142.807242,91.2592151 145.976683,91.2592151 C149.146123,91.2592151 149.357047,91.0914269 148.40688,89.3248259 Z M155.719294,101.550186 C152.952523,99.5372398 154.217478,95.8584751 158.370666,93.8393145 C163.3167,91.4346798 163.570977,87.9653762 158.760182,88.5241949 C156.016006,88.8429559 155.576046,88.6298393 155.960124,87.1686566 C156.488995,85.1563684 160.011616,84.0325533 162.915611,84.9496124 C165.317078,85.7079857 166.131197,88.4816447 166.267061,96.3677615 L166.368096,102.241883 L161.875909,102.501424 C159.394643,102.64472 156.638527,102.218853 155.719111,101.55004 L155.719294,101.550186 Z M161.840528,97.2283796 C162.073827,95.6496721 161.651318,95.1279569 160.139398,95.1279569 C158.836638,95.1279569 158.127631,95.7529038 158.127631,96.9011378 C158.127631,100.578038 161.303758,100.857941 161.840528,97.2283065 L161.840528,97.2283796 Z M171.62348,101.034356 C166.655108,97.031457 169.697869,87.2936021 176.65071,84.945372 C179.344674,84.0355142 179.935489,83.3815425 179.672578,81.6004656 C179.35588,79.4540566 180.818164,77.7637096 183.018186,77.7333688 C183.752543,77.7224023 184.060387,81.5945803 183.990287,89.9580343 C183.899172,100.82972 183.69747,102.225287 182.186542,102.445897 C181.250924,102.582613 180.485411,102.210482 180.485411,101.619275 C180.485411,100.878193 180.123156,100.904805 179.31892,101.704814 C177.601109,103.413987 174.210373,103.118548 171.62348,101.03432 L171.62348,101.034356 Z M179.29063,98.2713347 C180.729732,95.2926744 180.147074,89.1474237 178.316472,87.9971427 C174.1704,85.3918567 171.185761,95.7565959 175.23391,98.7018082 C177.536484,100.376985 178.313091,100.294589 179.29063,98.2713347 Z M67.3257235,81.9483245 C66.5552989,79.9507315 68.4025955,77.6670212 70.2257944,78.363141 C72.3797185,79.1855224 71.9988434,83.521695 69.772685,83.521695 C68.7606001,83.521695 67.6594687,82.8136947 67.3257235,81.9483245 Z M88.0002836,58.037195 L90.1454894,55.765219 L88.2414443,53.4430527 L86.3373625,51.1208865 L82.8634218,54.4539856 C78.6258423,58.5197231 78.3441282,57.6211974 82.3150054,52.7048579 L85.2405297,49.0826807 L83.5301039,45.0338682 C82.5893422,42.8070378 81.6009288,40.9847632 81.3336093,40.9843977 C81.0661429,40.9840321 80.0311066,42.8329188 79.0332363,45.093051 C77.2036851,49.2368338 71.6073578,56.6795366 71.6192394,54.9531097 C71.6227628,54.4412278 72.5096418,52.7167384 73.5900813,51.1208865 C77.040931,46.0238183 79.0698991,40.1188447 79.671096,34.111407 C80.5041621,25.7870669 78.5957634,17.2660601 73.9302192,10.425567 C72.6028105,8.47937047 71.7239665,6.68085681 71.9772293,6.42884557 C72.64821,5.76123876 79.2852646,14.9511683 79.9809199,17.5110893 C80.8181118,20.5919213 81.5866002,20.2197167 83.43616,15.8375943 L85.0527154,12.0075644 L82.1494921,8.01994527 C78.5667425,3.09896332 79.155672,1.80110908 82.8089365,6.56669506 C85.9373753,10.6476761 86.1473438,10.6820014 88.4817967,7.49413591 L90.2835579,5.03368149 L87.9957646,2.51682247 L85.7079346,0 L88.7391597,2.08126779 L91.7703479,4.16253558 L93.5125537,2.24708198 C94.4707669,1.19356239 95.4735089,0.549241214 95.7408284,0.815216527 C96.0082948,1.08133806 95.4428678,2.16081181 94.4845811,3.2143314 L92.7422651,5.12985811 L94.4210211,7.67903189 L96.0997404,10.2282057 L99.8955594,6.54033879 C104.457773,2.10784339 104.846811,2.89509522 100.657398,8.08205248 L97.6234173,11.8384237 L99.417757,16.8032353 L101.212097,21.7680834 L102.51471,17.8798578 C103.231174,15.7413446 105.584291,12.1177051 107.743899,9.82734184 C110.848971,6.53423408 111.303554,6.27004997 109.91688,8.56458054 C104.095774,18.1968275 103.281508,20.8594685 103.261926,30.3263399 C103.243556,38.4090139 103.577521,40.2403175 106.023737,45.5454941 C107.553219,48.862509 109.403844,52.0712474 110.136254,52.6760525 C110.8687,53.2808575 111.467965,54.2335214 111.467965,54.7930712 C111.467965,56.9462795 106.442976,50.9745927 103.76056,45.6335555 L100.946688,40.0308565 L99.381605,44.6010917 L97.8164855,49.1713269 L100.80917,53.3957138 C104.693532,58.8788044 103.91303,59.5862929 99.5608222,54.5272787 L96.171273,50.5872909 L94.5086458,53.1120458 C92.9918392,55.4153496 92.9805601,55.784776 94.3804235,57.3237481 C96.7234736,59.8997899 96.2099968,60.7240721 93.4024443,58.8937555 C91.1108301,57.3997828 90.741043,57.389986 89.1945507,58.7826278 C86.5496456,61.1641962 85.604769,60.5744519 88.0003571,58.0373047 L88.0002836,58.037195 Z M93.1402684,44.9085571 L91.3144426,40.8509714 L89.3934604,44.7141202 L87.4724783,48.5772325 L89.4077523,51.6184387 L91.3430262,54.6596083 L93.1545235,51.8128756 L94.9660575,48.9661428 L93.1402684,44.9085571 Z M89.4446391,30.8099281 C89.4817464,24.8585294 89.0141578,21.0344946 87.9660788,18.720078 L86.4331434,15.3349244 L85.136666,18.2364899 C83.4339923,22.0472186 83.4034615,39.4698445 85.0925782,43.3833663 L86.3449309,46.2849318 L87.8676159,42.8997782 C88.8666104,40.6787966 89.4089647,36.5209766 89.4446391,30.8099281 Z M99.190778,31.2935163 C99.2624208,26.6360239 98.7313823,21.1857964 97.9660168,18.720078 L96.6150174,14.3677115 L95.0792163,17.7528651 C93.1182979,22.0750371 92.9663785,37.0426187 94.8297525,42.319721 L96.1618308,46.0919937 L97.6131301,42.8033091 C98.4800447,40.8389082 99.1152775,36.2041531 99.1906677,31.2935163 L99.190778,31.2935163 Z M93.379886,9.50854432 L91.649988,6.88169084 L89.8940783,9.03928579 C87.7217585,11.7084701 87.7040131,12.9127432 89.7735714,17.2304554 L91.4088274,20.642404 L93.2593791,16.3889192 L95.1098942,12.1353978 L93.379886,9.50854432 Z M63.8362234,52.2362939 C63.8362234,51.9215541 64.7460024,49.9273606 65.85795,47.8047855 C71.6378445,36.7715622 71.2257442,18.6505867 65.0369126,11.7020364 C64.2048752,10.7678329 63.7906623,9.73829348 64.1164386,9.41415891 C65.1629451,8.37292186 70.4366961,17.7107536 71.6543518,22.7609946 C73.3617869,29.8426056 72.3843845,38.5522004 69.1431249,45.1384159 C66.754025,49.9930868 63.8362234,53.895569 63.8362234,52.2362939 Z M115.667408,49.4216932 C111.595158,43.3936749 110.047784,37.9709369 110.07071,29.8082803 C110.08908,22.7621643 110.411289,21.4583882 113.505927,15.8472814 C117.54276,8.52765983 120.189391,6.78193182 116.706376,13.7362577 C111.388423,24.3543607 111.453085,37.2089081 116.877951,47.8606784 C119.596887,53.1992299 118.86062,54.1485673 115.667335,49.4216932 L115.667408,49.4216932 Z"/>
</svg>
