<svg xmlns="http://www.w3.org/2000/svg" width="92" height="43" viewBox="0 0 92 43">
  <g>
    <path d="M42 42.5C40.7849736 42.5 39.8 41.5150264 39.8 40.3L39.8 17.88C39.8 16.6649736 40.7849736 15.68 42 15.68 43.2150264 15.68 44.2 16.6649736 44.2 17.88L44.2 38C52.9252889 36.9496887 59.3033574 29.2556649 58.7177097 20.4869228 58.1320621 11.7181808 50.7874672 4.94066756 42 5.06 40.7849736 5.06 39.8 4.07502645 39.8 2.86 39.8 1.64497355 40.7849736.66 42 .66 53.5565584.66 62.925 10.0284416 62.925 21.585 62.925 33.1415584 53.5565584 42.51 42 42.51L42 42.5zM77.77 42.5C74.5889797 42.5005343 71.5091735 41.381892 69.07 39.34 68.2860376 38.5269872 68.2450575 37.2524104 68.9751749 36.3907171 69.7052924 35.5290237 70.9692993 35.3601695 71.9 36 73.54593 37.3771131 75.6239513 38.1311481 77.77 38.13L77.86 38.13C82.8829731 38.0316051 86.8937998 33.913823 86.86 28.89 86.7675687 23.9037094 82.7071233 19.905459 77.72 19.89L77.72 15.49C80.5814476 15.4358745 82.8788303 13.1118811 82.9 10.25 82.9 7.41677923 80.6032208 5.12 77.77 5.12 74.9367792 5.12 72.64 7.41677923 72.64 10.25L72.64 27C72.64 28.2150264 71.6550264 29.2 70.44 29.2 69.2249736 29.2 68.24 28.2150264 68.24 27L68.24 10.19C68.127339 6.71344651 69.9177509 3.4516603 72.9111596 1.68004499 75.9045683-.0915703126 79.6254317-.0915703126 82.6188404 1.68004499 85.6122491 3.4516603 87.402661 6.71344651 87.29 10.19 87.293138 12.8361868 86.2083684 15.3673159 84.29 17.19 87.975474 19.2391264 90.4917635 22.8926563 91.0922336 27.0665122 91.6927037 31.2403681 90.3083726 35.4550593 87.35 38.46 84.8491885 41.037243 81.420977 42.5064765 77.83 42.54L77.77 42.5zM2.39 42.59C1.17497355 42.59.19 41.6050264.19 40.39L.19 16.73C.19 15.5149736 1.17497355 14.53 2.39 14.53 3.60502645 14.53 4.59 15.5149736 4.59 16.73L4.59 40.39C4.59 40.9734763 4.35821495 41.5330549 3.94563492 41.9456349 3.53305489 42.358215 2.97347628 42.59 2.39 42.59zM2.39 11.75C1.17497355 11.75.19 10.7650264.19 9.55L.19 2.86C.19 1.64497355 1.17497355.66 2.39.66 3.60502645.66 4.59 1.64497355 4.59 2.86L4.59 9.55C4.59 10.1334763 4.35821495 10.6930549 3.94563492 11.1056349 3.53305489 11.518215 2.97347628 11.75 2.39 11.75zM12.7 42.59C11.4849736 42.59 10.5 41.6050264 10.5 40.39L10.5 13.77C10.5936681 6.53747349 16.5190722.742854965 23.7518879.810607835 30.9847036.878360706 36.8005161 6.78296422 36.7586794 14.0159763 36.7168426 21.2489883 30.8331155 27.0859201 23.6 27.07 22.3849736 27.07 21.4 26.0850264 21.4 24.87 21.4 23.6549736 22.3849736 22.67 23.6 22.67 27.1638333 22.714268 30.4032567 20.6069068 31.807162 17.3309462 33.2110673 14.0549857 32.5028502 10.2558722 30.0128756 7.70579483 27.5229011 5.15571746 23.7417566 4.35710539 20.4332492 5.68249067 17.1247417 7.00787596 14.9407302 10.1961245 14.9 13.76L14.9 40.38C14.9026601 40.965207 14.6720499 41.527358 14.2591812 41.9421034 13.8463125 42.3568488 13.285213 42.590006 12.7 42.59z"/>
  </g>
</svg>
