<svg xmlns="http://www.w3.org/2000/svg" width="762" height="153" viewBox="0 0 762 153" xmlns:xlink="http://www.w3.org/1999/xlink">
  <defs>
    <polygon id="a" points="116.549 64.78 116.829 112.006 78.297 123.055 78.017 75.829"/>
    <polygon id="b" points="78.297 123.055 46.16 110.211 45.879 62.986 78.017 75.829"/>
    <polygon id="c" points="78.017 75.829 45.879 62.986 84.411 51.936 116.549 64.78"/>
    <polygon id="d" points="116.268 12.956 116.549 60.181 78.017 71.23 77.736 24.005"/>
    <polygon id="e" points="78.017 71.23 45.879 58.386 45.599 11.161 77.736 24.005"/>
    <polygon id="f" points="77.736 24.005 45.599 11.161 84.13 .112 116.268 12.956"/>
    <polygon id="g" points="70.95 78.297 71.23 125.522 32.699 136.572 32.418 89.346"/>
    <polygon id="h" points="32.699 136.572 .561 123.728 .28 76.503 32.418 89.346"/>
    <polygon id="i" points="32.418 89.346 .28 76.503 38.812 65.453 70.95 78.297"/>
    <polygon id="j" points="154.239 81.326 154.519 128.551 115.988 139.6 115.707 92.375"/>
    <polygon id="k" points="115.988 139.6 83.794 126.756 83.569 79.531 115.707 92.375"/>
    <polygon id="l" points="115.707 92.375 83.569 79.531 122.045 68.482 154.239 81.326"/>
    <polygon id="m" points="70.669 25.912 70.95 73.137 32.418 84.186 32.138 36.961"/>
    <polygon id="n" points="32.418 84.186 .28 71.343 0 24.117 32.138 36.961"/>
    <polygon id="o" points="32.138 36.961 0 24.117 38.532 13.068 70.669 25.912"/>
    <polygon id="p" points="153.958 28.548 154.239 75.773 115.707 86.822 115.427 39.597"/>
    <polygon id="q" points="115.707 86.822 83.569 73.979 83.289 26.753 115.427 39.597"/>
    <polygon id="r" points="115.427 39.597 83.289 26.753 121.821 15.704 153.958 28.548"/>
    <polygon id="s" points="109.145 94.506 109.426 141.732 70.894 152.781 70.613 105.556"/>
    <polygon id="t" points="70.894 152.781 38.756 139.937 38.476 92.712 70.613 105.556"/>
    <polygon id="u" points="70.613 105.556 38.476 92.712 77.007 81.662 109.145 94.506"/>
    <polygon id="v" points="109.089 41.953 109.369 89.178 70.838 100.227 70.557 52.946"/>
    <polygon id="w" points="70.838 100.227 38.7 87.383 38.42 40.158 70.557 52.946"/>
    <polygon id="x" points="70.557 52.946 38.42 40.158 76.951 29.109 109.089 41.953"/>
  </defs>

  <g class="cube" stroke="#445261" fill-rule="evenodd" transform="translate(0 .027)">
        <use xlink:href="#a"/>
        <path stroke-width="2" d="M115.55639,66.1051535 L79.0213374,76.5817261 L79.2894377,121.729814 L115.82449,111.253241 L115.55639,66.1051535 Z"/>
        <use xlink:href="#b"/>
        <path stroke-width="2" d="M77.2884804,121.574545 L77.0208663,76.5083207 L46.887876,64.4656423 L47.1554902,109.531866 L77.2884804,121.574545 Z"/>
        <use xlink:href="#c"/>
        <path stroke-width="2" d="M78.0701763,74.7738717 L113.464056,64.6245349 L84.3574336,52.9920452 L48.9635535,63.141382 L78.0701763,74.7738717 Z"/>
        <use xlink:href="#d"/>
        <path stroke-width="2" d="M115.275955,14.2808747 L78.740903,24.7574472 L79.0090033,69.905535 L115.544056,59.4289625 L115.275955,14.2808747 Z"/>
        <use xlink:href="#e"/>
        <path stroke-width="2" d="M77.008046,69.750266 L76.7404319,24.6840419 L46.6074416,12.6413634 L46.8750558,57.7075876 L77.008046,69.750266 Z"/>
        <use xlink:href="#f"/>
        <path stroke-width="2" d="M77.7897418,22.9495929 L113.183622,12.8002561 L84.0769992,1.16776632 L48.6831191,11.3171031 L77.7897418,22.9495929 Z"/>
        <use xlink:href="#g"/>
        <path stroke-width="2" d="M69.9577549,79.6220921 L33.4227025,90.0986646 L33.6908027,135.246752 L70.2258552,124.77018 L69.9577549,79.6220921 Z"/>
        <use xlink:href="#h"/>
        <path stroke-width="2" d="M31.6898455,135.091483 L31.4222313,90.0252593 L1.28924108,77.9825808 L1.55685524,123.048805 L31.6898455,135.091483 Z"/>
        <use xlink:href="#i"/>
        <path stroke-width="2" d="M32.4715413,88.2908103 L67.8654215,78.1414734 L38.7587987,66.5089837 L3.36491851,76.6583205 L32.4715413,88.2908103 Z"/>
        <use xlink:href="#j"/>
        <path stroke-width="2" d="M153.246775,82.6507837 L116.711722,93.1273562 L116.979822,138.275444 L153.514875,127.798871 L153.246775,82.6507837 Z"/>
        <use xlink:href="#k"/>
        <path stroke-width="2" d="M114.978871,138.121138 L114.711251,93.0539509 L84.5764931,81.010566 L84.7905873,126.07738 L114.978871,138.121138 Z"/>
        <use xlink:href="#l"/>
        <path stroke-width="2" d="M115.760561,91.3195019 L151.151686,81.1709552 L121.992254,69.5376628 L86.6522287,79.686329 L115.760561,91.3195019 Z"/>
        <g>
          <use xlink:href="#m"/>
          <path stroke-width="2" d="M69.6773205,27.2369444 L33.1422681,37.7135169 L33.4103683,82.8616047 L69.9454208,72.3850322 L69.6773205,27.2369444 Z"/>
        </g>
        <g>
          <use xlink:href="#n"/>
          <path stroke-width="2" d="M31.4094111,82.7063358 L31.1417969,37.6401116 L1.00880667,25.5974331 L1.27642083,70.6636573 L31.4094111,82.7063358 Z"/>
        </g>
        <g>
          <use xlink:href="#o"/>
          <path stroke-width="2" d="M32.1911069,35.9056626 L67.5849871,25.7563258 L38.4783643,14.123836 L3.0844841,24.2731729 L32.1911069,35.9056626 Z"/>
        </g>
        <g>
          <use xlink:href="#p"/>
          <path stroke-width="2" d="M152.96634,29.8730278 L116.431288,40.3496004 L116.699388,85.4976882 L153.23444,75.0211156 L152.96634,29.8730278 Z"/>
        </g>
        <g>
          <use xlink:href="#q"/>
          <path stroke-width="2" d="M114.698431,85.3424192 L114.430816,40.2761951 L84.2978262,28.2335166 L84.5654404,73.2997407 L114.698431,85.3424192 Z"/>
        </g>
        <g>
          <use xlink:href="#r"/>
          <path stroke-width="2" d="M115.480126,38.541746 L150.874007,28.3924092 L121.767384,16.7599195 L86.3735037,26.9092563 L115.480126,38.541746 Z"/>
        </g>
        <g>
          <use xlink:href="#s"/>
          <path stroke-width="2" d="M108.152921,95.8312009 L71.617869,106.307773 L71.8859693,151.455861 L108.421022,140.979289 L108.152921,95.8312009 Z"/>
        </g>
        <g>
          <use xlink:href="#t"/>
          <path stroke-width="2" d="M69.885012,151.300592 L69.6173979,106.234368 L39.4844076,94.1916897 L39.7520218,139.257914 L69.885012,151.300592 Z"/>
        </g>
        <g>
          <use xlink:href="#u"/>
          <path stroke-width="2" d="M70.6667079,104.499919 L106.060588,94.3505823 L76.9539652,82.7180926 L41.5600851,92.8674294 L70.6667079,104.499919 Z"/>
        </g>
        <g>
          <use xlink:href="#v"/>
          <path stroke-width="2" d="M108.096824,43.2759513 L71.5617831,53.6993398 L71.8298917,98.9024503 L108.364935,88.4258804 L108.096824,43.2759513 Z"/>
        </g>
        <g>
          <use xlink:href="#w"/>
          <path stroke-width="2" d="M69.8289356,98.7471882 L69.5613127,53.6259654 L39.4283064,41.6358686 L39.6959349,86.7045055 L69.8289356,98.7471882 Z"/>
        </g>
        <g>
          <use xlink:href="#x"/>
          <path stroke-width="2" d="M70.6105105,51.8909333 L105.998531,41.7947879 L76.8978783,30.1646843 L41.5109164,40.3120373 L70.6105105,51.8909333 Z"/>
        </g>
    </g>
    <g transform="translate(192.939 37.017)">
      <path stroke-width="3.57" d="M0 84.018149L0 .224347527 19.7425824.224347527C27.5947459.224347527 34.0447373.785216346 39.0364698 1.8508671 43.8599416 2.86043098 48.4590659 4.71129808 52.6094952 7.34738152 58.386444 10.8808551 63.0416552 15.8725876 66.1825206 21.8738839 69.2672991 27.8190934 70.7816449 34.661693 70.7816449 42.4016827 70.7816449 50.4221068 69.0429516 57.4890539 65.6216518 63.6586109 62.0881782 69.8842548 56.8720982 74.9320742 50.5903674 78.2972871 43.6355941 82.1111951 34.2690848 84.0742359 22.5469265 84.0742359L0 84.018149zM8.3569454 76.44642L20.0230168 76.44642C27.6508328 76.44642 33.8764766 75.8294643 38.6438616 74.539466 43.1308122 73.4177284 47.3373283 71.2864269 50.8708019 68.3138221 54.5164492 65.1729567 57.3768802 61.246875 59.2838341 56.8160113 61.246875 52.1608001 62.2564389 47.1129808 62.200352 42.0090745 62.3125258 36.0077782 60.8542668 30.0064818 57.9938359 24.7343149 55.3016655 19.6864955 51.2073231 15.5360663 46.2155907 12.7878091 42.8503777 10.936942 39.2047304 9.64694368 35.3908225 8.9739011 30.2869162 8.07651099 25.1269231 7.68390282 19.9669299 7.79607658L8.24477163 7.79607658 8.3569454 76.44642zM77.3438101 84.018149L113.295501.224347527 122.718098.224347527 158.781963 84.018149 149.583714 84.018149 137.412861 55.8064475 98.3763908 55.8064475 86.1494505 84.0742359 77.3438101 84.0742359 77.3438101 84.018149zM101.573343 48.1786315L134.159821 48.1786315 118.062886 9.75911745 101.573343 48.1786315zM205.221901 52.721669L228.722304 84.018149 218.290144 84.018149 190.022356 45.9912431C199.052344 45.9912431 205.446248 45.4303743 209.316243 44.3647236 217.392754 41.9529876 221.43101 36.1760388 221.43101 26.9217033 221.43101 23.1077953 220.645793 19.7986693 219.131447 16.9943252 217.673189 14.3021549 215.373626 12.1147665 212.569282 10.7686813 208.306679 8.74955357 201.856688 7.7399897 193.275395 7.7399897L181.49715 7.7399897 181.49715 83.9620622 173.084117 83.9620622 173.084117.224347527 193.780177.224347527C204.717119.224347527 212.737543 1.62651957 217.897536 4.48695055 221.711444 6.61825206 224.796223 9.81520433 226.871437 13.6851992 228.946652 17.4991071 229.956216 21.9860577 229.956216 27.0899639 229.956216 34.6056061 227.824914 40.5508156 223.618398 44.9255924 219.411882 49.3003692 213.298412 51.8803657 205.221901 52.721669z" opacity=".7"/>
      <polygon stroke-width="3.57" points="246.558 84.018 246.558 .224 289.128 .224 289.128 7.796 254.971 7.796 254.971 38.083 287.894 38.083 287.894 45.655 254.971 45.655 254.971 84.018" opacity=".7"/>
      <path stroke-width="5.78" d="M362.713865 43.1308122L357.441698 46.3838513C352.898661 40.3264681 346.673017 37.2977764 338.820853 37.2977764 332.539123 37.2977764 327.323043 39.3169042 323.116526 43.3551597 319.078271 47.1690677 316.778709 52.5534083 316.890883 58.1060096 316.890883 61.8638307 317.900446 65.509478 319.751314 68.7064303 321.602181 71.9594694 324.294351 74.6516398 327.603477 76.44642 331.024777 78.2972871 334.894772 79.2507641 338.820853 79.1946772 346.392582 79.1946772 352.618226 76.1659856 357.441698 70.1086023L362.713865 73.585989C360.246042 77.2877232 356.824742 80.3164148 352.786487 82.2233688 348.355623 84.3546703 343.476065 85.3642342 338.540419 85.3081473 330.351734 85.3081473 323.621308 82.7281508 318.236968 77.5120707 312.964801 72.632512 310.048283 65.7338255 310.160457 58.5547047 310.160457 53.6751459 311.450455 48.8516741 313.918278 44.5890711 316.386101 40.3264681 319.975661 36.8490814 324.294351 34.5495192 328.837388 32.1377833 333.885208 30.847785 339.045201 30.9599588 342.410414 30.9599588 345.775627 31.4647407 348.972579 32.5303915 351.889097 33.4277816 354.637354 34.8299536 357.04909 36.6247339 359.348652 38.475601 361.255606 40.6069025 362.713865 43.1308122zM375.501674 12.4512878L382.119926 12.4512878 382.119926 41.6725532C384.475575 38.4195141 387.504267 35.7273438 390.981654 33.708216 394.178606 31.9695227 397.824253 31.0721326 401.4699 31.0721326 405.115548 31.0160457 408.705108 32.0256095 411.7338 33.9886504 414.706405 35.8956044 417.005967 38.6438616 418.352052 41.8969008 419.754224 45.2060268 420.483353 50.3660199 420.483353 57.432967L420.483353 84.018149 413.921188 84.018149 413.921188 59.3960079C413.921188 53.4507984 413.696841 49.4686298 413.192059 47.5055889 412.350755 44.0842891 410.892497 41.5042926 408.705108 39.7655992 406.51772 38.0269059 403.713376 37.1856027 400.179902 37.1856027 396.197734 37.1856027 392.383826 38.5877747 389.355134 41.1677713 386.270355 43.691681 384.02688 47.1690677 383.017316 51.0390625 382.400361 53.5629722 382.063839 58.2742703 382.063839 65.1168698L382.063839 84.0742359 375.445587 84.0742359 375.501674 12.4512878zM486.273266 32.3621308L486.273266 84.018149 479.711101 84.018149 479.711101 75.1564217C477.187191 78.353374 473.990239 80.9333705 470.344591 82.7842376 460.192866 87.6637964 448.078099 85.476408 440.225936 77.399897 435.065943 72.0716432 432.485946 65.6216518 432.485946 58.0499227 432.373772 50.8708019 435.234203 43.9721154 440.33811 38.9803829 445.217668 33.8203898 452.060268 30.9599588 459.183302 31.0721326 463.16547 31.0160457 467.147639 31.9695227 470.681113 33.7643029 474.270673 35.7273438 477.411538 38.5316878 479.711101 41.8969008L479.711101 32.3621308 486.273266 32.3621308 486.273266 32.3621308zM459.688084 37.4660371C452.340702 37.4099502 445.498103 41.3921188 441.964629 47.8421102 438.262895 54.2921016 438.262895 62.2564389 441.964629 68.7064303 443.703322 71.9033826 446.339406 74.5955529 449.480271 76.44642 452.56505 78.2972871 456.042436 79.2507641 459.631997 79.1946772 463.277644 79.1946772 466.811118 78.2412002 469.951983 76.44642 473.092849 74.7077266 475.728932 72.1277301 477.467625 68.9868647 479.262406 65.7338255 480.159796 62.0881782 480.103709 58.386444 480.103709 52.3851477 478.140668 47.3934152 474.214586 43.4112466 470.456765 39.5412517 465.184598 37.3538633 459.688084 37.4660371L459.688084 37.4660371zM503.548025 11.1052026C506.576717 11.1052026 509.04454 13.5730254 509.04454 16.601717 509.04454 19.6304087 506.576717 22.0982315 503.548025 22.0982315 500.575421 22.0421446 498.107598 19.6304087 498.107598 16.6578039 498.107598 15.199545 498.668467 13.7973729 499.734117 12.7878091 500.687594 11.6660714 502.089766 11.1052026 503.548025 11.1052026zM500.238899 32.3621308L506.857151 32.3621308 506.857151 84.018149 500.238899 84.018149 500.238899 32.3621308zM520.710611 32.3621308L527.328863 32.3621308 527.328863 41.6164663C529.684512 38.3634272 532.657117 35.6712569 536.190591 33.6521291 539.44363 31.9134358 543.03319 30.9599588 546.734924 31.0160457 550.380572 30.9599588 553.970132 31.9695227 556.998824 33.9325635 559.971429 35.8395175 562.270991 38.5877747 563.617076 41.8408139 565.019248 45.1499399 565.748377 50.3660199 565.748377 57.3768802L565.748377 83.9620622 559.130125 83.9620622 559.130125 59.2838341C559.130125 53.3386247 558.905778 49.356456 558.400996 47.3934152 557.61578 43.9721154 556.157521 41.3921188 553.970132 39.6534255 551.782744 37.9147321 548.922313 37.0734289 545.444926 37.0734289 541.462758 37.0734289 537.64885 38.475601 534.620158 41.0555975 531.535379 43.5795072 529.291904 47.0568939 528.338427 50.9268887 527.721471 53.5068853 527.38495 58.1620965 527.38495 65.0046961L527.38495 83.9620622 520.766698 83.9620622 520.710611 32.3621308z"/>
    </g>
  </g>
</svg>
