<svg xmlns="http://www.w3.org/2000/svg" width="135" height="200" viewBox="0 0 135 200">
  <g>
    <path class="stroke" d="M71.958 61.327C80.683 51.784 85.593 46.479 86.185 43.036M86.185 43.036C86.556 40.879 85.482 37.388 79.623 39.834 76.435 41.163 70.914 43.382 65.104 46.086 61.386 47.819 54.183 51.23 49.992 51.165 47.644 51.13 44.248 49.231 47.287 43.834M47.287 43.834C51.434 36.468 58.437 27.796 58.437 27.796M71.958 61.327C80.683 51.784 85.593 46.479 86.185 43.036"/>
    <path class="stroke" d="M86.185 43.036C86.556 40.879 85.482 37.388 79.623 39.834 76.435 41.163 70.914 43.382 65.104 46.086 61.386 47.819 54.183 51.23 49.992 51.165 47.644 51.13 44.248 49.231 47.287 43.834M47.287 43.834C51.434 36.468 58.437 27.796 58.437 27.796"/>
    <path d="M132.556 171.2C131.092 171.2 130.131 171.659 129.629 172.747L122.983 187.46 116.129 172.747C115.627 171.659 114.457 171.2 112.994 171.2 111.569 171.2 110.9 171.743 111.444 172.829L120.347 190.971C120.556 191.432 120.556 191.975 120.304 192.393 119.218 194.44 117.962 196.196 115.786 196.196 114.95 196.196 114.198 195.821 113.737 195.446 113.403 195.194 113.278 195.069 112.901 195.069 112.149 195.069 111.104 196.03 111.104 197.329 111.104 198.416 112.901 200.005 115.786 200.005 120.179 200.005 122.725 196.114 124.981 191.482L134.051 172.836C134.604 171.743 133.935 171.2 132.556 171.2M47.327 170.488C43.69 170.488 40.806 171.785 38.841 173.332 38.757 171.743 38.172 171.075 36.542 171.075L35.915 171.075C35.288 171.075 34.953 171.324 34.953 172.078L34.953 190.553C34.953 191.641 35.747 192.1 36.918 192.1 38.089 192.1 38.841 191.641 38.841 190.553L38.841 178.725C38.841 177.846 39.301 177.053 39.97 176.508 41.432 175.338 43.647 174.209 46.364 174.209 50.378 174.209 52.384 176.425 52.384 180.27L52.384 190.553C52.384 191.641 53.18 192.1 54.35 192.1 55.52 192.1 56.272 191.641 56.272 190.553L56.272 180.147C56.271 173.582 53.095 170.488 47.327 170.488M22.247 170.488C18.611 170.488 15.726 171.785 13.762 173.332 13.678 171.743 13.093 171.075 11.463 171.075L10.836 171.075C10.209 171.075 9.875 171.324 9.875 172.078L9.875 190.553C9.875 191.641 10.669 192.1 11.839 192.1 13.01 192.1 13.762 191.641 13.762 190.553L13.762 178.725C13.762 177.846 14.222 177.053 14.891 176.508 16.354 175.338 18.57 174.209 21.287 174.209 25.3 174.209 27.307 176.425 27.307 180.27L27.307 190.553C27.307 191.641 28.1 192.1 29.271 192.1 30.441 192.1 31.194 191.641 31.194 190.553L31.194 180.147C31.192 173.582 28.015 170.488 22.247 170.488M97.235 188.379C92.762 188.379 89.794 185.537 89.794 181.358 89.794 177.094 92.767 174.004 97.235 174.004 99.45 174.004 101.833 175.006 103.171 176.553 103.671 177.098 103.923 177.643 103.923 178.395L103.923 184.249C103.923 184.959 103.589 185.587 103.087 186.171 101.79 187.586 99.409 188.379 97.235 188.379M96.608 200C104.34 200 107.727 195.609 107.727 187.961L107.727 172.119C107.727 171.409 107.35 171.075 106.639 171.075L106.221 171.075C105.344 171.075 104.131 171.576 103.922 173.081 102.041 171.492 99.533 170.488 96.774 170.488 90.338 170.488 85.823 175.338 85.823 181.398 85.823 187.292 90.212 191.89 96.774 191.89 99.409 191.89 101.917 191.008 103.797 189.545 103.797 193.646 101.789 196.399 96.774 196.399 93.473 196.399 91.299 194.85 90.338 193.932 90.045 193.68 89.877 193.555 89.502 193.555 88.748 193.555 87.703 194.475 87.703 195.897 87.704 197.784 91.674 200 96.608 200M71.235 189.048C66.471 189.048 63.253 185.913 63.253 181.651 63.253 177.178 66.473 174.005 71.235 174.005 75.876 174.005 79.01 177.186 79.01 181.651 79.011 185.913 75.875 189.048 71.235 189.048M71.194 192.643C77.756 192.643 82.938 188.045 82.938 181.651 82.938 175.089 77.756 170.494 71.194 170.494 64.423 170.494 59.323 175.092 59.323 181.651 59.323 188.045 64.422 192.643 71.194 192.643M3.604 166.419C5.092 166.419 6.25 165.284 6.25 163.731 6.25 162.219 5.092 161.085 3.604 161.085 2.074 161.085.916 162.221.916 163.731.916 165.284 2.074 166.419 3.604 166.419M3.604 192.1C4.858 192.1 5.652 191.307 5.652 189.969L5.652 173.122C5.652 171.785 4.858 170.99 3.604 170.99 2.35 170.99 1.514 171.785 1.514 173.122L1.514 189.969C1.514 191.307 2.35 192.1 3.604 192.1M67.583 141.66C59.54 141.66 52.999 135.118 52.999 127.077L52.999 72.91C52.999 64.868 59.54 58.327 67.583 58.327 75.624 58.327 82.165 64.869 82.165 72.91L82.165 127.077C82.165 135.118 75.624 141.66 67.583 141.66M67.583 62.494C61.839 62.494 57.165 67.166 57.165 72.911L57.165 127.078C57.165 132.82 61.839 137.495 67.583 137.495 73.325 137.495 77.999 132.82 77.999 127.078L77.999 72.91C77.999 67.166 73.325 62.494 67.583 62.494M67.583 33.333C58.392 33.333 50.916 25.856 50.916 16.666 50.916 7.476 58.392 0 67.583 0 76.772 0 84.249 7.476 84.249 16.667 84.249 25.856 76.772 33.333 67.583 33.333M67.583 4.167C60.69 4.167 55.083 9.774 55.083 16.667 55.083 23.56 60.69 29.167 67.583 29.167 74.477 29.167 80.083 23.56 80.083 16.667 80.083 9.774 74.476 4.167 67.583 4.167"/>
  </g>
</svg>
