<svg xmlns="http://www.w3.org/2000/svg" width="204" height="53" viewBox="0 0 204 53">
  <g transform="translate(.5 .511)">
    <path d="M7.76897839 35.8530205C9.11782294 29.6825144 11.4767751 14.6218411 14.4680362 6.52999449 15.2108162 4.52137575 20.0843563 3.61319444 22.8308724 5.88669939 20.7923472 13.3413543 18.8960304 24.5788773 18.8960304 24.5788773 19.8676867 24.5044162 20.7880748 24.243192 21.6571945 23.7945944 22.5263143 23.3466071 23.33379 22.7710594 24.0814527 22.0716133 24.8285051 21.3709465 25.5010963 20.5616398 26.0992265 19.6461345 26.6967463 18.7312394 27.2063776 17.7638555 27.6268998 16.7452032 28.0474219 15.7271612 28.3690694 14.6816541 28.5936734 13.6068508 28.817667 12.5320476 28.929969 11.4810474 28.929969 10.4538504 28.929969 9.38881252 28.7944742 8.38358765 28.5234847 7.4400068 28.2524951 6.49703629 27.8325833 5.6651471 27.2619183 4.9455599 26.6918636 4.22658303 25.9539663 3.66141106 25.0488367 3.25004399 24.1418761 2.83928726 23.0628004 2.63299338 21.8109994 2.63299338 19.4752401 2.63299338 17.3872776 2.95158925 15.5471118 3.58633962 13.7069461 4.22170033 12.1511973 5.13781602 10.8804759 6.33346601 9.60975448 7.52911599 8.40372877 8.99087287 7.59991507 10.7187366 6.79610137 12.4472107 6.39511003 14.4045612 6.39511003 16.5907879 6.39511003 17.3195302 6.44515766 17.9127777 6.54525291 18.3705303 6.6459585 18.828283 6.75154678 19.1932645 6.86323843 19.4636437 6.97493009 19.7352436 7.08112871 19.9451995 7.18122396 20.0947321 7.28192955 20.2442646 7.33258751 20.3748767 7.33258751 20.4865684 6.14853392 20.4865684 5.09997513 20.3883041 4.18508012 20.1929963 3.26957477 19.9970782 2.50543297 19.6845857 1.89204439 19.2542982 1.27743513 18.824621.808696392 18.253956.485217835 17.5441342.161739278 16.835533 0 15.9566479 0 14.9105305 0 13.639809.328971589 12.388008.987525103 11.1545172 1.64607862 9.92163664 2.56524599 8.76993091 3.69925195 7.65179371 7.08479073 4.31203019 10.9933882 1.97871223 16.9203699.573716685 18.536542.19103545 20.1478314 0 21.7554588 0 24.1089179 0 26.136457.313713166 27.8368556.938698151 29.5372542 1.56429347 30.9428601 2.40106536 32.0555043 3.44657247 33.1669278 4.49330025 33.9841689 5.69444327 34.507838 7.04817051 35.0302863 8.40311843 35.2921209 9.8184897 35.2921209 11.2942843 35.2921209 13.1259054 34.913712 14.9569161 34.1568942 16.7879268 33.4006868 18.6195478 32.3075734 20.2680678 30.8781644 21.734097 29.4487554 23.2013469 27.7105159 24.3927245 25.6646666 25.3082299 23.6188173 26.2237352 21.3068612 26.6814879 18.7281878 26.6814879L18.4199676 26.6814879C18.4199676 26.6814879 15.2987047 40.7729462 13.8259618 45.633059 12.4215766 50.2679574 8.79739607 52.3900988 3.62173916 52.3900988 3.62173916 52.3907091 6.85042136 40.0564107 7.76897839 35.8530205M51.9616423 29.9577764C51.3702258 31.4360123 48.3942231 32.6829306 46.3428808 31.8431071 46.1323145 34.3363333 45.6538104 36.5842041 44.9073684 38.5854988 44.1609264 40.5867935 43.2173455 42.2896334 42.0766258 43.6940186 40.9346855 45.1002348 39.6267335 46.1793105 38.1521596 46.9342972 36.6769753 47.689284 35.1139025 48.0664722 33.4641619 48.0664722 32.2172436 48.0664722 31.0630965 47.9126673 30.0011103 47.6050575 28.9385137 47.298058 28.0260601 46.8067368 27.2619183 46.1304835 26.4983868 45.4554509 25.900867 44.5765658 25.4711898 43.4974901 25.0415126 42.4171938 24.8260637 41.1049695 24.8260637 39.5602068 24.8260637 38.506155 24.9359244 37.3080636 25.1550353 35.9647121 25.3747566 34.621971 25.7257003 33.2383372 26.2084768 31.8168626 26.6912533 30.3941673 27.3144073 29.0038198 28.0779387 27.6421582 28.8420805 26.2823276 29.7728443 25.0659261 30.8696197 23.9947849 31.9670054 22.9242539 33.2358959 22.0594066 34.6756806 21.400853 36.114855 20.7429099 37.7572716 20.4133279 39.600489 20.4133279 44.2176877 20.4133279 46.5272025 23.2837424 46.5272025 29.0245713 46.5272025 29.0379987 46.5168268 29.0691258 46.5272025 29.0776706 49.4116547 30.5040279 51.6589152 28.6730172 52.4529635 27.2893834M41.8654493 32.0011843C41.303329 31.8614172 40.9212581 31.5843242 40.7198469 31.1723468 40.5178254 30.7597591 40.4171198 30.2812549 40.4171198 29.7362241 40.4171198 28.982458 40.5703144 28.3623557 40.8779242 27.8795792 41.1849236 27.3968027 41.593239 27.0409763 42.1028703 26.8127103 42.0674708 26.2341109 42.0058268 25.7470621 41.9179383 25.3509535 41.8300497 24.9560655 41.707372 24.6313662 41.5492948 24.3768558 41.3912175 24.1223453 41.1934684 23.9422959 40.957268 23.8360973 40.7198469 23.730509 40.4171198 23.67802 40.0484763 23.67802 39.3984675 23.67802 38.7753136 23.9282581 38.1784041 24.4293447 37.5814946 24.9286003 37.0151019 25.5914262 36.4798365 26.417212 35.9439607 27.2423875 35.4526395 28.1865787 35.0046522 29.2485649 34.5566649 30.3105511 34.1752043 31.4030541 33.8590498 32.5272947 33.5428953 33.6515353 33.2969295 34.7617381 33.1217629 35.8585135 32.9459858 36.9565096 32.8587077 37.9531898 32.8587077 38.848554 32.8587077 39.7439182 32.9063139 40.4726605 33.0033575 41.0341704 33.0997907 41.5962907 33.2572576 42.038785 33.4775893 42.3640945 33.6967002 42.6887938 33.9817275 42.9127874 34.3332816 43.0354651 34.6842253 43.1587532 35.1139025 43.2203972 35.6241441 43.2203972 36.2729323 43.2203972 36.9272134 42.9304872 37.5857669 42.3506671 38.2437101 41.7720677 38.854047 40.9822918 39.4161673 39.9801186 39.9776772 38.9797764 40.4738811 37.7945022 40.9041687 36.4249062 41.3338458 35.0565308 41.654883 33.5813465 41.8654493 32.0011843"/>
    <path d="M64.1177223,40.1766471 C64.4503559,39.5888926 64.7207351,38.8693054 64.9313014,38.1851178 L67.4794579,38.1900005 C66.970437,39.6480953 66.4040443,40.912103 65.7808903,41.9832443 C65.1577364,43.0543856 64.5077276,43.9570738 63.8320846,44.6943608 C63.1558313,45.4322581 62.463099,46.0297779 61.7514461,46.4863099 C61.0404036,46.9434523 60.3513333,47.2937857 59.6842351,47.5397514 C59.0165265,47.7863275 58.3805554,47.9523392 57.7744909,48.0402277 C57.1690367,48.1281162 56.6288885,48.1726708 56.1552671,48.1726708 C55.347181,48.1726708 54.5921943,48.0487724 53.8903069,47.803417 C53.1878091,47.5586719 52.5774722,47.1723286 52.0599065,46.6449975 C51.5417305,46.1182768 51.1334151,45.4517889 50.8349604,44.6430925 C50.5371159,43.8362271 50.3277704,42.8602984 50.3869731,41.7201891 C50.8874493,32.1000589 55.9038083,11.1697756 55.9038083,11.1697756 C59.158735,10.7614602 63.8833529,10.0894793 63.8833529,10.0894793 C63.8833529,10.0894793 58.073556,36.8490903 58.1565618,40.955437 C58.1797546,42.1053117 58.6375073,42.957342 60.3427886,42.957342 C62.2232366,42.957342 63.6972002,40.9206478 64.1177223,40.1766471"/>
    <path d="M86.1673635,39.2171975 C86.2857688,38.5397235 86.7728177,36.5317151 86.7728177,36.5317151 C86.8613165,36.1801611 86.9180778,35.8328794 86.9443223,35.491701 C86.9705668,35.1486917 86.9839942,34.8105651 86.9839942,34.4767108 C86.9839942,33.6167461 86.8649785,32.804998 86.6281678,32.0408562 C86.3907468,31.2773247 86.0263756,30.6059542 85.5356648,30.0261341 C85.0437332,29.446314 84.4248516,28.9903924 83.6784096,28.6565381 C82.9325779,28.3232942 82.0585755,28.1566722 81.0576229,28.1566722 C80.4607134,28.1566722 79.863804,28.2366263 79.2668945,28.3947036 L91.2185116,20.0190503 L84.7184237,20.88817 L74.3158415,29.0788912 L78.6235994,8.38541866 L70.6434444,9.49134912 C70.6434444,9.49134912 68.8063304,18.4651326 66.8874311,28.8817524 C65.267597,37.6724348 62.5430531,47.8571266 62.5430531,47.8571266 L70.3126418,47.8571266 L73.1311776,34.5304204 C73.885554,33.9164215 74.5837794,33.429983 75.2240229,33.0692739 C75.8654869,32.7097854 76.4929133,32.5291257 77.1075225,32.5291257 C77.8448095,32.5291257 78.3544408,32.7671571 78.6351958,33.2395579 C78.9159508,33.7137896 79.0569386,34.3460987 79.0569386,35.136485 C79.0569386,35.43555 79.0435112,35.7504839 79.0166563,36.0843382 C78.9904119,36.4181925 78.9330402,36.7605915 78.845762,37.1127558 L78.3983851,39.2184181 C78.1872085,40.2547702 78.0816202,41.1934684 78.0816202,42.0363436 C78.0816202,44.0040698 78.6522852,45.5170949 79.7942256,46.5796915 C80.9349452,47.642288 82.6292405,48.1732811 84.8771113,48.1732811 C85.4734104,48.1732811 86.1893356,48.0762376 87.0230558,47.8821504 C87.8573863,47.6905046 88.7222337,47.2553344 89.6175979,46.5790812 C90.5129622,45.9034382 91.4125988,44.9018754 92.3171181,43.5768339 C93.221027,42.2511822 94.0510852,40.4549607 94.8054616,38.1906108 L92.5411117,38.1906108 C92.2597464,38.8931086 92.0046256,39.5541034 91.684809,40.1265995 C90.6533397,41.9704272 89.3167019,43.9759943 87.7225019,44.3354827 C84.043391,45.1649306 85.8170301,41.2282576 86.1673635,39.2171975"/>
    <path d="M114.938645,40.9560473 C114.781788,42.4934859 115.675322,43.2741068 117.149895,43.2741068 C117.676616,43.2741068 118.163665,43.136781 118.612263,42.8657915 C119.05964,42.5935812 119.467345,42.2292101 119.836599,41.7726781 C120.205242,41.3167564 120.531162,40.7759979 120.811307,40.1528439 C121.092672,39.52969 121.328872,38.8754088 121.522959,38.1912211 L123.78792,38.1912211 C123.278899,39.6480953 122.724713,40.9133237 122.127803,41.9832443 C121.530894,43.0543856 120.912622,43.9582945 120.271158,44.6955815 C119.630305,45.4334788 118.976634,46.0303883 118.309536,46.4863099 C117.641217,46.9434523 116.992429,47.2950063 116.36012,47.5409721 C115.728421,47.7863275 115.122967,47.9535598 114.543147,48.0402277 C113.963937,48.1293369 113.437216,48.1726708 112.962374,48.1726708 C111.435311,48.1726708 110.21952,47.7552004 109.315611,46.9208698 C108.411092,46.0877599 107.861789,44.8542691 107.669532,43.2210075 C107.2307,43.8362271 106.747924,44.437409 106.219982,45.0251634 C105.693872,45.6141385 105.105507,46.1402489 104.455498,46.605936 C103.8061,47.0704024 103.08163,47.4488112 102.282699,47.7375006 C101.483768,48.0274106 100.601221,48.1720605 99.6362782,48.1720605 C98.704904,48.1720605 97.8095398,48.0231383 96.9495751,47.7252938 C96.0896104,47.4256184 95.3254686,46.9342972 94.6583704,46.2501096 C93.9912722,45.5653116 93.4553964,44.6699473 93.0519637,43.5634065 C92.648531,42.4574761 92.4465095,41.1061902 92.4465095,39.5077178 C92.4465095,38.2784993 92.5697975,36.9620026 92.815153,35.5563967 C93.0611187,34.1520115 93.4383069,32.7476263 93.9473279,31.3432411 C94.4563489,29.9388559 95.0929303,28.5906217 95.8564617,27.3009798 C96.6206035,26.0107276 97.5159678,24.8687873 98.5431648,23.8769898 C99.5697514,22.8851924 100.733664,22.0948061 102.033071,21.5070517 C103.331868,20.9186869 104.762498,20.6238942 106.325571,20.6238942 C107.853244,20.6238942 108.963447,20.88817 109.656789,21.4142805 C110.350132,21.9416115 110.696803,22.5916203 110.696803,23.3630862 L110.696803,23.7579741 L111.277234,20.8875597 C111.277234,20.8875597 116.34242,20.4853477 119.134101,20.0178296 C116.960081,26.9622429 115.123577,37.4466101 114.938645,40.9560473 Z M110.197548,26.0229344 C110.197548,25.8642468 110.162148,25.6677183 110.09257,25.4296869 C110.022381,25.1934865 109.903365,24.9652205 109.736744,24.7454992 C109.569511,24.5263883 109.345518,24.3414562 109.065373,24.1919237 C108.784008,24.0442222 108.423298,23.9691507 107.984466,23.9691507 C107.2307,23.9691507 106.514165,24.2145061 105.837911,24.707048 C105.162268,25.1977589 104.543387,25.8526504 103.980656,26.6686708 C103.419146,27.4853016 102.91928,28.4105723 102.480448,29.446314 C102.041616,30.4832764 101.66809,31.5501453 101.36109,32.6475311 C101.054091,33.7443065 100.821552,34.8246028 100.662865,35.886589 C100.505398,36.9485752 100.426054,37.9019215 100.426054,38.7447967 C100.426054,39.7799281 100.522487,40.5800798 100.715964,41.1415897 C100.908831,41.7030997 101.141369,42.1199598 101.413579,42.3915597 C101.685789,42.6649906 101.979972,42.8267299 102.296126,42.8792189 C102.612281,42.9323182 102.892426,42.9579523 103.139002,42.9579523 C103.543045,42.9579523 103.967839,42.8572467 104.415826,42.6558356 C104.863814,42.4544244 105.293491,42.1559696 105.706689,41.759861 C106.118056,41.3655834 106.495855,40.8687691 106.838864,40.2718596 C107.181263,39.6743398 107.439435,38.9809971 107.614602,38.1918315 L110.197548,26.0229344 Z"/>
    <path d="M152.716668,38.1900005 C152.206426,39.6480953 151.653461,40.9023377 151.056552,41.9563895 C150.459642,43.009831 149.84015,43.8923781 149.199907,44.6034206 C148.559053,45.3144631 147.904772,45.8851281 147.237674,46.3154156 C146.569965,46.7457031 145.920567,47.0752851 145.288868,47.3029407 C144.657169,47.5312067 144.051715,47.6807393 143.471895,47.7497073 C142.892075,47.8198961 142.365964,47.8559059 141.891122,47.8559059 C140.398849,47.8559059 139.195875,47.46468 138.283421,46.6834488 C137.370357,45.9034382 136.808847,44.7474601 136.59706,43.2197869 C136.193017,43.8350065 135.732823,44.4361883 135.214647,45.0239427 C134.696471,45.6129178 134.108106,46.1390282 133.449553,46.6047153 C132.790999,47.0704024 132.057985,47.4482009 131.250509,47.7375006 C130.443033,48.0261899 129.564148,48.1714501 128.616905,48.1714501 C127.686141,48.1714501 126.790777,48.0219176 125.930812,47.7240732 C125.070237,47.4256184 124.306706,46.9330766 123.639608,46.2488889 C122.971289,45.5640909 122.436023,44.6687267 122.033201,43.5634065 C121.629768,42.4568657 121.427136,41.1049695 121.427136,39.5071075 C121.427136,38.2791097 121.550425,36.9613923 121.79578,35.5570071 C122.041746,34.1526219 122.418934,32.747016 122.927955,31.3426308 C123.436976,29.9382456 124.073557,28.5906217 124.837089,27.3003695 C125.60062,26.0107276 126.497205,24.8693976 127.523181,23.8776002 C128.550378,22.8858027 129.714291,22.0954164 131.013088,21.5064413 C132.312495,20.9180766 133.743125,20.6245045 135.306198,20.6245045 C136.833871,20.6245045 137.942853,20.8875597 138.637416,21.4148908 C139.330759,21.9416115 139.67743,22.59101 139.67743,23.3624758 L139.67743,23.5742627 L142.519159,10.1676024 C142.519159,10.1676024 146.588885,9.6646848 150.749552,9.01650701 C146.945322,19.8127564 144.101763,39.2178078 144.101763,39.2178078 C144.013264,39.5168729 143.95223,39.8098346 143.916831,40.0997446 C143.881431,40.3896547 143.864342,40.6740716 143.864342,40.9548266 C143.864342,41.7104237 144.044391,42.2322618 144.40449,42.5221718 C144.764588,42.8120818 145.321216,42.9567317 146.076813,42.9567317 C146.602923,42.9567317 147.090582,42.8383263 147.53918,42.6015156 C147.986557,42.3647049 148.38999,42.0351229 148.749478,41.6133801 C149.109577,41.192858 149.430004,40.6881094 149.710759,40.0997446 C149.991514,39.5113799 150.23809,38.8741881 150.448046,38.1900005 L152.716668,38.1900005 Z M136.545181,38.1900005 L139.178175,25.8386126 C139.143386,25.6805354 139.086624,25.4956033 139.007281,25.2850371 C138.928547,25.0750812 138.810142,24.8687873 138.652064,24.6667658 C138.493987,24.4653546 138.278538,24.297512 138.006938,24.1662895 C137.734728,24.0344568 137.387446,23.9685404 136.966314,23.9685404 C136.211327,23.9685404 135.496012,24.2151165 134.819759,24.7064377 C134.143506,25.1983692 133.525234,25.85204 132.962504,26.6680605 C132.400994,27.4853016 131.901128,28.4111827 131.461685,29.4469244 C131.022853,30.4826661 130.649937,31.549535 130.342328,32.6475311 C130.034718,33.7449168 129.8034,34.8239925 129.644102,35.8871993 C129.486025,36.9491856 129.407291,37.9013111 129.407291,38.7441864 C129.407291,39.7805384 129.503725,40.5794694 129.697201,41.1409794 C129.890068,41.70371 130.122606,42.1199598 130.394817,42.39217 C130.667637,42.6643803 130.96182,42.8273402 131.277974,42.8798292 C131.594129,42.9329285 131.874273,42.9585627 132.120849,42.9585627 C132.489493,42.9585627 132.896587,42.8664018 133.345185,42.6814697 C133.792562,42.4977583 134.22285,42.2212757 134.636048,41.8520219 C135.047415,41.4839887 135.425213,41.0195223 135.767612,40.4567917 C136.110622,39.8946714 136.368794,39.2373386 136.543961,38.4823518 L136.543961,38.1900005 L136.545181,38.1900005 Z"/>
    <path d="M176.990377,30.1842114 C176.05351,31.3786407 173.64451,32.3704381 171.511993,31.8431071 C171.301427,34.3363333 170.823533,36.5842041 170.077091,38.5854988 C169.330038,40.5867935 168.385847,42.2896334 167.245128,43.6940186 C166.103798,45.1002348 164.795846,46.1793105 163.321272,46.9342972 C161.846087,47.689284 160.282404,48.0664722 158.632664,48.0664722 C157.385745,48.0664722 156.230988,47.9126673 155.169612,47.6050575 C154.106405,47.298058 153.194562,46.8067368 152.43103,46.1304835 C151.666278,45.4554509 151.069979,44.5765658 150.639691,43.4974901 C150.209404,42.4171938 149.994565,41.1049695 149.994565,39.5602068 C149.994565,38.506155 150.103816,37.3080636 150.323537,35.9647121 C150.542648,34.621971 150.893592,33.2383372 151.377589,31.8168626 C151.860365,30.3941673 152.483519,29.0038198 153.24644,27.6421582 C154.010582,26.2823276 154.940125,25.0659261 156.038121,23.9947849 C157.135507,22.9242539 158.403177,22.0594066 159.842962,21.400853 C161.282746,20.7429099 162.925773,20.4133279 164.76838,20.4133279 C169.384969,20.4133279 171.695094,23.2837424 171.695094,29.0245713 C171.695094,29.0245713 171.684718,29.0685155 171.695094,29.0776706 C173.244739,31.0106075 176.36295,29.0264023 177.480477,27.8319729 M167.035782,32.0011843 C166.473662,31.8614172 166.091591,31.5843242 165.89018,31.1723468 C165.688158,30.7597591 165.586842,30.2812549 165.586842,29.7362241 C165.586842,28.982458 165.740647,28.3623557 166.048257,27.8795792 C166.355256,27.3968027 166.762961,27.0409763 167.272593,26.8127103 C167.237193,26.2341109 167.17677,25.7470621 167.088271,25.3509535 C166.999772,24.9560655 166.877705,24.6313662 166.719627,24.3768558 C166.56094,24.1223453 166.363191,23.9422959 166.12638,23.8360973 C165.889569,23.730509 165.586232,23.67802 165.217588,23.67802 C164.5688,23.67802 163.944426,23.9282581 163.348126,24.4293447 C162.751217,24.9286003 162.185435,25.5914262 161.649559,26.417212 C161.114293,27.2423875 160.622362,28.1865787 160.174985,29.2485649 C159.727608,30.3105511 159.346147,31.4030541 159.029383,32.5272947 C158.712618,33.6515353 158.467262,34.7617381 158.292096,35.8585135 C158.116319,36.9565096 158.02843,37.9531898 158.02843,38.848554 C158.02843,39.7439182 158.076036,40.4726605 158.17369,41.0341704 C158.268903,41.5962907 158.42759,42.038785 158.646701,42.3640945 C158.865812,42.6894041 159.15145,42.9127874 159.503004,43.0354651 C159.853948,43.1587532 160.283014,43.2203972 160.793256,43.2203972 C161.442044,43.2203972 162.096936,42.9304872 162.755489,42.3506671 C163.413432,41.7720677 164.023769,40.9822918 164.585279,39.9801186 C165.1474,38.9797764 165.642993,37.7945022 166.073281,36.4249062 C166.504179,35.0565308 166.824605,33.5813465 167.035782,32.0011843"/>
    <path d="M191.454141 39.0371481C191.454141 39.0371481 191.151414 42.3427327 188.929177 44.5112597 186.768584 46.6199737 183.95371 48.1726708 180.136663 48.1726708 179.16989 48.1726708 178.344714 48.0182556 177.659916 47.7112561 176.975118 47.4036463 176.417881 46.9782415 175.988204 46.4332106 175.557916 45.8900108 175.241762 45.2448847 175.03913 44.4978323 174.837719 43.7513903 174.737013 42.9481869 174.737013 42.0882222 174.737013 41.1580688 174.841991 40.2004502 175.052557 39.2178078L178.502792 23.047542 176.712063 23.047542 177.15944 20.8875597 178.924534 20.8875597 180.557186 13.4347358C180.557186 13.4347358 187.679817 10.3671826 189.791583 7.73357885 189.530969 8.69791115 188.361564 13.0868438 188.273675 13.4994315 188.185787 13.9126296 188.098508 14.3477998 188.01062 14.8037215 187.817143 15.5580979 187.610849 16.4589552 187.391738 17.5038519 187.171407 18.5481384 186.939479 19.6754306 186.692902 20.8875597L192.708383 20.8875597 192.28725 23.047542 186.27177 23.047542 182.822146 39.2178078C182.733647 39.5687515 182.668341 39.9074885 182.624397 40.2309671 182.580452 40.5556663 182.559091 40.8510694 182.559091 41.1129039 182.559091 41.6750242 182.686651 42.1413216 182.940551 42.5087444 183.195672 42.8779982 183.691266 43.0623199 184.428553 43.0623199 187.700569 43.0629303 191.454141 39.0371481 191.454141 39.0371481M203.223267 43.7025633C203.223267 46.1713761 201.223193 48.1720605 198.75377 48.1720605 196.285568 48.1720605 194.284273 46.1713761 194.284273 43.7025633 194.284273 41.2343609 196.285568 39.2342869 198.75377 39.2342869 201.222583 39.2336766 203.223267 41.2343609 203.223267 43.7025633"/>
  </g>
</svg>
