<svg xmlns="http://www.w3.org/2000/svg" width="259" height="106" viewBox="0 0 259 106">
  <g fill-rule="evenodd">
    <path d="M255.010799,17.3529948 C253.180891,17.3529948 251.766162,15.9410155 251.766162,13.9896625 C251.766162,12.0808756 253.180891,10.6470052 255.010799,10.6470052 C256.819109,10.6470052 258.233838,12.0808756 258.233838,13.9896625 C258.233838,15.9410155 256.819109,17.3529948 255.010799,17.3529948 Z M255.010799,10 C252.840708,10 251,11.6923077 251,13.9896625 C251,16.3076923 252.840708,18 255.010799,18 C257.159892,18 259,16.3076923 259,13.9896625 C259,11.6923077 257.159892,10 255.010799,10 L255.010799,10 Z"/>
    <path d="M253.607161 12.7570487L253.607161 11.5048748 254.42657 11.5048748C255.116762 11.5048748 255.300986 11.7198946 255.300986 12.1030303 255.300986 12.542029 255.061235 12.7570487 254.325376 12.7570487L253.607161 12.7570487zM255.908147 12.140448C255.908147 11.3557312 255.447846 11 254.5096 11L253 11 253 15 253.607161 15 253.607161 13.2613966 254.288531 13.2613966 255.337312 15 256 15 254.87753 13.2429513C255.466528 13.168643 255.908147 12.8603426 255.908147 12.140448L255.908147 12.140448zM36.9560224 77.7780042C36.1351121 77.1506083 35.3081834 76.5323226 34.4692178 75.9359017 33.2908143 75.0971469 32.1768077 74.3822921 31.1259943 73.7919447 30.0757828 73.2015973 29.1014032 72.6908132 28.2028554 72.2601997 28.0030444 72.1642379 27.812261 72.0761717 27.6250886 71.9917496 28.2877149 71.729373 28.9954793 71.4536346 29.7712516 71.1572462 31.5677452 70.4727591 33.3564149 69.7512234 35.1378625 68.9926391 36.9193101 68.2340549 38.8945504 67.3661471 41.0635832 66.3901304 41.3632998 66.255298 41.6684328 66.1131773 41.9717604 65.9740934 40.6513225 69.142048 39.3916706 72.1217232 38.2000265 74.8912541 37.7901732 75.8441914 37.3743015 76.8086684 36.9560224 77.7780042zM68.4990803 79.7664788C68.0711718 79.945648 67.8208062 80.0519348 67.7491871 80.0847319 67.6769663 80.1169216 67.5668295 80.0422172 67.4175731 79.8606185 67.2683167 79.6796273 67.0865608 79.4476183 66.8729075 79.165199 66.6586523 78.8827798 66.5912462 78.3191559 66.6700873 77.4749349 66.7489284 76.6301065 66.9998958 75.719684 67.4223878 74.7436672 67.8454816 73.7676505 68.3510276 72.896706 68.9396275 72.1302261 69.5282274 71.3643537 69.5234127 70.6962651 68.9245815 70.1247456 68.3257503 69.5544409 67.8232135 69.466982 67.4181749 69.8641911 67.3790553 69.901847 67.3399357 69.9455764 67.3014179 69.9862691 67.2899829 69.9832323 67.2815571 69.9789809 67.2695203 69.9759441 66.4961554 69.7736954 66.0447751 70.146003 65.9147776 71.0928667 65.8744543 71.3922919 65.8166776 71.6990053 65.7516788 72.0105775 65.4357126 72.470344 65.1016912 72.9537972 64.7309575 73.4858386 64.1923103 74.2589993 63.6422282 75.0461292 63.0807111 75.8472281 62.519194 76.6483271 61.8066149 77.5186643 60.9423721 78.4576325 60.0781292 79.3966006 59.1031478 80.2918394 58.0168258 81.1445634 56.9305039 81.99668 55.9013568 82.7218598 54.9287827 83.3194954 53.9562086 83.9165237 52.928867 84.3076592 51.8461561 84.4904725 50.7628433 84.6732858 49.685549 84.6690344 48.6142731 84.4777181 47.5429971 84.2864018 46.3615844 83.9019472 45.0706367 83.3243542 43.779689 82.7461539 42.5567493 82.0300844 41.4012157 81.1743237 40.2456821 80.3185629 39.0961669 79.4409374 37.9526701 78.5420546 37.8533665 78.4643134 37.7528591 78.3902163 37.6541573 78.3130824 38.1031302 77.2538583 38.5563161 76.1915974 38.9908448 75.1499866 40.2414692 72.1514835 41.5919991 68.9252229 43.0370179 65.4809225 44.6005993 64.7478471 46.2099206 63.961932 47.8722038 63.1152816 50.2422514 61.9084706 52.8704885 60.5133801 55.7575169 58.9312249 58.6439435 57.3478549 61.6958763 55.6077878 64.9127133 53.7092015 68.1295503 51.8100078 71.2181953 49.92782 74.1780464 48.0614234 77.1378976 46.1944195 79.8949285 44.42277 82.4491392 42.746475 85.0033499 41.0695726 87.2602515 39.5171776 89.219242 38.0886827 91.1788344 36.6607952 92.9590784 35.262668 94.5605757 33.8955158 96.1614712 32.5289709 97.6305637 31.2043334 98.9660475 29.9216033 100.302133 28.6394806 101.357159 27.4423873 102.130524 26.3303234 102.904491 25.2182596 103.451564 24.1310973 103.771743 23.0676217 104.091922 22.0047535 104.075071 20.9765044 103.722392 19.9840891 103.369112 18.9910665 102.571072 18.1237661 101.328271 17.3821877 100.085471 16.6406094 98.5273059 16.060587 96.6537767 15.6415133 94.7802475 15.2230469 92.5889465 14.8477025 90.0804757 14.5148729 87.5720048 14.1820434 84.9642303 14.0107697 82.257754 14.0004447 79.5512776 13.9901197 76.7358682 14.1595713 73.8133311 14.5094068 70.8907941 14.8598496 67.953211 15.398572 65.000582 16.1255738 62.0479529 16.853183 59.1579152 17.7065144 56.3298671 18.6849605 53.501819 19.664014 50.7255292 20.7444954 48.0009977 21.9264049 45.2758643 23.1089217 42.5669806 24.388615 39.8731429 25.7648776 37.179907 27.1411401 34.525189 28.6151864 31.9089887 30.1864094 29.2927884 31.7576323 26.7795029 33.3719773 24.369132 35.0294443 21.9581593 36.6875187 19.6994522 38.3419491 17.5930108 39.9933426 15.4865694 41.6453435 13.6118365 43.2092782 11.9676085 44.6863613 10.3233805 46.1634445 8.87294506 47.5445658 7.61570043 48.8303327 6.35845581 50.1160995 5.31004981 51.2828252 4.47108428 52.3305096 3.6315169 53.3788013 2.89305871 54.4574607 2.25510787 55.5677025 1.6165552 56.6779443 1.14110127 57.6976904.827542415 58.628763.51398356 59.5586208.278663958 60.3244933.122185451 60.9263804-.0348948968 61.5276601-.0403114605 61.9740648.104732079 62.264987.846199468 63.6193848 1.49859448 63.5920539 2.06131526 62.1823869 2.04326005 61.8829618 2.03603796 61.5130836 2.04085269 61.0727525 2.04506557 60.6324214 2.11006434 59.9849828 2.23584898 59.1304368 2.36223547 58.274676 2.67459064 57.3247755 3.17351635 56.2783058 3.67244205 55.2324435 4.30497632 54.1999429 5.07051733 53.1801968 5.83605833 52.1616653 6.82066925 50.9864368 8.02495191 49.6563331 9.22863274 48.3262294 10.6351338 46.910489 12.2444551 45.4091117 13.8537763 43.9077344 15.6984172 42.3182909 17.7795813 40.6419959 19.8601436 38.9650935 22.0971845 37.294872 24.4913056 35.6301167 26.8854268 33.9653614 29.3836663 32.3473723 31.9848206 30.7773641 34.5865767 29.2061412 37.2268506 27.7369536 39.906846 26.3691941 42.5868413 25.0014345 45.2818827 23.7314588 47.9919701 22.5586596 50.7026593 21.3864678 53.4626994 20.3132746 56.2726923 19.33908 59.0826852 18.3648853 61.9522603 17.5151981 64.8796121 16.791233 67.8075657 16.0666606 70.7174641 15.5346191 73.6093072 15.1951086 76.5011504 14.8555981 79.2792458 14.7001157 81.9435933 14.7292687 84.6085426 14.7584216 87.1777994 14.9454864 89.6525671 15.2898557 92.1273349 15.6348324 94.2446095 16.0460105 96.003789 16.5221755 97.7629685 16.9983405 99.1243316 17.5862584 100.087878 18.2865367 101.051425 18.9868151 101.548545 19.6488301 101.579239 20.2737966 101.609932 20.8987632 101.534101 21.665243 101.351141 22.5738435 101.168182 23.482444 100.776985 24.448743 100.178154 25.4721333 99.5787211 26.4955235 98.692812 27.6725742 97.5204269 29.0014631 96.3480417 30.3309594 94.993299 31.6865719 93.4568004 33.0683006 91.9197 34.449422 90.1996401 35.8645551 88.2960188 37.3130926 86.3917958 38.7610228 84.1926709 40.3456075 81.6980424 42.0656319 79.2034139 43.7856564 76.491521 45.590103 73.5629655 47.4783643 70.6338082 49.367233 67.5698387 51.2639972 64.3710569 53.1704791 61.1716733 55.0763537 58.1215461 56.8073105 55.2200734 58.3651716 52.3192026 59.9218181 49.6680956 61.27986 47.2685579 62.4380827 46.0113133 63.0448286 44.7859662 63.6205995 43.5883038 64.1690395 44.9568889 60.9160554 46.3032059 57.7450639 47.6266529 54.6663902 49.0776902 51.2901134 50.6105777 47.8694998 52.2247137 44.4045494 53.8394515 40.9389916 55.2435452 38.0485974 56.4375966 35.7327594 57.631648 33.4169214 58.6668135 31.5565983 59.5424913 30.1517902 60.4181691 28.7475895 61.0464905 27.7509227 61.4274554 27.1617901 61.8078186 26.5732648 61.9931854 26.0861674 61.9823523 25.7029275 61.4136131 24.0023384 60.3615961 23.6701161 58.8275049 24.7056535 58.6138515 25.0239066 58.430892 25.4885318 58.2804319 26.1013513 58.12937 26.7135634 57.8176166 27.7940448 57.3451719 29.343403 56.8721254 30.8927612 56.1264451 32.8599784 55.1075293 35.2462694 54.0892153 37.6319531 52.8259523 40.5788311 51.318342 44.087511 49.8107318 47.5961908 48.3259915 51.0380618 46.864723 54.4143386 45.4323428 57.7225919 43.9849166 61.1359173 42.5236481 64.651278 41.8044488 64.9756046 41.0918697 65.2920357 40.3949385 65.5938902 38.2126652 66.5401466 36.2133513 67.3631103 34.396997 68.0652107 32.5806426 68.7667037 30.7751214 69.4572644 28.9816369 70.1375001 27.7930021 70.5875488 26.7307538 70.9665373 25.7726239 71.2866124 25.2086994 71.1244491 24.7428749 71.050352 24.3847799 71.0722167 23.9965928 71.0959035 23.5915542 71.1250565 23.1690622 71.1584609 22.7465703 71.1924727 22.3114396 71.3139433 21.8630685 71.5228729 21.4146974 71.7324097 21.0939165 71.9960011 20.9001239 72.3142542 20.839338 72.4138601 20.8080423 72.5341161 20.7911908 72.6640897 20.4872613 72.8250383 20.386754 73.0643355 20.4999 73.38684 20.6684153 73.8648271 20.884476 74.0907625 21.1480821 74.065861 21.1565079 74.0646463 21.1655355 74.0628242 21.1733594 74.0616095 21.4490023 74.4023347 21.8690869 74.4484936 22.4378261 74.1915831 22.8687439 73.9960154 23.3941505 73.7646138 23.9929818 73.5052739 24.16571 73.5228872 24.3462621 73.5411078 24.5412584 73.5605431 25.0793037 73.6145975 25.8207711 73.7712947 26.7662624 74.0306345 27.7111518 74.289367 28.7047903 74.6719996 29.7477798 75.1773175 30.7907692 75.6826354 31.9144053 76.3167122 33.1186879 77.0783332 34.2104264 77.7695012 35.2666564 78.5177605 36.2952016 79.3085344 35.5687803 80.990903 34.8309239 82.6945289 34.0810308 84.4230563 32.6655021 87.683936 31.3902023 90.5937655 30.2539276 93.1531522 29.1176529 95.7125389 28.1757726 97.9196607 27.4288887 99.7739102 26.6814029 101.627552 26.0958122 103.150187 25.6715147 104.339992 25.7503558 106.422606 26.3202986 106.545292 27.3831488 104.70987 27.5937929 103.506703 28.0090628 101.973136 28.6283566 100.107347 29.2482522 98.2415579 30.0914307 96.0216817 31.15729 93.4465038 32.2243531 90.8707186 33.4719683 87.9548156 34.9019411 84.6969726 35.6199367 83.0613703 36.3210808 81.4452032 37.0047715 79.8466494 38.0158634 80.6325645 39.0546399 81.4196944 40.1337398 82.2080389 41.3488556 83.0965968 42.6385996 83.8485001 44.0035736 84.4643563 45.3679459 85.0796052 46.6354218 85.5339054 47.8053995 85.8272571 48.9753773 86.1206087 50.2019281 86.150369 51.4856537 85.9171453 52.7693793 85.6839217 53.9538012 85.2369097 55.0401231 84.5748946 56.1264451 83.9128796 57.2260075 83.1214982 58.3376068 82.1983213 59.4498078 81.276359 60.4645108 80.3301026 61.3817156 79.3613742 62.2995222 78.3926457 63.0686743 77.5210937 63.6891717 76.746111 64.0695349 76.2717681 64.4300373 75.8004619 64.7815121 75.3303705 64.5997563 75.9705209 64.449898 76.6015609 64.3421686 77.2192392 64.1664312 78.2244088 64.0978214 79.0522313 64.1363391 79.7045288 64.1748569 80.3568262 64.3993434 80.9277382 64.8110022 81.4196944 65.2220592 81.9110432 65.7944095 82.1849595 66.5292566 82.2402287 67.2641038 82.2954978 67.9140914 82.168561 68.4792196 81.8594182 70.0145145 80.3367835 70.0211347 79.6383272 68.4990803 79.7664788L68.4990803 79.7664788z"/>
    <path d="M72.7108131 64.3668498C72.4410131 63.7707402 72.227758 63.901043 72.0714516 64.7582712 71.9749214 64.9875836 71.9761331 65.2333121 72.0754906 65.4959697 72.6231685 66.3198527 72.9313383 66.1336326 73 64.9378223 72.9466862 64.6361765 72.850156 64.4458523 72.7108131 64.3668498M89.25156 68.8052385C89.1891764 68.9960605 89.141646 69.1645394 89.1030276 69.3209409 88.3027353 70.547395 87.5089784 71.7273512 86.7235393 72.8547711 85.583405 74.490647 84.5312018 75.8801451 83.5657415 77.0220578 82.6002812 78.1645743 81.7993948 79.0407854 81.162488 79.6518989 80.5255813 80.2624085 79.9266988 80.7159127 79.3658407 81.0124114 78.8049825 81.3083063 78.2892782 81.5021476 77.8205101 81.5933316 77.3511478 81.6857232 76.9447633 81.7032354 76.6001683 81.6476796 76.2555732 81.5921238 76.070799 81.5969548 76.0446573 81.663984 76.0191097 81.7304094 75.9418729 81.613863 75.8129468 81.3137411 75.6840207 81.0136192 75.6436199 80.4798007 75.6923385 79.7128895 75.740463 78.9459783 76.0107919 77.9822064 76.502731 76.8221778 76.9946702 75.6621491 77.6256356 74.5286906 78.3962215 73.4224061 79.1662132 72.3161216 80.0770136 71.3155139 81.1298109 70.4205829 82.1820141 69.5256519 83.1712396 68.8324125 84.0986756 68.3402608 85.0255175 67.848713 85.909582 67.5467795 86.7514634 67.4356679 87.5927506 67.3245564 88.2041098 67.3076481 88.586135 67.385547 88.9681602 67.4640497 89.219477 67.5648955 89.3400852 67.689896 89.4606935 67.8142926 89.5141652 67.9139306 89.5005002 67.9888102 89.4868352 68.0636897 89.4042512 68.3354299 89.25156 68.8052385zM91.6637254 78.1017721C90.8188734 78.2974251 90.2871275 78.3529808 90.0684879 78.2678356 89.8498483 78.1826903 89.7090396 77.7460944 89.6454678 76.9598595 89.5818959 76.1736245 89.6127906 75.2774858 89.738152 74.2720471 89.8635133 73.2672123 90.2746508 71.8306125 90.9721587 69.96104 91.6690725 68.0920714 92.5858142 65.9912179 93.7229779 63.6578755 94.6224899 61.8130616 95.6283509 59.8655902 96.7322434 57.8245195 96.8475045 57.6252434 96.9633597 57.4283827 97.079215 57.2285027 98.1254769 55.4126744 99.2091689 53.5509522 100.330291 51.6445438 101.0581 50.4072202 101.755013 49.2375297 102.428756 48.1221872 103.387087 46.6499592 104.315117 45.3039395 105.209876 44.0949976 106.33991 42.5672139 107.336859 41.4059775 108.200723 40.608873 109.063993 39.8123723 109.227973 39.1203406 108.692663 38.5333818 108.321332 38.1257716 107.989807 38.0243219 107.695713 38.2139361 107.586988 38.1565688 107.464003 38.1046362 107.313094 38.0611578 106.512208 37.832896 105.924614 38.2435256 105.550312 39.2942543 105.175416 40.3443792 104.526033 41.685568 103.601568 43.3178207 102.677102 44.9494695 101.629058 46.7622785 100.457435 48.7556437 99.2858116 50.749009 98.0060569 53.0889939 96.6193588 55.7755985 95.2320666 58.4622031 93.9445882 60.9700631 92.7581118 63.2997823 92.6018557 63.605339 92.4586705 63.8970068 92.3089499 64.1947133 91.7974045 65.0467698 91.2692234 65.9054687 90.7279716 66.7696025 90.5669625 66.3933933 90.3180223 66.0636819 89.9621387 65.7919417 89.4244516 65.3807083 88.7893273 65.140973 88.0567657 65.072736 87.3242042 65.0051029 86.4918288 65.122857 85.5608281 65.4278099 84.6292331 65.7327628 83.6631787 66.1977404 82.663853 66.8239506 81.6639332 67.4507646 80.6455954 68.2738354 79.6088396 69.2937669 78.5720838 70.3143023 77.63633 71.4169636 76.8015781 72.6029585 75.9668263 73.7883496 75.2705066 74.9954799 74.7132133 76.2243494 74.1553257 77.4532189 73.7370586 78.5045515 73.4572237 79.3795549 73.1767946 80.2533505 73.0252916 81.0220733 73.0015264 81.6863271 72.9783554 82.3493731 73.2189778 82.9049309 73.7239878 83.3530002 74.2289978 83.8004657 74.8005503 84.0154424 75.4386453 83.999138 76.0773344 83.9828336 76.7374122 83.8801762 77.4188786 83.6917697 78.1009392 83.503967 78.8037943 83.1845213 79.5268498 82.7352442 80.2504994 82.2853632 80.9622664 81.6857232 81.6633391 80.9357203 82.3638177 80.1851135 83.1795574 79.1766555 84.1111523 77.9097424 85.0421531 76.6422254 86.0664322 75.1609395 87.1833955 73.4646768 87.7454419 72.6114126 88.3128355 71.737617 88.8873586 70.842686 88.8867645 70.8438937 88.8867645 70.8444976 88.8867645 70.8457053 88.9087473 71.0920831 88.9443951 71.2883399 88.9877665 71.4628575 88.5671229 72.4592381 88.2207454 73.2907631 87.9498224 73.9562246 87.5238316 75.0021224 87.318857 76.0419815 87.3343044 77.075802 87.3497517 78.1096224 87.7341534 78.9375242 88.4881037 79.5582995 89.2420539 80.1796787 90.1611721 80.2913941 91.2448641 79.8946535 93.1520196 78.6766536 93.29164 78.0788252 91.6637254 78.1017721L91.6637254 78.1017721zM139.344785 32.3630819C138.981485 33.2856858 138.439826 34.4292546 137.719809 35.7925775 137.000391 37.1565057 136.027201 38.8503678 134.801437 40.8753745 133.575074 42.8997758 132.177534 45.0603883 130.608221 47.3553959 129.038907 49.6510089 127.477973 51.8794243 125.924819 54.0394314 124.966592 55.3712744 124.089165 56.5844623 123.290742 57.6796004 123.832999 56.1528241 124.469822 54.5207111 125.210787 52.7711537 126.135497 50.588142 127.097315 48.4693009 128.096242 46.4146305 129.094569 44.3593546 130.210206 42.3609848 131.443153 40.4183102 132.6761 38.476241 133.91982 36.795092 135.176109 35.3760739 136.432398 33.9564503 137.629433 32.8607068 138.767814 32.0882379 139.164033 31.8188424 139.477656 31.5863752 139.717662 31.385388 139.621301 31.6511512 139.498006 31.9744259 139.344785 32.3630819zM130.530413 62.8937656C131.285144 61.5401289 132.018927 60.5091613 132.73236 59.800863 133.267435 59.269942 133.783956 58.8389092 134.28312 58.5071592 134.169402 58.8019808 134.038326 59.1222285 133.885704 59.47214 133.559512 60.2191828 133.063939 61.0758 132.398986 62.0419915 131.734033 63.0075776 131.049328 63.9350247 130.343676 64.8237271 129.903167 65.3788635 129.444104 65.9297622 128.976063 66.4800555 129.306445 65.3619128 129.819973 64.1687026 130.530413 62.8937656zM106.237773 65.7439096C105.888238 66.0629465 105.656013 66.3626111 105.541696 66.6416928 105.427379 66.9207744 105.280144 67.2174122 105.100589 67.5297899 104.961134 67.977168 104.909063 68.3125503 104.927617 68.5577305 104.916245 68.5746812 104.903676 68.5928427 104.892304 68.6097935 104.025052 69.8780712 103.157201 71.0470661 102.286956 72.1161727 101.417909 73.1858848 100.673951 74.0388697 100.055682 74.6751274 99.4374131 75.3113851 98.8137576 75.8059831 98.1847154 76.1589215 97.5556731 76.5118599 97.1510751 76.6777349 96.9709212 76.6559411 96.7901688 76.6341473 96.6525098 76.6977125 96.5579439 76.845426 96.4633781 76.9931395 96.3933515 76.8302914 96.3490612 76.3550657 96.3041724 75.8804453 96.608818 74.9626844 97.2623994 73.601783 97.9165794 72.2402763 98.7981961 70.8018859 99.9084466 69.2866118 101.018099 67.7707324 102.21274 66.51093 103.491174 65.5078101 104.769608 64.5052956 105.741601 63.938657 106.407153 63.806078 107.072106 63.6734991 107.447377 63.6099339 107.533564 63.6135662 107.562891 63.614777 107.576657 63.6129608 107.593415 63.61175 107.562891 63.6565484 107.518002 63.764912 107.456953 63.9459216 107.368373 64.2086578 107.230115 64.4937933 107.042779 64.8019333 106.855443 65.1106788 106.586708 65.4248726 106.237773 65.7439096zM139.666788 29.0237883C138.658884 28.8803125 137.719211 29.3858074 136.84717 30.5414839 135.975729 31.6971604 134.952862 33.0374787 133.779767 34.5618335 132.606672 36.0867937 131.425796 37.8526964 130.237738 39.8595416 129.04968 41.8663868 127.950203 43.9071334 126.93811 45.9805708 125.926016 48.0552189 124.960607 50.1922214 124.04248 52.3921839 123.123157 54.5927517 122.317552 56.6068614 121.62387 58.435724 121.23603 59.4600323 120.869139 60.4570984 120.520203 61.4323707 119.890562 62.275064 119.280673 63.0826452 118.697716 63.8442172 117.701184 65.1482125 116.766898 66.3287097 115.895456 67.3869195 115.024014 68.4451292 114.16155 69.438563 113.307465 70.3672208 112.453979 71.2958786 111.716006 72.0429214 111.094146 72.6101654 110.471688 73.176804 109.874367 73.6647429 109.302782 74.0739819 108.730599 74.4826155 108.200911 74.7719887 107.713717 74.941496 107.225925 75.112214 106.972154 75.2562952 106.951206 75.3755557 106.930258 75.4948162 106.876391 75.2320799 106.788409 74.5879522 106.701025 73.9438245 106.76387 73.0472521 106.977541 71.900051 107.190613 70.7522445 107.624538 69.3386748 108.279915 67.6575257 108.934095 65.9769821 109.71576 64.1856533 110.623711 62.282934 111.531064 60.3814255 112.510239 58.4417778 113.560638 56.4645964 114.611037 54.4868096 115.589015 52.6670278 116.495171 51.0034349 117.401327 49.3398419 118.42958 47.655666 119.579333 45.9496962 120.729684 44.2437265 121.751354 42.8670851 122.644941 41.8185615 123.538528 40.7700379 123.909011 39.860147 123.757586 39.0882834 123.663619 38.6082146 123.491844 38.4489988 123.242262 38.6076092 123.109391 38.544044 122.901107 38.5452547 122.605439 38.621533 121.754347 38.8412871 121.039118 39.5580608 120.46095 40.771854 119.882782 41.9862526 119.095731 43.4882083 118.100994 45.2777209 117.105659 47.0672335 116.137856 48.7949971 115.196387 50.4616169 114.254919 52.1282368 113.287115 53.9643639 112.29178 55.969393 111.534655 57.4955639 110.801471 58.9835958 110.079658 60.4522553 109.635558 61.189612 109.187867 61.922731 108.737183 62.651007 108.531293 61.9917447 108.078813 61.557685 107.379146 61.3494332 106.67888 61.1411814 105.879859 61.2604418 104.981484 61.7084254 104.083108 62.1564089 103.063833 63.016053 101.923656 64.2891738 100.78348 65.5610838 99.6654484 66.9934204 98.5689638 68.583762 97.4718806 70.1753143 96.5411854 71.6633461 95.7762797 73.0478574 95.0119724 74.4329741 94.477496 75.5698837 94.173449 76.4597969 93.8694019 77.3497102 93.9651648 78.0144209 94.460139 78.4533237 94.9551132 78.8922265 95.5410622 79.0671822 96.2179858 78.9769801 96.8949095 78.8879888 97.6233056 78.5308128 98.4025758 77.9078735 99.181846 77.2843288 99.9132348 76.6056943 100.594947 75.8731807 101.276658 75.140667 102.036177 74.1883993 102.872905 73.0157721 103.710232 71.8431449 104.562521 70.6039256 105.430372 69.2981141 105.50399 69.1879344 105.581198 69.0668577 105.655415 68.9536511 105.768535 68.9179335 105.893026 68.8676867 106.031882 68.798673 106.150389 68.6782018 106.269494 68.5746812 106.389198 68.4838738 105.910383 69.6449987 105.516559 70.669307 105.209519 71.5543772 104.795943 72.7439551 104.548755 73.8057972 104.467357 74.7405088 104.385958 75.6758258 104.698385 76.3780702 105.404037 76.8490583 106.10969 77.3188357 106.834495 77.3587909 107.577854 76.9665027 108.321213 76.5754251 109.0131 76.1347062 109.653514 75.6449512 110.293928 75.156407 110.947509 74.5825038 111.613061 73.9226361 112.278613 73.2633738 113.025563 72.4188643 113.853912 71.3903183 114.68226 70.3623777 115.533353 69.3059841 116.407189 68.2211375 117.281025 67.1362908 118.208129 65.9212868 119.189698 64.57552 119.338729 64.3702952 119.492548 64.158411 119.645769 63.9483431 119.113686 65.5223393 118.634872 66.9855504 118.213515 68.3313172 117.768817 69.7515461 117.38397 71.0537253 117.059573 72.236644 116.735176 73.4195627 116.586744 74.4051265 116.614276 75.19273 116.642406 75.9815442 117.020669 76.5160976 117.749664 76.7957846 118.478659 77.076077 119.247754 76.9586327 120.055753 76.4446624 120.864351 75.9300867 121.634643 75.3622373 122.366631 74.739298 123.098019 74.1169641 123.82462 73.4861548 124.545235 72.8456595 125.225152 72.2414871 125.869755 71.6318662 126.48563 71.0149808 126.65142 71.8867325 127.09133 72.5611294 127.807756 73.0357498 128.753414 73.6629267 130.155741 73.7997433 132.015336 73.4461996 133.874931 73.0920504 135.908096 72.4497389 138.114831 71.5198703 140.735741 70.1414129 140.758484 69.8393267 138.183661 70.6136117 136.028997 71.4532782 134.134688 71.9248717 132.501931 72.0289976 130.869175 72.1337289 129.779274 72.0986166 129.233425 71.9248717 128.686979 71.7511267 128.415252 71.1293982 128.418244 70.05787 128.418843 69.6268372 128.453557 69.1849075 128.506825 68.7369239 128.571465 68.6570133 128.634309 68.5813404 128.700146 68.498403 129.452483 67.5479514 130.191652 66.6235313 130.916457 65.7245373 131.641861 64.8249379 132.348711 63.8654056 133.037605 62.8459403 133.7259 61.8252643 134.279529 60.9329295 134.698492 60.1665145 135.117454 59.4007048 135.449033 58.637922 135.69263 57.8781661 135.936825 57.1190156 135.629187 56.4833633 134.770314 55.9712091 133.912039 55.4578442 133.195613 55.5450194 132.621036 56.2321293 132.046459 56.9186338 131.408439 57.7068427 130.707575 58.5961505 130.00671 59.4854584 129.343553 60.6762471 128.718102 62.1673058 128.09265 63.6589699 127.555181 65.0259251 127.105096 66.2699875 126.747182 67.2591836 126.533512 68.2732004 126.450916 69.3102218 126.318045 69.4524868 126.186371 69.5917249 126.061281 69.7230931 125.46396 70.3478485 124.80978 70.9701824 124.096946 71.5913055 123.384709 72.2124287 122.682648 72.7948073 121.989564 73.3390467 121.297079 73.8832862 120.660855 74.2677045 120.080891 74.4923017 119.501526 74.7175042 119.230397 74.8676392 119.267505 74.9427067 119.304613 75.0183796 119.217828 74.9136483 119.005953 74.6291183 118.795275 74.3433774 118.792282 73.6435545 118.996377 72.5284387 119.20107 71.4133229 119.486563 70.143229 119.854053 68.7163409 120.221543 67.2894528 120.667438 65.7390665 121.19174 64.0645767 121.604119 62.7484737 122.045825 61.3803077 122.513267 59.9649219 123.595388 58.4466209 124.855268 56.6419737 126.297695 54.5431102 127.816734 52.3328563 129.361508 50.072961 130.93142 47.7652403 132.501333 45.4569143 133.912039 43.295091 135.161744 41.2797705 136.412048 39.2638445 137.431324 37.5935924 138.219572 36.2671979 139.00782 34.9408034 139.630877 33.8178176 140.088144 32.8994513 140.546011 31.9804797 140.841678 31.1408132 140.976345 30.3798466 141.110413 29.6194853 140.674692 29.1678695 139.666788 29.0237883L139.666788 29.0237883zM160.15379 61.5625759C158.3902 62.9004079 156.957283 63.8130327 155.856231 64.2998465 154.754583 64.7872643 153.786991 65.0481868 152.954052 65.0820101 152.120518 65.1164374 151.431764 65.0028878 150.887792 64.7431732 150.34382 64.4822507 149.825467 64.1186503 149.331543 63.6505601 148.837023 63.1830739 148.458685 62.6702887 148.194742 62.1122044 147.930799 61.5541201 147.756228 60.9567766 147.670432 60.318966 147.585231 59.6811554 147.617405 59.0089175 147.765165 58.3010443 147.913521 57.5937751 148.171506 56.88409 148.539119 56.1719889 148.907328 55.4604919 149.380995 54.7804021 149.96012 54.1323237 150.53984 53.4848493 151.235744 52.8567025 152.047829 52.2478832 152.859319 51.639064 153.744689 51.0254129 154.702747 50.4063258 155.660806 49.7878428 156.6564 49.1276847 157.68953 48.4252474 158.72266 47.7234141 159.751024 47.013729 160.77343 46.296192 160.846118 46.2448531 160.915232 46.1953261 160.98792 46.1439872 160.996262 47.0463443 161.014136 47.9933964 161.043331 48.9905795 161.098741 50.8883077 161.183941 52.8446227 161.298932 54.8601285 161.402602 56.6708825 161.473504 58.5480751 161.521764 60.4735867 161.062992 60.8547028 160.607199 61.2189071 160.15379 61.5625759zM161.811922 39.2597396C161.848862 37.7787626 161.882228 36.4499905 161.911422 35.2746311 161.940617 34.0980638 161.962066 33.1322881 161.974578 32.3766999 161.988281 31.6217157 161.995431 31.0666514 161.997814 30.7133188 162.000197 30.3599862 161.991856 30.1745621 161.97279 30.1576504 161.953129 30.1407388 162.052628 30.1135594 162.270694 30.0755082 162.48876 30.0374569 162.805729 29.9166595 163.222199 29.7131157 163.638072 29.508968 164.049775 29.3760908 164.456712 29.3144841 164.864244 29.2522734 165.319441 29.2087863 165.822898 29.1828149 166.326356 29.1574474 166.792277 29.2323418 167.221258 29.4068942 167.65024 29.5820505 168.013682 29.8405571 168.312778 30.1836219 168.611873 30.5260827 168.855558 30.9712214 169.044429 31.5184339 169.232704 32.0656464 169.304797 32.6648019 169.260707 33.3165042 169.216618 33.9676025 169.076007 34.6247408 168.838876 35.2873149 168.601149 35.949889 168.274646 36.5798478 167.857581 37.1771912 167.441707 37.7745347 166.957912 38.3706702 166.40679 38.9649938 165.855668 39.5593173 165.219941 40.1729684 164.498418 40.8047392 163.777491 41.4365099 162.979109 42.1153917 162.102676 42.8413845 161.969811 42.9513102 161.827413 43.0612359 161.692761 43.1711616 161.739234 41.8460133 161.779749 40.5389847 161.811922 39.2597396zM175.686491 44.7028734C174.480577 46.4012858 172.946373 48.3557888 171.08507 50.5663825 169.223767 52.7769761 167.377956 54.8281171 165.545848 56.7198055 164.410834 57.8915409 163.290121 58.9442908 162.181323 59.9040267 162.06514 58.1506515 161.960278 56.4329115 161.874482 54.7755702 161.770812 52.7612725 161.696336 50.8134133 161.652246 48.9313888 161.625434 47.7850208 161.620072 46.7093194 161.630201 45.6885808 162.343978 45.1818354 163.044648 44.6793179 163.716719 44.1864643 164.657499 43.4973147 165.527378 42.8431964 166.326356 42.2253174 167.124738 41.6074383 167.843281 40.9792915 168.4802 40.3420849 169.118309 39.7048782 169.684922 39.0332443 170.18123 38.3265791 170.676942 37.6205179 171.081495 36.8588899 171.39489 36.042903 171.708285 35.2263121 171.90788 34.3855618 171.994272 33.5212559 172.080068 32.65695 172.017509 31.8119717 171.805401 30.987529 171.59389 30.1624823 171.229851 29.4564211 170.713882 28.8681375 170.198508 28.2798538 169.58721 27.8316952 168.879986 27.5248696 168.172763 27.2174401 167.482222 27.0471157 166.810151 27.0138963 166.136889 26.9794691 165.526186 27.0090644 164.978639 27.1020785 164.430496 27.1938846 163.902611 27.3128701 163.394387 27.4566191 162.886163 27.600972 162.469098 27.7972679 162.144383 28.0455067 161.820264 28.2943495 161.486016 28.6579499 161.141639 29.1375158 160.797262 29.6170818 160.657247 30.1359069 160.722786 30.6951992 160.788325 31.2538874 160.859822 31.8747864 160.937873 32.5566881 161.016519 33.2391938 161.063588 34.1608785 161.080271 35.3229501 161.097549 36.4844178 161.092187 37.8017141 161.064184 39.2748393 161.036181 40.7219929 161.012349 42.2096137 160.992091 43.7346817 160.448715 44.1635127 159.892231 44.5929477 159.310722 45.0229867 158.325257 45.7513954 157.3243 46.4622885 156.307853 47.154458 155.290809 47.8466275 154.291044 48.489874 153.308558 49.0841976 152.326071 49.6791251 151.387079 50.2891523 150.492176 50.9136752 149.597273 51.5388021 148.792337 52.210436 148.077964 52.927973 147.363591 53.6461139 146.770166 54.4234456 146.298883 55.2605721 145.827599 56.0970945 145.479647 56.9571725 145.25622 57.839598 145.032792 58.7226275 144.955337 59.5911612 145.02445 60.4470113 145.092968 61.3022574 145.314609 62.1242841 145.688776 62.9112796 146.062943 63.6982751 146.569975 64.3856127 147.209872 64.9726884 147.84977 65.5591601 148.576655 66.0453699 149.389932 66.4295059 150.202613 66.8136418 151.165438 66.9416871 152.276619 66.8130378 153.387204 66.6849925 154.571074 66.2996486 155.82644 65.658214 157.081807 65.0167795 158.597541 63.9453059 160.374239 62.4450014 160.763301 62.1164323 161.154151 61.7733675 161.546788 61.4236588 161.585515 63.4403725 161.583728 65.1134175 161.540234 66.4325258 161.494953 67.8186767 161.418689 68.9445091 161.311444 69.8118349 161.204794 70.6791607 161.237564 71.2541567 161.409752 71.5374268 161.581345 71.8206968 161.703485 72.1021549 161.774386 72.383009 162.193239 73.2726824 162.506038 73.2002039 162.711592 72.1655736 162.691334 71.8653919 162.76581 71.5942016 162.936807 71.3520026 163.106612 71.1098037 163.117932 70.5613832 162.970172 69.7067411 162.823008 68.8514951 162.704442 67.7310986 162.614475 66.3443436 162.523912 64.9575887 162.404155 63.1866979 162.254607 61.0304631 162.248649 60.9501328 162.244478 60.8728224 162.239116 60.7918881 163.412261 59.7137707 164.598514 58.552303 165.79847 57.2875536 167.638919 55.3499622 169.490689 53.2637899 171.353779 51.0296408 173.216869 48.7954916 174.773118 46.8458205 176.021335 45.1812314 177.429824 42.9180909 177.317812 42.7586382 175.686491 44.7028734L175.686491 44.7028734zM219.081826 50.9787102C218.774179 52.0155556 218.392356 52.9731933 217.936965 53.8510279 217.480966 54.728267 216.992743 55.5227252 216.472905 56.2344025 215.952458 56.9448887 215.382155 57.5791451 214.760781 58.1359805 214.140014 58.6928159 213.568496 59.0930227 213.047441 59.337792 212.525778 59.5825614 212.193811 59.7368078 212.050932 59.8023178 211.908052 59.8672323 211.782804 59.7749227 211.67458 59.5236024 211.566357 59.2728775 211.532309 58.7583259 211.571829 57.9799475 211.611349 57.2021646 211.808948 56.2760907 212.163411 55.2035126 212.517874 54.1309345 212.925233 53.0684807 213.38488 52.0161511 213.845135 50.963226 214.328494 49.9817664 214.833741 49.0717723 215.327435 48.1838134 215.717771 47.4405722 216.00961 46.8378798 216.083178 46.8116758 216.155529 46.7872584 216.233961 46.7580766 216.969639 46.2185121 217.535686 45.924908 217.930277 45.8754776 218.324868 45.8266429 218.662307 45.9660006 218.941987 46.2953375 219.221666 46.6240788 219.391298 47.2279623 219.452097 48.1057969 219.512897 48.9842271 219.388866 49.9418649 219.081826 50.9787102zM230.81559 50.6934437C231.039941 49.5041386 231.418724 48.4351338 231.952547 47.4876203 232.485761 46.5401068 232.944192 45.8230696 233.327839 45.3365086 233.711486 44.8499477 234.165661 44.412817 234.69158 44.0251166 235.217499 43.6374163 235.65769 43.3991979 236.011545 43.3104616 236.029785 43.3056972 236.040729 43.3003373 236.057145 43.2955729 236.033433 43.3890736 236.009721 43.4932942 235.986009 43.6112122 235.883865 44.113853 235.70937 44.7278608 235.463738 45.4538312 235.217499 46.179206 234.841148 46.96354 234.334685 47.8068329 233.82883 48.6495303 233.243328 49.5011609 232.576961 50.3611291 231.951331 51.1698804 231.292868 51.923246 230.607046 52.6301589 230.627718 51.9869694 230.69399 51.3413976 230.81559 50.6934437zM203.419785 51.2699321C203.619208 51.6874098 203.756616 52.1846906 203.830792 52.7629656 203.904968 53.3400496 203.908616 54.0308828 203.842952 54.8342742 203.777896 55.6376656 203.65508 56.4636877 203.474505 57.3135316 203.293929 58.1633756 203.08417 58.9262699 202.845226 59.6034055 202.606283 60.2805412 202.291947 60.8570296 201.902828 61.3340618 201.513709 61.811094 201.061358 62.2172563 200.546384 62.5525487 200.031409 62.8884365 199.532242 63.1206994 199.048883 63.2499329 198.565525 63.3785708 198.18431 63.4154946 197.90463 63.3607044 197.625559 63.3059142 197.386008 63.2785191 197.187192 63.2785191 196.988984 63.2785191 196.869209 62.7782605 196.829689 61.778339 196.790169 60.7784175 196.964057 59.5301534 197.352568 58.0335466 197.741079 56.5369398 198.310773 54.9712497 199.061651 53.3358808 199.811922 51.7005118 200.500784 50.5177577 201.12763 49.7870229 201.334958 49.5452313 201.467501 49.3189239 201.539245 49.1051229 201.915596 49.3802651 202.267628 49.6899489 202.588043 50.047872 202.943114 50.4451011 203.220361 50.8524545 203.419785 51.2699321zM249.593623.0345253672C248.684058-.187613242 247.771452.662230715 246.857022 2.58286615 245.941984 4.50409712 244.60378 6.81719729 242.842408 9.52216663 241.07982 12.2277315 239.159153 15.2864551 237.078582 18.6983374 234.998011 22.1108152 233.107136 25.2957946 231.406564 28.2538709 229.705992 31.2119472 228.168364 33.9115567 226.794287 36.3521036 225.419603 38.7932462 224.227926 40.9312558 223.219256 42.7679193 222.210587 44.6039872 221.359997 46.2590092 220.666878 47.7323897 220.565951 47.9467862 220.472927 48.1617782 220.376255 48.3773659 220.376255 48.2213328 220.381119 48.0641087 220.374431 47.9092668 220.322751 46.8009559 220.005376 45.8570157 219.422305 45.0768506 218.839843 44.2972811 218.043973 43.9405491 217.034695 44.0066547 216.345833 44.0525117 215.713515 44.2603572 215.1347 44.6218536 214.726125 44.3580268 214.306606 44.2609528 213.875535 44.3383738 213.269969 44.4467631 212.634002 44.6117293 211.968244 44.8332724 211.303093 45.0548154 210.580791 45.2972026 209.802553 45.5604339 209.024923 45.8242607 208.219325 46.0791543 207.386975 46.3257103 206.555233 46.5722663 205.623171 46.6681492 204.590182 46.6127634 203.5578 46.5579732 202.707818 46.4340997 202.040844 46.2405473 201.44683 46.0690301 200.964079 46.1994546 200.590768 46.6282476 200.411408 46.5782218 200.231441 46.5401068 200.050865 46.5246226 199.47205 46.4757879 199.222771 46.8003604 199.303027 47.4983401 199.306067 47.5251397 199.313971 47.5477705 199.318227 47.5733789 198.611124 47.4453366 198.183094 47.8401835 198.038998 48.7650662 197.899158 49.6667227 197.613399 50.9376175 197.185976 52.5676266 196.750649 53.3477917 196.237498 54.1821514 195.636796 55.0772569 194.899294 56.1766346 194.119232 57.247426 193.297218 58.2896313 192.475812 59.3324321 191.572934 60.3210383 190.589192 61.2566408 189.606059 62.1922434 188.638125 62.9741951 187.687215 63.602496 186.73509 64.2302014 185.846196 64.6530389 185.019926 64.8716043 184.193656 65.0889785 183.525465 65.1592529 183.015963 65.0830231 182.50646 65.0061976 182.066877 64.8495691 181.695998 64.6131374 181.325119 64.3767057 181.013824 63.8776382 180.762112 63.1159351 180.510401 62.3548274 180.68368 60.8772781 181.281343 58.6832871 181.879006 56.4892962 182.746011 53.9486975 183.882361 51.0591089 185.01871 48.1701159 186.490066 44.9839455 188.297646 41.5000021 190.104617 38.0160588 191.948069 34.7459164 193.826784 31.6889795 195.706108 28.6320425 197.691831 25.6614597 199.783346 22.7772311 201.876076 19.8930024 203.80708 17.4274425 205.577571 15.3799558 207.348063 13.3330647 208.941627 11.6869759 210.358264 10.4428805 211.7749 9.19878522 212.988465 8.34119917 213.998351 7.87131348 215.008236 7.40083224 215.878282 7.25671014 216.608488 7.43954272 217.338695 7.6223753 217.939397 8.06010152 218.409988 8.75391246 218.880579 9.44712785 219.102498 10.4565781 219.073922 11.7804766 219.044738 13.1049706 218.802147 14.4187448 218.344932 15.7223947 217.887717 17.0260446 217.228039 18.4112843 216.365289 19.8787093 215.503147 21.3455388 214.597837 22.6509753 213.649968 23.7938279 212.702098 24.9372759 211.924468 25.827617 211.315253 26.4648511 210.706647 27.1026807 210.225112 27.6267611 209.871257 28.0376877 209.246234 29.7516688 209.666969 30.2459718 211.134678 29.5211925 211.499477 29.1459986 211.932372 28.5718924 212.433971 27.7976828 212.935569 27.0234731 213.613488 25.9907966 214.468334 24.6990576 215.322572 23.4073186 216.171945 21.990515 217.018887 20.4498378 217.865221 18.9091606 218.539492 17.4429267 219.042306 16.0517316 219.545121 14.6599409 219.811424 13.2169332 219.841216 11.7221131 219.869792 10.2278885 219.573089 8.95639805 218.949283 7.91002396 218.325476 6.86245877 217.439014 6.18591866 216.291113 5.87861699 215.142604 5.57191087 213.966127 5.7475969 212.761682 6.40686618 211.557237 7.06553991 210.296856 8.09226099 208.980539 9.48583833 207.664222 10.8800112 206.168546 12.6416359 204.492902 14.772499 202.817258 16.9027666 200.965295 19.433241 198.937012 22.3633267 196.909337 25.2940079 194.952797 28.294368 193.068002 31.3650025 191.183815 34.435637 189.345227 37.7230502 187.552848 41.2272421 185.760468 44.7320296 184.262968 47.9289198 183.059739 50.8179128 181.857118 53.7075014 180.90256 56.2588199 180.196066 58.4724639 179.488963 60.6855124 179.096196 62.3369611 179.015941 63.4256189 178.936293 64.5142768 179.155172 65.354592 179.671363 65.9465646 180.18877 66.5385372 180.9056 66.880976 181.822462 66.9726901 182.739323 67.0649997 183.723673 66.9232598 184.776118 66.5480659 185.827956 66.172872 186.877361 65.607699 187.922511 64.8525468 188.96766 64.0979902 189.998218 63.2142001 191.013575 62.2023677 192.028325 61.1905353 192.964034 60.1477344 193.820096 59.0733697 194.67555 57.9996005 195.481756 56.8990317 196.239322 55.7722589 196.28249 55.7091311 196.320794 55.6489809 196.362746 55.5864486 196.156635 56.3177789 195.951131 57.0318384 195.745628 57.7214806 195.288413 59.25918 194.991709 60.6063048 194.856734 61.7634504 194.72115 62.9200005 194.813566 63.8270168 195.133373 64.4827128 195.452572 65.1390044 195.948091 65.5034784 196.617497 65.576135 197.287512 65.6493872 198.000086 65.5439756 198.754612 65.2610913 199.509138 64.9776114 200.216849 64.6065864 200.877743 64.1486116 201.538029 63.6900413 202.13326 63.1266549 202.662827 62.4578569 203.191785 61.7896544 203.596104 61.0392666 203.875784 60.207289 204.154855 59.3747159 204.378598 58.5040278 204.546406 57.5952248 204.714822 56.6858263 204.840677 55.7925075 204.923973 54.9134818 205.007877 54.0350516 205.025509 53.2203449 204.977477 52.4699571 204.929445 51.7195693 204.765285 51.0150385 204.483782 50.3557692 204.202279 49.6970955 203.822888 49.1069095 203.346825 48.5858069 203.262921 48.4940928 203.169897 48.4142897 203.082346 48.3261489 203.351081 48.3124514 203.626504 48.2993493 203.910439 48.2862473 205.088133 48.2308616 206.14605 48.0962682 207.0848 47.8818717 208.023549 47.6674752 208.870491 47.4518876 209.624409 47.2339178 210.378328 47.015948 211.089078 46.815249 211.75666 46.633012 212.050932 46.5526133 212.300819 46.4817433 212.520306 46.4174244 212.498418 46.8640838 212.390803 47.4917891 212.184691 48.3231712 211.947572 49.2796178 211.628373 50.3003835 211.225878 51.3866591 210.823383 52.4723393 210.437303 53.5782679 210.068248 54.7026585 209.699193 55.8276447 209.412218 56.8376905 209.206715 57.7327959 209.001819 58.6284969 208.990875 59.4807231 209.173275 60.2900699 209.355066 61.0994167 209.877945 61.5556049 210.740087 61.6598254 211.602837 61.7634504 212.404787 61.5913376 213.146545 61.1434871 213.887695 60.6950411 214.603917 60.1227215 215.29582 59.4265284 215.987722 58.7303353 216.620648 57.9841163 217.195207 57.188467 217.460902 56.8210152 217.714438 56.4321237 217.958853 56.026557 217.944261 56.1135067 217.925413 56.2052208 217.913253 56.2903838 217.735718 57.4898132 217.685254 58.5087922 217.761254 59.3467252 217.837253 60.1846583 218.126661 60.876087 218.630083 61.4186293 219.133506 61.9617672 219.725697 62.1773548 220.407263 62.0671788 221.089437 61.9558117 221.679196 61.7533261 222.176539 61.4591264 222.675097 61.1655223 223.177304 60.8201057 223.683767 60.4228766 224.19023 60.0256475 224.701557 59.6081699 225.217139 59.1692526 225.732722 58.7309308 226.298769 58.2568763 226.914063 57.7488757 227.529966 57.2402795 228.183564 56.669151 228.874858 56.0348947 228.916202 55.9967797 228.958762 55.9550915 229.000106 55.9169766 229.226889 56.604832 229.544873 57.2271775 229.978984 57.7637643 230.71527 58.6737584 231.814531 59.2359537 233.275551 59.4491591 234.736572 59.6623645 236.431672 59.584348 238.360243 59.2145141 240.908365 58.396234 241.026924 58.0073426 238.71653 58.0484352 236.890103 58.2997556 235.405978 58.3033289 234.264765 58.0597506 233.123552 57.8161724 232.266274 57.4112012 231.692323 56.844837 231.121413 56.2820462 230.778502 55.4179091 230.659334 54.2559991 230.78519 54.1220013 230.911045 53.988599 231.038725 53.8486458 231.789603 53.0256014 232.510689 52.1608688 233.203808 51.2538524 233.896318 50.3474316 234.523164 49.4427974 235.084347 48.5417365 235.646138 47.6400801 236.086937 46.7991693 236.407352 46.0201953 236.727159 45.2412213 236.981302 44.5497925 237.169174 43.9476957 237.357045 43.3455988 237.341846 42.7149157 237.122966 42.0556464 236.904695 41.3969727 236.460856 40.9818772 235.792057 40.8115511 235.123867 40.641225 234.516476 40.7085217 233.971102 41.0134412 233.425119 41.3189562 232.89312 41.750727 232.37389 42.309349 231.854659 42.867971 231.35306 43.4551792 230.869701 44.0715692 230.386343 44.6879592 229.958312 45.5663893 229.586217 46.7062641 229.214121 47.8467345 228.932618 49.0747501 228.741099 50.3920975 228.550187 51.7088494 228.524651 53.0392989 228.664491 54.3828504 228.668139 54.4150099 228.676651 54.4441916 228.680299 54.4763511 228.579979 54.5638964 228.479051 54.6538238 228.380555 54.7383913 227.716013 55.3065421 227.070927 55.824667 226.44712 56.292766 225.822098 56.7608651 225.249971 57.2027601 224.729524 57.61726 224.207862 58.0311644 223.712951 58.3986162 223.24236 58.7190199 222.772377 59.038828 222.355898 59.2966994 221.993531 59.4944206 221.630556 59.6915463 221.350877 59.8154198 221.153277 59.8648501 220.956286 59.9142805 220.798206 59.9255958 220.679038 59.8976052 220.560479 59.8696145 220.386591 59.5563574 220.157984 58.9560471 219.929376 58.3563325 219.82784 57.5118484 219.853984 56.422595 219.87952 55.3333416 220.11968 54.0564913 220.574463 52.5932351 221.029246 51.1299789 221.544828 49.6595761 222.123035 48.1820268 222.701849 46.705073 223.443 45.0363535 224.348917 43.1758682 225.253619 41.3159785 226.365648 39.1559336 227.685005 36.6957336 229.004362 34.2361292 230.493958 31.5222266 232.15501 28.554026 233.815454 25.5852298 235.708762 22.4097793 237.83554 19.0264832 239.962319 15.6431871 241.967498 12.6356804 243.851078 10.0033677 245.734657 7.37165049 247.475965 5.31106178 249.073785 3.82160156 249.839255 3.10873315 250.363958 2.51020955 250.658837 2.02067084 250.666133 2.01590648 250.672213 2.01173766 250.678901 2.00637774 250.91602 1.62463284 251.021812 1.25598995 250.996276.901044609 250.97074.544908178 250.502581.256663977 249.593623.0345253672L249.593623.0345253672z"/>
  </g>
</svg>
