<svg xmlns="http://www.w3.org/2000/svg" width="215" height="35" viewBox="0 0 215 35">
  <path d="M1,33.23 L1,31 C0.972788666,30.812622 1.03562138,30.6233936 1.16950748,30.4895075 C1.30339359,30.3556214 1.49262198,30.2927887 1.68,30.32 L4,30.32 L4,6.89 L1.65,6.89 C1.46262198,6.91721133 1.27339359,6.85437862 1.13950748,6.72049252 C1.00562138,6.58660641 0.942788666,6.39737802 0.97,6.21 L0.97,4 C0.942788666,3.81262198 1.00562138,3.62339359 1.13950748,3.48950748 C1.27339359,3.35562138 1.46262198,3.29278867 1.65,3.32 C5.49666667,3.14 8.7,3.05 11.26,3.05 C19.0866667,3.01666667 23,5.8 23,11.4 C23.0343995,13.2308154 22.5150587,15.0293382 21.51,16.56 C20.5180676,18.0426136 19.1330504,19.2198782 17.51,19.96 L22.79,30.33 L25.59,30.33 C25.777378,30.3027887 25.9666064,30.3656214 26.1004925,30.4995075 C26.2343786,30.6333936 26.2972113,30.822622 26.27,31.01 L26.27,33.22 C26.2972113,33.407378 26.2343786,33.5966064 26.1004925,33.7304925 C25.9666064,33.8643786 25.777378,33.9272113 25.59,33.9 L19.59,33.9 C19.1683597,33.9222829 18.774388,33.6898396 18.59,33.31 L12.46,21.18 L11.56,21.18 C10.7013226,21.1840359 9.84315787,21.1372876 8.99,21.04 L8.99,30.33 L11.83,30.33 C12.017378,30.3027887 12.2066064,30.3656214 12.3404925,30.4995075 C12.4743786,30.6333936 12.5372113,30.822622 12.51,31.01 L12.51,33.22 C12.5372113,33.407378 12.4743786,33.5966064 12.3404925,33.7304925 C12.2066064,33.8643786 12.017378,33.9272113 11.83,33.9 L1.69,33.9 C1.50262198,33.9272113 1.31339359,33.8643786 1.17950748,33.7304925 C1.04562138,33.5966064 0.982788666,33.407378 1.01,33.22 L1,33.23 Z M9.07,6.76 L9.07,17.63 C9.40307573,17.6485328 9.73692427,17.6485328 10.07,17.63 C12.0666346,17.748345 14.0509067,17.2452901 15.75,16.19 C17.1064772,15.1781334 17.859061,13.5487895 17.75,11.86 C17.75,8.43333333 15.3733333,6.72 10.62,6.72 L9.07,6.76 Z M38.93,34.45 C35.35,34.45 32.7266667,33.4066667 31.06,31.32 C29.2949827,28.9241492 28.4118382,25.9921096 28.56,23.02 C28.4400445,19.9493023 29.3791726,16.9306764 31.22,14.47 C34.241196,11.1409364 39.0659445,10.1428519 43.16,12 C44.2873375,12.5595201 45.2336774,13.4261317 45.89,14.5 C47.1197481,16.6535836 47.7418664,19.1005823 47.69,21.58 C47.7603678,22.2751823 47.6993056,22.977398 47.51,23.65 C47.3126123,23.7903717 47.0709857,23.8543317 46.83,23.83 L33.57,23.83 C33.6035004,25.6171717 34.1597315,27.3553941 35.17,28.83 C36.09,30.0166667 37.6766667,30.61 39.93,30.61 C41.6938327,30.5868948 43.4324736,30.1880301 45.03,29.44 C45.1901799,29.3283401 45.3957928,29.3047706 45.577085,29.3772875 C45.7583772,29.4498044 45.8910145,29.6086739 45.93,29.8 L46.79,31.87 C46.9433333,32.23 46.8066667,32.53 46.38,32.77 C44.0746992,33.9242542 41.5165059,34.4812802 38.94,34.39 L38.93,34.45 Z M33.56,20.51 L43,20.51 C43.06,16.75 41.5866667,14.87 38.58,14.87 C37.1122965,14.7233272 35.6770351,15.3667203 34.81,16.56 C34.0546371,17.7413855 33.6394386,19.1080806 33.61,20.51 L33.56,20.51 Z M58,15.28 L58,26.64 C57.9279257,27.6920063 58.1132715,28.745731 58.54,29.71 C58.9767694,30.3755146 59.74819,30.7419393 60.54,30.66 C61.5374124,30.6601144 62.5231308,30.4452346 63.43,30.03 C63.7633333,29.91 64.0033333,30.03 64.15,30.39 L64.96,32.46 C64.9790574,32.5859499 64.9790574,32.7140501 64.96,32.84 C64.96,33.0066667 64.81,33.18 64.51,33.36 C62.9044359,34.1162167 61.144141,34.4860841 59.37,34.44 C56.7033333,34.44 54.9433333,33.75 54.09,32.37 C53.5505897,31.5899147 53.2075334,30.6911071 53.09,29.75 C52.9669444,28.5506399 52.9068619,27.3456523 52.91,26.14 L52.91,15.28 L50.4,15.28 C50.212622,15.3072113 50.0233936,15.2443786 49.8895075,15.1104925 C49.7556214,14.9766064 49.6927887,14.787378 49.72,14.6 L49.72,12.25 C49.6927887,12.062622 49.7556214,11.8733936 49.8895075,11.7395075 C50.0233936,11.6056214 50.212622,11.5427887 50.4,11.57 L53,11.57 L53,5.48 C52.9727887,5.29262198 53.0356214,5.10339359 53.1695075,4.96950748 C53.3033936,4.83562138 53.492622,4.77278867 53.68,4.8 L57.38,4.8 C57.567378,4.77278867 57.7566064,4.83562138 57.8904925,4.96950748 C58.0243786,5.10339359 58.0872113,5.29262198 58.06,5.48 L58.06,11.57 L62.61,11.57 C62.797378,11.5427887 62.9866064,11.6056214 63.1204925,11.7395075 C63.2543786,11.8733936 63.3172113,12.062622 63.29,12.25 L63.29,14.6 C63.3172113,14.787378 63.2543786,14.9766064 63.1204925,15.1104925 C62.9866064,15.2443786 62.797378,15.3072113 62.61,15.28 L58,15.28 Z M66.57,3.28 L66.57,0.93 C66.5427887,0.742621984 66.6056214,0.553393586 66.7395075,0.419507482 C66.8733936,0.285621378 67.062622,0.222788666 67.25,0.25 L74.06,0.25 C74.247378,0.222788666 74.4366064,0.285621378 74.5704925,0.419507482 C74.7043786,0.553393586 74.7672113,0.742621984 74.74,0.93 L74.74,14.82 C76.2468873,12.4222232 78.9091677,10.9998048 81.74,11.08 C86.4066667,11.08 88.74,13.6366667 88.74,18.75 L88.74,30.34 L91.4,30.34 C91.587378,30.3127887 91.7766064,30.3756214 91.9104925,30.5095075 C92.0443786,30.6433936 92.1072113,30.832622 92.08,31.02 L92.08,33.23 C92.1072113,33.417378 92.0443786,33.6066064 91.9104925,33.7404925 C91.7766064,33.8743786 91.587378,33.9372113 91.4,33.91 L81.52,33.91 C81.332622,33.9372113 81.1433936,33.8743786 81.0095075,33.7404925 C80.8756214,33.6066064 80.8127887,33.417378 80.84,33.23 L80.84,31 C80.8127887,30.812622 80.8756214,30.6233936 81.0095075,30.4895075 C81.1433936,30.3556214 81.332622,30.2927887 81.52,30.32 L83.68,30.32 L83.68,21 C83.7716348,19.5791895 83.5248778,18.1569095 82.96,16.85 C82.48,15.9766667 81.48,15.54 79.96,15.54 C78.5861949,15.4928165 77.2469396,15.9762376 76.22,16.89 C75.2965049,17.6447964 74.7516172,18.7674844 74.73,19.96 L74.73,30.33 L77.48,30.33 C77.667378,30.3027887 77.8566064,30.3656214 77.9904925,30.4995075 C78.1243786,30.6333936 78.1872113,30.822622 78.16,31.01 L78.16,33.22 C78.1872113,33.407378 78.1243786,33.5966064 77.9904925,33.7304925 C77.8566064,33.8643786 77.667378,33.9272113 77.48,33.9 L67.26,33.9 C67.072622,33.9272113 66.8833936,33.8643786 66.7495075,33.7304925 C66.6156214,33.5966064 66.5527887,33.407378 66.58,33.22 L66.58,31 C66.5527887,30.812622 66.6156214,30.6233936 66.7495075,30.4895075 C66.8833936,30.3556214 67.072622,30.2927887 67.26,30.32 L69.7,30.32 L69.7,4 L67.26,4 C67.072622,4.02721133 66.8833936,3.96437862 66.7495075,3.83049252 C66.6156214,3.69660641 66.5527887,3.50737802 66.58,3.32 L66.57,3.28 Z M102,30.34 L104.84,30.34 C105.027378,30.3127887 105.216606,30.3756214 105.350493,30.5095075 C105.484379,30.6433936 105.547211,30.832622 105.52,31.02 L105.52,33.23 C105.547211,33.417378 105.484379,33.6066064 105.350493,33.7404925 C105.216606,33.8743786 105.027378,33.9372113 104.84,33.91 L94.1,33.91 C93.912622,33.9372113 93.7233936,33.8743786 93.5895075,33.7404925 C93.4556214,33.6066064 93.3927887,33.417378 93.42,33.23 L93.42,31 C93.3927887,30.812622 93.4556214,30.6233936 93.5895075,30.4895075 C93.7233936,30.3556214 93.912622,30.2927887 94.1,30.32 L96.94,30.32 L96.94,15.28 L94.5,15.28 C94.312622,15.3072113 94.1233936,15.2443786 93.9895075,15.1104925 C93.8556214,14.9766064 93.7927887,14.787378 93.82,14.6 L93.82,12.25 C93.7927887,12.062622 93.8556214,11.8733936 93.9895075,11.7395075 C94.1233936,11.6056214 94.312622,11.5427887 94.5,11.57 L101.31,11.57 C101.497378,11.5427887 101.686606,11.6056214 101.820493,11.7395075 C101.954379,11.8733936 102.017211,12.062622 101.99,12.25 L102,30.34 Z M95.69,5.27 C95.6638593,4.41053286 95.9804352,3.57592367 96.57,2.95 C97.8910616,1.71914421 99.9389384,1.71914421 101.26,2.95 C101.849565,3.57592367 102.166141,4.41053286 102.14,5.27 C102.169139,6.12782521 101.843597,6.95976709 101.24,7.57 C100.60759,8.1834819 99.7502135,8.50906803 98.87,8.47 C98.0038852,8.5134644 97.1602183,8.18617981 96.55,7.57 C95.9688842,6.94820119 95.6594054,6.12052533 95.69,5.27 L95.69,5.27 Z M107.1,14.65 L107.1,12.26 C107.072789,12.072622 107.135621,11.8833936 107.269507,11.7495075 C107.403394,11.6156214 107.592622,11.5527887 107.78,11.58 L113.91,11.58 C114.303333,11.58 114.543333,11.8066667 114.63,12.26 L115.04,14.88 C116.597683,12.4185361 119.349374,10.974089 122.26,11.09 C126.926667,11.09 129.26,13.6466667 129.26,18.76 L129.26,30.35 L131.88,30.35 C132.067378,30.3227887 132.256606,30.3856214 132.390493,30.5195075 C132.524379,30.6533936 132.587211,30.842622 132.56,31.03 L132.56,33.24 C132.587211,33.427378 132.524379,33.6166064 132.390493,33.7504925 C132.256606,33.8843786 132.067378,33.9472113 131.88,33.92 L122,33.92 C121.812622,33.9472113 121.623394,33.8843786 121.489507,33.7504925 C121.355621,33.6166064 121.292789,33.427378 121.32,33.24 L121.32,31 C121.292789,30.812622 121.355621,30.6233936 121.489507,30.4895075 C121.623394,30.3556214 121.812622,30.2927887 122,30.32 L124.16,30.32 L124.16,21 C124.251635,19.5791895 124.004878,18.1569095 123.44,16.85 C122.96,15.9766667 121.96,15.54 120.44,15.54 C119.066195,15.4928165 117.72694,15.9762376 116.7,16.89 C115.776505,17.6447964 115.231617,18.7674844 115.21,19.96 L115.21,30.33 L118,30.33 C118.187378,30.3027887 118.376606,30.3656214 118.510493,30.4995075 C118.644379,30.6333936 118.707211,30.822622 118.68,31.01 L118.68,33.22 C118.707211,33.407378 118.644379,33.5966064 118.510493,33.7304925 C118.376606,33.8643786 118.187378,33.9272113 118,33.9 L107.81,33.9 C107.622622,33.9272113 107.433394,33.8643786 107.299507,33.7304925 C107.165621,33.5966064 107.102789,33.407378 107.13,33.22 L107.13,31 C107.102789,30.812622 107.165621,30.6233936 107.299507,30.4895075 C107.433394,30.3556214 107.622622,30.2927887 107.81,30.32 L110.2,30.32 L110.2,15.28 L107.76,15.28 C107.306667,15.28 107.08,15.07 107.08,14.65 L107.1,14.65 Z M142.5,0.94 L142.5,18.94 L144.8,18.94 L151.8,12.09 C152.104114,11.7687631 152.52765,11.5877645 152.97,11.59 L156.49,11.59 C156.677378,11.5627887 156.866606,11.6256214 157.000493,11.7595075 C157.134379,11.8933936 157.197211,12.082622 157.17,12.27 L157.17,14.62 C157.197211,14.807378 157.134379,14.9966064 157.000493,15.1304925 C156.866606,15.2643786 156.677378,15.3272113 156.49,15.3 L153.74,15.3 L148.74,20.13 L154.92,30.37 L157.58,30.37 C157.767378,30.3427887 157.956606,30.4056214 158.090493,30.5395075 C158.224379,30.6733936 158.287211,30.862622 158.26,31.05 L158.26,33.26 C158.287211,33.447378 158.224379,33.6366064 158.090493,33.7704925 C157.956606,33.9043786 157.767378,33.9672113 157.58,33.94 L151.76,33.94 C151.34845,33.9247235 150.972385,33.7028448 150.76,33.35 L144,22.4 L142.51,22.4 L142.51,30.34 L144.9,30.34 C145.087378,30.3127887 145.276606,30.3756214 145.410493,30.5095075 C145.544379,30.6433936 145.607211,30.832622 145.58,31.02 L145.58,33.23 C145.607211,33.417378 145.544379,33.6066064 145.410493,33.7404925 C145.276606,33.8743786 145.087378,33.9372113 144.9,33.91 L135,33.91 C134.812622,33.9372113 134.623394,33.8743786 134.489507,33.7404925 C134.355621,33.6066064 134.292789,33.417378 134.32,33.23 L134.32,31 C134.292789,30.812622 134.355621,30.6233936 134.489507,30.4895075 C134.623394,30.3556214 134.812622,30.2927887 135,30.32 L137.39,30.32 L137.39,3.91 L135,3.91 C134.812622,3.93721133 134.623394,3.87437862 134.489507,3.74049252 C134.355621,3.60660641 134.292789,3.41737802 134.32,3.23 L134.32,0.93 C134.292789,0.742621984 134.355621,0.553393586 134.489507,0.419507482 C134.623394,0.285621378 134.812622,0.222788666 135,0.25 L141.81,0.25 C141.997378,0.222788666 142.186606,0.285621378 142.320493,0.419507482 C142.454379,0.553393586 142.517211,0.742621984 142.49,0.93 L142.5,0.94 Z M161.22,3.29 C165.066667,3.11 167.923333,3.02 169.79,3.02 C171.656667,3.02 173.046667,3.05666667 173.96,3.13 C175.011729,3.22447092 176.056908,3.38141472 177.09,3.6 C178.16605,3.82060558 179.21537,4.15585169 180.22,4.6 C181.216609,5.0434436 182.151151,5.61492634 183,6.3 C183.921697,7.03856755 184.715629,7.92371708 185.35,8.92 C186.834855,11.6221401 187.550784,14.6795373 187.42,17.76 C187.42,23.2 185.916667,27.25 182.91,29.91 C179.903333,32.57 175.8,33.9033333 170.6,33.91 L161.2,33.91 C161.012622,33.9372113 160.823394,33.8743786 160.689507,33.7404925 C160.555621,33.6066064 160.492789,33.417378 160.52,33.23 L160.52,31 C160.492789,30.812622 160.555621,30.6233936 160.689507,30.4895075 C160.823394,30.3556214 161.012622,30.2927887 161.2,30.32 L163.55,30.32 L163.55,6.93 L161.2,6.93 C161.012622,6.95721133 160.823394,6.89437862 160.689507,6.76049252 C160.555621,6.62660641 160.492789,6.43737802 160.52,6.25 L160.52,4 C160.492789,3.81262198 160.555621,3.62339359 160.689507,3.48950748 C160.823394,3.35562138 161.012622,3.29278867 161.2,3.32 L161.22,3.29 Z M179.28,27.15 C181.1,24.9833333 182.01,22.0233333 182.01,18.27 C182.01,14.5166667 181.16,11.66 179.46,9.7 C177.76,7.74666667 175.093333,6.77 171.46,6.77 L168.6,6.77 L168.6,30.4 L171.6,30.4 C174.527779,30.5629099 177.366436,29.3632172 179.29,27.15 L179.28,27.15 Z M191.12,33.24 L191.12,31 C191.092789,30.812622 191.155621,30.6233936 191.289507,30.4895075 C191.423394,30.3556214 191.612622,30.2927887 191.8,30.32 L194.19,30.32 L194.19,6.93 L191.84,6.93 C191.652622,6.95721133 191.463394,6.89437862 191.329507,6.76049252 C191.195621,6.62660641 191.132789,6.43737802 191.16,6.25 L191.16,4 C191.16,3.52 191.386667,3.28 191.84,3.28 C195.446667,3.12666667 198.873333,3.05 202.12,3.05 C204.838865,2.91581058 207.539114,3.56484228 209.9,4.92 C211.767047,6.04015748 212.880746,8.08385422 212.81,10.26 C212.836998,11.8666986 212.283043,13.429134 211.25,14.66 C210.271701,15.8642266 209.006209,16.8030289 207.57,17.39 C209.582921,17.6002567 211.458391,18.5096826 212.87,19.96 C214.100949,21.3289217 214.756445,23.1198921 214.7,24.96 C214.773106,27.3566933 213.722625,29.6499961 211.86,31.16 C209.701089,32.83543 207.061977,33.7747156 204.33,33.84 C203.036667,33.9333333 200.963333,33.98 198.11,33.98 L191.8,33.98 C191.612622,34.0072113 191.423394,33.9443786 191.289507,33.8104925 C191.155621,33.6766064 191.092789,33.487378 191.12,33.3 L191.12,33.24 Z M199.24,19.71 L199.24,30.44 L201.24,30.44 C203.36745,30.5557498 205.488872,30.1218227 207.4,29.18 C208.902097,28.2587527 209.75105,26.564724 209.59,24.81 C209.59,21.41 207.213333,19.71 202.46,19.71 L199.24,19.71 Z M199.24,6.71 L199.24,16 L200.95,16 C205.396667,16 207.62,14.45 207.62,11.35 C207.774693,9.93630657 207.155546,8.54895903 206,7.72 C204.571172,6.96616526 202.962406,6.62019401 201.35,6.72 L199.24,6.71 Z"/>
</svg>
