<svg xmlns="http://www.w3.org/2000/svg" width="211" height="72" viewBox="0 0 211 72">
  <g>
    <path d="M0 72L0 0 81 0 81 72 0 72zM7.77696608 22.1407573C7.21180768 22.1407573 6.74929556 22.6017465 6.74929556 23.1665186L6.74929556 27.8596785C6.74929556 28.4232439 7.21180768 28.8854399 7.77696608 28.8854399L11.00489 28.8854399 11.00489 41.6434976 7.77696608 41.6434976C7.21180768 41.6422909 6.74929556 42.1044869 6.74929556 42.6704658L6.74929556 47.3624189C6.74929556 47.9271911 7.21180768 48.3893871 7.77696608 48.3893871L22.451763 48.3893871C23.0157138 48.3893871 23.4782259 47.9271911 23.4782259 47.3624189L23.4782259 42.6704658C23.4782259 42.1044869 23.0157138 41.6434976 22.451763 41.6434976L19.4134327 41.6434976 19.4134327 28.8854399 22.4505553 28.8854399C23.0157138 28.8854399 23.4782259 28.4232439 23.4782259 27.8596785L23.4782259 23.1665186C23.4782259 22.6017465 23.0157138 22.1407573 22.4505553 22.1407573L7.77696608 22.1407573zM62.4379277 48.8310678C69.9142005 48.8310678 76.0113902 44.3346127 76.0113902 35.5589226 76.0113902 26.7844393 69.9142005 22.289191 62.4379277 22.289191 54.9616549 22.289191 48.8632575 26.7844393 48.8632575 35.5589226 48.8632575 44.3346127 54.9616549 48.8310678 62.4379277 48.8310678zM66.3264107 35.5601294C66.3264107 40.3594858 65.4593515 42.8188995 62.4379277 42.8188995 59.4152963 42.8188995 58.5494447 40.3594858 58.5494447 35.5601294 58.5494447 30.7595662 59.4152963 28.3013593 62.4379277 28.3013593 65.4593515 28.3013593 66.3264107 30.7595662 66.3264107 35.5601294zM37.5238613 32.1135712C35.0386135 31.4148467 32.5098919 31.2531385 32.6197838 29.2957444 32.6596347 28.5837454 33.2139247 27.7860651 35.1146925 27.781238 36.3017667 27.7788244 38.2918971 28.1698205 39.8340067 29.1436904 41.4244204 30.1477297 42.5704361 31.6501684 43.7285278 31.6501684L46.5663958 31.6501684C47.4068878 31.6501684 48.033634 30.4361497 48.033634 29.5962322L48.033634 24.1669376C48.033634 23.2015152 47.3827357 22.8901664 46.6774953 22.8986139L43.8987999 22.9336104C42.0668654 22.9553325 42.8940738 24.4022594 42.0910175 24.7027471 40.0054864 25.4835325 40.0151472 22.4641738 34.4517182 22.3917671 28.1745956 22.3097062 24.4684607 25.965037 24.5602385 30.1477297 24.6761685 35.4141092 28.657637 37.3413338 33.5955274 38.9511758 36.0505852 39.7512696 40.0839806 40.1603674 39.9752963 42.1165546 39.9354454 42.8285537 39.3811554 43.6274408 37.4803876 43.6310611 36.2933135 43.6334747 34.303183 43.2424786 32.7610734 42.2686087 31.1706597 41.2657761 30.0234365 39.7633374 28.8665524 39.7633374L26.0274767 39.7633374C25.1881923 39.7633374 24.5602385 40.9761494 24.5602385 41.8160669L24.5602385 47.2453614C24.5602385 48.2119907 25.2111368 48.5221326 25.9175848 48.5136852L28.6962803 48.4798954C30.5282147 48.4569666 29.6997987 47.0100397 30.5040626 46.709552 32.5895937 45.9299734 32.5799329 48.9481253 38.1433619 49.0217388 44.4204845 49.1025929 48.1266195 45.4484689 48.0348416 41.2645693 47.9177041 35.9981898 43.965218 33.9249451 37.5238613 32.1135712zM58.3526053 13.4724704C60.7122624 15.3852136 62.7579426 17.6696445 64.3990757 20.2364615L65.7890272 20.2364615C60.6422214 11.7214354 51.291748 6.00854801 40.6467238 6.00854801 30.0016996 6.00854801 20.6512262 11.7214354 15.5044204 20.2364615L16.894372 20.2364615C18.5367126 17.6696445 20.5823928 15.3852136 22.9420499 13.4724704 23.7040477 14.3558319 24.805382 15.1643732 26.1735967 15.8691316 25.3765785 16.9902284 24.6483936 18.2018336 23.9962877 19.4930862 23.8731122 19.7380621 23.7535594 19.9854516 23.6352143 20.2364615L24.9418412 20.2364615C24.9780693 20.1640548 25.0130898 20.0940616 25.0493179 20.0228617 25.7062542 18.7183346 26.4477227 17.4994888 27.256817 16.3795987 27.8823556 16.649917 28.5501603 16.9021337 29.2566083 17.1314215 30.2408051 17.4512177 31.3034961 17.732397 32.4289825 17.9665119 32.2091987 18.5831755 32.0014909 19.2263882 31.8058591 19.8913229 31.7732538 20.0059668 31.7394409 20.1206108 31.7080432 20.2364615L32.9313455 20.2364615C32.9337607 20.2304276 32.9349683 20.2243937 32.9361759 20.2195666 33.1426761 19.5123946 33.3636675 18.8353921 33.5979426 18.1885591 35.6037719 18.5361112 37.7810809 18.7388499 40.0562057 18.7690193L40.0562057 20.2364615 41.2372419 20.2364615 41.2372419 18.7702261C43.5135744 18.7400567 45.6908833 18.5361112 47.6979202 18.1897659 47.9297801 18.8353921 48.1507715 19.5136014 48.3572717 20.2195666 48.3584793 20.2243937 48.3608945 20.2304276 48.3621021 20.2364615L49.5854044 20.2364615C49.5527991 20.1206108 49.5201938 20.0059668 49.4875885 19.8913229 49.2919568 19.2263882 49.0854566 18.5843823 48.8668804 17.9665119 49.8860977 17.7553257 50.853388 17.5043159 51.7590906 17.2207231 52.5693925 16.9672997 53.3313902 16.6849136 54.0378382 16.3795987 54.8481401 17.4994888 55.5871934 18.7183346 56.2453373 20.0228617 56.2803578 20.0940616 56.3153783 20.1640548 56.3503988 20.2364615L57.6570257 20.2364615C57.5398882 19.9854516 57.4203354 19.7380621 57.2959523 19.4930862 56.645054 18.2018336 55.9168692 16.9902284 55.1210585 15.8691316 56.4904808 15.1643732 57.5906075 14.3558319 58.3526053 13.4724704zM33.0521059 8.23263999C35.4697279 7.55322394 38.0165635 7.18877696 40.6467238 7.18877696 43.2756765 7.18877696 45.8237197 7.55322394 48.2413418 8.23263999 47.6665225 8.80223924 46.8030861 9.30184536 45.7379799 9.6904279 44.3178382 10.2093425 42.5559448 10.5158641 40.6467238 10.5158641 38.5841372 10.5158641 36.6954454 10.1586578 35.2209616 9.56250943 34.3068058 9.19323534 33.5629221 8.73948678 33.0521059 8.23263999zM32.8685501 9.61198733C30.6477674 10.8875517 28.6262393 12.6940985 26.8872903 14.9133634 25.5927395 14.2701507 24.5638613 13.5388432 23.8731122 12.7484035 26.2605442 10.9720262 28.937801 9.56492298 31.8191428 8.61036153 32.0968915 8.96756784 32.4495117 9.30425892 32.8685501 9.61198733zM36.2172344 11.1349413C34.945628 12.4998073 33.8020276 14.4523742 32.8480209 16.8502422 31.69959 16.6185408 30.6175773 16.3361547 29.6213045 16.0115314 29.0489005 15.8256876 28.5042713 15.6265692 27.9934551 15.4141763 29.7493105 13.2274944 31.7937831 11.4861137 34.0326798 10.3179525 34.2717853 10.4374235 34.5217592 10.5496539 34.7826016 10.6558504 35.2294148 10.8356603 35.710041 10.9973686 36.2172344 11.1349413zM40.0562057 11.6876456L40.0562057 17.5899972C37.9332389 17.5610345 35.9032575 17.3776042 34.0278494 17.0662555 35.0374059 14.5814994 36.2486321 12.6434138 37.5854491 11.4378425 38.3679761 11.5742085 39.1975997 11.6598897 40.0562057 11.6876456zM43.7092061 11.4378425C45.0460231 12.6434138 46.2560417 14.5827062 47.2668058 17.0662555 45.3913977 17.3776042 43.3602087 17.5598277 41.2372419 17.5899972L41.2372419 11.6876456C42.0970555 11.6610965 42.9266791 11.5742085 43.7092061 11.4378425zM47.2607678 10.3179525C49.4996646 11.4861137 51.5453448 13.2274944 53.3024078 15.4141763 52.7106821 15.6591522 52.0778979 15.8860265 51.407678 16.0960059 50.485069 16.3844259 49.4936265 16.6378493 48.4466344 16.8502422 47.4914201 14.4511674 46.3490272 12.4998073 45.0774208 11.1349413 45.4469474 11.0335719 45.8019829 10.9201348 46.1401118 10.7970434 46.5362057 10.65223 46.9117704 10.4929353 47.2607678 10.3179525zM49.4767201 8.61156831C52.3568543 9.56612976 55.0353187 10.973233 57.4227507 12.7496103 56.7295863 13.5400499 55.7019158 14.2701507 54.4073649 14.9133634 52.6696236 12.6940985 50.6468878 10.8887585 48.4261051 9.61319411 48.8463511 9.30425892 49.2001789 8.96756784 49.4767201 8.61156831zM58.3526053 56.7632201C57.5906075 55.8798585 56.4904808 55.0713172 55.1210585 54.3665588 55.9168692 53.2466688 56.645054 52.0338568 57.2959523 50.7426043 57.4203354 50.4976283 57.5398882 50.2502388 57.6570257 50.0004358L56.3503988 50.0004358C56.3153783 50.0716357 56.2803578 50.1416288 56.2453373 50.2128287 55.5871934 51.5185626 54.8481401 52.7362017 54.0378382 53.8560917 53.3313902 53.5507769 52.5693925 53.2695976 51.7590906 53.0149674 50.853388 52.7313746 49.8860977 52.4815715 48.8668804 52.2691786 49.0854566 51.6513082 49.2919568 51.010509 49.4875885 50.3443675 49.5201938 50.2297236 49.5527991 50.1162865 49.5854044 50.0004358L48.3621021 50.0004358C48.3608945 50.0052629 48.3584793 50.0112968 48.3572717 50.0161239 48.1507715 50.7232958 47.9297801 51.4002983 47.6979202 52.0471314 45.6908833 51.7007861 43.5135744 51.4968406 41.2372419 51.4666711L41.2372419 50.0004358 40.0562057 50.0004358 40.0562057 51.4666711C37.7810809 51.4968406 35.6037719 51.7007861 33.5979426 52.0471314 33.3636675 51.4002983 33.1426761 50.7232958 32.9361759 50.0161239 32.9349683 50.0112968 32.9337607 50.0052629 32.9313455 50.0004358L31.7080432 50.0004358C31.7394409 50.1162865 31.7732538 50.2297236 31.8058591 50.3443675 32.0014909 51.010509 32.2091987 51.652515 32.4289825 52.2703853 31.3034961 52.5032935 30.2408051 52.7844728 29.2566083 53.104269 28.5501603 53.3347636 27.8823556 53.5857734 27.256817 53.8560917 26.4477227 52.7362017 25.7062542 51.5185626 25.0493179 50.2128287 25.0130898 50.1416288 24.9780693 50.0716357 24.9418412 50.0004358L23.6352143 50.0004358C23.7535594 50.2502388 23.8731122 50.4976283 23.9962877 50.7426043 24.6483936 52.0338568 25.3765785 53.2466688 26.1735967 54.3665588 24.805382 55.0713172 23.7040477 55.8798585 22.9420499 56.7632201 20.5823928 54.8504768 18.5367126 52.5672527 16.894372 50.0004358L15.5044204 50.0004358C20.6512262 58.5142551 30.0016996 64.2283492 40.6467238 64.2283492 51.291748 64.2283492 60.6422214 58.5142551 65.7890272 50.0004358L64.3990757 50.0004358C62.7579426 52.5672527 60.7122624 54.8504768 58.3526053 56.7632201zM33.0521059 62.0030505C33.5629221 61.4962037 34.3068058 61.0424551 35.2209616 60.673181 36.6954454 60.0782394 38.5841372 59.7198264 40.6467238 59.7198264 42.5559448 59.7198264 44.3178382 60.026348 45.7379799 60.5452626 46.8030861 60.9338451 47.6665225 61.4334512 48.2413418 62.0042572 45.8237197 62.6836733 43.2756765 63.0481203 40.6467238 63.0481203 38.0165635 63.0481203 35.4697279 62.6824665 33.0521059 62.0030505zM32.8685501 60.6237031C32.4495117 60.9326383 32.0968915 61.2681226 31.8191428 61.6253289 28.937801 60.6707675 26.2605442 59.2636642 23.8731122 57.4872869 24.5638613 56.6968473 25.5927395 55.9667466 26.8872903 55.3223271 28.6262393 57.5427987 30.6477674 59.3481387 32.8685501 60.6237031zM36.2172344 59.1007492C35.710041 59.2383219 35.2294148 59.4000302 34.7826016 59.5810469 34.5217592 59.6860366 34.2717853 59.7982669 34.0326798 59.917738 31.7937831 58.7495768 29.7493105 57.008196 27.9934551 54.8215142 28.5042713 54.610328 29.0489005 54.4100028 29.6213045 54.224159 30.6175773 53.9007425 31.69959 53.6171497 32.8480209 53.3854483 33.8020276 55.7845231 34.945628 57.7358832 36.2172344 59.1007492zM40.0562057 58.5480449C39.1975997 58.5758007 38.3679761 58.6626888 37.5854491 58.7990547 36.2486321 57.5922766 35.0374059 55.654191 34.0278494 53.169435 35.9032575 52.859293 37.9332389 52.674656 40.0562057 52.6469001L40.0562057 58.5480449zM43.7092061 58.7990547C42.9266791 58.6626888 42.0970555 58.5758007 41.2372419 58.5480449L41.2372419 52.6469001C43.3602087 52.6758628 45.3913977 52.8580863 47.2668058 53.169435 46.2560417 55.6529843 45.0460231 57.5922766 43.7092061 58.7990547zM47.2607678 59.917738C46.9117704 59.7427551 46.5362057 59.5834604 46.1401118 59.4386471 45.8019829 59.3143489 45.4469474 59.2021186 45.0774208 59.101956 46.3490272 57.73709 47.4914201 55.7845231 48.4466344 53.386655 49.4936265 53.5978412 50.485069 53.8512646 51.407678 54.1408913 52.0778979 54.3496639 52.7106821 54.577745 53.3024078 54.8215142 51.5453448 57.008196 49.4996646 58.7495768 47.2607678 59.917738zM49.4767201 61.6253289C49.2001789 61.2681226 48.8463511 60.9326383 48.4261051 60.6224964 50.6468878 59.3481387 52.6696236 57.5415919 54.4073649 55.3223271 55.7019158 55.9655398 56.7295863 56.6956405 57.4227507 57.4860802 55.0353187 59.2624575 52.3568543 60.6707675 49.4767201 61.6253289zM98.5811401 22.10337L100.179575 22.10337 100.179575 11 98.5811401 11 98.5811401 22.10337zM103.52862 22.10337L102.028439 22.10337 102.028439 13.7149344 103.468708 13.7149344 103.468708 14.6701667C103.781446 14.292657 104.125337 14.0164597 104.502778 13.841575 104.877823 13.6678964 105.309185 13.5786449 105.793269 13.5786449 106.884854 13.5786449 107.722414 13.9018801 108.305951 14.5471444 108.888289 15.1924087 109.180657 16.1199007 109.180657 17.3235899L109.180657 22.10337 107.673287 22.10337 107.673287 17.6516495C107.673287 16.7627527 107.50913 16.1018092 107.182014 15.6712309 106.852501 15.2418588 106.343255 15.0283789 105.655473 15.0283789 104.908977 15.0283789 104.368577 15.2804541 104.031875 15.7858106 103.695173 16.2935793 103.52862 17.1269954 103.52862 18.2920894L103.52862 22.10337zM111.442909 22.10337L111.442909 15.0862717 110.261457 15.0862717 110.261457 13.7149344 111.442909 13.7149344 111.442909 11 112.934702 11 112.934702 13.7149344 114.116154 13.7149344 114.116154 15.0862717 112.934702 15.0862717 112.934702 22.10337 111.442909 22.10337zM121.681759 17.1113161C121.496034 16.4190138 121.172513 15.8822987 120.712394 15.5047889 120.252275 15.124867 119.703487 14.935509 119.062435 14.935509 118.405807 14.935509 117.836649 15.1296914 117.353763 15.518056 116.872076 15.9088329 116.538969 16.4395176 116.358037 17.1113161L121.681759 17.1113161zM116.311306 18.4669741C116.438318 19.167719 116.753452 19.7369989 117.255509 20.1711955 117.756368 20.6065981 118.354283 20.8224902 119.046858 20.8224902 119.540528 20.8224902 119.991061 20.7030862 120.399656 20.463072 120.805855 20.2266761 121.128178 19.8877616 121.371419 19.4511529L123.05972 19.4511529C122.677486 20.379851 122.139482 21.092657 121.4517 21.5847464 120.761521 22.0768358 119.959907 22.3240866 119.046858 22.3240866 118.429771 22.3240866 117.867803 22.2155374 117.35616 21.996027 116.846913 21.7777226 116.386794 21.449663 115.969811 21.0118482 115.582784 20.6005676 115.277236 20.1229514 115.05796 19.5753813 114.837486 19.0290174 114.728448 18.4717985 114.728448 17.9025186 114.728448 17.3115289 114.830297 16.7591344 115.029203 16.2465413 115.228108 15.7339482 115.522872 15.2659808 115.911098 14.8438453 116.324486 14.3855268 116.791795 14.0417879 117.311825 13.8114225 117.831856 13.5786449 118.401014 13.4640653 119.015704 13.4640653 119.747821 13.4640653 120.428414 13.6365378 121.058681 13.9802767 121.686552 14.3240156 122.204186 14.8028379 122.615178 15.4167435 122.856022 15.7990777 123.036954 16.2151827 123.153182 16.671089 123.26941 17.1269954 123.326925 17.6468251 123.326925 18.2305782L123.326925 18.4669741 116.311306 18.4669741zM126.145155 22.10337L124.644975 22.10337 124.644975 13.7149344 126.05409 13.7149344 126.05409 14.6822277C126.302123 14.3131607 126.587301 14.0369635 126.907228 13.8572543 127.228352 13.6775452 127.601001 13.5846754 128.025173 13.5786449L128.025173 15.1562256C127.35177 15.208088 126.871281 15.4058886 126.58131 15.7544519 126.290141 16.1030153 126.145155 16.6626463 126.145155 17.4357574L126.145155 22.10337zM130.613344 22.10337L129.113164 22.10337 129.113164 13.7149344 130.553432 13.7149344 130.553432 14.6701667C130.86617 14.292657 131.210061 14.0164597 131.587502 13.841575 131.962547 13.6678964 132.395107 13.5786449 132.877993 13.5786449 133.969578 13.5786449 134.807138 13.9018801 135.391873 14.5471444 135.973013 15.1924087 136.265381 16.1199007 136.265381 17.3235899L136.265381 22.10337 134.758011 22.10337 134.758011 17.6516495C134.758011 16.7627527 134.595052 16.1018092 134.266738 15.6712309 133.938424 15.2418588 133.429177 15.0283789 132.741395 15.0283789 131.993701 15.0283789 131.453301 15.2804541 131.117797 15.7858106 130.781096 16.2935793 130.613344 17.1269954 130.613344 18.2920894L130.613344 22.10337zM139.150712 17.8554807C139.150712 18.70337 139.429898 19.4149698 139.988272 19.9890741 140.54425 20.5643845 141.227239 20.8514367 142.036042 20.8514367 142.77415 20.8514367 143.422391 20.5619723 143.985558 19.9866619 144.547526 19.4089393 144.829109 18.7347286 144.829109 17.9616176 144.829109 17.1390564 144.549923 16.4346932 143.993945 15.8461156 143.435571 15.2599503 142.77415 14.9668677 142.006087 14.9668677 141.216455 14.9668677 140.54425 15.244271 139.988272 15.8039021 139.429898 16.3635332 139.150712 17.0485988 139.150712 17.8554807zM144.753621 22.10337L144.753621 21.0721532C144.371387 21.4725789 143.942421 21.7777226 143.471518 21.9827598 142.998219 22.1890032 142.494963 22.2927279 141.959356 22.2927279 140.707208 22.2927279 139.668346 21.8717985 138.837974 21.0311458 138.011198 20.189287 137.596611 19.1363604 137.596611 17.87116 137.596611 17.2801703 137.700857 16.7205392 137.906952 16.1922668 138.114245 15.6639943 138.409009 15.1984392 138.79364 14.7968074 139.213019 14.3553742 139.670742 14.0285208 140.166808 13.8186591 140.666469 13.6075913 141.232032 13.5014544 141.86829 13.5014544 142.439845 13.5014544 142.964668 13.6027669 143.443959 13.805392 143.924448 14.008017 144.360603 14.3179851 144.753621 14.7292657L144.753621 13.7149344 146.269378 13.7149344 146.269378 22.10337 144.753621 22.10337zM148.518451 22.10337L148.518451 15.0862717 147.336999 15.0862717 147.336999 13.7149344 148.518451 13.7149344 148.518451 11 150.011441 11 150.011441 13.7149344 151.192893 13.7149344 151.192893 15.0862717 150.011441 15.0862717 150.011441 22.10337 148.518451 22.10337zM152.276091 12.7307556L153.760694 12.7307556 153.760694 11 152.276091 11 152.276091 12.7307556zM152.276091 22.10337L153.760694 22.10337 153.760694 13.7149344 152.276091 13.7149344 152.276091 22.10337zM156.617267 17.9025186C156.617267 18.7407591 156.880877 19.440298 157.408097 19.9999291 157.936515 20.5595601 158.593144 20.8381696 159.381577 20.8381696 160.154433 20.8381696 160.800278 20.5571479 161.322705 19.9951046 161.845132 19.4330614 162.106345 18.7299042 162.106345 17.8868393 162.106345 17.0377439 161.845132 16.3357928 161.322705 15.7809862 160.800278 15.2261795 160.149641 14.9511884 159.366 14.9511884 158.587152 14.9511884 157.936515 15.23221 157.408097 15.7942533 156.880877 16.3562966 156.617267 17.0582476 156.617267 17.9025186zM155.063167 17.9181979C155.063167 17.3211777 155.163818 16.7675772 155.362723 16.2525718 155.562827 15.7339482 155.857591 15.2708053 156.244619 14.8595247 156.663998 14.4072366 157.137298 14.0574672 157.662121 13.8162469 158.186945 13.5714083 158.732138 13.448386 159.298899 13.448386 159.904004 13.448386 160.464774 13.5581412 160.98121 13.7764455 161.501241 13.9947499 161.969747 14.3179851 162.387929 14.744945 162.796524 15.1670805 163.112856 15.6422845 163.332132 16.171763 163.552605 16.7000355 163.660446 17.2463994 163.660446 17.8108549 163.660446 18.3837531 163.557398 18.9433842 163.352501 19.4873359 163.148803 20.0312877 162.862427 20.5076978 162.494571 20.9129479 162.070398 21.3821213 161.594702 21.735509 161.067482 21.9779354 160.540263 22.2203618 159.975898 22.3397659 159.381577 22.3397659 158.771679 22.3397659 158.207314 22.2300106 157.693275 22.0092941 157.175641 21.7873714 156.715522 21.4605179 156.30453 21.0287336 155.916304 20.6162469 155.610756 20.1374246 155.391481 19.5910607 155.172205 19.0446967 155.063167 18.4874778 155.063167 17.9181979zM166.451117 22.10337L164.950936 22.10337 164.950936 13.7149344 166.391205 13.7149344 166.391205 14.6701667C166.703942 14.292657 167.047834 14.0164597 167.425275 13.841575 167.80032 13.6678964 168.231682 13.5786449 168.715766 13.5786449 169.807351 13.5786449 170.644911 13.9018801 171.228448 14.5471444 171.810786 15.1924087 172.103154 16.1199007 172.103154 17.3235899L172.103154 22.10337 170.595784 22.10337 170.595784 17.6516495C170.595784 16.7627527 170.432825 16.1018092 170.104511 15.6712309 169.776197 15.2418588 169.26695 15.0283789 168.57797 15.0283789 167.831474 15.0283789 167.291074 15.2804541 166.95557 15.7858106 166.618868 16.2935793 166.451117 17.1269954 166.451117 18.2920894L166.451117 22.10337zM174.988484 17.8554807C174.988484 18.70337 175.267671 19.4149698 175.826045 19.9890741 176.382022 20.5643845 177.065012 20.8514367 177.873815 20.8514367 178.610725 20.8514367 179.260164 20.5619723 179.82333 19.9866619 180.385299 19.4089393 180.666882 18.7347286 180.666882 17.9616176 180.666882 17.1390564 180.387695 16.4346932 179.831718 15.8461156 179.273344 15.2599503 178.610725 14.9668677 177.842661 14.9668677 177.054228 14.9668677 176.382022 15.244271 175.826045 15.8039021 175.267671 16.3635332 174.988484 17.0485988 174.988484 17.8554807zM180.592592 22.10337L180.592592 21.0721532C180.20916 21.4725789 179.780194 21.7777226 179.309291 21.9827598 178.835991 22.1890032 178.331538 22.2927279 177.797128 22.2927279 176.544981 22.2927279 175.506118 21.8717985 174.675747 21.0311458 173.847772 20.189287 173.434384 19.1363604 173.434384 17.87116 173.434384 17.2801703 173.537431 16.7205392 173.744725 16.1922668 173.952018 15.6639943 174.246782 15.1984392 174.631413 14.7968074 175.050792 14.3553742 175.508515 14.0285208 176.004581 13.8186591 176.504242 13.6075913 177.069805 13.5014544 177.706063 13.5014544 178.277618 13.5014544 178.802441 13.6027669 179.280534 13.805392 179.762221 14.008017 180.198376 14.3179851 180.592592 14.7292657L180.592592 13.7149344 182.107151 13.7149344 182.107151 22.10337 180.592592 22.10337zM183.849373 22.10337L185.333977 22.10337 185.333977 11 183.849373 11 183.849373 22.10337zM99.7506097 36.3293366C99.7506097 36.9082653 99.8452697 37.4570415 100.036986 37.9720468 100.228702 38.4870521 100.505493 38.9345158 100.864961 39.3096133 101.241204 39.7076268 101.678557 40.0151827 102.173425 40.2334871 102.667094 40.4517914 103.173944 40.5615466 103.687984 40.5615466 104.828696 40.5615466 105.782485 40.1526783 106.550548 39.3373537 107.318612 38.520823 107.700846 37.5089039 107.700846 36.297978 107.700846 35.7853849 107.607384 35.2932955 107.425254 34.8301525 107.240727 34.3645974 106.972324 33.9352253 106.617649 33.5444484 106.199468 33.0921603 105.751331 32.7580702 105.273238 32.5421781 104.797542 32.3262859 104.266727 32.2165307 103.687984 32.2165307 103.167953 32.2165307 102.671887 32.315431 102.20338 32.5144377 101.733675 32.7122384 101.316692 33.0004966 100.954828 33.3755942 100.57499 33.7687833 100.280226 34.2234835 100.06814 34.7421071 99.8560537 35.2595247 99.7506097 35.7877971 99.7506097 36.3293366zM98.0826777 36.3136573C98.0826777 35.5357219 98.2300596 34.7987939 98.5212288 34.1016673 98.8135962 33.4045406 99.2437597 32.7761618 99.8105211 32.2165307 100.34493 31.6894643 100.939251 31.2878326 101.593483 31.0176658 102.247715 30.7438808 102.951074 30.6087974 103.703561 30.6087974 104.474021 30.6087974 105.190561 30.7438808 105.849585 31.0176658 106.50861 31.2878326 107.111318 31.6942888 107.65771 32.23221 108.21848 32.7870167 108.639058 33.4057467 108.92184 34.0932245 109.203423 34.7807024 109.346012 35.5200426 109.346012 36.3136573 109.346012 37.1000355 109.223793 37.8261085 108.981751 38.4894643 108.740907 39.1540263 108.376646 39.7498404 107.892563 40.2781128 107.321008 40.9004612 106.682353 41.3648102 105.978994 41.6796027 105.273238 41.9956013 104.511166 42.1536006 103.687984 42.1536006 102.857612 42.1536006 102.09554 41.9931891 101.396974 41.6735722 100.696011 41.3527492 100.06814 40.8787513 99.514559 40.2467542 99.044854 39.7233061 98.6865841 39.127492 98.4469387 38.4581057 98.2036986 37.7923377 98.0826777 37.0759134 98.0826777 36.3136573zM112.233739 41.932884L110.733559 41.932884 110.733559 33.5444484 112.143872 33.5444484 112.143872 34.5129479C112.391905 34.1426747 112.675885 33.8676836 112.99701 33.6879745 113.316936 33.5082653 113.689585 33.4141894 114.113757 33.409365L114.113757 34.9869457C113.441552 35.0388081 112.961063 35.2366087 112.671092 35.585172 112.378725 35.9337354 112.233739 36.4933664 112.233739 37.2664775L112.233739 41.932884zM115.323967 42.6046825L116.922402 42.6046825C117.154858 42.9942533 117.456811 43.2945725 117.834252 43.4996098 118.209297 43.704647 118.641857 43.8095779 119.124743 43.8095779 119.970691 43.8095779 120.647689 43.5538844 121.162927 43.0424973 121.679363 42.5311103 121.935784 41.8520752 121.935784 41.0090103L121.935784 40.9028734C121.552351 41.303299 121.123386 41.6084427 120.652482 41.81348 120.179183 42.0185172 119.675927 42.123448 119.14032 42.123448 117.889371 42.123448 116.84931 41.7013125 116.018938 40.8606598 115.192162 40.0200071 114.778773 38.9658744 114.778773 37.7018801 114.778773 37.1108904 114.881821 36.5500532 115.089114 36.0217808 115.296407 35.4935083 115.589973 35.0279532 115.975802 34.6275275 116.393983 34.1848883 116.851706 33.8592409 117.34897 33.6481731 117.847433 33.4371054 118.414194 33.3309684 119.050453 33.3309684 119.616016 33.3309684 120.138443 33.432281 120.622527 33.6361121 121.103016 33.8387371 121.547558 34.1487052 121.95136 34.5587797L121.95136 33.5444484 123.451541 33.5444484 123.451541 40.5434551C123.451541 42.0028379 123.076496 43.1462221 122.324009 43.9736077 121.571522 44.7985811 120.533858 45.2122739 119.218205 45.2122739 118.264416 45.2122739 117.446027 44.9855268 116.769028 44.5308265 116.094427 44.0749202 115.611541 43.4320681 115.323967 42.6046825zM116.332874 37.6849947C116.332874 38.5340901 116.612061 39.2444839 117.170435 39.8197943 117.726412 40.3951046 118.409401 40.6809507 119.218205 40.6809507 119.955114 40.6809507 120.603355 40.3926924 121.16772 39.8173821 121.730887 39.2396595 122.011272 38.5654487 122.011272 37.7923377 122.011272 36.9697765 121.734481 36.2642072 121.176108 35.6756297 120.616536 35.0906705 119.955114 34.7963817 119.187051 34.7963817 118.401014 34.7963817 117.726412 35.0749911 117.170435 35.6346222 116.612061 36.1942533 116.332874 36.8781128 116.332874 37.6849947zM126.323691 37.6849947C126.323691 38.5340901 126.602878 39.2444839 127.161252 39.8197943 127.717229 40.3951046 128.400218 40.6809507 129.209022 40.6809507 129.945931 40.6809507 130.59537 40.3926924 131.158537 39.8173821 131.719307 39.2396595 132.002089 38.5654487 132.002089 37.7923377 132.002089 36.9697765 131.721704 36.2642072 131.166925 35.6756297 130.608551 35.0906705 129.945931 34.7963817 129.177868 34.7963817 128.389434 34.7963817 127.717229 35.0749911 127.161252 35.6346222 126.602878 36.1942533 126.323691 36.8781128 126.323691 37.6849947zM131.926601 41.932884L131.926601 40.9028734C131.544366 41.303299 131.114203 41.6084427 130.644498 41.81348 130.171198 42.0185172 129.666744 42.123448 129.131137 42.123448 127.880188 42.123448 126.841325 41.7013125 126.009755 40.8606598 125.182979 40.0200071 124.76959 38.9658744 124.76959 37.7018801 124.76959 37.1108904 124.872638 36.5500532 125.079931 36.0217808 125.287225 35.4935083 125.58079 35.0279532 125.966619 34.6275275 126.385999 34.1848883 126.842523 33.8592409 127.339788 33.6481731 127.839448 33.4371054 128.405011 33.3309684 129.04127 33.3309684 129.612824 33.3309684 130.137648 33.432281 130.61574 33.6361121 131.097428 33.8387371 131.533582 34.1487052 131.926601 34.5587797L131.926601 33.5444484 133.442358 33.5444484 133.442358 41.932884 131.926601 41.932884zM136.68476 41.932884L135.18458 41.932884 135.18458 33.5444484 136.624849 33.5444484 136.624849 34.4996807C136.937586 34.122171 137.281477 33.8459737 137.658919 33.6722951 138.033964 33.4974104 138.465326 33.409365 138.949409 33.409365 140.040994 33.409365 140.878555 33.7313941 141.46329 34.3778645 142.04443 35.0231288 142.336797 35.9494147 142.336797 37.15431L142.336797 41.932884 140.829428 41.932884 140.829428 37.4823696C140.829428 36.5922668 140.666469 35.9313232 140.338155 35.501951 140.00984 35.0725789 139.500594 34.859099 138.812811 34.859099 138.065118 34.859099 137.524717 35.1111742 137.189214 35.6165307 136.852512 36.1242994 136.68476 36.9565094 136.68476 38.1228095L136.68476 41.932884zM144.0922 32.5602696L145.576803 32.5602696 145.576803 30.829514 144.0922 30.829514 144.0922 32.5602696zM144.0922 41.932884L145.576803 41.932884 145.576803 33.5444484 144.0922 33.5444484 144.0922 41.932884zM152.389922 41.932884L146.631243 41.932884 146.631243 40.7123093 150.654889 34.9157857 147.117723 34.9157857 147.117723 33.5444484 152.162259 33.5444484 152.162259 35.0930827 148.404619 40.5145087 152.389922 40.5145087 152.389922 41.932884zM154.745637 37.6849947C154.745637 38.5340901 155.024823 39.2444839 155.583197 39.8197943 156.139175 40.3951046 156.822164 40.6809507 157.630967 40.6809507 158.367877 40.6809507 159.017316 40.3926924 159.580483 39.8173821 160.142451 39.2396595 160.424035 38.5654487 160.424035 37.7923377 160.424035 36.9697765 160.144848 36.2642072 159.58887 35.6756297 159.029298 35.0906705 158.367877 34.7963817 157.599813 34.7963817 156.81138 34.7963817 156.139175 35.0749911 155.583197 35.6346222 155.024823 36.1942533 154.745637 36.8781128 154.745637 37.6849947zM160.348546 41.932884L160.348546 40.9028734C159.966312 41.303299 159.537347 41.6084427 159.066443 41.81348 158.593144 42.0185172 158.08869 42.123448 157.554281 42.123448 156.302133 42.123448 155.263271 41.7013125 154.431701 40.8606598 153.604924 40.0200071 153.191536 38.9658744 153.191536 37.7018801 153.191536 37.1108904 153.294584 36.5500532 153.501877 36.0217808 153.70917 35.4935083 154.002736 35.0279532 154.388565 34.6275275 154.807944 34.1848883 155.265667 33.8592409 155.761733 33.6481731 156.260196 33.4371054 156.826957 33.3309684 157.463215 33.3309684 158.03477 33.3309684 158.559593 33.432281 159.037686 33.6361121 159.519373 33.8387371 159.955528 34.1487052 160.348546 34.5587797L160.348546 33.5444484 161.864303 33.5444484 161.864303 41.932884 160.348546 41.932884zM164.113376 41.932884L164.113376 34.9157857 162.931924 34.9157857 162.931924 33.5444484 164.113376 33.5444484 164.113376 30.829514 165.605168 30.829514 165.605168 33.5444484 166.78662 33.5444484 166.78662 34.9157857 165.605168 34.9157857 165.605168 41.932884 164.113376 41.932884zM167.869817 32.5602696L169.354421 32.5602696 169.354421 30.829514 167.869817 30.829514 167.869817 32.5602696zM167.869817 41.932884L169.354421 41.932884 169.354421 33.5444484 167.869817 33.5444484 167.869817 41.932884zM172.212192 37.7332387C172.212192 38.5702731 172.475802 39.269812 173.003022 39.8294431 173.530242 40.3890741 174.18687 40.6676836 174.976502 40.6676836 175.749358 40.6676836 176.395203 40.3866619 176.91763 39.8246187 177.440057 39.2625754 177.70127 38.5606243 177.70127 37.7163533 177.70127 36.868464 177.440057 36.1653068 176.91763 35.6105002 176.395203 35.0568996 175.743367 34.7807024 174.959727 34.7807024 174.182077 34.7807024 173.530242 35.061724 173.003022 35.6237673 172.475802 36.1858106 172.212192 36.8889677 172.212192 37.7332387zM170.658092 37.747712C170.658092 37.1518978 170.758743 36.5970912 170.957649 36.0820858 171.157752 35.5646683 171.451318 35.1003193 171.839544 34.6890387 172.257725 34.2367506 172.731025 33.8881873 173.255848 33.6457609 173.78187 33.4009223 174.327063 33.2791061 174.892626 33.2791061 175.498929 33.2791061 176.059699 33.3888613 176.576135 33.6071657 177.096166 33.82547 177.564672 34.1487052 177.982854 34.5756651 178.391449 34.9965945 178.706583 35.4730046 178.927057 36.001277 179.146332 36.5295495 179.255371 37.0759134 179.255371 37.641575 179.255371 38.2132671 179.152323 38.7728982 178.947426 39.318056 178.74253 39.8608017 178.456153 40.3372118 178.089496 40.7424619 177.664125 41.2116353 177.189627 41.5650231 176.661209 41.8074495 176.133989 42.0498758 175.570823 42.1692799 174.976502 42.1692799 174.365406 42.1692799 173.80224 42.0595247 173.287002 41.8400142 172.770566 41.6180915 172.310447 41.2900319 171.899455 40.8582476 171.511229 40.446967 171.205682 39.9681447 170.986406 39.4217808 170.765932 38.8742107 170.658092 38.3181979 170.658092 37.747712zM182.044843 41.932884L180.545861 41.932884 180.545861 33.5444484 181.98613 33.5444484 181.98613 34.4996807C182.298868 34.122171 182.642759 33.8459737 183.0202 33.6722951 183.395245 33.4974104 183.826607 33.409365 184.309493 33.409365 185.401077 33.409365 186.239836 33.7313941 186.823373 34.3778645 187.405711 35.0231288 187.698079 35.9494147 187.698079 37.15431L187.698079 41.932884 186.189511 41.932884 186.189511 37.4823696C186.189511 36.5922668 186.02775 35.9313232 185.699436 35.501951 185.369923 35.0725789 184.860677 34.859099 184.172895 34.859099 183.426399 34.859099 182.885999 35.1111742 182.549297 35.6165307 182.212595 36.1242994 182.044843 36.9565094 182.044843 38.1228095L182.044843 41.932884zM195.801688 41.932884L194.308697 41.932884 194.308697 34.8566868 193.316565 34.8566868 193.316565 33.5444484 194.263165 33.5444484 194.263165 33.2923732C194.263165 32.4360411 194.500414 31.7883647 194.97611 31.352962 195.449409 30.9187655 196.161156 30.7016673 197.104161 30.7016673L197.104161 32.0971266 196.974752 32.0971266C196.53021 32.0971266 196.21268 32.1984392 196.020964 32.4022703 195.829247 32.6048954 195.734587 32.9462221 195.734587 33.421426L195.734587 33.5444484 197.104161 33.5444484 197.104161 34.8566868 195.801688 34.8566868 195.801688 41.932884zM199.270555 37.7332387C199.270555 38.5702731 199.535364 39.269812 200.062584 39.8294431 200.589803 40.3890741 201.246432 40.6676836 202.034865 40.6676836 202.80892 40.6676836 203.454764 40.3866619 203.977191 39.8246187 204.499618 39.2625754 204.760832 38.5606243 204.760832 37.7163533 204.760832 36.868464 204.499618 36.1653068 203.977191 35.6105002 203.454764 35.0568996 202.802929 34.7807024 202.020487 34.7807024 201.241639 34.7807024 200.589803 35.061724 200.062584 35.6237673 199.535364 36.1858106 199.270555 36.8889677 199.270555 37.7332387zM197.717653 37.747712C197.717653 37.1518978 197.818304 36.5970912 198.01721 36.0820858 198.216116 35.5646683 198.510879 35.1003193 198.899105 34.6890387 199.317286 34.2367506 199.790586 33.8881873 200.315409 33.6457609 200.840233 33.4009223 201.386624 33.2791061 201.952188 33.2791061 202.557292 33.2791061 203.119261 33.3888613 203.635697 33.6071657 204.155727 33.82547 204.623036 34.1487052 205.042415 34.5756651 205.451011 34.9965945 205.766144 35.4730046 205.986618 36.001277 206.205894 36.5295495 206.314932 37.0759134 206.314932 37.641575 206.314932 38.2132671 206.211885 38.7728982 206.006988 39.318056 205.803289 39.8608017 205.515715 40.3372118 205.147859 40.7424619 204.724885 41.2116353 204.249189 41.5650231 203.720771 41.8074495 203.193551 42.0498758 202.630384 42.1692799 202.034865 42.1692799 201.424968 42.1692799 200.861801 42.0595247 200.346563 41.8400142 199.830127 41.6180915 199.36881 41.2900319 198.957818 40.8582476 198.570791 40.446967 198.265243 39.9681447 198.045967 39.4217808 197.825494 38.8742107 197.717653 38.3181979 197.717653 37.747712zM209.119982 41.932884L207.619801 41.932884 207.619801 33.5444484 209.030115 33.5444484 209.030115 34.5129479C209.278148 34.1426747 209.562128 33.8676836 209.883252 33.6879745 210.203179 33.5082653 210.575828 33.4141894 211 33.409365L211 34.9869457C210.327795 35.0388081 209.847306 35.2366087 209.557335 35.585172 209.264967 35.9337354 209.119982 36.4933664 209.119982 37.2664775L209.119982 41.932884zM98 58.5614048L99.4318813 58.5614048C99.4582423 59.1367151 99.6259941 59.5950337 99.9387314 59.9363604 100.251469 60.2800993 100.660064 60.4513657 101.159725 60.4513657 101.709711 60.4513657 102.14946 60.2800993 102.480171 59.9363604 102.81208 59.5926215 102.977435 59.1343029 102.977435 58.5589926 102.977435 58.0572543 102.855216 57.6664775 102.611976 57.3938985 102.37233 57.1177013 101.863084 56.8620078 101.089029 56.6231997 101.050686 56.6123448 100.981189 56.5942533 100.885331 56.5689252 99.9626959 56.3204683 99.292887 55.912806 98.8783004 55.34232 98.6925752 55.092657 98.5499862 54.8273147 98.4577227 54.546293 98.364261 54.2628592 98.3175302 53.9625399 98.3175302 53.642923 98.3175302 52.6901029 98.5967171 51.9218162 99.1586856 51.3344448 99.7194558 50.7482795 100.452771 50.4539908 101.363423 50.4539908 102.206975 50.4539908 102.88637 50.7169209 103.404004 51.2427811 103.924035 51.7686414 104.210411 52.48989 104.264331 53.405321L102.773737 53.405321C102.747376 52.9638879 102.599994 52.6068819 102.330393 52.3330968 102.059593 52.0605179 101.720495 51.9242284 101.309503 51.9242284 100.869754 51.9242284 100.512682 52.0749911 100.239486 52.3777226 99.9626959 52.6828663 99.8248998 53.072437 99.8248998 53.5488471 99.8248998 53.7189074 99.8512608 53.8744945 99.9003881 54.022845 99.9519119 54.1711955 100.029797 54.3062788 100.135241 54.4341256 100.35212 54.6946435 100.81823 54.9177723 101.528779 55.1059241 101.857093 55.1915573 102.111117 55.2663356 102.287256 55.3266407 103.015778 55.5992196 103.566963 56.0008514 103.944404 56.5242994 104.319449 57.0465413 104.507571 57.6749202 104.507571 58.4082299 104.507571 59.4804541 104.205618 60.3452288 103.598117 61.001348 102.993012 61.6562611 102.189002 61.9843207 101.190879 61.9843207 100.249072 61.9843207 99.4858015 61.6695282 98.8974721 61.0423554 98.3103408 60.4139766 98.0095858 59.586591 98 58.5614048zM106.385193 61.762398L106.385193 54.7465059 105.203741 54.7465059 105.203741 53.3751685 106.385193 53.3751685 106.385193 50.6602341 107.876986 50.6602341 107.876986 53.3751685 109.058437 53.3751685 109.058437 54.7465059 107.876986 54.7465059 107.876986 61.762398 106.385193 61.762398zM111.271563 57.5157148C111.271563 58.3636041 111.55075 59.0739979 112.110322 59.6493083 112.665101 60.2246187 113.34809 60.5116708 114.156894 60.5116708 114.893803 60.5116708 115.543242 60.2222065 116.106409 59.6468961 116.668377 59.0691735 116.949961 58.3949628 116.949961 57.6218517 116.949961 56.7992905 116.670774 56.0949273 116.114797 55.5063498 115.556423 54.9201845 114.893803 54.6258957 114.126938 54.6258957 113.338504 54.6258957 112.665101 54.9045051 112.110322 55.4653423 111.55075 56.0249734 111.271563 56.7088329 111.271563 57.5157148zM116.875671 61.762398L116.875671 60.7323874C116.492238 61.1328131 116.063273 61.4379567 115.59237 61.642994 115.11907 61.8492373 114.614616 61.952962 114.080207 61.952962 112.82806 61.952962 111.789197 61.5308265 110.958826 60.6901738 110.132049 59.8495211 109.717462 58.7965945 109.717462 57.5313941 109.717462 56.9404044 109.821708 56.3807733 110.029001 55.8525009 110.235096 55.3242284 110.52986 54.8586733 110.914491 54.4570415 111.333871 54.0156084 111.791593 53.689961 112.287659 53.4788932 112.78732 53.2678255 113.352883 53.1616885 113.989142 53.1616885 114.560696 53.1616885 115.085519 53.2630011 115.56481 53.4656261 116.045299 53.6682512 116.481454 53.9782192 116.875671 54.3894998L116.875671 53.3751685 118.39023 53.3751685 118.39023 61.762398 116.875671 61.762398zM121.632632 61.762398L120.132452 61.762398 120.132452 53.3751685 121.573919 53.3751685 121.573919 54.3291947C121.886656 53.9528911 122.229349 53.6766939 122.607989 53.5018092 122.983034 53.3281305 123.414396 53.238879 123.897281 53.238879 124.988866 53.238879 125.826427 53.5621142 126.411162 54.2073785 126.9935 54.8526428 127.284669 55.7789287 127.284669 56.9850302L127.284669 61.762398 125.777299 61.762398 125.777299 57.3118836C125.777299 56.4217808 125.614341 55.7620433 125.286026 55.3314651 124.957712 54.9020929 124.448466 54.688613 123.760683 54.688613 123.01299 54.688613 122.472589 54.9418943 122.137086 55.4460447 121.800384 55.9538134 121.632632 56.7860234 121.632632 57.9523235L121.632632 61.762398zM130.171198 57.5157148C130.171198 58.3636041 130.450385 59.0739979 131.008759 59.6493083 131.564736 60.2246187 132.246527 60.5116708 133.056529 60.5116708 133.793438 60.5116708 134.441679 60.2222065 135.006044 59.6468961 135.569211 59.0691735 135.849596 58.3949628 135.849596 57.6218517 135.849596 56.7992905 135.571607 56.0949273 135.013234 55.5063498 134.45486 54.9201845 133.793438 54.6258957 133.025375 54.6258957 132.239338 54.6258957 131.564736 54.9045051 131.008759 55.4653423 130.450385 56.0249734 130.171198 56.7088329 130.171198 57.5157148zM135.774108 61.762398L135.774108 60.7323874C135.390675 61.1328131 134.96171 61.4379567 134.492005 61.642994 134.018705 61.8492373 133.514251 61.952962 132.978644 61.952962 131.726497 61.952962 130.687634 61.5308265 129.857263 60.6901738 129.030486 59.8495211 128.617098 58.7965945 128.617098 57.5313941 128.617098 56.9404044 128.720145 56.3807733 128.927438 55.8525009 129.133533 55.3242284 129.428297 54.8586733 129.814126 54.4570415 130.232308 54.0156084 130.69003 53.689961 131.187295 53.4788932 131.685757 53.2678255 132.252518 53.1616885 132.888777 53.1616885 133.45434 53.1616885 133.976767 53.2630011 134.459653 53.4656261 134.94134 53.6682512 135.385882 53.9782192 135.789685 54.3894998L135.789685 50.6602341 137.288667 50.6602341 137.288667 61.762398 135.774108 61.762398zM140.162015 57.5157148C140.162015 58.3636041 140.441202 59.0739979 140.999576 59.6493083 141.555553 60.2246187 142.238543 60.5116708 143.047346 60.5116708 143.784256 60.5116708 144.433695 60.2222065 144.996861 59.6468961 145.557632 59.0691735 145.840413 58.3949628 145.840413 57.6218517 145.840413 56.7992905 145.561226 56.0949273 145.004051 55.5063498 144.446875 54.9201845 143.784256 54.6258957 143.016192 54.6258957 142.227759 54.6258957 141.555553 54.9045051 140.999576 55.4653423 140.441202 56.0249734 140.162015 56.7088329 140.162015 57.5157148zM145.764925 61.762398L145.764925 60.7323874C145.38269 61.1328131 144.952527 61.4379567 144.482822 61.642994 144.009522 61.8492373 143.505069 61.952962 142.969461 61.952962 141.718512 61.952962 140.678451 61.5308265 139.84808 60.6901738 139.021303 59.8495211 138.607915 58.7965945 138.607915 57.5313941 138.607915 56.9404044 138.710962 56.3807733 138.918255 55.8525009 139.125549 55.3242284 139.419114 54.8586733 139.804943 54.4570415 140.224323 54.0156084 140.680847 53.689961 141.178112 53.4788932 141.676574 53.2678255 142.243336 53.1616885 142.879594 53.1616885 143.451148 53.1616885 143.975972 53.2630011 144.454064 53.4656261 144.934553 53.6682512 145.371906 53.9782192 145.764925 54.3894998L145.764925 53.3751685 147.280682 53.3751685 147.280682 61.762398 145.764925 61.762398zM150.538661 61.762398L149.038481 61.762398 149.038481 53.3751685 150.447596 53.3751685 150.447596 54.3424619C150.695629 53.9733948 150.980807 53.6971976 151.300734 53.5174885 151.621859 53.3389855 151.993309 53.2437034 152.417481 53.238879L152.417481 54.8164597C151.745276 54.8683221 151.264787 55.0661227 150.974816 55.4158922 150.682449 55.7644555 150.538661 56.3228805 150.538661 57.0959915L150.538661 61.762398zM154.636598 57.5157148C154.636598 58.3636041 154.915785 59.0739979 155.474159 59.6493083 156.030136 60.2246187 156.713125 60.5116708 157.521929 60.5116708 158.258838 60.5116708 158.908277 60.2222065 159.471444 59.6468961 160.035809 59.0691735 160.314996 58.3949628 160.314996 57.6218517 160.314996 56.7992905 160.038205 56.0949273 159.479832 55.5063498 158.92026 54.9201845 158.258838 54.6258957 157.490775 54.6258957 156.704738 54.6258957 156.030136 54.9045051 155.474159 55.4653423 154.915785 56.0249734 154.636598 56.7088329 154.636598 57.5157148zM160.239508 61.762398L160.239508 60.7323874C159.857273 61.1328131 159.428308 61.4379567 158.957405 61.642994 158.484105 61.8492373 157.979651 61.952962 157.445242 61.952962 156.193095 61.952962 155.154232 61.5308265 154.323861 60.6901738 153.495886 59.8495211 153.082497 58.7965945 153.082497 57.5313941 153.082497 56.9404044 153.185545 56.3807733 153.392838 55.8525009 153.598933 55.3242284 153.893697 54.8586733 154.279526 54.4570415 154.698906 54.0156084 155.156628 53.689961 155.652694 53.4788932 156.151157 53.2678255 156.717918 53.1616885 157.354177 53.1616885 157.920938 53.1616885 158.443365 53.2630011 158.926251 53.4656261 159.40674 53.6682512 159.851282 53.9782192 160.255085 54.3894998L160.255085 50.6602341 161.755265 50.6602341 161.755265 61.762398 160.239508 61.762398zM163.497487 52.3909897L164.98209 52.3909897 164.98209 50.6602341 163.497487 50.6602341 163.497487 52.3909897zM163.497487 61.7636041L164.98209 61.7636041 164.98209 53.3751685 163.497487 53.3751685 163.497487 61.7636041zM171.795209 61.762398L166.03653 61.762398 166.03653 60.5430294 170.060176 54.7465059 166.52301 54.7465059 166.52301 53.3751685 171.567546 53.3751685 171.567546 54.9225967 167.811104 60.3452288 171.795209 60.3452288 171.795209 61.762398zM174.150924 57.5157148C174.150924 58.3636041 174.43011 59.0739979 174.988484 59.6493083 175.544462 60.2246187 176.227451 60.5116708 177.036254 60.5116708 177.773164 60.5116708 178.422603 60.2222065 178.98577 59.6468961 179.547738 59.0691735 179.829322 58.3949628 179.829322 57.6218517 179.829322 56.7992905 179.550135 56.0949273 178.994157 55.5063498 178.434585 54.9201845 177.773164 54.6258957 177.0051 54.6258957 176.216667 54.6258957 175.544462 54.9045051 174.988484 55.4653423 174.43011 56.0249734 174.150924 56.7088329 174.150924 57.5157148zM179.753833 61.762398L179.753833 60.7323874C179.371599 61.1328131 178.942634 61.4379567 178.47173 61.642994 177.998431 61.8492373 177.493977 61.952962 176.95837 61.952962 175.707421 61.952962 174.667359 61.5308265 173.838186 60.6901738 173.010211 59.8495211 172.596823 58.7965945 172.596823 57.5313941 172.596823 56.9404044 172.699871 56.3807733 172.907164 55.8525009 173.114457 55.3242284 173.409221 54.8586733 173.793852 54.4570415 174.213231 54.0156084 174.669756 53.689961 175.16702 53.4788932 175.666681 53.2678255 176.232244 53.1616885 176.868503 53.1616885 177.440057 53.1616885 177.96488 53.2630011 178.442973 53.4656261 178.92466 53.6682512 179.360815 53.9782192 179.753833 54.3894998L179.753833 53.3751685 181.26959 53.3751685 181.26959 61.762398 179.753833 61.762398zM183.518663 61.762398L183.518663 54.7465059 182.337211 54.7465059 182.337211 53.3751685 183.518663 53.3751685 183.518663 50.6602341 185.010455 50.6602341 185.010455 53.3751685 186.191907 53.3751685 186.191907 54.7465059 185.010455 54.7465059 185.010455 61.762398 183.518663 61.762398zM187.275104 52.3909897L188.759708 52.3909897 188.759708 50.6602341 187.275104 50.6602341 187.275104 52.3909897zM187.275104 61.7636041L188.759708 61.7636041 188.759708 53.3751685 187.275104 53.3751685 187.275104 61.7636041zM191.617479 57.5627527C191.617479 58.4009933 191.881089 59.1005321 192.408309 59.6601632 192.935529 60.2197943 193.592157 60.4984037 194.380591 60.4984037 195.154646 60.4984037 195.80049 60.2173821 196.322917 59.6553388 196.845344 59.0932955 197.106557 58.3901383 197.106557 57.5470734 197.106557 56.697978 196.845344 55.996027 196.322917 55.4412203 195.80049 54.8864136 195.148654 54.6102164 194.365014 54.6102164 193.587365 54.6102164 192.935529 54.8924441 192.408309 55.4544874 191.881089 56.0165307 191.617479 56.7184817 191.617479 57.5627527zM190.063379 57.5784321C190.063379 56.9814118 190.16403 56.4278113 190.362936 55.912806 190.561841 55.3941823 190.856605 54.9310394 191.244831 54.5197588 191.663012 54.0662646 192.136312 53.7189074 192.662333 53.4752749 193.185958 53.2316424 193.73235 53.1098262 194.297913 53.1098262 194.903018 53.1098262 195.464986 53.2183753 195.981422 53.4366797 196.501453 53.6561901 196.968761 53.9782192 197.388141 54.4051791 197.796736 54.8273147 198.113068 55.3025186 198.332344 55.8307911 198.551619 56.3602696 198.660658 56.9066336 198.660658 57.471089 198.660658 58.0439872 198.55761 58.6036183 198.352714 59.1475701 198.147817 59.6915218 197.86144 60.1679319 197.493585 60.573182 197.070611 61.0423554 196.594914 61.3969493 196.067695 61.6381696 195.539276 61.880596 194.97611 62 194.380591 62 193.770693 62 193.207527 61.8902448 192.692289 61.6695282 192.175853 61.4476055 191.715734 61.120752 191.304742 60.6877616 190.916516 60.276481 190.610969 59.7976587 190.391693 59.2512948 190.171219 58.7049308 190.063379 58.147712 190.063379 57.5784321zM201.45013 61.762398L199.951148 61.762398 199.951148 53.3751685 201.391417 53.3751685 201.391417 54.3291947C201.704155 53.9528911 202.048046 53.6766939 202.425487 53.5018092 202.800532 53.3281305 203.231894 53.238879 203.71478 53.238879 204.806364 53.238879 205.645123 53.5621142 206.22866 54.2073785 206.810998 54.8526428 207.103366 55.7789287 207.103366 56.9850302L207.103366 61.762398 205.595996 61.762398 205.595996 57.3118836C205.595996 56.4217808 205.433037 55.7620433 205.103525 55.3314651 204.776409 54.9020929 204.265964 54.688613 203.578182 54.688613 202.831686 54.688613 202.290088 54.9418943 201.954584 55.4460447 201.61908 55.9538134 201.45013 56.7860234 201.45013 57.9523235L201.45013 61.762398 201.45013 61.762398z"/>
    <polygon points="89 65 89.961 65 89.961 7 89 7"/>
  </g>
</svg>
