<svg xmlns="http://www.w3.org/2000/svg" width="124" height="88" viewBox="0 0 124 88">
  <g >
    <polygon fill-rule="nonzero" points="0 0 123 0 123 7 0 7"/>
    <polyline points="124 72 115.068 72 88.932 33.333 88.932 72 80 72 80 17 88.932 17 115.068 56 115.068 17 124 17 124 72"/>
    <polygon fill-rule="nonzero" points="56 17 65 17 65 72 56 72"/>
    <polygon fill-rule="nonzero" points="0 81 123 81 123 88 0 88"/>
    <path d="M1,17 L1,71.9953431 C10.3369434,71.9768804 19.6813001,72.0322598 29.0136229,71.9676748 C32.8714341,71.9313616 37.3939457,69.0488834 39.3540781,67.2425512 C41.8013876,64.8248115 44.9252534,60.8261388 44.9960597,55.5742226 C44.980459,48.00258 45.0272738,40.4257721 44.9726649,32.857342 C44.5939822,28.5868468 43.0055763,24.7706195 39.7317073,21.8315084 C36.2638509,18.574518 31.8952649,17.0670101 28.8748919,17 L1,17 Z M9.73099015,25.3305996 C15.4828496,25.3603693 21.2542576,25.271098 26.993931,25.3751723 C29.2034086,25.4310959 30.7256288,26.1476472 32.3311715,27.0988788 C34.5090541,28.6748834 36.0308301,31.1166026 36.2611218,33.6651299 C36.2303392,40.5330715 36.3226615,47.4110413 36.2149416,54.2726964 C36.060394,56.8563224 34.6523422,59.3855365 32.6889094,61.056605 C29.3406417,63.7701733 25.0321103,63.2869947 20.9898195,63.3301022 L9.73099015,63.3301022 L9.73099015,25.3305996 Z"/>
  </g>
</svg>
