<svg xmlns="http://www.w3.org/2000/svg" width="194" height="13" viewBox="0 0 194 13">
  <g>
    <path d="M22.343023 5.95133605C22.343023 6.85542382 22.0205464 7.24305433 21.3076427 7.24305433L2.52453126 7.24305433 2.52453126 2.39364714 21.1141567 2.39364714C22.0205464 2.39364714 22.343023 2.84569103 22.343023 3.36329853L22.343023 5.95133605zM22.667803 0L0 0 0 13 2.52453126 13 2.52453126 9.9599186 23.120422 9.9599186C24.416087 9.9599186 25 8.66589984 25 7.76181207L25 1.93930278C25 .0632631393 23.445202 0 22.667803 0zM50.4989491 9.76826331C50.4989491 10.2123807 50.0599225 10.5753278 49.5169773 10.5753278L31.4830227 10.5753278C30.9400775 10.5753278 30.4998832 10.2123807 30.4998832 9.76826331L30.4998832 3.14244938C30.4998832 2.698332 30.9400775 2.33538489 31.4830227 2.33538489L49.5169773 2.33538489C50.0599225 2.33538489 50.4989491 2.698332 50.4989491 3.14244938L50.4989491 9.76826331zM51.7704918 0L29.2283406 0C28.549951 0 28 .571670681 28 1.27321381L28 11.7267862C28 12.4306485 28.549951 13 29.2283406 13L51.7704918 13C52.4488814 13 53 12.4306485 53 11.7267862L53 1.27321381C53 .571670681 52.4488814 0 51.7704918 0zM78.3017143 6.07786233C78.3017143 6.85542382 77.9805714 7.24305433 77.144 7.24305433L58.5714286 7.24305433 58.5714286 2.45576004 77.144 2.45576004C77.9154286 2.45576004 78.3017143 2.84569103 78.3017143 3.49212529L78.3017143 6.07786233zM79.4582857 9.9599186C79.7805714 9.89320474 80.744 9.44346133 80.744 7.89063882L80.744 2.45576004C80.744.904087772 80.1005714 0 78.816 0L56 0 56 13 58.5074286 13 58.5074286 9.89320474 76.6308571 9.89320474 78.0457143 12.870023 81 12.870023 79.4582857 9.9599186zM108.870076 0L108.870076 2.57551487 89.3667354 2.57551487C88.5408685 2.57551487 88.4132037 3.15446224 88.4132037 3.54004577L88.4132037 4.37757437C88.4132037 4.37757437 88.3499361 5.2791762 89.2402004 5.2791762L106.966401 5.2791762C108.617006 5.2791762 109 6.62814645 109 7.3375286L109 10.8112128C109 12.48627 107.791139 13 106.899745 13L86 13 86 10.4908467 105.443462 10.4908467C106.328077 10.4908467 106.522399 10.1064073 106.522399 9.58810069L106.522399 8.49542334C106.522399 7.70823799 105.24914 7.85354691 104.741871 7.85354691L87.8415365 7.85354691C86.3807348 7.85354691 86 6.75743707 86 5.85812357L86 1.80549199C86 .646453089 87.0800668.0663615561 88.1601336.0663615561 89.2402004.0663615561 108.870076 0 108.870076 0zM137 .0666961521L137 2.45970809 117.570704 2.45970809C116.676895 2.45970809 116.488844 3.10482088 116.488844 3.68783724L116.488844 9.38000885C116.488844 10.2861566 116.741467 10.5437417 117.376989 10.5437417L136.935428 10.5437417 136.935428 13 115.973403 13C114.194848 13 114 11.7718709 114 10.6725343L114 1.74789916C114 0 115.531596 0 116.04024 0 116.548884 0 137 .0666961521 137 .0666961521z"/>
    <polygon points="162.447 0 162.447 5.281 143.555 5.281 143.555 0 141 0 141 13 143.555 13 143.555 7.761 162.447 7.761 162.447 13 165 13 165 0"/>
    <polygon points="194 2.514 194 0 169 0 169 13 194 13 194 10.491 171.532 10.491 171.532 7.659 194 7.659 194 5.15 171.532 5.15 171.532 2.514"/>
  </g>
</svg>
