<svg xmlns="http://www.w3.org/2000/svg" width="199" height="70" viewBox="0 0 199 70">
  <g transform="translate(2 1.321)">
    <path fill-rule="nonzero" d="M-1.24100065,67.7873912 L-1.24100065,-1.24092312 L95.1685644,-1.24092312 L95.1685644,67.7873912 L-1.24100065,67.7873912 Z M92.3338644,64.9526912 L92.3338644,1.59377688 L1.59369935,1.59377688 L1.59369935,64.9526912 L92.3338644,64.9526912 Z"/>
    <g transform="translate(13 14)">
      <path d="M31.6192155 28.8204832C31.6192155 32.0923858 31.7680793 35.2894689 32.2138954 37.5201001L23.9608312 37.5201001 23.2913316 33.5054291 23.0684236 33.5054291C20.9122242 36.3311279 17.1196859 38.3380758 12.3610834 38.3380758 5.07373436 38.3380758.984243718 33.0592253.984243718 27.5563037.984243718 18.4853025 9.08956843 13.8003178 22.4737436 13.8751374L22.4737436 13.2800698C22.4737436 10.9005747 21.5069042 6.95956025 15.1123504 6.95956025 11.5431077 6.95956025 7.82538898 8.07487588 5.37146199 9.63678296L3.58664685 3.68804527C6.26386956 2.05209394 10.9476525.490574529 16.6734821.490574529 28.2732686.490574529 31.6192155 7.85235548 31.6192155 15.8080798L31.6192155 28.8204832zM22.6966517 19.8231385C16.227666 19.749482 10.0560202 21.087318 10.0560202 26.5898519 10.0560202 30.1594822 12.3610834 31.7950458 15.2608265 31.7950458 18.9789329 31.7950458 21.5809484 29.4155508 22.4737436 26.81276 22.6966517 26.1436481 22.6966517 25.4745363 22.6966517 24.8054244L22.6966517 19.8231385zM42.1776919 21.9797256C42.4009876 28.5231432 47.532525 31.3484544 53.3312358 31.3484544 57.569978 31.3484544 60.544153 30.6797302 63.3698518 29.7132784L64.7076879 35.9585807C61.584649 37.2975797 57.272638 38.2640316 52.0670564 38.2640316 40.3196078 38.2640316 33.4040307 31.0515021 33.4040307 19.9731654 33.4040307 9.93412293 39.5008568.490574529 51.1009922.490574529 62.8492161.490574529 66.7157987 10.1566433 66.7157987 18.1139183 66.7157987 19.8231385 66.5673226 21.1621376 66.4180711 21.9797256L42.1776919 21.9797256zM58.090226 15.5855594C58.1642702 12.2384108 56.6775704 6.73703985 50.5807442 6.73703985 44.9293465 6.73703985 42.5494637 11.8670266 42.1776919 15.5855594L58.090226 15.5855594z"/>
      <path d="M66.0152859,0.654169662 C67.4760121,0.654169662 68.63746,1.78421661 68.63746,3.22866083 C68.63746,4.67349272 67.4760121,5.81943398 65.9993916,5.81943398 C64.5239341,5.81943398 63.3462042,4.67349272 63.3462042,3.22866083 C63.3462042,1.78421661 64.5239341,0.654169662 65.9993916,0.654169662 L66.0152859,0.654169662 Z M65.983885,1.17209169 C64.868957,1.17209169 64.0060121,2.09861389 64.0060121,3.22866083 C64.0060121,4.37460209 64.868957,5.28561764 66.0152859,5.28561764 C67.1298262,5.30151195 67.9780398,4.37460209 67.9780398,3.24455515 C67.9780398,2.09861389 67.1298262,1.17209169 65.9993916,1.17209169 L65.983885,1.17209169 Z M65.5911791,4.56339553 L64.9945608,4.56339553 L64.9945608,1.98851669 C65.2302619,1.95672806 65.5593905,1.91020812 65.983885,1.91020812 C66.470406,1.91020812 66.6902128,1.98851669 66.8631119,2.11373287 C67.0201167,2.2234424 67.1298262,2.41223583 67.1298262,2.66344353 C67.1298262,2.97784081 66.8945128,3.18214089 66.5960099,3.27556844 L66.5960099,3.3069694 C66.8476052,3.38566564 66.9724337,3.58996572 67.0515176,3.9353763 C67.1298262,4.32808215 67.1926281,4.46880497 67.2399234,4.56339553 L66.6119042,4.56339553 C66.5332079,4.46880497 66.4863003,4.24977358 66.4083794,3.9353763 C66.3606965,3.66827429 66.2040794,3.54267045 65.8745631,3.54267045 L65.5911791,3.54267045 L65.5911791,4.56339553 Z M65.6074611,3.11856363 L65.8896821,3.11856363 C66.2199737,3.11856363 66.4863003,3.0088541 66.4863003,2.7417521 C66.4863003,2.50643872 66.3137889,2.34982158 65.9365897,2.34982158 C65.7799725,2.34982158 65.670263,2.36571589 65.6074611,2.38083487 L65.6074611,3.11856363 Z"/>
    </g>
    <polygon points="101.357 66.37 194.932 66.37 194.932 .176 101.357 .176" opacity=".196"/>
    <path fill-rule="nonzero" d="M99.9399138,67.7870036 L99.9399138,-1.24092312 L196.349479,-1.24092312 L196.349479,67.7870036 L99.9399138,67.7870036 Z M102.774614,64.9523036 L193.514779,64.9523036 L193.514779,1.59377688 L102.774614,1.59377688 L102.774614,64.9523036 Z"/>
    <g transform="translate(111 9)">
      <path d="M20.059472 9.29009086C20.059472 9.92276208 20.0900976 10.5410897 20.1656925 11.0380777L18.9743943 11.0380777 18.8542178 10.1189212 18.8084732 10.1189212C18.417318 10.6915041 17.618338 11.2043865 16.5782296 11.2043865 15.1012214 11.2043865 14.3475983 10.1642781 14.3475983 9.10905075 14.3475983 7.34555725 15.9149327 6.38104377 18.7332659 6.39616275L18.7332659 6.2453606C18.7332659 5.64215201 18.5673448 4.54234303 17.0756053 4.55784968 16.3820705 4.55784968 15.6738044 4.75284577 15.1613097 5.09980701L14.860093 4.21050077C15.462914 3.83368923 16.3526079 3.57744188 17.2713767 3.57744188 19.517127 3.57744188 20.059472 5.09980701 20.059472 6.56169621L20.059472 9.29009086zM18.7635039 7.31570695C17.3167337 7.28546899 15.6738044 7.54171634 15.6738044 8.9582486 15.6738044 9.83243586 16.2463873 10.2243664 16.9092965 10.2243664 17.8745853 10.2243664 18.4929129 9.62154545 18.7034156 9.00360555 18.7483849 8.86831005 18.7635039 8.7175079 18.7635039 8.58143707L18.7635039 7.31570695zM21.8086218 6.01896355C21.8086218 5.16028294 21.7931152 4.42177884 21.7485336 3.74297534L22.9088185 3.74297534 22.9685191 5.17540192 23.0134883 5.17540192C23.3461059 4.19538179 24.1594296 3.57744188 25.0483482 3.57744188 25.1848067 3.57744188 25.2902519 3.59256086 25.4108161 3.60767984L25.4108161 4.85867864C25.2747452 4.84394732 25.1394497 4.82844068 24.9584096 4.82844068 24.0237464 4.82844068 23.3608372 5.53709447 23.1797971 6.51633927 23.1495592 6.71249836 23.1344402 6.92377644 23.1344402 7.13505451L23.1344402 11.0380777 21.8086218 11.0380777 21.8086218 6.01896355zM31.410338 10.767099C31.0629891 10.9330202 30.2942471 11.1888799 29.3138393 11.1888799 27.1130583 11.1888799 25.6814071 9.69714036 25.6814071 7.46573377 25.6814071 5.22075886 27.2196665 3.57744188 29.6007122 3.57744188 30.3841856 3.57744188 31.0777204 3.77360097 31.4398007 3.9693724L31.1378087 4.97885516C30.8218607 4.81370936 30.324485 4.63266925 29.6007122 4.63266925 27.9279326 4.63266925 27.0238951 5.88328038 27.0238951 7.39091419 27.0238951 9.07881279 28.1089727 10.1189212 29.5553553 10.1189212 30.309366 10.1189212 30.8067418 9.93788107 31.1835533 9.7723476L31.410338 10.767099zM32.5853542.336940195L33.9111726.336940195 33.9111726 4.8889166 33.9414106 4.8889166C34.1526887 4.51210506 34.4841432 4.16553149 34.8911927 3.95425342 35.2831233 3.71351271 35.750261 3.57744188 36.2476367 3.57744188 37.2264939 3.57744188 38.7949913 4.18065047 38.7949913 6.69737938L38.7949913 11.0380777 37.4680099 11.0380777 37.4680099 6.83345021C37.4680099 5.65727099 37.0318855 4.67763853 35.7808867 4.67763853 34.921043 4.67763853 34.2581339 5.28084712 34.0018865 6.0046199 33.9262916 6.18488468 33.9111726 6.38104377 33.9111726 6.63729112L33.9111726 11.0380777 32.5853542 11.0380777 32.5853542.336940195z"/>
      <polygon points="40.574 11.038 40.574 3.743 41.899 3.743 41.899 11.038"/>
      <path d="M41.206275 2.50709553C40.7236306 2.50709553 40.4076826 2.13028399 40.4076826 1.69377186 40.4076826 1.22624644 40.7391372.86455388 41.236513.86455388 41.718382.86455388 42.050612 1.22624644 42.050612 1.69377186 42.050612 2.13028399 41.7338887 2.50709553 41.221394 2.50709553L41.206275 2.50709553zM45.3209639 1.99537616L45.3209639 3.74297534 47.2205283 3.74297534 47.2205283 4.75284577 45.3209639 4.75284577 45.3209639 8.67215095C45.3209639 9.57657618 45.5772113 10.0890709 46.3164907 10.0890709 46.6774079 10.0890709 46.888686 10.0588329 47.0848451 9.99835699L47.1449334 11.0082274C46.888686 11.0989413 46.4816365 11.1888799 45.9687541 11.1888799 45.3508142 11.1888799 44.8530508 10.9783771 44.5374906 10.6318035 44.175798 10.2243664 44.0242205 9.57657618 44.0242205 8.7175079L44.0242205 4.75284577 42.8949489 4.75284577 42.8949489 3.74297534 44.0242205 3.74297534 44.0242205 2.40203799 45.3209639 1.99537616zM48.9991407 7.6316549C49.0286034 9.41026738 50.1598133 10.1487715 51.4860194 10.1487715 52.4354139 10.1487715 53.0231158 9.98362568 53.5057602 9.7723476L53.7461133 10.7217421C53.2793632 10.9330202 52.4652642 11.1888799 51.3045916 11.1888799 49.0739603 11.1888799 47.7175163 9.69714036 47.7175163 7.51147838 47.7175163 5.31108508 49.0286034 3.57744188 51.1537894 3.57744188 53.5352228 3.57744188 54.1539381 5.67277764 54.1539381 7.01371499 54.1539381 7.28546899 54.1384314 7.48124042 54.1074181 7.6316549L48.9991407 7.6316549zM52.871926 6.6822604C52.8874326 5.83869877 52.5257401 4.52722405 51.0495072 4.52722405 49.6919002 4.52722405 49.1193173 5.76310386 49.0134844 6.6822604L52.871926 6.6822604zM60.6190471 10.767099C60.2724736 10.9330202 59.5041192 11.1888799 58.5248744 11.1888799 56.3240934 11.1888799 54.8928298 9.69714036 54.8928298 7.46573377 54.8928298 5.22075886 56.429151 3.57744188 58.810972 3.57744188 59.5948331 3.57744188 60.2879802 3.77360097 60.6492851 3.9693724L60.3488438 4.97885516C60.0317329 4.81370936 59.5339695 4.63266925 58.810972 4.63266925 57.1378047 4.63266925 56.2333795 5.88328038 56.2333795 7.39091419 56.2333795 9.07881279 57.3188449 10.1189212 58.7656151 10.1189212 59.5196258 10.1189212 60.0158385 9.93788107 60.3934254 9.7723476L60.6190471 10.767099zM63.5885702 1.99537616L63.5885702 3.74297534 65.4877468 3.74297534 65.4877468 4.75284577 63.5885702 4.75284577 63.5885702 8.67215095C63.5885702 9.57657618 63.8448175 10.0890709 64.5833216 10.0890709 64.9446265 10.0890709 65.1555169 10.0588329 65.3512883 9.99835699L65.4121519 11.0082274C65.1555169 11.0989413 64.7488551 11.1888799 64.236748 11.1888799 63.6184205 11.1888799 63.1206571 10.9783771 62.8047091 10.6318035 62.4430166 10.2243664 62.2918268 9.57657618 62.2918268 8.7175079L62.2918268 4.75284577 61.1621675 4.75284577 61.1621675 3.74297534 62.2918268 3.74297534 62.2918268 2.40203799 63.5885702 1.99537616zM66.4227977 9.68202138C66.8294595 9.92276208 67.522219 10.1945161 68.1855158 10.1945161 69.1349103 10.1945161 69.5869291 9.72699066 69.5869291 9.10905075 69.5869291 8.47599186 69.2105052 8.1441496 68.2452164 7.78284471 66.9186227 7.30020031 66.3014582 6.57720286 66.3014582 5.71774692 66.3014582 4.54234303 67.2659716 3.57744188 68.8177994 3.57744188 69.5574665 3.57744188 70.2052567 3.77360097 70.5964119 4.02946066L70.2804639 4.97885516C69.9943663 4.81370936 69.4667526 4.55784968 68.7883368 4.55784968 68.0044757 4.55784968 67.5819196 5.00986845 67.5819196 5.55221345 67.5819196 6.15542205 68.0044757 6.42640071 68.9538702 6.80321225 70.2052567 7.27035001 70.8689412 7.9034089 70.8689412 8.98848656 70.8689412 10.2848423 69.8586831 11.1888799 68.1552779 11.1888799 67.3562979 11.1888799 66.6181814 10.9783771 66.1056867 10.6771605L66.4227977 9.68202138zM2.00314382 29.8786933L2.00314382 23.5934614.993661065 23.5934614.993661065 22.5839786 2.00314382 22.5839786 2.00314382 22.2374051C2.00314382 21.212028 2.24427219 20.2777525 2.8622121 19.6904382 3.35958782 19.2073673 4.02288468 19.0119836 4.6257056 19.0119836 5.10796234 19.0119836 5.49989286 19.1170411 5.75614021 19.222874L5.59021908 20.2475145C5.37932868 20.1575759 5.12308132 20.0815934 4.73153847 20.0815934 3.61622284 20.0815934 3.31461855 21.0767325 3.31461855 22.1920481L3.31461855 22.5839786 5.07772438 22.5839786 5.07772438 23.5934614 3.32934986 23.5934614 3.32934986 29.8786933 2.00314382 29.8786933zM8.68030629 30.0450021C6.72104136 30.0450021 5.18278192 28.5974566 5.18278192 26.2916181 5.18278192 23.8497087 6.7962486 22.4184452 8.80048281 22.4184452 10.8962062 22.4184452 12.3123508 23.9408103 12.3123508 26.1559349 12.3123508 28.8692106 10.4286808 30.0450021 8.69542527 30.0450021L8.68030629 30.0450021zM8.74000688 29.0502507C10.0069 29.0502507 10.9562945 27.8593401 10.9562945 26.2012918 10.9562945 24.965412 10.3379669 23.4131966 8.77063251 23.4131966 7.21841708 23.4131966 6.54000125 24.8603545 6.54000125 26.2466488 6.54000125 27.8442212 7.44403881 29.0502507 8.72566323 29.0502507L8.74000688 29.0502507zM13.6090942 24.8603545C13.6090942 24.0008986 13.5935876 23.2620068 13.5482306 22.5839786L14.7089032 22.5839786 14.7693791 24.0160175 14.8147361 24.0160175C15.1461907 23.0363851 15.959902 22.4184452 16.8492083 22.4184452 16.9852791 22.4184452 17.0903366 22.4335641 17.2112885 22.4482955L17.2112885 23.6992943C17.0756053 23.6841753 16.9399221 23.6690563 16.7592697 23.6690563 15.8242188 23.6690563 15.1613097 24.3777101 14.9806572 25.3573426 14.9496439 25.553114 14.9349126 25.7643921 14.9349126 25.9756701L14.9349126 29.8786933 13.6090942 29.8786933 13.6090942 24.8603545zM20.9794038 19.1771294L22.3056099 19.1771294 22.3056099 23.7446512 22.3354602 23.7446512C22.8033733 22.9305522 23.6469349 22.4184452 24.8227265 22.4184452 26.6311892 22.4184452 27.8976947 23.9253036 27.8976947 26.1256969 27.8976947 28.7490341 26.2396464 30.0450021 24.6114484 30.0450021 23.556221 30.0450021 22.7273907 29.6379526 22.1699267 28.6734391L22.1396888 28.6734391 22.0637062 29.8786933 20.9189279 29.8786933C20.9642849 29.3817053 20.9794038 28.6428135 20.9794038 27.9950233L20.9794038 19.1771294zM22.3056099 26.9549149C22.3056099 27.1208361 22.3207289 27.2863695 22.3498038 27.4371717 22.6072142 28.3567159 23.3910752 28.9897748 24.3404697 28.9897748 25.741883 28.9897748 26.5555943 27.8593401 26.5555943 26.1865605 26.5555943 24.7091647 25.8023589 23.4577782 24.385439 23.4577782 23.4810138 23.4577782 22.6374521 24.0912248 22.3812048 25.0859762 22.3354602 25.2515097 22.3056099 25.4325498 22.3056099 25.6438279L22.3056099 26.9549149zM35.2831233 27.8744591C35.2831233 28.6428135 35.2982422 29.3061104 35.3435992 29.8786933L34.1678076 29.8786933 34.0922127 28.6881705 34.0615871 28.6881705C33.7301325 29.2762601 32.9462715 30.0450021 31.6499157 30.0450021 30.5047498 30.0450021 29.1331868 29.3968243 29.1331868 26.8494697L29.1331868 22.5839786 30.4586175 22.5839786 30.4586175 26.6083413C30.4586175 27.9950233 30.8966803 28.9448055 32.0879785 28.9448055 32.9772848 28.9448055 33.594837 28.3264779 33.8355777 27.723657 33.9111726 27.5430045 33.9561419 27.3014885 33.9561419 27.0452411L33.9561419 22.5839786 35.2831233 22.5839786 35.2831233 27.8744591zM36.9256649 28.522637C37.3323268 28.7633777 38.0262492 29.0351317 38.6883831 29.0351317 39.6381653 29.0351317 40.0909594 28.5676063 40.0909594 27.9496664 40.0909594 27.3166075 39.7137602 26.9847652 38.7492467 26.6230727 37.4230406 26.1408159 36.8054884 25.4174308 36.8054884 24.5583625 36.8054884 23.3829586 37.7696142 22.4184452 39.3222173 22.4184452 40.0603337 22.4184452 40.7081239 22.6142166 41.1008298 22.8704639L40.7837188 23.8198584C40.4976212 23.6539373 39.9700075 23.3980776 39.2915917 23.3980776 38.5077306 23.3980776 38.0863375 23.8497087 38.0863375 24.3928291 38.0863375 24.99565 38.5077306 25.2666287 39.4571251 25.6438279 40.7081239 26.110578 41.3721961 26.7440245 41.3721961 27.8291022 41.3721961 29.1258456 40.3623257 30.0302708 38.6589205 30.0302708 37.8595528 30.0302708 37.1222117 29.8189927 36.6089416 29.5170008L36.9256649 28.522637z"/>
      <polygon points="42.698 29.879 42.698 22.584 44.024 22.584 44.024 29.879"/>
      <path d="M43.331461 21.3484865C42.848429 21.3484865 42.5317057 20.9712873 42.5317057 20.5339998 42.5317057 20.0664744 42.863548 19.7047818 43.3609237 19.7047818 43.8435681 19.7047818 44.1750227 20.0664744 44.1750227 20.5339998 44.1750227 20.9712873 43.8586871 21.3484865 43.3461924 21.3484865L43.331461 21.3484865zM45.84819 24.5583625C45.84819 23.7900081 45.8334586 23.1867996 45.7869387 22.5839786L46.9631179 22.5839786 47.0387128 23.7745015 47.0689508 23.7745015C47.431031 23.0964733 48.274205 22.4184452 49.4806222 22.4184452 50.4904926 22.4184452 52.057827 23.0208784 52.057827 25.5232637L52.057827 29.8786933 50.7320086 29.8786933 50.7320086 25.6736782C50.7320086 24.4982743 50.2943335 23.5035228 49.0437224 23.5035228 48.1850417 23.5035228 47.5058506 24.1214627 47.2651099 24.8603545 47.2042463 25.025888 47.1751713 25.2666287 47.1751713 25.4779067L47.1751713 29.8786933 45.84819 29.8786933 45.84819 24.5583625zM54.5904502 26.4730458C54.6203005 28.2516583 55.7515105 28.9897748 57.0773288 28.9897748 58.0267233 28.9897748 58.6140376 28.8238536 59.0970697 28.6125756L59.3374227 29.5627454C58.870285 29.7732481 58.0569613 30.0302708 56.8962887 30.0302708 54.6656575 30.0302708 53.3088258 28.537756 53.3088258 26.352094 53.3088258 24.1517007 54.6203005 22.4184452 56.7447112 22.4184452 59.12692 22.4184452 59.7448599 24.5130056 59.7448599 25.8547183 59.7448599 26.1256969 59.7293532 26.3214684 59.6991153 26.4730458L54.5904502 26.4730458zM58.4636231 25.5232637C58.4787421 24.6793144 58.1166619 23.3678397 56.640429 23.3678397 55.2835974 23.3678397 54.7110144 24.6041071 54.6047939 25.5232637L58.4636231 25.5232637zM60.8295499 28.522637C61.236987 28.7633777 61.9301342 29.0351317 62.5930434 29.0351317 63.5424379 29.0351317 63.9948443 28.5676063 63.9948443 27.9496664 63.9948443 27.3166075 63.6184205 26.9847652 62.652744 26.6230727 61.3269256 26.1408159 60.7093734 25.4174308 60.7093734 24.5583625 60.7093734 23.3829586 61.6738868 22.4184452 63.2268776 22.4184452 63.964994 22.4184452 64.6131719 22.6142166 65.0054901 22.8704639L64.6879915 23.8198584C64.4018938 23.6539373 63.8746678 23.3980776 63.1958643 23.3980776 62.4120033 23.3980776 61.9909978 23.8497087 61.9909978 24.3928291 61.9909978 24.99565 62.4120033 25.2666287 63.3613978 25.6438279 64.6131719 26.110578 65.2760811 26.7440245 65.2760811 27.8291022 65.2760811 29.1258456 64.2662107 30.0302708 62.5635807 30.0302708 61.7638254 30.0302708 61.0260966 29.8189927 60.5128266 29.5170008L60.8295499 28.522637zM66.4227977 28.522637C66.8294595 28.7633777 67.522219 29.0351317 68.1855158 29.0351317 69.1349103 29.0351317 69.5869291 28.5676063 69.5869291 27.9496664 69.5869291 27.3166075 69.2105052 26.9847652 68.2452164 26.6230727 66.9186227 26.1408159 66.3014582 25.4174308 66.3014582 24.5583625 66.3014582 23.3829586 67.2659716 22.4184452 68.8177994 22.4184452 69.5574665 22.4184452 70.2052567 22.6142166 70.5964119 22.8704639L70.2804639 23.8198584C69.9943663 23.6539373 69.4667526 23.3980776 68.7883368 23.3980776 68.0044757 23.3980776 67.5819196 23.8497087 67.5819196 24.3928291 67.5819196 24.99565 68.0044757 25.2666287 68.9538702 25.6438279 70.2052567 26.110578 70.8689412 26.7440245 70.8689412 27.8291022 70.8689412 29.1258456 69.8586831 30.0302708 68.1552779 30.0302708 67.3562979 30.0302708 66.6181814 29.8189927 66.1056867 29.5170008L66.4227977 28.522637zM52.7067802 48.7200455C52.4206825 48.4327849 52.1489285 48.1466872 51.7566104 47.7392501 50.8828108 48.5390054 49.9182973 48.885579 48.7878627 48.885579 46.8130911 48.885579 45.6675375 47.5589853 45.6675375 46.0366201 45.6675375 44.6499382 46.4967555 43.6997684 47.6574281 43.0674848L47.6574281 43.0221278C47.1449334 42.358831 46.7979721 41.6199392 46.7979721 40.8969418 46.7979721 39.661062 47.7020097 38.3945565 49.3910713 38.3945565 50.6568014 38.3945565 51.6360462 39.2233868 51.6360462 40.5499806 51.6360462 41.6199392 51.0184939 42.4642762 49.4054149 43.2636439L49.4054149 43.3086132C50.2640955 44.3033646 51.229772 45.4186802 51.8775622 46.1416777 52.3447 45.4337992 52.6614232 44.4541668 52.856807 43.17293L54.0628365 43.17293C53.7918579 44.7705024 53.3549581 46.0366201 52.6009473 46.9263141 53.14368 47.4985093 53.670906 48.0710923 54.2733393 48.7200455L52.7067802 48.7200455zM49.2852384 39.2993694C48.4560204 39.2993694 48.0191206 39.9929042 48.0191206 40.7763776 48.0191206 41.4997627 48.3653065 42.0576144 48.7878627 42.600347 49.8275834 42.0122574 50.4753736 41.4691371 50.4753736 40.6108441 50.4753736 39.9929042 50.1295754 39.2993694 49.299582 39.2993694L49.2852384 39.2993694zM49.0286034 47.8908275C49.9027906 47.8908275 50.6269511 47.4985093 51.1088202 46.9708957 50.5056116 46.3234931 49.375177 45.071719 48.260249 43.7757509 47.7020097 44.1223245 46.9487743 44.7705024 46.9487743 45.8404611 46.9487743 47.0011336 47.7927236 47.8908275 49.0134844 47.8908275L49.0286034 47.8908275z"/>
      <polygon points="57.862 48.72 57.862 41.424 59.187 41.424 59.187 48.72"/>
      <path d="M58.4938611 40.188288C58.011992 40.188288 57.6956564 39.8118641 57.6956564 39.3749643 57.6956564 38.9070512 58.0274987 38.5457463 58.5248744 38.5457463 59.0063558 38.5457463 59.3389734 38.9070512 59.3389734 39.3749643 59.3389734 39.8118641 59.0222501 40.188288 58.5093677 40.188288L58.4938611 40.188288zM66.2115196 48.4479038C65.8645584 48.6146003 65.096204 48.87046 64.1157962 48.87046 61.9154029 48.87046 60.4837516 47.3783328 60.4837516 45.1477016 60.4837516 42.9019513 62.0212357 41.2586343 64.4018938 41.2586343 65.1861425 41.2586343 65.8792897 41.4540181 66.2409822 41.6501772L65.9397656 42.6604353C65.6230423 42.4945142 65.1260543 42.3134741 64.4018938 42.3134741 62.7298895 42.3134741 61.8254643 43.5652482 61.8254643 45.071719 61.8254643 46.7603929 62.9109297 47.8005013 64.3580875 47.8005013 65.1105476 47.8005013 65.6079233 47.6190735 65.9851225 47.4531524L66.2115196 48.4479038zM69.1802673 39.676181L69.1802673 41.4237801 71.079444 41.4237801 71.079444 42.4340382 69.1802673 42.4340382 69.1802673 46.3537311C69.1802673 47.2569933 69.436127 47.769488 70.1754064 47.769488 70.5363236 47.769488 70.7479894 47.7392501 70.9437608 47.6795495L71.0042367 48.6894199C70.7479894 48.7797461 70.3409399 48.87046 69.8280575 48.87046 69.2105052 48.87046 68.7127419 48.6591819 68.3967939 48.3133837 68.0347137 47.9059465 67.8839115 47.2569933 67.8839115 46.3983127L67.8839115 42.4340382 66.7530893 42.4340382 66.7530893 41.4237801 67.8839115 41.4237801 67.8839115 40.0828428 69.1802673 39.676181z"/>
    </g>
  </g>
</svg>
