<svg xmlns="http://www.w3.org/2000/svg" width="162" height="26" viewBox="0 0 162 26">
  <g>
    <path d="M1.39431021,24.6151768 L1.39431021,19.8186406 C4.13688551,20.6782495 6.56268655,21.1089233 8.67577083,21.1089233 C11.5887608,21.1089233 13.043372,20.3420572 13.043372,18.8112232 C13.043372,18.2396963 12.8315129,17.761202 12.4095337,17.371103 C11.9748023,16.9610064 10.8592816,16.3868712 9.07253566,15.6565225 C5.86016066,14.3410254 3.76794349,13.2231861 2.7938554,12.2954694 C1.5284973,11.0753233 0.899875736,9.5308677 0.899875736,7.66847851 C0.899875736,5.26673261 1.82063678,3.43883211 3.65781154,2.18013989 C5.47238028,0.934779423 7.84137642,0.311084819 10.7590036,0.311084819 C12.3689587,0.311084819 14.6985392,0.608151254 17.7422384,1.19590807 L17.7422384,5.80869772 C15.4758389,4.90851396 13.3743475,4.4572628 11.4293593,4.4572628 C8.69373973,4.4572628 7.32578502,5.20818878 7.32578502,6.70482398 C7.32578502,7.26736637 7.60169453,7.72064628 8.15119498,8.07654636 C8.61172041,8.36288942 9.87707851,8.96571692 11.9423423,9.89372348 C14.9193828,11.2089308 16.9005985,12.3519845 17.8900471,13.3228845 C19.0641116,14.47927 19.6504193,15.9695291 19.6504193,17.8017769 C19.6504193,20.4307424 18.5012794,22.4357235 16.2009708,23.8167201 C14.3403206,24.9391965 11.9243734,25.5 8.96066479,25.5 C6.45545282,25.5 3.93198213,25.2046725 1.39431021,24.6151768 Z"/>
    <polygon points="23.496 25.008 30.31 25.008 30.31 .735 23.496 .735"/>
    <polygon points="36.563 25.008 36.563 .735 54.042 .735 54.042 5.124 43.129 5.124 43.129 10.606 52.63 10.606 52.63 14.609 43.129 14.609 43.129 20.372 54.324 20.372 54.324 25.008"/>
    <polygon points="58.774 25.008 58.774 .735 67.61 .735 73.749 16.244 80.041 .735 88.433 .735 88.433 25.008 81.972 25.008 81.972 7.823 74.816 25.252 70.594 25.252 63.575 7.823 63.575 25.008"/>
    <polygon points="94.684 25.008 94.684 .735 112.162 .735 112.162 5.124 101.251 5.124 101.251 10.606 110.749 10.606 110.749 14.609 101.251 14.609 101.251 20.372 112.445 20.372 112.445 25.008"/>
    <polygon points="116.931 25.008 116.931 .735 124.828 .735 133.208 16.983 133.208 .735 138.009 .735 138.009 25.008 130.333 25.008 121.732 8.54 121.732 25.008"/>
    <path d="M142.844595,24.6151768 L142.844595,19.8186406 C145.566593,20.6782495 147.991814,21.1089233 150.125476,21.1089233 C153.041364,21.1089233 154.498294,20.3420572 154.498294,18.8112232 C154.498294,18.2396963 154.288463,17.761202 153.878077,17.371103 C153.445084,16.9610064 152.325796,16.3868712 150.524849,15.6565225 C147.324357,14.354647 145.226633,13.2321706 144.24443,12.2954694 C142.983709,11.084018 142.349581,9.53724376 142.349581,7.64790123 C142.349581,5.26006673 143.270632,3.43883211 145.108386,2.18013989 C146.924694,0.934779423 149.29398,0.311084819 152.214215,0.311084819 C153.8575,0.311084819 155.982177,0.574242208 158.592884,1.09360128 L159.194552,1.19590807 L159.194552,5.80869772 C156.928152,4.90851396 154.819705,4.4572628 152.866022,4.4572628 C150.139677,4.4572628 148.780707,5.20818878 148.780707,6.70482398 C148.780707,7.26736637 149.052269,7.72064628 149.604088,8.07654636 C150.041428,8.34926784 151.313452,8.95673247 153.412914,9.89372348 C156.367349,11.2089308 158.346536,12.3519845 159.34236,13.3228845 C160.514106,14.47927 161.100124,15.9695291 161.100124,17.8017769 C161.100124,20.4307424 159.95823,22.4357235 157.669514,23.8167201 C155.797851,24.9391965 153.379295,25.5 150.415007,25.5 C147.907766,25.5 145.384295,25.2046725 142.844595,24.6151768 Z"/>
  </g>
</svg>
