<svg xmlns="http://www.w3.org/2000/svg" width="32" height="32" viewBox="0 0 32 32">
  <g fill-rule="evenodd">
    <path d="M4.0398961 15.259159C4.0398961 16.1978256 3.2694026 16.9592615 2.31812987 16.9592615 1.36768831 16.9592615.596363636 16.1978256.596363636 15.259159.596363636 14.3204923 1.36768831 13.5590564 2.31812987 13.5590564 3.2694026 13.5590564 4.0398961 14.3204923 4.0398961 15.259159M31.2403532 15.259159C31.2403532 16.1978256 30.4694442 16.9592615 29.5190026 16.9592615 28.5681455 16.9592615 27.7972364 16.1978256 27.7972364 15.259159 27.7972364 14.3204923 28.5681455 13.5590564 29.5190026 13.5590564 30.4694442 13.5590564 31.2403532 14.3204923 31.2403532 15.259159M17.6246857 22.0043487C17.6246857 22.9434256 16.8537766 23.7044513 15.9029195 23.7044513 14.9520623 23.7044513 14.1811532 22.9434256 14.1811532 22.0043487 14.1811532 21.0660923 14.9520623 20.3050667 15.9029195 20.3050667 16.8537766 20.3050667 17.6246857 21.0660923 17.6246857 22.0043487M10.8320831 18.6582154C10.8320831 19.5964718 10.0615896 20.3579077 9.11114805 20.3579077 8.16029091 20.3579077 7.38896623 19.5964718 7.38896623 18.6582154 7.38896623 17.7191385 8.16029091 16.9589333 9.11114805 16.9589333 10.0615896 16.9589333 10.8320831 17.7191385 10.8320831 18.6582154M24.4189506 18.6582154C24.4189506 19.5964718 23.6480416 20.3579077 22.6980156 20.3579077 21.7471584 20.3579077 20.9762494 19.5964718 20.9762494 18.6582154 20.9762494 17.7191385 21.7471584 16.9589333 22.6980156 16.9589333 23.6480416 16.9589333 24.4189506 17.7191385 24.4189506 18.6582154M3.45587532 20.3917949C3.45587532 21.0207179 2.93971948 21.5306667 2.30221299 21.5306667 1.66470649 21.5306667 1.14855065 21.0207179 1.14855065 20.3917949 1.14855065 19.7628718 1.66470649 19.2525128 2.30221299 19.2525128 2.93971948 19.2525128 3.45587532 19.7628718 3.45587532 20.3917949M30.6567481 20.3917949C30.6567481 21.0207179 30.1405922 21.5306667 29.5035013 21.5306667 28.8655792 21.5306667 28.3494234 21.0207179 28.3494234 20.3917949 28.3494234 19.7628718 28.8655792 19.2525128 29.5035013 19.2525128 30.1405922 19.2525128 30.6567481 19.7628718 30.6567481 20.3917949M17.0410805 27.1373538C17.0410805 27.7662769 16.5236779 28.2766359 15.8874182 28.2766359 15.2499117 28.2766359 14.7325091 27.7662769 14.7325091 27.1373538 14.7325091 26.5080205 15.2499117 25.9984821 15.8874182 25.9984821 16.5236779 25.9984821 17.0410805 26.5080205 17.0410805 27.1373538M10.2488935 23.7908103C10.2488935 24.4197333 9.73149091 24.9300923 9.09481558 24.9300923 8.45730909 24.9300923 7.94032208 24.4197333 7.94032208 23.7908103 7.94032208 23.1614769 8.45730909 22.6519385 9.09481558 22.6519385 9.73149091 22.6519385 10.2488935 23.1614769 10.2488935 23.7908103M23.8361351 23.7908103C23.8361351 24.4197333 23.3187325 24.9300923 22.6824727 24.9300923 22.0445506 24.9300923 21.5267325 24.4197333 21.5267325 23.7908103 21.5267325 23.1614769 22.0445506 22.6519385 22.6824727 22.6519385 23.3187325 22.6519385 23.8361351 23.1614769 23.8361351 23.7908103M2.90555844 24.4037744C2.90555844 24.7233641 2.64249351 24.9826462 2.31792208 24.9826462 1.99418182 24.9826462 1.73153247 24.7233641 1.73153247 24.4037744 1.73153247 24.0841846 1.99418182 23.8249026 2.31792208 23.8249026 2.64249351 23.8249026 2.90555844 24.0841846 2.90555844 24.4037744M30.1060156 24.4037744C30.1060156 24.7233641 29.8429506 24.9826462 29.5192104 24.9826462 29.194639 24.9826462 28.9328208 24.7233641 28.9328208 24.4037744 28.9328208 24.0841846 29.194639 23.8249026 29.5192104 23.8249026 29.8429506 23.8249026 30.1060156 24.0841846 30.1060156 24.4037744M16.4901818 31.1493744C16.4901818 31.4689641 16.2271169 31.7286564 15.902961 31.7286564 15.5788052 31.7286564 15.3165714 31.4689641 15.3165714 31.1493744 15.3165714 30.8293744 15.5788052 30.5700923 15.902961 30.5700923 16.2271169 30.5700923 16.4901818 30.8293744 16.4901818 31.1493744M9.69753766 27.8024205C9.69753766 28.1228308 9.43447273 28.3825231 9.11114805 28.3825231 8.78657662 28.3825231 8.52351169 28.1228308 8.52351169 27.8024205 8.52351169 27.4828308 8.78657662 27.2235487 9.11114805 27.2235487 9.43447273 27.2235487 9.69753766 27.4828308 9.69753766 27.8024205M23.284613 27.8024205C23.284613 28.1228308 23.0219636 28.3825231 22.6982234 28.3825231 22.3736519 28.3825231 22.1118338 28.1228308 22.1118338 27.8024205 22.1118338 27.4828308 22.3736519 27.2235487 22.6982234 27.2235487 23.0219636 27.2235487 23.284613 27.4828308 23.284613 27.8024205M18.2188468 2.28841026C18.2188468 3.55282051 17.1803013 4.57764103 15.9007169 4.57764103 14.6198857 4.57764103 13.5817558 3.55282051 13.5817558 2.28841026 13.5817558 1.02441026 14.6198857 0 15.9007169 0 17.1803013 0 18.2188468 1.02441026 18.2188468 2.28841026M18.2188468 8.99835897C18.2188468 10.262359 17.1803013 11.2871795 15.9007169 11.2871795 14.6198857 11.2871795 13.5817558 10.262359 13.5817558 8.99835897 13.5817558 7.73394872 14.6198857 6.70912821 15.9007169 6.70912821 17.1803013 6.70912821 18.2188468 7.73394872 18.2188468 8.99835897M18.2188468 15.7078974C18.2188468 16.9718974 17.1803013 17.9963077 15.9007169 17.9963077 14.6198857 17.9963077 13.5817558 16.9718974 13.5817558 15.7078974 13.5817558 14.4438974 14.6198857 13.4186667 15.9007169 13.4186667 17.1803013 13.4186667 18.2188468 14.4438974 18.2188468 15.7078974M31.8381714 8.99835897C31.8381714 10.262359 30.799626 11.2871795 29.5192104 11.2871795 28.2383792 11.2871795 27.2006649 10.262359 27.2006649 8.99835897 27.2006649 7.73394872 28.2383792 6.70912821 29.5192104 6.70912821 30.799626 6.70912821 31.8381714 7.73394872 31.8381714 8.99835897M4.63709091 8.99835897C4.63709091 10.262359 3.59896104 11.2871795 2.31812987 11.2871795 1.03771429 11.2871795 0 10.262359 0 8.99835897 0 7.73394872 1.03771429 6.70912821 2.31812987 6.70912821 3.59896104 6.70912821 4.63709091 7.73394872 4.63709091 8.99835897M11.4290701 5.64299487C11.4290701 6.90781538 10.3905247 7.93222564 9.11094026 7.93222564 7.83052468 7.93222564 6.79197922 6.90781538 6.79197922 5.64299487 6.79197922 4.37899487 7.83052468 3.35458462 9.11094026 3.35458462 10.3905247 3.35458462 11.4290701 4.37899487 11.4290701 5.64299487M11.4290701 12.3529026C11.4290701 13.6173128 10.3905247 14.6417231 9.11094026 14.6417231 7.83052468 14.6417231 6.79197922 13.6173128 6.79197922 12.3529026 6.79197922 11.0889026 7.83052468 10.0640821 9.11094026 10.0640821 10.3905247 10.0640821 11.4290701 11.0889026 11.4290701 12.3529026M25.0159377 5.64299487C25.0159377 6.90781538 23.9778078 7.93222564 22.6973922 7.93222564 21.4173922 7.93222564 20.3792623 6.90781538 20.3792623 5.64299487 20.3792623 4.37899487 21.4173922 3.35458462 22.6973922 3.35458462 23.9778078 3.35458462 25.0159377 4.37899487 25.0159377 5.64299487M25.0159377 12.3529026C25.0159377 13.6173128 23.9778078 14.6417231 22.6973922 14.6417231 21.4173922 14.6417231 20.3792623 13.6173128 20.3792623 12.3529026 20.3792623 11.0889026 21.4173922 10.0640821 22.6973922 10.0640821 23.9778078 10.0640821 25.0159377 11.0889026 25.0159377 12.3529026"/>
  </g>
</svg>
