<svg xmlns="http://www.w3.org/2000/svg" width="267" height="66" viewBox="0 0 267 66">
  <g fill="#acb8c5">
      <polygon points=".389 65.627 97.389 65.627 97.389 .627 .389 .627"/>
      <path d="M105.906409 19.0162759L105.906409 3.68937931 117.17447 3.68937931 117.17447 6.28211494 108.974916 6.28211494 108.974916 9.68009195 116.604394 9.68009195 116.604394 12.2623448 108.974916 12.2623448 108.974916 16.434023 117.464697 16.434023 117.464697 19.0162759 105.906409 19.0162759zM127.312116 19.0162759L127.312116 17.353931C126.911033 17.9465747 126.384032 18.4135172 125.731022 18.7551264 125.078103 19.0967356 124.388906 19.2674023 123.663522 19.2674023 122.923719 19.2674023 122.259962 19.1035402 121.673079 18.776 121.08537 18.4483678 120.660591 17.9885977 120.39801 17.395954 120.135428 16.8036782 120.004091 15.9842759 120.004091 14.9386667L120.004091 7.9131954 122.916922 7.9131954 122.916922 13.0151724C122.916555 14.5766437 122.970008 15.5335172 123.077649 15.8851494 123.184556 16.2371494 123.379724 16.515954 123.663155 16.7213793 123.946218 16.9275402 124.305695 17.0302529 124.741219 17.029977 125.23883 17.0302529 125.684732 16.8926897 126.078743 16.6168276 126.472662 16.3417011 126.74204 16.000092 126.88697 15.5924598 127.0319 15.1847356 127.104456 14.1862069 127.104732 12.5970575L127.104732 7.9131954 130.017563 7.9131954 130.017563 19.0162759 127.312116 19.0162759zM135.833216 19.0162759L132.920384 19.0162759 132.920384 7.9131954 135.625832 7.9131954 135.625832 9.49186207C136.088634 8.7462069 136.504779 8.2548046 136.874634 8.01774713 137.244215 7.78096552 137.663941 7.66243678 138.134274 7.66216092 138.797296 7.66243678 139.436622 7.84708046 140.052252 8.21636782L139.150344 10.7777471C138.659163 10.4573793 138.203157 10.2971954 137.781961 10.2968276 137.374082 10.2971954 137.028565 10.4102989 136.745134 10.6365977 136.461704 10.8632644 136.238982 11.2727356 136.076786 11.8651034 135.914222 12.4577471 135.832848 13.6983908 135.833216 15.5870345L135.833216 19.0162759zM140.622328 13.307954C140.62196 12.3324138 140.860571 11.388046 141.3377 10.4745747 141.814554 9.56193103 142.490067 8.86473563 143.364421 8.38372414 144.238317 7.9028046 145.214526 7.66243678 146.292591 7.66216092 147.957998 7.66243678 149.322799 8.20772414 150.387179 9.29857471 151.451283 10.3895172 151.983335 11.7677241 151.983702 13.4332874 151.983335 15.1132874 151.446323 16.5058391 150.371749 17.6103908 149.296899 18.7153103 147.944037 19.2674023 146.313439 19.2674023 145.304258 19.2674023 144.342009 19.0375172 143.426416 18.5773793 142.510915 18.1172414 141.814554 17.4426667 141.3377 16.554023 140.860571 15.6653793 140.62196 14.5834483 140.622328 13.307954zM143.607991 13.4645517C143.607624 14.5658851 143.866991 15.4092874 144.385451 15.9947586 144.903451 16.5802299 145.542409 16.8729195 146.303061 16.8729195 147.062886 16.8729195 147.700467 16.5802299 148.21562 15.9947586 148.730038 15.4092874 148.98766 14.5589885 148.988028 13.4437701 148.98766 12.3567816 148.730038 11.5205517 148.21562 10.9347126 147.700467 10.3496092 147.062886 10.0568276 146.303061 10.0565517 145.542409 10.0568276 144.903451 10.3496092 144.385451 10.9347126 143.866991 11.5205517 143.607624 12.3635862 143.607991 13.4645517zM154.19154 7.9131954L156.907458 7.9131954 156.907458 9.54390805C157.259771 8.98685057 157.736533 8.53388506 158.338203 8.18510345 158.939138 7.83668966 159.606017 7.66243678 160.338657 7.66216092 161.617309 7.66243678 162.70217 8.16790805 163.593699 9.17829885 164.484953 10.1890575 164.930488 11.5967816 164.930855 13.402023 164.930488 15.2561839 164.481279 16.6972874 163.583321 17.7253333 162.684627 18.7533793 161.596093 19.2674023 160.317808 19.2674023 159.709342 19.2674023 159.158278 19.1455632 158.664617 18.9013333 158.170312 18.6578391 157.650384 18.2393563 157.104371 17.6467126L157.104371 23.240092 154.19154 23.240092 154.19154 7.9131954zM157.073512 13.2763218C157.073144 14.5245057 157.318551 15.4462529 157.809366 16.0421149 158.30018 16.638069 158.897809 16.9361839 159.602803 16.9358161 160.279785 16.9361839 160.843064 16.6624368 161.292273 16.1150345 161.74139 15.568 161.96604 14.6707126 161.966407 13.4228966 161.96604 12.2591264 161.734593 11.3948506 161.271791 10.8302529 160.808622 10.265931 160.234965 9.98363218 159.550819 9.98326437 158.839028 9.98363218 158.248104 10.2605057 157.778139 10.8144368 157.308173 11.3686437 157.073144 12.1894253 157.073512 13.2763218zM173.62802 15.4824828L176.530473 15.9738851C176.156944 17.0475402 175.567857 17.8647356 174.763212 18.4257471 173.95774 18.9868506 172.950671 19.2674023 171.74127 19.2674023 169.826966 19.2674023 168.41018 18.6365977 167.491373 17.3748046 166.765622 16.3643218 166.402839 15.0888276 166.402839 13.5482299 166.402839 11.7084138 166.879693 10.2674023 167.833309 9.22537931 168.786833 8.18326437 169.992652 7.66243678 171.451043 7.66216092 173.088804 7.66243678 174.381141 8.20772414 175.327868 9.29857471 176.274688 10.3895172 176.727387 12.0605057 176.686149 14.3115402L169.388502 14.3115402C169.408984 15.1829885 169.643553 15.8607816 170.093129 16.3449195 170.541971 16.8295172 171.101944 17.072 171.772496 17.0716322 172.228502 17.072 172.612042 16.9462069 172.923118 16.6951724 173.233734 16.4444138 173.468763 16.0403678 173.62802 15.4824828zM173.793799 12.5133793C173.77295 11.6635402 173.555188 11.0170115 173.14088 10.574069 172.725745 10.1315862 172.221338 9.91034483 171.627567 9.90997701 170.991455 9.91034483 170.466291 10.1438161 170.051891 10.6103908 169.636757 11.0777011 169.433047 11.712 169.440211 12.5133793L173.793799 12.5133793zM181.247121 11.3004138L178.603759 10.8194023C178.900783 9.74648276 179.412078 8.952 180.137829 8.43586207 180.863305 7.92036782 181.941369 7.66243678 183.372115 7.66216092 184.67088 7.66243678 185.638456 7.81765517 186.274568 8.12763218 186.91022 8.43797701 187.357684 8.83163218 187.617051 9.30905747 187.876051 9.7863908 188.005918 10.6628046 188.005918 11.9382989L187.974691 15.3675402C187.974691 16.3435402 188.021348 17.0633563 188.114662 17.5267126 188.207883 17.9904368 188.382295 18.4868046 188.63808 19.0162759L185.756476 19.0162759C185.680429 18.8212414 185.587116 18.532046 185.476627 18.1485057 185.427858 17.9742529 185.393049 17.8593103 185.372935 17.8036782 184.874957 18.2917701 184.342905 18.6578391 183.776412 18.9013333 183.209643 19.1455632 182.605034 19.2674023 181.962493 19.2674023 180.828863 19.2674023 179.935497 18.9573333 179.282578 18.3370115 178.629567 17.7166897 178.303154 16.9325977 178.303154 15.9842759 178.303154 15.3571494 178.451666 14.7975172 178.748689 14.3061149 179.045804 13.8148046 179.461949 13.4387126 179.997951 13.1771954 180.533217 12.916046 181.305625 12.6876322 182.314807 12.4922299 183.676026 12.2346667 184.619172 11.9943908 185.144795 11.7709425L185.144795 11.4782529C185.144428 10.913931 185.006294 10.5112644 184.730028 10.2706207 184.453394 10.0302529 183.931812 9.91034483 183.164731 9.90997701 182.646363 9.91034483 182.241974 10.0130575 181.951748 10.2184828 181.661521 10.4243678 181.426492 10.7849195 181.247121 11.3004138zM185.144795 13.6844138C184.771266 13.8101149 184.180433 13.9602759 183.372115 14.134069 182.563428 14.3086897 182.034958 14.4792644 181.786337 14.645977 181.405735 14.9182529 181.215618 15.2630805 181.215894 15.6811954 181.215618 16.0924138 181.367712 16.448 181.671899 16.7475862 181.976178 17.0475402 182.3633 17.1973333 182.833266 17.1969655 183.358522 17.1973333 183.859347 17.0230805 184.336109 16.6742989 184.688422 16.4095632 184.919869 16.0856092 185.030725 15.701977 185.106404 15.4513103 185.144428 14.9738851 185.144795 14.2698851L185.144795 13.6844138zM200.901363 19.0162759L197.988623 19.0162759 197.988623 13.3496092C197.988256 12.1513563 197.925802 11.3758161 197.801629 11.0234483 197.676813 10.6718161 197.474848 10.398069 197.195367 10.2026667 196.915151 10.0076322 196.578267 9.91034483 196.184716 9.90997701 195.679941 9.91034483 195.227151 10.0496552 194.826803 10.3284598 194.42572 10.6075402 194.151199 10.9767356 194.002687 11.4365057 193.854175 11.8966437 193.779873 12.7472184 193.779873 13.9875862L193.779873 19.0162759 190.867134 19.0162759 190.867134 7.9131954 193.572582 7.9131954 193.572582 9.54390805C194.532994 8.28965517 195.742395 7.66243678 197.200694 7.66216092 197.843326 7.66243678 198.430577 7.77921839 198.962629 8.01232184 199.494681 8.24616092 199.897233 8.54390805 200.170193 8.9063908 200.443245 9.26878161 200.633362 9.68009195 200.740636 10.1402299 200.847543 10.6003678 200.901088 11.2591264 200.901363 12.1161379L200.901363 19.0162759zM209.753561 3.68937931L212.822068 3.68937931 212.822068 11.9904368C212.8217 13.307954 212.859816 14.1617471 212.93623 14.5518161 213.067107 15.1794023 213.38002 15.6833103 213.874324 16.0629885 214.368353 16.4430345 215.043957 16.6326437 215.900678 16.6326437 216.771359 16.6326437 217.427951 16.4534253 217.870272 16.0942529 218.312317 15.7357241 218.578113 15.2946207 218.668579 14.7716782 218.758219 14.2490115 218.803406 13.3812414 218.803406 12.1681839L218.803406 3.68937931 221.871638 3.68937931 221.871638 11.7396782C221.871271 13.5802299 221.788335 14.8801839 221.622649 15.6394483 221.456503 16.3995402 221.150846 17.0407356 220.70522 17.5629425 220.259684 18.085977 219.663433 18.5022529 218.917201 18.8125977 218.170601 19.1225747 217.196137 19.2774253 215.993991 19.2777931 214.542397 19.2774253 213.442015 19.1085977 212.692568 18.7705747 211.942386 18.4325517 211.349717 17.9936552 210.91456 17.4534253 210.479036 16.9135632 210.192391 16.3471264 210.054258 15.7543908 209.853671 14.8762299 209.753193 13.5798621 209.753561 11.8651034L209.753561 3.68937931zM235.109293 19.0162759L232.196554 19.0162759 232.196554 13.3496092C232.196186 12.1513563 232.133732 11.3758161 232.009559 11.0234483 231.884743 10.6718161 231.682778 10.398069 231.403297 10.2026667 231.123081 10.0076322 230.786198 9.91034483 230.392646 9.90997701 229.887872 9.91034483 229.435081 10.0496552 229.034733 10.3284598 228.63365 10.6075402 228.359129 10.9767356 228.210617 11.4365057 228.062105 11.8966437 227.987804 12.7472184 227.987804 13.9875862L227.987804 19.0162759 225.075064 19.0162759 225.075064 7.9131954 227.780512 7.9131954 227.780512 9.54390805C228.740924 8.28965517 229.950326 7.66243678 231.408624 7.66216092 232.051256 7.66243678 232.638507 7.77921839 233.170559 8.01232184 233.702611 8.24616092 234.105163 8.54390805 234.378215 8.9063908 234.651176 9.26878161 234.841293 9.68009195 234.948566 10.1402299 235.055565 10.6003678 235.109018 11.2591264 235.109293 12.1161379L235.109293 19.0162759zM238.073833 6.40744828L240.987032 6.40744828 240.987032 3.68937931 238.073833 3.68937931 238.073833 6.40744828zM238.073833 19.0162759L240.987032 19.0162759 240.987032 7.9131954 238.073833 7.9131954 238.073833 19.0162759zM243.288091 13.307954C243.287723 12.3324138 243.526334 11.388046 244.003463 10.4745747 244.480317 9.56193103 245.15583 8.86473563 246.030184 8.38372414 246.90408 7.9028046 247.880289 7.66243678 248.958446 7.66216092 250.623761 7.66243678 251.988562 8.20772414 253.053034 9.29857471 254.117046 10.3895172 254.649098 11.7677241 254.649466 13.4332874 254.649098 15.1132874 254.112087 16.5058391 253.037604 17.6103908 251.962662 18.7153103 250.6098 19.2674023 248.979202 19.2674023 247.970021 19.2674023 247.007772 19.0375172 246.092179 18.5773793 245.176678 18.1172414 244.480317 17.4426667 244.003463 16.554023 243.526334 15.6653793 243.287723 14.5834483 243.288091 13.307954zM246.273755 13.4645517C246.273387 14.5658851 246.532755 15.4092874 247.051214 15.9947586 247.569306 16.5802299 248.208264 16.8729195 248.968824 16.8729195 249.728649 16.8729195 250.36623 16.5802299 250.881383 15.9947586 251.395893 15.4092874 251.653423 14.5589885 251.653791 13.4437701 251.653423 12.3567816 251.395893 11.5205517 250.881383 10.9347126 250.36623 10.3496092 249.728649 10.0568276 248.968824 10.0565517 248.208264 10.0568276 247.569306 10.3496092 247.051214 10.9347126 246.532755 11.5205517 246.273387 12.3635862 246.273755 13.4645517zM266.954078 19.0162759L264.041246 19.0162759 264.041246 13.3496092C264.040879 12.1513563 263.978517 11.3758161 263.854344 11.0234483 263.729528 10.6718161 263.527471 10.398069 263.24799 10.2026667 262.967866 10.0076322 262.630982 9.91034483 262.237431 9.90997701 261.732565 9.91034483 261.279866 10.0496552 260.879426 10.3284598 260.478343 10.6075402 260.203913 10.9767356 260.055402 11.4365057 259.90689 11.8966437 259.832588 12.7472184 259.832588 13.9875862L259.832588 19.0162759 256.919757 19.0162759 256.919757 7.9131954 259.625205 7.9131954 259.625205 9.54390805C260.585617 8.28965517 261.795018 7.66243678 263.253409 7.66216092 263.895949 7.66243678 264.483291 7.77921839 265.015344 8.01232184 265.547396 8.24616092 265.949856 8.54390805 266.222908 8.9063908 266.49596 9.26878161 266.686077 9.68009195 266.793351 10.1402299 266.900257 10.6003678 266.953711 11.2591264 266.954078 12.1161379L266.954078 19.0162759zM106.387487 40.9836322L106.387487 29.9063908 114.360003 29.9063908 114.360003 31.2135172 107.846612 31.2135172 107.846612 34.606069 113.946338 34.606069 113.946338 35.906023 107.846612 35.906023 107.846612 39.6765057 114.615789 39.6765057 114.615789 40.9836322 106.387487 40.9836322zM121.707888 40.9836322L121.707888 39.8046897C121.085737 40.7113563 120.240865 41.1645977 119.173178 41.1649655 118.701743 41.1645977 118.261535 41.0741149 117.853289 40.8930575 117.444307 40.7117241 117.14113 40.483954 116.943115 40.2091954 116.745099 39.9347126 116.605864 39.5981609 116.525868 39.2001839 116.47021 38.9337011 116.442657 38.5105287 116.442933 37.9307586L116.442933 32.9588046 117.796988 32.9588046 117.796988 37.4095632C117.796621 38.120092 117.824266 38.5985287 117.879464 38.8453333 117.964879 39.2030345 118.145352 39.483954 118.421252 39.6876322 118.696784 39.892046 119.037525 39.994023 119.444026 39.9936552 119.849793 39.994023 120.230854 39.8894713 120.587116 39.680092 120.943012 39.4713563 121.195215 39.1865747 121.342992 38.8262989 121.490769 38.4663908 121.564704 37.9437241 121.565071 37.2583908L121.565071 32.9588046 122.918667 32.9588046 122.918667 40.9836322 121.707888 40.9836322zM125.032181 40.9836322L125.032181 32.9588046 126.250583 32.9588046 126.250583 34.1754483C126.561199 33.6064368 126.848212 33.2314483 127.11162 33.0496552 127.37457 32.8686897 127.664062 32.7777471 127.980556 32.7777471 128.43647 32.7777471 128.900373 32.923954 129.371809 33.216L128.905792 34.4778851C128.574603 34.2813793 128.243505 34.1829885 127.912683 34.1829885 127.616395 34.1829885 127.350874 34.2723678 127.11557 34.4513103 126.879806 34.6301609 126.711915 34.8783448 126.611805 35.1954943 126.461181 35.6793563 126.385777 36.2084598 126.386145 36.7824368L126.386145 40.9836322 125.032181 40.9836322zM129.687844 36.9714023C129.687568 35.4854253 130.098662 34.3848276 130.921308 33.6693333 131.608026 33.0752184 132.445367 32.7777471 133.433424 32.7777471 134.531235 32.7777471 135.428827 33.1394943 136.125922 33.8621609 136.822651 34.5852874 137.171015 35.5838161 137.171382 36.8578391 137.171015 37.8909425 137.016717 38.7030805 136.70858 39.2949885 136.399985 39.8869885 135.951235 40.3467586 135.362148 40.673931 134.772693 41.0011954 134.129785 41.1645977 133.433424 41.1649655 132.315132 41.1645977 131.411388 40.8046897 130.721823 40.0845057 130.032259 39.3643218 129.687568 38.3266207 129.687844 36.9714023zM131.079188 36.9714023C131.079188 37.9990805 131.302001 38.7684598 131.748271 39.279908 132.194174 39.7914483 132.756075 40.0471724 133.433424 40.0468046 134.104988 40.0471724 134.66395 39.7903448 135.11022 39.275954 135.556214 38.7622989 135.779395 37.9789425 135.779762 36.9261609 135.779395 35.9337011 135.555112 35.1818851 135.106638 34.6703448 134.657888 34.1596322 134.099936 33.9038161 133.433424 33.9035402 132.756075 33.9038161 132.194174 34.1581609 131.748271 34.6667586 131.302001 35.1754483 131.079188 35.9437241 131.079188 36.9714023zM138.765702 44.0590345L138.765702 32.9588046 139.999166 32.9588046 139.999166 34.001931C140.289761 33.5938391 140.618011 33.2878161 140.984377 33.0837701 141.350283 32.8798161 141.794073 32.7777471 142.315747 32.7777471 142.997321 32.7777471 143.598991 32.9541149 144.120665 33.3068506 144.641971 33.6595862 145.03589 34.1570575 145.301686 34.7989885 145.567207 35.4415632 145.699922 36.1455632 145.700289 36.9107126 145.699922 37.7321379 145.553247 38.4713563 145.260081 39.1287356 144.966639 39.7863908 144.540391 40.290023 143.981429 40.6398161 143.422099 40.9897011 142.834482 41.1645977 142.218117 41.1649655 141.766795 41.1645977 141.361763 41.0690575 141.003388 40.877977 140.644554 40.6865287 140.35001 40.4447816 140.119666 40.1524598L140.119666 44.0590345 138.765702 44.0590345zM139.991635 37.0166437C139.991268 38.0492874 140.199386 38.8125977 140.615899 39.3061149 141.031676 39.8003678 141.535716 40.0471724 142.127742 40.0468046 142.729412 40.0471724 143.244565 39.7914483 143.673293 39.279908 144.101653 38.7684598 144.315833 37.9763678 144.3162 36.9031724 144.315833 35.8808276 144.106337 35.1150345 143.687988 34.6064368 143.268995 34.0978391 142.76918 33.8434943 142.187992 33.8431264 141.61112 33.8434943 141.100559 34.1142989 140.657137 34.6556322 140.212979 35.1973333 139.991268 35.9842759 139.991635 37.0166437zM152.807818 38.3995402L154.206602 38.5730575C153.985993 39.3941149 153.577379 40.0317241 152.980761 40.4850575 152.383775 40.9382989 151.621745 41.1645977 150.694305 41.1649655 149.525866 41.1645977 148.59916 40.8033103 147.914923 40.0805517 147.23041 39.3578851 146.888566 38.3441839 146.888566 37.0392644 146.888566 35.6893793 147.234359 34.6416552 147.926403 33.895908 148.618172 33.1506207 149.515763 32.7777471 150.618993 32.7777471 151.687046 32.7777471 152.559564 33.1430805 153.236546 33.8732874 153.913161 34.603954 154.251514 35.6315402 154.251881 36.9563218 154.251514 37.0371494 154.248942 37.1577931 154.24435 37.3187126L148.287717 37.3187126C148.337589 38.2005517 148.585476 38.8758621 149.032205 39.3441839 149.478107 39.8129655 150.034865 40.0471724 150.701836 40.0468046 151.198069 40.0471724 151.621378 39.916046 151.972589 39.6538851 152.323433 39.392 152.601904 38.9738851 152.807818 38.3995402zM148.362662 36.2005517L152.822881 36.2005517C152.762264 35.525977 152.591801 35.0194943 152.31131 34.6818391 151.879643 34.1581609 151.320681 33.8962759 150.634055 33.895908 150.012272 33.8962759 149.489588 34.1053793 149.065911 34.5231264 148.642143 34.9416092 148.407574 35.5008736 148.362662 36.2005517zM161.12576 39.9936552C160.6242 40.4221609 160.141376 40.7242299 159.677839 40.9005977 159.213568 41.0765977 158.715957 41.1645977 158.185007 41.1649655 157.307438 41.1645977 156.633304 40.9495172 156.161868 40.5191724 155.690525 40.0884598 155.454762 39.5382069 155.454762 38.867954 155.454762 38.4753103 155.543759 38.1165057 155.72166 37.7910805 155.899654 37.4663908 156.132846 37.2056092 156.421328 37.0091034 156.709718 36.8129655 157.034386 36.6642759 157.395333 36.5633103 157.660854 36.4929655 158.061937 36.4250115 158.598673 36.3593563 159.691432 36.2285977 160.496169 36.0722759 161.013159 35.8909425 161.017843 35.7044598 161.020323 35.5862989 161.02069 35.5357241 161.020323 34.9817931 160.8922 34.5913563 160.636782 34.3643218 160.290622 34.0575632 159.776847 33.9038161 159.095181 33.9035402 158.457968 33.9038161 157.988002 34.015908 157.684825 34.2397241 157.381373 34.4641839 157.156722 34.8607816 157.011793 35.4297011L155.687954 35.2483678C155.80781 34.6793563 156.005826 34.2195862 156.282092 33.8693333 156.557624 33.5195402 156.956227 33.2501149 157.477901 33.0611494 157.999115 32.8722759 158.603632 32.7777471 159.290717 32.7777471 159.972383 32.7777471 160.526294 32.8585747 160.952817 33.0194943 161.378698 33.1811494 161.691886 33.3837241 161.89284 33.6276782 162.09306 33.8722759 162.233673 34.1807816 162.314037 34.5532874 162.359224 34.7852874 162.381818 35.2034023 162.381818 35.8076322L162.381818 37.6211494C162.381818 38.8858851 162.410565 39.6854253 162.468243 40.0202299 162.525645 40.3554023 162.639807 40.6765057 162.810545 40.9836322L161.396699 40.9836322C161.255994 40.7016092 161.165987 40.3718621 161.12576 39.9936552zM161.013159 36.9563218C160.521243 37.1577931 159.784011 37.3291034 158.80174 37.469977 158.24489 37.5510805 157.851338 37.6416552 157.620994 37.7422529 157.390006 37.8427586 157.212012 37.990069 157.086829 38.184 156.961278 38.378023 156.898457 38.5934713 156.898824 38.8302529 156.898457 39.1930115 157.035121 39.4950805 157.30854 39.7368276 157.581501 39.9789425 157.981573 40.099954 158.508574 40.0995862 159.02988 40.099954 159.493784 39.9853793 159.899918 39.7558621 160.306052 39.5267126 160.604178 39.2131494 160.795029 38.8151724 160.939959 38.508046 161.012791 38.0547126 161.013159 37.4548966L161.013159 36.9563218zM164.4878 40.9836322L164.4878 32.9588046 165.70611 32.9588046 165.70611 34.099954C166.292718 33.2184828 167.140162 32.7777471 168.248351 32.7777471 168.72943 32.7777471 169.171843 32.8647356 169.575772 33.0385287 169.979059 33.2124138 170.281134 33.4404598 170.481997 33.7221149 170.682217 34.0044138 170.82283 34.3392184 170.903193 34.7271724 170.953432 34.9793103 170.978597 35.420046 170.978597 36.0492874L170.978597 40.9836322 169.624541 40.9836322 169.624541 36.1025287C169.624541 35.5485977 169.571823 35.134069 169.466754 34.8596782 169.361225 34.5852874 169.174322 34.3661609 168.906322 34.202023 168.637954 34.0385287 168.323296 33.9566897 167.962441 33.9563218 167.385569 33.9566897 166.887959 34.1405977 166.469609 34.508046 166.050525 34.8762299 165.841396 35.5737931 165.841764 36.6010115L165.841764 40.9836322 164.4878 40.9836322zM177.529277 40.9836322L177.529277 29.9063908 182.418131 29.9063908C183.400862 29.9067586 184.147737 30.0062529 184.6594 30.2048736 185.170236 30.4042299 185.57885 30.7554943 185.885241 31.2591264 186.190898 31.7630345 186.344094 32.3194483 186.344094 32.9286437 186.344094 33.7145747 186.09088 34.3772874 185.584268 34.916046 185.077657 35.4555402 184.295606 35.7978851 183.23793 35.9437241 183.623951 36.1301149 183.917117 36.314023 184.117612 36.4950805 184.543493 36.8883678 184.947055 37.3797701 185.32885 37.9688276L187.246461 40.9836322 185.411326 40.9836322 183.952201 38.6789885C183.525678 38.0145287 183.174834 37.5054713 182.899302 37.1527356 182.623402 36.800092 182.376526 36.5532874 182.158396 36.4121379 181.940267 36.2713563 181.718188 36.1732414 181.492895 36.1176092 181.327117 36.0823908 181.056636 36.0644598 180.680627 36.0644598L178.988402 36.0644598 178.988402 40.9836322 177.529277 40.9836322zM178.988402 34.7950345L182.12469 34.7950345C182.791293 34.7950345 183.312967 34.726069 183.688884 34.5874023 184.064894 34.4491034 184.350437 34.2274943 184.54634 33.9225747 184.741508 33.617931 184.839506 33.2864368 184.839873 32.9286437 184.839506 32.4049655 184.650032 31.9746207 184.27191 31.6369655 183.893054 31.2996782 183.295333 31.1308506 182.478105 31.1304828L178.988402 31.1304828 178.988402 34.7950345zM193.933069 38.3995402L195.331945 38.5730575C195.111244 39.3941149 194.70263 40.0317241 194.106011 40.4850575 193.509026 40.9382989 192.746996 41.1645977 191.819648 41.1649655 190.651117 41.1645977 189.724411 40.8033103 189.040265 40.0805517 188.355752 39.3578851 188.013817 38.3441839 188.013817 37.0392644 188.013817 35.6893793 188.359701 34.6416552 189.051746 33.895908 189.743423 33.1506207 190.641106 32.7777471 191.744244 32.7777471 192.812297 32.7777471 193.684815 33.1430805 194.361797 33.8732874 195.038411 34.603954 195.376765 35.6315402 195.377132 36.9563218 195.376765 37.0371494 195.374285 37.1577931 195.369601 37.3187126L189.412968 37.3187126C189.462839 38.2005517 189.710818 38.8758621 190.157455 39.3441839 190.603358 39.8129655 191.160208 40.0471724 191.827179 40.0468046 192.32332 40.0471724 192.746629 39.916046 193.097932 39.6538851 193.448776 39.392 193.727155 38.9738851 193.933069 38.3995402zM189.488005 36.2005517L193.948132 36.2005517C193.887515 35.525977 193.717144 35.0194943 193.436561 34.6818391 193.004986 34.1581609 192.446023 33.8962759 191.759306 33.895908 191.137614 33.8962759 190.614838 34.1053793 190.191162 34.5231264 189.767486 34.9416092 189.532824 35.5008736 189.488005 36.2005517zM196.790702 41.6484598L198.10701 41.8449655C198.161841 42.2525977 198.315037 42.5497011 198.565863 42.7364598 198.901644 42.9878621 199.360129 43.114023 199.942053 43.1142989 200.568429 43.114023 201.052446 42.9878621 201.393647 42.7364598 201.73448 42.4843218 201.9651 42.131954 202.085691 41.6786207 202.155676 41.4013793 202.188281 40.8197701 202.183229 39.9333333 201.591662 40.6337471 200.854431 40.9836322 199.972178 40.9836322 198.873632 40.9836322 198.023708 40.585931 197.422497 39.789977 196.82046 38.9943908 196.519763 38.0396322 196.52013 36.9261609 196.519763 36.1606437 196.657529 35.4541609 196.933795 34.8065287 197.209327 34.1596322 197.6094 33.6595862 198.133186 33.3068506 198.656972 32.9541149 199.272235 32.7777471 199.979709 32.7777471 200.921844 32.7777471 201.699304 33.1606437 202.311352 33.9261609L202.311352 32.9588046 203.559879 32.9588046 203.559879 39.8956322C203.559879 41.1449195 203.433226 42.029977 203.17992 42.5514483 202.926615 43.0726437 202.525165 43.4843218 201.976305 43.7867586 201.426986 44.0888276 200.751474 44.240092 199.949584 44.2404598 198.996703 44.240092 198.227142 44.0245517 197.640627 43.5942069 197.053652 43.1632184 196.770221 42.5148506 196.790702 41.6484598zM197.911474 36.8276782C197.911474 37.8808276 198.119501 38.6491954 198.535738 39.1326897 198.951883 39.6164598 199.473189 39.8582069 200.099933 39.8578391 200.721624 39.8582069 201.243298 39.6175632 201.664495 39.1362759 202.085691 38.6552644 202.296289 37.9009655 202.296289 36.8729195 202.296289 35.8909425 202.079262 35.1502529 201.645483 34.6516782 201.211704 34.1531034 200.68902 33.9038161 200.077339 33.9035402 199.475669 33.9038161 198.964466 34.1495172 198.543269 34.6401839 198.122073 35.1315862 197.911474 35.8607816 197.911474 36.8276782zM205.620582 31.4703448L206.974546 31.4703448 206.974546 29.9063908 205.620582 29.9063908 205.620582 31.4703448zM205.620582 40.9836322L206.974546 40.9836322 206.974546 32.9588046 205.620582 32.9588046 205.620582 40.9836322zM208.5392 36.9714023C208.538832 35.4854253 208.949926 34.3848276 209.772572 33.6693333 210.45929 33.0752184 211.296631 32.7777471 212.284689 32.7777471 213.3825 32.7777471 214.280091 33.1394943 214.977187 33.8621609 215.673915 34.5852874 216.022279 35.5838161 216.022646 36.8578391 216.022279 37.8909425 215.867981 38.7030805 215.559845 39.2949885 215.251341 39.8869885 214.802499 40.3467586 214.213412 40.673931 213.623957 41.0011954 212.98105 41.1645977 212.284689 41.1649655 211.166396 41.1645977 210.262652 40.8046897 209.573087 40.0845057 208.883615 39.3643218 208.538832 38.3266207 208.5392 36.9714023zM209.930452 36.9714023C209.930452 37.9990805 210.153266 38.7684598 210.599535 39.279908 211.04553 39.7914483 211.607339 40.0471724 212.284689 40.0468046 212.956252 40.0471724 213.515214 39.7903448 213.961576 39.275954 214.407478 38.7622989 214.630659 37.9789425 214.631027 36.9261609 214.630659 35.9337011 214.406376 35.1818851 213.957994 34.6703448 213.509152 34.1596322 212.951292 33.9038161 212.284689 33.9035402 211.607339 33.9038161 211.04553 34.1581609 210.599535 34.6667586 210.153266 35.1754483 209.930452 35.9437241 209.930452 36.9714023zM217.61669 40.9836322L217.61669 32.9588046 218.835001 32.9588046 218.835001 34.099954C219.421608 33.2184828 220.268961 32.7777471 221.377242 32.7777471 221.858321 32.7777471 222.300733 32.8647356 222.704663 33.0385287 223.10795 33.2124138 223.410024 33.4404598 223.610887 33.7221149 223.811107 34.0044138 223.95172 34.3392184 224.032084 34.7271724 224.082322 34.9793103 224.107396 35.420046 224.107396 36.0492874L224.107396 40.9836322 222.753432 40.9836322 222.753432 36.1025287C222.753432 35.5485977 222.700713 35.134069 222.595552 34.8596782 222.490115 34.5852874 222.303213 34.3661609 222.035212 34.202023 221.766844 34.0385287 221.452187 33.9566897 221.091332 33.9563218 220.514368 33.9566897 220.016757 34.1405977 219.5985 34.508046 219.179416 34.8762299 218.970287 35.5737931 218.970654 36.6010115L218.970654 40.9836322 217.61669 40.9836322zM231.40293 39.9936552C230.90137 40.4221609 230.418454 40.7242299 229.954918 40.9005977 229.490738 41.0765977 228.993128 41.1645977 228.462086 41.1649655 227.584609 41.1645977 226.910474 40.9495172 226.439039 40.5191724 225.967604 40.0884598 225.731932 39.5382069 225.731932 38.867954 225.731932 38.4753103 225.820929 38.1165057 225.99883 37.7910805 226.176824 37.4663908 226.410016 37.2056092 226.698406 37.0091034 226.986888 36.8129655 227.311556 36.6642759 227.672503 36.5633103 227.937932 36.4929655 228.339107 36.4250115 228.875751 36.3593563 229.968602 36.2285977 230.773339 36.0722759 231.290237 35.8909425 231.294921 35.7044598 231.297493 35.5862989 231.297768 35.5357241 231.297493 34.9817931 231.169371 34.5913563 230.913952 34.3643218 230.567701 34.0575632 230.053926 33.9038161 229.372351 33.9035402 228.735138 33.9038161 228.265172 34.015908 227.961995 34.2397241 227.658451 34.4641839 227.433893 34.8607816 227.288963 35.4297011L225.965124 35.2483678C226.08498 34.6793563 226.282996 34.2195862 226.559262 33.8693333 226.834794 33.5195402 227.233397 33.2501149 227.754979 33.0611494 228.276285 32.8722759 228.880802 32.7777471 229.567887 32.7777471 230.249461 32.7777471 230.803464 32.8585747 231.229988 33.0194943 231.655868 33.1811494 231.969056 33.3837241 232.170011 33.6276782 232.370139 33.8722759 232.510752 34.1807816 232.591115 34.5532874 232.636394 34.7852874 232.658988 35.2034023 232.658988 35.8076322L232.658988 37.6211494C232.658988 38.8858851 232.687643 39.6854253 232.745413 40.0202299 232.802816 40.3554023 232.916886 40.6765057 233.087716 40.9836322L231.673778 40.9836322C231.533165 40.7016092 231.443066 40.3718621 231.40293 39.9936552zM231.290237 36.9563218C230.798413 37.1577931 230.061181 37.3291034 229.078818 37.469977 228.52206 37.5510805 228.128509 37.6416552 227.898164 37.7422529 227.667084 37.8427586 227.489183 37.990069 227.363907 38.184 227.238357 38.378023 227.175627 38.5934713 227.175995 38.8302529 227.175627 39.1930115 227.312291 39.4950805 227.585619 39.7368276 227.858671 39.9789425 228.258743 40.099954 228.785744 40.0995862 229.30705 40.099954 229.770862 39.9853793 230.176996 39.7558621 230.58313 39.5267126 230.881256 39.2131494 231.072108 38.8151724 231.217129 38.508046 231.289962 38.0547126 231.290237 37.4548966L231.290237 36.9563218zM234.734754 40.9836322L236.088809 40.9836322 236.088809 29.9063908 234.734754 29.9063908 234.734754 40.9836322zM106.357362 60.3273563L106.357362 49.2501149 110.15557 49.2501149C111.013025 49.2504828 111.667413 49.3032644 112.118735 49.4089195 112.750162 49.5550345 113.289102 49.8194023 113.73574 50.202023 114.317296 50.695908 114.752085 51.3269885 115.040567 52.0949885 115.328314 52.8636322 115.472509 53.7411494 115.472877 54.7281839 115.472509 55.5694713 115.374604 56.3151264 115.179435 56.9648736 114.983532 57.6150805 114.733073 58.1527356 114.427417 58.5783908 114.12176 59.004046 113.78708 59.3392184 113.423562 59.5830805 113.05986 59.8276782 112.621029 60.0126897 112.107254 60.1383908 111.593204 60.2644598 111.002647 60.3273563 110.336043 60.3273563L106.357362 60.3273563zM107.816488 59.0202299L110.170724 59.0202299C110.897577 59.0202299 111.467653 58.9523678 111.881594 58.8161839 112.294891 58.6804598 112.624611 58.4890115 112.870753 58.2418391 113.21627 57.8945287 113.485649 57.4272184 113.679072 56.8402759 113.872036 56.2533333 113.968932 55.5417931 113.968932 54.7055632 113.968932 53.5472184 113.779457 52.6571034 113.400968 52.0345747 113.022112 51.4128736 112.562249 50.9957701 112.020829 50.783908 111.629757 50.6330115 111.000534 50.5576092 110.132976 50.5572414L107.816488 50.5572414 107.816488 59.0202299zM122.783473 57.7432644L124.182257 57.9167816C123.961648 58.737931 123.553034 59.3754483 122.956323 59.8287816 122.359338 60.2821149 121.5974 60.5084138 120.66996 60.5087816 119.501429 60.5084138 118.574723 60.1470345 117.890577 59.4243678 117.206064 58.7016092 116.864129 57.688 116.864129 56.3829885 116.864129 55.0331954 117.210013 53.9853793 117.902058 53.2397241 118.593735 52.4943448 119.491418 52.1215632 120.594648 52.1215632 121.662701 52.1215632 122.535219 52.4868046 123.212201 53.2171034 123.888815 53.9476782 124.227077 54.9753563 124.227444 56.300046 124.227077 56.3808736 124.224597 56.5015172 124.219913 56.6624368L118.263372 56.6624368C118.313243 57.5442759 118.56113 58.2195862 119.007767 58.688 119.453762 59.1566897 120.01052 59.3908966 120.677491 59.3905287 121.173632 59.3908966 121.597033 59.2598621 121.948244 58.9976092 122.299088 58.7357241 122.577467 58.3176092 122.783473 57.7432644zM118.338317 55.5442759L122.798535 55.5442759C122.737918 54.8697011 122.567456 54.3633103 122.286873 54.0256552 121.855298 53.5018851 121.296335 53.240092 120.60971 53.2397241 119.987926 53.240092 119.465242 53.4491034 119.041474 53.8668506 118.617798 54.2853333 118.383137 54.8445977 118.338317 55.5442759zM128.108219 60.3273563L125.069837 52.3025287 126.498837 52.3025287 128.213748 57.1085977C128.398813 57.6273103 128.569276 58.1664368 128.724951 58.7253333 128.845175 58.3025287 129.013433 57.7935632 129.228991 57.1990805L131.004151 52.3025287 132.395496 52.3025287 129.371809 60.3273563 128.108219 60.3273563zM139.059235 57.7432644L140.458019 57.9167816C140.23741 58.737931 139.828704 59.3754483 139.232085 59.8287816 138.6351 60.2821149 137.873162 60.5084138 136.945722 60.5087816 135.777191 60.5084138 134.850485 60.1470345 134.166339 59.4243678 133.481826 58.7016092 133.139891 57.688 133.139891 56.3829885 133.139891 55.0331954 133.485776 53.9853793 134.17782 53.2397241 134.869497 52.4943448 135.76718 52.1215632 136.87041 52.1215632 137.938371 52.1215632 138.810889 52.4868046 139.487963 53.2171034 140.164577 53.9476782 140.502839 54.9753563 140.503206 56.300046 140.502839 56.3808736 140.500359 56.5015172 140.495675 56.6624368L134.539134 56.6624368C134.589005 57.5442759 134.836892 58.2195862 135.283529 58.688 135.729524 59.1566897 136.286282 59.3908966 136.953253 59.3905287 137.449394 59.3908966 137.872795 59.2598621 138.224006 58.9976092 138.57485 58.7357241 138.853229 58.3176092 139.059235 57.7432644zM134.614079 55.5442759L139.074298 55.5442759C139.013589 54.8697011 138.843218 54.3633103 138.562635 54.0256552 138.13106 53.5018851 137.572098 53.240092 136.885472 53.2397241 136.263688 53.240092 135.741004 53.4491034 135.317236 53.8668506 134.89356 54.2853333 134.658899 54.8445977 134.614079 55.5442759zM142.135273 60.3273563L143.489237 60.3273563 143.489237 49.2501149 142.135273 49.2501149 142.135273 60.3273563zM145.091088 56.3151264C145.090721 54.8291494 145.501906 53.7285517 146.324552 53.0130575 147.01127 52.4189425 147.848611 52.1215632 148.836669 52.1215632 149.93448 52.1215632 150.832071 52.4832184 151.529167 53.205977 152.225895 53.9290115 152.574259 54.9275402 152.574627 56.2016552 152.574259 57.2346667 152.419961 58.0468046 152.111825 58.6388046 151.803229 59.2307126 151.354479 59.6904828 150.765392 60.0177471 150.175938 60.3449195 149.53303 60.5084138 148.836669 60.5087816 147.718377 60.5084138 146.814632 60.1485057 146.125067 59.4283218 145.435503 58.7081379 145.090721 57.6703448 145.091088 56.3151264zM146.482432 56.3151264C146.482432 57.3428046 146.705246 58.1121839 147.151516 58.6237241 147.597418 59.1351724 148.15932 59.3908966 148.836669 59.3905287 149.508232 59.3908966 150.067194 59.134069 150.513464 58.6197701 150.959459 58.1061149 151.182639 57.3226667 151.182915 56.2698851 151.182639 55.2774253 150.958356 54.5256092 150.509882 54.0141609 150.061133 53.5033563 149.50318 53.2476322 148.836669 53.2472644 148.15932 53.2476322 147.597418 53.5018851 147.151516 54.0105747 146.705246 54.5191724 146.482432 55.2874483 146.482432 56.3151264zM154.168946 63.4027586L154.168946 52.3025287 155.402411 52.3025287 155.402411 53.3456552C155.693005 52.9376552 156.021255 52.6315402 156.387529 52.4275862 156.753527 52.2235402 157.197317 52.1215632 157.718991 52.1215632 158.400565 52.1215632 159.002235 52.297931 159.523909 52.6506667 160.045215 53.0033103 160.439134 53.5008736 160.70493 54.1427126 160.970451 54.7852874 161.103166 55.4893793 161.103533 56.2544368 161.103166 57.075954 160.956491 57.8151724 160.663325 58.4724598 160.369884 59.1301149 159.943636 59.6337471 159.384673 59.9836322 158.825344 60.3334253 158.237726 60.5084138 157.621361 60.5087816 157.17004 60.5084138 156.765008 60.4128736 156.406541 60.2217011 156.047798 60.0302529 155.753255 59.7885977 155.52291 59.4961839L155.52291 63.4027586 154.168946 63.4027586zM155.394879 56.3603678C155.394512 57.3931034 155.60263 58.1564138 156.019143 58.649931 156.434921 59.1441839 156.93896 59.3908966 157.530987 59.3905287 158.132565 59.3908966 158.647809 59.1351724 159.076537 58.6237241 159.504897 58.1121839 159.719077 57.3201839 159.719445 56.2468966 159.719077 55.2246437 159.509581 54.4588506 159.091232 53.9501609 158.672148 53.4415632 158.172425 53.1872184 157.591236 53.1869425 157.014364 53.1872184 156.503804 53.4581149 156.060381 53.9993563 155.616223 54.5410575 155.394512 55.328092 155.394879 56.3603678zM162.742765 60.3273563L162.742765 52.3025287 163.953544 52.3025287 163.953544 53.4285977C164.204002 53.0356782 164.537304 52.7196322 164.953816 52.4803678 165.369594 52.2411034 165.843509 52.1215632 166.375561 52.1215632 166.966852 52.1215632 167.45188 52.2450575 167.830737 52.4918621 168.208859 52.7386667 168.476216 53.0834943 168.631892 53.5267126 169.263319 52.5898851 170.085598 52.1215632 171.098729 52.1215632 171.890883 52.1215632 172.500084 52.342069 172.926332 52.7828046 173.352488 53.2235402 173.565658 53.9024368 173.565658 54.8191264L173.565658 60.3273563 172.219501 60.3273563 172.219501 55.2723678C172.219134 54.7285517 172.175416 54.3370115 172.087889 54.0974713 171.999994 53.8582069 171.840645 53.6653793 171.610024 53.5191724 171.379312 53.3733333 171.108465 53.3004138 170.797756 53.300046 170.235947 53.3004138 169.769563 53.4882759 169.398881 53.8632644 169.027556 54.2389885 168.842123 54.8395402 168.84249 55.6653793L168.84249 60.3273563 167.488526 60.3273563 167.488526 55.1136552C167.488159 54.5094253 167.378038 54.0561839 167.157337 53.7537471 166.936728 53.4515862 166.575781 53.3004138 166.074588 53.300046 165.69362 53.3004138 165.341306 53.4013793 165.018015 53.6024828 164.694449 53.8043218 164.460155 54.0989425 164.314858 54.4864368 164.169193 54.8747586 164.096361 55.434023 164.096728 56.163954L164.096728 60.3273563 162.742765 60.3273563zM181.057004 57.7432644L182.455787 57.9167816C182.235178 58.737931 181.826564 59.3754483 181.229946 59.8287816 180.63296 60.2821149 179.87093 60.5084138 178.94349 60.5087816 177.775051 60.5084138 176.848345 60.1470345 176.1642 59.4243678 175.479595 58.7016092 175.137751 57.688 175.137751 56.3829885 175.137751 55.0331954 175.483544 53.9853793 176.17568 53.2397241 176.867357 52.4943448 177.764948 52.1215632 178.868178 52.1215632 179.936232 52.1215632 180.808749 52.4868046 181.485731 53.2171034 182.162346 53.9476782 182.500699 54.9753563 182.501066 56.300046 182.500699 56.3808736 182.498127 56.5015172 182.493535 56.6624368L176.536902 56.6624368C176.586774 57.5442759 176.834661 58.2195862 177.28139 58.688 177.727292 59.1566897 178.284142 59.3908966 178.951021 59.3905287 179.447254 59.3908966 179.870563 59.2598621 180.221774 58.9976092 180.57271 58.7357241 180.851089 58.3176092 181.057004 57.7432644zM176.611939 55.5442759L181.072066 55.5442759C181.011449 54.8697011 180.840987 54.3633103 180.560495 54.0256552 180.12892 53.5018851 179.569958 53.240092 178.88324 53.2397241 178.261549 53.240092 177.738773 53.4491034 177.315096 53.8668506 176.89142 54.2853333 176.656759 54.8445977 176.611939 55.5442759zM184.162799 60.3273563L184.162799 52.3025287 185.381201 52.3025287 185.381201 53.4437701C185.967809 52.5622989 186.815161 52.1215632 187.923443 52.1215632 188.404521 52.1215632 188.846842 52.2084598 189.250863 52.3823448 189.654059 52.5561379 189.956225 52.7842759 190.157088 53.0658391 190.357308 53.3481379 190.497921 53.6829425 190.578284 54.0708966 190.628523 54.3230345 190.653596 54.7637701 190.653596 55.3931034L190.653596 60.3273563 189.299633 60.3273563 189.299633 55.4462529C189.299633 54.8923218 189.246914 54.4778851 189.141753 54.2034023 189.036316 53.9290115 188.849413 53.7098851 188.581413 53.5457471 188.313045 53.3823448 187.998387 53.3004138 187.63744 53.300046 187.060568 53.3004138 186.562958 53.4843218 186.1447 53.8517701 185.725616 54.219954 185.516488 54.9175172 185.516855 55.9448276L185.516855 60.3273563 184.162799 60.3273563zM195.6928 59.1107126L195.888335 60.3122759C195.506999 60.3927356 195.166166 60.4329195 194.865561 60.4332874 194.374012 60.4329195 193.992676 60.3550345 193.722104 60.1990805 193.450888 60.0428506 193.260404 59.8377931 193.15065 59.5830805 193.040162 59.3291034 192.985239 58.793931 192.985239 57.9774713L192.985239 53.3607356 191.992498 53.3607356 191.992498 52.3025287 192.985239 52.3025287 192.985239 50.3154943 194.331305 49.4994023 194.331305 52.3025287 195.6928 52.3025287 195.6928 53.3607356 194.331305 53.3607356 194.331305 58.0529655C194.330937 58.4411954 194.355 58.6904828 194.402759 58.8011034 194.450426 58.912092 194.527943 59.000092 194.635951 59.0654713 194.743592 59.1308506 194.897798 59.1635862 195.098753 59.1635862 195.248734 59.1635862 195.44675 59.145931 195.6928 59.1107126zM201.529209 60.3273563L201.529209 49.2501149 208.96756 49.2501149 208.96756 50.5572414 202.988334 50.5572414 202.988334 53.9878621 208.162823 53.9878621 208.162823 55.2949885 202.988334 55.2949885 202.988334 60.3273563 201.529209 60.3273563zM215.932272 60.3273563L215.932272 59.1485057C215.310121 60.0550805 214.465248 60.5084138 213.397562 60.5087816 212.926127 60.5084138 212.485919 60.4178391 212.077672 60.2368736 211.668691 60.0554483 211.365514 59.8276782 211.167499 59.5529195 210.969483 59.2785287 210.830248 58.9418851 210.750251 58.543908 210.694594 58.2774253 210.667041 57.8542529 210.667316 57.2745747L210.667316 52.3025287 212.021372 52.3025287 212.021372 56.7533793C212.021005 57.4638161 212.04865 57.9422529 212.103848 58.1890575 212.189263 58.5468506 212.369736 58.8276782 212.645635 59.0313563 212.921167 59.2357701 213.261909 59.3377471 213.66841 59.3373793 214.074177 59.3377471 214.455237 59.2331954 214.8115 59.0238161 215.167395 58.8151724 215.419599 58.5302989 215.567376 58.170023 215.715153 57.8101149 215.789087 57.2874483 215.789455 56.6021149L215.789455 52.3025287 217.143051 52.3025287 217.143051 60.3273563 215.932272 60.3273563zM219.27126 60.3273563L219.27126 52.3025287 220.489662 52.3025287 220.489662 53.4437701C221.076177 52.5622989 221.923622 52.1215632 223.031811 52.1215632 223.512982 52.1215632 223.955302 52.2084598 224.359324 52.3823448 224.762519 52.5561379 225.064594 52.7842759 225.265548 53.0658391 225.465676 53.3481379 225.606381 53.6829425 225.686745 54.0708966 225.736983 54.3230345 225.762057 54.7637701 225.762057 55.3931034L225.762057 60.3273563 224.408093 60.3273563 224.408093 55.4462529C224.408093 54.8923218 224.355374 54.4778851 224.250213 54.2034023 224.144776 53.9290115 223.957782 53.7098851 223.689873 53.5457471 223.421505 53.3823448 223.106848 53.3004138 222.745901 53.300046 222.169029 53.3004138 221.671418 53.4843218 221.253069 53.8517701 220.834077 54.219954 220.624856 54.9175172 220.625223 55.9448276L220.625223 60.3273563 219.27126 60.3273563zM233.027374 60.3273563L233.027374 59.3147586C232.520855 60.1107126 231.776 60.5084138 230.793729 60.5087816 230.156607 60.5084138 229.571469 60.3324138 229.03758 59.980046 228.503416 59.6276782 228.089383 59.1351724 227.796217 58.5026207 227.502776 57.8708046 227.356376 57.1441839 227.356376 56.3226667 227.356376 55.522023 227.489183 54.7954023 227.754979 54.1427126 228.020867 53.4907586 228.41947 52.9908046 228.951155 52.6430345 229.482105 52.2953563 230.076244 52.1215632 230.733479 52.1215632 231.214558 52.1215632 231.643285 52.2235402 232.019662 52.4275862 232.395304 52.6315402 232.701328 52.8973793 232.937367 53.2246437L232.937367 49.2501149 234.283432 49.2501149 234.283432 60.3273563 233.027374 60.3273563zM228.748088 56.3226667C228.748088 57.3503448 228.963646 58.1186207 229.394945 58.6273103 229.826152 59.1366437 230.334876 59.3908966 230.921484 59.3905287 231.513051 59.3908966 232.015713 59.1477701 232.429378 58.6614253 232.843043 58.1754483 233.05006 57.4336552 233.05006 56.4358621 233.05006 55.3377471 232.839461 54.5317701 232.418265 54.0181149 231.997068 53.5044598 231.477874 53.2476322 230.86151 53.2472644 230.259564 53.2476322 229.756902 53.4943448 229.35334 53.9878621 228.949685 54.4814713 228.748088 55.2598621 228.748088 56.3226667L228.748088 56.3226667z"/>
    </g>
    <g class="flag" transform="translate(1.918 1.736)">
      <polygon fill="#003399" points=".084 62.536 93.811 62.536 93.811 .007 .084 .007"/>
      <polyline fill="#FFCC00" points="46.879 6.858 46.098 9.249 43.527 9.249 45.593 10.766 44.812 13.157 46.879 11.685 48.899 13.157 48.119 10.766 50.231 9.249 47.659 9.249"/>
      <polyline fill="#FFCC00" points="26.03 27.777 25.25 30.214 22.678 30.214 24.79 31.685 24.01 34.076 26.03 32.651 28.097 34.076 27.316 31.685 29.383 30.214 26.811 30.214"/>
      <polyline fill="#FFCC00" points="67.681 27.777 66.901 30.168 64.329 30.168 66.396 31.685 65.615 34.076 67.681 32.605 69.702 34.076 68.921 31.685 71.034 30.168 68.462 30.168"/>
      <polyline fill="#FFCC00" points="46.925 48.559 46.144 50.95 43.572 50.95 45.685 52.467 44.904 54.858 46.925 53.387 48.991 54.858 48.211 52.467 50.277 50.95 47.705 50.95"/>
      <polyline fill="#FFCC00" points="57.257 9.57 56.477 11.961 53.905 11.961 55.971 13.479 55.191 15.869 57.257 14.398 59.324 15.869 58.543 13.479 60.609 11.961 58.038 11.961"/>
      <polyline fill="#FFCC00" points="64.834 17.249 64.054 19.639 61.482 19.639 63.548 21.157 62.768 23.547 64.834 22.076 66.901 23.547 66.074 21.157 68.187 19.639 65.615 19.639"/>
      <polyline fill="#FFCC00" points="64.972 38.03 64.191 40.421 61.62 40.421 63.686 41.938 62.906 44.329 64.972 42.858 66.993 44.329 66.212 41.938 68.324 40.421 65.753 40.421"/>
      <polyline fill="#FFCC00" points="57.349 45.662 56.568 48.099 53.997 48.099 56.063 49.57 55.283 51.961 57.349 50.49 59.37 51.961 58.589 49.57 60.701 48.099 58.13 48.099"/>
      <polyline fill="#FFCC00" points="36.5 45.662 35.72 48.053 33.148 48.053 35.261 49.57 34.48 51.961 36.5 50.49 38.567 51.961 37.786 49.57 39.853 48.053 37.281 48.053"/>
      <polyline fill="#FFCC00" points="28.877 37.984 28.097 40.421 25.525 40.421 27.592 41.892 26.811 44.283 28.877 42.858 30.944 44.283 30.163 41.892 32.23 40.421 29.658 40.421"/>
      <polyline fill="#FFCC00" points="28.831 17.249 28.051 19.639 25.479 19.639 27.592 21.157 26.811 23.547 28.831 22.076 30.898 23.547 30.117 21.157 32.184 19.639 29.612 19.639"/>
      <polyline fill="#FFCC00" points="36.5 9.57 35.72 12.007 33.148 12.007 35.215 13.525 34.434 15.915 36.5 14.444 38.567 15.915 37.786 13.525 39.853 12.007 37.281 12.007"/>
    </g>
</svg>
