<svg xmlns="http://www.w3.org/2000/svg" width="214" height="89" viewBox="0 0 214 89">
  <path d="M4.45749107,54.9869522 L0,54.9869522 L0,34.1535625 L4.45749107,34.1535625 L4.45749107,42.3863037 L12.4216875,42.3863037 L12.4216875,34.1535316 L16.8791786,34.1535316 L16.8791786,54.9869522 L12.4216875,54.9869522 L12.4216875,46.3532037 L4.45749107,46.3532037 L4.45749107,54.9869522 Z M27.9201422,55.854902 C23.2853333,55.854902 20.1288311,52.9084235 20.1288311,48.0682039 C20.1288311,43.3594039 23.2187244,40.1092235 27.3163689,40.1092235 C31.7832244,40.1092235 34,43.1228706 34,47.6272627 L34,49.3209725 L24.4610533,49.3209725 C24.99968,51.6556706 26.8124778,52.264502 28.6267378,52.264502 C30.2049733,52.264502 31.3459422,51.9272471 32.7562244,51.0453647 L32.9256244,51.0453647 L32.9256244,54.5335216 C31.7166156,55.4154039 30.0022689,55.854902 27.9201578,55.854902 L27.9201422,55.854902 Z M24.4610533,46.2372549 L29.9023556,46.2372549 C29.8010111,44.6807843 29.1639333,43.5959373 27.3829778,43.5959373 C26.0392889,43.5959373 24.8635689,44.1727216 24.4610533,46.237349 L24.4610533,46.2372549 Z M45.9446901,46.2411443 L43.6027127,54.9869175 L39.6225099,54.9869175 L35.072693,40.297866 L35.072693,40.1309021 L39.422062,40.1309021 L41.8967056,48.9112371 L44.2387761,40.1309021 L47.7848042,40.1309021 L50.1600296,48.9112371 L52.669269,40.1309021 L56.851438,40.1309021 L56.851438,40.297866 L52.3016211,54.986933 L48.319931,54.986933 L45.9448606,46.2411598 L45.9446901,46.2411443 Z M64.2491133,55.8592391 C60.6220556,55.8592391 59.1437178,54.4470348 59.1437178,51.1297043 L59.1437178,35.000563 L63.5772067,35.000563 L63.5772067,50.83365 C63.5772067,51.8520891 63.9796289,52.2132891 64.8527622,52.2132891 C65.1553178,52.2132891 65.5925844,52.1154413 65.8604511,52.0163761 L65.9284289,52.0163761 L65.9284289,55.5971804 C65.55914,55.7274413 64.9206156,55.8592239 64.2487711,55.8592239 L64.2491133,55.8592391 Z M74.8748911,55.854902 C70.2400822,55.854902 67.08358,52.9084235 67.08358,48.0682039 C67.08358,43.3594039 70.1734733,40.1092235 74.2711022,40.1092235 C78.7379733,40.1092235 80.9547489,43.1228706 80.9547489,47.6272627 L80.9547489,49.3209725 L71.4159267,49.3209725 C71.9532156,51.6556706 73.76746,52.264502 75.5801489,52.264502 C77.1599711,52.264502 78.3008156,51.9272471 79.7126378,51.0453647 L79.8806378,51.0453647 L79.8806378,54.5335216 C78.67166,55.4154039 76.9586822,55.854902 74.8751711,55.854902 L74.8748911,55.854902 Z M71.4158022,46.2372549 L76.8571044,46.2372549 C76.7558378,44.6807843 76.1186822,43.5959373 74.3377267,43.5959373 C72.9955933,43.5959373 71.8183489,44.1727216 71.4159267,46.237349 L71.4158022,46.2372549 Z M98.7278,40.2613492 L101.982769,40.2613492 L101.982769,43.8929841 L98.7278,43.8929841 L98.7278,50.0954444 C98.7278,51.4325556 99.2261385,52.0501429 100.555031,52.0501429 C100.920215,52.0501429 101.385615,52.0145873 101.883954,51.8431587 L101.982769,51.8431587 L101.982769,55.4068095 C101.418554,55.6136349 100.555046,55.8515714 99.2934462,55.8515714 C95.7377538,55.8515714 94.3429538,54.1731587 94.3429538,50.300619 L94.3429538,43.8928413 L88.7294462,43.8928413 L88.7294462,50.0952381 C88.7294462,51.432381 89.2278,52.0499365 90.5552923,52.0499365 C90.9218769,52.0499365 91.3872923,52.0144762 91.8856,51.8431111 L91.9844308,51.8431111 L91.9844308,55.4067619 C91.4202154,55.613619 90.5552769,55.8515238 89.2950923,55.8515238 C85.7394,55.8515238 84.3446308,54.1731111 84.3446308,50.3006032 L84.3446308,43.8928254 L82.0849385,43.8928254 L82.0849385,40.2612381 L84.3446308,40.2612381 L84.3446308,36.0815556 L88.7295538,36.0815556 L88.7295538,40.2613492 L94.3430923,40.2613492 L94.3430923,36.0815873 L98.7280154,36.0815873 L98.7280154,40.261381 L98.7278,40.2613492 Z M125.959584,41.2206647 C125.959584,45.755275 122.815664,48.2202272 118.046944,48.2202272 L114.696,48.2202272 L114.696,54.9868596 L110.000256,54.9868596 L110.000256,34.1534853 L118.046944,34.1534853 C122.815664,34.1534853 125.959584,36.6198581 125.959584,41.2206029 L125.959584,41.2206647 Z M117.667168,44.3870015 C120.053024,44.3870015 121.190848,43.0876882 121.190848,41.2206647 C121.190848,39.286086 120.053024,37.9867882 117.667168,37.9867882 L114.696,37.9867882 L114.696,44.3870015 L117.6672,44.3870015 L117.667168,44.3870015 Z M135.580359,54.1657347 C134.58375,55.3630733 133.108834,55.9440475 131.525832,55.9440475 C128.53898,55.9440475 126.098557,54.1333069 126.098557,50.9158337 C126.098557,47.9416554 128.53898,45.9583683 132.041159,45.9583683 C133.139936,45.9583683 134.27575,46.1294257 135.442634,46.4700515 L135.442634,46.1987327 C135.442634,44.5560871 134.515611,43.8394455 132.07818,43.8394455 C130.530702,43.8394455 129.054307,44.2818218 127.78228,45.0013941 L127.611893,45.0013941 L127.611893,41.3754772 C128.778825,40.6927525 130.841598,40.110305 132.86587,40.110305 C137.469802,40.110305 139.976757,42.2985347 139.976757,46.1294257 L139.976757,55.6697822 L135.58028,55.6697822 L135.58028,54.1657347 L135.580359,54.1657347 Z M135.442634,50.881901 L135.442634,49.5828277 C134.75552,49.208301 133.86407,49.0711446 132.935584,49.0711446 C131.45922,49.0711446 130.566243,49.6167287 130.566243,50.848 C130.566243,52.1146297 131.45922,52.661703 132.79797,52.661703 C134.06863,52.661703 135.03113,52.0114059 135.442857,50.881901 L135.442634,50.881901 Z M142.049231,47.9995765 C142.049231,43.1564392 145.405877,40.1092235 149.790708,40.1092235 C151.3516,40.1092235 152.812246,40.4479686 153.909169,41.2597804 L153.909169,45.0867608 L153.741631,45.0867608 C152.777892,44.3421333 151.649477,43.9011922 150.354923,43.9011922 C148.162508,43.9011922 146.501385,45.4269961 146.501385,47.999702 C146.501385,50.5724078 148.162508,52.0632314 150.354923,52.0632314 C151.649462,52.0632314 152.777892,51.6222902 153.741646,50.876251 L153.909185,50.876251 L153.909185,54.7032314 C152.812262,55.516502 151.3516,55.8552314 149.790723,55.8552314 C145.405877,55.8552314 142.049231,52.8430745 142.049231,47.9999216 L142.049231,47.9995765 Z M161.483111,48.2547228 L161.483111,54.9869522 L157.050991,54.9869522 L157.050991,34.1535625 L161.483111,34.1535625 L161.483111,46.0197515 L165.951413,40.1527684 L170.988769,40.1527684 L170.988769,40.3194868 L165.615491,47.0531522 L170.988753,54.8202184 L170.988753,54.9869522 L165.916662,54.9869522 L161.483111,48.2547228 Z M181.498189,54.1657347 C180.501484,55.3630733 179.023689,55.9440475 177.44503,55.9440475 C174.455234,55.9440475 172.017643,54.1333069 172.017643,50.9158337 C172.017643,47.9416554 174.455075,45.9583683 177.961757,45.9583683 C179.060439,45.9583683 180.191893,46.1294257 181.360257,46.4700515 L181.360257,46.1987327 C181.360257,44.5560871 180.433234,43.8394455 177.994211,43.8394455 C176.449645,43.8394455 174.970291,44.2818218 173.699743,45.0013941 L173.527989,45.0013941 L173.527989,41.3754772 C174.696352,40.6927525 176.757693,40.110305 178.783477,40.110305 C183.388841,40.110305 185.895955,42.2985347 185.895955,46.1294257 L185.895955,55.6697822 L181.497886,55.6697822 L181.497886,54.1657347 L181.498189,54.1657347 Z M181.360464,50.881901 L181.360464,49.5828277 C180.674845,49.208301 179.78042,49.0711446 178.853414,49.0711446 C177.377018,49.0711446 176.484073,49.6167287 176.484073,50.848 C176.484073,52.1146297 177.377018,52.661703 178.714209,52.661703 C179.987732,52.661703 180.9488,52.0114059 181.360464,50.881901 Z M192.635311,42.6618878 C193.483721,41.0419949 194.724295,40.117352 196.459279,40.117352 C197.095574,40.117352 197.731902,40.2498571 197.977557,40.3823622 L197.977557,44.5454745 L197.802148,44.5454745 C197.271164,44.3460357 196.634934,44.2150153 195.749852,44.2150153 C194.298705,44.2150153 193.166574,45.0086378 192.775918,46.5273112 L192.775918,54.9873112 L188.104934,54.9873112 L188.104934,40.2828724 L192.635426,40.2828724 L192.635426,42.6622092 L192.635311,42.6618878 Z M209.716696,54.0206891 C208.782521,55.203537 207.312907,55.8592543 205.310716,55.8592543 C201.5035,55.8592543 199.066588,52.4441674 199.066588,48.2388413 C199.066588,44.0335152 201.5035,40.5843413 205.310701,40.5843413 C207.246691,40.5843413 208.648665,41.17645 209.584278,42.2600804 L209.584278,35.0007761 L213.991711,35.0007761 L213.991711,55.5307109 L209.716711,55.5307109 L209.716711,54.0208413 L209.716696,54.0206891 Z M209.584278,50.5702065 L209.584278,45.871837 C208.850206,44.8208326 207.882907,44.3618913 206.778892,44.3618913 C204.844356,44.3618913 203.541675,45.7429457 203.541675,48.2387196 C203.541675,50.7345239 204.844356,52.0815674 206.778892,52.0815674 C207.882907,52.0815674 208.850191,51.6212109 209.584278,50.5702065 L209.584278,50.5702065 Z M0,62.1513235 L12.8986,62.1513235 L12.8986,64.6838309 L2.90701667,64.6838309 L2.90701667,71.0495485 L11.9622595,71.0495485 L11.9622595,73.5173574 L2.90701667,73.5173574 L2.90701667,80.4508162 L12.8986,80.4508162 L12.8986,82.9833235 L0,82.9833235 L0,62.1513235 Z M23.5777963,68.1479337 C27.0077901,68.1479337 28.9139914,70.2963929 28.9139914,73.8296888 L28.9139914,82.9834541 L26.038263,82.9834541 L26.038263,73.8965153 C26.038263,72.0129439 25.0329296,70.6580459 22.8503741,70.6580459 C21.0488309,70.6580459 19.5234975,71.7493724 19.003658,73.300801 L19.003658,82.983148 L16.1279296,82.983148 L16.1279296,68.4453929 L19.003658,68.4453929 L19.003658,70.5596276 C19.9045099,69.2047296 21.4298432,68.1475663 23.5780531,68.1475663 L23.5777963,68.1479337 Z M36.193645,69.0026667 L39.85312,69.0026667 L39.85312,71.3707772 L36.193645,71.3707772 L36.193645,79.2731244 C36.193645,80.9395634 37.035565,81.5075244 38.557435,81.5075244 C38.977585,81.5075244 39.431335,81.4414106 39.755335,81.3076691 L39.852985,81.3076691 L39.852985,83.6743585 C39.464785,83.8410333 38.913235,83.9748057 38.169085,83.9748057 C34.832035,83.9748057 33.505735,82.4061472 33.505735,79.5403911 L33.505735,71.3707 L31.044235,71.3707 L31.044235,69.0026512 L33.505735,69.0026512 L33.505735,65.1031715 L36.193435,65.1031715 L36.193435,69.0024967 L36.193645,69.0026667 Z M49.3229464,83.973984 C45.0114345,83.973984 42.0712679,81.002816 42.0712679,76.237056 C42.0712679,71.469824 44.8111726,68.154656 48.7885071,68.154656 C52.8321262,68.154656 54.9367333,71.160048 54.9367333,75.614528 L54.9367333,76.928096 L44.8443071,76.928096 C45.145381,80.002016 47.0512119,81.486816 49.6902893,81.486816 C51.3282893,81.486816 52.4965869,81.107056 53.8003012,80.104768 L53.901206,80.104768 L53.901206,82.627648 C52.6983964,83.594208 51.1267893,83.973968 49.323194,83.973968 L49.3229464,83.973984 Z M44.94515,74.577984 L52.2630976,74.577984 C52.163694,72.333616 51.0933762,70.60752 48.8216571,70.60752 C46.717019,70.60752 45.3456274,72.230848 44.94515,74.577984 L44.94515,74.577984 Z M60.8718,70.5655876 C61.5033385,68.9966186 62.8995385,68.0624742 64.4919538,68.0624742 C65.1248769,68.0624742 65.6891077,68.1617835 65.9210923,68.2956701 L65.9210923,71.0319485 L65.8223231,71.0319485 C65.4227846,70.8333144 64.7583231,70.732567 64.0938615,70.732567 C62.6003231,70.732567 61.3372462,71.7329278 60.8718615,73.4026443 L60.8718615,82.9833144 L58.1152462,82.9833144 L58.1152462,68.2956856 L60.8718615,68.2956856 L60.8718615,70.565634 L60.8718,70.5655876 Z M76.1370899,68.1503444 C80.5853146,68.1503444 82.9631753,71.7440978 82.9631753,75.8388333 C82.9631753,79.9379244 80.5852202,83.5302467 76.1369955,83.5302467 C74.3023663,83.5302467 72.7400292,82.5905356 71.9596472,81.5813222 L71.9596472,88.9035089 L69.1396697,88.9035089 L69.1396697,68.4529778 L71.9596472,68.4529778 L71.9596472,70.1311111 C72.7400292,69.0900556 74.3023663,68.1503444 76.1369955,68.1503444 L76.1370899,68.1503444 Z M75.6612157,81.0108222 C78.4461146,81.0108222 80.0772404,78.8288133 80.0772404,75.8388489 C80.0772404,72.8850667 78.4461303,70.6697378 75.6612157,70.6697378 C74.1326045,70.6697378 72.7064764,71.57616 71.9597101,73.0182844 L71.9597101,78.6955956 C72.7064764,80.1377511 74.1326045,81.0108378 75.6612157,81.0108378 L75.6612157,81.0108222 Z M88.9000923,70.5655876 C89.5301846,68.9966186 90.9264,68.0624742 92.5202462,68.0624742 C93.1517538,68.0624742 93.7159692,68.1617835 93.9479385,68.2956701 L93.9479385,71.0319485 L93.8491692,71.0319485 C93.4510462,70.8333144 92.7866,70.732567 92.1221385,70.732567 C90.6270615,70.732567 89.3653692,71.7329278 88.8999846,73.4026443 L88.8999846,82.9833144 L86.1433692,82.9833144 L86.1433692,68.2956856 L88.8999846,68.2956856 L88.8999846,70.565634 L88.9000923,70.5655876 Z M97.92925,62.0848696 C98.9733167,62.0848696 99.8358667,62.947687 99.8358667,64.0371478 C99.8358667,65.1266087 98.9733167,65.9894261 97.92925,65.9894261 C96.9224167,65.9894261 96.0210833,65.1266087 96.0210833,64.0371478 C96.0210833,62.947687 96.9224167,62.0848696 97.92925,62.0848696 Z M96.0001004,84 L96,84 L96,69 L99,69 L99,84 L96.0001004,84 Z M109.373777,74.78648 C111.510794,75.476032 113.884751,76.37408 113.884751,79.275232 C113.884751,82.38488 111.374756,83.973952 108.152416,83.973952 C106.18373,83.973952 104.216301,83.489952 103.095873,82.591872 L103.095873,79.86352 L103.231959,79.86352 C104.488473,81.037072 106.353444,81.55536 108.117373,81.55536 C109.711744,81.55536 111.137973,80.9328 111.137973,79.620752 C111.137973,78.274416 109.951701,77.963152 107.608544,77.16936 C105.505187,76.47832 103.164859,75.68304 103.164859,72.817632 C103.164859,69.880736 105.538816,68.15464 108.559416,68.15464 C110.323439,68.15464 111.884134,68.534416 113.13914,69.398208 L113.13914,72.162336 L113.038176,72.162336 C111.818276,71.160048 110.390711,70.571776 108.626704,70.571776 C106.862697,70.571776 105.878276,71.367056 105.878276,72.437856 C105.878276,73.647168 106.963614,73.9912 109.374139,74.786496 L109.373777,74.78648 Z M123.377221,83.973984 C119.067102,83.973984 116.126982,81.002816 116.126982,76.237056 C116.126982,71.469824 118.866887,68.154656 122.842782,68.154656 C126.887794,68.154656 128.991008,71.160048 128.991008,75.614528 L128.991008,76.928096 L118.899913,76.928096 C119.200925,80.002016 121.10527,81.486816 123.744425,81.486816 C125.383663,81.486816 126.551961,81.107056 127.854282,80.104768 L127.955032,80.104768 L127.955032,82.627648 C126.753615,83.594208 125.182008,83.973968 123.37702,83.973968 L123.377221,83.973984 Z M119.000864,74.577984 L126.317388,74.577984 C126.217969,72.333616 125.14909,70.60752 122.875917,70.60752 C120.771279,70.60752 119.401326,72.230848 119.000864,74.577984 L119.000864,74.577984 Z M72.9999845,0 L73,0 L73,21 L0,21 L0,0 L72.9999845,0 Z M68.4369562,16.4320202 L68.4369562,16.4320202 L68.4369562,4.57031448 L4.56302829,4.57031448 L4.56302829,16.4320202 L68.4369562,16.4320202 Z"/>
</svg>
