<svg xmlns="http://www.w3.org/2000/svg" width="227" height="212" viewBox="0 0 227 212">
  <g>
    <path d="M109.510695,164.822442 C109.451449,180.55101 100.551282,199.609451 64.5895862,199.609451 C58.3825159,199.609451 38.553037,199.595321 35.3786118,199.595321 C38.2607047,192.486772 68.0778582,122.092306 68.0778582,122.092306 C93.0061097,134.834448 109.569157,142.444069 109.510695,164.82238 M219.731112,199.759511 C203.94707,195.880483 197.407692,173.388503 193.513265,164.231147 C190.40617,156.940151 124.911026,0.00023433527 124.911026,0.00023433527 L99.8890787,0.00023433527 C95.4221926,-0.00888800647 85.372913,0.244126613 78.4363088,1.49843047 C44.4725654,6.68238405 19.1391246,28.3389984 19.1391246,64.5407521 C19.5571447,84.0355528 27.4490646,101.190932 55.208151,115.594729 L37.3950258,156.379474 C34.700318,162.519085 27.9543446,177.769834 24.2009741,185.142987 C17.0210513,199.2723 11.5107544,199.802509 0.039239892,199.802509 L0,211.62879 C11.6861153,211.555793 63.312335,211.637919 63.312335,211.637919 C72.7970585,211.62879 87.1482768,210.449151 96.2806618,207.831039 C122.486985,200.434626 137.791207,182.087965 137.791207,158.202248 C137.791207,126.205087 116.52987,111.39732 87.9603446,96.5871135 C82.7583199,93.7342402 80.7643132,92.5122904 80.7643132,92.5122904 L93.2792686,62.8486734 L85.9943681,44.594111 L68.208513,85.8807418 C68.208513,85.8807418 44.1851802,79.6175258 44.1851802,50.2483998 C44.1851802,23.2053771 70.6677634,13.141102 93.1087705,13.141102 C98.1218055,13.1319734 95.8723473,13.1319734 100.200669,13.141102 C101.111181,15.2905046 180.543503,211.555474 180.543503,211.555474 C181.678244,211.504891 224.817613,211.555474 226.673061,211.555474 L226.594581,199.811287 C221.246004,199.851928 222.186953,199.769833 219.730858,199.760705" opacity=".196"/>
    <path d="M206.858141,106.864376 L199.808655,88.8130184 L192.056846,107.561213 L207.128005,107.561213 L206.858134,106.864376 L206.858141,106.864376 Z M204.032898,82.4909041 L218.814163,121.048273 C219.602152,123.07407 221.440798,129.116637 227,128.679465 L227,131.084374 C223.762347,131.017179 220.588766,131.032104 217.343873,130.94335 C214.099011,131.032116 210.876591,131.032116 207.631699,131.076909 L207.631699,128.553372 C207.631699,128.553372 213.752253,128.694396 213.752253,125.82908 C213.752253,124.417987 213.127624,123.231708 212.63032,121.959982 L208.051319,110.224924 L191.13352,110.23324 L186.760323,122.370644 C186.490453,123.306393 186.142904,124.552403 186.142904,125.481512 C186.129269,128.628889 189.671249,128.560862 191.999989,128.560862 L191.999989,131.085231 C189.238017,131.018036 186.434398,131.03296 183.678827,130.944207 C180.932071,131.032967 178.113236,131.032967 175.36569,131.077766 L175.36569,128.554228 C177.764898,128.279639 179.014155,128.562544 180.739087,126.527599 C181.627982,125.399386 183.601162,120.543943 184.239402,119.162699 L199.375418,82.4917607 L204.032892,82.4917607 L204.032898,82.4909041 Z M149.928906,106.708439 L154.294893,106.719194 C163.105347,106.719194 169.14741,106.29694 169.14741,95.6926021 C169.14741,85.5138444 165.689533,84.6618839 157.738339,84.6618839 L149.928912,84.6618839 L149.928912,106.708439 L149.928906,106.708439 Z M149.928906,123.705382 C149.928906,127.513919 149.850427,128.48617 156.686928,128.48617 L156.686928,130.876149 C153.370795,130.80232 150.063447,130.80232 146.76335,130.73595 C143.46163,130.80232 140.11827,130.80232 136.816544,130.876149 L136.830179,128.48617 C143.653058,128.471227 143.574566,127.513919 143.574566,123.697091 L143.574566,89.3107393 C143.574566,85.5030339 143.65304,84.5191652 136.816544,84.5191652 L136.830179,82.1466123 C140.118282,82.1880662 143.461624,82.1880662 146.76335,82.2735311 C151.604216,82.1955566 156.473896,82.1955566 161.330798,82.1466123 C170.275792,81.9226242 175.272785,84.6618527 175.272785,94.4200072 C175.294383,107.62752 167.741187,109.178005 156.403428,109.163875 L149.928906,109.163875 L149.928906,123.70535 L149.928906,123.705382 Z M122.518177,115.622949 L122.518177,128.048216 C119.3518,129.756289 106.815221,130.876205 103.783361,130.861274 C86.6669486,130.861274 80.9515835,121.864607 80.9515835,105.583571 C80.9515835,88.7301232 88.2141008,80.656757 105.27362,80.656757 C111.741746,80.656757 116.241423,81.560988 122.504542,83.3968171 L122.518177,94.6905138 L118.712758,94.6988295 L118.499744,92.658101 C117.513148,84.8054467 114.006426,83.260776 105.252841,83.260776 C92.2317613,83.260776 88.2917842,92.7360692 88.2917842,104.386469 C88.2917842,117.189135 90.591698,127.997578 105.622012,127.997578 C116.448096,127.997578 117.598867,125.450806 118.499744,115.637024 L122.518177,115.623768 L122.518177,115.622949 Z M54.897538,89.3007104 C54.897538,84.7405899 53.6186578,84.5199218 48.1171333,84.5199218 L48.1171333,82.1473689 C51.438871,82.1888227 54.7341591,82.1888227 58.0630944,82.2742876 C61.364814,82.1888415 64.6865759,82.1888415 67.995481,82.1473689 L67.995481,84.5066478 C62.777432,84.519903 61.2294955,84.6626092 61.2294955,89.3114959 L61.2294955,123.706101 C61.2294955,128.279495 62.5075793,128.486889 67.995481,128.486889 L67.995481,130.876868 C64.6865517,130.803039 61.36482,130.803039 58.0630944,130.736669 C54.7341531,130.803039 51.4388287,130.803039 48.1171333,130.876868 L48.1171333,128.486889 C53.6186639,128.471946 54.897538,128.279495 54.897538,123.69781 L54.897538,89.3007041 L54.897538,89.3007104 Z M21.9228161,102.842542 C28.6031301,105.225049 34.5235031,108.252135 34.5235031,116.409259 C34.5235031,127.840697 24.9322937,130.876893 15.2209031,130.876893 C10.1654246,130.861949 4.86969232,130.024101 0,127.840685 L0,115.148312 L4.71353516,115.133369 C5.43105686,122.013765 3.67008828,128.471933 16.1297857,128.471933 C22.3344428,128.471933 28.1835034,125.658044 28.1835034,118.65982 C28.1835034,110.849432 20.5726295,109.09743 14.5105368,106.980346 C7.90147473,104.605299 1.97313791,102.214489 1.97313791,94.0656365 C1.97313791,84.7404649 9.5840118,80.6573572 18.046109,80.6573572 C22.8381239,80.6573572 27.4099273,81.4205577 32.5286699,83.3194366 L32.5286699,94.8404728 L28.6031241,94.832157 C27.892806,89.4391461 29.1644886,83.3044932 18.3304051,83.3044932 C12.6943404,83.3044932 8.09213572,85.7707893 8.09213572,91.9601512 C8.1145611,96.0922219 10.0669207,98.4166934 13.8154887,99.9654281 L21.9228341,102.840704 L21.9228161,102.842542 Z"/>
  </g>
</svg>
