<svg xmlns="http://www.w3.org/2000/svg" width="208" height="64" viewBox="0 0 208 64">
  <path d="M117.637251,62.8420213 C117.637251,62.7264369 117.842597,62.0626008 118.093574,61.3668309 L118.549901,60.1017935 L117.628229,57.5545971 C117.121312,56.1536386 116.70656,54.9747043 116.70656,54.9347441 C116.70656,54.894784 116.853143,54.8621428 117.032302,54.8622098 C117.280624,54.8623021 117.533797,55.3700575 118.09752,56.9985693 C118.504233,58.1734994 118.892682,59.0738904 118.960742,58.9994351 C119.028802,58.9249798 119.366135,57.9949466 119.710371,56.9326957 C120.277961,55.181215 120.619621,54.6180619 120.927719,54.9261594 C121.123427,55.1218697 118.156106,63.0521729 117.887166,63.0521729 C117.749713,63.0521729 117.637251,62.9576028 117.637251,62.8420213 Z M1.69054511,60.5753352 C0.557695554,60.1783917 0.291675826,59.5832927 0.212455231,57.268781 C0.123887814,54.6811881 0.271859695,53.7044878 0.857981551,53.0079212 C2.02927045,51.6159227 4.8374612,52.4166567 4.8374612,54.1426394 C4.8374612,54.5518577 4.7508399,54.6759509 4.46518467,54.6759509 C4.19375338,54.6759509 4.09290813,54.5518577 4.09290813,54.2178572 C4.09290813,53.1423398 2.40696882,52.5905858 1.46105896,53.3565373 C1.03417497,53.702208 1.02162672,53.793036 1.02162672,56.5373336 C1.02162672,59.2816311 1.03417393,59.3724591 1.46105896,59.7181298 C2.08674041,60.2247758 3.17623584,60.1880977 3.68818546,59.6431533 C4.00464881,59.3062937 4.09290813,58.9841285 4.09290813,58.1658409 C4.09290813,57.1217973 4.09141903,57.1191973 3.48948301,57.0610075 C3.09206798,57.0225931 2.86499121,56.8914713 2.82435067,56.6769373 C2.77156484,56.3982898 2.91262846,56.3511953 3.80005158,56.3511953 L4.8374612,56.3511953 L4.8374612,58.5316726 C4.8374612,60.5133944 4.81081365,60.6855008 4.54512584,60.419813 C4.27943654,60.1541252 4.19101491,60.1589722 3.57507743,60.4729964 C2.79732652,60.8695156 2.56597334,60.8820807 1.69054511,60.5753352 Z M10.1105245,60.5534081 C9.25882878,60.1739243 9.11864135,59.7638632 9.11864135,57.6520814 C9.11864135,55.8135982 9.13290699,55.7498898 9.6627384,55.2200479 C10.0889876,54.7937973 10.3738491,54.6759509 10.9779423,54.6759509 C12.5754002,54.6759509 13.027545,55.3713218 13.027545,57.8281206 C13.027545,59.4043334 12.9954786,59.5443288 12.5156647,60.0628981 C11.8977914,60.7306773 10.9446458,60.9250652 10.110523,60.5534081 L10.1105245,60.5534081 Z M11.9425941,59.7659033 C12.223852,59.5113689 12.2829919,59.1696771 12.2829919,57.7992155 C12.2829919,56.8869682 12.1999266,55.985374 12.0984023,55.7956723 C11.8287684,55.2918601 10.8804132,55.1348547 10.3209754,55.5014131 C9.88313951,55.7882938 9.86319442,55.8859226 9.86319442,57.7422736 C9.86319442,59.3943922 9.91166333,59.7114154 10.1889364,59.8729134 C10.6867848,60.1628841 11.5630165,60.1094163 11.9425927,59.7659033 L11.9425941,59.7659033 Z M15.5085343,60.5534081 C15.1838719,60.4087504 14.8278817,60.1215599 14.7174466,59.915207 C14.5939521,59.6844581 14.5166511,58.1737927 14.5166511,55.9911548 C14.5166511,52.5663849 14.5296659,52.4422917 14.8889276,52.4422917 C15.2262831,52.4422917 15.2612042,52.5663849 15.2612042,53.7651749 C15.2612042,54.9531316 15.2944276,55.0740917 15.5869461,54.9511362 C16.7184345,54.4755336 17.558755,54.6526479 18.058356,55.4720345 C18.3521046,55.953805 18.4242994,56.4105749 18.4248578,57.7908289 C18.4256024,59.4081872 18.3953318,59.5423364 17.9136745,60.0628981 C17.2958012,60.7306773 16.3426556,60.9250652 15.5085328,60.5534081 L15.5085343,60.5534081 Z M17.3406039,59.7659033 C17.6218618,59.5113689 17.6810016,59.1696771 17.6810016,57.7992155 C17.6810016,56.8869682 17.5979363,55.985374 17.496412,55.7956723 C17.2267781,55.2918601 16.278423,55.1348547 15.7189852,55.5014131 C15.2811493,55.7882938 15.2612042,55.8859226 15.2612042,57.7422736 C15.2612042,59.3943922 15.3096731,59.7114154 15.5869461,59.8729134 C16.0847945,60.1628841 16.9610263,60.1094163 17.3406024,59.7659033 L17.3406039,59.7659033 Z M20.906544,60.5471688 C19.7718049,60.0535658 19.5541095,58.730632 20.4587579,57.8259837 C20.9300451,57.3546965 21.1417662,57.2818866 22.0409332,57.2818866 C23.0752082,57.2818866 23.0790114,57.2798019 23.0790114,56.7112344 C23.0790114,55.892981 22.7921887,55.4688508 22.1423041,55.3261125 C21.4465401,55.1732975 20.6592139,55.6281896 20.6592139,56.1829963 C20.6592139,56.4481987 20.559834,56.5439407 20.333472,56.496818 C19.86133,56.398528 19.9994565,55.604352 20.5773235,55.094762 C20.9013456,54.8090249 21.289417,54.6759509 21.7986616,54.6759509 C23.4662252,54.6759509 23.8235645,55.3312842 23.8235645,58.3894719 C23.8235645,60.4117525 23.6718052,61.1032397 23.3894602,60.367459 C23.3047882,60.1468077 23.1704783,60.162357 22.5856348,60.4605281 C21.7619849,60.8804501 21.6821822,60.884566 20.906544,60.5471688 Z M22.7386136,59.7659033 C22.968892,59.5575044 23.0790114,59.196207 23.0790114,58.6490737 L23.0790114,57.8403014 L22.0924786,57.8403014 C21.5498855,57.8403014 21.0054311,57.9408161 20.8825798,58.0636674 C20.5324389,58.4138083 20.6023926,59.6500911 20.9849559,59.872912 C21.4828043,60.1628841 22.359036,60.1094163 22.7386122,59.7659033 L22.7386136,59.7659033 Z M38.0312646,60.5471688 C37.7066023,60.4059435 37.3506121,60.1215599 37.240177,59.915207 C37.1271002,59.7039252 37.0393814,58.5182185 37.0393814,57.2010535 C37.0393814,54.9861823 37.0591329,54.8620892 37.411658,54.8620892 C37.7647921,54.8620892 37.7839345,54.9861823 37.7839345,57.2753375 C37.7839345,59.9380663 37.8452068,60.0739606 39.0458165,60.0739606 C40.0389401,60.0739606 40.203732,59.6546432 40.203732,57.1276257 C40.203732,54.9861823 40.2241238,54.8620892 40.5760085,54.8620892 C40.9322727,54.8620892 40.9482851,54.9861823 40.9482851,57.7472323 C40.9482851,60.3332751 40.8134257,61.1472801 40.5141808,60.367459 C40.4295088,60.1468077 40.2951988,60.162357 39.7103554,60.4605281 C38.8867055,60.8804501 38.8069028,60.884566 38.0312646,60.5471688 Z M43.4292744,60.5534081 C43.104612,60.4087504 42.7486218,60.1215584 42.6381867,59.915207 C42.5146922,59.6844611 42.4373912,58.1737957 42.4373912,55.9911577 C42.4373912,52.5663878 42.450406,52.4422947 42.8096677,52.4422947 C43.1470232,52.4422947 43.1819443,52.5663878 43.1819443,53.7651778 C43.1819443,54.9531346 43.2151677,55.0740947 43.5076862,54.9511392 C44.6391746,54.4755366 45.4794951,54.6526509 45.9790961,55.4720375 C46.2728447,55.953808 46.3450395,56.4105779 46.3455979,57.7908318 C46.3463425,59.4081902 46.3160719,59.5423393 45.8344146,60.0629011 C45.2165413,60.7306803 44.2633957,60.9250682 43.4292729,60.5534111 L43.4292744,60.5534081 Z M45.261344,59.7659033 C45.5426019,59.5113719 45.6017417,59.1696801 45.6017417,57.7992185 C45.6017417,56.8869712 45.5186764,55.985377 45.4171521,55.7956753 C45.1475182,55.2918631 44.1991646,55.1348577 43.6397253,55.501416 C43.2018894,55.7882968 43.1819443,55.8859256 43.1819443,57.7422766 C43.1819443,59.3943951 43.2304132,59.7114184 43.5076862,59.8729164 C44.0055346,60.1628871 44.8817664,60.1094192 45.261344,59.7659063 L45.261344,59.7659033 Z M54.7837087,60.5534081 C53.9320129,60.1739243 53.7918255,59.7638632 53.7918255,57.6520814 C53.7918255,55.8135982 53.8060911,55.7498898 54.3359225,55.2200479 C54.7621717,54.7937973 55.0470348,54.6759509 55.6511264,54.6759509 C57.2485844,54.6759509 57.7007291,55.3713218 57.7007291,57.8281206 C57.7007291,59.4043334 57.6686627,59.5443288 57.1888489,60.0628981 C56.5709756,60.7306773 55.61783,60.9250652 54.7837072,60.5534081 L54.7837087,60.5534081 Z M56.6157783,59.7659033 C56.8970362,59.5113719 56.956176,59.1696801 56.956176,57.7992185 C56.956176,56.8869712 56.8731107,55.985377 56.7715865,55.7956753 C56.5019525,55.2918631 55.5535989,55.1348577 54.9941596,55.501416 C54.5563237,55.7882968 54.5363786,55.8859256 54.5363786,57.7422766 C54.5363786,59.3943951 54.5848475,59.7114184 54.8621205,59.8729164 C55.3599689,60.1628871 56.2362007,60.1094192 56.6157783,59.7659063 L56.6157783,59.7659033 Z M66.4886726,60.6084276 C65.4516636,60.3093585 64.6128277,58.3987162 65.5185363,58.3987162 C65.7885709,58.3987162 65.8908129,58.5228094 65.8908129,58.8505512 C65.8908129,59.4446182 66.7047106,60.0739606 67.4729882,60.0739606 C68.3823346,60.0739606 69.0557903,59.4530585 69.0523133,58.6178784 C69.0508242,58.2413996 68.978744,57.8218142 68.8923118,57.6854686 C68.8058781,57.5491216 68.0323604,57.0884294 67.173383,56.6617082 C65.7931409,55.9760314 65.5856265,55.8062644 65.388104,55.2011586 C64.7852052,53.3541979 66.390481,51.8450142 68.3374664,52.4283462 C69.4253775,52.7542937 70.2570523,54.2744864 69.5052845,54.5629665 C69.07743,54.7271523 69.0551634,54.7139067 69.0551634,54.2952147 C69.0551634,53.683892 68.2355088,53.0007065 67.5020704,53.0007065 C66.5962337,53.0007065 66.0024958,53.5370691 66.0024958,54.3553672 C66.0024958,55.2380751 66.271695,55.5133438 67.8464977,56.2409478 C69.3820609,56.9504235 69.8000009,57.4311189 69.7990196,58.4866688 C69.7981261,59.5445179 69.2385751,60.3778366 68.3668271,60.6199161 C67.5431891,60.8486324 67.3167645,60.8472475 66.4886726,60.6084351 L66.4886726,60.6084276 Z M80.6569278,60.5471673 C79.5221888,60.0535644 79.3044933,58.730632 80.2091417,57.8259822 C80.6804289,57.354695 80.89215,57.2818851 81.791317,57.2818851 C82.825592,57.2818851 82.8293952,57.2798004 82.8293952,56.7112344 C82.8293952,55.8929795 82.5425725,55.4688508 81.8926879,55.3261125 C81.1969239,55.173296 80.4095977,55.6281881 80.4095977,56.1829963 C80.4095977,56.4481987 80.3102178,56.5439407 80.0838558,56.496818 C79.6117138,56.398528 79.7498403,55.604352 80.3277073,55.0947605 C80.6517309,54.8090249 81.0398008,54.6759494 81.5490454,54.6759494 C83.216609,54.6759494 83.5739483,55.3312842 83.5739483,58.3894719 C83.5739483,60.4117525 83.422189,61.1032397 83.1398441,60.367459 C83.055172,60.1468062 82.9208621,60.162357 82.3360186,60.4605281 C81.5123687,60.8804486 81.4325645,60.884566 80.6569278,60.5471673 Z M82.488996,59.7659033 C82.7192758,59.5575044 82.8293952,59.1962055 82.8293952,58.6490737 L82.8293952,57.8403044 L81.8428624,57.8403044 C81.3002693,57.8403044 80.7558149,57.9408191 80.6329636,58.0636703 C80.2828227,58.4138113 80.3527764,59.650094 80.7353397,59.8729149 C81.2331881,60.1628871 82.1094198,60.1094192 82.488996,59.7659063 L82.488996,59.7659033 Z M102.062827,60.5534081 C101.211133,60.1739243 101.070945,59.7638632 101.070945,57.6520814 C101.070945,55.8135982 101.085196,55.7498898 101.615042,55.2200479 C102.041292,54.7937973 102.326153,54.6759509 102.930248,54.6759509 C103.354356,54.6759509 103.862506,54.7621955 104.059468,54.8676063 C104.507339,55.1073003 105.040505,56.110788 104.906091,56.4610645 C104.728945,56.9226949 104.317971,56.742659 104.134186,56.1229153 C103.900329,55.3343353 102.998069,55.0265148 102.286704,55.4926169 C101.832319,55.7903399 101.815498,55.8707441 101.815498,57.7449748 C101.815498,59.4760622 101.854867,59.7096538 102.175539,59.8812733 C103.051002,60.3498086 104.235296,59.8902973 104.235296,59.0820775 C104.235296,58.8950859 104.383797,58.7709928 104.607572,58.7709928 C105.148781,58.7709928 105.080743,59.40063 104.467969,60.0628981 C103.850095,60.7306773 102.896951,60.9250652 102.062829,60.5534081 L102.062827,60.5534081 Z M107.460837,60.5534081 C106.609143,60.1739273 106.468955,59.7638662 106.468955,57.6520844 C106.468955,55.8136012 106.483206,55.7498928 107.013052,55.2200509 C107.439301,54.7938002 107.724163,54.6759539 108.328258,54.6759539 C109.925714,54.6759539 110.377859,55.3713247 110.377859,57.8281235 C110.377859,59.4043364 110.345792,59.5443318 109.865979,60.0629011 C109.248105,60.7306803 108.29496,60.9250682 107.460838,60.5534111 L107.460837,60.5534081 Z M109.292906,59.7659033 C109.574166,59.5113719 109.633306,59.1696801 109.633306,57.7992185 C109.633306,56.8869712 109.550239,55.985377 109.448716,55.7956753 C109.179082,55.2918631 108.230729,55.1348577 107.671289,55.501416 C107.233453,55.7882968 107.213508,55.8859256 107.213508,57.7422766 C107.213508,59.3943951 107.261977,59.7114184 107.53925,59.8729164 C108.037099,60.1628871 108.91333,60.1094192 109.292906,59.7659063 L109.292906,59.7659033 Z M113.081318,60.6279796 C112.062038,60.3114001 111.363519,58.7709928 112.239241,58.7709928 C112.510826,58.7709928 112.611518,58.8950859 112.611518,59.2297894 C112.611518,60.0949273 114.284967,60.4235506 114.949759,59.6889642 C115.501941,59.0788074 115.011482,58.3932393 113.726547,57.9791487 C112.418214,57.5575157 112.015876,57.1486563 112.015876,56.2407423 C112.015876,55.2529751 112.690785,54.6759509 113.846115,54.6759509 C114.528076,54.6759509 114.790862,54.779137 115.231771,55.2200479 C115.827417,55.8156919 115.926651,56.253504 115.502874,56.4161233 C115.32925,56.4827504 115.142771,56.3391306 114.990562,56.0215578 C114.667595,55.3477105 113.947776,55.1091036 113.247485,55.4437578 C112.136745,55.9745572 112.630154,57.0302619 114.193559,57.4679877 C115.316866,57.7824943 115.816619,58.3554815 115.741835,59.2431511 C115.64684,60.370738 114.37856,61.0308915 113.081318,60.6279811 L113.081318,60.6279796 Z M123.132784,60.6279796 C122.113504,60.3114001 121.414985,58.7709928 122.290708,58.7709928 C122.562293,58.7709928 122.662984,58.8950859 122.662984,59.2297894 C122.662984,60.0949273 124.336433,60.4235506 125.001225,59.6889642 C125.553408,59.0788074 125.062948,58.3932393 123.778014,57.9791487 C122.469681,57.5575157 122.067342,57.1486563 122.067342,56.2407423 C122.067342,55.2529751 122.742251,54.6759509 123.897581,54.6759509 C124.579543,54.6759509 124.842328,54.779137 125.283238,55.2200479 C125.878883,55.8156919 125.978117,56.253504 125.55434,56.4161233 C125.380716,56.4827504 125.194237,56.3391306 125.042028,56.0215578 C124.719062,55.3477105 123.999243,55.1091036 123.298952,55.4437578 C122.188211,55.9745572 122.681621,57.0302619 124.245026,57.4679877 C125.368333,57.7824943 125.868086,58.3554815 125.793301,59.2431511 C125.698307,60.370738 124.430026,61.0308915 123.132784,60.6279811 L123.132784,60.6279796 Z M132.403365,60.5534081 C131.55167,60.1739273 131.411483,59.7638662 131.411483,57.6520844 C131.411483,55.8136012 131.425734,55.7498928 131.95558,55.2200509 C132.390345,54.785284 132.662542,54.6759539 133.310199,54.6759539 C134.673357,54.6759539 135.407584,55.5487562 135.286515,57.025272 L135.227317,57.7472353 L133.691677,57.8012973 L132.156036,57.8553593 L132.156036,58.7719741 C132.156036,59.487701 132.234944,59.73082 132.516075,59.8812763 C133.39154,60.3498086 134.575834,59.8903017 134.575834,59.0820775 C134.575834,58.8950859 134.724335,58.7709928 134.94811,58.7709928 C135.489318,58.7709928 135.421281,59.40063 134.808506,60.0628981 C134.190633,60.7306773 133.237487,60.9250652 132.403366,60.5534081 L132.403365,60.5534081 Z M134.575834,56.7112344 C134.575834,55.892981 134.289011,55.4688523 133.639126,55.3261125 C132.751242,55.1311021 132.156036,55.6189214 132.156036,56.5416237 L132.156036,57.2818866 L133.365935,57.2818866 L134.575834,57.2818866 L134.575834,56.7112344 Z M146.400066,60.6279811 C145.380788,60.3114001 144.682263,58.7709928 145.557991,58.7709928 C145.829574,58.7709928 145.930268,58.8950859 145.930268,59.2297894 C145.930268,60.0949273 147.60371,60.4235506 148.268507,59.6889642 C148.820697,59.0788074 148.33023,58.3932393 147.045296,57.9791487 C145.736967,57.5575157 145.334625,57.1486563 145.334625,56.2407423 C145.334625,55.2529751 146.009533,54.6759509 147.164871,54.6759509 C147.846822,54.6759509 148.109619,54.779137 148.550514,55.2200479 C149.146171,55.8156919 149.245405,56.253504 148.821621,56.4161233 C148.648006,56.4827504 148.461525,56.3391306 148.309308,56.0215578 C147.986351,55.3477105 147.266532,55.1091036 146.566235,55.4437578 C145.455496,55.9745572 145.948897,57.0302619 147.512309,57.4679877 C148.635616,57.7824943 149.135375,58.3554815 149.060577,59.2431511 C148.965587,60.370738 147.697316,61.0308915 146.400066,60.6279811 Z M6.69884387,56.5373336 C6.69884387,52.5663849 6.7101313,52.4422917 7.07112041,52.4422917 C7.43211547,52.4422917 7.44339694,52.5663849 7.44339694,56.5373336 C7.44339694,60.5082823 7.43212441,60.6323754 7.07112041,60.6323754 C6.71012534,60.6323754 6.69884387,60.5082823 6.69884387,56.5373336 Z M25.4988089,56.5373336 C25.4988089,52.5663849 25.5100814,52.4422917 25.8710854,52.4422917 C26.2320805,52.4422917 26.2433619,52.5663849 26.2433619,56.5373336 C26.2433619,60.5082823 26.2320894,60.6323754 25.8710854,60.6323754 C25.5100903,60.6323754 25.4988089,60.5082823 25.4988089,56.5373336 Z M30.7106804,56.5373336 C30.7106804,52.5663849 30.7219678,52.4422917 31.0829569,52.4422917 C31.430416,52.4422917 31.4552334,52.5663849 31.4552334,54.3036744 L31.4552334,56.165057 L33.0374087,56.165057 L34.619584,56.165057 L34.619584,54.3036744 C34.619584,52.5663849 34.6444014,52.4422917 34.9918605,52.4422917 C35.3528556,52.4422917 35.364137,52.5663849 35.364137,56.5373336 C35.364137,60.5082823 35.3528496,60.6323754 34.9918605,60.6323754 C34.6444014,60.6323754 34.619584,60.5082823 34.619584,58.7709928 L34.619584,56.9096101 L33.0374087,56.9096101 L31.4552334,56.9096101 L31.4552334,58.7709928 C31.4552334,60.5082823 31.430416,60.6323754 31.0829569,60.6323754 C30.7219618,60.6323754 30.7106804,60.5082823 30.7106804,56.5373336 Z M50.8136132,58.0264397 L50.8136132,55.420504 L50.3482676,55.420504 C50.0587183,55.420504 49.8829219,55.3150246 49.8829219,55.1412966 C49.8829219,54.9717067 50.0559947,54.8620892 50.3237584,54.8620892 C50.7016295,54.8620892 50.779745,54.7491345 50.8706653,54.0712919 C50.9424566,53.5360416 51.134182,53.1450619 51.4639669,52.8613932 C52.0259586,52.3779906 53.0472724,52.2877508 53.0472724,52.7214991 C53.0472724,52.8750632 52.8983856,53.0007065 52.7164139,53.0007065 C52.058296,53.0007065 51.5332223,53.553421 51.5942414,54.1819518 C51.6439522,54.6940033 51.7285364,54.776473 52.2561848,54.8273483 C53.1135302,54.9100116 53.0734807,55.420504 52.2096502,55.420504 L51.5581663,55.420504 L51.5581663,58.0264397 C51.5581663,60.5082823 51.5404459,60.6323754 51.1858898,60.6323754 C50.831341,60.6323754 50.8136132,60.5082823 50.8136132,58.0264397 Z M59.1898353,57.7472323 C59.1898353,56.122753 59.2643903,54.8620892 59.360463,54.8620892 C59.4543065,54.8620892 59.5653997,54.9650206 59.6073345,55.0908233 C59.6633397,55.2588406 59.813942,55.2341379 60.1747107,54.9977542 C60.8668085,54.5442722 61.6096327,54.5704031 61.6096327,55.0482274 C61.6096327,55.3237731 61.4855396,55.420504 61.1320496,55.420504 C60.8693787,55.420504 60.4924502,55.5072131 60.2944274,55.6131913 C59.9668896,55.7884844 59.9343883,56.0237245 59.9343883,58.2191271 C59.9343883,60.5082823 59.9152459,60.6323754 59.5621118,60.6323754 C59.2058461,60.6323754 59.1898353,60.5082823 59.1898353,57.7472323 Z M71.2888226,57.7472323 C71.2888226,56.122753 71.3633777,54.8620892 71.4594504,54.8620892 C71.5532938,54.8620892 71.6643871,54.9650206 71.7063218,55.0908233 C71.7623271,55.2588406 71.9129293,55.2341379 72.2736981,54.9977542 C72.9316001,54.5666788 73.7374358,54.5916913 74.3350022,55.0617381 L74.8254497,55.4475238 L75.3158987,55.0617381 C75.8458746,54.6448569 76.6828267,54.5610902 77.2555578,54.8676063 C77.9758607,55.2531016 78.1759385,56.0187062 78.1759385,58.3894719 C78.1759385,60.5082823 78.1553427,60.6323754 77.803662,60.6323754 C77.4515479,60.6323754 77.4313855,60.5082823 77.4313855,58.3412233 C77.4313855,55.6740838 77.2988759,55.3460487 76.2214867,55.3460487 C75.1440976,55.3460487 75.011588,55.6740838 75.011588,58.3412233 C75.011588,60.4970365 74.9899155,60.6323754 74.6447154,60.6323754 C74.3007721,60.6323754 74.2745936,60.4786416 74.2259043,58.172862 L74.1739658,55.7133486 L73.6620855,55.4273226 C73.2016569,55.1700482 73.0987537,55.1700482 72.6383251,55.4273226 L72.1264448,55.7133486 L72.0745063,58.172862 C72.025817,60.4786416 71.9996385,60.6323754 71.6556952,60.6323754 C71.306403,60.6323754 71.2888226,60.4941209 71.2888226,57.7472323 Z M85.0630544,57.7472323 C85.0630544,56.122753 85.1376095,54.8620892 85.2336821,54.8620892 C85.3275256,54.8620892 85.4386174,54.9650206 85.4805536,55.0908233 C85.5365589,55.2588406 85.6871611,55.2341379 86.0479299,54.9977542 C86.7400277,54.5442722 87.4828519,54.5704031 87.4828519,55.0482274 C87.4828519,55.3237731 87.3587587,55.420504 87.0052687,55.420504 C86.7425979,55.420504 86.3656679,55.5072131 86.1676465,55.6131913 C85.8401087,55.7884844 85.8076075,56.0237245 85.8076075,58.2191271 C85.8076075,60.5082823 85.788465,60.6323754 85.4353309,60.6323754 C85.0790653,60.6323754 85.0630544,60.5082823 85.0630544,57.7472323 Z M89.8095802,60.4075532 C89.0759289,59.9868062 88.9839617,59.666906 88.9778772,57.5145595 L88.971958,55.420504 L88.4135432,55.420504 C88.0412667,55.420504 87.8551284,55.3274348 87.8551284,55.1412966 C87.8551284,54.9551583 88.0412667,54.8620892 88.4135432,54.8620892 C88.940934,54.8620892 88.971958,54.8207248 88.971958,54.1175361 C88.971958,53.4970762 89.0340031,53.372983 89.3442346,53.372983 C89.654466,53.372983 89.7165111,53.4970762 89.7165111,54.1175361 C89.7165111,54.8620892 89.7165111,54.8620892 90.4610642,54.8620892 C90.9987968,54.8620892 91.2056172,54.9396478 91.2056172,55.1412966 C91.2056172,55.3429454 90.9987968,55.420504 90.4610642,55.420504 L89.7165111,55.420504 L89.7193553,57.4214903 C89.7208444,58.5220321 89.7840167,59.5196215 89.8595636,59.6383539 C89.9351119,59.7570863 90.2472211,59.8827296 90.5531401,59.9175613 C91.318688,60.0047261 91.455723,60.6347744 90.7073787,60.6267154 C90.4183402,60.6236031 90.0143279,60.5249796 89.8095758,60.4075532 L89.8095802,60.4075532 Z M95.3006591,56.5373336 L95.3006591,52.4422917 L97.6273875,52.4422917 C99.8300226,52.4422917 99.9541158,52.4621474 99.9541158,52.8145682 C99.9541158,53.1632082 99.8300226,53.1868448 97.999664,53.1868448 L96.0452122,53.1868448 L96.0452122,54.6759509 L96.0452122,56.165057 L97.6273875,56.165057 C99.0854696,56.165057 99.2095627,56.1942539 99.2095627,56.5373336 C99.2095627,56.8804132 99.0854696,56.9096101 97.6273875,56.9096101 L96.0452122,56.9096101 L96.0452122,58.3987162 L96.0452122,59.8878224 L97.999664,59.8878224 C99.8300226,59.8878224 99.9541158,59.9114575 99.9541158,60.2600989 C99.9541158,60.6125197 99.8300226,60.6323754 97.6273875,60.6323754 L95.3006591,60.6323754 L95.3006591,56.5373336 Z M128.712478,60.4075532 C127.978827,59.9868062 127.88686,59.666906 127.880775,57.5145595 L127.874856,55.420504 L127.316441,55.420504 C126.944165,55.420504 126.758026,55.3274348 126.758026,55.1412966 C126.758026,54.9551583 126.944165,54.8620892 127.316441,54.8620892 C127.843832,54.8620892 127.874856,54.8207248 127.874856,54.1175361 C127.874856,53.4970762 127.936901,53.372983 128.247132,53.372983 C128.557364,53.372983 128.619409,53.4970762 128.619409,54.1175361 C128.619409,54.8620892 128.619409,54.8620892 129.363962,54.8620892 C129.901695,54.8620892 130.108515,54.9396478 130.108515,55.1412966 C130.108515,55.3429454 129.901695,55.420504 129.363962,55.420504 L128.619409,55.420504 L128.622253,57.4214903 C128.623742,58.5220321 128.686915,59.5196215 128.762461,59.6383539 C128.83801,59.7570863 129.150119,59.8827296 129.456038,59.9175613 C130.221586,60.0047261 130.358621,60.6347744 129.610277,60.6267154 C129.321238,60.6236031 128.917226,60.5249796 128.712474,60.4075532 L128.712478,60.4075532 Z M136.809493,57.7472323 C136.809493,56.122753 136.884048,54.8620892 136.98012,54.8620892 C137.073964,54.8620892 137.185056,54.9650206 137.226992,55.0908233 C137.282997,55.2588406 137.433599,55.2341379 137.794373,54.9977542 C138.452275,54.5666788 139.258104,54.5916913 139.855668,55.0617381 L140.34612,55.4475238 L140.836572,55.0617381 C141.366545,54.6448569 142.203497,54.5610902 142.776222,54.8676063 C143.496532,55.2531016 143.696609,56.0187062 143.696609,58.3894719 C143.696609,60.5082823 143.676014,60.6323754 143.324332,60.6323754 C142.972218,60.6323754 142.952056,60.5082823 142.952056,58.3412233 C142.952056,55.6740838 142.81954,55.3460487 141.742157,55.3460487 C140.664774,55.3460487 140.532258,55.6740838 140.532258,58.3412233 C140.532258,60.4970365 140.510592,60.6323754 140.165387,60.6323754 C139.821448,60.6323754 139.79527,60.4786416 139.746576,58.172862 L139.694636,55.7133486 L139.182756,55.4273226 C138.722324,55.1700482 138.619427,55.1700482 138.158995,55.4273226 L137.647115,55.7133486 L137.595175,58.172862 C137.546487,60.4786416 137.520309,60.6323754 137.176365,60.6323754 C136.827073,60.6323754 136.809493,60.4941209 136.809493,57.7472323 Z M70.171993,45.3697821 C68.3288028,45.1523979 65.1611241,44.2568658 64.587845,43.7910898 C64.4342809,43.6663221 64.1829943,43.5198 64.0294302,43.4654849 C63.6202879,43.320772 61.3810162,41.6193343 61.025376,41.1829532 C60.8576014,40.9770858 60.5116046,40.5847718 60.2564969,40.3111411 C58.7476541,38.6927508 57.1258701,34.7852231 56.762421,31.8925123 C56.4908512,29.7310777 56.6255185,25.5501442 57.0208196,23.8700677 C57.9371709,19.9754833 60.0388104,16.6109448 62.7534107,14.6926976 C63.8786791,13.8975387 66.3970702,12.7022854 67.4911418,12.4441265 C70.0742392,11.8346145 74.3440738,11.8603299 76.8136923,12.5002732 C77.9977878,12.807102 80.4711648,13.9466465 80.913815,14.3892952 C81.0653986,14.5408788 81.4118317,14.7821735 81.683665,14.9255074 C82.093473,15.1415916 83.2637883,16.3104029 84.3960748,17.6344357 C85.3239399,18.7194297 86.8144666,22.2820193 87.3164651,24.6146207 C87.6248828,26.047735 87.6249364,31.1171347 87.31655,32.7116354 C86.3944791,37.479162 83.849896,41.2884162 80.1303903,43.4693521 C77.681393,44.9053239 73.3089381,45.7397505 70.171993,45.3697821 Z M73.8795114,40.6939218 C74.9970156,40.5043809 75.7121529,40.2278078 77.3581423,39.3485889 C77.8506418,39.0855174 79.0767241,37.8700047 80.0177022,36.7119567 C80.3611809,36.2892441 81.153844,34.6373683 81.1552974,34.3412565 C81.1558931,34.2127869 81.2803913,33.8700274 81.431881,33.5795743 C81.9316727,32.6213151 82.1333438,30.7297378 82.0375035,27.8991883 C81.9545885,25.450459 81.8878572,25.0189815 81.3817532,23.6591998 C80.7306803,21.90992 80.565872,21.5800443 79.7466909,20.3864915 C78.891113,19.1399131 77.5637729,18.0554894 75.9445844,17.2802101 C74.5525725,16.6137056 74.5348655,16.6106752 72.0333757,16.6106752 L69.5205091,16.6106752 L68.1244721,17.2984889 C66.7015254,17.9995601 65.2369762,19.2243275 64.3353298,20.4672606 C63.5985142,21.4829695 62.6115733,23.7074111 62.3300548,24.9868973 C62.0126802,26.4293571 62.0187185,30.9728642 62.3399574,32.4316372 C62.6068558,33.6436609 63.7436186,36.1372883 64.5041066,37.1789538 C65.1310724,38.0377287 66.4017803,39.1616539 67.0487105,39.4296201 C67.3332564,39.5474828 67.5660647,39.7107841 67.5660647,39.7925122 C67.5660647,39.9821365 69.1669134,40.5163072 70.3140969,40.709474 C71.6204227,40.9294388 72.5139237,40.9255418 73.8795189,40.6939129 L73.8795114,40.6939218 Z M142.672848,45.3843619 C141.368168,45.1260765 138.731199,44.1423208 138.097674,43.6775321 C136.493199,42.5004175 134.930172,40.6795147 134.1248,39.0492026 C133.190817,37.1585456 132.852647,35.9117081 132.433704,32.8141216 C132.156471,30.7643223 132.156571,30.4139565 132.435044,28.3468032 C132.952082,24.5076731 133.622681,22.5908793 135.238556,20.3334406 C136.722073,18.2609101 138.435917,16.9975018 141.090755,16.0193437 C142.355512,15.5533473 142.723068,15.504527 144.999658,15.5001445 C147.292584,15.4957368 147.648287,15.5422401 149.063757,16.0315529 C151.574136,16.8993623 153.44627,18.3605283 154.927931,20.6084189 C155.858548,22.0202792 156.78169,24.1766672 157.082146,25.6404659 C157.367236,27.0293642 157.640338,30.2954162 157.522788,30.91028 L157.427485,31.4086675 L146.5325,31.4086675 L135.637523,31.4086675 L135.750835,32.8512391 C136.029725,36.4017684 137.868359,39.784413 140.393764,41.3931137 C141.842545,42.3159932 143.109238,42.6667298 144.999614,42.6684378 C147.691962,42.67088 149.555802,42.0179814 151.229662,40.4860992 C152.427737,39.389651 153.474772,37.7020663 153.945568,36.1086587 L154.179313,35.3175711 L155.825103,35.3175711 C156.730271,35.3175711 157.470878,35.3387775 157.470878,35.3646983 C157.470878,35.7551003 156.607375,38.1680687 156.073173,39.2704644 C154.664344,42.177761 152.018426,44.3976579 149.373863,44.8911387 C148.964359,44.9675537 148.520292,45.1201766 148.387062,45.230299 C148.092562,45.4737008 143.719712,45.5916008 142.672885,45.3843619 L142.672848,45.3843619 Z M154.189803,28.4686657 C154.240091,28.3873054 154.204918,27.7129294 154.111625,26.9700516 C153.73028,23.9329467 151.505168,20.450873 149.187688,19.2645751 C148.164984,18.7410634 146.088962,18.1928505 145.129173,18.1928505 C144.076688,18.1928505 141.451528,18.9352652 140.698338,19.4459199 C138.42078,20.9900828 136.526569,23.9346353 135.900603,26.9039755 C135.49643,28.821219 134.421702,28.6165935 144.895518,28.6165935 C149.957094,28.6165935 154.139516,28.550026 154.189803,28.4686657 Z M188.090585,45.4461866 C187.047705,45.1954167 185.046421,44.5434905 184.553958,44.2941203 C183.042218,43.5286125 181.476691,41.6339305 180.981876,39.9710278 C180.580323,38.6214762 180.581515,35.9221988 180.984258,34.5534541 C182.055625,30.9125331 185.414423,29.2991387 193.901628,28.3486467 C199.39582,27.7333465 200.082089,27.3233048 200.242034,24.5603443 C200.477819,20.487429 198.377643,18.5037163 193.558568,18.2474947 C191.850087,18.1566578 191.394525,18.198999 190.210328,18.5586867 C189.456453,18.787671 188.545478,19.1264084 188.185918,19.3114417 C186.678004,20.0874343 185.450906,22.0108487 185.255432,23.9048755 L185.153368,24.8938281 L183.504168,24.8938281 C181.629979,24.8938281 181.693043,24.96834 182.054419,23.1812116 C182.339077,21.7733154 182.788787,20.4265097 182.97418,20.4265097 C183.061412,20.4265097 183.190592,20.2444203 183.261235,20.021866 C183.438945,19.4619621 184.919147,17.9145157 185.92888,17.2330635 C186.389981,16.9218776 187.567552,16.4090205 188.545716,16.0933821 C190.232992,15.5489351 190.481762,15.5191843 193.395496,15.5134289 C196.40973,15.5074724 196.498376,15.5187748 198.168424,16.1218523 C200.706039,17.0382333 202.103863,18.2802044 202.969198,20.3873492 C203.701719,22.1710154 203.812181,23.7719907 203.815933,32.6563434 C203.818167,38.0103798 203.885058,40.6563651 204.025912,40.965505 C204.292075,41.5496813 204.928311,41.8324104 205.976745,41.8324104 L206.813757,41.8324104 L206.759077,43.1819129 L206.704382,44.5314153 L204.720491,44.5314153 C202.7851,44.5314153 202.7194,44.5174922 202.033354,43.9620884 C201.26094,43.3367501 200.941556,42.5642778 200.748821,40.8551845 C200.682422,40.2665215 200.561507,39.7848895 200.480082,39.7848895 C200.398688,39.7848895 200.116562,40.1105808 199.853124,40.5086487 C199.106769,41.6364456 197.732324,43.0517665 196.680717,43.7753917 C195.085393,44.8731652 193.290157,45.3795744 190.696491,45.4634617 C189.467979,45.5031941 188.295308,45.4954195 188.090556,45.4461881 L188.090585,45.4461866 Z M193.209388,42.3727832 C196.164534,41.3552279 197.510016,40.4851208 198.713422,38.8133803 C200.008215,37.0146518 200.160074,36.3911258 200.244491,32.5264188 C200.3185,29.1384299 200.314002,29.088929 199.961501,29.4079357 C199.764507,29.586222 199.023245,29.8636484 198.314267,30.024445 C197.605289,30.1852387 196.732062,30.3939697 196.373738,30.4882912 C196.01543,30.5826141 194.465821,30.8332754 192.93018,31.0453166 C189.82392,31.4742313 187.092586,32.277622 185.965914,33.0937772 C185.574353,33.3774326 184.974154,34.014767 184.632181,34.5100765 C184.047752,35.3565023 184.010137,35.5057524 184.006563,36.9928155 C184.003138,38.3825327 184.06367,38.6768784 184.503537,39.412613 C185.488908,41.060714 186.52488,41.8391114 188.742069,42.5972928 C189.359125,42.8082991 192.386418,42.6561601 193.209388,42.3727832 Z M101.443222,45.2085432 C101.289658,45.1207172 100.63516,44.9481104 99.9887837,44.8249718 C98.8079523,44.600014 97.1601164,43.9869743 96.9796397,43.7054871 C96.9263967,43.6224456 96.6252845,43.3973791 96.3105024,43.2053365 C94.4817118,42.0896372 92.918953,38.6798551 92.8873556,35.7363822 C92.8814588,35.1868648 92.9320288,35.1314328 93.4392764,35.1314328 C93.975852,35.1314328 93.9976912,35.163739 93.9976912,35.9575055 C93.9976912,37.2317813 94.5034215,39.1196567 95.1346029,40.2015637 C96.0924183,41.8433524 96.9630436,42.5041418 99.870428,43.7959845 C100.856508,44.2341317 104.323864,44.4840707 106.193335,44.2517627 C107.808434,44.0510624 108.118515,43.9534962 110.134034,43.0118465 C112.174778,42.0584076 113.542209,39.904837 113.542209,37.6442994 C113.542209,35.1839164 112.013614,33.0794803 109.620523,32.2452682 C109.166861,32.0871251 108.544397,31.8410086 108.237269,31.6983418 C107.930141,31.555675 106.715588,31.2247212 105.538264,30.9628887 C102.720979,30.3363324 98.6854867,29.2448682 98.4068764,29.0340867 C98.285285,28.9420987 97.7728582,28.7140852 97.2681495,28.5273886 C96.3419821,28.1847914 95.1569768,27.1192258 94.6452469,26.1688529 C94.4991611,25.8975437 94.2808746,25.0775481 94.1601691,24.3466412 C93.8357361,22.3821245 94.1588289,20.7958914 95.183733,19.3233427 C96.502198,17.4287857 97.7193829,16.7082787 100.767722,16.0179216 C102.431902,15.6410363 103.113782,15.5715397 104.235296,15.6645076 C108.891305,16.050475 111.727312,17.6027788 112.962409,20.4413367 C113.414654,21.480706 113.987078,24.0638957 113.846395,24.4305106 C113.787895,24.5829608 113.539466,24.7076899 113.29433,24.7076899 C112.879755,24.7076899 112.841831,24.623058 112.75136,23.4959804 C112.697865,22.8295398 112.575176,22.1803819 112.478721,22.0534088 C112.382264,21.9264342 112.152989,21.4158703 111.969219,20.9188216 C111.349003,19.2413123 109.903523,18.0525618 107.492716,17.2373894 C105.743752,16.6460073 101.791295,16.5990453 100.047185,17.148926 C97.8311493,17.8475923 96.4532273,18.8677432 95.6647947,20.3934501 C94.8071113,22.0531646 95.0013279,24.9646039 96.0550016,26.2428913 C97.1495184,27.5707287 98.650798,28.1718094 104.607572,29.6671519 C105.989649,30.0140987 107.287964,30.3738489 107.492716,30.4665979 C107.697468,30.5593469 108.451328,30.8068184 109.16796,31.0165382 C111.593231,31.7262819 113.833748,33.6352028 114.307796,35.3956822 C114.419975,35.812279 114.479436,36.9912162 114.439932,38.015544 C114.377909,39.6238725 114.297804,40.0049303 113.852771,40.80865 C113.224086,41.9440413 112.720817,42.5318287 111.866965,43.1279521 C111.508649,43.3781116 111.1736,43.6287043 111.122412,43.6848242 C110.876106,43.9548647 109.580917,44.4777524 108.237269,44.8495986 C107.115069,45.1601621 106.129007,45.2748248 104.235296,45.3149636 C102.853219,45.3442573 101.596786,45.2963691 101.443222,45.2085432 Z M0.184004518,22.4559589 L0.184004518,0.287433255 L11.3988351,0.375546644 C18.5046337,0.4313777 23.0910642,0.541683237 23.9166336,0.676606677 C27.5580491,1.27172943 30.1948227,3.0531888 31.7970756,6.00079399 C32.9508321,8.12331525 33.3044278,10.2224754 32.9605336,12.9077805 C32.524227,16.314702 30.6702139,18.9552088 27.5906411,20.5556435 C27.0519451,20.8356014 26.6376758,21.144104 26.670043,21.2412071 C26.7024102,21.3383102 27.2357648,21.5565075 27.8552747,21.7260884 C28.474786,21.8956693 29.5414476,22.3879588 30.2256353,22.8200617 C32.3801783,24.1807786 33.609556,25.817403 34.4344151,28.4230543 C36.704133,35.5928696 31.9092827,43.2577977 24.4283485,44.4185039 C23.5650795,44.5524445 19.0932997,44.6244845 11.6423874,44.6244845 L0.184004518,44.6244845 L0.184004518,22.4559589 Z M22.6670144,39.5921828 C24.7378816,39.2561273 25.7622675,38.7552783 27.0607159,37.4439893 C28.0592792,36.4355533 28.3091691,36.0462041 28.6618862,34.9492571 C29.1987939,33.2794658 29.2597028,30.6727214 28.7973934,29.1496786 C28.2132424,27.2252323 26.2229091,25.5321186 23.6408243,24.7631471 C22.7730567,24.5047172 21.3210918,24.4459229 14.2839783,24.3842739 L5.9542908,24.3113002 L5.9542908,32.0480956 L5.9542908,39.7848895 L13.7255635,39.7834004 C18.1125297,39.7826559 22.0064365,39.6992957 22.6670144,39.5920994 L22.6670144,39.5921828 Z M22.1179036,19.0519426 C23.2506011,18.7601195 24.6422363,18.0837407 25.3864186,17.4633374 C26.0362377,16.9216021 26.9361433,15.3176188 27.1492254,14.3213205 C27.8026497,11.266175 27.0284589,8.38922791 25.1457478,6.87623949 C23.4259136,5.4941435 22.308536,5.34931006 13.3656346,5.34931006 L5.9542908,5.34931006 L5.9542908,12.4416024 L5.9542908,19.5338948 L13.4463561,19.4448552 C19.5551698,19.3722583 21.1561882,19.299715 22.1179036,19.0519426 Z M43.5542208,28.6165935 L43.5542208,12.6087025 L46.0670874,12.6087025 L48.579954,12.6087025 L48.579954,28.6165935 L48.579954,44.6244845 L46.0670874,44.6244845 L43.5542208,44.6244845 L43.5542208,28.6165935 Z M122.662984,31.0363909 L122.662984,17.4482974 L120.336256,17.4482974 L118.009528,17.4482974 L118.009528,16.8898826 L118.009528,16.3314678 L120.314844,16.3314678 L122.620161,16.3314678 L122.713461,12.5621679 C122.820109,8.2535763 122.954334,7.66027025 124.077293,6.5336468 C124.968701,5.63932837 125.963558,5.34931006 128.139957,5.34931006 C130.134859,5.34931006 130.66693,5.4890314 130.66693,6.01289298 C130.66693,6.4384125 130.640729,6.44367649 128.572874,6.43369055 C126.052175,6.42152455 125.245784,6.65865279 124.449325,7.64630839 L123.872883,8.36113146 L123.813106,12.3462996 L123.75333,16.3314678 L126.837853,16.3314678 L129.922377,16.3314678 L129.922377,16.8898826 L129.922377,17.4482974 L126.851095,17.4482974 L123.779814,17.4482974 L123.779814,31.0363909 L123.779814,44.6244845 L123.221399,44.6244845 L122.662984,44.6244845 L122.662984,31.0363909 Z M163.613403,30.4779761 L163.613403,16.3314678 L165.102509,16.3314678 L166.591615,16.3314678 L166.591615,19.5998726 C166.591615,21.772072 166.65523,22.8289606 166.781298,22.7510506 C166.88561,22.6865767 167.186186,22.2091023 167.449251,21.6899954 C169.244413,18.147403 172.71345,15.9752662 176.596547,15.9624227 L177.573773,15.9591913 L177.573773,17.5265514 L177.573773,19.0939101 L176.31734,19.2181194 C173.556418,19.4910592 171.746499,20.3090029 169.975267,22.0842363 C168.544161,23.5185865 167.902208,24.6052334 167.325313,26.5698484 C166.93679,27.8929698 166.911207,28.3957769 166.830349,36.294797 L166.745098,44.6244845 L165.179243,44.6244845 L163.613403,44.6244845 L163.613403,30.4779761 Z M179.814699,15.9240931 C179.238862,15.3060142 179.32042,14.9112328 179.925608,15.3872673 C180.507834,15.8452508 181.341078,15.8880656 181.748229,15.4809187 C182.152015,15.0771267 181.816698,14.4903549 181.100274,14.3470701 C180.562603,14.2395328 180.370181,13.8598658 180.738124,13.632463 C181.106692,13.4046729 180.910398,13.1779059 180.146502,12.9490377 C179.152375,12.6511926 178.186302,11.6903841 178.026968,10.8410769 C177.959243,10.480122 177.829587,10.1388934 177.738811,10.0827943 C177.525616,9.95103221 177.523084,8.38081298 177.735833,8.24931299 C177.824985,8.1942116 177.949936,7.88905056 178.013521,7.57117703 C178.179095,6.74331443 178.833617,5.9067346 179.549877,5.60745703 C181.020771,4.99287612 183.530168,5.50326427 183.530168,6.41701703 L183.530168,6.8573606 L182.925219,6.40292711 C181.116267,5.04405819 178.725284,6.04505172 178.416444,8.29052847 C178.200285,9.86227553 178.460238,10.9281494 179.254021,11.7245457 C179.91033,12.3830299 180.015878,12.4225642 181.117444,12.4225642 C182.073197,12.4225642 182.394799,12.3389092 182.889421,11.9616412 C183.372665,11.5930487 183.514324,11.5543885 183.596537,11.7686545 C183.733625,12.125906 182.911623,12.7543311 182.110693,12.9045879 C181.760246,12.9703304 181.348881,13.2020964 181.196515,13.4196235 C180.935788,13.7918733 180.953002,13.8264131 181.489586,14.0070759 C182.520122,14.3540555 182.733377,15.3081511 181.922872,15.9456821 C181.270181,16.4590976 180.303871,16.449201 179.814655,15.9240931 L179.814699,15.9240931 Z M143.045125,12.9202831 C142.108953,12.553951 141.512998,12.0615304 141.249099,11.4362637 C140.923893,10.6657406 140.889941,5.51221082 141.209355,5.4039811 C141.358727,5.35337234 141.444395,6.11619078 141.500147,7.99324183 C141.57085,10.3739547 141.624934,10.7293523 142.013621,11.3672198 C142.520274,12.1987188 143.000228,12.4225642 144.276392,12.4225642 C145.368294,12.4225642 146.111611,12.083322 146.600649,11.3617831 C146.893883,10.9291352 146.969872,10.3835476 147.047097,8.15640766 C147.113437,6.24318473 147.206983,5.45029528 147.372839,5.39535769 C147.553959,5.33536458 147.605512,6.1706474 147.605512,9.16514454 C147.605512,12.1594064 147.553944,12.9950198 147.372839,12.9353766 C147.244866,12.8932319 147.113407,12.6768455 147.080692,12.4545189 C147.008351,11.9629501 146.956843,11.9587955 146.331284,12.394094 C145.26358,13.1370507 144.082421,13.3261821 143.045125,12.9202831 Z M161.590438,12.9287561 C160.005895,12.4223379 159.220064,10.9086615 159.378639,8.66833852 C159.514237,6.75263177 160.373376,5.61612661 161.879562,5.36005247 C162.822986,5.19965936 164.145759,5.45109791 164.769233,5.90933607 C165.046623,6.11320959 165.316196,6.28001331 165.36827,6.28001331 C165.420359,6.28001331 165.486565,5.29580796 165.515409,4.09288867 C165.558489,2.29617787 165.617695,1.90576402 165.847062,1.90576402 C166.087881,1.90576402 166.133045,2.6670606 166.175574,7.44337748 C166.224045,12.8868437 166.218505,12.9809909 165.849832,12.9809909 C165.573871,12.9809835 165.474786,12.8580369 165.474786,12.5156378 C165.474786,11.9859628 165.350714,11.9390619 164.931024,12.310089 C164.582439,12.6182685 162.991225,13.1751793 162.536601,13.1481193 C162.36102,13.1376657 161.935255,13.0389529 161.590438,12.9287501 L161.590438,12.9287561 Z M164.190223,12.2179461 C165.015471,11.8946567 165.516153,10.7383182 165.516153,9.15562319 C165.516153,7.16820704 164.748206,6.03827926 163.230033,5.7919141 C161.368263,5.48978786 160.058922,6.6788957 159.924232,8.79416799 C159.802587,10.7045557 160.373138,11.8646378 161.666084,12.3357985 C162.411397,12.6073995 163.302254,12.5658058 164.190223,12.2179461 Z M170.810164,12.945166 C169.224847,12.512472 168.286352,10.7405563 168.507514,8.59765512 C168.731774,6.42485121 169.642451,5.49252782 171.651449,5.37900879 C172.7217,5.3185347 173.025239,5.37614971 173.739206,5.77517803 L174.574639,6.24211258 L174.631627,5.84415194 C174.662988,5.62527567 174.835218,5.41825716 175.014372,5.38410898 C175.314963,5.32681711 175.340114,5.5841823 175.340114,8.71804042 C175.340114,11.6343059 175.384192,12.1627643 175.652156,12.4588522 C175.885857,12.7170945 175.910888,12.8569558 175.751837,13.0160043 C175.592786,13.1750527 175.410861,13.0879921 175.027149,12.6691885 L174.514807,12.1100187 L173.671035,12.5370765 C172.617939,13.0700722 171.731236,13.1965569 170.810164,12.945166 Z M173.522258,12.0839296 C174.920022,11.2695612 175.148704,7.91313983 173.895711,6.602786 C173.302034,5.98193149 172.199559,5.65340638 171.24881,5.81403626 C170.40675,5.95630248 169.45673,6.86542411 169.194439,7.77996014 C168.811798,9.11417392 169.061209,10.8183115 169.761431,11.6539293 C170.540457,12.5835813 172.316186,12.7866149 173.522258,12.0839296 Z M187.532171,12.8761117 C186.150697,12.3848184 185.208957,10.8966906 185.206485,9.20104837 C185.204549,8.30710371 185.567876,6.83842811 185.789961,6.83842811 C185.882375,6.83842811 186.051552,6.63305952 186.165916,6.38205282 C186.452479,5.75314075 187.454782,5.32272951 188.632769,5.32272951 C189.626524,5.32272951 190.821308,5.69341717 191.057049,6.07488298 C191.279372,6.43460337 191.534143,6.29564743 191.534143,5.81466764 C191.534143,5.5251184 191.639632,5.34932197 191.813351,5.34932197 C192.051444,5.34932197 192.092558,5.85485861 192.092558,8.78232513 C192.092558,12.112714 192.104769,12.2239383 192.50379,12.5033661 C192.803294,12.7131484 192.859299,12.8471248 192.709912,12.9965089 C192.45045,13.2559782 191.720282,12.9044643 191.720282,12.5200813 C191.720282,12.0556931 191.325579,11.9968779 190.802799,12.383368 C190.292467,12.7606777 189.080856,13.1756826 188.555931,13.1529752 C188.402374,13.1463338 187.941675,13.0217448 187.532171,12.8761117 Z M190.379654,12.1153676 C191.210948,11.5877981 191.532699,10.7746792 191.533458,9.19945354 C191.533458,7.62954404 191.403772,7.24849667 190.595158,6.45803743 C189.654891,5.53889561 187.625284,5.5665766 186.741679,6.51059395 C186.168685,7.12276846 185.707941,8.6332254 185.812149,9.5577846 C185.941433,10.7047656 186.61296,11.9739487 187.213517,12.2063534 C188.359652,12.6498792 189.593302,12.6144266 190.379654,12.1153676 Z M196.839084,12.8761117 C196.42958,12.7304801 195.821548,12.3027254 195.487869,11.9255482 C193.926586,10.1606239 194.324207,6.88410793 196.24158,5.71502708 C197.129668,5.17353895 199.082125,5.20459128 199.926537,5.77363681 C200.960543,6.47045509 201.393515,7.44476979 201.392324,9.07208732 C201.390388,11.3334424 200.659356,12.4678182 198.886605,12.9588286 C197.963389,13.2145364 197.768569,13.206665 196.839084,12.8761117 Z M199.677693,12.12119 C199.908042,11.9751027 200.096504,11.7797305 200.096504,11.6870277 C200.096504,11.5943234 200.243091,11.3718926 200.422246,11.1927338 C200.898477,10.7164998 200.897553,7.61288094 200.42031,7.13635953 C200.240485,6.95653061 200.008706,6.65125044 199.905243,6.45796 C199.65555,5.99136051 198.379132,5.66442279 197.431957,5.82444511 C196.080876,6.05271168 195.258264,7.3169613 195.258264,9.16515645 C195.258264,10.8836341 195.980674,12.1470736 197.12051,12.4221205 C197.922126,12.6155509 199.119769,12.4745742 199.676963,12.12119 L199.677693,12.12119 Z M136.933586,12.8568978 C136.865334,12.7886371 136.809493,11.1605795 136.809493,9.23898335 L136.809493,5.74517403 L136.204543,5.68684575 C135.87182,5.65476444 135.599594,5.54475524 135.599594,5.44237919 C135.599594,5.34000314 135.87182,5.22999394 136.204543,5.19791264 C136.747168,5.14559438 136.809951,5.07847441 136.813935,4.5464287 C136.821604,3.52215598 137.14788,2.47673646 137.565482,2.13842495 C137.986542,1.79731391 139.133198,1.69275037 139.310298,1.97931693 C139.42682,2.16785117 138.99766,2.37109778 138.483025,2.37109778 C137.868396,2.37109778 137.343835,3.27239416 137.405722,4.22213563 L137.460977,5.07010266 L138.28414,5.16317179 C139.440922,5.29395998 139.488931,5.68516008 138.357076,5.75743533 L137.460977,5.81465573 L137.410423,9.39781737 C137.364091,12.6816493 137.290706,13.2140077 136.933586,12.8568858 L136.933586,12.8568978 Z M150.397586,9.16514454 C150.397586,6.74534706 150.465683,5.34931006 150.583725,5.34931006 C150.686101,5.34931006 150.769863,5.55871561 150.769863,5.81465573 C150.769863,6.29362225 151.194839,6.46036193 151.433081,6.07487107 C151.668851,5.69340526 152.86362,5.3227176 153.857375,5.3227176 C155.098307,5.3227176 155.946308,5.72065143 156.528728,6.57629182 C156.959064,7.20848439 156.983247,7.3899141 156.994073,10.0655341 C157.003752,12.4552948 156.962698,12.8879099 156.726287,12.8879099 C156.495223,12.8879099 156.431027,12.4225642 156.354011,10.188905 C156.271291,7.78983738 156.21338,7.4133973 155.832883,6.80149232 C155.348,6.02166977 154.945227,5.83949402 153.748075,5.8585099 C152.585009,5.87697482 152.009499,6.14383306 151.3949,6.94962413 C150.880905,7.62348933 150.864629,7.71512148 150.797486,10.3116744 C150.759528,11.7797916 150.654025,12.980979 150.563026,12.980979 C150.471908,12.980979 150.397586,11.2666605 150.397586,9.16514454 Z M43.5542208,3.48792738 L43.5542208,0.32357684 L46.0670874,0.32357684 L48.579954,0.32357684 L48.579954,3.48792738 L48.579954,6.65227793 L46.0670874,6.65227793 L43.5542208,6.65227793 L43.5542208,3.48792738 Z M186.880687,2.86529339 C186.880687,2.13246554 188.276724,1.73406562 189.026399,2.25295508 C189.798411,2.78731188 190.268105,2.8156734 190.619981,2.34917665 C191.028354,1.80780616 191.298626,2.01596681 191.009963,2.64951744 C190.757694,3.20318051 190.031352,3.27048066 188.992582,2.83644345 C188.62504,2.68287938 188.164415,2.55723605 187.96894,2.55723605 C187.77348,2.55723605 187.565348,2.68287938 187.506409,2.83644345 C187.373268,3.18340518 186.880687,3.20611554 186.880687,2.86529339 Z" transform="translate(.575 .275)"/>
</svg>
