<svg xmlns="http://www.w3.org/2000/svg" width="183" height="47" viewBox="0 0 183 47">
  <g>
    <path d="M119.92 19.3C122.22 15.97 124.35 12.91 126.46 9.83 127.01 9.02 127.61 8.26 128.71 8.59 129.81 8.92 129.32 10.02 129.33 10.75 129.38 15.93 129.33 21.11 129.33 26.29 129.33 27.4 129.33 28.22 127.78 28.21 126.23 28.2 126.17 27.48 126.18 26.32 126.290866 22.8186463 126.120317 19.3140442 125.67 15.84 124.27 17.84 122.82 19.74 121.48 21.75 120.33 23.47 119.38 23.41 118.26 21.75 116.9 19.75 115.44 17.75 113.56 15.07L113.56 26.07C113.56 27.13 113.86 28.26 112.04 28.28 110.22 28.3 110.44 27.28 110.44 26.16L110.44 10.62C110.44 9.96 109.94 9 111.01 8.67 112.08 8.34 112.73 8.99 113.3 9.83 115.46 12.85 117.58 15.91 119.92 19.3zM149.35 18.32L149.35 10.17C149.35 8.98 149.71 8.51 150.94 8.53 154.5 8.59 158.07 8.53 161.64 8.53 162.51 8.53 163.06 8.65 163.08 9.75 163.1 10.85 162.66 11.2 161.59 11.17 159.13 11.11 156.66 11.26 154.21 11.17 152 11.04 152.45 12.55 152.55 13.7 152.65 14.85 151.55 16.85 154.22 16.77 156.22 16.71 158.12 16.77 160.08 16.77 161 16.77 162 16.57 161.94 18.09 161.89 19.42 161.02 19.28 160.17 19.28 158.17 19.28 156.26 19.33 154.31 19.28 153.06 19.28 152.52 19.55 152.46 20.96 152.26 25.52 152.19 25.52 156.72 25.52L161.56 25.52C162.56 25.52 163.11 25.73 163.07 26.91 163.03 28.09 162.55 28.16 161.66 28.15L150.96 28.15C149.75 28.15 149.31 27.76 149.34 26.54 149.4 23.75 149.35 21 149.35 18.32zM170.75 25.45L179.32 25.45C180.25 25.45 180.93 25.45 180.92 26.75 180.91 28.05 180.29 28.09 179.33 28.08 175.43 28.08 171.52 28.02 167.62 28.08 165.53 28.08 165.8 27.28 166.62 25.99 169.52 21.51 172.38 16.99 175.26 12.5 175.44 12.22 175.58 11.92 175.87 11.4 173.25 10.93 170.76 11.28 168.29 11.17 167.4 11.17 166.4 11.44 166.39 9.9 166.38 8.36 167.31 8.56 168.25 8.56 171.9 8.56 175.55 8.63 179.19 8.56 181.33 8.51 180.96 9.35 180.19 10.56 177.25 15.12 174.326667 19.6866667 171.42 24.26 171.22 24.54 171.09 24.83 170.75 25.45zM107.9 8.85C106.51 11.28 105.3 13.8 103.72 16.07 101.705909 18.8231508 100.789665 22.2278676 101.15 25.62 101.25 26.62 101.77 28.06 99.69 28.11 97.61 28.16 97.94 26.88 98.08 25.77 98.4039346 22.4617809 97.4959602 19.1503447 95.53 16.47 93.96 14.07 92.63 11.47 91.19 9 94.38 8 94.42 8 95.86 10.84 97.01 13.1 98.2 15.34 99.52 17.84 100.78 15.4 102.09 13.24 103.02 10.93 103.95 8.62 105.35 7.84 107.9 8.85zM38.38 4.36L51.6 4.36C52.31 4.36 53.6 3.77 53.6 5.06 53.7669068 6.30340421 52.9399733 7.46286121 51.71 7.71 51.0441786 7.75747595 50.3758214 7.75747595 49.71 7.71L25.8 7.71C24.6 7.71 22.75 8.59 22.8 5.97 22.8 3.53 24.56 4.39 25.68 4.36 29.9 4.31 34.14 4.36 38.38 4.36zM80.19 19.62C80.19 17.41 80.11 15.2 80.19 12.99 80.26 11.52 79.73 10.99 78.3 11.14 77.3 11.24 76.3 11.14 75.24 11.14 74.18 11.14 73.77 11.02 73.79 9.92 73.79 8.98 74.05 8.51 75.08 8.51L88.08 8.51C89.08 8.51 89.44 8.84 89.45 9.84 89.46 10.84 89.01 11.12 88.07 11.15 86.56 11.15 84.57 10.46 83.67 11.49 82.62 12.69 83.36 14.74 83.32 16.41 83.26 19.47 83.32 22.53 83.32 25.59 83.32 26.59 83.91 28.03 81.82 28.08 79.73 28.13 80.2 26.85 80.19 25.72 80.18 23.7 80.19 21.66 80.19 19.62zM133.89 18.38L133.89 10.23C133.89 9.14 134.04 8.53 135.38 8.51 136.72 8.49 137.07 9.02 137.05 10.29 136.98 14.62 137.12 18.95 136.98 23.29 136.92 25.14 137.52 25.63 139.26 25.49 141 25.35 142.99 25.49 144.86 25.49 145.86 25.49 146.44 25.69 146.4 26.88 146.36 28.07 145.83 28.12 144.95 28.12L135.27 28.12C134.08 28.12 133.87 27.58 133.89 26.57 133.92 23.81 133.89 21.09 133.89 18.38zM10.51 8.1L10.51 6.1C10.51-.18 10.51-.38 16.88.51 20.03.95 17.78 3.81 18.25 5.51 18.5 6.39 19.17 8.27 16.86 8.21 14.74 8.16 12.62 8.14 10.5 8.11L10.51 8.1zM19.59 18.39L23.76 18.39C22.91 19.86 21.97 21.28 21.24 22.8 20 25.39 19.73 27.97 22.08 30.35 18.34 29.98 16.88 28.14 17.36 24.84 17.7098699 22.5735053 18.465272 20.388598 19.59 18.39z"/>
    <path d="M10.46,8.06 C10.4238144,9.06050328 10.4471891,10.0622733 10.53,11.06 C10.83,13.19 9.98,13.76 7.88,13.76 C5.78,13.76 4.97,13.14 5.23,11.04 C5.4253792,10.02783 5.30313356,8.98001021 4.88,8.04 L4.88,8.04 L10.54,8.04 L10.46,8.06 Z"/>
    <path d="M4.89 8.1C4.13393868 8.05719603 3.37606132 8.05719603 2.62 8.1.77 8.34.04 7.67.16 5.73.26 4.1.16 2.91 2.48 2.9 4.8 2.89 5.11 3.99 4.93 5.82 4.86 6.57 4.87 7.33 4.85 8.09L4.89 8.1zM23.27 31.65C22.08 32.71 20.41 31.5 19.22 32.53 18.502276 32.583713 17.8110423 32.2476436 17.41 31.65L23.27 31.65z"/>
    <path d="M59,7.33 C58.89,5.17 57.9,3.76 55.47,3.05 C57.54,7.05 55.82,10.16 53.94,13.25 C53.4191747,14.2440197 52.3466118,14.821858 51.23,14.71 C48.34,14.62 45.45,14.71 42.56,14.71 C41.36,14.71 40.9,15.08 40.93,16.31 C41,18.6 40.93,20.9 40.93,23.2 C40.93,24.04 41.04,24.89 40.08,25.41 C37.3290379,27.0477331 34.4253821,28.4141594 31.41,29.49 C31.41,25.14 31.34,21 31.41,16.85 C31.41,15.24 31.07,14.61 29.33,14.69 C26.1,14.83 22.87,14.69 19.64,14.69 C18.7,14.69 17.87,14.64 18.02,13.38 C18.29,11.18 16.69,11.78 15.52,11.67 C13.82,11.52 14.15,12.73 14.12,13.67 C14.02,18.2 14.02,18.2 18.55,18.28 C18.89,18.28 19.23,18.33 19.55,18.36 C20.94,19.36 22.33,18.99 23.72,18.36 C27.36,18.18 27.36,18.18 27.36,21.84 L27.36,26.93 C27.36,31.12 27.36,31.12 23.22,31.62 C21.97,32.37 20.22,30.96 19.17,32.5 C32.95,35.42 51.32,26.36 57.34,13.66 C58.4174927,11.7234301 58.9884792,9.54611393 59,7.33 L59,7.33 Z M45.17,22 C43.83,18.4 44.17,18.07 49.41,18.45 L45.17,22 Z"/>
    <path d="M44.66 30.12C40.91 31.65 40.91 31.65 40.91 35.12L40.91 39.19C40.91 43.34 41.29 42.75 37.44 42.77 31.44 42.77 31.5 42.77 31.36 36.77 31.36 36.05 32.03 34.58 30.36 34.77 29.19 34.93 27.24 34.24 27.36 36.72 27.48 39.2 27.42 41.98 27.36 44.61 27.36 45.74 27.6 46.33 28.9 46.31 33.65 46.26 38.41 46.31 43.16 46.31 44.25 46.31 44.65 45.95 44.64 44.85 44.63 40 44.66 35.17 44.66 30.12zM74.42 39.67C74.78 39.91 75.49 40.1 76.14 40.1 77.73 40.1 78.5 39.2 78.5 38.16 78.5 37.17 77.92 36.62 76.78 36.18 75.85 35.82 75.44 35.51 75.44 34.88 75.44 34.42 75.79 33.87 76.71 33.87 77.32 33.87 77.77 34.07 77.99 34.19L78.23 33.48C77.93 33.31 77.43 33.15 76.74 33.15 75.43 33.15 74.56 33.93 74.56 34.98 74.56 35.93 75.24 36.5 76.34 36.89 77.25 37.24 77.61 37.6 77.61 38.23 77.61 38.91 77.09 39.38 76.2 39.38 75.6 39.38 75.03 39.18 74.64 38.94L74.42 39.67zM82.07 35.05C80.73 35.05 79.67 36 79.67 37.62 79.67 39.15 80.68 40.11 81.99 40.11 83.16 40.11 84.4 39.33 84.4 37.54 84.4 36.06 83.46 35.05 82.07 35.05zM82.05 35.71C83.09 35.71 83.5 36.75 83.5 37.57 83.5 38.66 82.87 39.45 82.03 39.45 81.17 39.45 80.56 38.65 80.56 37.59 80.56 36.67 81.01 35.71 82.05 35.71zM86.77 40L86.77 35.83 87.94 35.83 87.94 35.16 86.77 35.16 86.77 34.9C86.77 34.16 86.96 33.5 87.71 33.5 87.96 33.5 88.14 33.55 88.27 33.61L88.39 32.93C88.22 32.86 87.95 32.79 87.64 32.79 87.23 32.79 86.79 32.92 86.46 33.24 86.05 33.63 85.9 34.25 85.9 34.93L85.9 35.16 85.22 35.16 85.22 35.83 85.9 35.83 85.9 40 86.77 40zM89.34 34L89.34 35.16 88.59 35.16 88.59 35.83 89.34 35.83 89.34 38.47C89.34 39.04 89.43 39.47 89.68 39.73 89.89 39.97 90.22 40.1 90.63 40.1 90.97 40.1 91.24 40.05 91.41 39.98L91.37 39.32C91.26 39.35 91.09 39.38 90.86 39.38 90.37 39.38 90.2 39.04 90.2 38.44L90.2 35.83 91.46 35.83 91.46 35.16 90.2 35.16 90.2 33.77 89.34 34zM92.29 35.16L93.75 40 94.55 40 95.33 37.7C95.5 37.18 95.65 36.68 95.77 36.1L95.79 36.1C95.91 36.67 96.05 37.15 96.22 37.69L96.96 40 97.76 40 99.32 35.16 98.45 35.16 97.76 37.59C97.6 38.16 97.47 38.67 97.39 39.16L97.36 39.16C97.25 38.67 97.11 38.16 96.93 37.58L96.18 35.16 95.44 35.16 94.65 37.63C94.49 38.15 94.33 38.67 94.22 39.16L94.19 39.16C94.1 38.66 93.97 38.16 93.83 37.62L93.19 35.16 92.29 35.16zM103.94 40C103.88 39.67 103.86 39.26 103.86 38.84L103.86 37.03C103.86 36.06 103.5 35.05 102.02 35.05 101.41 35.05 100.83 35.22 100.43 35.48L100.63 36.06C100.97 35.84 101.44 35.7 101.89 35.7 102.88 35.7 102.99 36.42 102.99 36.82L102.99 36.92C101.12 36.91 100.08 37.55 100.08 38.72 100.08 39.42 100.58 40.11 101.56 40.11 102.25 40.11 102.77 39.77 103.04 39.39L103.07 39.39 103.14 40 103.94 40zM103.01 38.37C103.01 38.46 102.99 38.56 102.96 38.65 102.82 39.06 102.42 39.46 101.79 39.46 101.34 39.46 100.96 39.19 100.96 38.62 100.96 37.68 102.05 37.51 103.01 37.53L103.01 38.37zM105.58 40L106.45 40 106.45 37.42C106.45 37.27 106.47 37.13 106.49 37.01 106.61 36.35 107.05 35.88 107.67 35.88 107.79 35.88 107.88 35.89 107.97 35.91L107.97 35.08C107.89 35.06 107.82 35.05 107.72 35.05 107.13 35.05 106.6 35.46 106.38 36.11L106.34 36.11 106.31 35.16 105.54 35.16C105.57 35.61 105.58 36.1 105.58 36.67L105.58 40zM112.94 37.74C112.95 37.65 112.97 37.51 112.97 37.33 112.97 36.44 112.55 35.05 110.97 35.05 109.56 35.05 108.7 36.2 108.7 37.66 108.7 39.12 109.59 40.1 111.08 40.1 111.85 40.1 112.38 39.94 112.69 39.8L112.54 39.17C112.21 39.31 111.83 39.42 111.2 39.42 110.32 39.42 109.56 38.93 109.54 37.74L112.94 37.74zM109.55 37.11C109.62 36.5 110.01 35.68 110.9 35.68 111.89 35.68 112.13 36.55 112.12 37.11L109.55 37.11zM120.26 40C120.2 39.67 120.18 39.26 120.18 38.84L120.18 37.03C120.18 36.06 119.82 35.05 118.34 35.05 117.73 35.05 117.15 35.22 116.75 35.48L116.95 36.06C117.29 35.84 117.76 35.7 118.21 35.7 119.2 35.7 119.31 36.42 119.31 36.82L119.31 36.92C117.44 36.91 116.4 37.55 116.4 38.72 116.4 39.42 116.9 40.11 117.88 40.11 118.57 40.11 119.09 39.77 119.36 39.39L119.39 39.39 119.46 40 120.26 40zM119.33 38.37C119.33 38.46 119.31 38.56 119.28 38.65 119.14 39.06 118.74 39.46 118.11 39.46 117.66 39.46 117.28 39.19 117.28 38.62 117.28 37.68 118.37 37.51 119.33 37.53L119.33 38.37zM121.9 40L122.78 40 122.78 37.09C122.78 36.94 122.8 36.79 122.84 36.68 122.99 36.19 123.44 35.78 124.02 35.78 124.85 35.78 125.14 36.43 125.14 37.21L125.14 40 126.02 40 126.02 37.11C126.02 35.45 124.98 35.05 124.31 35.05 123.51 35.05 122.95 35.5 122.71 35.96L122.69 35.96 122.64 35.16 121.86 35.16C121.89 35.56 121.9 35.97 121.9 36.47L121.9 40zM131.05 32.9L131.05 35.79 131.03 35.79C130.81 35.4 130.31 35.05 129.57 35.05 128.39 35.05 127.39 36.04 127.4 37.65 127.4 39.12 128.3 40.11 129.47 40.11 130.26 40.11 130.85 39.7 131.12 39.16L131.14 39.16 131.18 40 131.97 40C131.94 39.67 131.93 39.18 131.93 38.75L131.93 32.9 131.05 32.9zM131.05 37.97C131.05 38.11 131.04 38.23 131.01 38.35 130.85 39.01 130.31 39.4 129.72 39.4 128.77 39.4 128.29 38.59 128.29 37.61 128.29 36.54 128.83 35.74 129.74 35.74 130.4 35.74 130.88 36.2 131.01 36.76 131.04 36.87 131.05 37.02 131.05 37.13L131.05 37.97zM140.67 39.09C140.32 39.26 139.78 39.37 139.25 39.37 137.61 39.37 136.66 38.31 136.66 36.66 136.66 34.89 137.71 33.88 139.29 33.88 139.85 33.88 140.32 34 140.65 34.16L140.86 33.45C140.63 33.33 140.1 33.15 139.26 33.15 137.17 33.15 135.74 34.58 135.74 36.69 135.74 38.9 137.17 40.1 139.07 40.1 139.89 40.1 140.53 39.94 140.85 39.78L140.67 39.09zM144.15 35.05C142.81 35.05 141.75 36 141.75 37.62 141.75 39.15 142.76 40.11 144.07 40.11 145.24 40.11 146.48 39.33 146.48 37.54 146.48 36.06 145.54 35.05 144.15 35.05zM144.13 35.71C145.17 35.71 145.58 36.75 145.58 37.57 145.58 38.66 144.95 39.45 144.11 39.45 143.25 39.45 142.64 38.65 142.64 37.59 142.64 36.67 143.09 35.71 144.13 35.71zM147.89 40L148.77 40 148.77 37.09C148.77 36.94 148.79 36.79 148.83 36.68 148.98 36.19 149.43 35.78 150.01 35.78 150.84 35.78 151.13 36.43 151.13 37.21L151.13 40 152.01 40 152.01 37.11C152.01 35.45 150.97 35.05 150.3 35.05 149.5 35.05 148.94 35.5 148.7 35.96L148.68 35.96 148.63 35.16 147.85 35.16C147.88 35.56 147.89 35.97 147.89 36.47L147.89 40zM153.4 39.77C153.74 39.97 154.23 40.1 154.76 40.1 155.91 40.1 156.57 39.5 156.57 38.65 156.57 37.93 156.14 37.51 155.3 37.19 154.67 36.95 154.38 36.77 154.38 36.37 154.38 36.01 154.67 35.71 155.19 35.71 155.64 35.71 155.99 35.87 156.18 35.99L156.4 35.35C156.13 35.19 155.7 35.05 155.21 35.05 154.17 35.05 153.54 35.69 153.54 36.47 153.54 37.05 153.95 37.53 154.82 37.84 155.47 38.08 155.72 38.31 155.72 38.73 155.72 39.13 155.42 39.45 154.78 39.45 154.34 39.45 153.88 39.27 153.62 39.1L153.4 39.77zM162.05 35.16L161.17 35.16 161.17 38.13C161.17 38.29 161.14 38.45 161.09 38.58 160.93 38.97 160.52 39.38 159.93 39.38 159.13 39.38 158.85 38.76 158.85 37.84L158.85 35.16 157.97 35.16 157.97 37.99C157.97 39.69 158.88 40.11 159.64 40.11 160.5 40.11 161.01 39.6 161.24 39.21L161.26 39.21 161.31 40 162.09 40C162.06 39.62 162.05 39.18 162.05 38.68L162.05 35.16zM163.81 40L164.69 40 164.69 32.9 163.81 32.9 163.81 40zM166.67 34L166.67 35.16 165.92 35.16 165.92 35.83 166.67 35.83 166.67 38.47C166.67 39.04 166.76 39.47 167.01 39.73 167.22 39.97 167.55 40.1 167.96 40.1 168.3 40.1 168.57 40.05 168.74 39.98L168.7 39.32C168.59 39.35 168.42 39.38 168.19 39.38 167.7 39.38 167.53 39.04 167.53 38.44L167.53 35.83 168.79 35.83 168.79 35.16 167.53 35.16 167.53 33.77 166.67 34zM170.96 40L170.96 35.16 170.08 35.16 170.08 40 170.96 40zM170.52 33.25C170.2 33.25 169.97 33.49 169.97 33.8 169.97 34.1 170.19 34.34 170.5 34.34 170.85 34.34 171.07 34.1 171.06 33.8 171.06 33.49 170.85 33.25 170.52 33.25zM172.72 40L173.6 40 173.6 37.09C173.6 36.94 173.62 36.79 173.66 36.68 173.81 36.19 174.26 35.78 174.84 35.78 175.67 35.78 175.96 36.43 175.96 37.21L175.96 40 176.84 40 176.84 37.11C176.84 35.45 175.8 35.05 175.13 35.05 174.33 35.05 173.77 35.5 173.53 35.96L173.51 35.96 173.46 35.16 172.68 35.16C172.71 35.56 172.72 35.97 172.72 36.47L172.72 40zM181.97 35.16L181.93 35.89 181.91 35.89C181.7 35.49 181.24 35.05 180.4 35.05 179.29 35.05 178.22 35.98 178.22 37.62 178.22 38.96 179.08 39.98 180.28 39.98 181.03 39.98 181.55 39.62 181.82 39.17L181.84 39.17 181.84 39.71C181.84 40.93 181.18 41.4 180.28 41.4 179.68 41.4 179.18 41.22 178.86 41.02L178.64 41.69C179.03 41.95 179.67 42.09 180.25 42.09 180.86 42.09 181.54 41.95 182.01 41.51 182.48 41.09 182.7 40.41 182.7 39.3L182.7 36.49C182.7 35.9 182.72 35.51 182.74 35.16L181.97 35.16zM181.83 37.94C181.83 38.09 181.81 38.26 181.76 38.41 181.57 38.97 181.08 39.31 180.54 39.31 179.59 39.31 179.11 38.52 179.11 37.57 179.11 36.45 179.71 35.74 180.55 35.74 181.19 35.74 181.62 36.16 181.78 36.67 181.82 36.79 181.83 36.92 181.83 37.07L181.83 37.94z"/>
  </g>
</svg>
