<svg xmlns="http://www.w3.org/2000/svg" width="198" height="45" viewBox="0 0 198 45">
  <g fill="#000000" fill-rule="evenodd" transform="translate(.5)">
    <path d="M38.7408008.797903646C38.7408008.961731771 38.7408008 1.67544596 38.7408008 1.83017253 38.747627 1.83093099 38.7643132 1.83168945 38.7643132 1.83168945 40.4374837 1.92953125 42.1675391 2.02964844 42.1675391 4.1169401 42.1675391 5.08322266 42.002194 5.62400716 41.856569 6.10108073L41.815612 6.23381185C41.8148535 6.2368457 36.2773112 23.1983659 36.2773112 23.1983659L36.021709 23.1983659 30.6009701 6.32558594C30.311237 5.4131543 29.9828223 4.37936849 29.9828223 3.8196224 29.9828223 2.07894857 31.4474154 1.97807292 33.4755469 1.8369987 33.4755469 1.8369987 33.5172624 1.83472331 33.5589779 1.83168945 33.5589779 1.67772135 33.5589779.961731771 33.5589779.797903646 33.348125.797903646 18.4875488.797903646 18.276696.797903646 18.276696.962490234 18.276696 1.68682292 18.276696 1.83548177 20.5824251 1.9492513 21.1755436 2.49382813 21.8384408 3.6155957 21.8475423 3.63379883 23.5851823 8.40150065 23.5851823 8.40150065 23.5844238 8.47658854 17.7738346 23.6261393 17.7738346 23.6261393L17.7472884 23.6951595 17.496237 23.6951595 11.5612598 5.69075195C11.3170345 5.02102865 11.2078158 4.50451497 11.2078158 4.01758138 11.2078158 2.11687174 12.6762012 1.97579753 14.3865365 1.83320638 14.3865365 1.68151367 14.3865365.961731771 14.3865365.797903646 14.1764421.797903646.210094401.797903646 0 .797903646 0 .964007161 0 1.71109375 0 1.84610026 2.00386068 2.14721029 2.57422526 2.68344401 3.42067057 5.07487956 3.42067057 5.07487956 13.6515853 34.1263086 13.9253906 34.9037337 14.053571 34.9037337 15.041849 34.9037337 15.166237 34.9037337 15.2193294 34.7679688 24.2056055 11.65986 24.2056055 11.65986L24.7023991 11.65986C24.7023991 11.65986 32.9961979 34.7626595 33.047015 34.9037337 33.1736784 34.9037337 34.1050716 34.9037337 34.2347689 34.9037337 34.2833105 34.7573503 44.1433366 5.07639648 44.1433366 5.07639648 44.7827214 3.1059082 45.9386198 2.02888997 47.5655241 1.84913411 47.5655241 1.71791992 47.5655241.964765625 47.5655241.797903646 47.3577051.797903646 38.9478613.797903646 38.7408008.797903646zM51.2706185.742535807C51.2706185.906363932 51.2706185 1.62159505 51.2706185 1.77556315 51.271377 1.77556315 51.2766862 1.77632161 51.2766862 1.77632161 53.5444922 1.92346354 55.8896615 2.07515625 55.8896615 5.40329427L55.8896615 30.3362663C55.8896615 33.4922331 53.8577376 33.7205306 51.2706185 33.9602051 51.2706185 34.1103809 51.2706185 34.8324382 51.2706185 34.9970247 51.4814714 34.9970247 68.2275879 34.9970247 68.4384408 34.9970247 68.4384408 34.8331966 68.4384408 34.1149316 68.4384408 33.9624805 65.7959538 33.7698307 63.7207975 33.5786979 63.7207975 30.3362663L63.7207975 5.40329427C63.7207975 1.97276367 66.1183008 1.87112956 68.4376823 1.77328776L68.4384408 1.77328776C68.4384408 1.61628581 68.4384408.905605469 68.4384408.742535807 68.2275879.742535807 51.4814714.742535807 51.2706185.742535807zM93.0073503 0C92.7927051.808522135 92.5226921 1.68909831 91.2879134 1.68909831 90.7281673 1.68909831 90.0576855 1.45700846 89.2097233 1.16272461 87.8558659.693235677 86.0014225.0500585938 83.5394499.0500585938 73.1932487.0500585938 72.6699089 8.11100911 72.6699089 9.72729492 72.6699089 11.9951009 72.6699089 16.2144336 81.1025065 20.2593197L84.4291276 21.8490592C87.4478125 23.2878646 90.0538932 24.5302279 90.0538932 28.0047493 90.0538932 28.584974 89.8771712 33.6757813 83.7381673 33.6757813 76.4296126 33.6757813 74.1291927 26.3103418 73.4693294 23.0451563 73.3282552 23.0451563 72.3953451 23.0451563 72.2231738 23.0451563 72.2231738 23.2552507 72.2231738 34.8900814 72.2231738 35.0994173 72.3961035 35.0994173 73.3411491 35.0994173 73.4746387 35.0994173 73.6604622 34.3606738 73.9335091 33.410319 75.0454167 33.410319 75.6233659 33.410319 76.2847461 33.6370996 77.1220898 33.9237988 78.5699967 34.419834 80.5541374 35.0994173 83.5394499 35.0994173 91.9288151 35.0994173 95.7499544 29.7742448 95.7499544 24.8252702 95.7499544 18.6627539 90.8980632 16.0589486 90.3451432 15.7828678L83.0441732 12.1581706C78.8362174 10.0526758 77.8691764 8.9392513 77.8691764 6.20043945 77.8691764 2.88367839 80.6800423 1.37357747 83.2906738 1.37357747 88.7607129 1.37357747 91.9856999 6.30434896 93.1036751 10.5623633 93.2326139 10.5623633 94.1367025 10.5623633 94.3088737 10.5623633 94.3088737 10.3537858 94.3088737.208577474 94.3088737 0 94.1344271 0 93.1400814 0 93.0073503 0zM163.099242 24.3679167C163.715114 21.5570508 166.240039 13.5309896 169.657676 13.5309896 171.214043 13.5309896 171.214043 14.8909147 171.214043 15.3376497 171.214043 16.985791 170.638369 22.5157487 163.231973 24.4945801L163.061318 24.5408464 163.099242 24.3679167zM156.163851 28.0381217C156.163851 33.2555924 159.99485 35.6326172 163.555837 35.6326172 168.830951 35.6326172 171.413519 31.4208691 172.959268 28.8792578 172.804541 28.7890007 171.831432 28.2171191 171.688083 28.1329297 170.463164 29.9456576 168.620856 32.6473047 165.904798 32.6473047 163.610446 32.6473047 162.446963 31.2312533 162.446963 28.4401074 162.446963 27.4882357 162.544805 26.8844987 162.74959 25.9675163L162.766276 25.8962207 162.83833 25.8848437C172.134818 24.4392122 175.600238 19.3544727 175.600238 16.4882389 175.600238 13.0144759 172.300163 12.0959766 170.555697 12.0959766 162.20653 12.0959766 156.163851 21.6192448 156.163851 28.0381217zM191.487773 14.6830957C191.487773 16.3676432 192.25458 16.8932585 192.997116 17.4006706 193.634984 17.838304 194.237962 18.2509082 194.237962 19.3332357 194.237962 21.1527897 192.179492 25.1271387 189.999668 29.3350944L189.970088 29.3927376 189.879831 29.4412793 189.688698 29.4412793 189.073584 25.7521126C188.299951 21.480446 186.745101 14.3888118 185.80764 12.0087533 183.905413 12.5146484 181.270511 12.9386296 178.534733 13.1790625 178.534733 13.3322721 178.534733 14.1635482 178.534733 14.3281348 180.439993 14.3311686 180.998223 14.4760352 182.683529 22.0098535 182.978571 23.3417155 184.935407 32.7451465 184.935407 35.2852409 184.935407 38.1461654 181.830257 41.1534733 180.46123 41.1534733 179.812744 41.1534733 178.870732 40.5633887 178.41793 40.2797233 177.57376 39.7184603 176.735658 39.454515 175.860391 39.454515 173.939961 39.454515 173.318779 41.2012565 173.318779 42.0469434 173.318779 43.260485 174.306299 44.9404818 176.162259 44.9404818 180.654639 44.9404818 184.761719 41.170918 190.337184 31.9290397L190.415306 31.8001009C192.462399 28.4264551 197.223275 20.0348145 197.223275 14.9834473 197.223275 13.4164616 195.772334 11.9890332 194.180319 11.9890332 192.688421 11.9890332 191.487773 13.4627279 191.487773 14.6830957zM115.504137 16.8887077C115.504137 10.7466699 117.098428 9.91842773 118.65707 9.91842773 119.900951 9.91842773 120.692786 10.6033203 121.078086 12.013304 121.37237 13.1214193 121.417119 14.9212533 121.449733 16.2356706L121.469453 16.995651 115.504137 16.995651 115.504137 16.8887077zM155.758073 13.7888672L155.758073 12.7368783 145.602246 12.7368783 145.602246 13.7805241C146.874948 13.8305827 148.15751 13.9109798 148.15751 15.13514 148.15751 16.7703874 143.130413 20.6840592 140.714707 22.5658073L139.97293 23.144515 139.762077 22.9329036C139.762077 22.9329036 145.762282.55898763 145.848747.238157552 142.737529.823691406 138.698711 1.40619141 135.679268 1.70199219L135.679268 2.84727214C136.777523 2.78431966 137.802207 2.78431966 138.372572 3.32131185 138.685817 3.61635417 138.838268 4.03881836 138.838268 4.6122168 138.838268 5.26373698 138.646377 5.99337891 138.433249 6.74577474 138.433249 6.74577474 135.471449 17.5083724 133.198333 25.7680404 126.268252 32.2362174 119.558125 33.2593848 116.118493 33.2593848 106.853102 33.2593848 100.38265 27.0331576 100.38265 18.1181771 100.38265 8.52892253 106.346449 1.83244792 114.886748 1.83244792 124.355407 1.83244792 129.397673 9.99503255 129.397673 15.8875358 129.397673 19.8216862 127.914118 23.3053092 125.428633 25.2060189 124.178685 26.0600488 122.555573 26.5477409 120.97266 26.5477409 117.675618 26.5477409 115.90764 23.8331999 115.718783 18.4799642L115.71499 18.3692285C115.71499 18.3692285 126.282663 18.3692285 126.517028 18.3692285 126.132487 12.0261979 123.433874 8.80348633 118.485658 8.80348633 113.34555 8.80348633 109.756501 13.0281283 109.756501 19.0761165 109.756501 22.4975456 110.682585 25.1256217 112.507448 26.8875326 114.424844 28.7381836 117.296387 29.6111751 121.042438 29.4792025 128.656654 29.2114648 131.340098 21.7777637 131.724639 17.4272168 132.1289 12.8734017 130.776559 8.75570313 127.814001 5.51858073 124.6057 2.0137207 119.894124.00379231771 114.886748.00379231771 104.066507.00379231771 95.9069564 8.04957357 95.9069564 18.7196387 95.9069564 25.6459277 102.10057 35.3997689 115.870475 35.3997689 120.824001 35.3997689 126.639141 34.5859375 132.372367 28.7692806 131.451592 32.1156217 130.765182 34.6102083 130.65293 35.0205371L136.540882 35.0205371C136.583356 34.8635352 139.027126 25.6800586 139.027126 25.6800586 139.068841 25.6193815 141.02416 24.2662826 141.02416 24.2662826L141.161442 24.1707161 141.191022 24.3353027C142.283968 30.4007357 143.496751 35.4210059 147.298929 35.4210059 150.617207 35.4210059 152.663542 31.6582682 153.886943 29.4109408 153.886943 29.4109408 153.901354 29.3836361 153.914248 29.3608822 153.763314 29.2865527 153.141374 28.9755827 153.003333 28.9065625 152.977546 28.9505534 152.952516 28.9945443 152.952516 28.9945443 152.297204 30.1481673 151.200465 32.078457 149.903493 32.078457 148.117311 32.078457 147.409665 28.468929 145.857848 20.5581543L145.82751 20.4064616 149.03126 17.609248C152.84709 14.2454622 154.043945 14.0285417 155.758073 13.7888672z"/>
  </g>
</svg>
