<svg xmlns="http://www.w3.org/2000/svg" width="33" height="30" viewBox="0 0 33 30">
  <path d="M78.655125,41.2636925 C74.80485,43.4878925 69.510825,43.7164175 64.184625,41.4336425 C59.8721025,39.5988425 56.29383,36.3871175 54,32.7175175 C55.101045,33.6349175 56.38557,34.3691675 57.761835,35.0110175 C63.262275,37.5891425 68.76156,37.4125925 72.631635,35.0176175 C72.62916,35.0151425 72.62751,35.0134925 72.62586,35.0110175 C67.120635,30.7903175 62.441235,25.2850925 58.954785,20.7896675 C58.2204525,20.0555825 57.66993,19.1380175 57.1194075,18.312275 C61.340025,22.16585 68.0382825,27.0284 70.4233575,28.405325 C65.3776575,23.08325 60.8814075,16.477475 61.0645575,16.660625 C69.0472575,24.7349 76.4796825,29.322725 76.4796825,29.322725 C76.7255325,29.461325 76.9152825,29.576825 77.0679075,29.67995 C77.2287825,29.27075 77.3698575,28.845875 77.4886575,28.405325 C78.7731825,23.725925 77.3055075,18.40385 74.0937825,14 C81.5253825,18.4958375 85.9300575,26.936825 84.0944325,34.002125 C84.0465825,34.1927 83.9946075,34.3808 83.9385075,34.5656 C83.9599575,34.591175 83.9814075,34.617575 84.0028575,34.6448 C87.6724575,39.232625 86.6634825,44.095175 86.2047825,43.177775 C84.2140575,39.282125 80.5287825,40.473425 78.6552075,41.263775 L78.655125,41.2636925 Z" transform="translate(-54 -14)"/>
</svg>
