<svg xmlns="http://www.w3.org/2000/svg" width="70" height="70" viewBox="0 0 70 70">
  <g>
    <path d="M34.9998129,0 C15.6700893,0 0,15.6708376 0,35.0001871 C0,54.3299107 15.6700893,70 34.9998129,70 C54.3291624,70 70,54.3299107 70,35.0001871 C70,15.6708376 54.3291624,0 34.9998129,0 Z M34.9998129,66.8615671 C17.4031868,66.8615671 3.13843292,52.5968132 3.13843292,35.0001871 C3.13843292,17.4039351 17.4031868,3.13843292 34.9998129,3.13843292 C52.5960649,3.13843292 66.8615671,17.4039351 66.8615671,35.0001871 C66.8615671,52.5968132 52.5960649,66.8615671 34.9998129,66.8615671 Z"/>
    <path d="M28,10.9676773 C30.2216975,10.3376127 32.5718732,10 35.0039445,10 C37.4322591,10 39.7805565,10.3372485 42,10.9658563 L35.0039445,26 L28,10.9676773 Z"/>
    <path d="M48.2886709 13C50.8992759 14.6866027 53.1768746 16.8546049 55 19.3809107L43.5761271 45 39.1678113 35.0667322 30.8153702 35.0667322 26.4074282 45 15 19.357049C16.8201355 16.8409696 19.0913805 14.6816788 21.6937631 13.0003788L30.8153702 33.5085279 39.1962158 33.5085279 48.2886709 13zM10.7942771 28C10.2763319 30.0036348 10 32.1086777 10 34.2803499 10 43.7892865 15.2928192 52.0201875 23 56L10.7942771 28z"/>
    <path d="M28 58.0489187C30.065046 58.6684168 32.2474967 59 34.5037243 59 36.7574691 59 38.9367275 58.6691569 41 58.0515092L34.5037243 43 28 58.0489187zM46 56C53.7071808 52.0125758 59 43.7659326 59 34.2388095 59 32.0820572 58.7289822 29.9909611 58.2198937 28L46 56z"/>
  </g>
</svg>
