<svg xmlns="http://www.w3.org/2000/svg" width="146" height="61" viewBox="0 0 146 61">
  <path d="M56.73,4.327 L56.73,3.55271368e-15 L42,3.55271368e-15 L42,4.327 L46.317,4.327 L46.317,15.271 L52.413,15.271 L52.413,4.327 L56.73,4.327 Z M64.349,6.109 L61.047,15.271 L55.207,15.271 L61.047,0.001 L67.397,0.001 L73.237,15.271 L67.398,15.271 L64.348,6.109 L64.349,6.109 Z M86.825,4.327 L86.825,3.55271368e-15 L72.095,3.55271368e-15 L72.095,4.327 L76.412,4.327 L76.412,15.271 L82.507,15.271 L82.507,4.327 L86.825,4.327 Z M94.444,6.109 L91.142,15.271 L85.301,15.271 L91.142,0.001 L97.492,0.001 L103.332,15.271 L97.492,15.271 L94.444,6.109 L94.444,6.109 Z M27,59.762 L27,59.761 L27.762,57.471 C28.523,57.98 30.047,58.489 31.317,58.489 C33.095,58.489 34.111,57.726 34.111,56.453 C34.111,55.181 33.349,54.418 31.317,53.908 C29.031,52.89 27.254,51.617 27.254,49.327 C27.254,46.782 29.286,45 32.586,45 C34.365,45 35.634,45.254 36.396,45.764 L35.634,48.054 C35.127,47.8 34.111,47.291 32.587,47.291 C30.809,47.291 30.047,48.309 30.047,49.072 C30.047,50.345 31.064,50.854 33.094,51.618 C35.634,52.636 36.904,53.908 36.904,56.199 C36.904,58.744 35.127,60.78 31.317,60.78 C29.819128,60.7749034 28.3423393,60.4266591 27,59.762 Z M48.206,51.363 L48.206,51.364 L48.206,53.655 L42.364,53.655 L42.364,58.236 L48.714,58.236 L48.714,60.526 L39.57,60.526 L39.57,45.256 L48.46,45.256 L48.46,47.546 L42.365,47.546 L42.365,51.363 L48.206,51.363 Z M51.253,60.525 L51.253,60.527 L51.253,45.511 C52.269,45.257 53.793,45.257 55.571,45.257 C57.602,45.257 59.126,45.511 60.142,46.275 C60.904,47.039 61.412,48.056 61.412,49.329 C61.412,51.365 60.142,52.637 58.618,53.147 L58.618,53.401 C59.888,53.656 60.396,54.674 60.904,56.201 C61.412,58.237 61.666,60.018 61.92,60.527 L59.126,60.527 C58.872,60.018 58.618,58.745 58.11,56.965 C57.857,54.928 57.095,54.419 55.317,54.165 L54.047,54.165 L54.047,60.525 L51.253,60.525 Z M54.047,47.291 L54.047,47.292 L54.047,52.127 L55.571,52.127 C57.602,52.127 58.618,51.109 58.618,49.581 C58.618,48.054 57.602,47.291 55.825,47.291 L54.047,47.291 Z M70.809,60.525 L67.761,60.525 L62.682,45.255 L65.729,45.255 L68.015,52.126 C68.523,54.163 69.031,55.944 69.285,57.726 L69.539,57.726 C69.793,55.944 70.301,54.163 71.063,52.127 L73.094,45.255 L76.142,45.255 L70.809,60.525 Z M80.713,60.525 L80.713,60.526 L77.92,60.526 L77.92,45.256 L80.713,45.256 L80.713,60.525 Z M94.3,57.98 L94.809,60.016 C94.3,60.525 92.777,60.78 90.999,60.78 C85.92,60.78 83.126,57.725 83.126,53.145 C83.126,48.054 86.682,45 91.252,45 C93.031,45 94.3,45.509 95.062,45.764 L94.3,47.8 C93.538,47.545 92.523,47.291 91.253,47.291 C88.205,47.291 86.174,49.327 85.92,52.89 C85.92,56.199 87.951,58.49 91.253,58.49 C92.2897602,58.4882228 93.3191683,58.3159228 94.3,57.98 Z M105.729,51.363 L105.728,51.364 L105.728,53.655 L99.888,53.655 L99.888,58.236 L106.491,58.236 L106.491,60.526 L97.094,60.526 L97.094,45.256 L105.983,45.256 L105.983,47.546 L99.888,47.546 L99.888,51.363 L105.729,51.363 Z M108.269,59.762 L108.268,59.761 L108.776,57.471 C109.792,57.98 111.062,58.489 112.586,58.489 C114.364,58.489 115.126,57.726 115.126,56.453 C115.126,55.181 114.364,54.418 112.586,53.908 C110.046,52.89 108.522,51.617 108.522,49.327 C108.522,46.782 110.554,45 113.856,45 C115.379,45 116.649,45.254 117.411,45.764 L116.903,48.054 C116.141,47.8 115.126,47.291 113.856,47.291 C112.078,47.291 111.316,48.309 111.316,49.072 C111.316,50.345 112.078,50.854 114.11,51.618 C116.903,52.636 118.173,53.908 118.173,56.199 C118.173,58.744 116.142,60.78 112.332,60.78 C110.809,60.78 109.03,60.271 108.269,59.762 Z M11.427,34.981 L11.428,34.981 L11.682,37.017 C11.174,37.526 9.65,37.781 7.872,37.781 C3.047,37.781 1.42108547e-14,34.726 1.42108547e-14,30.146 C1.42108547e-14,25.055 3.555,22.001 8.126,22.001 C10.158,22.001 11.428,22.51 11.936,22.765 L11.428,24.801 C10.666,24.546 9.65,24.292 8.38,24.292 C5.333,24.292 3.047,26.328 3.047,29.891 C3.047,33.2 5.079,35.491 8.38,35.491 C9.397,35.491 10.666,35.236 11.427,34.981 Z M19.936,37.781 L19.935,37.781 C15.491,37.781 12.698,34.472 12.825,29.891 C12.825,25.31 15.872,22.001 20.19,22.001 C24.507,22.001 27.046,25.31 27.046,29.637 C27.046,34.981 23.999,37.781 19.936,37.781 Z M19.936,35.491 C22.729,35.491 24.253,32.945 24.253,29.891 C24.253,26.837 22.729,24.292 19.936,24.292 C17.142,24.292 15.872,26.837 15.872,29.891 C15.872,32.945 17.396,35.491 19.936,35.491 Z M32.126,37.526 L32.127,37.526 L29.587,37.526 L29.587,22.256 L32.635,22.256 L36.698,28.873 C37.714,30.4 38.476,32.182 39.238,33.963 C39.238,31.927 38.984,29.891 38.984,27.601 L38.984,22.256 L41.778,22.256 L41.778,37.526 L38.73,37.526 L34.667,30.909 C33.905,29.128 32.889,27.346 32.127,25.564 L31.872,25.564 C32.126,27.601 32.126,29.637 32.126,32.182 L32.126,37.526 Z M44.316,36.763 L44.316,36.762 L44.824,34.472 C45.586,34.981 47.11,35.49 48.38,35.49 C50.158,35.49 51.174,34.727 51.174,33.454 C51.174,32.182 50.412,31.419 48.634,30.909 C46.094,29.891 44.316,28.618 44.316,26.328 C44.316,23.783 46.602,22.001 49.904,22.001 C51.427,22.001 52.697,22.255 53.459,22.765 L52.697,25.055 C52.19,24.801 51.173,24.292 49.65,24.292 C48.126,24.292 47.11,25.31 47.11,26.073 C47.11,27.346 48.126,27.855 50.157,28.619 C52.697,29.637 53.967,30.909 53.967,33.2 C53.967,35.745 52.19,37.781 48.38,37.781 C46.602,37.781 45.078,37.272 44.316,36.763 Z M56.507,22.255 L56.508,22.255 L59.301,22.255 L59.301,31.164 C59.301,34.218 60.571,35.49 62.349,35.49 C64.38,35.49 65.65,34.218 65.65,31.164 L65.65,22.256 L68.444,22.256 L68.444,30.908 C68.444,35.744 66.159,37.78 62.349,37.78 C58.793,37.78 56.507,35.744 56.507,30.908 L56.507,22.255 Z M71.873,37.525 L71.873,22.255 L74.666,22.255 L74.666,35.235 L80.761,35.235 L80.761,37.525 L71.873,37.525 Z M83.555,37.525 L83.554,37.526 L83.554,24.546 L79.237,24.546 L79.237,22.256 L90.92,22.256 L90.92,24.546 L86.349,24.546 L86.349,37.525 L83.555,37.525 Z M98.793,33.199 L98.791,33.199 L93.966,33.199 L92.696,37.525 L89.902,37.525 L94.727,22.255 L98.285,22.255 L103.11,37.525 L100.317,37.525 L98.793,33.199 Z M94.475,31.163 L94.475,31.163 L98.285,31.163 L97.269,27.345 C96.761,26.327 96.761,25.309 96.507,24.545 L96.253,24.545 C96.253,25.309 95.999,26.327 95.491,27.345 L94.475,31.163 Z M107.935,37.525 L107.936,37.526 L105.396,37.526 L105.396,22.256 L108.444,22.256 L112.507,28.873 C113.523,30.4 114.285,32.182 115.047,33.963 C114.792,31.927 114.792,29.891 114.792,27.601 L114.792,22.256 L117.332,22.256 L117.332,37.525 L114.539,37.525 L110.476,30.908 C109.459,29.127 108.444,27.345 107.936,25.563 L107.682,25.563 C107.935,27.6 107.935,29.636 107.935,32.181 L107.935,37.525 Z M131.173,34.98 L131.173,34.98 L131.681,37.016 C130.919,37.525 129.65,37.78 127.618,37.78 C122.793,37.78 119.999,34.725 119.999,30.145 C119.999,25.054 123.554,22 128.126,22 C129.904,22 131.173,22.509 131.681,22.764 L131.173,24.8 C130.412,24.545 129.396,24.291 128.126,24.291 C125.078,24.291 122.793,26.327 122.793,29.89 C122.793,33.199 124.824,35.49 128.126,35.49 C129.16276,35.4882228 130.192168,35.3159228 131.173,34.98 Z M140.316,37.525 L140.316,37.527 L137.523,37.527 L137.523,31.165 L132.697,22.257 L135.999,22.257 L137.776,26.074 C138.284,27.347 138.538,28.111 139.046,29.129 C139.554,28.111 139.808,27.347 140.316,26.074 L142.094,22.257 L145.396,22.257 L140.316,31.165 L140.316,37.525 Z"/>
</svg>
