<svg xmlns="http://www.w3.org/2000/svg" width="56" height="55" viewBox="0 0 56 55">
  <path d="M10.4884518,44.4100214 C10.4913803,43.8117308 9.9862197,43.2957051 9.3902766,43.2897222 C8.78701236,43.285235 8.29063716,43.8027564 8.29502986,44.433953 C8.29942256,45.0501923 8.78994083,45.5377991 9.39906201,45.533312 C9.99793357,45.5303205 10.4869876,45.0262607 10.4884518,44.4100214 M54.2236457,22.1296795 C53.6467377,22.1222009 53.122542,22.6501923 53.1152209,23.2484829 C53.1078997,23.8677137 53.6115961,24.3822436 54.2265742,24.3837393 C54.8371596,24.385235 55.315964,23.9006197 55.3203567,23.2739103 C55.3262136,22.6442094 54.8400881,22.1371581 54.2236457,22.1296795 M16.1213585,0.64057692 C15.4126695,0.63758547 14.8665103,1.19100427 14.8665103,1.91044872 C14.8665103,2.62690172 15.4185264,3.18331197 16.1272155,3.18032052 C16.813941,3.17583332 17.3513148,2.61643162 17.3513148,1.90596154 C17.3513148,1.18950854 16.8227264,0.6450641 16.1213585,0.64057692 M51.4196383,28.9501923 C50.6157741,28.9442094 49.9187989,29.6561752 49.9261201,30.4773291 C49.931977,31.2880128 50.5952748,31.9521154 51.3962106,31.9536111 C52.2381449,31.9551068 52.8677654,31.3224145 52.8706939,30.4743376 C52.8721581,29.635235 52.2264311,28.9561752 51.4196383,28.9501923 M27.8191209,52.9580983 C27.8279063,52.1130128 27.1470377,51.4175 26.3109603,51.4145085 C25.4514552,51.4115171 24.7779077,52.0920726 24.7793719,52.9566026 C24.7823004,53.8106624 25.4529194,54.4867308 26.2963179,54.4867308 C27.1397165,54.4882265 27.8117997,53.8136538 27.8191209,52.9580983 M9.33609997,11.1166453 C9.33609997,12.1307479 10.1092153,12.9279701 11.0961088,12.9294658 C12.0947161,12.9309615 12.8692957,12.1292521 12.8663672,11.1001923 C12.8634387,10.1025427 12.0888592,9.3217735 11.1048942,9.32476496 C10.094573,9.32626068 9.33609997,10.0950641 9.33609997,11.1166453 M49.9305128,16.8856624 C49.9261201,15.8042521 49.0241521,14.8858761 47.9625828,14.8783974 C46.8790499,14.8709188 45.9609754,15.8057479 45.9668324,16.9110897 C45.9756178,18.0134402 46.8497652,18.8974145 47.9362266,18.8989103 C49.0534368,18.900406 49.9378339,18.008953 49.9305128,16.8856624 M30.9833298,2.13630342 C29.6962684,2.12882479 28.6478771,3.18032052 28.640556,4.48309829 C28.6332348,5.78438033 29.6772334,6.85382479 30.9584378,6.85532049 C32.2337853,6.85532049 33.2587488,5.81130341 33.260213,4.50852563 C33.2631415,3.19826923 32.2498918,2.14228631 30.9833298,2.13630341 M2.31070707,28.7991239 C3.59191149,28.8021154 4.66812319,27.7087393 4.66373049,26.4134402 C4.65787355,25.1151496 3.60362534,24.0382265 2.33413479,24.0337393 C1.03243111,24.0307479 -0.00131781,25.085235 0.00014641,26.4164316 C0.00014641,27.7341667 1.03096688,28.7976282 2.31070706,28.7991239 M43.3546396,49.4147222 C43.3561038,48.0700641 42.2520717,46.9452778 40.925476,46.9407906 C39.5637387,46.9363034 38.4611708,48.0491239 38.4553139,49.4281838 C38.449457,50.7773291 39.5710599,51.9215598 40.8991198,51.9230556 C42.2447505,51.9245513 43.3517111,50.7937821 43.3546396,49.4147222 M47.7078061,35.2546795 C47.7121988,40.1531838 44.2580717,44.3741239 39.5622745,45.2027564 C38.9721884,45.3074573 38.3747811,45.3687821 37.7744453,45.3627991 C37.572381,45.3598077 37.4933124,45.4420726 37.4288861,45.6320299 C36.4917766,48.3811752 34.6204861,50.0204915 31.7945152,50.433312 C29.9246889,50.7070299 28.2276421,50.1954915 26.741445,49.000406 C26.5335238,48.8343803 26.4075997,48.8313889 26.1908931,48.9899359 C24.4513836,50.2598077 22.5010244,50.8236966 20.3720287,50.6920726 C16.2150695,50.4348077 12.7184796,47.1905769 12.0639672,43.0070299 C12.018576,42.716859 11.9717205,42.4251923 11.9673278,42.1350214 C11.9629351,41.8912179 11.8721526,41.7984829 11.6466606,41.7536111 C10.3874197,41.5023291 9.24531747,40.9728419 8.23792474,40.168141 C6.38420498,38.6843803 5.27138744,36.7489103 5.01368232,34.3542521 C4.71790712,31.6125855 5.54666335,29.2433547 7.43406049,27.2689957 C7.58634079,27.1104487 7.59512619,26.999765 7.49262983,26.8127991 C6.76636996,25.5189957 6.42227506,24.1175 6.47791593,22.6307479 C6.61701813,18.9213462 9.14428535,15.8580983 12.658446,15.0982692 C13.065503,15.0100214 13.2792811,14.8469872 13.4579176,14.4536111 C15.1915702,10.6380128 18.1024666,8.31814103 22.1408229,7.55232906 C24.9770435,7.01536326 27.6521983,7.59121796 30.1340743,9.08245726 C30.3434597,9.20809829 30.5177035,9.21856838 30.7431954,9.15126068 C34.6849123,7.98309828 38.1785737,8.83267094 41.1451111,11.7134402 C42.8977987,13.4155769 43.8598002,15.5709188 44.1438615,18.0298932 C44.2053593,18.5683547 44.234644,19.1098077 44.1951097,19.6512607 C44.1790031,19.8546795 44.2405009,19.9414316 44.4308513,20.0117308 C46.2084309,20.6848077 47.4325302,21.9382265 47.9699039,23.7914316 C48.6375945,26.0963462 48.0753288,28.1185684 46.3899959,29.799765 C46.2435725,29.9463462 46.2743214,30.034594 46.3577827,30.1811752 C47.2480368,31.7501923 47.7092704,33.4388675 47.7078061,35.2546795 Z M30.1165035,34.4694231 C30.1179677,36.5529701 31.4284568,38.3957051 33.285105,39.0209188 C34.2163576,39.3350214 35.1768948,39.484594 36.1506102,39.5279701 C36.8461212,39.5578846 37.5416321,39.5085256 38.1844307,39.1809615 C38.6895913,38.9236966 38.9282614,38.4974145 38.9048336,37.9305342 C38.8828701,37.3591667 38.6324862,36.9313889 38.0965767,36.7055342 C37.9120832,36.6262607 37.7231971,36.5619444 37.5255256,36.526047 C36.9354394,36.4198504 36.3424248,36.3286111 35.7552671,36.2104487 C34.7874087,36.0130128 34.3803517,35.4895085 34.3686379,34.4888675 C34.356924,33.6033974 34.5912014,32.7687821 34.8591561,31.943141 C35.3467459,30.4309615 36.0041868,28.9890812 36.6338073,27.5367308 C37.2414642,26.1337393 37.8798701,24.7427137 38.3088905,23.2649359 C38.5460964,22.4542521 38.6588424,21.6405769 38.4436,20.8014744 C38.1170759,19.5271154 37.3688526,18.6730556 36.0817912,18.4277564 C34.9016189,18.2033974 33.7273036,18.1779701 32.6613415,18.8974145 C32.3055327,19.135235 31.9643663,19.0783974 31.6568772,18.8001923 C31.4211356,18.5892949 31.1985721,18.3664316 30.9672232,18.1495513 C29.8792976,17.1234829 28.4414202,17.0726282 27.2729618,18.0104487 C26.8014785,18.3888675 26.4046712,18.8570299 25.8936537,19.1860897 C25.4353486,19.4792521 24.974115,19.5630128 24.4674902,19.2863034 C23.9842931,19.0230556 23.4849894,18.7927137 22.98715,18.5608761 C22.4819894,18.3290385 21.9929353,18.0403632 21.4248127,17.9910043 C19.6267338,17.8354487 17.7466579,18.9258333 16.9530432,20.584594 C16.6016272,21.3189957 16.3146374,22.0818162 16.0408257,22.8491239 C14.7845133,26.3969872 13.7595497,30.0211325 12.6994446,33.6318162 C12.2250329,35.2486966 12.7843701,36.8386538 14.1241439,37.7121581 C15.1696067,38.3927137 16.3146374,38.560235 17.4992024,38.1967735 C18.4597396,37.9021154 18.9853995,37.1123718 19.3529221,36.225406 C20.574093,33.2848077 21.6737324,30.2933547 22.8377981,27.3273291 C23.1570011,26.5121581 23.4674186,25.6925 23.8071208,24.8848077 C24.1512157,24.0696368 25.1366449,23.7929274 25.7208741,24.3328846 C26.0781471,24.6634402 26.1718581,25.101688 26.1381807,25.5713462 C26.0986464,26.0739103 25.908296,26.5360897 25.7296595,26.9967735 C24.9726508,28.9531838 24.2009996,30.9036111 23.4410624,32.8570299 C23.2873179,33.2533974 23.1203952,33.6452778 23.0530405,34.0685684 C22.9359018,34.7969872 23.2184989,35.443141 23.8012639,35.700406 C24.3972069,35.9621581 25.0136493,36.0055342 25.6315559,35.7781838 C26.3490304,35.5119444 26.7780508,34.9375855 27.1089676,34.2749786 C28.2437487,31.9969872 29.3712085,29.7130128 30.5045254,27.4350214 C31.028721,26.3835256 31.5631663,25.3365171 32.0976115,24.2895085 C32.2967473,23.9021154 32.5295605,23.5341667 32.9014758,23.2933547 C33.2367853,23.0764744 33.598451,23.0615171 33.9425459,23.2574573 C34.2778554,23.450406 34.3012831,23.800406 34.2866408,24.1474145 C34.2793196,24.3328846 34.2280715,24.5153632 34.1577882,24.6873718 C34.0099006,25.0478419 33.8737269,25.4127991 33.7097327,25.7657906 C32.7667663,27.7939957 31.8091575,29.8147222 30.8735122,31.8474145 C30.4781692,32.7044658 30.0681837,33.5660043 30.1165035,34.4694231 Z"/>
</svg>
