<svg xmlns="http://www.w3.org/2000/svg" width="520" height="300" viewBox="0 0 520 300">
  <defs>
    <style>
      .a {
        fill: #074354;
      }

      .b {
        fill: #70859b;
      }

      .c {
        fill: #54c695;
      }

      .d {
        fill: none;
        stroke: #70859b;
        stroke-miterlimit: 10;
      }

      .e {
        fill: #bfe6ec;
      }

      .f {
        fill: #acb8c5;
      }

      .g {
        fill: #fff;
      }
    </style>
  </defs>
  <title>stacks</title>
  <g>
    <rect class="a" x="0.5" y="0.5" width="519" height="299" rx="4.5" ry="4.5"/>
    <path class="b" d="M1156,1a4,4,0,0,1,4,4V295a4,4,0,0,1-4,4H646a4,4,0,0,1-4-4V5a4,4,0,0,1,4-4h510m0-1H646a5,5,0,0,0-5,5V295a5,5,0,0,0,5,5h510a5,5,0,0,0,5-5V5a5,5,0,0,0-5-5h0Z" transform="translate(-641)"/>
  </g>
  <path class="c" d="M197.15,195h321.7a0,0,0,0,1,0,0V295a5,5,0,0,1-5,5H197.15a0,0,0,0,1,0,0V195A0,0,0,0,1,197.15,195Z"/>
  <line class="d" y1="50" x2="520" y2="50"/>
  <line class="d" y1="119" x2="520" y2="119"/>
  <line class="d" y1="194.33" x2="520" y2="194.33"/>
  <g>
    <path class="e" d="M845.79,31.67h-1.58l6.12-14.16h1.4l6.08,14.16h-1.6l-1.56-3.72h-7.32Zm2.08-5h6.24L851,19.11Z" transform="translate(-641)"/>
    <path class="e" d="M861.17,36.47h-1.36V22.31h1.36v1.62h0.06a3.71,3.71,0,0,1,1.55-1.39,4.47,4.47,0,0,1,2-.47,5,5,0,0,1,2,.38,4.54,4.54,0,0,1,1.52,1,4.7,4.7,0,0,1,1,1.56,5.55,5.55,0,0,1,0,3.88,4.7,4.7,0,0,1-1,1.56,4.53,4.53,0,0,1-1.52,1,5,5,0,0,1-2,.38,4.48,4.48,0,0,1-2-.47,3.8,3.8,0,0,1-1.55-1.35h-0.06v6.38Zm7-9.48a4.44,4.44,0,0,0-.24-1.47,3.56,3.56,0,0,0-.69-1.2,3.26,3.26,0,0,0-1.11-.81,3.59,3.59,0,0,0-1.5-.3,3.54,3.54,0,0,0-1.44.29,3.46,3.46,0,0,0-1.14.8,3.71,3.71,0,0,0-.75,1.2,4.25,4.25,0,0,0,0,3,3.58,3.58,0,0,0,.75,1.19,3.53,3.53,0,0,0,2.58,1.08,3.69,3.69,0,0,0,1.5-.29,3.14,3.14,0,0,0,1.11-.8,3.56,3.56,0,0,0,.69-1.2A4.44,4.44,0,0,0,868.15,27Z" transform="translate(-641)"/>
    <path class="e" d="M873.87,36.47h-1.36V22.31h1.36v1.62h0.06a3.71,3.71,0,0,1,1.55-1.39,4.47,4.47,0,0,1,2-.47,5,5,0,0,1,2,.38,4.54,4.54,0,0,1,1.52,1,4.7,4.7,0,0,1,1,1.56,5.55,5.55,0,0,1,0,3.88,4.7,4.7,0,0,1-1,1.56,4.53,4.53,0,0,1-1.52,1,5,5,0,0,1-2,.38,4.48,4.48,0,0,1-2-.47,3.8,3.8,0,0,1-1.55-1.35h-0.06v6.38Zm7-9.48a4.44,4.44,0,0,0-.24-1.47,3.56,3.56,0,0,0-.69-1.2,3.26,3.26,0,0,0-1.11-.81,3.59,3.59,0,0,0-1.5-.3,3.54,3.54,0,0,0-1.44.29,3.46,3.46,0,0,0-1.14.8,3.71,3.71,0,0,0-.75,1.2,4.25,4.25,0,0,0,0,3,3.58,3.58,0,0,0,.75,1.19,3.53,3.53,0,0,0,2.58,1.08,3.69,3.69,0,0,0,1.5-.29,3.14,3.14,0,0,0,1.11-.8,3.56,3.56,0,0,0,.69-1.2A4.44,4.44,0,0,0,880.85,27Z" transform="translate(-641)"/>
    <path class="e" d="M886.61,31.67h-1.36V16.55h1.36V31.67Z" transform="translate(-641)"/>
    <path class="e" d="M891.91,18.71a0.89,0.89,0,0,1-.3.69,0.94,0.94,0,0,1-1.32,0,0.94,0.94,0,0,1,0-1.38,0.94,0.94,0,0,1,1.32,0A0.89,0.89,0,0,1,891.91,18.71Zm-0.28,13h-1.36V22.31h1.36v9.36Z" transform="translate(-641)"/>
    <path class="e" d="M902,24.45a2.59,2.59,0,0,0-1-.89,2.93,2.93,0,0,0-1.41-.35,3.64,3.64,0,0,0-1.48.29,3.35,3.35,0,0,0-1.13.8,3.52,3.52,0,0,0-.72,1.2A4.33,4.33,0,0,0,896,27a4.25,4.25,0,0,0,.25,1.48,3.61,3.61,0,0,0,.71,1.19,3.25,3.25,0,0,0,1.12.8,3.64,3.64,0,0,0,1.48.29,3,3,0,0,0,2.54-1.22l1,0.76a4.46,4.46,0,0,1-1.47,1.18,4.58,4.58,0,0,1-2.09.44,5.48,5.48,0,0,1-2.06-.37,4.56,4.56,0,0,1-1.57-1,4.66,4.66,0,0,1-1-1.56,5.52,5.52,0,0,1,0-3.92,4.67,4.67,0,0,1,1-1.56,4.56,4.56,0,0,1,1.57-1,5.48,5.48,0,0,1,2.06-.37,4.89,4.89,0,0,1,1.91.41,3.74,3.74,0,0,1,1.57,1.21Z" transform="translate(-641)"/>
    <path class="e" d="M911.15,25.61a2.36,2.36,0,0,0-.64-1.81,2.64,2.64,0,0,0-1.86-.6,4,4,0,0,0-1.56.3,3.73,3.73,0,0,0-1.22.8l-0.76-.9a4.49,4.49,0,0,1,1.53-1,5.75,5.75,0,0,1,2.15-.38,4.67,4.67,0,0,1,1.42.21,3.36,3.36,0,0,1,1.16.63,2.86,2.86,0,0,1,.78,1.06,3.72,3.72,0,0,1,.28,1.5v4.1c0,0.36,0,.73,0,1.12a7.73,7.73,0,0,0,.12,1h-1.22q-0.06-.34-0.1-0.74a7.63,7.63,0,0,1,0-.78h0a3.94,3.94,0,0,1-1.45,1.35,4.28,4.28,0,0,1-2,.41,4.37,4.37,0,0,1-1.11-.15,3.1,3.1,0,0,1-1-.49,2.78,2.78,0,0,1-.78-0.88,2.62,2.62,0,0,1-.31-1.32,2.52,2.52,0,0,1,.55-1.72,3.3,3.3,0,0,1,1.47-.94,8.64,8.64,0,0,1,2.11-.4q1.19-.09,2.47-0.09v-0.3ZM910.75,27q-0.84,0-1.69.07a7.37,7.37,0,0,0-1.54.28,2.92,2.92,0,0,0-1.13.61A1.36,1.36,0,0,0,906,29a1.7,1.7,0,0,0,.19.84,1.54,1.54,0,0,0,.51.55,2.16,2.16,0,0,0,.71.3,3.5,3.5,0,0,0,.79.09,3.11,3.11,0,0,0,1.28-.25,2.7,2.7,0,0,0,.94-0.68,3,3,0,0,0,.58-1,3.47,3.47,0,0,0,.2-1.18V27h-0.4Z" transform="translate(-641)"/>
    <path class="e" d="M920,23.45h-2.64v5.46a3.08,3.08,0,0,0,.1.86,1.21,1.21,0,0,0,.29.53,1,1,0,0,0,.45.26,2.13,2.13,0,0,0,.56.07,2.35,2.35,0,0,0,.59-0.08,3,3,0,0,0,.59-0.22L920,31.51a4,4,0,0,1-.75.21,4.81,4.81,0,0,1-.85.07,3.47,3.47,0,0,1-.8-0.1,2,2,0,0,1-.78-0.38,2.08,2.08,0,0,1-.59-0.76,2.93,2.93,0,0,1-.23-1.26V23.45H914V22.31H916V19.67h1.36v2.64H920v1.14Z" transform="translate(-641)"/>
    <path class="e" d="M923.73,18.71a0.89,0.89,0,0,1-.3.69,0.94,0.94,0,0,1-1.32,0,0.94,0.94,0,0,1,0-1.38,0.94,0.94,0,0,1,1.32,0A0.89,0.89,0,0,1,923.73,18.71Zm-0.28,13h-1.36V22.31h1.36v9.36Z" transform="translate(-641)"/>
    <path class="e" d="M936.37,27a5.09,5.09,0,0,1-.37,2,4.61,4.61,0,0,1-2.61,2.59,5.37,5.37,0,0,1-2,.37,5.31,5.31,0,0,1-2-.37,4.61,4.61,0,0,1-2.61-2.59,5.37,5.37,0,0,1,0-3.92,4.61,4.61,0,0,1,2.61-2.59,5.31,5.31,0,0,1,2-.37,5.37,5.37,0,0,1,2,.37A4.61,4.61,0,0,1,936,25,5.1,5.1,0,0,1,936.37,27Zm-1.44,0a4.3,4.3,0,0,0-.25-1.47,3.63,3.63,0,0,0-.71-1.2,3.38,3.38,0,0,0-1.12-.81,3.54,3.54,0,0,0-1.48-.3,3.47,3.47,0,0,0-1.47.3,3.39,3.39,0,0,0-1.11.81,3.61,3.61,0,0,0-.71,1.2,4.45,4.45,0,0,0,0,2.94,3.61,3.61,0,0,0,.71,1.2,3.27,3.27,0,0,0,1.11.8,3.57,3.57,0,0,0,1.47.29,3.64,3.64,0,0,0,1.48-.29,3.26,3.26,0,0,0,1.12-.8,3.63,3.63,0,0,0,.71-1.2A4.3,4.3,0,0,0,934.93,27Z" transform="translate(-641)"/>
    <path class="e" d="M940.51,22.31q0,0.38.06,0.84c0,0.31,0,.56,0,0.76h0a3.07,3.07,0,0,1,1.3-1.33,3.79,3.79,0,0,1,1.9-.51,3.29,3.29,0,0,1,2.67,1.06,4.21,4.21,0,0,1,.89,2.8v5.74H946V26.49a6.85,6.85,0,0,0-.12-1.34,2.81,2.81,0,0,0-.41-1,2,2,0,0,0-.78-0.67,2.8,2.8,0,0,0-1.23-.24,2.63,2.63,0,0,0-1,.22,2.58,2.58,0,0,0-.91.67,3.35,3.35,0,0,0-.64,1.14,5,5,0,0,0-.24,1.63v4.8h-1.36v-7.3q0-.38,0-1t-0.06-1.08h1.3Z" transform="translate(-641)"/>
    <path class="e" d="M955.89,24.53a2.39,2.39,0,0,0-.91-0.95,2.63,2.63,0,0,0-1.39-.37,3.32,3.32,0,0,0-.72.08,2,2,0,0,0-.64.26,1.41,1.41,0,0,0-.45.46,1.25,1.25,0,0,0-.17.66,1.13,1.13,0,0,0,.54,1,5.17,5.17,0,0,0,1.7.59,5.67,5.67,0,0,1,2.45,1,2.15,2.15,0,0,1,.79,1.75A2.58,2.58,0,0,1,956,31.26a3.26,3.26,0,0,1-1.13.5,5.46,5.46,0,0,1-1.27.15,5.07,5.07,0,0,1-2.06-.44,3.81,3.81,0,0,1-1.64-1.38l1.08-.8a3.05,3.05,0,0,0,2.6,1.46,4.28,4.28,0,0,0,.84-0.08,1.93,1.93,0,0,0,.7-0.28,1.43,1.43,0,0,0,.66-1.28A1.19,1.19,0,0,0,955,28a9.31,9.31,0,0,0-2-.69q-0.42-.1-0.89-0.25a3.06,3.06,0,0,1-.87-0.44,2.38,2.38,0,0,1-.66-0.73,2.13,2.13,0,0,1-.26-1.1,2.52,2.52,0,0,1,.28-1.23,2.45,2.45,0,0,1,.75-0.84,3.35,3.35,0,0,1,1.07-.49,4.8,4.8,0,0,1,1.24-.16,4.36,4.36,0,0,1,1.9.44,3.06,3.06,0,0,1,1.38,1.24Z" transform="translate(-641)"/>
  </g>
  <g>
    <path class="e" d="M864.66,75.24h4a7.77,7.77,0,0,1,2,.23,4.34,4.34,0,0,1,1.51.7,3.15,3.15,0,0,1,1,1.18,3.83,3.83,0,0,1,.34,1.67,3.74,3.74,0,0,1-.35,1.67,3.24,3.24,0,0,1-1,1.18,4.46,4.46,0,0,1-1.52.71,7.57,7.57,0,0,1-2,.24H866.1V89.4h-1.44V75.24Zm1.44,6.36h2.44a4.26,4.26,0,0,0,2.58-.66A2.25,2.25,0,0,0,872,79a2.16,2.16,0,0,0-.91-1.93,4.55,4.55,0,0,0-2.55-.61H866.1V81.6Z" transform="translate(-641)"/>
    <path class="e" d="M877.58,89.4h-1.36V74.28h1.36V89.4Z" transform="translate(-641)"/>
    <path class="e" d="M887.12,83.34a2.35,2.35,0,0,0-.64-1.81,2.64,2.64,0,0,0-1.86-.6,4,4,0,0,0-1.56.3,3.73,3.73,0,0,0-1.22.8l-0.76-.9a4.48,4.48,0,0,1,1.53-1,5.76,5.76,0,0,1,2.15-.38,4.67,4.67,0,0,1,1.42.21,3.37,3.37,0,0,1,1.16.63,2.86,2.86,0,0,1,.78,1.06,3.72,3.72,0,0,1,.28,1.5v4.1q0,0.54,0,1.12a7.73,7.73,0,0,0,.12,1h-1.22q-0.06-.34-0.1-0.74a7.77,7.77,0,0,1,0-.78h0a4,4,0,0,1-1.45,1.35,4.28,4.28,0,0,1-2,.41,4.37,4.37,0,0,1-1.11-.15,3.1,3.1,0,0,1-1-.49,2.77,2.77,0,0,1-.78-0.88,2.62,2.62,0,0,1-.31-1.32,2.52,2.52,0,0,1,.55-1.72,3.3,3.3,0,0,1,1.47-.94,8.64,8.64,0,0,1,2.11-.4q1.19-.09,2.47-0.09v-0.3Zm-0.4,1.38q-0.84,0-1.69.07a7.37,7.37,0,0,0-1.54.28,2.92,2.92,0,0,0-1.13.61,1.36,1.36,0,0,0-.44,1.06,1.7,1.7,0,0,0,.19.84,1.55,1.55,0,0,0,.51.55,2.15,2.15,0,0,0,.71.3,3.5,3.5,0,0,0,.79.09,3.1,3.1,0,0,0,1.28-.25,2.7,2.7,0,0,0,.94-0.68,3,3,0,0,0,.58-1,3.48,3.48,0,0,0,.2-1.18v-0.7h-0.4Z" transform="translate(-641)"/>
    <path class="e" d="M895.92,81.18h-2.64v5.46a3.1,3.1,0,0,0,.1.86,1.21,1.21,0,0,0,.29.53,1,1,0,0,0,.45.26,2.13,2.13,0,0,0,.56.07,2.35,2.35,0,0,0,.59-0.08,3,3,0,0,0,.59-0.22l0.06,1.18a4,4,0,0,1-.75.21,4.8,4.8,0,0,1-.85.07,3.47,3.47,0,0,1-.8-0.1,2,2,0,0,1-.78-0.38,2.08,2.08,0,0,1-.59-0.76,2.93,2.93,0,0,1-.23-1.26V81.18H890V80h1.94V77.4h1.36V80h2.64v1.14Z" transform="translate(-641)"/>
    <path class="e" d="M902,81.18h-2.2V89.4h-1.36V81.18h-2V80h2V77.48a3.77,3.77,0,0,1,.78-2.52,3,3,0,0,1,2.4-.92l0.56,0a2.91,2.91,0,0,1,.56.11l-0.24,1.2-0.44-.1a2.85,2.85,0,0,0-.5,0,1.94,1.94,0,0,0-.89.18,1.29,1.29,0,0,0-.54.51,2.24,2.24,0,0,0-.26.77,6,6,0,0,0-.07.94V80H902v1.14Z" transform="translate(-641)"/>
    <path class="e" d="M913.24,84.72a5.09,5.09,0,0,1-.37,2,4.61,4.61,0,0,1-2.61,2.59,5.37,5.37,0,0,1-2,.37,5.31,5.31,0,0,1-2-.37,4.61,4.61,0,0,1-2.61-2.59,5.37,5.37,0,0,1,0-3.92,4.61,4.61,0,0,1,2.61-2.59,5.31,5.31,0,0,1,2-.37,5.37,5.37,0,0,1,2,.37,4.61,4.61,0,0,1,2.61,2.59A5.1,5.1,0,0,1,913.24,84.72Zm-1.44,0a4.3,4.3,0,0,0-.25-1.47,3.63,3.63,0,0,0-.71-1.2,3.38,3.38,0,0,0-1.12-.81,3.54,3.54,0,0,0-1.48-.3,3.47,3.47,0,0,0-1.47.3,3.39,3.39,0,0,0-1.11.81,3.61,3.61,0,0,0-.71,1.2,4.45,4.45,0,0,0,0,2.94,3.61,3.61,0,0,0,.71,1.2,3.27,3.27,0,0,0,1.11.8,3.57,3.57,0,0,0,1.47.29,3.64,3.64,0,0,0,1.48-.29,3.26,3.26,0,0,0,1.12-.8,3.63,3.63,0,0,0,.71-1.2A4.3,4.3,0,0,0,911.8,84.72Z" transform="translate(-641)"/>
    <path class="e" d="M916.14,81.12c0-.4,0-0.76-0.06-1.08h1.3q0,0.38.06,0.84c0,0.31,0,.56,0,0.76h0a3.31,3.31,0,0,1,3-1.84l0.47,0a2.6,2.6,0,0,1,.43.08l-0.18,1.3a2.62,2.62,0,0,0-.4-0.08,4,4,0,0,0-.56,0,2.78,2.78,0,0,0-1,.2,2.22,2.22,0,0,0-.87.63,3.3,3.3,0,0,0-.6,1.1,5,5,0,0,0-.23,1.61V89.4h-1.36V82.1Q916.16,81.72,916.14,81.12Z" transform="translate(-641)"/>
    <path class="e" d="M925.93,80.31a3.46,3.46,0,0,1,1.85-.51,4.13,4.13,0,0,1,.79.08,2.53,2.53,0,0,1,.8.31,2.93,2.93,0,0,1,.72.61,3.43,3.43,0,0,1,.57,1A3.52,3.52,0,0,1,932,80.31a3.68,3.68,0,0,1,2-.51,3.29,3.29,0,0,1,2.67,1.06,4.21,4.21,0,0,1,.89,2.8V89.4h-1.36V84.22a4.53,4.53,0,0,0-.55-2.38,2,2,0,0,0-1.87-.9,2.43,2.43,0,0,0-1.25.3,2.39,2.39,0,0,0-.82.79,3.5,3.5,0,0,0-.45,1.11,5.77,5.77,0,0,0-.14,1.28v5H929.7V83.94a7.11,7.11,0,0,0-.1-1.24,2.59,2.59,0,0,0-.35-0.95,1.64,1.64,0,0,0-.69-0.6,2.6,2.6,0,0,0-1.12-.21,2.36,2.36,0,0,0-1,.22,2.53,2.53,0,0,0-.88.67A3.45,3.45,0,0,0,925,83a5,5,0,0,0-.24,1.63v4.8h-1.36V82.1q0-.38,0-1T923.28,80h1.3q0,0.38.06,0.84c0,0.31,0,.56,0,0.76h0A3.18,3.18,0,0,1,925.93,80.31Z" transform="translate(-641)"/>
  </g>
  <g>
    <path class="e" d="M920.22,140.67h4a7.77,7.77,0,0,1,2,.23,4.34,4.34,0,0,1,1.51.7,3.15,3.15,0,0,1,1,1.18,3.83,3.83,0,0,1,.34,1.67,3.74,3.74,0,0,1-.35,1.67,3.24,3.24,0,0,1-1,1.18,4.46,4.46,0,0,1-1.52.71,7.57,7.57,0,0,1-2,.24h-2.52v6.58h-1.44V140.67Zm1.44,6.36h2.44a4.26,4.26,0,0,0,2.58-.66,2.25,2.25,0,0,0,.88-1.92,2.16,2.16,0,0,0-.91-1.93,4.55,4.55,0,0,0-2.55-.61h-2.44V147Z" transform="translate(-641)"/>
    <path class="e" d="M930.76,146.55q0-.6-0.06-1.08H932q0,0.38.06,0.84c0,0.31,0,.56,0,0.76h0a3.24,3.24,0,0,1,1.2-1.33,3.27,3.27,0,0,1,1.8-.51l0.47,0a2.59,2.59,0,0,1,.43.08l-0.18,1.3a2.63,2.63,0,0,0-.4-0.08,3.93,3.93,0,0,0-.56,0,2.78,2.78,0,0,0-1,.2,2.22,2.22,0,0,0-.87.63,3.29,3.29,0,0,0-.6,1.1,4.94,4.94,0,0,0-.23,1.61v4.79h-1.36v-7.3Q930.78,147.15,930.76,146.55Z" transform="translate(-641)"/>
    <path class="e" d="M946.92,150.15a5.11,5.11,0,0,1-.37,2,4.73,4.73,0,0,1-1,1.56,4.66,4.66,0,0,1-1.58,1,5.38,5.38,0,0,1-2,.37,5.32,5.32,0,0,1-2-.37,4.65,4.65,0,0,1-1.58-1,4.71,4.71,0,0,1-1-1.56,5.38,5.38,0,0,1,0-3.92,4.61,4.61,0,0,1,2.61-2.59,5.31,5.31,0,0,1,2-.37,5.37,5.37,0,0,1,2,.37,4.61,4.61,0,0,1,2.61,2.59A5.11,5.11,0,0,1,946.92,150.15Zm-1.44,0a4.28,4.28,0,0,0-.25-1.47,3.62,3.62,0,0,0-.71-1.2,3.37,3.37,0,0,0-1.12-.81,3.54,3.54,0,0,0-1.48-.3,3.47,3.47,0,0,0-1.47.3,3.39,3.39,0,0,0-1.11.81,3.6,3.6,0,0,0-.71,1.2,4.45,4.45,0,0,0,0,2.94,3.6,3.6,0,0,0,.71,1.2,3.27,3.27,0,0,0,1.11.8,3.57,3.57,0,0,0,1.47.29,3.64,3.64,0,0,0,1.48-.29,3.25,3.25,0,0,0,1.12-.8,3.63,3.63,0,0,0,.71-1.2A4.29,4.29,0,0,0,945.48,150.15Z" transform="translate(-641)"/>
    <path class="e" d="M956.58,147.61a2.59,2.59,0,0,0-1-.89,2.93,2.93,0,0,0-1.41-.35,3.64,3.64,0,0,0-1.48.29,3.35,3.35,0,0,0-1.13.8,3.52,3.52,0,0,0-.72,1.2,4.33,4.33,0,0,0-.25,1.49,4.25,4.25,0,0,0,.25,1.48,3.62,3.62,0,0,0,.71,1.19,3.25,3.25,0,0,0,1.12.8,3.64,3.64,0,0,0,1.48.29,3,3,0,0,0,2.54-1.22l1,0.76a4.46,4.46,0,0,1-1.47,1.18,4.59,4.59,0,0,1-2.09.44,5.49,5.49,0,0,1-2.06-.37,4.54,4.54,0,0,1-1.57-1,4.67,4.67,0,0,1-1-1.56,5.52,5.52,0,0,1,0-3.92,4.67,4.67,0,0,1,1-1.56,4.56,4.56,0,0,1,1.57-1,5.48,5.48,0,0,1,2.06-.37,4.89,4.89,0,0,1,1.91.41,3.74,3.74,0,0,1,1.57,1.21Z" transform="translate(-641)"/>
    <path class="e" d="M968.36,149.87v0.3a3.13,3.13,0,0,1,0,.34h-7.76a3.65,3.65,0,0,0,.28,1.32,3.33,3.33,0,0,0,.72,1.08,3.46,3.46,0,0,0,1.08.73,3.57,3.57,0,0,0,3.17-.22,3.66,3.66,0,0,0,1.17-1.13l1,0.8a5.07,5.07,0,0,1-1.85,1.52,5.17,5.17,0,0,1-2.17.46,5,5,0,0,1-1.93-.37,4.51,4.51,0,0,1-1.53-1,4.87,4.87,0,0,1-1-1.56,5.1,5.1,0,0,1-.37-2,5.24,5.24,0,0,1,.36-2,4.75,4.75,0,0,1,1-1.56,4.61,4.61,0,0,1,1.5-1,4.66,4.66,0,0,1,1.86-.37,4.77,4.77,0,0,1,1.94.37,4,4,0,0,1,1.4,1,4.3,4.3,0,0,1,.85,1.47A5.47,5.47,0,0,1,968.36,149.87Zm-1.38-.44a3.37,3.37,0,0,0-.85-2.19,2.88,2.88,0,0,0-2.25-.87,3.15,3.15,0,0,0-1.26.25,3.33,3.33,0,0,0-1,.68,3.38,3.38,0,0,0-.7,1,3.15,3.15,0,0,0-.3,1.15H967Z" transform="translate(-641)"/>
    <path class="e" d="M976.26,147.69a2.4,2.4,0,0,0-.91-0.95,2.63,2.63,0,0,0-1.39-.37,3.32,3.32,0,0,0-.72.08,2,2,0,0,0-.64.26,1.42,1.42,0,0,0-.45.46,1.25,1.25,0,0,0-.17.66,1.13,1.13,0,0,0,.54,1,5.18,5.18,0,0,0,1.7.59,5.68,5.68,0,0,1,2.45,1,2.15,2.15,0,0,1,.79,1.75,2.59,2.59,0,0,1-1.12,2.25,3.27,3.27,0,0,1-1.13.5,5.44,5.44,0,0,1-1.27.15,5.07,5.07,0,0,1-2.06-.44,3.81,3.81,0,0,1-1.64-1.38l1.08-.8a3.06,3.06,0,0,0,2.6,1.46,4.25,4.25,0,0,0,.84-0.08,1.93,1.93,0,0,0,.7-0.28,1.44,1.44,0,0,0,.66-1.28,1.19,1.19,0,0,0-.71-1.11,9.3,9.3,0,0,0-2.05-.69q-0.42-.1-0.89-0.25a3.06,3.06,0,0,1-.87-0.44,2.4,2.4,0,0,1-.66-0.73,2.14,2.14,0,0,1-.26-1.1,2.51,2.51,0,0,1,.28-1.23,2.45,2.45,0,0,1,.75-0.84,3.35,3.35,0,0,1,1.07-.49,4.8,4.8,0,0,1,1.24-.16,4.36,4.36,0,0,1,1.9.44,3.06,3.06,0,0,1,1.38,1.24Z" transform="translate(-641)"/>
    <path class="e" d="M985.14,147.69a2.39,2.39,0,0,0-.91-0.95,2.63,2.63,0,0,0-1.39-.37,3.32,3.32,0,0,0-.72.08,2,2,0,0,0-.64.26,1.41,1.41,0,0,0-.45.46,1.25,1.25,0,0,0-.17.66,1.13,1.13,0,0,0,.54,1,5.17,5.17,0,0,0,1.7.59,5.67,5.67,0,0,1,2.45,1,2.15,2.15,0,0,1,.79,1.75,2.58,2.58,0,0,1-1.12,2.25,3.26,3.26,0,0,1-1.13.5,5.43,5.43,0,0,1-1.27.15,5.07,5.07,0,0,1-2.06-.44,3.81,3.81,0,0,1-1.64-1.38l1.08-.8a3.05,3.05,0,0,0,2.6,1.46,4.25,4.25,0,0,0,.84-0.08,1.93,1.93,0,0,0,.7-0.28,1.43,1.43,0,0,0,.66-1.28,1.19,1.19,0,0,0-.71-1.11,9.31,9.31,0,0,0-2-.69q-0.42-.1-0.89-0.25a3.06,3.06,0,0,1-.87-0.44,2.38,2.38,0,0,1-.66-0.73,2.13,2.13,0,0,1-.26-1.1,2.52,2.52,0,0,1,.28-1.23,2.45,2.45,0,0,1,.75-0.84,3.35,3.35,0,0,1,1.07-.49,4.8,4.8,0,0,1,1.24-.16,4.36,4.36,0,0,1,1.9.44,3.06,3.06,0,0,1,1.38,1.24Z" transform="translate(-641)"/>
    <path class="e" d="M990.7,141.87a0.89,0.89,0,0,1-.3.69,0.94,0.94,0,0,1-1.32,0,0.94,0.94,0,0,1,0-1.38,0.94,0.94,0,0,1,1.32,0A0.89,0.89,0,0,1,990.7,141.87Zm-0.28,13h-1.36v-9.36h1.36v9.36Z" transform="translate(-641)"/>
    <path class="e" d="M995.26,145.47q0,0.38.06,0.84c0,0.31,0,.56,0,0.76h0a3.08,3.08,0,0,1,1.3-1.33,3.8,3.8,0,0,1,1.9-.51,3.29,3.29,0,0,1,2.67,1.06,4.21,4.21,0,0,1,.89,2.8v5.74h-1.36v-5.18a6.85,6.85,0,0,0-.12-1.34,2.81,2.81,0,0,0-.41-1,2,2,0,0,0-.78-0.67,2.79,2.79,0,0,0-1.23-.24,2.63,2.63,0,0,0-1,.22,2.57,2.57,0,0,0-.91.67,3.33,3.33,0,0,0-.64,1.14,5,5,0,0,0-.24,1.63v4.8H994v-7.3q0-.38,0-1c0-.4,0-0.76-0.06-1.08h1.3Z" transform="translate(-641)"/>
    <path class="e" d="M1006.16,156.71a4.53,4.53,0,0,0,1.53,1.22,4.72,4.72,0,0,0,3.75.21,3,3,0,0,0,1.13-.79,3.15,3.15,0,0,0,.63-1.17,5,5,0,0,0,.2-1.43V153h0a3.58,3.58,0,0,1-1.53,1.36,4.57,4.57,0,0,1-2,.48,5.25,5.25,0,0,1-2-.36,4.52,4.52,0,0,1-1.52-1,4.39,4.39,0,0,1-1-1.51,5.27,5.27,0,0,1,0-3.78,4.73,4.73,0,0,1,1-1.54,4.53,4.53,0,0,1,1.52-1,5,5,0,0,1,2-.38,4.5,4.5,0,0,1,2,.48,3.68,3.68,0,0,1,1.54,1.38h0v-1.62h1.36v9.28a6.86,6.86,0,0,1-.21,1.62,4.1,4.1,0,0,1-.78,1.58,4.39,4.39,0,0,1-1.55,1.2,5.79,5.79,0,0,1-2.54.48,6.28,6.28,0,0,1-2.48-.5,6,6,0,0,1-2-1.38Zm0.26-6.68a4.09,4.09,0,0,0,.24,1.4,3.51,3.51,0,0,0,.69,1.16,3.2,3.2,0,0,0,1.11.79,3.69,3.69,0,0,0,1.5.29,3.9,3.9,0,0,0,1.44-.26,3.29,3.29,0,0,0,1.14-.74,3.42,3.42,0,0,0,.75-1.15,4,4,0,0,0,.27-1.49,3.64,3.64,0,0,0-2.16-3.36,3.44,3.44,0,0,0-1.44-.3,3.59,3.59,0,0,0-1.5.3,3.31,3.31,0,0,0-1.11.8,3.51,3.51,0,0,0-.69,1.16A4.09,4.09,0,0,0,1006.42,150Z" transform="translate(-641)"/>
  </g>
  <g>
    <path class="f" d="M680,271.59h4v0.77h-4.82v-8.5H680v7.73Z" transform="translate(-641)"/>
    <path class="f" d="M688.74,268.73a1.41,1.41,0,0,0-.38-1.08,1.58,1.58,0,0,0-1.12-.36,2.41,2.41,0,0,0-.94.18,2.25,2.25,0,0,0-.73.48l-0.46-.54a2.71,2.71,0,0,1,.92-0.58,3.46,3.46,0,0,1,1.29-.23,2.8,2.8,0,0,1,.85.13,2,2,0,0,1,.7.38,1.72,1.72,0,0,1,.47.64,2.24,2.24,0,0,1,.17.9v2.46c0,0.22,0,.44,0,0.67a4.69,4.69,0,0,0,.07.59h-0.73c0-.14,0-0.28-0.06-0.44a4.68,4.68,0,0,1,0-.47h0a2.36,2.36,0,0,1-.87.81,2.56,2.56,0,0,1-1.17.25,2.59,2.59,0,0,1-.67-0.09,1.84,1.84,0,0,1-.62-0.29,1.65,1.65,0,0,1-.47-0.53,1.57,1.57,0,0,1-.19-0.79,1.51,1.51,0,0,1,.33-1,2,2,0,0,1,.88-0.57,5.15,5.15,0,0,1,1.27-.24q0.71-.05,1.48-0.05v-0.18Zm-0.24.83q-0.5,0-1,0a4.44,4.44,0,0,0-.92.17,1.74,1.74,0,0,0-.68.37,0.82,0.82,0,0,0-.26.64,1,1,0,0,0,.11.5,0.94,0.94,0,0,0,.31.33,1.3,1.3,0,0,0,.43.18,2.09,2.09,0,0,0,.47.05,1.86,1.86,0,0,0,.77-0.15,1.62,1.62,0,0,0,.56-0.41,1.81,1.81,0,0,0,.35-0.59,2.09,2.09,0,0,0,.12-0.71v-0.42H688.5Z" transform="translate(-641)"/>
    <path class="f" d="M691.6,267.39q0-.36,0-0.65h0.78c0,0.15,0,.32,0,0.5s0,0.34,0,.46h0a2,2,0,0,1,1.8-1.1h0.28l0.26,0-0.11.78-0.24,0-0.34,0a1.66,1.66,0,0,0-.62.12,1.35,1.35,0,0,0-.52.38,2,2,0,0,0-.36.66,3,3,0,0,0-.14,1v2.87h-0.82V268Q691.61,267.75,691.6,267.39Z" transform="translate(-641)"/>
    <path class="f" d="M696,273.49a2.71,2.71,0,0,0,.92.73,2.84,2.84,0,0,0,2.25.13,1.78,1.78,0,0,0,.68-0.47,1.9,1.9,0,0,0,.38-0.7,3,3,0,0,0,.12-0.86v-1.06h0a2.15,2.15,0,0,1-.92.82,2.73,2.73,0,0,1-1.21.29,3.15,3.15,0,0,1-1.19-.22,2.7,2.7,0,0,1-.91-0.59,2.64,2.64,0,0,1-.59-0.91,3.05,3.05,0,0,1-.21-1.14,3,3,0,0,1,.21-1.13,2.85,2.85,0,0,1,.59-0.92,2.73,2.73,0,0,1,.91-0.62,3,3,0,0,1,1.19-.23,2.7,2.7,0,0,1,1.2.29,2.21,2.21,0,0,1,.92.83h0v-1h0.82v5.57a4.1,4.1,0,0,1-.13,1,2.45,2.45,0,0,1-.47.95,2.64,2.64,0,0,1-.93.72,3.47,3.47,0,0,1-1.52.29,3.77,3.77,0,0,1-1.49-.3,3.58,3.58,0,0,1-1.21-.83Zm0.16-4a2.43,2.43,0,0,0,.14.84,2.09,2.09,0,0,0,.41.7,1.91,1.91,0,0,0,.67.47,2.22,2.22,0,0,0,.9.17,2.35,2.35,0,0,0,.86-0.16,2,2,0,0,0,.68-0.44,2,2,0,0,0,.45-0.69,2.38,2.38,0,0,0,.16-0.89,2.18,2.18,0,0,0-1.3-2,2.06,2.06,0,0,0-.86-0.18,2.15,2.15,0,0,0-.9.18,2,2,0,0,0-.67.48,2.1,2.1,0,0,0-.41.7A2.43,2.43,0,0,0,696.17,269.48Z" transform="translate(-641)"/>
    <path class="f" d="M708.41,269.39v0.18a1.89,1.89,0,0,1,0,.2h-4.66a2.19,2.19,0,0,0,.17.79,2,2,0,0,0,.43.65,2.08,2.08,0,0,0,.65.44,2.14,2.14,0,0,0,1.9-.13,2.2,2.2,0,0,0,.7-0.68l0.61,0.48a3,3,0,0,1-1.11.91,3.11,3.11,0,0,1-1.3.28,3,3,0,0,1-1.16-.22,2.71,2.71,0,0,1-.92-0.62,2.93,2.93,0,0,1-.61-0.94,3.06,3.06,0,0,1-.22-1.18,3.13,3.13,0,0,1,.22-1.18,2.85,2.85,0,0,1,.6-0.94,2.77,2.77,0,0,1,2-.84,2.87,2.87,0,0,1,1.16.22,2.4,2.4,0,0,1,.84.6,2.58,2.58,0,0,1,.51.88A3.3,3.3,0,0,1,708.41,269.39Zm-0.83-.26a2,2,0,0,0-.51-1.31,1.73,1.73,0,0,0-1.35-.52,1.9,1.9,0,0,0-.76.15,2,2,0,0,0-1,1,1.89,1.89,0,0,0-.18.69h3.83Z" transform="translate(-641)"/>
    <path class="f" d="M714.07,272.36h-0.86v-8.5h5.12v0.77h-4.26v2.94h4v0.77h-4v4Z" transform="translate(-641)"/>
    <path class="f" d="M720.68,264.59a0.53,0.53,0,0,1-.18.41,0.57,0.57,0,0,1-.79,0,0.57,0.57,0,0,1,0-.83,0.56,0.56,0,0,1,.79,0A0.53,0.53,0,0,1,720.68,264.59Zm-0.17,7.78H719.7v-5.62h0.82v5.62Z" transform="translate(-641)"/>
    <path class="f" d="M723.53,272.36h-0.82v-9.07h0.82v9.07Z" transform="translate(-641)"/>
    <path class="f" d="M730.82,269.39v0.18a1.89,1.89,0,0,1,0,.2h-4.66a2.19,2.19,0,0,0,.17.79,2,2,0,0,0,.43.65,2.08,2.08,0,0,0,.65.44,2.14,2.14,0,0,0,1.9-.13,2.2,2.2,0,0,0,.7-0.68l0.61,0.48a3,3,0,0,1-1.11.91,3.11,3.11,0,0,1-1.3.28,3,3,0,0,1-1.16-.22,2.71,2.71,0,0,1-.92-0.62,2.93,2.93,0,0,1-.61-0.94,3.06,3.06,0,0,1-.22-1.18,3.13,3.13,0,0,1,.22-1.18,2.85,2.85,0,0,1,.6-0.94,2.77,2.77,0,0,1,2-.84,2.87,2.87,0,0,1,1.16.22,2.4,2.4,0,0,1,.84.6,2.58,2.58,0,0,1,.51.88A3.3,3.3,0,0,1,730.82,269.39Zm-0.83-.26a2,2,0,0,0-.51-1.31,1.73,1.73,0,0,0-1.35-.52,1.9,1.9,0,0,0-.76.15,2,2,0,0,0-1,1,1.89,1.89,0,0,0-.18.69H730Z" transform="translate(-641)"/>
    <path class="f" d="M735.56,268.08a1.43,1.43,0,0,0-.55-0.57,1.57,1.57,0,0,0-.83-0.22,2,2,0,0,0-.43,0,1.17,1.17,0,0,0-.38.16,0.84,0.84,0,0,0-.27.28,0.75,0.75,0,0,0-.1.4,0.68,0.68,0,0,0,.32.61,3.11,3.11,0,0,0,1,.35,3.42,3.42,0,0,1,1.47.59,1.29,1.29,0,0,1,.47,1,1.55,1.55,0,0,1-.67,1.35,2,2,0,0,1-.68.3,3.3,3.3,0,0,1-.76.09,3,3,0,0,1-1.24-.26,2.28,2.28,0,0,1-1-.83l0.65-.48a1.83,1.83,0,0,0,1.56.88,2.55,2.55,0,0,0,.5,0,1.16,1.16,0,0,0,.42-0.17,0.86,0.86,0,0,0,.4-0.77,0.71,0.71,0,0,0-.43-0.67,5.66,5.66,0,0,0-1.23-.41l-0.53-.15a1.87,1.87,0,0,1-.52-0.26,1.44,1.44,0,0,1-.4-0.44,1.28,1.28,0,0,1-.16-0.66,1.51,1.51,0,0,1,.17-0.74,1.49,1.49,0,0,1,.45-0.5,2,2,0,0,1,.64-0.29,2.9,2.9,0,0,1,.74-0.1,2.61,2.61,0,0,1,1.14.26,1.85,1.85,0,0,1,.83.74Z" transform="translate(-641)"/>
    <path class="f" d="M746.17,270.39l1.91,2h-1.2l-1.2-1.26a3.65,3.65,0,0,1-1.14,1.06,3,3,0,0,1-1.48.34,3.35,3.35,0,0,1-1-.16,2.54,2.54,0,0,1-.85-0.45,2.1,2.1,0,0,1-.57-0.73,2.32,2.32,0,0,1-.21-1,2.3,2.3,0,0,1,.56-1.55,3.06,3.06,0,0,1,.62-0.55,4.84,4.84,0,0,1,.78-0.42,5.51,5.51,0,0,1-.38-0.42,3.68,3.68,0,0,1-.33-0.47,2.64,2.64,0,0,1-.23-0.52,1.82,1.82,0,0,1-.09-0.56,2.05,2.05,0,0,1,.17-0.85,1.86,1.86,0,0,1,.46-0.63,2,2,0,0,1,.67-0.39,2.5,2.5,0,0,1,.82-0.13,2.45,2.45,0,0,1,.79.13,1.92,1.92,0,0,1,.65.37,1.75,1.75,0,0,1,.44.6,1.92,1.92,0,0,1,.16.81,1.72,1.72,0,0,1-.16.76,2.22,2.22,0,0,1-.43.61,3.31,3.31,0,0,1-.61.48q-0.34.21-.7,0.39l2,2,1.18-2.06h1Zm-3.31-2.21a3.22,3.22,0,0,0-1.16.82,1.74,1.74,0,0,0-.4,1.16,1.56,1.56,0,0,0,.14.66,1.48,1.48,0,0,0,.38.51,1.88,1.88,0,0,0,.57.33,2,2,0,0,0,.68.12,2,2,0,0,0,1.16-.31,3.25,3.25,0,0,0,.87-0.94Zm1.81-2.63a1.16,1.16,0,0,0-.34-0.86,1.18,1.18,0,0,0-.86-0.34,1.26,1.26,0,0,0-.92.35,1.28,1.28,0,0,0-.36,1,1.3,1.3,0,0,0,.1.47,2.38,2.38,0,0,0,.24.46,3.49,3.49,0,0,0,.31.4,2.51,2.51,0,0,0,.28.28,6.19,6.19,0,0,0,.56-0.29,2.91,2.91,0,0,0,.5-0.37,1.7,1.7,0,0,0,.36-0.47A1.25,1.25,0,0,0,744.67,265.56Z" transform="translate(-641)"/>
    <path class="f" d="M756.6,270.9h0l2.84-7h1.32v8.5h-0.86V265h0l-3.07,7.38h-0.46L753.29,265h0v7.38H752.4v-8.5h1.32Z" transform="translate(-641)"/>
    <path class="f" d="M768.1,269.39v0.18a1.89,1.89,0,0,1,0,.2h-4.66a2.19,2.19,0,0,0,.17.79,2,2,0,0,0,.43.65,2.08,2.08,0,0,0,.65.44,2.14,2.14,0,0,0,1.9-.13,2.2,2.2,0,0,0,.7-0.68l0.61,0.48a3,3,0,0,1-1.11.91,3.11,3.11,0,0,1-1.3.28,3,3,0,0,1-1.16-.22,2.71,2.71,0,0,1-.92-0.62,2.93,2.93,0,0,1-.61-0.94,3.06,3.06,0,0,1-.22-1.18,3.13,3.13,0,0,1,.22-1.18,2.85,2.85,0,0,1,.6-0.94,2.77,2.77,0,0,1,2-.84,2.87,2.87,0,0,1,1.16.22,2.4,2.4,0,0,1,.84.6,2.58,2.58,0,0,1,.51.88A3.3,3.3,0,0,1,768.1,269.39Zm-0.83-.26a2,2,0,0,0-.51-1.31,1.73,1.73,0,0,0-1.35-.52,1.9,1.9,0,0,0-.76.15,2,2,0,0,0-1,1,1.89,1.89,0,0,0-.18.69h3.83Z" transform="translate(-641)"/>
    <path class="f" d="M774.47,271.41a2.3,2.3,0,0,1-.94.82,2.73,2.73,0,0,1-1.19.28,3,3,0,0,1-1.19-.23,2.7,2.7,0,0,1-.91-0.62,2.82,2.82,0,0,1-.59-0.94,3.33,3.33,0,0,1,0-2.33,2.82,2.82,0,0,1,.59-0.94,2.73,2.73,0,0,1,.91-0.62,3,3,0,0,1,1.19-.23,2.67,2.67,0,0,1,1.19.28,2.32,2.32,0,0,1,.94.83h0v-4.43h0.82v9.07h-0.82v-0.95h0Zm-4.16-1.86a2.66,2.66,0,0,0,.14.88,2.12,2.12,0,0,0,.41.72,1.89,1.89,0,0,0,.67.48,2.22,2.22,0,0,0,.9.17,2.12,2.12,0,0,0,1.55-.65,2.14,2.14,0,0,0,.45-0.71,2.55,2.55,0,0,0,0-1.79,2.23,2.23,0,0,0-.45-0.72,2.06,2.06,0,0,0-.68-0.48,2.12,2.12,0,0,0-.86-0.17,2.15,2.15,0,0,0-.9.18,2,2,0,0,0-.67.49,2.13,2.13,0,0,0-.41.72A2.66,2.66,0,0,0,770.3,269.55Z" transform="translate(-641)"/>
    <path class="f" d="M778.49,264.59a0.53,0.53,0,0,1-.18.41,0.57,0.57,0,0,1-.79,0,0.57,0.57,0,0,1,0-.83,0.56,0.56,0,0,1,.79,0A0.53,0.53,0,0,1,778.49,264.59Zm-0.17,7.78H777.5v-5.62h0.82v5.62Z" transform="translate(-641)"/>
    <path class="f" d="M784,268.73a1.41,1.41,0,0,0-.38-1.08,1.58,1.58,0,0,0-1.12-.36,2.41,2.41,0,0,0-.94.18,2.25,2.25,0,0,0-.73.48l-0.46-.54a2.71,2.71,0,0,1,.92-0.58,3.46,3.46,0,0,1,1.29-.23,2.8,2.8,0,0,1,.85.13,2,2,0,0,1,.7.38,1.72,1.72,0,0,1,.47.64,2.24,2.24,0,0,1,.17.9v2.46c0,0.22,0,.44,0,0.67a4.69,4.69,0,0,0,.07.59h-0.73c0-.14,0-0.28-0.06-0.44a4.68,4.68,0,0,1,0-.47h0a2.36,2.36,0,0,1-.87.81,2.56,2.56,0,0,1-1.17.25,2.59,2.59,0,0,1-.67-0.09,1.84,1.84,0,0,1-.62-0.29,1.65,1.65,0,0,1-.47-0.53,1.57,1.57,0,0,1-.19-0.79,1.51,1.51,0,0,1,.33-1,2,2,0,0,1,.88-0.57,5.15,5.15,0,0,1,1.27-.24q0.71-.05,1.48-0.05v-0.18Zm-0.24.83q-0.5,0-1,0a4.44,4.44,0,0,0-.92.17,1.74,1.74,0,0,0-.68.37,0.82,0.82,0,0,0-.26.64,1,1,0,0,0,.11.5,0.94,0.94,0,0,0,.31.33,1.3,1.3,0,0,0,.43.18,2.09,2.09,0,0,0,.47.05,1.86,1.86,0,0,0,.77-0.15,1.62,1.62,0,0,0,.56-0.41,1.81,1.81,0,0,0,.35-0.59A2.09,2.09,0,0,0,784,270v-0.42h-0.24Z" transform="translate(-641)"/>
  </g>
  <g>
    <path class="f" d="M860.15,162.8h2.53a4.75,4.75,0,0,1,1,.1,2.64,2.64,0,0,1,.88.35,1.92,1.92,0,0,1,.64.67,2.06,2.06,0,0,1,.25,1.06,1.79,1.79,0,0,1-.41,1.17,1.92,1.92,0,0,1-1.1.65v0a2.24,2.24,0,0,1,1.37.64,2,2,0,0,1,.54,1.48,2.08,2.08,0,0,1-.85,1.71,3,3,0,0,1-1,.47,4.77,4.77,0,0,1-1.32.17h-2.51v-8.5Zm0.86,3.72h1.74a2.85,2.85,0,0,0,.63-0.07,1.74,1.74,0,0,0,.58-0.25,1.31,1.31,0,0,0,.43-0.46,1.42,1.42,0,0,0,.16-0.71,1.37,1.37,0,0,0-.16-0.69,1.35,1.35,0,0,0-.44-0.46,1.88,1.88,0,0,0-.65-0.26,3.87,3.87,0,0,0-.79-0.08H861v3Zm0,4h1.61a4.28,4.28,0,0,0,.89-0.09,2.28,2.28,0,0,0,.74-0.29,1.53,1.53,0,0,0,.51-0.52,1.64,1.64,0,0,0-.38-2,2.71,2.71,0,0,0-1.61-.41H861v3.32Z" transform="translate(-641)"/>
    <path class="f" d="M871.81,171.29c0-.15,0-0.32,0-0.5s0-.34,0-0.46h0a1.85,1.85,0,0,1-.78.8,2.28,2.28,0,0,1-1.14.31,2,2,0,0,1-1.6-.64,2.52,2.52,0,0,1-.53-1.68v-3.44h0.82v3.11a4.12,4.12,0,0,0,.07.8,1.68,1.68,0,0,0,.25.62,1.18,1.18,0,0,0,.47.4,1.68,1.68,0,0,0,.74.14,1.58,1.58,0,0,0,.63-0.13,1.54,1.54,0,0,0,.55-0.4,2,2,0,0,0,.38-0.68,3,3,0,0,0,.14-1v-2.88h0.82v4.38q0,0.23,0,.59c0,0.24,0,.46,0,0.65h-0.78Z" transform="translate(-641)"/>
    <path class="f" d="M877.69,167a1.43,1.43,0,0,0-.55-0.57,1.57,1.57,0,0,0-.83-0.22,2,2,0,0,0-.43,0,1.18,1.18,0,0,0-.38.16,0.84,0.84,0,0,0-.27.28,0.75,0.75,0,0,0-.1.4,0.68,0.68,0,0,0,.32.61,3.11,3.11,0,0,0,1,.35,3.42,3.42,0,0,1,1.47.59,1.29,1.29,0,0,1,.47,1,1.55,1.55,0,0,1-.67,1.35,2,2,0,0,1-.68.3,3.3,3.3,0,0,1-.76.09,3,3,0,0,1-1.24-.26,2.28,2.28,0,0,1-1-.83l0.65-.48a1.83,1.83,0,0,0,1.56.88,2.55,2.55,0,0,0,.5,0,1.16,1.16,0,0,0,.42-0.17,0.86,0.86,0,0,0,.4-0.77,0.71,0.71,0,0,0-.43-0.67,5.65,5.65,0,0,0-1.23-.41l-0.53-.15a1.87,1.87,0,0,1-.52-0.26,1.45,1.45,0,0,1-.4-0.44,1.28,1.28,0,0,1-.16-0.66,1.51,1.51,0,0,1,.17-0.74,1.49,1.49,0,0,1,.45-0.5,2,2,0,0,1,.64-0.29,2.9,2.9,0,0,1,.74-0.1,2.62,2.62,0,0,1,1.14.26,1.85,1.85,0,0,1,.83.74Z" transform="translate(-641)"/>
    <path class="f" d="M881,163.52a0.53,0.53,0,0,1-.18.41,0.57,0.57,0,0,1-.79,0,0.56,0.56,0,0,1,0-.83,0.56,0.56,0,0,1,.79,0A0.53,0.53,0,0,1,881,163.52Zm-0.17,7.78H880v-5.62h0.82v5.62Z" transform="translate(-641)"/>
    <path class="f" d="M883.77,165.68c0,0.15,0,.32,0,0.5s0,0.34,0,.46h0a1.85,1.85,0,0,1,.78-0.8,2.28,2.28,0,0,1,1.14-.31,2,2,0,0,1,1.6.64,2.53,2.53,0,0,1,.53,1.68v3.44h-0.82v-3.11a4.06,4.06,0,0,0-.07-0.8,1.69,1.69,0,0,0-.25-0.62,1.17,1.17,0,0,0-.47-0.4,1.67,1.67,0,0,0-.74-0.14,1.57,1.57,0,0,0-.63.13,1.55,1.55,0,0,0-.55.4,2,2,0,0,0-.38.68,3,3,0,0,0-.14,1v2.88H883v-4.38q0-.23,0-0.59c0-.24,0-0.46,0-0.65h0.78Z" transform="translate(-641)"/>
    <path class="f" d="M895.12,168.32v0.18a1.89,1.89,0,0,1,0,.2h-4.66a2.18,2.18,0,0,0,.17.79,2,2,0,0,0,.43.65,2.09,2.09,0,0,0,.65.44,2.14,2.14,0,0,0,1.9-.13,2.2,2.2,0,0,0,.7-0.68l0.61,0.48a3,3,0,0,1-1.11.91,3.11,3.11,0,0,1-1.3.28,3,3,0,0,1-1.16-.22,2.71,2.71,0,0,1-.92-0.62,2.93,2.93,0,0,1-.61-0.94,3.06,3.06,0,0,1-.22-1.18,3.12,3.12,0,0,1,.22-1.18,2.85,2.85,0,0,1,.6-0.94,2.76,2.76,0,0,1,.9-0.62,2.8,2.8,0,0,1,1.12-.22,2.87,2.87,0,0,1,1.16.22,2.4,2.4,0,0,1,.84.6,2.57,2.57,0,0,1,.51.88A3.31,3.31,0,0,1,895.12,168.32Zm-0.83-.26a2,2,0,0,0-.51-1.31,1.73,1.73,0,0,0-1.35-.52,1.9,1.9,0,0,0-.76.15,2,2,0,0,0-1,1,1.9,1.9,0,0,0-.18.69h3.83Z" transform="translate(-641)"/>
    <path class="f" d="M899.86,167a1.43,1.43,0,0,0-.55-0.57,1.57,1.57,0,0,0-.83-0.22,2,2,0,0,0-.43,0,1.18,1.18,0,0,0-.38.16,0.84,0.84,0,0,0-.27.28,0.75,0.75,0,0,0-.1.4,0.68,0.68,0,0,0,.32.61,3.11,3.11,0,0,0,1,.35,3.42,3.42,0,0,1,1.47.59,1.29,1.29,0,0,1,.47,1,1.55,1.55,0,0,1-.67,1.35,2,2,0,0,1-.68.3,3.3,3.3,0,0,1-.76.09,3,3,0,0,1-1.24-.26,2.28,2.28,0,0,1-1-.83l0.65-.48a1.83,1.83,0,0,0,1.56.88,2.55,2.55,0,0,0,.5,0,1.16,1.16,0,0,0,.42-0.17,0.86,0.86,0,0,0,.4-0.77,0.71,0.71,0,0,0-.43-0.67,5.65,5.65,0,0,0-1.23-.41l-0.53-.15a1.87,1.87,0,0,1-.52-0.26,1.45,1.45,0,0,1-.4-0.44,1.28,1.28,0,0,1-.16-0.66,1.51,1.51,0,0,1,.17-0.74,1.49,1.49,0,0,1,.45-0.5,2,2,0,0,1,.64-0.29,2.9,2.9,0,0,1,.74-0.1,2.62,2.62,0,0,1,1.14.26,1.85,1.85,0,0,1,.83.74Z" transform="translate(-641)"/>
    <path class="f" d="M905.18,167a1.42,1.42,0,0,0-.55-0.57,1.57,1.57,0,0,0-.83-0.22,2,2,0,0,0-.43,0,1.16,1.16,0,0,0-.38.16,0.85,0.85,0,0,0-.27.28,0.75,0.75,0,0,0-.1.4,0.68,0.68,0,0,0,.32.61,3.11,3.11,0,0,0,1,.35,3.41,3.41,0,0,1,1.47.59,1.29,1.29,0,0,1,.47,1,1.56,1.56,0,0,1-.67,1.35,2,2,0,0,1-.68.3,3.3,3.3,0,0,1-.76.09,3,3,0,0,1-1.24-.26,2.28,2.28,0,0,1-1-.83l0.65-.48a1.84,1.84,0,0,0,1.56.88,2.55,2.55,0,0,0,.5,0,1.16,1.16,0,0,0,.42-0.17,0.91,0.91,0,0,0,.29-0.31,0.9,0.9,0,0,0,.11-0.46,0.71,0.71,0,0,0-.43-0.67,5.66,5.66,0,0,0-1.23-.41l-0.53-.15a1.87,1.87,0,0,1-.52-0.26,1.43,1.43,0,0,1-.4-0.44,1.27,1.27,0,0,1-.16-0.66,1.51,1.51,0,0,1,.17-0.74,1.49,1.49,0,0,1,.45-0.5,2,2,0,0,1,.64-0.29,2.9,2.9,0,0,1,.74-0.1,2.61,2.61,0,0,1,1.14.26,1.84,1.84,0,0,1,.83.74Z" transform="translate(-641)"/>
    <path class="f" d="M911.44,170.53h4v0.77h-4.82v-8.5h0.86v7.73Z" transform="translate(-641)"/>
    <path class="f" d="M922,168.49a3.07,3.07,0,0,1-.22,1.18,2.85,2.85,0,0,1-.62.94,2.79,2.79,0,0,1-.95.62,3.38,3.38,0,0,1-2.41,0,2.79,2.79,0,0,1-.95-0.62,2.82,2.82,0,0,1-.62-0.94,3.22,3.22,0,0,1,0-2.35,2.77,2.77,0,0,1,1.57-1.55,3.39,3.39,0,0,1,2.41,0,2.81,2.81,0,0,1,.95.62,2.85,2.85,0,0,1,.62.94A3.07,3.07,0,0,1,922,168.49Zm-0.86,0a2.57,2.57,0,0,0-.15-0.88,2.18,2.18,0,0,0-.43-0.72,2,2,0,0,0-.67-0.49,2.12,2.12,0,0,0-.89-0.18,2.08,2.08,0,0,0-.88.18,2,2,0,0,0-.67.49,2.15,2.15,0,0,0-.43.72,2.66,2.66,0,0,0,0,1.76,2.14,2.14,0,0,0,.43.72,2,2,0,0,0,.67.48,2.14,2.14,0,0,0,.88.17,2.18,2.18,0,0,0,.89-0.17,2,2,0,0,0,.67-0.48,2.17,2.17,0,0,0,.43-0.72A2.58,2.58,0,0,0,921.14,168.49Z" transform="translate(-641)"/>
    <path class="f" d="M924.06,172.42a2.72,2.72,0,0,0,.92.73,2.84,2.84,0,0,0,2.25.13,1.78,1.78,0,0,0,.68-0.47,1.9,1.9,0,0,0,.38-0.7,3,3,0,0,0,.12-0.86v-1.06h0a2.14,2.14,0,0,1-.92.82,2.73,2.73,0,0,1-1.21.29,3.15,3.15,0,0,1-1.19-.22,2.7,2.7,0,0,1-.91-0.59,2.64,2.64,0,0,1-.59-0.91,3.06,3.06,0,0,1-.21-1.14,3,3,0,0,1,.21-1.13,2.85,2.85,0,0,1,.59-0.92,2.73,2.73,0,0,1,.91-0.62,3,3,0,0,1,1.19-.23,2.7,2.7,0,0,1,1.2.29,2.21,2.21,0,0,1,.92.83h0v-1h0.82v5.57a4.1,4.1,0,0,1-.13,1,2.45,2.45,0,0,1-.47.95,2.64,2.64,0,0,1-.93.72,3.47,3.47,0,0,1-1.52.29,3.77,3.77,0,0,1-1.49-.3,3.59,3.59,0,0,1-1.21-.83Zm0.16-4a2.42,2.42,0,0,0,.14.84,2.08,2.08,0,0,0,.41.7,1.91,1.91,0,0,0,.67.47,2.22,2.22,0,0,0,.9.17,2.35,2.35,0,0,0,.86-0.16,2,2,0,0,0,.68-0.44,2,2,0,0,0,.45-0.69,2.37,2.37,0,0,0,.16-0.89,2.19,2.19,0,0,0-1.3-2,2.06,2.06,0,0,0-.86-0.18,2.15,2.15,0,0,0-.9.18,2,2,0,0,0-.67.48,2.09,2.09,0,0,0-.41.7A2.42,2.42,0,0,0,924.22,168.41Z" transform="translate(-641)"/>
    <path class="f" d="M932.34,163.52a0.53,0.53,0,0,1-.18.41,0.57,0.57,0,0,1-.79,0,0.57,0.57,0,0,1,0-.83,0.56,0.56,0,0,1,.79,0A0.53,0.53,0,0,1,932.34,163.52Zm-0.17,7.78h-0.82v-5.62h0.82v5.62Z" transform="translate(-641)"/>
    <path class="f" d="M938.39,167a1.56,1.56,0,0,0-.59-0.53,1.76,1.76,0,0,0-.85-0.21,2.18,2.18,0,0,0-.89.17,2,2,0,0,0-.68.48,2.12,2.12,0,0,0-.43.72,2.62,2.62,0,0,0-.15.89,2.56,2.56,0,0,0,.15.89,2.19,2.19,0,0,0,.43.71,2,2,0,0,0,.67.48,2.18,2.18,0,0,0,.89.17,1.88,1.88,0,0,0,.91-0.2,1.85,1.85,0,0,0,.61-0.53l0.61,0.46a2.67,2.67,0,0,1-.88.71,2.75,2.75,0,0,1-1.25.26,3.28,3.28,0,0,1-1.24-.22,2.73,2.73,0,0,1-.94-0.62,2.8,2.8,0,0,1-.61-0.94,3.31,3.31,0,0,1,0-2.35,2.8,2.8,0,0,1,.61-0.94,2.74,2.74,0,0,1,.94-0.62,3.3,3.3,0,0,1,1.24-.22,2.92,2.92,0,0,1,1.15.25,2.25,2.25,0,0,1,.94.73Z" transform="translate(-641)"/>
  </g>
  <g>
    <path class="a" d="M878,239.2h-0.86v-7.73h-2.84V230.7h6.55v0.77H878v7.73Z" transform="translate(-641)"/>
    <path class="a" d="M881,234.23q0-.36,0-0.65h0.78c0,0.15,0,.32,0,0.5s0,0.34,0,.46h0a2,2,0,0,1,1.8-1.1h0.28l0.26,0-0.11.78-0.24,0-0.34,0a1.66,1.66,0,0,0-.62.12,1.33,1.33,0,0,0-.52.38,2,2,0,0,0-.36.66,3,3,0,0,0-.14,1v2.87H881v-4.38Q881,234.59,881,234.23Z" transform="translate(-641)"/>
    <path class="a" d="M888.72,235.56a1.41,1.41,0,0,0-.38-1.08,1.58,1.58,0,0,0-1.12-.36,2.41,2.41,0,0,0-.94.18,2.23,2.23,0,0,0-.73.48l-0.46-.54a2.69,2.69,0,0,1,.92-0.58,3.44,3.44,0,0,1,1.29-.23,2.8,2.8,0,0,1,.85.13,2,2,0,0,1,.7.38,1.72,1.72,0,0,1,.47.64,2.23,2.23,0,0,1,.17.9v2.46q0,0.32,0,.67a4.71,4.71,0,0,0,.07.59h-0.73c0-.14,0-0.28-0.06-0.44a4.66,4.66,0,0,1,0-.47h0a2.37,2.37,0,0,1-.87.81,2.56,2.56,0,0,1-1.17.25,2.63,2.63,0,0,1-.67-0.09,1.86,1.86,0,0,1-.62-0.29,1.66,1.66,0,0,1-.47-0.53,1.57,1.57,0,0,1-.19-0.79,1.52,1.52,0,0,1,.33-1A2,2,0,0,1,886,236a5.2,5.2,0,0,1,1.27-.24q0.71-.05,1.48-0.05v-0.18Zm-0.24.83c-0.34,0-.67,0-1,0a4.44,4.44,0,0,0-.92.17,1.74,1.74,0,0,0-.68.37,0.82,0.82,0,0,0-.26.64,1,1,0,0,0,.11.5,0.93,0.93,0,0,0,.31.33,1.31,1.31,0,0,0,.43.18,2.09,2.09,0,0,0,.47.05,1.86,1.86,0,0,0,.77-0.15,1.62,1.62,0,0,0,.56-0.41,1.8,1.8,0,0,0,.35-0.59,2.09,2.09,0,0,0,.12-0.71v-0.42h-0.24Z" transform="translate(-641)"/>
    <path class="a" d="M892.32,233.58c0,0.15,0,.32,0,0.5s0,0.34,0,.46h0a1.85,1.85,0,0,1,.78-0.8,2.28,2.28,0,0,1,1.14-.31,2,2,0,0,1,1.6.64,2.52,2.52,0,0,1,.53,1.68v3.44h-0.82v-3.11a4.08,4.08,0,0,0-.07-0.8,1.68,1.68,0,0,0-.25-0.62,1.18,1.18,0,0,0-.47-0.4,1.68,1.68,0,0,0-.74-0.14,1.57,1.57,0,0,0-.63.13,1.54,1.54,0,0,0-.55.4,2,2,0,0,0-.38.68,3,3,0,0,0-.14,1v2.88h-0.82v-4.38q0-.23,0-0.59t0-.65h0.78Z" transform="translate(-641)"/>
    <path class="a" d="M901.55,234.91a1.43,1.43,0,0,0-.55-0.57,1.58,1.58,0,0,0-.83-0.22,2,2,0,0,0-.43,0,1.17,1.17,0,0,0-.38.16,0.85,0.85,0,0,0-.27.28,0.75,0.75,0,0,0-.1.4,0.68,0.68,0,0,0,.32.61,3.09,3.09,0,0,0,1,.35,3.4,3.4,0,0,1,1.47.59,1.29,1.29,0,0,1,.47,1,1.55,1.55,0,0,1-.67,1.35,2,2,0,0,1-.68.3,3.3,3.3,0,0,1-.76.09,3,3,0,0,1-1.24-.26,2.29,2.29,0,0,1-1-.83l0.65-.48a1.84,1.84,0,0,0,1.56.88,2.55,2.55,0,0,0,.5,0,1.14,1.14,0,0,0,.42-0.17,0.86,0.86,0,0,0,.4-0.77A0.71,0.71,0,0,0,901,237a5.55,5.55,0,0,0-1.23-.41l-0.53-.15a1.82,1.82,0,0,1-.52-0.26,1.44,1.44,0,0,1-.4-0.44,1.28,1.28,0,0,1-.16-0.66,1.51,1.51,0,0,1,.17-0.74,1.47,1.47,0,0,1,.45-0.5,2,2,0,0,1,.64-0.29,2.86,2.86,0,0,1,.74-0.1,2.61,2.61,0,0,1,1.14.26,1.83,1.83,0,0,1,.83.74Z" transform="translate(-641)"/>
    <path class="a" d="M907.43,235.56a1.41,1.41,0,0,0-.38-1.08,1.58,1.58,0,0,0-1.12-.36,2.41,2.41,0,0,0-.94.18,2.23,2.23,0,0,0-.73.48l-0.46-.54a2.69,2.69,0,0,1,.92-0.58,3.44,3.44,0,0,1,1.29-.23,2.79,2.79,0,0,1,.85.13,2,2,0,0,1,.7.38,1.72,1.72,0,0,1,.47.64,2.22,2.22,0,0,1,.17.9v2.46q0,0.32,0,.67a4.82,4.82,0,0,0,.07.59h-0.73c0-.14,0-0.28-0.06-0.44s0-.32,0-0.47h0a2.36,2.36,0,0,1-.87.81,2.56,2.56,0,0,1-1.17.25,2.64,2.64,0,0,1-.67-0.09,1.87,1.87,0,0,1-.62-0.29,1.68,1.68,0,0,1-.47-0.53,1.58,1.58,0,0,1-.19-0.79,1.51,1.51,0,0,1,.33-1,2,2,0,0,1,.88-0.57,5.2,5.2,0,0,1,1.27-.24q0.71-.05,1.48-0.05v-0.18Zm-0.24.83c-0.34,0-.67,0-1,0a4.45,4.45,0,0,0-.92.17,1.75,1.75,0,0,0-.68.37,0.82,0.82,0,0,0-.26.64,1,1,0,0,0,.11.5,0.94,0.94,0,0,0,.31.33,1.3,1.3,0,0,0,.43.18,2.09,2.09,0,0,0,.47.05,1.86,1.86,0,0,0,.77-0.15,1.62,1.62,0,0,0,.56-0.41,1.8,1.8,0,0,0,.35-0.59,2.09,2.09,0,0,0,.12-0.71v-0.42h-0.24Z" transform="translate(-641)"/>
    <path class="a" d="M914.34,234.86a1.55,1.55,0,0,0-.59-0.53,1.76,1.76,0,0,0-.85-0.21,2.18,2.18,0,0,0-.89.17,2,2,0,0,0-.68.48,2.11,2.11,0,0,0-.43.72,2.62,2.62,0,0,0-.15.89,2.57,2.57,0,0,0,.15.89,2.2,2.2,0,0,0,.43.71,1.94,1.94,0,0,0,.67.48,2.18,2.18,0,0,0,.89.17,1.79,1.79,0,0,0,1.52-.73l0.61,0.46a2.68,2.68,0,0,1-.88.71,2.75,2.75,0,0,1-1.25.26,3.3,3.3,0,0,1-1.24-.22,2.74,2.74,0,0,1-.94-0.62,2.8,2.8,0,0,1-.61-0.94,3.31,3.31,0,0,1,0-2.35,2.79,2.79,0,0,1,.61-0.94,2.73,2.73,0,0,1,.94-0.62,3.28,3.28,0,0,1,1.24-.22,2.94,2.94,0,0,1,1.15.25,2.24,2.24,0,0,1,.94.73Z" transform="translate(-641)"/>
    <path class="a" d="M918.83,234.26h-1.58v3.28a1.86,1.86,0,0,0,.06.52,0.73,0.73,0,0,0,.17.32,0.6,0.6,0,0,0,.27.16,1.27,1.27,0,0,0,.34,0,1.45,1.45,0,0,0,.35,0,1.78,1.78,0,0,0,.35-0.13l0,0.71a2.32,2.32,0,0,1-.45.13,2.87,2.87,0,0,1-.51,0,2.07,2.07,0,0,1-.48-0.06,1.22,1.22,0,0,1-.47-0.23,1.25,1.25,0,0,1-.35-0.46,1.77,1.77,0,0,1-.14-0.76v-3.5h-1.16v-0.68h1.16V232h0.82v1.58h1.58v0.68Z" transform="translate(-641)"/>
    <path class="a" d="M921.1,231.42a0.53,0.53,0,0,1-.18.41,0.56,0.56,0,0,1-.79,0,0.57,0.57,0,0,1,0-.83,0.56,0.56,0,0,1,.79,0A0.53,0.53,0,0,1,921.1,231.42Zm-0.17,7.78h-0.82v-5.62h0.82v5.62Z" transform="translate(-641)"/>
    <path class="a" d="M928.68,236.39a3.06,3.06,0,0,1-.22,1.18,2.77,2.77,0,0,1-1.57,1.55,3.23,3.23,0,0,1-1.21.22,3.19,3.19,0,0,1-1.2-.22,2.81,2.81,0,0,1-.95-0.62,2.84,2.84,0,0,1-.62-0.94,3.23,3.23,0,0,1,0-2.35,2.83,2.83,0,0,1,.62-0.94,2.79,2.79,0,0,1,.95-0.62,3.17,3.17,0,0,1,1.2-.22,3.21,3.21,0,0,1,1.21.22,2.77,2.77,0,0,1,1.57,1.55A3.06,3.06,0,0,1,928.68,236.39Zm-0.86,0a2.56,2.56,0,0,0-.15-0.88,2.17,2.17,0,0,0-.43-0.72,2,2,0,0,0-.67-0.49,2.12,2.12,0,0,0-.89-0.18,2.09,2.09,0,0,0-.88.18,2,2,0,0,0-.67.49,2.18,2.18,0,0,0-.43.72,2.68,2.68,0,0,0,0,1.76,2.18,2.18,0,0,0,.43.72,2,2,0,0,0,.67.48,2.15,2.15,0,0,0,.88.17,2.18,2.18,0,0,0,.89-0.17,1.94,1.94,0,0,0,.67-0.48,2.17,2.17,0,0,0,.43-0.72A2.56,2.56,0,0,0,927.82,236.39Z" transform="translate(-641)"/>
    <path class="a" d="M931.17,233.58c0,0.15,0,.32,0,0.5s0,0.34,0,.46h0a1.85,1.85,0,0,1,.78-0.8,2.27,2.27,0,0,1,1.14-.31,2,2,0,0,1,1.6.64,2.52,2.52,0,0,1,.53,1.68v3.44h-0.82v-3.11a4.12,4.12,0,0,0-.07-0.8,1.68,1.68,0,0,0-.25-0.62,1.18,1.18,0,0,0-.47-0.4,1.68,1.68,0,0,0-.74-0.14,1.58,1.58,0,0,0-.63.13,1.54,1.54,0,0,0-.55.4,2,2,0,0,0-.38.68,3,3,0,0,0-.14,1v2.88h-0.82v-4.38c0-.15,0-0.35,0-0.59s0-.46,0-0.65h0.78Z" transform="translate(-641)"/>
    <path class="a" d="M940.39,234.91a1.43,1.43,0,0,0-.55-0.57,1.58,1.58,0,0,0-.83-0.22,2,2,0,0,0-.43,0,1.16,1.16,0,0,0-.38.16,0.86,0.86,0,0,0-.27.28,0.76,0.76,0,0,0-.1.4,0.68,0.68,0,0,0,.32.61,3.09,3.09,0,0,0,1,.35,3.4,3.4,0,0,1,1.47.59,1.29,1.29,0,0,1,.47,1,1.56,1.56,0,0,1-.67,1.35,2,2,0,0,1-.68.3,3.3,3.3,0,0,1-.76.09,3,3,0,0,1-1.24-.26,2.29,2.29,0,0,1-1-.83l0.65-.48a1.84,1.84,0,0,0,1.56.88,2.55,2.55,0,0,0,.5,0,1.14,1.14,0,0,0,.42-0.17,0.86,0.86,0,0,0,.4-0.77,0.71,0.71,0,0,0-.43-0.67,5.55,5.55,0,0,0-1.23-.41l-0.53-.15a1.81,1.81,0,0,1-.52-0.26,1.43,1.43,0,0,1-.4-0.44,1.28,1.28,0,0,1-.16-0.66,1.51,1.51,0,0,1,.17-0.74,1.47,1.47,0,0,1,.45-0.5,2,2,0,0,1,.64-0.29,2.86,2.86,0,0,1,.74-0.1,2.61,2.61,0,0,1,1.14.26,1.83,1.83,0,0,1,.83.74Z" transform="translate(-641)"/>
    <path class="a" d="M942.88,240.88h-0.68l0.8-2.82h0.85Z" transform="translate(-641)"/>
    <path class="a" d="M955.69,237.82a3.53,3.53,0,0,1-.52.61,3.42,3.42,0,0,1-.71.51,4,4,0,0,1-.89.35,4.19,4.19,0,0,1-1.06.13,4.62,4.62,0,0,1-1.78-.34,4.15,4.15,0,0,1-2.32-2.34,4.71,4.71,0,0,1-.33-1.79,4.66,4.66,0,0,1,.34-1.79,4.21,4.21,0,0,1,2.33-2.34,4.53,4.53,0,0,1,1.76-.34,4.39,4.39,0,0,1,1.76.37,3.59,3.59,0,0,1,.72.42,2.5,2.5,0,0,1,.54.56l-0.72.53a2.16,2.16,0,0,0-.35-0.41,2.44,2.44,0,0,0-.52-0.36,3.31,3.31,0,0,0-.65-0.25,2.93,2.93,0,0,0-.76-0.1,3.52,3.52,0,0,0-1.48.3,3.34,3.34,0,0,0-1.11.81,3.51,3.51,0,0,0-.7,1.18,4.15,4.15,0,0,0-.24,1.41,4.06,4.06,0,0,0,.25,1.41,3.58,3.58,0,0,0,.7,1.18,3.33,3.33,0,0,0,1.11.81,3.48,3.48,0,0,0,1.47.3,3.33,3.33,0,0,0,1.39-.3,2.63,2.63,0,0,0,1.1-1Z" transform="translate(-641)"/>
    <path class="a" d="M962.1,236.22v0.18a1.91,1.91,0,0,1,0,.2h-4.66a2.18,2.18,0,0,0,.17.79,2,2,0,0,0,.43.65,2.09,2.09,0,0,0,.65.44,2.14,2.14,0,0,0,1.9-.13,2.19,2.19,0,0,0,.7-0.68l0.61,0.48a3.05,3.05,0,0,1-1.11.91,3.11,3.11,0,0,1-1.3.28,3,3,0,0,1-1.16-.22,2.73,2.73,0,0,1-.92-0.62,2.92,2.92,0,0,1-.61-0.94,3.06,3.06,0,0,1-.22-1.18,3.13,3.13,0,0,1,.22-1.18,2.83,2.83,0,0,1,.6-0.94,2.75,2.75,0,0,1,.9-0.62,2.78,2.78,0,0,1,1.12-.22,2.86,2.86,0,0,1,1.16.22,2.4,2.4,0,0,1,.84.6,2.57,2.57,0,0,1,.51.88A3.31,3.31,0,0,1,962.1,236.22Zm-0.83-.26a2,2,0,0,0-.51-1.31,1.73,1.73,0,0,0-1.35-.52,1.88,1.88,0,0,0-.76.15,2,2,0,0,0-.61.41,2,2,0,0,0-.42.59,1.9,1.9,0,0,0-.18.69h3.83Z" transform="translate(-641)"/>
    <path class="a" d="M963.84,234.23c0-.24,0-0.46,0-0.65h0.78c0,0.15,0,.32,0,0.5s0,0.34,0,.46h0a2,2,0,0,1,1.8-1.1h0.28l0.26,0-0.11.78-0.24,0-0.34,0a1.67,1.67,0,0,0-.62.12,1.32,1.32,0,0,0-.52.38,2,2,0,0,0-.36.66,3,3,0,0,0-.14,1v2.87h-0.82v-4.38Q963.85,234.59,963.84,234.23Z" transform="translate(-641)"/>
    <path class="a" d="M970.56,234.26H969v3.28a1.86,1.86,0,0,0,.06.52,0.73,0.73,0,0,0,.17.32,0.59,0.59,0,0,0,.27.16,1.27,1.27,0,0,0,.34,0,1.46,1.46,0,0,0,.35,0,1.79,1.79,0,0,0,.35-0.13l0,0.71a2.33,2.33,0,0,1-.45.13,2.86,2.86,0,0,1-.51,0,2.07,2.07,0,0,1-.48-0.06,1.23,1.23,0,0,1-.47-0.23,1.26,1.26,0,0,1-.35-0.46,1.75,1.75,0,0,1-.14-0.76v-3.5H967v-0.68h1.16V232H969v1.58h1.58v0.68Z" transform="translate(-641)"/>
    <path class="a" d="M972.83,231.42a0.53,0.53,0,0,1-.18.41,0.56,0.56,0,0,1-.79,0,0.56,0.56,0,0,1,0-.83,0.56,0.56,0,0,1,.79,0A0.53,0.53,0,0,1,972.83,231.42Zm-0.17,7.78h-0.82v-5.62h0.82v5.62Z" transform="translate(-641)"/>
    <path class="a" d="M977.21,234.26h-1.32v4.93h-0.82v-4.93H973.9v-0.68h1.18V232a2.27,2.27,0,0,1,.47-1.51A1.78,1.78,0,0,1,977,230l0.34,0a1.69,1.69,0,0,1,.34.07l-0.14.72-0.26-.06-0.3,0a1.17,1.17,0,0,0-.53.11,0.78,0.78,0,0,0-.32.31,1.32,1.32,0,0,0-.16.46,3.55,3.55,0,0,0,0,.56v1.44h1.32v0.68Zm2.15-2.84a0.53,0.53,0,0,1-.18.41,0.56,0.56,0,0,1-.79,0,0.57,0.57,0,0,1,0-.83,0.56,0.56,0,0,1,.79,0A0.53,0.53,0,0,1,979.36,231.42Zm-0.18,7.78h-0.82v-5.62h0.82v5.62Z" transform="translate(-641)"/>
    <path class="a" d="M985.41,234.86a1.55,1.55,0,0,0-.59-0.53,1.76,1.76,0,0,0-.85-0.21,2.18,2.18,0,0,0-.89.17,2,2,0,0,0-.68.48,2.11,2.11,0,0,0-.43.72,2.62,2.62,0,0,0-.15.89,2.57,2.57,0,0,0,.15.89,2.2,2.2,0,0,0,.43.71,1.94,1.94,0,0,0,.67.48,2.18,2.18,0,0,0,.89.17,1.79,1.79,0,0,0,1.52-.73l0.61,0.46a2.68,2.68,0,0,1-.88.71,2.75,2.75,0,0,1-1.25.26,3.3,3.3,0,0,1-1.24-.22,2.74,2.74,0,0,1-.94-0.62,2.8,2.8,0,0,1-.61-0.94,3.31,3.31,0,0,1,0-2.35,2.79,2.79,0,0,1,.61-0.94,2.73,2.73,0,0,1,.94-0.62,3.28,3.28,0,0,1,1.24-.22,2.94,2.94,0,0,1,1.15.25,2.24,2.24,0,0,1,.94.73Z" transform="translate(-641)"/>
    <path class="a" d="M990.9,235.56a1.41,1.41,0,0,0-.38-1.08,1.58,1.58,0,0,0-1.12-.36,2.41,2.41,0,0,0-.94.18,2.23,2.23,0,0,0-.73.48l-0.46-.54a2.69,2.69,0,0,1,.92-0.58,3.44,3.44,0,0,1,1.29-.23,2.79,2.79,0,0,1,.85.13,2,2,0,0,1,.7.38,1.72,1.72,0,0,1,.47.64,2.22,2.22,0,0,1,.17.9v2.46q0,0.32,0,.67a4.82,4.82,0,0,0,.07.59H991c0-.14,0-0.28-0.06-0.44s0-.32,0-0.47h0a2.36,2.36,0,0,1-.87.81,2.56,2.56,0,0,1-1.17.25,2.64,2.64,0,0,1-.67-0.09,1.87,1.87,0,0,1-.62-0.29,1.68,1.68,0,0,1-.47-0.53,1.58,1.58,0,0,1-.19-0.79,1.51,1.51,0,0,1,.33-1,2,2,0,0,1,.88-0.57,5.2,5.2,0,0,1,1.27-.24q0.71-.05,1.48-0.05v-0.18Zm-0.24.83c-0.34,0-.67,0-1,0a4.45,4.45,0,0,0-.92.17,1.75,1.75,0,0,0-.68.37,0.82,0.82,0,0,0-.26.64,1,1,0,0,0,.11.5,0.94,0.94,0,0,0,.31.33,1.3,1.3,0,0,0,.43.18,2.09,2.09,0,0,0,.47.05,1.86,1.86,0,0,0,.77-0.15,1.62,1.62,0,0,0,.56-0.41,1.8,1.8,0,0,0,.35-0.59,2.09,2.09,0,0,0,.12-0.71v-0.42h-0.24Z" transform="translate(-641)"/>
    <path class="a" d="M996.18,234.26H994.6v3.28a1.86,1.86,0,0,0,.06.52,0.73,0.73,0,0,0,.17.32,0.6,0.6,0,0,0,.27.16,1.27,1.27,0,0,0,.34,0,1.45,1.45,0,0,0,.35,0,1.78,1.78,0,0,0,.35-0.13l0,0.71a2.32,2.32,0,0,1-.45.13,2.87,2.87,0,0,1-.51,0,2.07,2.07,0,0,1-.48-0.06,1.22,1.22,0,0,1-.47-0.23,1.25,1.25,0,0,1-.35-0.46,1.77,1.77,0,0,1-.14-0.76v-3.5h-1.16v-0.68h1.16V232h0.82v1.58h1.58v0.68Z" transform="translate(-641)"/>
    <path class="a" d="M1002.56,236.22v0.18a1.91,1.91,0,0,1,0,.2H997.9a2.2,2.2,0,0,0,.17.79,2,2,0,0,0,.43.65,2.07,2.07,0,0,0,.65.44,2.14,2.14,0,0,0,1.9-.13,2.2,2.2,0,0,0,.7-0.68l0.61,0.48a3.06,3.06,0,0,1-1.11.91,3.11,3.11,0,0,1-1.3.28,3,3,0,0,1-1.16-.22,2.72,2.72,0,0,1-.92-0.62,2.92,2.92,0,0,1-.61-0.94,3.08,3.08,0,0,1-.22-1.18,3.15,3.15,0,0,1,.22-1.18,2.85,2.85,0,0,1,.6-0.94,2.77,2.77,0,0,1,2-.84,2.86,2.86,0,0,1,1.16.22,2.4,2.4,0,0,1,.84.6,2.59,2.59,0,0,1,.51.88A3.28,3.28,0,0,1,1002.56,236.22Zm-0.83-.26a2,2,0,0,0-.51-1.31,1.73,1.73,0,0,0-1.35-.52,1.88,1.88,0,0,0-.76.15,2,2,0,0,0-.61.41,2,2,0,0,0-.42.59,1.88,1.88,0,0,0-.18.69h3.83Z" transform="translate(-641)"/>
    <path class="a" d="M1007.3,234.91a1.43,1.43,0,0,0-.55-0.57,1.58,1.58,0,0,0-.83-0.22,2,2,0,0,0-.43,0,1.16,1.16,0,0,0-.38.16,0.86,0.86,0,0,0-.27.28,0.76,0.76,0,0,0-.1.4,0.68,0.68,0,0,0,.32.61,3.09,3.09,0,0,0,1,.35,3.4,3.4,0,0,1,1.47.59,1.29,1.29,0,0,1,.47,1,1.56,1.56,0,0,1-.67,1.35,2,2,0,0,1-.68.3,3.3,3.3,0,0,1-.76.09,3,3,0,0,1-1.24-.26,2.29,2.29,0,0,1-1-.83l0.65-.48a1.84,1.84,0,0,0,1.56.88,2.55,2.55,0,0,0,.5,0,1.14,1.14,0,0,0,.42-0.17,0.86,0.86,0,0,0,.4-0.77,0.71,0.71,0,0,0-.43-0.67,5.55,5.55,0,0,0-1.23-.41l-0.53-.15a1.81,1.81,0,0,1-.52-0.26,1.43,1.43,0,0,1-.4-0.44,1.28,1.28,0,0,1-.16-0.66,1.51,1.51,0,0,1,.17-0.74,1.47,1.47,0,0,1,.45-0.5,2,2,0,0,1,.64-0.29,2.86,2.86,0,0,1,.74-0.1,2.61,2.61,0,0,1,1.14.26,1.83,1.83,0,0,1,.83.74Z" transform="translate(-641)"/>
    <path class="a" d="M1009.79,240.88h-0.68l0.8-2.82h0.85Z" transform="translate(-641)"/>
    <path class="a" d="M1022.6,237.82a3.53,3.53,0,0,1-.52.61,3.37,3.37,0,0,1-.71.51,3.94,3.94,0,0,1-.89.35,4.18,4.18,0,0,1-1.06.13,4.63,4.63,0,0,1-1.78-.34,4.21,4.21,0,0,1-1.4-.93,4.26,4.26,0,0,1-.92-1.41,4.73,4.73,0,0,1-.33-1.79,4.66,4.66,0,0,1,.34-1.79,4.22,4.22,0,0,1,2.33-2.34,4.53,4.53,0,0,1,1.76-.34,4.39,4.39,0,0,1,1.76.37,3.61,3.61,0,0,1,.72.42,2.48,2.48,0,0,1,.54.56l-0.72.53a2.13,2.13,0,0,0-.35-0.41,2.41,2.41,0,0,0-.52-0.36,3.32,3.32,0,0,0-.65-0.25,2.93,2.93,0,0,0-.76-0.1,3.53,3.53,0,0,0-1.48.3,3.34,3.34,0,0,0-1.11.81,3.51,3.51,0,0,0-.7,1.18,4.15,4.15,0,0,0-.24,1.41,4.06,4.06,0,0,0,.25,1.41,3.61,3.61,0,0,0,.7,1.18,3.32,3.32,0,0,0,1.11.81,3.48,3.48,0,0,0,1.47.3,3.32,3.32,0,0,0,1.39-.3,2.63,2.63,0,0,0,1.1-1Z" transform="translate(-641)"/>
    <path class="a" d="M1029.48,236.39a3.08,3.08,0,0,1-.22,1.18,2.84,2.84,0,0,1-.62.94,2.81,2.81,0,0,1-.95.62,3.39,3.39,0,0,1-2.41,0,2.77,2.77,0,0,1-1.57-1.55,3.22,3.22,0,0,1,0-2.35,2.77,2.77,0,0,1,1.57-1.55,3.39,3.39,0,0,1,2.41,0,2.79,2.79,0,0,1,.95.62,2.83,2.83,0,0,1,.62.94A3.07,3.07,0,0,1,1029.48,236.39Zm-0.86,0a2.58,2.58,0,0,0-.15-0.88,2.18,2.18,0,0,0-.43-0.72,2,2,0,0,0-.67-0.49,2.12,2.12,0,0,0-.89-0.18,2.08,2.08,0,0,0-.88.18,2,2,0,0,0-.67.49,2.15,2.15,0,0,0-.43.72,2.66,2.66,0,0,0,0,1.76,2.15,2.15,0,0,0,.43.72,2,2,0,0,0,.67.48,2.14,2.14,0,0,0,.88.17,2.18,2.18,0,0,0,.89-0.17A1.94,1.94,0,0,0,1028,238a2.18,2.18,0,0,0,.43-0.72A2.58,2.58,0,0,0,1028.62,236.39Z" transform="translate(-641)"/>
    <path class="a" d="M1032,233.58c0,0.15,0,.32,0,0.5s0,0.34,0,.46h0a1.85,1.85,0,0,1,.78-0.8,2.28,2.28,0,0,1,1.14-.31,2,2,0,0,1,1.6.64,2.53,2.53,0,0,1,.53,1.68v3.44h-0.82v-3.11a4,4,0,0,0-.07-0.8,1.69,1.69,0,0,0-.25-0.62,1.18,1.18,0,0,0-.47-0.4,1.67,1.67,0,0,0-.74-0.14,1.57,1.57,0,0,0-.63.13,1.54,1.54,0,0,0-.55.4,2,2,0,0,0-.38.68,3,3,0,0,0-.14,1v2.88h-0.82v-4.38q0-.23,0-0.59c0-.24,0-0.46,0-0.65H1032Z" transform="translate(-641)"/>
    <path class="a" d="M1040.74,234.26h-1.58v3.28a1.86,1.86,0,0,0,.06.52,0.73,0.73,0,0,0,.17.32,0.6,0.6,0,0,0,.27.16,1.27,1.27,0,0,0,.34,0,1.45,1.45,0,0,0,.35,0,1.78,1.78,0,0,0,.35-0.13l0,0.71a2.33,2.33,0,0,1-.45.13,2.86,2.86,0,0,1-.51,0,2.07,2.07,0,0,1-.48-0.06,1.22,1.22,0,0,1-.47-0.23,1.25,1.25,0,0,1-.35-0.46,1.77,1.77,0,0,1-.14-0.76v-3.5h-1.16v-0.68h1.16V232h0.82v1.58h1.58v0.68Z" transform="translate(-641)"/>
    <path class="a" d="M1042,234.23q0-.36,0-0.65h0.78c0,0.15,0,.32,0,0.5s0,0.34,0,.46h0a2,2,0,0,1,1.8-1.1h0.28l0.26,0-0.11.78-0.24,0-0.34,0a1.67,1.67,0,0,0-.62.12,1.33,1.33,0,0,0-.52.38,2,2,0,0,0-.36.66,3,3,0,0,0-.14,1v2.87H1042v-4.38Q1042,234.59,1042,234.23Z" transform="translate(-641)"/>
    <path class="a" d="M1049.72,235.56a1.41,1.41,0,0,0-.38-1.08,1.58,1.58,0,0,0-1.12-.36,2.41,2.41,0,0,0-.94.18,2.25,2.25,0,0,0-.73.48l-0.46-.54a2.69,2.69,0,0,1,.92-0.58,3.44,3.44,0,0,1,1.29-.23,2.79,2.79,0,0,1,.85.13,2,2,0,0,1,.7.38,1.71,1.71,0,0,1,.47.64,2.22,2.22,0,0,1,.17.9v2.46q0,0.32,0,.67a4.62,4.62,0,0,0,.07.59h-0.73c0-.14,0-0.28-0.06-0.44a4.52,4.52,0,0,1,0-.47h0a2.37,2.37,0,0,1-.87.81,2.57,2.57,0,0,1-1.17.25,2.62,2.62,0,0,1-.67-0.09,1.85,1.85,0,0,1-.62-0.29,1.67,1.67,0,0,1-.47-0.53,1.58,1.58,0,0,1-.19-0.79,1.51,1.51,0,0,1,.33-1A2,2,0,0,1,1047,236a5.2,5.2,0,0,1,1.27-.24q0.71-.05,1.48-0.05v-0.18Zm-0.24.83c-0.34,0-.67,0-1,0a4.43,4.43,0,0,0-.92.17,1.74,1.74,0,0,0-.68.37,0.82,0.82,0,0,0-.26.64,1,1,0,0,0,.11.5,0.92,0.92,0,0,0,.31.33,1.31,1.31,0,0,0,.43.18,2.1,2.1,0,0,0,.47.05,1.85,1.85,0,0,0,.77-0.15,1.63,1.63,0,0,0,.56-0.41,1.81,1.81,0,0,0,.35-0.59,2.09,2.09,0,0,0,.12-0.71v-0.42h-0.24Z" transform="translate(-641)"/>
    <path class="a" d="M1056.64,234.86a1.55,1.55,0,0,0-.59-0.53,1.76,1.76,0,0,0-.85-0.21,2.18,2.18,0,0,0-.89.17,2,2,0,0,0-.68.48,2.11,2.11,0,0,0-.43.72,2.62,2.62,0,0,0-.15.89,2.57,2.57,0,0,0,.15.89,2.18,2.18,0,0,0,.43.71,1.92,1.92,0,0,0,.67.48,2.18,2.18,0,0,0,.89.17,1.79,1.79,0,0,0,1.52-.73l0.61,0.46a2.66,2.66,0,0,1-.88.71,2.75,2.75,0,0,1-1.25.26,3.3,3.3,0,0,1-1.24-.22,2.75,2.75,0,0,1-.94-0.62,2.81,2.81,0,0,1-.61-0.94,3.31,3.31,0,0,1,0-2.35,2.8,2.8,0,0,1,.61-0.94,2.74,2.74,0,0,1,.94-0.62,3.28,3.28,0,0,1,1.24-.22,3,3,0,0,1,1.15.25,2.24,2.24,0,0,1,.94.73Z" transform="translate(-641)"/>
    <path class="a" d="M1061.13,234.26h-1.58v3.28a1.86,1.86,0,0,0,.06.52,0.73,0.73,0,0,0,.17.32,0.6,0.6,0,0,0,.27.16,1.27,1.27,0,0,0,.34,0,1.45,1.45,0,0,0,.35,0,1.78,1.78,0,0,0,.35-0.13l0,0.71a2.33,2.33,0,0,1-.45.13,2.86,2.86,0,0,1-.51,0,2.07,2.07,0,0,1-.48-0.06,1.22,1.22,0,0,1-.47-0.23,1.25,1.25,0,0,1-.35-0.46,1.77,1.77,0,0,1-.14-0.76v-3.5h-1.16v-0.68h1.16V232h0.82v1.58h1.58v0.68Z" transform="translate(-641)"/>
    <path class="a" d="M1065.38,234.91a1.44,1.44,0,0,0-.55-0.57,1.58,1.58,0,0,0-.83-0.22,2,2,0,0,0-.43,0,1.18,1.18,0,0,0-.38.16,0.86,0.86,0,0,0-.27.28,0.76,0.76,0,0,0-.1.4,0.68,0.68,0,0,0,.32.61,3.09,3.09,0,0,0,1,.35,3.41,3.41,0,0,1,1.47.59,1.29,1.29,0,0,1,.47,1,1.56,1.56,0,0,1-.67,1.35,2,2,0,0,1-.68.3,3.31,3.31,0,0,1-.76.09,3,3,0,0,1-1.24-.26,2.29,2.29,0,0,1-1-.83l0.65-.48a1.84,1.84,0,0,0,1.56.88,2.55,2.55,0,0,0,.5,0,1.14,1.14,0,0,0,.42-0.17,0.86,0.86,0,0,0,.4-0.77,0.71,0.71,0,0,0-.43-0.67,5.52,5.52,0,0,0-1.23-.41l-0.53-.15a1.8,1.8,0,0,1-.52-0.26,1.43,1.43,0,0,1-.4-0.44,1.28,1.28,0,0,1-.16-0.66,1.51,1.51,0,0,1,.17-0.74,1.48,1.48,0,0,1,.45-0.5,2,2,0,0,1,.64-0.29,2.85,2.85,0,0,1,.74-0.1,2.62,2.62,0,0,1,1.14.26,1.84,1.84,0,0,1,.83.74Z" transform="translate(-641)"/>
    <path class="a" d="M1076,237.23l1.91,2h-1.2l-1.2-1.26a3.67,3.67,0,0,1-1.14,1.06,3,3,0,0,1-1.48.34,3.32,3.32,0,0,1-1-.16,2.56,2.56,0,0,1-.85-0.45,2.1,2.1,0,0,1-.57-0.73,2.4,2.4,0,0,1,.35-2.57,3.08,3.08,0,0,1,.62-0.55,4.86,4.86,0,0,1,.78-0.42,5.53,5.53,0,0,1-.38-0.42,3.75,3.75,0,0,1-.33-0.47,2.65,2.65,0,0,1-.23-0.52,1.79,1.79,0,0,1-.09-0.56,2,2,0,0,1,.17-0.85,1.85,1.85,0,0,1,.46-0.63,1.93,1.93,0,0,1,.67-0.39,2.49,2.49,0,0,1,.82-0.13,2.45,2.45,0,0,1,.79.13,1.92,1.92,0,0,1,.65.37,1.76,1.76,0,0,1,.44.6,1.94,1.94,0,0,1,.16.81,1.73,1.73,0,0,1-.16.76,2.2,2.2,0,0,1-.43.61,3.35,3.35,0,0,1-.61.48q-0.34.21-.7,0.39l2,2,1.18-2.06h1Zm-3.31-2.21a3.22,3.22,0,0,0-1.16.82,1.75,1.75,0,0,0-.4,1.16,1.55,1.55,0,0,0,.14.66,1.46,1.46,0,0,0,.38.51,1.85,1.85,0,0,0,.57.33,2,2,0,0,0,.68.12,2,2,0,0,0,1.16-.31,3.25,3.25,0,0,0,.87-0.94Zm1.81-2.63a1.15,1.15,0,0,0-.34-0.86,1.17,1.17,0,0,0-.86-0.34,1.27,1.27,0,0,0-.92.35,1.37,1.37,0,0,0-.26,1.43,2.42,2.42,0,0,0,.24.46,3.53,3.53,0,0,0,.31.4,2.58,2.58,0,0,0,.28.28,6.3,6.3,0,0,0,.56-0.29,2.9,2.9,0,0,0,.5-0.37,1.69,1.69,0,0,0,.36-0.47A1.26,1.26,0,0,0,1074.49,232.39Z" transform="translate(-641)"/>
    <path class="a" d="M1083.08,239.2h-0.86v-8.5h2.5a5.28,5.28,0,0,1,1.16.12,2.62,2.62,0,0,1,.92.39,1.83,1.83,0,0,1,.61.7,2.34,2.34,0,0,1,.22,1.06,2.08,2.08,0,0,1-.62,1.52,2.2,2.2,0,0,1-.68.45,3,3,0,0,1-.86.22l2.48,4h-1.06l-2.35-4h-1.44v4Zm0-4.72h1.5a2.87,2.87,0,0,0,1.61-.38,1.27,1.27,0,0,0,.56-1.13,1.47,1.47,0,0,0-.16-0.71,1.28,1.28,0,0,0-.43-0.47,2,2,0,0,0-.67-0.26,4.26,4.26,0,0,0-.88-0.08h-1.54v3Z" transform="translate(-641)"/>
    <path class="a" d="M1094.33,236.22v0.18a1.92,1.92,0,0,1,0,.2h-4.66a2.18,2.18,0,0,0,.17.79,2,2,0,0,0,.43.65,2.08,2.08,0,0,0,.65.44,2.14,2.14,0,0,0,1.9-.13,2.2,2.2,0,0,0,.7-0.68l0.61,0.48a3.05,3.05,0,0,1-1.11.91,3.11,3.11,0,0,1-1.3.28,3,3,0,0,1-1.16-.22,2.72,2.72,0,0,1-.92-0.62,2.94,2.94,0,0,1-.61-0.94,3.08,3.08,0,0,1-.22-1.18,3.15,3.15,0,0,1,.22-1.18,2.83,2.83,0,0,1,.6-0.94,2.75,2.75,0,0,1,.9-0.62,2.78,2.78,0,0,1,1.12-.22,2.86,2.86,0,0,1,1.16.22,2.4,2.4,0,0,1,.84.6,2.57,2.57,0,0,1,.51.88A3.28,3.28,0,0,1,1094.33,236.22Zm-0.83-.26a2,2,0,0,0-.51-1.31,1.73,1.73,0,0,0-1.35-.52,1.88,1.88,0,0,0-.76.15,2,2,0,0,0-.61.41,2.06,2.06,0,0,0-.42.59,1.9,1.9,0,0,0-.18.69h3.83Z" transform="translate(-641)"/>
    <path class="a" d="M1100.12,234.86a1.55,1.55,0,0,0-.59-0.53,1.76,1.76,0,0,0-.85-0.21,2.18,2.18,0,0,0-.89.17,2,2,0,0,0-.68.48,2.11,2.11,0,0,0-.43.72,2.62,2.62,0,0,0-.15.89,2.57,2.57,0,0,0,.15.89,2.18,2.18,0,0,0,.43.71,1.92,1.92,0,0,0,.67.48,2.18,2.18,0,0,0,.89.17,1.79,1.79,0,0,0,1.52-.73l0.61,0.46a2.66,2.66,0,0,1-.88.71,2.75,2.75,0,0,1-1.25.26,3.3,3.3,0,0,1-1.24-.22,2.75,2.75,0,0,1-.94-0.62,2.81,2.81,0,0,1-.61-0.94,3.31,3.31,0,0,1,0-2.35,2.8,2.8,0,0,1,.61-0.94,2.74,2.74,0,0,1,.94-0.62,3.28,3.28,0,0,1,1.24-.22,3,3,0,0,1,1.15.25,2.24,2.24,0,0,1,.94.73Z" transform="translate(-641)"/>
    <path class="a" d="M1107.19,236.22v0.18a1.92,1.92,0,0,1,0,.2h-4.66a2.18,2.18,0,0,0,.17.79,2,2,0,0,0,.43.65,2.08,2.08,0,0,0,.65.44,2.14,2.14,0,0,0,1.9-.13,2.2,2.2,0,0,0,.7-0.68l0.61,0.48a3.05,3.05,0,0,1-1.11.91,3.11,3.11,0,0,1-1.3.28,3,3,0,0,1-1.16-.22,2.72,2.72,0,0,1-.92-0.62,2.94,2.94,0,0,1-.61-0.94,3.08,3.08,0,0,1-.22-1.18,3.15,3.15,0,0,1,.22-1.18,2.83,2.83,0,0,1,.6-0.94,2.75,2.75,0,0,1,.9-0.62,2.78,2.78,0,0,1,1.12-.22,2.86,2.86,0,0,1,1.16.22,2.4,2.4,0,0,1,.84.6,2.57,2.57,0,0,1,.51.88A3.28,3.28,0,0,1,1107.19,236.22Zm-0.83-.26a2,2,0,0,0-.51-1.31,1.73,1.73,0,0,0-1.35-.52,1.88,1.88,0,0,0-.76.15,2,2,0,0,0-.61.41,2.06,2.06,0,0,0-.42.59,1.9,1.9,0,0,0-.18.69h3.83Z" transform="translate(-641)"/>
    <path class="a" d="M1109.94,231.42a0.54,0.54,0,0,1-.18.41,0.57,0.57,0,0,1-.79,0,0.57,0.57,0,0,1,0-.83,0.57,0.57,0,0,1,.79,0A0.54,0.54,0,0,1,1109.94,231.42Zm-0.17,7.78H1109v-5.62h0.82v5.62Z" transform="translate(-641)"/>
    <path class="a" d="M1112.76,242.08h-0.82v-8.5h0.82v1h0a2.24,2.24,0,0,1,.93-0.83,2.69,2.69,0,0,1,1.18-.28,3,3,0,0,1,1.19.23,2.74,2.74,0,0,1,.91.62,2.83,2.83,0,0,1,.59.94,3.33,3.33,0,0,1,0,2.33,2.83,2.83,0,0,1-.59.94,2.74,2.74,0,0,1-.91.62,3,3,0,0,1-1.19.23,2.68,2.68,0,0,1-1.18-.28,2.28,2.28,0,0,1-.93-0.81h0v3.83Zm4.19-5.69a2.68,2.68,0,0,0-.14-0.88,2.16,2.16,0,0,0-.41-0.72,2,2,0,0,0-.67-0.49,2.15,2.15,0,0,0-.9-0.18,2.13,2.13,0,0,0-.86.17,2.07,2.07,0,0,0-.68.48,2.21,2.21,0,0,0-.45.72,2.55,2.55,0,0,0,0,1.79,2.16,2.16,0,0,0,.45.71,2.1,2.1,0,0,0,.68.47,2.13,2.13,0,0,0,.86.17,2.22,2.22,0,0,0,.9-0.17,1.88,1.88,0,0,0,.67-0.48,2.16,2.16,0,0,0,.41-0.72A2.68,2.68,0,0,0,1116.95,236.39Z" transform="translate(-641)"/>
    <path class="a" d="M1122.1,234.26h-1.58v3.28a1.86,1.86,0,0,0,.06.52,0.73,0.73,0,0,0,.17.32,0.6,0.6,0,0,0,.27.16,1.27,1.27,0,0,0,.34,0,1.45,1.45,0,0,0,.35,0,1.78,1.78,0,0,0,.35-0.13l0,0.71a2.33,2.33,0,0,1-.45.13,2.86,2.86,0,0,1-.51,0,2.07,2.07,0,0,1-.48-0.06,1.22,1.22,0,0,1-.47-0.23,1.25,1.25,0,0,1-.35-0.46,1.77,1.77,0,0,1-.14-0.76v-3.5h-1.16v-0.68h1.16V232h0.82v1.58h1.58v0.68Z" transform="translate(-641)"/>
    <path class="a" d="M1126.36,234.91a1.44,1.44,0,0,0-.55-0.57,1.58,1.58,0,0,0-.83-0.22,2,2,0,0,0-.43,0,1.18,1.18,0,0,0-.38.16,0.86,0.86,0,0,0-.27.28,0.76,0.76,0,0,0-.1.4,0.68,0.68,0,0,0,.32.61,3.09,3.09,0,0,0,1,.35,3.41,3.41,0,0,1,1.47.59,1.29,1.29,0,0,1,.47,1,1.56,1.56,0,0,1-.67,1.35,2,2,0,0,1-.68.3,3.31,3.31,0,0,1-.76.09,3,3,0,0,1-1.24-.26,2.29,2.29,0,0,1-1-.83l0.65-.48a1.84,1.84,0,0,0,1.56.88,2.55,2.55,0,0,0,.5,0,1.14,1.14,0,0,0,.42-0.17,0.86,0.86,0,0,0,.4-0.77,0.71,0.71,0,0,0-.43-0.67,5.52,5.52,0,0,0-1.23-.41l-0.53-.15a1.8,1.8,0,0,1-.52-0.26,1.43,1.43,0,0,1-.4-0.44,1.28,1.28,0,0,1-.16-0.66,1.51,1.51,0,0,1,.17-0.74,1.48,1.48,0,0,1,.45-0.5,2,2,0,0,1,.64-0.29,2.85,2.85,0,0,1,.74-0.1,2.62,2.62,0,0,1,1.14.26,1.84,1.84,0,0,1,.83.74Z" transform="translate(-641)"/>
  </g>
  <g>
    <path class="a" d="M874,207.84h4.7a8.41,8.41,0,0,1,2.65.44,7.35,7.35,0,0,1,2.4,1.33,6.75,6.75,0,0,1,1.73,2.22,7.58,7.58,0,0,1,0,6.19,6.77,6.77,0,0,1-1.73,2.21,7.31,7.31,0,0,1-2.4,1.33,8.41,8.41,0,0,1-2.65.44H874V207.84Zm1.44,12.88h2.86a7.19,7.19,0,0,0,2.79-.5,5.83,5.83,0,0,0,2-1.31,5.34,5.34,0,0,0,1.17-1.85,6.07,6.07,0,0,0,0-4.28,5.36,5.36,0,0,0-1.17-1.85,5.83,5.83,0,0,0-2-1.31,7.17,7.17,0,0,0-2.79-.5h-2.86v11.6Z" transform="translate(-641)"/>
    <path class="a" d="M897.63,217v0.3a3.1,3.1,0,0,1,0,.34h-7.76a3.65,3.65,0,0,0,.28,1.32,3.32,3.32,0,0,0,.72,1.08,3.48,3.48,0,0,0,1.08.73,3.58,3.58,0,0,0,3.17-.22,3.66,3.66,0,0,0,1.17-1.13l1,0.8a5.06,5.06,0,0,1-1.85,1.52,5.18,5.18,0,0,1-2.17.46,5,5,0,0,1-1.93-.37,4.54,4.54,0,0,1-1.53-1,4.86,4.86,0,0,1-1-1.56,5.09,5.09,0,0,1-.37-2,5.24,5.24,0,0,1,.36-2,4.75,4.75,0,0,1,1-1.56,4.62,4.62,0,0,1,1.5-1,4.66,4.66,0,0,1,1.86-.37,4.78,4.78,0,0,1,1.94.37,4,4,0,0,1,1.4,1,4.3,4.3,0,0,1,.85,1.47A5.48,5.48,0,0,1,897.63,217Zm-1.38-.44a3.37,3.37,0,0,0-.85-2.19,2.88,2.88,0,0,0-2.25-.87,3.14,3.14,0,0,0-1.26.25,3.33,3.33,0,0,0-1,.68,3.38,3.38,0,0,0-.7,1,3.15,3.15,0,0,0-.3,1.15h6.38Z" transform="translate(-641)"/>
    <path class="a" d="M907.29,214.78a2.58,2.58,0,0,0-1-.89,2.91,2.91,0,0,0-1.41-.35,3.64,3.64,0,0,0-1.48.29,3.36,3.36,0,0,0-1.13.8,3.53,3.53,0,0,0-.72,1.2,4.34,4.34,0,0,0-.25,1.49,4.25,4.25,0,0,0,.25,1.48,3.6,3.6,0,0,0,.71,1.19,3.24,3.24,0,0,0,1.12.8,3.64,3.64,0,0,0,1.48.29,3,3,0,0,0,2.54-1.22l1,0.76A4.46,4.46,0,0,1,907,221.8a4.58,4.58,0,0,1-2.09.44,5.47,5.47,0,0,1-2.06-.37,4.57,4.57,0,0,1-1.57-1,4.66,4.66,0,0,1-1-1.56,5.52,5.52,0,0,1,0-3.92,4.67,4.67,0,0,1,1-1.56,4.57,4.57,0,0,1,1.57-1,5.49,5.49,0,0,1,2.06-.37,4.88,4.88,0,0,1,1.91.41,3.74,3.74,0,0,1,1.57,1.21Z" transform="translate(-641)"/>
    <path class="a" d="M919.07,217v0.3a3,3,0,0,1,0,.34h-7.76a3.65,3.65,0,0,0,.28,1.32,3.32,3.32,0,0,0,.72,1.08,3.49,3.49,0,0,0,1.08.73,3.58,3.58,0,0,0,3.17-.22,3.65,3.65,0,0,0,1.17-1.13l1,0.8a5.06,5.06,0,0,1-1.85,1.52,5.17,5.17,0,0,1-2.17.46,5,5,0,0,1-1.93-.37,4.53,4.53,0,0,1-1.53-1,4.86,4.86,0,0,1-1-1.56,5.09,5.09,0,0,1-.37-2,5.23,5.23,0,0,1,.36-2,4.75,4.75,0,0,1,1-1.56,4.62,4.62,0,0,1,1.5-1,4.66,4.66,0,0,1,1.86-.37,4.78,4.78,0,0,1,1.94.37,4,4,0,0,1,1.4,1,4.3,4.3,0,0,1,.85,1.47A5.48,5.48,0,0,1,919.07,217Zm-1.38-.44a3.37,3.37,0,0,0-.85-2.19,2.88,2.88,0,0,0-2.25-.87,3.14,3.14,0,0,0-1.26.25,3.38,3.38,0,0,0-1.72,1.66,3.14,3.14,0,0,0-.3,1.15h6.38Z" transform="translate(-641)"/>
    <path class="a" d="M923.21,212.64q0,0.38.06,0.84t0,0.76h0a3.08,3.08,0,0,1,1.3-1.33,3.8,3.8,0,0,1,1.9-.51,3.29,3.29,0,0,1,2.67,1.06,4.21,4.21,0,0,1,.89,2.8V222h-1.36v-5.18a6.84,6.84,0,0,0-.12-1.34,2.8,2.8,0,0,0-.41-1,2,2,0,0,0-.78-0.67,2.8,2.8,0,0,0-1.23-.24,2.63,2.63,0,0,0-1,.22,2.57,2.57,0,0,0-.91.67,3.34,3.34,0,0,0-.64,1.14,5,5,0,0,0-.24,1.63V222H922v-7.3c0-.25,0-0.58,0-1s0-.76-0.06-1.08h1.3Z" transform="translate(-641)"/>
    <path class="a" d="M937.83,213.78h-2.64v5.46a3.07,3.07,0,0,0,.1.86,1.21,1.21,0,0,0,.29.53,1,1,0,0,0,.45.26,2.13,2.13,0,0,0,.56.07,2.35,2.35,0,0,0,.59-0.08,3,3,0,0,0,.59-0.22l0.06,1.18a4,4,0,0,1-.75.21,4.81,4.81,0,0,1-.85.07,3.47,3.47,0,0,1-.8-0.1,2,2,0,0,1-.78-0.38,2.09,2.09,0,0,1-.59-0.76,2.93,2.93,0,0,1-.23-1.26v-5.84h-1.94v-1.14h1.94V210h1.36v2.64h2.64v1.14Z" transform="translate(-641)"/>
    <path class="a" d="M939.93,213.72q0-.6-0.06-1.08h1.3q0,0.38.06,0.84t0,0.76h0a3.24,3.24,0,0,1,1.2-1.33,3.28,3.28,0,0,1,1.8-.51l0.47,0a2.59,2.59,0,0,1,.43.08L945,213.8a2.6,2.6,0,0,0-.4-0.08,3.85,3.85,0,0,0-.56,0,2.76,2.76,0,0,0-1,.2,2.23,2.23,0,0,0-.87.63,3.29,3.29,0,0,0-.6,1.1,4.93,4.93,0,0,0-.23,1.61V222h-1.36v-7.3C939.95,214.45,939.94,214.12,939.93,213.72Z" transform="translate(-641)"/>
    <path class="a" d="M952.81,215.94a2.36,2.36,0,0,0-.64-1.81,2.63,2.63,0,0,0-1.86-.6,4,4,0,0,0-1.56.3,3.72,3.72,0,0,0-1.22.8l-0.76-.9a4.49,4.49,0,0,1,1.53-1,5.77,5.77,0,0,1,2.15-.38,4.7,4.7,0,0,1,1.42.21,3.37,3.37,0,0,1,1.16.63,2.85,2.85,0,0,1,.78,1.06,3.72,3.72,0,0,1,.28,1.5v4.1c0,0.36,0,.73,0,1.12a7.74,7.74,0,0,0,.12,1H953c0-.23-0.07-0.47-0.1-0.74a7.62,7.62,0,0,1,0-.78h0a3.94,3.94,0,0,1-1.45,1.35,4.27,4.27,0,0,1-2,.41,4.37,4.37,0,0,1-1.11-.15,3.08,3.08,0,0,1-1-.49,2.77,2.77,0,0,1-.78-0.88,2.63,2.63,0,0,1-.31-1.32,2.52,2.52,0,0,1,.55-1.72,3.3,3.3,0,0,1,1.47-.94,8.62,8.62,0,0,1,2.11-.4q1.19-.09,2.47-0.09v-0.3Zm-0.4,1.38q-0.84,0-1.69.07a7.34,7.34,0,0,0-1.54.28,2.93,2.93,0,0,0-1.13.61,1.37,1.37,0,0,0-.44,1.06,1.7,1.7,0,0,0,.19.84,1.55,1.55,0,0,0,.51.55,2.15,2.15,0,0,0,.71.3,3.47,3.47,0,0,0,.79.09,3.11,3.11,0,0,0,1.28-.25,2.71,2.71,0,0,0,.94-0.68,3,3,0,0,0,.58-1,3.47,3.47,0,0,0,.2-1.18v-0.7h-0.4Z" transform="translate(-641)"/>
    <path class="a" d="M959,222h-1.36V206.88H959V222Z" transform="translate(-641)"/>
    <path class="a" d="M964.29,209a0.89,0.89,0,0,1-.3.69,0.94,0.94,0,0,1-1.32,0,0.94,0.94,0,0,1,0-1.38,0.94,0.94,0,0,1,1.32,0A0.89,0.89,0,0,1,964.29,209ZM964,222h-1.36v-9.36H964V222Z" transform="translate(-641)"/>
    <path class="a" d="M973.85,213.6l-5.6,7.22H974V222h-7.6v-1l5.58-7.26h-5.3v-1.14h7.12v1Z" transform="translate(-641)"/>
    <path class="a" d="M985,217v0.3a3,3,0,0,1,0,.34h-7.76a3.65,3.65,0,0,0,.28,1.32,3.32,3.32,0,0,0,.72,1.08,3.49,3.49,0,0,0,1.08.73,3.58,3.58,0,0,0,3.17-.22,3.65,3.65,0,0,0,1.17-1.13l1,0.8a5.06,5.06,0,0,1-1.85,1.52,5.17,5.17,0,0,1-2.17.46,5,5,0,0,1-1.93-.37,4.53,4.53,0,0,1-1.53-1,4.86,4.86,0,0,1-1-1.56,5.09,5.09,0,0,1-.37-2,5.23,5.23,0,0,1,.36-2,4.75,4.75,0,0,1,1-1.56,4.62,4.62,0,0,1,1.5-1,4.66,4.66,0,0,1,1.86-.37,4.78,4.78,0,0,1,1.94.37,4,4,0,0,1,1.4,1,4.3,4.3,0,0,1,.85,1.47A5.48,5.48,0,0,1,985,217Zm-1.38-.44a3.37,3.37,0,0,0-.85-2.19,2.88,2.88,0,0,0-2.25-.87,3.14,3.14,0,0,0-1.26.25,3.38,3.38,0,0,0-1.72,1.66,3.14,3.14,0,0,0-.3,1.15h6.38Z" transform="translate(-641)"/>
    <path class="a" d="M995.61,220.42a3.83,3.83,0,0,1-1.56,1.36,4.53,4.53,0,0,1-2,.46,5,5,0,0,1-2-.38,4.51,4.51,0,0,1-1.52-1,4.7,4.7,0,0,1-1-1.56,5.56,5.56,0,0,1,0-3.88,4.67,4.67,0,0,1,1-1.56,4.53,4.53,0,0,1,1.52-1,5,5,0,0,1,2-.38,4.45,4.45,0,0,1,2,.47,3.87,3.87,0,0,1,1.56,1.39h0v-7.38H997V222h-1.36v-1.58h0Zm-6.94-3.1a4.44,4.44,0,0,0,.24,1.47,3.55,3.55,0,0,0,.69,1.2,3.15,3.15,0,0,0,1.11.8,3.7,3.7,0,0,0,1.5.29,3.51,3.51,0,0,0,3.33-2.27,4.24,4.24,0,0,0,0-3,3.69,3.69,0,0,0-.75-1.2,3.47,3.47,0,0,0-1.14-.8,3.54,3.54,0,0,0-1.44-.29,3.6,3.6,0,0,0-1.5.3,3.26,3.26,0,0,0-1.11.81,3.55,3.55,0,0,0-.69,1.2A4.45,4.45,0,0,0,988.67,217.32Z" transform="translate(-641)"/>
    <path class="a" d="M1005.72,207.84h4.7a8.41,8.41,0,0,1,2.65.44,7.34,7.34,0,0,1,2.4,1.33,6.75,6.75,0,0,1,1.73,2.22,7.58,7.58,0,0,1,0,6.19,6.77,6.77,0,0,1-1.73,2.21,7.31,7.31,0,0,1-2.4,1.33,8.41,8.41,0,0,1-2.65.44h-4.7V207.84Zm1.44,12.88H1010a7.19,7.19,0,0,0,2.79-.5,5.84,5.84,0,0,0,2-1.31,5.35,5.35,0,0,0,1.17-1.85,6.07,6.07,0,0,0,0-4.28,5.37,5.37,0,0,0-1.17-1.85,5.84,5.84,0,0,0-2-1.31,7.17,7.17,0,0,0-2.79-.5h-2.86v11.6Z" transform="translate(-641)"/>
    <path class="a" d="M1026.68,215.94a2.36,2.36,0,0,0-.64-1.81,2.63,2.63,0,0,0-1.86-.6,4,4,0,0,0-1.56.3,3.72,3.72,0,0,0-1.22.8l-0.76-.9a4.49,4.49,0,0,1,1.53-1,5.77,5.77,0,0,1,2.15-.38,4.7,4.7,0,0,1,1.42.21,3.37,3.37,0,0,1,1.16.63,2.85,2.85,0,0,1,.78,1.06,3.72,3.72,0,0,1,.28,1.5v4.1c0,0.36,0,.73,0,1.12a7.74,7.74,0,0,0,.12,1h-1.22c0-.23-0.07-0.47-0.1-0.74a7.62,7.62,0,0,1,0-.78h0a3.94,3.94,0,0,1-1.45,1.35,4.27,4.27,0,0,1-2,.41,4.37,4.37,0,0,1-1.11-.15,3.08,3.08,0,0,1-1-.49,2.77,2.77,0,0,1-.78-0.88,2.63,2.63,0,0,1-.31-1.32,2.52,2.52,0,0,1,.55-1.72,3.3,3.3,0,0,1,1.47-.94,8.62,8.62,0,0,1,2.11-.4q1.19-.09,2.47-0.09v-0.3Zm-0.4,1.38q-0.84,0-1.69.07a7.34,7.34,0,0,0-1.54.28,2.93,2.93,0,0,0-1.13.61,1.37,1.37,0,0,0-.44,1.06,1.7,1.7,0,0,0,.19.84,1.55,1.55,0,0,0,.51.55,2.15,2.15,0,0,0,.71.3,3.47,3.47,0,0,0,.79.09,3.11,3.11,0,0,0,1.28-.25,2.71,2.71,0,0,0,.94-0.68,3,3,0,0,0,.58-1,3.47,3.47,0,0,0,.2-1.18v-0.7h-0.4Z" transform="translate(-641)"/>
    <path class="a" d="M1035.48,213.78h-2.64v5.46a3.11,3.11,0,0,0,.1.86,1.21,1.21,0,0,0,.29.53,1,1,0,0,0,.45.26,2.14,2.14,0,0,0,.56.07,2.35,2.35,0,0,0,.59-0.08,3,3,0,0,0,.59-0.22l0.06,1.18a4,4,0,0,1-.75.21,4.79,4.79,0,0,1-.85.07,3.46,3.46,0,0,1-.8-0.1,2,2,0,0,1-.78-0.38,2.08,2.08,0,0,1-.59-0.76,2.93,2.93,0,0,1-.23-1.26v-5.84h-1.94v-1.14h1.94V210h1.36v2.64h2.64v1.14Z" transform="translate(-641)"/>
    <path class="a" d="M1043.5,215.94a2.35,2.35,0,0,0-.64-1.81,2.63,2.63,0,0,0-1.86-.6,4,4,0,0,0-1.56.3,3.73,3.73,0,0,0-1.22.8l-0.76-.9a4.49,4.49,0,0,1,1.53-1,5.77,5.77,0,0,1,2.15-.38,4.7,4.7,0,0,1,1.42.21,3.37,3.37,0,0,1,1.16.63,2.86,2.86,0,0,1,.78,1.06,3.72,3.72,0,0,1,.28,1.5v4.1q0,0.54,0,1.12a8.11,8.11,0,0,0,.12,1h-1.22c0-.23-0.07-0.47-0.1-0.74a7.62,7.62,0,0,1,0-.78h0a3.94,3.94,0,0,1-1.45,1.35,4.28,4.28,0,0,1-2,.41,4.37,4.37,0,0,1-1.11-.15,3.07,3.07,0,0,1-1-.49,2.76,2.76,0,0,1-.78-0.88,2.63,2.63,0,0,1-.31-1.32,2.52,2.52,0,0,1,.55-1.72,3.3,3.3,0,0,1,1.47-.94,8.62,8.62,0,0,1,2.11-.4q1.19-.09,2.47-0.09v-0.3Zm-0.4,1.38q-0.84,0-1.69.07a7.34,7.34,0,0,0-1.54.28,2.93,2.93,0,0,0-1.13.61,1.37,1.37,0,0,0-.44,1.06,1.7,1.7,0,0,0,.19.84,1.55,1.55,0,0,0,.51.55,2.15,2.15,0,0,0,.71.3,3.47,3.47,0,0,0,.79.09,3.11,3.11,0,0,0,1.28-.25,2.71,2.71,0,0,0,.94-0.68,3,3,0,0,0,.58-1,3.5,3.5,0,0,0,.2-1.18v-0.7h-0.4Z" transform="translate(-641)"/>
    <path class="a" d="M1049.68,220.42V222h-1.36V206.88h1.36v7.38h0a3.86,3.86,0,0,1,1.56-1.39,4.45,4.45,0,0,1,2-.47,5,5,0,0,1,2,.38,4.54,4.54,0,0,1,1.52,1,4.68,4.68,0,0,1,1,1.56,5.54,5.54,0,0,1,0,3.88,4.71,4.71,0,0,1-1,1.56,4.52,4.52,0,0,1-1.52,1,5,5,0,0,1-2,.38,4.54,4.54,0,0,1-2-.46,3.83,3.83,0,0,1-1.56-1.36h0Zm7-3.1a4.47,4.47,0,0,0-.24-1.47,3.57,3.57,0,0,0-.69-1.2,3.25,3.25,0,0,0-1.11-.81,3.6,3.6,0,0,0-1.5-.3,3.54,3.54,0,0,0-1.44.29,3.46,3.46,0,0,0-1.14.8,3.73,3.73,0,0,0-.75,1.2,4.25,4.25,0,0,0,0,3,3.61,3.61,0,0,0,.75,1.19,3.53,3.53,0,0,0,2.58,1.08,3.69,3.69,0,0,0,1.5-.29,3.14,3.14,0,0,0,1.11-.8,3.56,3.56,0,0,0,.69-1.2A4.46,4.46,0,0,0,1056.66,217.32Z" transform="translate(-641)"/>
    <path class="a" d="M1066.92,215.94a2.35,2.35,0,0,0-.64-1.81,2.63,2.63,0,0,0-1.86-.6,4,4,0,0,0-1.56.3,3.73,3.73,0,0,0-1.22.8l-0.76-.9a4.49,4.49,0,0,1,1.53-1,5.77,5.77,0,0,1,2.15-.38,4.7,4.7,0,0,1,1.42.21,3.37,3.37,0,0,1,1.16.63,2.86,2.86,0,0,1,.78,1.06,3.72,3.72,0,0,1,.28,1.5v4.1q0,0.54,0,1.12a8.11,8.11,0,0,0,.12,1h-1.22c0-.23-0.07-0.47-0.1-0.74a7.62,7.62,0,0,1,0-.78h0a3.94,3.94,0,0,1-1.45,1.35,4.28,4.28,0,0,1-2,.41,4.37,4.37,0,0,1-1.11-.15,3.07,3.07,0,0,1-1-.49,2.76,2.76,0,0,1-.78-0.88,2.63,2.63,0,0,1-.31-1.32,2.52,2.52,0,0,1,.55-1.72,3.3,3.3,0,0,1,1.47-.94,8.62,8.62,0,0,1,2.11-.4q1.19-.09,2.47-0.09v-0.3Zm-0.4,1.38q-0.84,0-1.69.07a7.34,7.34,0,0,0-1.54.28,2.93,2.93,0,0,0-1.13.61,1.37,1.37,0,0,0-.44,1.06,1.7,1.7,0,0,0,.19.84,1.55,1.55,0,0,0,.51.55,2.15,2.15,0,0,0,.71.3,3.47,3.47,0,0,0,.79.09,3.11,3.11,0,0,0,1.28-.25,2.71,2.71,0,0,0,.94-0.68,3,3,0,0,0,.58-1,3.5,3.5,0,0,0,.2-1.18v-0.7h-0.4Z" transform="translate(-641)"/>
    <path class="a" d="M1076.68,214.86a2.39,2.39,0,0,0-.91-0.95,2.63,2.63,0,0,0-1.39-.37,3.29,3.29,0,0,0-.72.08,2,2,0,0,0-.64.26,1.42,1.42,0,0,0-.45.46,1.25,1.25,0,0,0-.17.66,1.13,1.13,0,0,0,.54,1,5.17,5.17,0,0,0,1.7.59,5.68,5.68,0,0,1,2.45,1,2.15,2.15,0,0,1,.79,1.75,2.59,2.59,0,0,1-1.12,2.25,3.27,3.27,0,0,1-1.13.5,5.5,5.5,0,0,1-1.27.15,5.05,5.05,0,0,1-2.06-.44,3.81,3.81,0,0,1-1.64-1.38l1.08-.8a3.06,3.06,0,0,0,2.6,1.46,4.33,4.33,0,0,0,.84-0.08,1.93,1.93,0,0,0,.7-0.28,1.54,1.54,0,0,0,.48-0.51,1.51,1.51,0,0,0,.18-0.77,1.19,1.19,0,0,0-.71-1.11,9.27,9.27,0,0,0-2-.69q-0.42-.1-0.89-0.25A3.07,3.07,0,0,1,1072,217a2.39,2.39,0,0,1-.66-0.73,2.13,2.13,0,0,1-.26-1.1,2.51,2.51,0,0,1,.28-1.23,2.45,2.45,0,0,1,.75-0.84,3.34,3.34,0,0,1,1.07-.49,4.76,4.76,0,0,1,1.24-.16,4.36,4.36,0,0,1,1.9.44,3.07,3.07,0,0,1,1.38,1.24Z" transform="translate(-641)"/>
    <path class="a" d="M1089.1,217v0.3a3,3,0,0,1,0,.34h-7.76a3.63,3.63,0,0,0,.28,1.32,3.32,3.32,0,0,0,.72,1.08,3.49,3.49,0,0,0,1.08.73,3.58,3.58,0,0,0,3.17-.22,3.66,3.66,0,0,0,1.17-1.13l1,0.8a5.07,5.07,0,0,1-1.85,1.52,5.17,5.17,0,0,1-2.17.46,5,5,0,0,1-1.93-.37,4.53,4.53,0,0,1-1.53-1,4.86,4.86,0,0,1-1-1.56,5.09,5.09,0,0,1-.37-2,5.23,5.23,0,0,1,.36-2,4.72,4.72,0,0,1,1-1.56,4.59,4.59,0,0,1,1.5-1,4.66,4.66,0,0,1,1.86-.37,4.79,4.79,0,0,1,1.94.37,4,4,0,0,1,1.4,1,4.3,4.3,0,0,1,.85,1.47A5.5,5.5,0,0,1,1089.1,217Zm-1.38-.44a3.38,3.38,0,0,0-.85-2.19,2.88,2.88,0,0,0-2.25-.87,3.14,3.14,0,0,0-1.26.25,3.37,3.37,0,0,0-1.72,1.66,3.16,3.16,0,0,0-.3,1.15h6.38Z" transform="translate(-641)"/>
  </g>
  <line class="d" x1="196.33" y1="194.33" x2="196.33" y2="300"/>
  <g>
    <path class="g" d="M1040,259h3.37a3.89,3.89,0,0,1,3,1.08,4.22,4.22,0,0,1,1,3v7.42a4.43,4.43,0,0,1-1.08,3.29,4.26,4.26,0,0,1-3.11,1.06H1040V259Zm2.27,13.73h1a1.69,1.69,0,0,0,1.36-.48,2.32,2.32,0,0,0,.4-1.5v-7.65a2.4,2.4,0,0,0-.38-1.45,1.62,1.62,0,0,0-1.38-.51h-1v11.59Z" transform="translate(-641)"/>
    <path class="g" d="M1049.52,259h3.32a4.66,4.66,0,0,1,1.86.33,3.52,3.52,0,0,1,1.26.89,3.34,3.34,0,0,1,.7,1.28,5.34,5.34,0,0,1,.21,1.5v0.58a5.06,5.06,0,0,1-.1,1.09,2.63,2.63,0,0,1-.3.78,2.51,2.51,0,0,1-.49.59,4.28,4.28,0,0,1-.67.48,2.46,2.46,0,0,1,1.18,1.13,4.44,4.44,0,0,1,.38,2v0.89a4.61,4.61,0,0,1-1,3.21,4.19,4.19,0,0,1-3.24,1.11h-3.1V259Zm2.27,6.51h1a1.74,1.74,0,0,0,1.53-.57,2.93,2.93,0,0,0,.39-1.66,2.51,2.51,0,0,0-.43-1.61,1.94,1.94,0,0,0-1.57-.54h-0.94v4.37Zm0,7.09h1a2.4,2.4,0,0,0,1.08-.2,1.39,1.39,0,0,0,.59-0.56,2.1,2.1,0,0,0,.25-0.85q0-.49,0-1.07a7.14,7.14,0,0,0-.07-1,1.72,1.72,0,0,0-.28-0.75,1.31,1.31,0,0,0-.59-0.46,2.69,2.69,0,0,0-1-.16h-1v5.08Z" transform="translate(-641)"/>
    <g>
      <rect class="a" x="313.56" y="259.06" width="3.41" height="23.82"/>
      <path class="a" d="M970.71,260.31a5.71,5.71,0,0,0-1.84-1.09,5.94,5.94,0,0,0-4.12,0,5.7,5.7,0,0,0-1.84,1.09,5.31,5.31,0,0,0-1.32,1.82,6.09,6.09,0,0,0-.5,2.54v12.58a6.06,6.06,0,0,0,.5,2.56,5.34,5.34,0,0,0,1.32,1.81,5.69,5.69,0,0,0,1.84,1.09,5.94,5.94,0,0,0,4.12,0,5.7,5.7,0,0,0,1.84-1.09,5.34,5.34,0,0,0,1.32-1.81,6.06,6.06,0,0,0,.5-2.56v-7.49h-6.12v3h2.71v4.48a2.27,2.27,0,0,1-.69,1.82,2.54,2.54,0,0,1-3.25,0,2.27,2.27,0,0,1-.69-1.82V264.68a2.27,2.27,0,0,1,.69-1.82,2.54,2.54,0,0,1,3.25,0,2.27,2.27,0,0,1,.69,1.82v1.2h3.41v-1.2a6.09,6.09,0,0,0-.5-2.54A5.31,5.31,0,0,0,970.71,260.31Z" transform="translate(-641)"/>
      <path class="a" d="M984.81,260.45a5.21,5.21,0,0,0-1.74-1.17,5.6,5.6,0,0,0-2.17-.42,5.91,5.91,0,0,0-2.26.42,5.3,5.3,0,0,0-1.76,1.15,5.12,5.12,0,0,0-1.14,1.74,5.8,5.8,0,0,0-.4,2.17v13.12a6.21,6.21,0,0,0,.52,2.71,5,5,0,0,0,1.32,1.72,4.79,4.79,0,0,0,1.81.92,7.65,7.65,0,0,0,2,.27,5,5,0,0,0,2.12-.45,5.72,5.72,0,0,0,1.72-1.2,5.54,5.54,0,0,0,1.15-1.76,5.43,5.43,0,0,0,.42-2.11v-1.47H983v1.17a3,3,0,0,1-.2,1.17,1.94,1.94,0,0,1-.52.74,2,2,0,0,1-.7.38,2.47,2.47,0,0,1-.72.12,1.78,1.78,0,0,1-1.62-.7,3.15,3.15,0,0,1-.45-1.74V265a4.21,4.21,0,0,1,.42-2,1.73,1.73,0,0,1,1.69-.79,1.84,1.84,0,0,1,1.54.74,2.76,2.76,0,0,1,.57,1.74v1.14h3.41v-1.34a6.17,6.17,0,0,0-.42-2.29A5.41,5.41,0,0,0,984.81,260.45Z" transform="translate(-641)"/>
      <path class="a" d="M1007.2,259.06l-5.32,23.82h3.41l1-5.12h4.65l1,5.12h3.41L1010,259.06h-2.84Zm-0.3,15.49,1.67-8.63h0.07l1.67,8.63h-3.41Z" transform="translate(-641)"/>
      <rect class="a" x="376.13" y="259.06" width="3.41" height="23.82"/>
      <polygon class="a" points="391.22 259.06 391.22 273.41 391.16 273.41 386 259.06 382.72 259.06 382.72 282.88 386.14 282.88 386.14 268.56 386.2 268.56 391.42 282.88 394.64 282.88 394.64 259.06 391.22 259.06"/>
      <g>
        <polygon class="a" points="355.79 259.06 355.79 269.19 354.39 269.19 354.39 272.1 355.79 272.1 355.79 282.88 359.2 282.88 359.2 259.06 355.79 259.06"/>
        <polygon class="a" points="351.57 259.06 348.16 259.06 348.16 282.88 351.57 282.88 351.57 272.1 353.13 272.1 353.13 269.19 351.57 269.19 351.57 259.06"/>
      </g>
      <path class="a" d="M950.65,268.76a3.93,3.93,0,0,0,.45-1.17,7.6,7.6,0,0,0,.15-1.64v-0.87a8,8,0,0,0-.32-2.26,5,5,0,0,0-1.05-1.92,5.28,5.28,0,0,0-1.89-1.34,7,7,0,0,0-2.79-.5h-5v23.82h4.65q3.35,0,4.87-1.67a6.92,6.92,0,0,0,1.52-4.82v-1.34a6.66,6.66,0,0,0-.57-3,3.69,3.69,0,0,0-1.77-1.69,6.41,6.41,0,0,0,1-.72A3.76,3.76,0,0,0,950.65,268.76Zm-4,3.31a2,2,0,0,1,.89.69,2.59,2.59,0,0,1,.42,1.12,10.75,10.75,0,0,1,.1,1.57q0,0.87-.07,1.61a3.15,3.15,0,0,1-.37,1.27,2.08,2.08,0,0,1-.89.84,3.6,3.6,0,0,1-1.62.3h-1.47v-7.63h0.94v-3h-0.94v-6.56H945a2.9,2.9,0,0,1,2.36.8,3.76,3.76,0,0,1,.65,2.41,4.4,4.4,0,0,1-.59,2.49,2.17,2.17,0,0,1-1.62.81v3.09A3.12,3.12,0,0,1,946.63,272.07Z" transform="translate(-641)"/>
    </g>
  </g>
  <g>
    <path class="e" d="M794.58,141.46H799a7.92,7.92,0,0,1,2.5.42,6.91,6.91,0,0,1,2.27,1.26,6.37,6.37,0,0,1,1.63,2.1,7.17,7.17,0,0,1,0,5.84,6.39,6.39,0,0,1-1.63,2.09,6.91,6.91,0,0,1-2.27,1.26,7.93,7.93,0,0,1-2.5.42h-4.44V141.46Zm1.36,12.16h2.7a6.78,6.78,0,0,0,2.63-.47,5.49,5.49,0,0,0,1.86-1.24,5,5,0,0,0,1.11-1.75,5.74,5.74,0,0,0,0-4,5,5,0,0,0-1.11-1.75,5.49,5.49,0,0,0-1.86-1.24,6.77,6.77,0,0,0-2.63-.47h-2.7v11Z" transform="translate(-641)"/>
    <path class="e" d="M816.84,150.15v0.28a3.13,3.13,0,0,1,0,.32H809.5a3.42,3.42,0,0,0,.26,1.25,3.15,3.15,0,0,0,.68,1,3.3,3.3,0,0,0,1,.69,3.38,3.38,0,0,0,3-.21,3.46,3.46,0,0,0,1.11-1.07l1,0.75a4.79,4.79,0,0,1-1.75,1.44,4.89,4.89,0,0,1-2.05.43,4.69,4.69,0,0,1-1.82-.35,4.27,4.27,0,0,1-1.45-1,4.6,4.6,0,0,1-1-1.47,4.83,4.83,0,0,1-.35-1.85,4.94,4.94,0,0,1,.34-1.85,4.45,4.45,0,0,1,.95-1.47,4.34,4.34,0,0,1,1.42-1,4.4,4.4,0,0,1,1.76-.35,4.5,4.5,0,0,1,1.83.35,3.76,3.76,0,0,1,1.32.94,4,4,0,0,1,.8,1.39A5.15,5.15,0,0,1,816.84,150.15Zm-1.3-.42a3.18,3.18,0,0,0-.8-2.07,2.73,2.73,0,0,0-2.12-.82,3,3,0,0,0-1.19.24,3.18,3.18,0,0,0-1.62,1.57,3,3,0,0,0-.29,1.09h6Z" transform="translate(-641)"/>
    <path class="e" d="M826,148a2.44,2.44,0,0,0-.94-0.84,2.76,2.76,0,0,0-1.33-.33,3.44,3.44,0,0,0-1.4.27,3.17,3.17,0,0,0-1.07.76,3.35,3.35,0,0,0-.68,1.13,4.13,4.13,0,0,0-.24,1.41,4,4,0,0,0,.24,1.4,3.41,3.41,0,0,0,.67,1.12,3,3,0,0,0,1.06.76,3.44,3.44,0,0,0,1.4.27,2.81,2.81,0,0,0,2.4-1.15l1,0.72a4.2,4.2,0,0,1-1.39,1.11,4.33,4.33,0,0,1-2,.42,5.16,5.16,0,0,1-1.95-.35,4.27,4.27,0,0,1-1.48-1,4.39,4.39,0,0,1-1-1.47,5.21,5.21,0,0,1,0-3.7,4.39,4.39,0,0,1,1-1.47,4.29,4.29,0,0,1,1.48-1,5.17,5.17,0,0,1,1.95-.35,4.61,4.61,0,0,1,1.8.39A3.53,3.53,0,0,1,827,147.3Z" transform="translate(-641)"/>
    <path class="e" d="M837.09,150.15v0.28a3.13,3.13,0,0,1,0,.32h-7.33A3.42,3.42,0,0,0,830,152a3.15,3.15,0,0,0,.68,1,3.3,3.3,0,0,0,1,.69,3.38,3.38,0,0,0,3-.21,3.46,3.46,0,0,0,1.11-1.07l1,0.75a4.79,4.79,0,0,1-1.75,1.44,4.89,4.89,0,0,1-2.05.43,4.69,4.69,0,0,1-1.82-.35,4.27,4.27,0,0,1-1.45-1,4.6,4.6,0,0,1-1-1.47,4.83,4.83,0,0,1-.35-1.85,4.94,4.94,0,0,1,.34-1.85,4.45,4.45,0,0,1,.95-1.47,4.34,4.34,0,0,1,1.42-1,4.4,4.4,0,0,1,1.76-.35,4.5,4.5,0,0,1,1.83.35,3.76,3.76,0,0,1,1.32.94,4,4,0,0,1,.8,1.39A5.15,5.15,0,0,1,837.09,150.15Zm-1.3-.42a3.18,3.18,0,0,0-.8-2.07,2.73,2.73,0,0,0-2.12-.82,3,3,0,0,0-1.19.24,3.18,3.18,0,0,0-1.62,1.57,3,3,0,0,0-.29,1.09h6Z" transform="translate(-641)"/>
    <path class="e" d="M841,146c0,0.24,0,.5.06,0.79s0,0.53,0,.72h0a2.91,2.91,0,0,1,1.23-1.26,3.6,3.6,0,0,1,1.79-.48,3.11,3.11,0,0,1,2.52,1,4,4,0,0,1,.84,2.64v5.42h-1.28v-4.89a6.57,6.57,0,0,0-.11-1.27,2.67,2.67,0,0,0-.39-1,1.86,1.86,0,0,0-.74-0.63,2.63,2.63,0,0,0-1.16-.23,2.49,2.49,0,0,0-1,.21,2.45,2.45,0,0,0-.86.63,3.15,3.15,0,0,0-.6,1.08,4.66,4.66,0,0,0-.23,1.54v4.53h-1.29v-6.89c0-.24,0-0.55,0-0.93s0-.72-0.06-1H841Z" transform="translate(-641)"/>
    <path class="e" d="M854.8,147.07h-2.49v5.16a3,3,0,0,0,.09.81,1.13,1.13,0,0,0,.28.5,0.92,0.92,0,0,0,.42.25,2,2,0,0,0,.53.07,2.21,2.21,0,0,0,.56-0.08,2.72,2.72,0,0,0,.56-0.21l0.06,1.11a3.75,3.75,0,0,1-.71.2,4.57,4.57,0,0,1-.8.07,3.23,3.23,0,0,1-.76-0.09,1.9,1.9,0,0,1-.74-0.36,2,2,0,0,1-.56-0.72,2.74,2.74,0,0,1-.22-1.19v-5.52H849.2V146H851V143.5h1.29V146h2.49v1.08Z" transform="translate(-641)"/>
    <path class="e" d="M856.79,147c0-.38,0-0.72-0.06-1H858c0,0.24,0,.5.06,0.79s0,0.53,0,.72h0a3.06,3.06,0,0,1,1.13-1.26,3.1,3.1,0,0,1,1.7-.48l0.45,0a2.47,2.47,0,0,1,.41.08l-0.17,1.23a2.38,2.38,0,0,0-.38-0.08,3.69,3.69,0,0,0-.53,0,2.61,2.61,0,0,0-1,.19,2.09,2.09,0,0,0-.82.59,3.13,3.13,0,0,0-.57,1,4.69,4.69,0,0,0-.22,1.52v4.52h-1.29v-6.89C856.81,147.7,856.8,147.39,856.79,147Z" transform="translate(-641)"/>
    <path class="e" d="M869,149.11a2.22,2.22,0,0,0-.61-1.71,2.49,2.49,0,0,0-1.76-.56,3.79,3.79,0,0,0-1.47.28,3.53,3.53,0,0,0-1.15.76l-0.72-.85a4.25,4.25,0,0,1,1.45-.91,5.43,5.43,0,0,1,2-.36,4.39,4.39,0,0,1,1.34.2,3.18,3.18,0,0,1,1.1.6,2.69,2.69,0,0,1,.74,1,3.52,3.52,0,0,1,.26,1.42v3.87c0,0.34,0,.69,0,1.06a7.39,7.39,0,0,0,.11.93h-1.15c0-.21-0.07-0.45-0.09-0.7a7.33,7.33,0,0,1,0-.74h0a3.72,3.72,0,0,1-1.37,1.28,4,4,0,0,1-1.84.39,4.15,4.15,0,0,1-1-.14,2.93,2.93,0,0,1-1-.46,2.61,2.61,0,0,1-.74-0.83,2.48,2.48,0,0,1-.29-1.25,2.37,2.37,0,0,1,.52-1.62,3.11,3.11,0,0,1,1.39-.89,8.16,8.16,0,0,1,2-.38q1.13-.08,2.33-0.09v-0.28Zm-0.38,1.3q-0.79,0-1.6.07a7,7,0,0,0-1.45.26,2.75,2.75,0,0,0-1.07.58,1.29,1.29,0,0,0-.42,1,1.61,1.61,0,0,0,.18.79,1.48,1.48,0,0,0,.48.52,2,2,0,0,0,.67.28,3.31,3.31,0,0,0,.75.08,2.93,2.93,0,0,0,1.21-.24,2.58,2.58,0,0,0,.89-0.64,2.86,2.86,0,0,0,.55-0.94,3.31,3.31,0,0,0,.19-1.11v-0.66h-0.38Z" transform="translate(-641)"/>
    <path class="e" d="M874.79,154.83H873.5V140.56h1.29v14.28Z" transform="translate(-641)"/>
    <path class="e" d="M879.79,142.59a0.84,0.84,0,0,1-.28.65,0.89,0.89,0,0,1-1.25,0,0.89,0.89,0,0,1,0-1.3,0.89,0.89,0,0,1,1.25,0A0.84,0.84,0,0,1,879.79,142.59Zm-0.26,12.24h-1.29V146h1.29v8.84Z" transform="translate(-641)"/>
    <path class="e" d="M888.82,146.9l-5.29,6.82H889v1.11h-7.18v-0.91l5.27-6.86h-5V146h6.72v0.91Z" transform="translate(-641)"/>
    <path class="e" d="M899.34,150.15v0.28a3.13,3.13,0,0,1,0,.32H892a3.42,3.42,0,0,0,.26,1.25,3.15,3.15,0,0,0,.68,1,3.3,3.3,0,0,0,1,.69,3.38,3.38,0,0,0,3-.21,3.46,3.46,0,0,0,1.11-1.07l1,0.75a4.79,4.79,0,0,1-1.75,1.44,4.89,4.89,0,0,1-2.05.43,4.69,4.69,0,0,1-1.82-.35,4.27,4.27,0,0,1-1.45-1,4.6,4.6,0,0,1-1-1.47,4.83,4.83,0,0,1-.35-1.85,4.94,4.94,0,0,1,.34-1.85,4.45,4.45,0,0,1,.95-1.47,4.34,4.34,0,0,1,1.42-1,4.4,4.4,0,0,1,1.76-.35,4.5,4.5,0,0,1,1.83.35,3.76,3.76,0,0,1,1.32.94,4,4,0,0,1,.8,1.39A5.15,5.15,0,0,1,899.34,150.15Zm-1.3-.42a3.18,3.18,0,0,0-.8-2.07,2.73,2.73,0,0,0-2.12-.82,3,3,0,0,0-1.19.24,3.18,3.18,0,0,0-1.62,1.57,3,3,0,0,0-.29,1.09h6Z" transform="translate(-641)"/>
    <path class="e" d="M909.37,153.34a3.62,3.62,0,0,1-1.47,1.28,4.28,4.28,0,0,1-1.87.43,4.76,4.76,0,0,1-1.88-.36,4.29,4.29,0,0,1-1.44-1,4.44,4.44,0,0,1-.93-1.47,5.25,5.25,0,0,1,0-3.66,4.45,4.45,0,0,1,.93-1.47,4.28,4.28,0,0,1,1.44-1,4.74,4.74,0,0,1,1.88-.36,4.21,4.21,0,0,1,1.87.44,3.65,3.65,0,0,1,1.47,1.31h0v-7h1.29v14.28H909.4v-1.49h0Zm-6.55-2.93a4.16,4.16,0,0,0,.23,1.39,3.34,3.34,0,0,0,.65,1.13,3,3,0,0,0,1,.76,3.49,3.49,0,0,0,1.42.27,3.33,3.33,0,0,0,2.44-1,3.37,3.37,0,0,0,.71-1.12,4,4,0,0,0,0-2.81,3.48,3.48,0,0,0-.71-1.13,3.24,3.24,0,0,0-1.08-.76,3.34,3.34,0,0,0-1.36-.27,3.38,3.38,0,0,0-1.42.28,3.07,3.07,0,0,0-1,.76A3.35,3.35,0,0,0,903,149,4.16,4.16,0,0,0,902.81,150.41Z" transform="translate(-641)"/>
  </g>
  <g>
    <path class="e" d="M679.44,219.48h4.46a8,8,0,0,1,2.52.42,7,7,0,0,1,2.28,1.26,6.39,6.39,0,0,1,1.64,2.11,7.2,7.2,0,0,1,0,5.88,6.43,6.43,0,0,1-1.64,2.1,6.91,6.91,0,0,1-2.28,1.26,8,8,0,0,1-2.52.42h-4.46V219.48Zm1.37,12.24h2.72a6.78,6.78,0,0,0,2.65-.48A5.5,5.5,0,0,0,688,230a5.06,5.06,0,0,0,1.11-1.76,5.76,5.76,0,0,0,0-4.06,5.08,5.08,0,0,0-1.11-1.76,5.5,5.5,0,0,0-1.87-1.24,6.81,6.81,0,0,0-2.65-.48h-2.72v11Z" transform="translate(-641)"/>
    <path class="e" d="M701.84,228.22v0.29a2.89,2.89,0,0,1,0,.32h-7.37a3.48,3.48,0,0,0,.27,1.25,3.16,3.16,0,0,0,.68,1,3.25,3.25,0,0,0,1,.69,3.39,3.39,0,0,0,3-.21,3.47,3.47,0,0,0,1.11-1.07l1,0.76a4.81,4.81,0,0,1-1.76,1.44,4.92,4.92,0,0,1-2.06.44,4.73,4.73,0,0,1-1.83-.35,4.3,4.3,0,0,1-1.45-1,4.64,4.64,0,0,1-1-1.48,4.84,4.84,0,0,1-.35-1.86,5,5,0,0,1,.34-1.86,4.48,4.48,0,0,1,1-1.48,4.37,4.37,0,0,1,1.42-1,4.42,4.42,0,0,1,1.77-.35,4.53,4.53,0,0,1,1.84.35,3.8,3.8,0,0,1,1.33.95,4.08,4.08,0,0,1,.81,1.4A5.21,5.21,0,0,1,701.84,228.22Zm-1.31-.42a3.22,3.22,0,0,0-.81-2.08,2.74,2.74,0,0,0-2.14-.83,3,3,0,0,0-1.2.24,3.14,3.14,0,0,0-1,.65,3.22,3.22,0,0,0-.67.93,3,3,0,0,0-.29,1.09h6.06Z" transform="translate(-641)"/>
    <path class="e" d="M711,226.07a2.45,2.45,0,0,0-.94-0.84,2.77,2.77,0,0,0-1.34-.33,3.46,3.46,0,0,0-1.41.28,3.19,3.19,0,0,0-1.07.76,3.34,3.34,0,0,0-.68,1.14,4.11,4.11,0,0,0-.24,1.42,4,4,0,0,0,.24,1.41,3.47,3.47,0,0,0,.67,1.13,3.09,3.09,0,0,0,1.06.76,3.46,3.46,0,0,0,1.41.28,2.84,2.84,0,0,0,2.41-1.16l1,0.72a4.24,4.24,0,0,1-1.4,1.12,4.35,4.35,0,0,1-2,.42,5.2,5.2,0,0,1-2-.35,4.34,4.34,0,0,1-1.49-1,4.43,4.43,0,0,1-1-1.48,5.24,5.24,0,0,1,0-3.72,4.43,4.43,0,0,1,1-1.48,4.34,4.34,0,0,1,1.49-1,5.2,5.2,0,0,1,2-.35,4.64,4.64,0,0,1,1.81.39,3.55,3.55,0,0,1,1.49,1.15Z" transform="translate(-641)"/>
    <path class="e" d="M722.21,228.22v0.29a2.89,2.89,0,0,1,0,.32h-7.37a3.48,3.48,0,0,0,.27,1.25,3.16,3.16,0,0,0,.68,1,3.25,3.25,0,0,0,1,.69,3.39,3.39,0,0,0,3-.21,3.47,3.47,0,0,0,1.11-1.07l1,0.76a4.81,4.81,0,0,1-1.76,1.44,4.92,4.92,0,0,1-2.06.44,4.73,4.73,0,0,1-1.83-.35,4.3,4.3,0,0,1-1.45-1,4.64,4.64,0,0,1-1-1.48,4.84,4.84,0,0,1-.35-1.86,5,5,0,0,1,.34-1.86,4.48,4.48,0,0,1,1-1.48,4.37,4.37,0,0,1,1.42-1,4.42,4.42,0,0,1,1.77-.35,4.53,4.53,0,0,1,1.84.35,3.8,3.8,0,0,1,1.33.95,4.08,4.08,0,0,1,.81,1.4A5.21,5.21,0,0,1,722.21,228.22Zm-1.31-.42a3.22,3.22,0,0,0-.81-2.08,2.74,2.74,0,0,0-2.14-.83,3,3,0,0,0-1.2.24,3.14,3.14,0,0,0-1,.65,3.22,3.22,0,0,0-.67.93,3,3,0,0,0-.29,1.09h6.06Z" transform="translate(-641)"/>
    <path class="e" d="M726.14,224q0,0.36.06,0.8c0,0.29,0,.53,0,0.72h0a2.92,2.92,0,0,1,1.23-1.26,3.6,3.6,0,0,1,1.81-.48,3.13,3.13,0,0,1,2.54,1,4,4,0,0,1,.85,2.66v5.45h-1.29V228a6.5,6.5,0,0,0-.11-1.27,2.66,2.66,0,0,0-.39-1,1.87,1.87,0,0,0-.74-0.64,2.64,2.64,0,0,0-1.17-.23,2.51,2.51,0,0,0-1,.21,2.47,2.47,0,0,0-.86.64,3.16,3.16,0,0,0-.61,1.08,4.71,4.71,0,0,0-.23,1.55v4.56H725V226c0-.24,0-0.55,0-0.93s0-.72-0.06-1h1.24Z" transform="translate(-641)"/>
    <path class="e" d="M740,225.12h-2.51v5.19a2.94,2.94,0,0,0,.09.82,1.17,1.17,0,0,0,.28.5,0.92,0.92,0,0,0,.43.25,2,2,0,0,0,.53.07,2.24,2.24,0,0,0,.56-0.08,2.66,2.66,0,0,0,.56-0.21l0.06,1.12a3.77,3.77,0,0,1-.71.2,4.72,4.72,0,0,1-.81.07,3.32,3.32,0,0,1-.76-0.1,1.9,1.9,0,0,1-.74-0.36,2,2,0,0,1-.56-0.72,2.78,2.78,0,0,1-.22-1.2v-5.55h-1.84V224h1.84v-2.51h1.29V224H740v1.08Z" transform="translate(-641)"/>
    <path class="e" d="M742,225.06q0-.57-0.06-1h1.24q0,0.36.06,0.8c0,0.29,0,.53,0,0.72h0a3.07,3.07,0,0,1,1.14-1.26,3.1,3.1,0,0,1,1.71-.48l0.45,0a2.43,2.43,0,0,1,.41.07l-0.17,1.24a2.39,2.39,0,0,0-.38-0.08,3.75,3.75,0,0,0-.53,0,2.63,2.63,0,0,0-1,.19,2.1,2.1,0,0,0-.83.6,3.14,3.14,0,0,0-.57,1,4.71,4.71,0,0,0-.22,1.53v4.55H742V226C742,225.75,742,225.44,742,225.06Z" transform="translate(-641)"/>
    <path class="e" d="M754.26,227.17a2.24,2.24,0,0,0-.61-1.72,2.5,2.5,0,0,0-1.77-.57,3.83,3.83,0,0,0-1.48.29,3.57,3.57,0,0,0-1.16.76l-0.72-.85a4.26,4.26,0,0,1,1.45-.91,5.47,5.47,0,0,1,2-.36,4.43,4.43,0,0,1,1.35.2,3.21,3.21,0,0,1,1.1.6,2.71,2.71,0,0,1,.74,1,3.53,3.53,0,0,1,.27,1.43v3.89c0,0.34,0,.7,0,1.06a7.24,7.24,0,0,0,.11.93h-1.16q-0.06-.32-0.1-0.7a7.4,7.4,0,0,1,0-.74h0a3.75,3.75,0,0,1-1.38,1.28A4.36,4.36,0,0,1,750,233a3,3,0,0,1-1-.47,2.65,2.65,0,0,1-.74-0.84,2.48,2.48,0,0,1-.29-1.26,2.39,2.39,0,0,1,.52-1.63,3.14,3.14,0,0,1,1.4-.9,8.17,8.17,0,0,1,2-.38q1.13-.09,2.35-0.09v-0.28Zm-0.38,1.31q-0.8,0-1.61.07a7.06,7.06,0,0,0-1.46.27,2.76,2.76,0,0,0-1.07.58,1.29,1.29,0,0,0-.42,1,1.61,1.61,0,0,0,.18.8,1.49,1.49,0,0,0,.48.52,2.05,2.05,0,0,0,.67.28,3.24,3.24,0,0,0,.75.09,3,3,0,0,0,1.22-.24,2.59,2.59,0,0,0,.89-0.65,2.87,2.87,0,0,0,.55-0.94,3.3,3.3,0,0,0,.19-1.12v-0.66h-0.38Z" transform="translate(-641)"/>
    <path class="e" d="M760.13,232.93h-1.29V218.56h1.29v14.36Z" transform="translate(-641)"/>
    <path class="e" d="M765.17,220.62a0.84,0.84,0,0,1-.29.65,0.9,0.9,0,0,1-1.25,0,0.9,0.9,0,0,1,0-1.31,0.9,0.9,0,0,1,1.25,0A0.84,0.84,0,0,1,765.17,220.62Zm-0.27,12.31h-1.29V224h1.29v8.89Z" transform="translate(-641)"/>
    <path class="e" d="M774.25,224.95l-5.32,6.86h5.51v1.12h-7.22V232l5.3-6.9h-5V224h6.76v0.91Z" transform="translate(-641)"/>
    <path class="e" d="M784.83,228.22v0.29a2.89,2.89,0,0,1,0,.32h-7.37a3.48,3.48,0,0,0,.27,1.25,3.16,3.16,0,0,0,.68,1,3.25,3.25,0,0,0,1,.69,3.39,3.39,0,0,0,3-.21,3.47,3.47,0,0,0,1.11-1.07l1,0.76a4.81,4.81,0,0,1-1.76,1.44,4.92,4.92,0,0,1-2.06.44,4.73,4.73,0,0,1-1.83-.35,4.3,4.3,0,0,1-1.45-1,4.64,4.64,0,0,1-1-1.48,4.84,4.84,0,0,1-.35-1.86,5,5,0,0,1,.34-1.86,4.48,4.48,0,0,1,1-1.48,4.37,4.37,0,0,1,1.42-1,4.42,4.42,0,0,1,1.77-.35,4.53,4.53,0,0,1,1.84.35,3.8,3.8,0,0,1,1.33.95,4.08,4.08,0,0,1,.81,1.4A5.21,5.21,0,0,1,784.83,228.22Zm-1.31-.42a3.22,3.22,0,0,0-.81-2.08,2.74,2.74,0,0,0-2.14-.83,3,3,0,0,0-1.2.24,3.14,3.14,0,0,0-1,.65,3.22,3.22,0,0,0-.67.93,3,3,0,0,0-.29,1.09h6.06Z" transform="translate(-641)"/>
    <path class="e" d="M794.92,231.43a3.64,3.64,0,0,1-1.48,1.29,4.31,4.31,0,0,1-1.88.44,4.77,4.77,0,0,1-1.89-.36,4.31,4.31,0,0,1-1.44-1,4.48,4.48,0,0,1-.93-1.48,5.29,5.29,0,0,1,0-3.69,4.49,4.49,0,0,1,.93-1.48,4.3,4.3,0,0,1,1.44-1,4.77,4.77,0,0,1,1.89-.36,4.24,4.24,0,0,1,1.88.45,3.68,3.68,0,0,1,1.48,1.32h0v-7h1.29v14.36H795v-1.5h0Zm-6.59-2.95a4.21,4.21,0,0,0,.23,1.4,3.38,3.38,0,0,0,.66,1.14,3,3,0,0,0,1.05.76,3.51,3.51,0,0,0,1.42.28,3.36,3.36,0,0,0,1.37-.28,3.33,3.33,0,0,0,1.08-.75,3.43,3.43,0,0,0,.71-1.13,4,4,0,0,0,0-2.83,3.54,3.54,0,0,0-.71-1.14,3.29,3.29,0,0,0-1.08-.76,3.36,3.36,0,0,0-1.37-.28,3.41,3.41,0,0,0-1.42.29,3.12,3.12,0,0,0-1.05.77,3.38,3.38,0,0,0-.66,1.14A4.21,4.21,0,0,0,788.33,228.48Z" transform="translate(-641)"/>
    <path class="e" d="M680.81,255.73h-1.37V242.28h8.11v1.22h-6.75v4.65h6.27v1.22h-6.27v6.37Z" transform="translate(-641)"/>
    <path class="e" d="M691.27,243.42a0.84,0.84,0,0,1-.29.66,0.9,0.9,0,0,1-1.25,0,0.9,0.9,0,0,1,0-1.31,0.9,0.9,0,0,1,1.25,0A0.84,0.84,0,0,1,691.27,243.42ZM691,255.73h-1.29v-8.89H691v8.89Z" transform="translate(-641)"/>
    <path class="e" d="M695.78,255.73h-1.29V241.36h1.29v14.37Z" transform="translate(-641)"/>
    <path class="e" d="M707.33,251v0.29a3,3,0,0,1,0,.32h-7.37a3.48,3.48,0,0,0,.27,1.25,3.16,3.16,0,0,0,.68,1,3.31,3.31,0,0,0,1,.69,3.4,3.4,0,0,0,3-.21,3.47,3.47,0,0,0,1.11-1.07l1,0.76a4.82,4.82,0,0,1-1.76,1.45,4.92,4.92,0,0,1-2.06.44,4.76,4.76,0,0,1-1.83-.35,4.3,4.3,0,0,1-1.45-1,4.64,4.64,0,0,1-1-1.48,4.85,4.85,0,0,1-.35-1.86,5,5,0,0,1,.34-1.86,4.48,4.48,0,0,1,1-1.48,4.37,4.37,0,0,1,1.42-1,4.42,4.42,0,0,1,1.77-.35,4.53,4.53,0,0,1,1.84.35,3.78,3.78,0,0,1,1.33,1,4.07,4.07,0,0,1,.81,1.4A5.2,5.2,0,0,1,707.33,251ZM706,250.6a3.21,3.21,0,0,0-.81-2.08,2.74,2.74,0,0,0-2.14-.83,3,3,0,0,0-1.2.24,3.21,3.21,0,0,0-1,.65,3.25,3.25,0,0,0-.67.93,3,3,0,0,0-.29,1.09H706Z" transform="translate(-641)"/>
    <path class="e" d="M721.45,244.44a3.3,3.3,0,0,0-1.12-1,3.44,3.44,0,0,0-1.65-.37,3.59,3.59,0,0,0-1,.15,2.92,2.92,0,0,0-.93.47,2.39,2.39,0,0,0-.67.79,2.32,2.32,0,0,0-.26,1.12,2.07,2.07,0,0,0,.25,1.06,2.32,2.32,0,0,0,.65.71,3.76,3.76,0,0,0,.93.48l1.09,0.38c0.47,0.15.94,0.32,1.41,0.49a5,5,0,0,1,1.28.69,3.35,3.35,0,0,1,.93,1.08,3.44,3.44,0,0,1,.36,1.66,3.69,3.69,0,0,1-.38,1.74,3.64,3.64,0,0,1-1,1.21,4.16,4.16,0,0,1-1.4.7,5.67,5.67,0,0,1-1.59.23,6.11,6.11,0,0,1-1.22-.12,5.65,5.65,0,0,1-1.16-.37,4.69,4.69,0,0,1-1-.63,4.52,4.52,0,0,1-.84-0.87l1.18-.87a3.63,3.63,0,0,0,1.23,1.21,3.47,3.47,0,0,0,1.85.48,3.59,3.59,0,0,0,1-.16,2.92,2.92,0,0,0,1-.49,2.74,2.74,0,0,0,.7-0.82,2.53,2.53,0,0,0,0-2.3,2.44,2.44,0,0,0-.73-0.78,4.53,4.53,0,0,0-1-.52L718,249.4q-0.67-.21-1.31-0.47a4.45,4.45,0,0,1-1.16-.69,3.24,3.24,0,0,1-.83-1.05,3.85,3.85,0,0,1,.08-3.21,3.51,3.51,0,0,1,1-1.16,4.27,4.27,0,0,1,1.39-.67,5.67,5.67,0,0,1,1.5-.21,5.19,5.19,0,0,1,2.34.48,4,4,0,0,1,1.46,1.15Z" transform="translate(-641)"/>
    <path class="e" d="M728.4,254.34h0l2.75-7.51h1.41L728.17,258a4.7,4.7,0,0,1-1,1.64,2.4,2.4,0,0,1-1.78.62,5.88,5.88,0,0,1-1.16-.11l0.13-1.18a3,3,0,0,0,1,.15,1.36,1.36,0,0,0,1-.41,3.51,3.51,0,0,0,.67-1.17l0.72-1.86-3.8-8.87h1.44Z" transform="translate(-641)"/>
    <path class="e" d="M739.34,248.95a2.27,2.27,0,0,0-.87-0.9,2.49,2.49,0,0,0-1.32-.35,3.13,3.13,0,0,0-.68.08,1.88,1.88,0,0,0-.61.25,1.35,1.35,0,0,0-.43.44,1.19,1.19,0,0,0-.16.63,1.07,1.07,0,0,0,.51,1,4.92,4.92,0,0,0,1.62.56,5.4,5.4,0,0,1,2.33.94,2,2,0,0,1,.75,1.66,2.59,2.59,0,0,1-.29,1.28,2.56,2.56,0,0,1-.77.85,3.1,3.1,0,0,1-1.07.48,5.25,5.25,0,0,1-1.21.14,4.8,4.8,0,0,1-2-.42,3.61,3.61,0,0,1-1.56-1.31l1-.76a2.9,2.9,0,0,0,2.47,1.39,4.05,4.05,0,0,0,.8-0.08,1.79,1.79,0,0,0,.67-0.27,1.36,1.36,0,0,0,.63-1.21,1.13,1.13,0,0,0-.67-1.05,8.85,8.85,0,0,0-1.95-.66c-0.27-.06-0.55-0.14-0.84-0.24a2.83,2.83,0,0,1-.83-0.42,2.28,2.28,0,0,1-.63-0.69,2,2,0,0,1-.25-1,2.39,2.39,0,0,1,.27-1.17,2.33,2.33,0,0,1,.71-0.8,3.18,3.18,0,0,1,1-.46,4.54,4.54,0,0,1,1.18-.15,4.16,4.16,0,0,1,1.8.42,2.92,2.92,0,0,1,1.31,1.18Z" transform="translate(-641)"/>
    <path class="e" d="M747.06,247.92h-2.51v5.19a3,3,0,0,0,.09.82,1.15,1.15,0,0,0,.28.5,0.94,0.94,0,0,0,.43.25,2,2,0,0,0,.53.07,2.24,2.24,0,0,0,.56-0.08,2.9,2.9,0,0,0,.56-0.21l0.06,1.12a3.91,3.91,0,0,1-.71.2,4.53,4.53,0,0,1-.81.07,3.22,3.22,0,0,1-.76-0.1,1.9,1.9,0,0,1-.74-0.36,2,2,0,0,1-.56-0.72,2.79,2.79,0,0,1-.22-1.2v-5.55h-1.84v-1.08h1.84v-2.51h1.29v2.51h2.51v1.08Z" transform="translate(-641)"/>
    <path class="e" d="M757.17,251v0.29a3,3,0,0,1,0,.32h-7.37a3.48,3.48,0,0,0,.27,1.25,3.16,3.16,0,0,0,.68,1,3.31,3.31,0,0,0,1,.69,3.4,3.4,0,0,0,3-.21,3.47,3.47,0,0,0,1.11-1.07l1,0.76a4.82,4.82,0,0,1-1.76,1.45A4.92,4.92,0,0,1,753,256a4.76,4.76,0,0,1-1.83-.35,4.3,4.3,0,0,1-1.45-1,4.64,4.64,0,0,1-1-1.48,4.85,4.85,0,0,1-.35-1.86,5,5,0,0,1,.34-1.86,4.48,4.48,0,0,1,1-1.48,4.37,4.37,0,0,1,1.42-1,4.42,4.42,0,0,1,1.77-.35,4.53,4.53,0,0,1,1.84.35,3.78,3.78,0,0,1,1.33,1,4.07,4.07,0,0,1,.81,1.4A5.2,5.2,0,0,1,757.17,251Zm-1.31-.42a3.21,3.21,0,0,0-.81-2.08,2.74,2.74,0,0,0-2.14-.83,3,3,0,0,0-1.2.24,3.21,3.21,0,0,0-1,.65,3.25,3.25,0,0,0-.67.93,3,3,0,0,0-.29,1.09h6.06Z" transform="translate(-641)"/>
    <path class="e" d="M762.38,247.09a3.3,3.3,0,0,1,1.76-.48,3.91,3.91,0,0,1,.75.08,2.43,2.43,0,0,1,.76.29,2.82,2.82,0,0,1,.68.58,3.24,3.24,0,0,1,.54.93,3.36,3.36,0,0,1,1.25-1.4,3.51,3.51,0,0,1,1.87-.48,3.12,3.12,0,0,1,2.54,1,4,4,0,0,1,.84,2.66v5.45h-1.29v-4.92a4.29,4.29,0,0,0-.52-2.26,1.91,1.91,0,0,0-1.78-.86,2.29,2.29,0,0,0-1.19.29,2.25,2.25,0,0,0-.78.75,3.29,3.29,0,0,0-.43,1.05,5.48,5.48,0,0,0-.13,1.21v4.73H766v-5.19a6.72,6.72,0,0,0-.1-1.18,2.45,2.45,0,0,0-.33-0.9,1.55,1.55,0,0,0-.66-0.57,2.48,2.48,0,0,0-1.06-.2,2.25,2.25,0,0,0-.92.21,2.4,2.4,0,0,0-.84.64,3.26,3.26,0,0,0-.6,1.08,4.71,4.71,0,0,0-.23,1.55v4.56h-1.29v-6.94c0-.24,0-0.55,0-0.93s0-.72-0.06-1h1.24c0,0.24,0,.51.06,0.8s0,0.53,0,.72h0A3,3,0,0,1,762.38,247.09Z" transform="translate(-641)"/>
    <path class="e" d="M781.45,248.95a2.27,2.27,0,0,0-.87-0.9,2.49,2.49,0,0,0-1.32-.35,3.13,3.13,0,0,0-.68.08,1.88,1.88,0,0,0-.61.25,1.35,1.35,0,0,0-.43.44,1.19,1.19,0,0,0-.16.63,1.07,1.07,0,0,0,.51,1,4.92,4.92,0,0,0,1.62.56,5.4,5.4,0,0,1,2.33.94,2,2,0,0,1,.75,1.66,2.59,2.59,0,0,1-.29,1.28,2.56,2.56,0,0,1-.77.85,3.1,3.1,0,0,1-1.07.48,5.25,5.25,0,0,1-1.21.14,4.8,4.8,0,0,1-2-.42,3.61,3.61,0,0,1-1.56-1.31l1-.76a2.9,2.9,0,0,0,2.47,1.39,4.05,4.05,0,0,0,.8-0.08,1.79,1.79,0,0,0,.67-0.27,1.36,1.36,0,0,0,.63-1.21,1.13,1.13,0,0,0-.67-1.05,8.85,8.85,0,0,0-1.95-.66c-0.27-.06-0.55-0.14-0.84-0.24a2.83,2.83,0,0,1-.83-0.42,2.28,2.28,0,0,1-.63-0.69,2,2,0,0,1-.25-1,2.39,2.39,0,0,1,.27-1.17,2.33,2.33,0,0,1,.71-0.8,3.18,3.18,0,0,1,1-.46,4.54,4.54,0,0,1,1.18-.15,4.16,4.16,0,0,1,1.8.42,2.92,2.92,0,0,1,1.31,1.18Z" transform="translate(-641)"/>
  </g>
</svg>
