<svg xmlns="http://www.w3.org/2000/svg" width="1112" height="344" viewBox="0 0 1112 344" xmlns:xlink="http://www.w3.org/1999/xlink">
  <defs>
    <rect id="a" width="112.93" height="112.93" x=".032" y=".062"/>
    <rect id="c" width="31.659" height="32.648" x=".084" y=".302"/>
    <rect id="e" width="34.507" height="34.507" x=".308" y=".209"/>
    <rect id="g" width="1" height="11.669" x=".063" y=".028"/>
    <rect id="i" width="1" height="1" x=".251" y=".007"/>
    <rect id="k" width="1" height="1" x=".111" y=".132"/>
    <rect id="m" width="41.697" height="23.655" x=".047" y=".157"/>
    <rect id="o" width="2.652" height="2.652" x=".101" y=".12"/>
    <rect id="q" width="7.708" height="7.708" x=".055" y=".102"/>
    <rect id="s" width="7.704" height="7.738" x=".083" y=".123"/>
    <rect id="u" width="10.961" height="13.712" x=".029" y=".099"/>
    <rect id="w" width="7.681" height="7.708" x=".051" y=".102"/>
    <rect id="y" width="7.68" height="6.636" x=".071" y=".174"/>
    <rect id="A" width="25.643" height="13.816" x=".13" y=".002"/>
    <rect id="C" width="112.93" height="112.93" x=".032" y=".062"/>
    <rect id="E" width="31.659" height="32.648" x=".084" y=".302"/>
    <rect id="G" width="34.507" height="34.507" x=".308" y=".209"/>
    <rect id="I" width="1" height="11.669" x=".063" y=".028"/>
    <rect id="K" width="1" height="1" x=".251" y=".007"/>
    <rect id="M" width="1" height="1" x=".111" y=".132"/>
    <rect id="O" width="41.697" height="23.655" x=".047" y=".157"/>
    <rect id="Q" width="2.652" height="2.652" x=".101" y=".12"/>
    <rect id="S" width="7.708" height="7.708" x=".055" y=".102"/>
    <rect id="U" width="7.704" height="7.738" x=".083" y=".123"/>
    <rect id="W" width="10.961" height="13.712" x=".029" y=".099"/>
    <rect id="Y" width="7.681" height="7.708" x=".051" y=".102"/>
    <rect id="aa" width="7.68" height="6.636" x=".071" y=".174"/>
    <rect id="ac" width="25.643" height="13.816" x=".13" y=".002"/>
    <rect id="ae" width="38.968" height="38.666" x=".03" y=".069"/>
    <rect id="ag" width="1" height="1" x=".501" y=".015"/>
    <rect id="ai" width="1" height="1" x=".222" y=".264"/>
    <rect id="ak" width="93.323" height="52.239" x=".104" y=".346"/>
    <rect id="am" width="6.188" height="6.188" x=".236" y=".28"/>
    <rect id="ao" width="17.343" height="17.343" x=".124" y=".23"/>
    <rect id="aq" width="17.334" height="17.41" x=".186" y=".277"/>
    <rect id="as" width="24.912" height="30.362" x=".067" y=".219"/>
    <rect id="au" width="18.243" height="17.343" x=".121" y=".23"/>
    <rect id="aw" width="18.24" height="14.221" x=".167" y=".374"/>
    <rect id="ay" width="88.927" height="89.23" x=".069" y=".158"/>
    <rect id="aA" width="18.608" height="18.865" x=".006" y=".517"/>
    <rect id="aC" width="18.608" height="18.865" x=".006" y=".517"/>
    <rect id="aE" width="13.602" height="13.79" x=".364" y=".212"/>
    <rect id="aG" width="13.602" height="13.79" x=".364" y=".212"/>
    <rect id="aI" width="13.964" height="14.157" x=".225" y=".028"/>
    <rect id="aK" width="13.964" height="14.157" x=".225" y=".028"/>
    <rect id="aM" width="2.455" height="2.489" x=".034" y=".526"/>
  </defs>
  <g fill="none" fill-rule="evenodd">
    <g fill="#083749" transform="translate(659 256)" opacity=".2">
      <path d="M291.275216 71.936L242 71.936 302.089105 0C302.089105 0 348.479172.641 347.998377.641L291.275216 71.936zM383 72L407.388775 43C407.388775 43 444.778842 43.641 444.298047 43.641L421.530897 72 383 72zM182 72.0627043L203.718149 46.0627043C203.718149 46.0627043 250.108216 45.7037043 249.62742 46.7037043L229.451494 72.0627043 182 72.0627043zM0 72.0627043L21.7181486 46.0627043C33 32 64 40.5 57.6274201 46.7037043L37.4514943 72.0627043 0 72.0627043z"/>
    </g>
    <g transform="translate(826 215)">
      <g opacity=".56" transform="translate(0 15)">
        <mask id="b" fill="white">
          <use xlink:href="#a"/>
        </mask>
        <path stroke="#E5E5E5" stroke-width=".14" d="M0.0535589041,56.5266247 C0.0535589041,25.3537945 25.3237644,0.0835890411 56.4965945,0.0835890411 C87.6688055,0.0835890411 112.93963,25.3537945 112.93963,56.5266247 C112.93963,87.6994548 87.6688055,112.96966 56.4965945,112.96966 C25.3237644,112.96966 0.0535589041,87.6994548 0.0535589041,56.5266247 Z" mask="url(#b)"/>
      </g>
      <path fill="#39BA91" fill-rule="nonzero" d="M56.7696656,28 C50.2696371,28 45,33.2698617 45,39.7697974 C45,43.5124845 46.7490506,46.8447471 49.4721612,49 L66,32.4723971 C63.8447163,29.7490257 60.5124061,28 56.7696656,28"/>
      <path stroke="#A9CAD3" stroke-width=".2" d="M47,51.6712505 C49.6304531,53.7538198 52.9527447,55 56.5680899,55 C65.091088,55 72,48.0910035 72,39.5685124 C72,35.9528175 70.7532239,32.6307909 68.67068,30"/>
      <rect width="1" height="71" x="56" y="4" fill="#E5E5E5" fill-rule="nonzero"/>
      <g opacity=".16" transform="translate(38 21)">
        <mask id="d" fill="white">
          <use xlink:href="#c"/>
        </mask>
        <path fill="#FFFFFF" fill-rule="nonzero" d="M0.0833846154,20.4546058 C0.0833846154,25.1761442 1.66215385,29.5153269 4.29938462,32.9501827 L31.7424615,4.64919231 C28.4116923,1.92986538 24.204,0.301759615 19.6255385,0.301759615 C8.83292308,0.301759615 0.0833846154,9.32440385 0.0833846154,20.4546058" mask="url(#d)"/>
      </g>
      <g opacity=".13" transform="translate(36 20)">
        <mask id="f" fill="white">
          <use xlink:href="#e"/>
        </mask>
        <path stroke="#FFFFFF" stroke-width=".2" d="M34.7952655,4.82845133 C31.1701327,1.95845133 26.5910177,0.240353982 21.6080088,0.240353982 C9.86163717,0.240353982 0.339469027,9.76252212 0.339469027,21.5088938 C0.339469027,26.4919027 2.05787611,31.0703982 4.92818584,34.6961504" mask="url(#f)"/>
      </g>
      <path fill="#FFFFFF" fill-rule="nonzero" d="M70,40.6544025 C70,37.7622642 69.0025157,35.1044025 67.3367925,33 L50,50.3367925 C52.1044025,52.0025157 54.7622642,53 57.654717,53 C64.4726415,53 70,47.4726415 70,40.6544025"/>
      <g opacity=".67" transform="translate(57 41)">
        <mask id="h" fill="white">
          <use xlink:href="#g"/>
        </mask>
        <polygon fill="#E5F5F9" fill-rule="nonzero" points=".957 11.659 .063 11.696 .063 .871 .943 .028" mask="url(#h)"/>
      </g>
      <path fill="#FFFFFF" fill-rule="nonzero" d="M80.7849903,70.377346 C83.1519941,73.4272054 84.9335036,76.9346519 85.9496994,80.6614682 C86.9918484,84.3821051 87.2390228,88.310989 86.7774246,92.1413109 C86.3096471,95.9741045 85.0719213,99.7111169 83.1594094,103.066549 C81.2506051,106.424145 78.6750478,109.399542 75.6286233,111.77368 C72.5846706,114.150908 69.0689238,115.923479 65.3430786,116.945557 C61.6181605,117.967635 57.6914862,118.252198 53.8578112,117.775146 C50.0225914,117.306436 46.2834607,116.069004 42.9243606,114.157706 C39.560935,112.253204 36.5865001,109.669892 34.2126989,106.62096 C31.8379709,103.572027 30.0682022,100.053767 29.0479899,96.3263322 C28.023143,92.5998248 27.752487,88.6724858 28.2248991,84.8387653 C28.6957663,81.0044268 29.9365818,77.2664874 31.8518744,73.9119819 C33.7634595,70.5550047 36.3417974,67.5805343 39.3894578,65.2085588 C42.4349553,62.8334935 45.9519381,61.0637037 49.6771652,60.0444062 C53.4020834,59.0146036 57.325977,58.7621737 61.159343,59.217289 C64.992091,59.69774 68.7228796,60.9391882 72.0832156,62.8421447 C75.4324287,64.7654934 78.4019201,67.3386095 80.7849903,70.377346 M80.7849903,70.377346 C78.3997573,67.3398454 75.42903,64.769819 72.0795079,62.8492511 C68.718863,60.9487663 64.9880744,59.7100988 61.1571802,59.2330466 C57.325668,58.780712 53.4045552,59.0356137 49.6833446,60.0675791 C45.961825,61.0881125 42.4494768,62.8585202 39.4089227,65.2332765 C36.3655879,67.6052521 33.7931204,70.5775596 31.8861699,73.9314472 C29.9758208,77.2831719 28.7390219,81.0158587 28.2718622,84.8449447 C27.8028488,88.6724858 28.0759765,92.5933364 29.1011324,96.3121195 C30.1216537,100.031212 31.8904954,103.541439 34.2621338,106.582338 C36.6297556,109.625709 39.5955394,112.206858 42.9515498,114.109506 C46.3029257,116.019569 50.0349502,117.257309 53.8636816,117.727873 C57.6911772,118.207397 61.6119811,117.925306 65.3325737,116.907245 C69.0540933,115.889183 72.5667505,114.121556 75.6091584,111.748653 C78.654038,109.37915 81.2295952,106.408078 83.1383995,103.054499 C85.0521473,99.7037016 86.2917269,95.9700879 86.7616673,92.1391481 C87.2254282,88.311298 86.9816525,84.383959 85.9419752,80.663631 C84.9288691,76.9365057 83.1501403,73.4287502 80.7849903,70.377346"/>
      <path fill="#FFFFFF" fill-rule="nonzero" d="M41,63.5001543 C41,62.671674 41.6713654,62 42.4998457,62 C43.328326,62 44,62.671674 44,63.5001543 C44,64.3286346 43.328326,65 42.4998457,65 C41.6713654,65 41,64.3286346 41,63.5001543"/>
      <path fill="#7DACBC" fill-rule="nonzero" d="M78 78C78.1734467 78.329304 78.3398669 78.6630037 78.5 79 78.3398669 78.6630037 78.1734467 78.329304 78 78M78 78C77.4270961 76.5864057 76.7566245 75.2475974 76 74 76.7566245 75.2475974 77.4270961 76.5864057 78 78M80 82C80.3924897 82.6531355 80.725823 83.3205487 81 84 80.725823 83.3205487 80.3924897 82.6531355 80 82M80 84C80.214795 84.6560228 80.3823529 85.3231646 80.5 86 80.3823529 85.3231646 80.214795 84.6560228 80 84M79 80C79.1746242 80.3299403 79.341733 80.6630397 79.5 81 79.341733 80.6630397 79.1746242 80.3299403 79 80"/>
      <path fill="#A1D1E1" fill-rule="nonzero" d="M76,75 C74.8179618,73.5323042 73.4756655,72.1915705 72,71 C73.4756655,72.1915705 74.8179618,73.5323042 76,75"/>
      <g opacity=".8" transform="translate(81 86)">
        <mask id="j" fill="white">
          <use xlink:href="#i"/>
        </mask>
        <path fill="#E6F9FF" fill-rule="nonzero" d="M0.2505,0.0075 C0.264,0.125 0.2765,0.243 0.2885,0.36 C0.2765,0.243 0.264,0.125 0.2505,0.0075" mask="url(#j)"/>
      </g>
      <path fill="#E6F9FF" fill-rule="nonzero" d="M0.074,3.80514286 L3.81028571,0.0688571429 L0.074,3.80514286 Z" opacity=".8" transform="translate(69 77)"/>
      <g opacity=".8" transform="translate(80 84)">
        <mask id="l" fill="white">
          <use xlink:href="#k"/>
        </mask>
        <path fill="#E6F9FF" fill-rule="nonzero" d="M0.111,0.132 C0.1375,0.2545 0.1645,0.377 0.1895,0.5 C0.1645,0.377 0.1375,0.2545 0.111,0.132" mask="url(#l)"/>
      </g>
      <path stroke="#124354" stroke-width=".35" d="M16,89 L93,89"/>
      <path fill="#7DACBC" fill-rule="nonzero" d="M73.1616547,76.6903882 L69,80.6698257 C70.3909308,82.7923749 71.1957041,85.3010912 71.1957041,87.9902621 C71.1957041,87.9936095 71.1953858,87.9969569 71.1953858,88 L81,88 C81,87.2106247 80.9570406,86.4303786 80.8752586,85.6610877 C80.8676213,85.5895753 80.8593477,85.5180629 80.8513922,85.4468548 C80.7670644,84.7241229 80.6474145,84.0120419 80.4940334,83.3118289 C80.4781225,83.2369691 80.4609387,83.1624136 80.4440732,83.0878581 C80.274463,82.3493023 80.0682578,81.6238317 79.8254574,80.9138808 C79.7236277,80.6162674 79.6157518,80.3216972 79.5018298,80.0295614 C79.3879077,79.7380342 79.2679395,79.4489414 79.1419252,79.1628918 C79.0159109,78.8768422 78.8838504,78.5938356 78.7463803,78.3138721 C78.6085919,78.0339086 78.4650756,77.7566839 78.3161496,77.4831109 C77.6453461,76.2521845 76.8606205,75.08638 75.9747017,74 L73.1616547,76.6903882 L73.1616547,76.6903882 Z"/>
      <path fill="#39BA91" fill-rule="nonzero" d="M56.5280205,75.4548658 C61.4889388,75.4548658 65.8414051,78.1819784 68.2954032,82.2825791 L72.2957688,78.0925911 L75,75.2600721 C73.9914196,73.9045254 72.8460982,72.6662395 71.5869787,71.5657189 C71.4071045,71.4087305 71.2247831,71.2543052 71.0403202,71.1027633 C67.1482462,67.9069283 62.2448387,66 56.9156066,66 C55.9269102,66 54.9528976,66.0653584 53.9966275,66.1928714 C53.6145478,66.2434922 53.2352213,66.3043652 52.8586479,66.3748498 C52.2945526,66.4802563 51.7374932,66.6074489 51.1883874,66.7554666 C41.4871108,69.3698038 34.2713408,78.4703244 34.0073418,89.3803765 C34.0024473,89.5863837 34,89.7927113 34,90 L42.6504809,90 L42.6504809,89.9897477 C42.6504809,81.9621946 48.8631768,75.4548658 56.5280205,75.4548658"/>
      <g opacity=".8" transform="translate(34 65)">
        <mask id="n" fill="white">
          <use xlink:href="#m"/>
        </mask>
        <path fill="#E6F9FF" fill-rule="nonzero" d="M22.9578222,9.47621053 C28.0031111,9.47621053 32.4296,12.1642105 34.9253333,16.206 L38.9937333,12.0761053 L41.7439556,9.28421053 C40.7182222,7.94810526 39.5534222,6.72757895 38.2728889,5.64284211 C38.0899556,5.48810526 37.9045333,5.33589474 37.7169333,5.18652632 C33.7586667,2.03652632 28.7718667,0.156947368 23.352,0.156947368 C22.3464889,0.156947368 21.3559111,0.221368421 20.3833778,0.347052632 C19.9948,0.396947368 19.6090222,0.456947368 19.2260444,0.526421053 C18.6523556,0.630315789 18.0858222,0.755684211 17.5273778,0.901578947 C7.66111111,3.47842105 0.322622222,12.4484211 0.0541333333,23.202 C0.0491555556,23.4050526 0.0466666667,23.6084211 0.0466666667,23.8127368 L8.84426667,23.8127368 L8.84426667,23.8026316 C8.84426667,15.8902105 15.1626222,9.47621053 22.9578222,9.47621053" mask="url(#n)"/>
      </g>
      <path fill="#A1D1E1" fill-rule="nonzero" d="M76,74 L73,77 L76,74 Z"/>
      <g opacity=".8" transform="translate(73 74)">
        <mask id="p" fill="white">
          <use xlink:href="#o"/>
        </mask>
        <path fill="#E6F9FF" fill-rule="nonzero" d="M2.7531,0.12 L0.1011,2.7723 L2.7531,0.12 Z" mask="url(#p)"/>
      </g>
      <path fill="#FFFFFF" fill-rule="nonzero" d="M69,81 L61,89 L69,81 Z"/>
      <g opacity=".8" transform="translate(61 81)">
        <mask id="r" fill="white">
          <use xlink:href="#q"/>
        </mask>
        <path fill="#E6F9FF" fill-rule="nonzero" d="M7.76288,0.10176 L0.05472,7.80992 L7.76288,0.10176 Z" mask="url(#r)"/>
      </g>
      <path fill="#FFFFFF" fill-rule="nonzero" d="M71,88.9893723 C71,86.054467 70.1835549,83.316174 68.7733316,81 L61,89 L71,89 C71,88.9966788 71,88.9930256 71,88.9893723"/>
      <g opacity=".8" transform="translate(69 74)">
        <mask id="t" fill="white">
          <use xlink:href="#s"/>
        </mask>
        <path fill="#E6F9FF" fill-rule="nonzero" d="M7.78656,1.01876923 C7.56384,0.714769231 7.33408,0.415692308 7.09664,0.122769231 L4.26784,2.84338462 L0.08288,6.86707692 C0.2928,7.18953846 0.488,7.52184615 0.6704,7.86123077 L7.78656,1.01876923 L7.78656,1.01876923 Z" mask="url(#t)"/>
      </g>
      <path fill="#E5E5E5" fill-rule="nonzero" d="M71.5525479,87.9903467 C71.5525479,87.993665 71.5525479,87.9969833 71.5525479,88 L81,88 C81,87.2174781 80.9586028,86.4440061 80.8797948,85.6813942 C80.8724353,85.6105026 80.8647692,85.5396111 80.8567964,85.4684179 C80.7755352,84.7525642 80.6602364,84.0466654 80.5130464,83.3525317 C80.4971008,83.2783218 80.4808486,83.2044136 80.4642897,83.1305054 C80.3008475,82.3983617 80.1021409,81.6791897 79.8681702,80.9754026 C79.7706568,80.6803731 79.6663972,80.3883603 79.556618,80.0987608 C79.4468388,79.8097647 79.3309266,79.5231819 79.2101082,79.2396157 C79.0886764,78.9560496 78.9614184,78.6755001 78.8286407,78.3979672 C78.6961697,78.1204344 78.5578724,77.8456166 78.4140555,77.5744187 C77.939981,76.6790737 77.4061106,75.8196269 76.8185772,75 L70,81.707848 C70.9907727,83.5896412 71.5525479,85.7251357 71.5525479,87.9903467"/>
      <g opacity=".8" transform="translate(70 75)">
        <mask id="v" fill="white">
          <use xlink:href="#u"/>
        </mask>
        <path fill="#E6F9FF" fill-rule="nonzero" d="M1.57636111,13.8008182 C1.57636111,13.8043182 1.57636111,13.8078182 1.57636111,13.811 L10.9902222,13.811 C10.9902222,12.9856364 10.9489722,12.1698182 10.8704444,11.3654545 C10.8631111,11.2906818 10.8554722,11.2159091 10.8475278,11.1408182 C10.7665556,10.3857727 10.6516667,9.64122727 10.505,8.90909091 C10.4891111,8.83081818 10.4729167,8.75286364 10.4564167,8.67490909 C10.2935556,7.90268182 10.0955556,7.14413636 9.86241667,6.40181818 C9.76525,6.09063636 9.66136111,5.78263636 9.55197222,5.47718182 C9.44258333,5.17236364 9.32708333,4.87009091 9.20669444,4.571 C9.08569444,4.27190909 8.95888889,3.976 8.82658333,3.68327273 C8.69458333,3.39054545 8.55677778,3.10068182 8.41347222,2.81463636 C7.94108333,1.87027273 7.40911111,0.963772727 6.82366667,0.0992727273 L0.0293333333,7.17436364 C1.01658333,9.15918182 1.57636111,11.4115909 1.57636111,13.8008182" mask="url(#v)"/>
      </g>
      <g opacity=".8" transform="translate(61 81)">
        <mask id="x" fill="white">
          <use xlink:href="#w"/>
        </mask>
        <path fill="#E6F9FF" fill-rule="nonzero" d="M7.18785185,0.10176 L0.0506666667,7.80992 L1.552,7.80992 L7.73185185,1.13536 C7.56266667,0.7824 7.38222222,0.43712 7.18785185,0.10176" mask="url(#x)"/>
      </g>
      <path fill="#E5E5E5" fill-rule="nonzero" d="M71,87.9907949 C71,85.8307604 70.4345679,83.7944194 69.4373457,82 L63,88 L71,88 C71,87.9971234 71,87.9939592 71,87.9907949"/>
      <g opacity=".8" transform="translate(63 82)">
        <mask id="z" fill="white">
          <use xlink:href="#y"/>
        </mask>
        <path fill="#E6F9FF" fill-rule="nonzero" d="M7.75081481,6.80081818 C7.75081481,4.41159091 7.208,2.15918182 6.25066667,0.174363636 L0.0708148148,6.811 L7.75081481,6.811 C7.75081481,6.80781818 7.75081481,6.80431818 7.75081481,6.80081818" mask="url(#z)"/>
      </g>
      <path fill="#FFFFFF" fill-rule="nonzero" d="M57.069687,75 C49.2987165,75 43,81.2634419 43,88.9901319 L43,89 L61.529249,89 L69,81.5718188 C66.512024,77.6249036 62.0992938,75 57.069687,75"/>
      <g opacity=".8" transform="translate(43 75)">
        <mask id="B" fill="white">
          <use xlink:href="#A"/>
        </mask>
        <path fill="#E6F9FF" fill-rule="nonzero" d="M14.0072706,0.00243478261 C6.34308235,0.00243478261 0.130917647,6.18404348 0.130917647,13.8097826 L0.130917647,13.8195217 L18.4055529,13.8195217 L25.7736471,6.4883913 C23.3198588,2.59304348 18.9677647,0.00243478261 14.0072706,0.00243478261" mask="url(#B)"/>
      </g>
      <path fill="#39BA91" fill-rule="nonzero" d="M56.4966141,4.21457804e-15 C54.5656171,4.21457804e-15 53,1.56561712 53,3.49631753 C53,4.47827591 53.4054174,5.36473728 54.0566952,6 L59,1.05669517 C58.3650339,0.405417429 57.4779793,0 56.4966141,0"/>
      <path fill="#074354" fill-rule="nonzero" d="M56.4661271,7 C58.4175659,7 60,5.41756595 60,3.46582734 C60,2.50629496 59.6172062,1.63699041 58.9964029,1 L54,5.99640288 C54.6366906,6.61690647 55.506295,7 56.4661271,7"/>
      <rect width="57" height="1" x="30" y="86" fill="#7DACBC" fill-rule="nonzero"/>
      <path stroke="#124354" stroke-width=".2" d="M35,84 L81,84"/>
    </g>
    <g transform="translate(926 167)">
      <g opacity=".56" transform="translate(0 15)">
        <mask id="D" fill="white">
          <use xlink:href="#C"/>
        </mask>
        <path stroke="#E5E5E5" stroke-width=".14" d="M0.0535589041,56.5266247 C0.0535589041,25.3537945 25.3237644,0.0835890411 56.4965945,0.0835890411 C87.6688055,0.0835890411 112.93963,25.3537945 112.93963,56.5266247 C112.93963,87.6994548 87.6688055,112.96966 56.4965945,112.96966 C25.3237644,112.96966 0.0535589041,87.6994548 0.0535589041,56.5266247 Z" mask="url(#D)"/>
      </g>
      <path fill="#39BA91" fill-rule="nonzero" d="M56.7696656,28 C50.2696371,28 45,33.2698617 45,39.7697974 C45,43.5124845 46.7490506,46.8447471 49.4721612,49 L66,32.4723971 C63.8447163,29.7490257 60.5124061,28 56.7696656,28"/>
      <path stroke="#A9CAD3" stroke-width=".2" d="M47,51.6712505 C49.6304531,53.7538198 52.9527447,55 56.5680899,55 C65.091088,55 72,48.0910035 72,39.5685124 C72,35.9528175 70.7532239,32.6307909 68.67068,30"/>
      <rect width="1" height="71" x="56" y="4" fill="#E5E5E5" fill-rule="nonzero"/>
      <g opacity=".16" transform="translate(38 21)">
        <mask id="F" fill="white">
          <use xlink:href="#E"/>
        </mask>
        <path fill="#FFFFFF" fill-rule="nonzero" d="M0.0833846154,20.4546058 C0.0833846154,25.1761442 1.66215385,29.5153269 4.29938462,32.9501827 L31.7424615,4.64919231 C28.4116923,1.92986538 24.204,0.301759615 19.6255385,0.301759615 C8.83292308,0.301759615 0.0833846154,9.32440385 0.0833846154,20.4546058" mask="url(#F)"/>
      </g>
      <g opacity=".13" transform="translate(36 20)">
        <mask id="H" fill="white">
          <use xlink:href="#G"/>
        </mask>
        <path stroke="#FFFFFF" stroke-width=".2" d="M34.7952655,4.82845133 C31.1701327,1.95845133 26.5910177,0.240353982 21.6080088,0.240353982 C9.86163717,0.240353982 0.339469027,9.76252212 0.339469027,21.5088938 C0.339469027,26.4919027 2.05787611,31.0703982 4.92818584,34.6961504" mask="url(#H)"/>
      </g>
      <path fill="#FFFFFF" fill-rule="nonzero" d="M70,40.6544025 C70,37.7622642 69.0025157,35.1044025 67.3367925,33 L50,50.3367925 C52.1044025,52.0025157 54.7622642,53 57.654717,53 C64.4726415,53 70,47.4726415 70,40.6544025"/>
      <g opacity=".67" transform="translate(57 41)">
        <mask id="J" fill="white">
          <use xlink:href="#I"/>
        </mask>
        <polygon fill="#E5F5F9" fill-rule="nonzero" points=".957 11.659 .063 11.696 .063 .871 .943 .028" mask="url(#J)"/>
      </g>
      <path fill="#FFFFFF" fill-rule="nonzero" d="M80.7849903,70.377346 C83.1519941,73.4272054 84.9335036,76.9346519 85.9496994,80.6614682 C86.9918484,84.3821051 87.2390228,88.310989 86.7774246,92.1413109 C86.3096471,95.9741045 85.0719213,99.7111169 83.1594094,103.066549 C81.2506051,106.424145 78.6750478,109.399542 75.6286233,111.77368 C72.5846706,114.150908 69.0689238,115.923479 65.3430786,116.945557 C61.6181605,117.967635 57.6914862,118.252198 53.8578112,117.775146 C50.0225914,117.306436 46.2834607,116.069004 42.9243606,114.157706 C39.560935,112.253204 36.5865001,109.669892 34.2126989,106.62096 C31.8379709,103.572027 30.0682022,100.053767 29.0479899,96.3263322 C28.023143,92.5998248 27.752487,88.6724858 28.2248991,84.8387653 C28.6957663,81.0044268 29.9365818,77.2664874 31.8518744,73.9119819 C33.7634595,70.5550047 36.3417974,67.5805343 39.3894578,65.2085588 C42.4349553,62.8334935 45.9519381,61.0637037 49.6771652,60.0444062 C53.4020834,59.0146036 57.325977,58.7621737 61.159343,59.217289 C64.992091,59.69774 68.7228796,60.9391882 72.0832156,62.8421447 C75.4324287,64.7654934 78.4019201,67.3386095 80.7849903,70.377346 M80.7849903,70.377346 C78.3997573,67.3398454 75.42903,64.769819 72.0795079,62.8492511 C68.718863,60.9487663 64.9880744,59.7100988 61.1571802,59.2330466 C57.325668,58.780712 53.4045552,59.0356137 49.6833446,60.0675791 C45.961825,61.0881125 42.4494768,62.8585202 39.4089227,65.2332765 C36.3655879,67.6052521 33.7931204,70.5775596 31.8861699,73.9314472 C29.9758208,77.2831719 28.7390219,81.0158587 28.2718622,84.8449447 C27.8028488,88.6724858 28.0759765,92.5933364 29.1011324,96.3121195 C30.1216537,100.031212 31.8904954,103.541439 34.2621338,106.582338 C36.6297556,109.625709 39.5955394,112.206858 42.9515498,114.109506 C46.3029257,116.019569 50.0349502,117.257309 53.8636816,117.727873 C57.6911772,118.207397 61.6119811,117.925306 65.3325737,116.907245 C69.0540933,115.889183 72.5667505,114.121556 75.6091584,111.748653 C78.654038,109.37915 81.2295952,106.408078 83.1383995,103.054499 C85.0521473,99.7037016 86.2917269,95.9700879 86.7616673,92.1391481 C87.2254282,88.311298 86.9816525,84.383959 85.9419752,80.663631 C84.9288691,76.9365057 83.1501403,73.4287502 80.7849903,70.377346"/>
      <path fill="#FFFFFF" fill-rule="nonzero" d="M41,63.5001543 C41,62.671674 41.6713654,62 42.4998457,62 C43.328326,62 44,62.671674 44,63.5001543 C44,64.3286346 43.328326,65 42.4998457,65 C41.6713654,65 41,64.3286346 41,63.5001543"/>
      <path fill="#7DACBC" fill-rule="nonzero" d="M78 78C78.1734467 78.329304 78.3398669 78.6630037 78.5 79 78.3398669 78.6630037 78.1734467 78.329304 78 78M78 78C77.4270961 76.5864057 76.7566245 75.2475974 76 74 76.7566245 75.2475974 77.4270961 76.5864057 78 78M80 82C80.3924897 82.6531355 80.725823 83.3205487 81 84 80.725823 83.3205487 80.3924897 82.6531355 80 82M80 84C80.214795 84.6560228 80.3823529 85.3231646 80.5 86 80.3823529 85.3231646 80.214795 84.6560228 80 84"/>
      <path stroke="#124354" stroke-width=".35" d="M16,89 L93,89"/>
      <path fill="#7DACBC" fill-rule="nonzero" d="M79,80 C79.1746242,80.3299403 79.341733,80.6630397 79.5,81 C79.341733,80.6630397 79.1746242,80.3299403 79,80"/>
      <path fill="#A1D1E1" fill-rule="nonzero" d="M76,75 C74.8179618,73.5323042 73.4756655,72.1915705 72,71 C73.4756655,72.1915705 74.8179618,73.5323042 76,75"/>
      <g opacity=".8" transform="translate(81 86)">
        <mask id="L" fill="white">
          <use xlink:href="#K"/>
        </mask>
        <path fill="#E6F9FF" fill-rule="nonzero" d="M0.2505,0.0075 C0.264,0.125 0.2765,0.243 0.2885,0.36 C0.2765,0.243 0.264,0.125 0.2505,0.0075" mask="url(#L)"/>
      </g>
      <path fill="#E6F9FF" fill-rule="nonzero" d="M0.074,3.80514286 L3.81028571,0.0688571429 L0.074,3.80514286 Z" opacity=".8" transform="translate(69 77)"/>
      <g opacity=".8" transform="translate(80 84)">
        <mask id="N" fill="white">
          <use xlink:href="#M"/>
        </mask>
        <path fill="#E6F9FF" fill-rule="nonzero" d="M0.111,0.132 C0.1375,0.2545 0.1645,0.377 0.1895,0.5 C0.1645,0.377 0.1375,0.2545 0.111,0.132" mask="url(#N)"/>
      </g>
      <path fill="#7DACBC" fill-rule="nonzero" d="M73.1616547,76.6903882 L69,80.6698257 C70.3909308,82.7923749 71.1957041,85.3010912 71.1957041,87.9902621 C71.1957041,87.9936095 71.1953858,87.9969569 71.1953858,88 L81,88 C81,87.2106247 80.9570406,86.4303786 80.8752586,85.6610877 C80.8676213,85.5895753 80.8593477,85.5180629 80.8513922,85.4468548 C80.7670644,84.7241229 80.6474145,84.0120419 80.4940334,83.3118289 C80.4781225,83.2369691 80.4609387,83.1624136 80.4440732,83.0878581 C80.274463,82.3493023 80.0682578,81.6238317 79.8254574,80.9138808 C79.7236277,80.6162674 79.6157518,80.3216972 79.5018298,80.0295614 C79.3879077,79.7380342 79.2679395,79.4489414 79.1419252,79.1628918 C79.0159109,78.8768422 78.8838504,78.5938356 78.7463803,78.3138721 C78.6085919,78.0339086 78.4650756,77.7566839 78.3161496,77.4831109 C77.6453461,76.2521845 76.8606205,75.08638 75.9747017,74 L73.1616547,76.6903882 L73.1616547,76.6903882 Z"/>
      <path fill="#39BA91" fill-rule="nonzero" d="M56.5280205,75.4548658 C61.4889388,75.4548658 65.8414051,78.1819784 68.2954032,82.2825791 L72.2957688,78.0925911 L75,75.2600721 C73.9914196,73.9045254 72.8460982,72.6662395 71.5869787,71.5657189 C71.4071045,71.4087305 71.2247831,71.2543052 71.0403202,71.1027633 C67.1482462,67.9069283 62.2448387,66 56.9156066,66 C55.9269102,66 54.9528976,66.0653584 53.9966275,66.1928714 C53.6145478,66.2434922 53.2352213,66.3043652 52.8586479,66.3748498 C52.2945526,66.4802563 51.7374932,66.6074489 51.1883874,66.7554666 C41.4871108,69.3698038 34.2713408,78.4703244 34.0073418,89.3803765 C34.0024473,89.5863837 34,89.7927113 34,90 L42.6504809,90 L42.6504809,89.9897477 C42.6504809,81.9621946 48.8631768,75.4548658 56.5280205,75.4548658"/>
      <g opacity=".8" transform="translate(34 65)">
        <mask id="P" fill="white">
          <use xlink:href="#O"/>
        </mask>
        <path fill="#E6F9FF" fill-rule="nonzero" d="M22.9578222,9.47621053 C28.0031111,9.47621053 32.4296,12.1642105 34.9253333,16.206 L38.9937333,12.0761053 L41.7439556,9.28421053 C40.7182222,7.94810526 39.5534222,6.72757895 38.2728889,5.64284211 C38.0899556,5.48810526 37.9045333,5.33589474 37.7169333,5.18652632 C33.7586667,2.03652632 28.7718667,0.156947368 23.352,0.156947368 C22.3464889,0.156947368 21.3559111,0.221368421 20.3833778,0.347052632 C19.9948,0.396947368 19.6090222,0.456947368 19.2260444,0.526421053 C18.6523556,0.630315789 18.0858222,0.755684211 17.5273778,0.901578947 C7.66111111,3.47842105 0.322622222,12.4484211 0.0541333333,23.202 C0.0491555556,23.4050526 0.0466666667,23.6084211 0.0466666667,23.8127368 L8.84426667,23.8127368 L8.84426667,23.8026316 C8.84426667,15.8902105 15.1626222,9.47621053 22.9578222,9.47621053" mask="url(#P)"/>
      </g>
      <path fill="#A1D1E1" fill-rule="nonzero" d="M76,74 L73,77 L76,74 Z"/>
      <g opacity=".8" transform="translate(73 74)">
        <mask id="R" fill="white">
          <use xlink:href="#Q"/>
        </mask>
        <path fill="#E6F9FF" fill-rule="nonzero" d="M2.7531,0.12 L0.1011,2.7723 L2.7531,0.12 Z" mask="url(#R)"/>
      </g>
      <path fill="#FFFFFF" fill-rule="nonzero" d="M69,81 L61,89 L69,81 Z"/>
      <g opacity=".8" transform="translate(61 81)">
        <mask id="T" fill="white">
          <use xlink:href="#S"/>
        </mask>
        <path fill="#E6F9FF" fill-rule="nonzero" d="M7.76288,0.10176 L0.05472,7.80992 L7.76288,0.10176 Z" mask="url(#T)"/>
      </g>
      <path fill="#FFFFFF" fill-rule="nonzero" d="M71,88.9893723 C71,86.054467 70.1835549,83.316174 68.7733316,81 L61,89 L71,89 C71,88.9966788 71,88.9930256 71,88.9893723"/>
      <g opacity=".8" transform="translate(69 74)">
        <mask id="V" fill="white">
          <use xlink:href="#U"/>
        </mask>
        <path fill="#E6F9FF" fill-rule="nonzero" d="M7.78656,1.01876923 C7.56384,0.714769231 7.33408,0.415692308 7.09664,0.122769231 L4.26784,2.84338462 L0.08288,6.86707692 C0.2928,7.18953846 0.488,7.52184615 0.6704,7.86123077 L7.78656,1.01876923 L7.78656,1.01876923 Z" mask="url(#V)"/>
      </g>
      <path fill="#E5E5E5" fill-rule="nonzero" d="M71.5525479,87.9903467 C71.5525479,87.993665 71.5525479,87.9969833 71.5525479,88 L81,88 C81,87.2174781 80.9586028,86.4440061 80.8797948,85.6813942 C80.8724353,85.6105026 80.8647692,85.5396111 80.8567964,85.4684179 C80.7755352,84.7525642 80.6602364,84.0466654 80.5130464,83.3525317 C80.4971008,83.2783218 80.4808486,83.2044136 80.4642897,83.1305054 C80.3008475,82.3983617 80.1021409,81.6791897 79.8681702,80.9754026 C79.7706568,80.6803731 79.6663972,80.3883603 79.556618,80.0987608 C79.4468388,79.8097647 79.3309266,79.5231819 79.2101082,79.2396157 C79.0886764,78.9560496 78.9614184,78.6755001 78.8286407,78.3979672 C78.6961697,78.1204344 78.5578724,77.8456166 78.4140555,77.5744187 C77.939981,76.6790737 77.4061106,75.8196269 76.8185772,75 L70,81.707848 C70.9907727,83.5896412 71.5525479,85.7251357 71.5525479,87.9903467"/>
      <g opacity=".8" transform="translate(70 75)">
        <mask id="X" fill="white">
          <use xlink:href="#W"/>
        </mask>
        <path fill="#E6F9FF" fill-rule="nonzero" d="M1.57636111,13.8008182 C1.57636111,13.8043182 1.57636111,13.8078182 1.57636111,13.811 L10.9902222,13.811 C10.9902222,12.9856364 10.9489722,12.1698182 10.8704444,11.3654545 C10.8631111,11.2906818 10.8554722,11.2159091 10.8475278,11.1408182 C10.7665556,10.3857727 10.6516667,9.64122727 10.505,8.90909091 C10.4891111,8.83081818 10.4729167,8.75286364 10.4564167,8.67490909 C10.2935556,7.90268182 10.0955556,7.14413636 9.86241667,6.40181818 C9.76525,6.09063636 9.66136111,5.78263636 9.55197222,5.47718182 C9.44258333,5.17236364 9.32708333,4.87009091 9.20669444,4.571 C9.08569444,4.27190909 8.95888889,3.976 8.82658333,3.68327273 C8.69458333,3.39054545 8.55677778,3.10068182 8.41347222,2.81463636 C7.94108333,1.87027273 7.40911111,0.963772727 6.82366667,0.0992727273 L0.0293333333,7.17436364 C1.01658333,9.15918182 1.57636111,11.4115909 1.57636111,13.8008182" mask="url(#X)"/>
      </g>
      <g opacity=".8" transform="translate(61 81)">
        <mask id="Z" fill="white">
          <use xlink:href="#Y"/>
        </mask>
        <path fill="#E6F9FF" fill-rule="nonzero" d="M7.18785185,0.10176 L0.0506666667,7.80992 L1.552,7.80992 L7.73185185,1.13536 C7.56266667,0.7824 7.38222222,0.43712 7.18785185,0.10176" mask="url(#Z)"/>
      </g>
      <path fill="#E5E5E5" fill-rule="nonzero" d="M71,87.9907949 C71,85.8307604 70.4345679,83.7944194 69.4373457,82 L63,88 L71,88 C71,87.9971234 71,87.9939592 71,87.9907949"/>
      <g opacity=".8" transform="translate(63 82)">
        <mask id="ab" fill="white">
          <use xlink:href="#aa"/>
        </mask>
        <path fill="#E6F9FF" fill-rule="nonzero" d="M7.75081481,6.80081818 C7.75081481,4.41159091 7.208,2.15918182 6.25066667,0.174363636 L0.0708148148,6.811 L7.75081481,6.811 C7.75081481,6.80781818 7.75081481,6.80431818 7.75081481,6.80081818" mask="url(#ab)"/>
      </g>
      <path fill="#FFFFFF" fill-rule="nonzero" d="M57.069687,75 C49.2987165,75 43,81.2634419 43,88.9901319 L43,89 L61.529249,89 L69,81.5718188 C66.512024,77.6249036 62.0992938,75 57.069687,75"/>
      <g opacity=".8" transform="translate(43 75)">
        <mask id="ad" fill="white">
          <use xlink:href="#ac"/>
        </mask>
        <path fill="#E6F9FF" fill-rule="nonzero" d="M14.0072706,0.00243478261 C6.34308235,0.00243478261 0.130917647,6.18404348 0.130917647,13.8097826 L0.130917647,13.8195217 L18.4055529,13.8195217 L25.7736471,6.4883913 C23.3198588,2.59304348 18.9677647,0.00243478261 14.0072706,0.00243478261" mask="url(#ad)"/>
      </g>
      <path fill="#39BA91" fill-rule="nonzero" d="M56.4966141,4.21457804e-15 C54.5656171,4.21457804e-15 53,1.56561712 53,3.49631753 C53,4.47827591 53.4054174,5.36473728 54.0566952,6 L59,1.05669517 C58.3650339,0.405417429 57.4779793,0 56.4966141,0"/>
      <path fill="#074354" fill-rule="nonzero" d="M56.4661271,7 C58.4175659,7 60,5.41756595 60,3.46582734 C60,2.50629496 59.6172062,1.63699041 58.9964029,1 L54,5.99640288 C54.6366906,6.61690647 55.506295,7 56.4661271,7"/>
      <rect width="57" height="1" x="30" y="86" fill="#39BA91" fill-rule="nonzero"/>
      <path stroke="#124354" stroke-width=".2" d="M35,84 L81,84"/>
    </g>
    <g transform="translate(1039 164)">
      <rect width="45.701" height="1" x=".091" y="118.014" fill="#BADDE5" fill-rule="nonzero"/>
      <path fill="#E5E5E5" fill-rule="nonzero" d="M41 45C41 42.2386792 43.2386792 40 46 40 48.7613208 40 51 42.2386792 51 45 51 47.7613208 48.7613208 50 46 50 43.2386792 50 41 47.7613208 41 45M18 55C18 53.8956508 18.8954123 53 20.0001537 53 21.1045877 53 22 53.8956508 22 55 22 56.1043492 21.1045877 57 20.0001537 57 18.8954123 57 18 56.1043492 18 55"/>
      <path fill="#39BA91" fill-rule="nonzero" d="M55 40.5C55 39.1190269 56.1190269 38 57.5 38 58.8803509 38 60 39.1190269 60 40.5 60 41.8809731 58.8803509 43 57.5 43 56.1190269 43 55 41.8809731 55 40.5M45.3882164 46C35.2324554 46 27 54.2327553 27 64.3885163 27 70.3452751 29.8335242 75.6398386 34.2247669 79L60 53.2250668C56.6395387 48.8332243 51.3452751 46 45.3882164 46"/>
      <path fill="#074354" fill-rule="nonzero" d="M63,64.3325079 C63,60.0701064 61.6182208,56.1423033 59.2937708,53 L34,79.1656653 C37.0372656,81.5702687 40.8347305,83 44.955052,83 C54.9209325,83 63,74.6423439 63,64.3325079"/>
      <path fill="#074354" fill-rule="nonzero" d="M65.9116944,65.47125 C65.9116944,60.8268056 64.3539722,56.5459722 61.7338333,53.1219167 L33.2215278,81.6345278 C36.6455833,84.2546667 40.9258056,85.8126944 45.57025,85.8126944 C56.8046111,85.8126944 65.9116944,76.7053056 65.9116944,65.47125" opacity=".4"/>
      <g opacity=".18" transform="translate(31 49)">
        <mask id="af" fill="white">
          <use xlink:href="#ae"/>
        </mask>
        <path fill="#7DACBC" fill-rule="nonzero" d="M38.9981719,14.6748837 C38.9981719,9.18162791 37.1411016,4.11888372 34.0180547,0.068627907 L0.0301640625,33.7933488 C4.11175781,36.892186 9.21405469,38.7348605 14.7502266,38.7348605 C28.1424609,38.7348605 38.9981719,27.9626977 38.9981719,14.6748837" mask="url(#af)"/>
      </g>
      <path fill="#39BA91" fill-rule="nonzero" d="M44.9672341,12 C40.0147151,12 36,16.0147917 36,20.9671 C36,23.8189928 37.3327488,26.3576684 39.4072013,28 L52,15.4072662 C50.3576997,13.3324692 47.8190725,12 44.9672341,12"/>
      <polygon fill="#FFFFFF" fill-rule="nonzero" points="46 98 45 98 45.476 0 45.468 0 46 98"/>
      <path fill="#074354" fill-rule="nonzero" d="M54,21.358344 C54,19.3332773 53.3016899,17.4728025 52.1354886,16 L40,28.1359982 C41.4730345,29.3022484 43.3337252,30 45.358119,30 C50.1304923,30 54,26.1309176 54,21.358344"/>
      <path stroke="#FFFFFF" stroke-width=".12" d="M18,65.0001512 C18,50.0883069 30.0883069,38 45.0001512,38 C59.9116931,38 72,50.0883069 72,65.0001512 C72,79.9116931 59.9116931,92 45.0001512,92 C30.0883069,92 18,79.9116931 18,65.0001512 Z"/>
      <path stroke="#124354" stroke-width=".29" d="M16,137 L45,137"/>
      <g transform="translate(22 97)">
        <path fill="#E6F9FF" d="M26.8661018,0.647979255 C25.4558324,0.301065833 23.9961171,0.0816087081 22.5,0 C21.0038829,0.0816087081 19.5441676,0.301065833 18.1335949,0.647979255 C11.0971121,2.37918421 5.28797929,7.26195242 2.26176994,13.7273794 C0.796291053,16.89178 0,20.3224022 0,23.9409996 C0,26.3981247 0.367658955,28.7681394 1.04898075,31 L43.9507159,31 C44.632341,28.7681394 45,26.3981247 45,23.9409996 C45,12.6649379 37.2746117,3.20841427 26.8661018,0.647979255 Z"/>
        <path fill="#124354" fill-rule="nonzero" d="M9.00012828,11.3268552 C8.07754474,11.3268552 7.32659868,12.0775447 7.32659868,13.0001283 C7.32659868,13.9224553 8.07754474,14.6734013 9.00012828,14.6734013 C9.92271182,14.6734013 10.6731448,13.9224553 10.6731448,13.0001283 C10.6731448,12.0775447 9.92271182,11.3268552 9.00012828,11.3268552 M9.00012828,15 C7.89718427,15 7,14.1030723 7,13.0001283 C7,11.8974408 7.89718427,11 9.00012828,11 C10.1030723,11 11,11.8974408 11,13.0001283 C11,14.1030723 10.1030723,15 9.00012828,15"/>
        <polygon fill="#124354" fill-rule="nonzero" points="2 13 7 13 7 13.444 2 13.444"/>
        <path fill="#124354" fill-rule="nonzero" d="M6.99987172,17.3268552 C6.07728818,17.3268552 5.32685524,18.0775447 5.32685524,19.0001283 C5.32685524,19.9224553 6.07728818,20.6734013 6.99987172,20.6734013 C7.92245526,20.6734013 8.67340132,19.9224553 8.67340132,19.0001283 C8.67340132,18.0775447 7.92245526,17.3268552 6.99987172,17.3268552 M6.99987172,21 C5.89692771,21 5,20.1028157 5,19.0001283 C5,17.8969277 5.89692771,17 6.99987172,17 C8.10281573,17 9,17.8969277 9,19.0001283 C9,20.1028157 8.10281573,21 6.99987172,21"/>
        <polygon fill="#124354" fill-rule="nonzero" points="0 19 5 19 5 19.444 0 19.444"/>
      </g>
      <path fill="#124354" fill-rule="nonzero" d="M25,111 L25,111.1445 C25.023,111.0965 25.045,111.048 25.0675,111 L25,111 Z"/>
      <path fill="#B8D6DD" fill-rule="nonzero" d="M50.9344213,97.6792642 C49.1260199,97.236424 47.2366274,97 45.2922333,97 C44.8585675,97 44.4279238,97.0136398 44,97.036676 C45.4904805,97.1176058 46.9446963,97.334934 48.3496525,97.6792642 C58.7189483,100.2187 66.4152312,109.596245 66.4152312,120.778492 C66.4152312,123.215175 66.0489574,125.565168 65.3699003,127.778763 C64.5633122,130.409435 63.3145966,132.845814 61.7092777,135 L64.2940465,135 C65.8993654,132.845814 67.1477788,130.409435 67.9546691,127.778763 C68.633424,125.565168 69,123.215175 69,120.778492 C69,109.596245 61.3034149,100.2187 50.9344213,97.6792642"/>
      <path fill="#E6F9FF" fill-rule="nonzero" d="M39.1513497,7.91744 C40.7483636,5.6432 41.9911538,3.07136 42.7934196,0.29376 L0.267020979,0.29376 C1.06958741,3.07136 2.31207692,5.6432 3.90909091,7.91744 L39.1513497,7.91744 L39.1513497,7.91744 Z" opacity=".76" transform="translate(23 128)"/>
    </g>
    <g transform="translate(346 176)">
      <path fill="#083749" d="M0.523762833,152 L28.0891053,119 C28.0891053,119 147.479172,119.641 146.998377,119.641 L118.983793,152 L0.523762833,152 Z" opacity=".2"/>
      <path fill="#6594A4" fill-rule="nonzero" d="M252.860474 130.457186L152.666465 130.457186C152.060483 130.457186 151.568731 129.965936 151.568731 129.358319L151.568731 126.194112C151.568731 125.586495 152.060483 125.094548 152.666465 125.094548L252.860474 125.094548C253.467153 125.094548 253.958905 125.586495 253.958905 126.194112L253.958905 129.358319C253.958905 129.965936 253.467153 130.457186 252.860474 130.457186M188.128988 123.164388L120.442815 123.164388C120.033254 123.164388 119.700312 122.832707 119.700312 122.422287L119.700312 120.284479C119.700312 119.874059 120.033254 119.542378 120.442815 119.542378L188.128988 119.542378C188.538549 119.542378 188.870795 119.874059 188.870795 120.284479L188.870795 122.422287C188.870795 122.832707 188.538549 123.164388 188.128988 123.164388"/>
      <path fill="#B8D6DD" fill-rule="nonzero" d="M105.585792,2.27438298 C99.9006994,0.885643617 93.9634624,0.14493617 87.852789,0.14493617 C86.4896763,0.14493617 85.136315,0.186744681 83.7906156,0.260606383 C88.476185,0.512851064 93.0461301,1.1957234 97.4614451,2.27438298 C130.049382,10.2340266 154.237841,39.630984 154.237841,74.6832394 C154.237841,91.3989787 148.737329,106.8305 139.448382,119.262957 L147.571335,119.262957 C156.860283,106.8305 162.361491,91.3989787 162.361491,74.6832394 C162.361491,39.630984 138.173032,10.2340266 105.585792,2.27438298"/>
      <path fill="#E6F9FF" fill-rule="nonzero" d="M83.7913121,0.260606383 C79.1064393,0.512851064 74.5364942,1.1957234 70.1204827,2.27438298 C37.5318497,10.2340266 13.3440867,39.630984 13.3440867,74.6832394 C13.3440867,91.3989787 18.8445983,106.8305 28.1335462,119.262957 L139.448382,119.262957 C148.737329,106.8305 154.238538,91.3989787 154.238538,74.6832394 C154.238538,39.630984 130.050078,10.2340266 97.4614451,2.27438298 C93.0454335,1.1957234 88.4754884,0.512851064 83.7913121,0.260606383 Z"/>
      <g fill="#124354" fill-rule="nonzero" transform="translate(15 37)">
        <path d="M24.1547688,1.83244149 C21.6500405,1.83244149 19.6112919,3.87130319 19.6112919,6.3770266 C19.6112919,8.88205319 21.6500405,10.9216117 24.1547688,10.9216117 C26.6594971,10.9216117 28.6968526,8.88205319 28.6968526,6.3770266 C28.6968526,3.87130319 26.6594971,1.83244149 24.1547688,1.83244149 M24.1547688,11.8086489 C21.1603786,11.8086489 18.7246069,9.37260638 18.7246069,6.3770266 C18.7246069,3.38214362 21.1603786,0.944707447 24.1547688,0.944707447 C27.149159,0.944707447 29.5842341,3.38214362 29.5842341,6.3770266 C29.5842341,9.37260638 27.149159,11.8086489 24.1547688,11.8086489"/>
        <polygon points="5.298 5.933 19.237 5.933 19.237 6.82 5.298 6.82"/>
        <path d="M18.9904249,15.5679309 C16.4856965,15.5679309 14.448341,17.6067926 14.448341,20.112516 C14.448341,22.6175426 16.4856965,24.6571011 18.9904249,24.6571011 C21.4951532,24.6571011 23.5339017,22.6175426 23.5339017,20.112516 C23.5339017,17.6067926 21.4951532,15.5679309 18.9904249,15.5679309 M18.9904249,25.5441383 C15.9960347,25.5441383 13.5609595,23.1073989 13.5609595,20.112516 C13.5609595,17.1162394 15.9960347,14.6801968 18.9904249,14.6801968 C21.984815,14.6801968 24.4205867,17.1162394 24.4205867,20.112516 C24.4205867,23.1073989 21.984815,25.5441383 18.9904249,25.5441383"/>
        <polygon points=".135 19.669 14.074 19.669 14.074 20.556 .135 20.556"/>
      </g>
    </g>
    <g transform="translate(150 56)">
      <path fill="#083749" d="M121.275216,271.936 L18,271.936 L78.0891053,200 C78.0891053,200 183.479172,200.641 182.998377,200.641 L121.275216,271.936 Z" opacity=".2"/>
      <path stroke="#E5E5E5" stroke-width=".14" d="M0.120389041,160.059847 C0.120389041,89.9899452 56.9224438,33.1878904 126.992345,33.1878904 C197.060855,33.1878904 253.864301,89.9899452 253.864301,160.059847 C253.864301,230.129748 197.060855,286.931803 126.992345,286.931803 C56.9224438,286.931803 0.120389041,230.129748 0.120389041,160.059847 Z"/>
      <path fill="#A1D1E1" fill-rule="nonzero" d="M128.902093,63 C114.044885,63 102,75.0453981 102,89.9023941 C102,98.4571074 105.99783,106.073708 112.222083,111 L150,73.222622 C145.073637,66.9977729 137.456928,63 128.902093,63"/>
      <path stroke="#A9CAD3" stroke-width=".2" d="M106,116.410451 C111.997433,121.158709 119.572258,124 127.815245,124 C147.247681,124 163,108.247488 163,88.8162083 C163,80.5724239 160.15735,72.9982032 155.40915,67"/>
      <rect width="2" height="159" x="127" y="8" fill="#E5E5E5" fill-rule="nonzero"/>
      <path fill="#FFFFFF" fill-rule="nonzero" d="M86.1902212,92.2480673 C86.1902212,102.692683 89.7917885,112.291481 95.8079712,119.889798 L158.41249,57.2845769 C150.814173,51.2690962 141.215375,47.6675288 130.77076,47.6675288 C106.150106,47.6675288 86.1902212,67.6267115 86.1902212,92.2480673" opacity=".2"/>
      <path fill="#FFFFFF" fill-rule="nonzero" d="M156 89.8396855C156 83.4769811 153.805535 77.6296855 150.140943 73L112 111.140943C116.629686 114.805535 122.476981 117 128.840377 117 143.839811 117 156 104.839811 156 89.8396855M181.989893 158.647238C187.325682 165.522344 191.341627 173.428961 193.632373 181.830089 195.981624 190.217288 196.538814 199.073924 195.498262 207.708379 194.443781 216.348405 191.653653 224.772518 187.342397 232.336459 183.0395 239.905275 177.233582 246.612526 170.366219 251.964398 163.504427 257.323234 155.579099 261.319028 147.18016 263.623035 138.783311 265.927042 129.931655 266.568515 121.289642 265.493126 112.644147 264.436542 104.215259 261.647078 96.6430502 257.338557 89.0610907 253.045359 82.3560086 247.22196 77.0048976 240.348943 71.6516971 233.475925 67.6622185 225.544931 65.3624178 217.14241 63.0521698 208.741978 62.442047 199.888824 63.5069759 191.246708 64.5684224 182.603199 67.3655149 174.176997 71.683039 166.615146 75.9922052 159.047722 81.8043908 152.34256 88.6745404 146.995565 95.5398145 141.641604 103.467928 137.652078 111.865474 135.354339 120.262324 133.03292 129.107711 132.463883 137.749027 133.489821 146.388951 134.572871 154.799034 137.37139 162.374028 141.661106 169.923949 145.99679 176.617888 151.797205 181.989893 158.647238M181.989893 158.647238C176.613012 151.79999 169.916288 146.006541 162.36567 141.677125 154.789979 137.392982 146.379897 134.600731 137.744152 133.525342 129.107014 132.505673 120.267896 133.080282 111.879404 135.406577 103.490216 137.707101 95.5725494 141.69802 88.7184191 147.051284 81.8580203 152.39828 76.059068 159.098567 71.7603491 166.659025 67.4539688 174.214608 64.6659306 182.62897 63.612842 191.260638 62.5555745 199.888824 63.1712691 208.727352 65.4822136 217.110371 67.7827108 225.494087 71.7700999 233.406972 77.1163355 240.261881 82.4535168 247.122361 89.1390973 252.940884 96.7043411 257.229903 104.259138 261.535638 112.672006 264.325799 121.302875 265.386562 129.930959 266.467523 138.769381 265.831623 147.15648 263.53667 155.545668 261.241717 163.464031 257.257067 170.32234 251.907982 177.186221 246.566558 182.992138 239.869057 187.295036 232.309295 191.609078 224.755802 194.403384 216.339351 195.462741 207.703503 196.508169 199.074621 195.95864 190.221467 193.614961 181.834965 191.331179 173.43314 187.321503 165.525827 181.989893 158.647238"/>
      <path fill="#FFFFFF" fill-rule="nonzero" d="M92,142.50036 C92,140.567239 93.5665192,139 95.4996399,139 C97.4327606,139 99,140.567239 99,142.50036 C99,144.433481 97.4327606,146 95.4996399,146 C93.5665192,146 92,144.433481 92,142.50036"/>
      <path fill="#7DACBC" fill-rule="nonzero" d="M176 175C176.346893 175.658608 176.679734 176.326007 177 177 176.679734 176.326007 176.346893 175.658608 176 175M176 175C174.56774 172.172811 172.891561 169.495195 171 167 172.891561 169.495195 174.56774 172.172811 176 175M179 183C179.784979 184.632839 180.451646 186.301372 181 188 180.451646 186.301372 179.784979 184.632839 179 183M180 189C180.42959 190.640057 180.764706 192.307912 181 194 180.764706 192.307912 180.42959 190.640057 180 189M177 179C177.349248 179.659881 177.683466 180.326079 178 181 177.683466 180.326079 177.349248 179.659881 177 179"/>
      <path fill="#A1D1E1" fill-rule="nonzero" d="M170,167 C167.635924,164.064608 164.951331,161.383141 162,159 C164.951331,161.383141 167.635924,164.064608 170,167"/>
      <g opacity=".8" transform="translate(181 193)">
        <mask id="ah" fill="white">
          <use xlink:href="#ag"/>
        </mask>
        <path fill="#E6F9FF" fill-rule="nonzero" d="M0.501,0.015 C0.528,0.25 0.553,0.486 0.577,0.72 C0.553,0.486 0.528,0.25 0.501,0.015" mask="url(#ah)"/>
      </g>
      <path fill="#E6F9FF" fill-rule="nonzero" d="M0.185,9.51285714 L9.52571429,0.172142857 L0.185,9.51285714 Z" opacity=".8" transform="translate(155 173)"/>
      <g opacity=".8" transform="translate(180 188)">
        <mask id="aj" fill="white">
          <use xlink:href="#ai"/>
        </mask>
        <path fill="#E6F9FF" fill-rule="nonzero" d="M0.222,0.264 C0.275,0.509 0.329,0.754 0.379,1 C0.329,0.754 0.275,0.509 0.222,0.264" mask="url(#aj)"/>
      </g>
      <path fill="#7DACBC" fill-rule="nonzero" d="M164.016919,173.149459 L155,182.245316 C158.013683,187.096857 159.757359,192.831066 159.757359,198.977742 C159.757359,198.985393 159.756669,198.993044 159.756669,199 L181,199 C181,197.195714 180.906921,195.412294 180.729727,193.653915 C180.71318,193.490458 180.695253,193.327001 180.678016,193.164239 C180.495306,191.512281 180.236065,189.884667 179.903739,188.28418 C179.869265,188.113072 179.832034,187.94266 179.795492,187.772247 C179.428003,186.084119 178.981225,184.425901 178.455158,182.803156 C178.234527,182.122897 178.000796,181.449594 177.753964,180.781855 C177.507133,180.115507 177.247202,179.454723 176.974171,178.800896 C176.70114,178.147068 176.415009,177.500196 176.117157,176.860279 C175.818616,176.220363 175.507664,175.586706 175.184991,174.961396 C173.731583,172.14785 172.031344,169.483154 170.111854,167 L164.016919,173.149459 L164.016919,173.149459 Z"/>
      <path fill="#A1D1E1" fill-rule="nonzero" d="M128.100144,167.879495 C139.352959,167.879495 149.225626,173.901869 154.792012,182.957362 L163.866012,173.704472 L170,167.449326 C167.712245,164.455827 165.11432,161.721279 162.258269,159.290962 C161.850262,158.94428 161.436703,158.603257 161.018287,158.268602 C152.189924,151.211133 141.067561,147 128.979303,147 C126.73665,147 124.527304,147.144333 122.358204,147.425924 C121.491535,147.537712 120.631112,147.67214 119.776933,147.827793 C118.4974,148.060566 117.233826,148.34145 115.988293,148.668322 C93.9829587,154.44165 77.6154805,174.538633 77.0166534,198.631665 C77.0055511,199.086597 77,199.542237 77,200 L96.6218225,200 L96.6218225,199.977359 C96.6218225,182.249846 110.714035,167.879495 128.100144,167.879495"/>
      <g opacity=".8" transform="translate(77 146)">
        <mask id="al" fill="white">
          <use xlink:href="#ak"/>
        </mask>
        <path fill="#E6F9FF" fill-rule="nonzero" d="M51.3817926,20.9266316 C62.6736296,20.9266316 72.5805333,26.8626316 78.1662222,35.78825 L87.2716889,26.6680658 L93.4269481,20.5026316 C91.1312593,17.5520658 88.5243259,14.8567368 85.6583704,12.4612763 C85.2489481,12.1195658 84.8339556,11.7834342 84.4140889,11.4535789 C75.5551111,4.49732895 64.3941778,0.346592105 52.264,0.346592105 C50.0135704,0.346592105 47.796563,0.488855263 45.6199407,0.766407895 C44.7502667,0.876592105 43.8868593,1.00909211 43.0297185,1.16251316 C41.7457481,1.39194737 40.4777926,1.66880263 39.2279407,1.99098684 C17.1462963,7.68151316 0.722059259,27.4902632 0.121155556,51.23775 C0.110014815,51.6861579 0.104444444,52.1352632 0.104444444,52.5864605 L19.7943111,52.5864605 L19.7943111,52.5641447 C19.7943111,35.0908816 33.9353926,20.9266316 51.3817926,20.9266316" mask="url(#al)"/>
      </g>
      <path fill="#A1D1E1" fill-rule="nonzero" d="M170,167 L164,173 L170,167 Z"/>
      <g opacity=".8" transform="translate(164 167)">
        <mask id="an" fill="white">
          <use xlink:href="#am"/>
        </mask>
        <path fill="#E6F9FF" fill-rule="nonzero" d="M6.4239,0.28 L0.2359,6.4687 L6.4239,0.28 Z" mask="url(#an)"/>
      </g>
      <path fill="#FFFFFF" fill-rule="nonzero" d="M155,182 L138,199 L155,182 Z"/>
      <g opacity=".8" transform="translate(138 182)">
        <mask id="ap" fill="white">
          <use xlink:href="#ao"/>
        </mask>
        <path fill="#E6F9FF" fill-rule="nonzero" d="M17.46648,0.22896 L0.12312,17.57232 L17.46648,0.22896 Z" mask="url(#ap)"/>
      </g>
      <path fill="#FFFFFF" fill-rule="nonzero" d="M160,198.977416 C160,192.740742 158.203821,186.92187 155.10133,182 L138,199 L160,199 C160,198.992943 160,198.985179 160,198.977416"/>
      <g opacity=".8" transform="translate(155 167)">
        <mask id="ar" fill="white">
          <use xlink:href="#aq"/>
        </mask>
        <path fill="#E6F9FF" fill-rule="nonzero" d="M17.51976,2.29223077 C17.01864,1.60823077 16.50168,0.935307692 15.96744,0.276230769 L9.60264,6.39761538 L0.18648,15.4509231 C0.6588,16.1764615 1.098,16.9241538 1.5084,17.6877692 L17.51976,2.29223077 L17.51976,2.29223077 Z" mask="url(#ar)"/>
      </g>
      <path fill="#E5E5E5" fill-rule="nonzero" d="M160.528518,198.977723 C160.528518,198.985381 160.528518,198.993038 160.528518,199 L182,199 C182,197.19418 181.905915,195.409245 181.726806,193.649371 C181.71008,193.485775 181.692657,193.322179 181.674537,193.157887 C181.489853,191.505917 181.22781,189.87692 180.893287,188.275073 C180.857047,188.10382 180.82011,187.933262 180.782477,187.762705 C180.411017,186.073142 179.959411,184.413515 179.427659,182.789391 C179.206038,182.108553 178.969085,181.434678 178.719586,180.766371 C178.470088,180.099457 178.206651,179.438112 177.932064,178.783729 C177.656083,178.129345 177.36686,177.481923 177.065093,176.841463 C176.764022,176.201002 176.44971,175.566807 176.122853,174.940966 C175.045411,172.874785 173.83207,170.891447 172.496766,169 L157,184.479649 C159.251756,188.822249 160.528518,193.750313 160.528518,198.977723"/>
      <g opacity=".8" transform="translate(157 169)">
        <mask id="at" fill="white">
          <use xlink:href="#as"/>
        </mask>
        <path fill="#E6F9FF" fill-rule="nonzero" d="M3.58263889,30.5589545 C3.58263889,30.5667045 3.58263889,30.5744545 3.58263889,30.5815 L24.9777778,30.5815 C24.9777778,28.7539091 24.8840278,26.9474545 24.7055556,25.1663636 C24.6888889,25.0007955 24.6715278,24.8352273 24.6534722,24.6689545 C24.4694444,22.9970682 24.2083333,21.3484318 23.875,19.7272727 C23.8388889,19.5539545 23.8020833,19.3813409 23.7645833,19.2087273 C23.3944444,17.4987955 22.9444444,15.8191591 22.4145833,14.1754545 C22.19375,13.4864091 21.9576389,12.8044091 21.7090278,12.1280455 C21.4604167,11.4530909 21.1979167,10.7837727 20.9243056,10.1215 C20.6493056,9.45922727 20.3611111,8.804 20.0604167,8.15581818 C19.7604167,7.50763636 19.4472222,6.86579545 19.1215278,6.23240909 C18.0479167,4.14131818 16.8388889,2.13406818 15.5083333,0.219818182 L0.0666666667,15.8860909 C2.31041667,20.2810455 3.58263889,25.2685227 3.58263889,30.5589545" mask="url(#at)"/>
      </g>
      <g opacity=".8" transform="translate(138 182)">
        <mask id="av" fill="white">
          <use xlink:href="#au"/>
        </mask>
        <path fill="#E6F9FF" fill-rule="nonzero" d="M17.0711481,0.22896 L0.120333333,17.57232 L3.686,17.57232 L18.3631481,2.55456 C17.9613333,1.7604 17.5327778,0.98352 17.0711481,0.22896" mask="url(#av)"/>
      </g>
      <path fill="#E5E5E5" fill-rule="nonzero" d="M160,197.978521 C160,192.938441 158.727778,188.186979 156.484028,184 L142,198 L160,198 C160,197.993288 160,197.985905 160,197.978521"/>
      <g opacity=".8" transform="translate(142 184)">
        <mask id="ax" fill="white">
          <use xlink:href="#aw"/>
        </mask>
        <path fill="#E6F9FF" fill-rule="nonzero" d="M18.4081852,14.5731818 C18.4081852,9.45340909 17.119,4.62681818 14.8453333,0.373636364 L0.168185185,14.595 L18.4081852,14.595 C18.4081852,14.5881818 18.4081852,14.5806818 18.4081852,14.5731818" mask="url(#ax)"/>
      </g>
      <path fill="#FFFFFF" fill-rule="nonzero" d="M128.386225,168 C111.050983,168 97,182.316439 97,199.977444 L97,200 L138.334478,200 L155,183.0213 C149.4499,173.99978 139.606117,168 128.386225,168"/>
      <path fill="#E6F9FF" fill-rule="nonzero" d="M128.785729,168.005565 C111.393918,168.005565 97.2970824,182.134957 97.2970824,199.565217 L97.2970824,199.587478 L138.766447,199.587478 L155.486353,182.830609 C149.918141,173.926957 140.042235,168.005565 128.785729,168.005565"/>
      <path fill="#A1D1E1" fill-rule="nonzero" d="M128.158766,9.83401542e-15 C123.653107,9.83401542e-15 120,3.65310662 120,8.15807424 C120,10.4493105 120.945974,12.5177203 122.465622,14 L134,2.46562207 C132.518412,0.945974 130.448618,0 128.158766,0"/>
      <path fill="#FFFFFF" fill-rule="nonzero" d="M127.754297,17 C132.307654,17 136,13.3076539 136,8.75359712 C136,6.51468825 135.106815,4.48631095 133.658273,3 L122,14.6582734 C123.485612,16.1061151 125.514688,17 127.754297,17"/>
      <rect width="128" height="3" x="68" y="192" fill="#7DACBC" fill-rule="nonzero"/>
      <path stroke="#124354" stroke-width=".35" d="M35,217 L208,217"/>
      <path stroke="#124354" stroke-width=".2" d="M172 211L195 211M79 189L182 189"/>
    </g>
    <path fill="#083749" d="M50,328 L64.2003279,310 C64.2003279,310 150.590395,310.641 150.109599,310.641 L135.946907,328 L50,327 L50,328 Z" opacity=".2"/>
    <rect width="105.311" height="2.53" x=".209" y="271.042" fill="#BADDE5" fill-rule="nonzero"/>
    <path fill="#E5E5E5" fill-rule="nonzero" d="M94 104.5C94 98.1489623 99.1489623 93 105.5 93 111.851038 93 117 98.1489623 117 104.5 117 110.851038 111.851038 116 105.5 116 99.1489623 116 94 110.851038 94 104.5M42 127.5C42 125.015214 44.0146776 123 46.5003458 123 48.9853224 123 51 125.015214 51 127.5 51 129.984786 48.9853224 132 46.5003458 132 44.0146776 132 42 129.984786 42 127.5"/>
    <path fill="#6594A4" fill-rule="nonzero" d="M127,93.5 C127,90.4618591 129.461859,88 132.5,88 C135.536772,88 138,90.4618591 138,93.5 C138,96.5381409 135.536772,99 132.5,99 C129.461859,99 127,96.5381409 127,93.5"/>
    <path fill="#7DACBC" fill-rule="nonzero" d="M104.905838,106 C81.2090627,106 62,125.209762 62,148.906538 C62,162.805642 68.6115564,175.159623 78.8577894,183 L139,122.858489 C131.158924,112.610857 118.805642,106 104.905838,106"/>
    <path fill="#E5E5E5" fill-rule="nonzero" d="M146,148.687018 C146,139.025574 142.759966,130.122554 137.309532,123 L78,182.308841 C85.1218641,187.759276 94.0262645,191 103.687708,191 C127.05598,191 146,172.05598 146,148.687018"/>
    <path fill="#7DACBC" fill-opacity=".6" fill-rule="nonzero" d="M149.795833,149.34375 C149.795833,138.788194 146.255556,129.059028 140.300694,121.277083 L75.5,186.078472 C83.2819444,192.033333 93.0097222,195.574306 103.565278,195.574306 C129.097917,195.574306 149.795833,174.875694 149.795833,149.34375"/>
    <g opacity=".18" transform="translate(71 113)">
      <mask id="az" fill="white">
        <use xlink:href="#ay"/>
      </mask>
      <path fill="#7DACBC" fill-rule="nonzero" d="M88.9958281,33.8651163 C88.9958281,21.1883721 84.7578984,9.50511628 77.6309453,0.158372093 L0.0688359375,77.9846512 C9.38324219,85.135814 21.0269453,89.3881395 33.6607734,89.3881395 C64.2225391,89.3881395 88.9958281,64.5293023 88.9958281,33.8651163" mask="url(#az)"/>
    </g>
    <path fill="#B7E8F8" fill-rule="nonzero" d="M104.736729,28 C93.2840287,28 84,37.2842057 84,48.7364187 C84,55.3314208 87.0819816,61.2021082 91.8791529,65 L121,35.8793031 C117.202181,31.0813351 111.331605,28 104.736729,28"/>
    <polygon fill="#FFFFFF" fill-rule="nonzero" points="106 225 103 225 104.427 0 104.403 0 106 225"/>
    <path fill="#6594A4" fill-rule="nonzero" d="M125,48.6303823 C125,43.8570109 123.353983,39.4716058 120.60508,36 L92,64.6062814 C95.4721528,67.3552999 99.8580665,69 104.629852,69 C115.879018,69 125,59.8800202 125,48.6303823"/>
    <path stroke="#FFFFFF" stroke-width=".12" d="M42,149.000347 C42,114.758334 69.7583344,87 104.000347,87 C138.241666,87 166,114.758334 166,149.000347 C166,183.241666 138.241666,211 104.000347,211 C69.7583344,211 42,183.241666 42,149.000347 Z"/>
    <path stroke="#124354" stroke-width=".29" d="M47 313L161 313M36 317L103 317"/>
    <path fill="#B8D6DD" fill-rule="nonzero" d="M118.087857,225.573033 C113.892366,224.547508 109.508976,224 104.997981,224 C103.991877,224 102.992783,224.031587 102,224.084934 C105.457915,224.27235 108.831695,224.775637 112.091194,225.573033 C136.14796,231.453832 154.003336,253.170251 154.003336,279.065982 C154.003336,284.708825 153.153581,290.150916 151.578169,295.277136 C149.706884,301.369217 146.809864,307.011359 143.085524,312 L149.082188,312 C152.806528,307.011359 155.702847,301.369217 157.574832,295.277136 C159.149544,290.150916 160,284.708825 160,279.065982 C160,253.170251 142.143923,231.453832 118.087857,225.573033"/>
    <path fill="#E6F9FF" fill-rule="nonzero" d="M143.139154,312.81424 C146.816,307.6972 149.677308,301.91056 151.524385,295.66096 L53.6147692,295.66096 C55.4625385,301.91056 58.3231538,307.6972 62,312.81424 L143.139154,312.81424 L143.139154,312.81424 Z" opacity=".6"/>
    <g transform="translate(51 224)">
      <path fill="#E6F9FF" d="M61.5193423,1.8202451 C58.305604,1.03019608 54.9791879,0.530411765 51.5698188,0.344558824 C48.1604497,0.530411765 44.8340336,1.03019608 41.619604,1.8202451 C25.5847852,5.76283333 12.3468658,16.8826863 5.4507047,31.6068333 C2.11115436,38.8133333 0.296557047,46.6261176 0.296557047,54.8669902 C0.296557047,60.4627647 1.13438255,65.8601569 2.68698658,70.9429216 L100.45196,70.9429216 C102.005255,65.8601569 102.843081,60.4627647 102.843081,54.8669902 C102.843081,29.1872647 85.2383758,7.65129412 61.5193423,1.8202451 Z"/>
      <path fill="#124354" fill-rule="nonzero" d="M21.5002886,27.7354243 C19.4244757,27.7354243 17.734847,29.4244757 17.734847,31.5002886 C17.734847,33.5755243 19.4244757,35.265153 21.5002886,35.265153 C23.5761016,35.265153 25.2645757,33.5755243 25.2645757,31.5002886 C25.2645757,29.4244757 23.5761016,27.7354243 21.5002886,27.7354243 M21.5002886,36 C19.0186646,36 17,33.9819126 17,31.5002886 C17,29.0192419 19.0186646,27 21.5002886,27 C23.9819126,27 26,29.0192419 26,31.5002886 C26,33.9819126 23.9819126,36 21.5002886,36"/>
      <polygon fill="#124354" fill-rule="nonzero" points="5 31 17 31 17 31.887 5 31.887"/>
      <path fill="#124354" fill-rule="nonzero" d="M16.4997114,38.7354243 C14.4238984,38.7354243 12.7354243,40.4244757 12.7354243,42.5002886 C12.7354243,44.5755243 14.4238984,46.265153 16.4997114,46.265153 C18.5755243,46.265153 20.265153,44.5755243 20.265153,42.5002886 C20.265153,40.4244757 18.5755243,38.7354243 16.4997114,38.7354243 M16.4997114,47 C14.0180874,47 12,44.9813354 12,42.5002886 C12,40.0180874 14.0180874,38 16.4997114,38 C18.9813354,38 21,40.0180874 21,42.5002886 C21,44.9813354 18.9813354,47 16.4997114,47"/>
      <polygon fill="#124354" fill-rule="nonzero" points="1 43 13 43 13 43.887 1 43.887"/>
    </g>
    <g transform="translate(674 279)">
      <path fill="#FFFFFF" fill-rule="nonzero" d="M28.7680636,9.79318421 L26.249947,8.32026316 L26.258357,8.43678947 L24.2427424,7.44134211 L19.9634158,3.42118421 C19.9634158,3.42118421 18.9906505,3.89581579 17.6884905,4.58076316 C16.3849289,5.26571053 16.9007468,6.4395 16.9007468,6.4395 L17.5469209,7.66160526 L17.5427159,7.66373684 L17.9975608,8.53413158 L18.0066717,8.52986842 L19.5113743,11.3677105 L19.3067291,11.9986579 C19.3067291,11.9986579 18.6030862,14.2126579 20.6432302,14.8919211 L20.6439311,14.8933421 L21.1898851,15.0752368 C21.1898851,15.0752368 21.771582,16.8430263 23.8733999,17.5436053 C25.7236164,18.1603421 27.8408529,17.3347105 29.5340813,16.3264737 L30.247536,15.9008684 L32.0199593,19.0179474 L36.0070358,16.9886842 L35.4064163,15.7573421 C35.4064163,15.7573421 34.7868741,15.1128947 33.7580415,15.7843421 L33.2541379,14.9452105 L33.6676332,14.7000789 C33.6676332,14.7000789 33.659924,14.4940263 33.5428838,14.3398421 L33.6802483,14.4116053 L34.428745,14.6617105 L34.4820088,14.4926053 L35.7575369,10.5591316 L34.3972072,10.1058158 C33.7629474,9.89407895 33.4889191,10.5236053 33.4889191,10.5236053 L31.1677384,9.75055263 L30.9399655,9.67381579 C30.1304958,9.40381579 29.6055669,9.42655263 28.9285559,9.77328947 L28.7680636,9.79318421 Z"/>
      <path fill="#FFFFFF" fill-rule="nonzero" d="M28.7680636 9.79318421L26.249947 8.32026316 26.258357 8.43678947 24.2427424 7.44134211 19.9634158 3.42118421C19.9634158 3.42118421 18.9906505 3.89581579 17.6884905 4.58076316 16.3849289 5.26571053 16.9007468 6.4395 16.9007468 6.4395L17.5469209 7.66160526 17.5427159 7.66373684 17.9975608 8.53413158 18.0066717 8.52986842 19.5113743 11.3677105 19.3067291 11.9986579C19.3067291 11.9986579 18.6030862 14.2126579 20.6432302 14.8919211L20.6439311 14.8933421 21.1898851 15.0752368C21.1898851 15.0752368 21.771582 16.8430263 23.8733999 17.5436053 25.7236164 18.1603421 27.8408529 17.3347105 29.5340813 16.3264737L30.247536 15.9008684 32.0199593 19.0179474 36.0070358 16.9886842 35.4064163 15.7573421C35.4064163 15.7573421 34.7868741 15.1128947 33.7580415 15.7843421L33.2541379 14.9452105 33.6676332 14.7000789C33.6676332 14.7000789 33.659924 14.4940263 33.5428838 14.3398421L33.6802483 14.4116053 34.428745 14.6617105 34.4820088 14.4926053 35.7575369 10.5591316 34.3972072 10.1058158C33.7629474 9.89407895 33.4889191 10.5236053 33.4889191 10.5236053L31.1677384 9.75055263 30.9399655 9.67381579C30.1304958 9.40381579 29.6055669 9.42655263 28.9285559 9.77328947L28.7680636 9.79318421zM7.62092974 17.6565789C7.50599205 18.2214474 7.44571984 18.7991053 7.44571984 19.3867105L21.9741246 19.3867105 23.5334927 17.6565789 7.62092974 17.6565789z"/>
      <path fill="#FFFFFF" fill-rule="nonzero" d="M7.62092974,17.6565789 C7.50599205,18.2214474 7.44571984,18.7991053 7.44571984,19.3867105 L21.9741246,19.3867105 L23.5334927,17.6565789 L7.62092974,17.6565789 Z"/>
      <path fill="#C5E4EA" fill-rule="nonzero" d="M15.7009094,4.22123684 L16.0716536,0.645157895 L13.4112665,0.645157895 L6.17159346,16.7236579 L7.92158992,16.7236579 C8.7618966,10.9641316 10.6359417,6.53328947 15.7009094,4.22123684"/>
      <path fill="#C5E4EA" fill-rule="nonzero" d="M15.7009094,4.22123684 L16.0716536,0.645157895 L13.4112665,0.645157895 L6.17159346,16.7236579 L7.92158992,16.7236579 C8.7618966,10.9641316 10.6359417,6.53328947 15.7009094,4.22123684"/>
      <path fill="#9ECDD8" fill-rule="nonzero" d="M23.7030959,16.8863684 L9.33868758,16.9218947 C10.1523624,11.3449737 10.5630544,8.48652632 15.466829,6.24836842 L23.7030959,16.8863684 Z"/>
      <path fill="#9ECDD8" fill-rule="nonzero" d="M23.7030959,16.8863684 L9.33868758,16.9218947 C10.1523624,11.3449737 10.5630544,8.48652632 15.466829,6.24836842 L23.7030959,16.8863684 Z"/>
      <g opacity=".37" transform="translate(0 7.105)">
        <mask id="aB" fill="white">
          <use xlink:href="#aA"/>
        </mask>
        <path stroke="#FFFFFF" stroke-width=".2" d="M0.0763915157,9.94878947 C0.0763915157,4.779 4.20994344,0.589026316 9.30925232,0.589026316 C14.4085612,0.589026316 18.5414123,4.779 18.5414123,9.94878947 C18.5414123,15.1185789 14.4085612,19.3085526 9.30925232,19.3085526 C4.20994344,19.3085526 0.0763915157,15.1185789 0.0763915157,9.94878947 Z" mask="url(#aB)"/>
      </g>
      <g opacity=".37" transform="translate(0 7.105)">
        <mask id="aD" fill="white">
          <use xlink:href="#aC"/>
        </mask>
        <path stroke="#FFFFFF" stroke-width=".2" d="M0.0763915157,9.94878947 C0.0763915157,4.779 4.20994344,0.589026316 9.30925232,0.589026316 C14.4085612,0.589026316 18.5414123,4.779 18.5414123,9.94878947 C18.5414123,15.1185789 14.4085612,19.3085526 9.30925232,19.3085526 C4.20994344,19.3085526 0.0763915157,15.1185789 0.0763915157,9.94878947 Z" mask="url(#aD)"/>
      </g>
      <g opacity=".37" transform="translate(37.144 9.947)">
        <mask id="aF" fill="white">
          <use xlink:href="#aE"/>
        </mask>
        <path fill="#FFFFFF" fill-rule="nonzero" d="M7.16468316,0.211736842 C6.10361202,0.211736842 5.10000972,0.458289474 4.20433672,0.897394737 C4.43281043,1.07786842 4.6500707,1.26971053 4.85471586,1.47434211 C5.56116217,1.18018421 6.33348741,1.01605263 7.14435882,1.01605263 C10.4628343,1.01605263 13.1519558,3.74376316 13.1519558,7.10668421 C13.1519558,10.4710263 10.4628343,13.1973158 7.14435882,13.1973158 C3.82728502,13.1973158 1.13676182,10.4710263 1.13676182,7.10668421 C1.13676182,7.04060526 1.13956518,6.97523684 1.14236854,6.90986842 L0.368641626,6.90986842 C0.366539107,6.97523684 0.363735749,7.04060526 0.363735749,7.10668421 C0.363735749,10.9143947 3.40818294,14.0016316 7.16468316,14.0016316 C10.9211834,14.0016316 13.9656306,10.9143947 13.9656306,7.10668421 C13.9656306,3.29826316 10.9211834,0.211736842 7.16468316,0.211736842" mask="url(#aF)"/>
      </g>
      <g opacity=".37" transform="translate(37.144 9.947)">
        <mask id="aH" fill="white">
          <use xlink:href="#aG"/>
        </mask>
        <path fill="#FFFFFF" fill-rule="nonzero" d="M7.16468316,0.211736842 C6.10361202,0.211736842 5.10000972,0.458289474 4.20433672,0.897394737 C4.43281043,1.07786842 4.6500707,1.26971053 4.85471586,1.47434211 C5.56116217,1.18018421 6.33348741,1.01605263 7.14435882,1.01605263 C10.4628343,1.01605263 13.1519558,3.74376316 13.1519558,7.10668421 C13.1519558,10.4710263 10.4628343,13.1973158 7.14435882,13.1973158 C3.82728502,13.1973158 1.13676182,10.4710263 1.13676182,7.10668421 C1.13676182,7.04060526 1.13956518,6.97523684 1.14236854,6.90986842 L0.368641626,6.90986842 C0.366539107,6.97523684 0.363735749,7.04060526 0.363735749,7.10668421 C0.363735749,10.9143947 3.40818294,14.0016316 7.16468316,14.0016316 C10.9211834,14.0016316 13.9656306,10.9143947 13.9656306,7.10668421 C13.9656306,3.29826316 10.9211834,0.211736842 7.16468316,0.211736842" mask="url(#aH)"/>
      </g>
      <g opacity=".37" transform="translate(2.103 9.947)">
        <mask id="aJ" fill="white">
          <use xlink:href="#aI"/>
        </mask>
        <path fill="#FFFFFF" fill-rule="nonzero" d="M0.22496951,7.10668421 C0.22496951,3.19807895 3.3507141,0.0291315789 7.20743438,0.0291315789 C11.062753,0.0291315789 14.1884976,3.19807895 14.1884976,7.10668421 C14.1884976,11.0152895 11.062753,14.1856579 7.20743438,14.1856579 C3.3507141,14.1856579 0.22496951,11.0152895 0.22496951,7.10668421" mask="url(#aJ)"/>
      </g>
      <g opacity=".37" transform="translate(2.103 9.947)">
        <mask id="aL" fill="white">
          <use xlink:href="#aK"/>
        </mask>
        <path fill="#FFFFFF" fill-rule="nonzero" d="M0.22496951,7.10668421 C0.22496951,3.19807895 3.3507141,0.0291315789 7.20743438,0.0291315789 C11.062753,0.0291315789 14.1884976,3.19807895 14.1884976,7.10668421 C14.1884976,11.0152895 11.062753,14.1856579 7.20743438,14.1856579 C3.3507141,14.1856579 0.22496951,11.0152895 0.22496951,7.10668421" mask="url(#aL)"/>
      </g>
      <path fill="#FFFFFF" fill-rule="nonzero" d="M3.28133098,17.0540526 C3.28133098,13.6911316 5.97115334,10.9634211 9.28892797,10.9634211 C12.6067026,10.9634211 15.2958241,13.6911316 15.2958241,17.0540526 C15.2958241,20.4183947 12.6067026,23.1446842 9.28892797,23.1446842 C5.97115334,23.1446842 3.28133098,20.4183947 3.28133098,17.0540526"/>
      <path fill="#FFFFFF" fill-rule="nonzero" d="M3.28133098,17.0540526 C3.28133098,13.6911316 5.97115334,10.9634211 9.28892797,10.9634211 C12.6067026,10.9634211 15.2958241,13.6911316 15.2958241,17.0540526 C15.2958241,20.4183947 12.6067026,23.1446842 9.28892797,23.1446842 C5.97115334,23.1446842 3.28133098,20.4183947 3.28133098,17.0540526"/>
      <path stroke="#103D49" stroke-width=".58" d="M3.28133098,17.0540526 C3.28133098,13.6911316 5.97115334,10.9634211 9.28892797,10.9634211 C12.6067026,10.9634211 15.2958241,13.6911316 15.2958241,17.0540526 C15.2958241,20.4183947 12.6067026,23.1446842 9.28892797,23.1446842 C5.97115334,23.1446842 3.28133098,20.4183947 3.28133098,17.0540526 Z"/>
      <path fill="#FFFFFF" fill-rule="nonzero" d="M39.8875846,17.0540526 C39.8875846,14.6581579 41.8043809,12.7148684 44.167612,12.7148684 C46.5308431,12.7148684 48.4469386,14.6581579 48.4469386,17.0540526 C48.4469386,19.4499474 46.5308431,21.3932368 44.167612,21.3932368 C41.8043809,21.3932368 39.8875846,19.4499474 39.8875846,17.0540526"/>
      <path stroke="#103D49" stroke-width=".35" d="M39.8875846,17.0540526 C39.8875846,14.6581579 41.8043809,12.7148684 44.167612,12.7148684 C46.5308431,12.7148684 48.4469386,14.6581579 48.4469386,17.0540526 C48.4469386,19.4499474 46.5308431,21.3932368 44.167612,21.3932368 C41.8043809,21.3932368 39.8875846,19.4499474 39.8875846,17.0540526 Z"/>
      <path fill="#FFFFFF" fill-rule="nonzero" d="M0.556466637,5.68563158 C0.556466637,2.81581579 2.85101547,0.490263158 5.68170658,0.490263158 C8.5123977,0.490263158 10.8069465,2.81581579 10.8069465,5.68563158 C10.8069465,8.55544737 8.5123977,10.8817105 5.68170658,10.8817105 C2.85101547,10.8817105 0.556466637,8.55544737 0.556466637,5.68563158" opacity=".58" transform="translate(38.546 11.368)"/>
      <path stroke="#FFFFFF" stroke-width=".58" d="M10.0479373 16.8359211L44.3484286 16.8359211M10.0479373 16.8359211L44.3484286 16.8359211"/>
      <path fill="#FFFFFF" fill-rule="nonzero" d="M26.1265992,4.96657895 C26.3144242,2.97497368 24.8756005,1.20647368 22.9111471,1.01605263 C20.9480954,0.825631579 19.202304,2.28434211 19.014479,4.27594737 C18.826654,6.26684211 20.2668794,8.03605263 22.2313327,8.22647368 C24.1943844,8.41689474 25.9387742,6.95747368 26.1265992,4.96657895"/>
      <path fill="#FFFFFF" fill-rule="nonzero" d="M26.1265992,4.96657895 C26.3144242,2.97497368 24.8756005,1.20647368 22.9111471,1.01605263 C20.9480954,0.825631579 19.202304,2.28434211 19.014479,4.27594737 C18.826654,6.26684211 20.2668794,8.03605263 22.2313327,8.22647368 C24.1943844,8.41689474 25.9387742,6.95747368 26.1265992,4.96657895"/>
      <polyline stroke="#124354" stroke-width=".08" points="24.379 7.721 21.858 4.586 25.253 1.682"/>
      <g transform="translate(21.025 2.842)">
        <mask id="aN" fill="white">
          <use xlink:href="#aM"/>
        </mask>
        <path stroke="#124354" stroke-width=".08" d="M2.45644278,1.88644737 C2.51951834,1.21642105 2.03593902,0.623842105 1.37574812,0.559184211 C0.715557225,0.494526316 0.129655325,0.9855 0.0665797614,1.65410526 C0.00350419797,2.32342105 0.487784357,2.91742105 1.14727441,2.98136842 C1.80746531,3.04602632 2.39336721,2.55505263 2.45644278,1.88644737 Z" mask="url(#aN)"/>
      </g>
      <path fill="#002E3A" fill-rule="nonzero" d="M25.0346911,2.09178947 C25.7159072,2.84992105 26.0887539,3.85886842 25.9892346,4.92536842 C25.8869121,5.99897368 25.3255395,6.92265789 24.5069589,7.53513158 L22.1878807,4.56513158 L25.0346911,2.09178947 Z"/>
    </g>
  </g>
</svg>
