<?xml version="1.0" encoding="utf-8"?>
<!-- Generator: Adobe Illustrator 19.2.1, SVG Export Plug-In . SVG Version: 6.00 Build 0)  -->
<svg version="1.1" id="wrigely-avatar" xmlns="http://www.w3.org/2000/svg" xmlns:xlink="http://www.w3.org/1999/xlink" x="0px"
	 y="0px" viewBox="0 0 250 250" style="enable-background:new 0 0 250 250;" xml:space="preserve">
<style type="text/css">
	.st0{fill:#FFFFFF;}
	.st1{fill:#CCCCCC;}
	.st2{fill:#EFEFEF;}
	.st3{fill:#EAEAEA;}
	.st4{fill:#111111;}
	.st5{fill:#070707;}
</style>
<path id="background" class="st0" d="M61.2,178.5c-3.4-7.7-1-16.6-0.6-24.4c-0.4,0.7-0.9,1.3-1.4,1.9c-0.2,0.3-0.5,0.6-0.7,0.9
	c-0.3-0.6-0.2-1,0-1.4c0.2-0.7,0.7-1.6,1.1-2.5c0.3-0.8,0.6-1.5,0.8-2.3l-0.5,0.6c-0.2,0.3-0.5,0.6-0.7,0.9c0-0.4,0-0.8,0.2-1.2
	c0.2-0.7,0.7-1.6,1.1-2.5c0.1-8.1,0.6-27.6,3.7-44.5c0.4-2.3,0.8-4.4,1.2-6.3l-0.1,0.1c-0.4,0.3-0.6,0.5-0.6,0.5
	c0-0.3,0.1-0.6,0.2-0.8c0.2-0.7,0.5-1.3,0.8-1.8l0.1-0.2l0.4-2.1c-0.2,0.4-0.4,0.7-0.6,1c-0.3,0.5-0.5,0.8-0.5,0.8c0-0.3,0-0.6,0-1
	c0.1-0.8,0.3-1.5,0.6-2.2c0.3-0.6,0.7-1.2,1.2-1.7c1.1-5.4,1.9-8.7,2.9-10.5c0.5-1.1,0.9-4.4,2.3-8.2c-5.6-14.5-7.5-30.2-7.5-30.2
	s5,9.3,11.6,18.7c1.1-3.1,3-5.4,4.1-6.7c2-2.4,4.5-4.5,7.4-6.4c0.1-1.4,0.5-2.7,1.9-3.6c3-2.1,6.3-1.5,9.5-1.2
	c2.3-0.6,4.7-1,7.1-1.3c4.8-2.6,17.7-2.7,22.9,0.2c6.3,3.4,6.5,1.4,7,2.3c-0.1-0.3-0.2-0.6-0.3-0.8l-0.5-1.2c0.4,0.3,0.7,0.6,1,0.9
	c0.7,0.8,1.3,1.8,1.6,2.8v0.1l0.9,0.9v-0.2c0-0.2-0.1-0.4-0.2-0.6c-0.1-0.3-0.2-0.5-0.5-0.7c-0.1,0-0.2-0.1-0.3-0.1
	c0.1-0.1,0.2-0.1,0.4-0.1c0.4,0,0.7,0.2,0.9,0.5c0.2,0.2,0.3,0.4,0.4,0.6c0.1,0.2,0.2,0.4,0.3,0.7c0.2,0.4,0.3,0.8,0.4,1.2l0.6,0.6
	c-3.1-6.7,5.6,6.6,10.4,11.2c10.1-13.9,17-32.1,17-32.1s3.3,19.4-1.9,36.8c1.3,1.1,2.5,2.3,3.6,3.6l1,0.6c1.6,1,3.1,2.2,4.5,3.5
	l-0.5-0.2c0.2,0.2,0.4,0.4,0.6,0.5c0.3,0.3,0.6,0.6,0.9,1c0,0-0.5-0.2-1.2-0.5c-0.7-0.3-1.7-0.8-2.7-1.3c0.3,0.5,0.5,1.1,0.7,1.7
	c0.6,0.7,1,1.5,1.5,2.3c0.3,0.5,0.5,0.9,0.7,1.4l-0.5-0.4c0.3,0.7,0.6,1.4,0.8,2.2c0.1,0.5,0.2,1,0.3,1.5l-0.8-1.3l-0.8-1.4
	c2,5.5,6.1,5.3,8.5,8.4c3.4,4.3-2.1,8.7,2.8,13.2c3.8,3.5,4.4,9.1,4.5,12.6c0.4,0.6,0.7,1.2,1,1.8c0.5,1.2,0.9,2.4,1.1,3.6
	c-0.9-0.9-1.6-1.9-2.1-3.1c0,0.6,0,1.2-0.1,1.8c0.2,0.4,0.3,0.7,0.5,1.1c0.4,1.1,0.6,2.2,0.8,3.3c0.1,0.5,0.1,0.9,0.1,1.4
	c-0.6-1.2-1.2-2.4-1.7-3.6c-1.2,6.3-4.5,9.1-3.2,15c1.3,5.8,5.1,6,5.5,11.2c0.5,7.4-6.7,13.2-7.6,13.8c-0.7,0.6-1.5,1.1-2.3,1.5
	c0.3,1,0.5,2,0.5,3c12,15,26,33.5,29.6,42.9l-0.3,45h38V0H0v250h45.5l-0.3-46.2C47.5,198,53.8,188.5,61.2,178.5z"/>
<g id="wrigely">
	<path class="st0" d="M81.8,223.1c-0.6-5.3-0.8-10.1-0.7-14.5c0-1.6,0-3.3,0-4.8c-1.3-1.5-3-3.5-5.5-6.5c-0.1-0.1-0.1-0.2-0.2-0.2
		c-3.4,4.7-8,9.4-13.9,13.7L54.8,250h29.6c0-1.8-0.1-3.7-0.2-5.7C83.1,236.7,82.3,229.6,81.8,223.1z"/>
	<path class="st0" d="M175.3,185.9c-3.9,17.1-11,30.8-11.2,48.9c-0.1,5.3-0.1,10.4,0,15.2h38.4l-6.5-38
		C184.9,203.9,178.9,194.5,175.3,185.9z"/>
	<path class="st1" d="M75.4,197.1c-14.4-17.3-10.6-10.7-14.1-18.2c-0.1-0.1-0.1-0.2-0.1-0.4c-7.4,9.9-13.7,19.4-16,25.3l0.3,46.2
		h9.3l6.7-39.2C67.5,206.5,72,201.8,75.4,197.1z"/>
	<path class="st2" d="M76.2,60.1c-6.6-9.4-11.6-18.7-11.6-18.7s1.9,15.7,7.5,30.2c0.7-2,1.8-4.2,3.2-6.1
		C75.2,63.5,75.6,61.7,76.2,60.1z"/>
	<path class="st1" d="M164.1,234.8c0.2-18.1,7.3-31.8,11.2-48.9c-0.9-2.3-1.7-4.5-2.3-6.6c-2,4.8-6.6,17.3-12.4,40.8
		c-2.1,8.4-3.2,19.1-4.1,29.9h7.6C164,245.2,164,240.1,164.1,234.8z"/>
	<path class="st1" d="M81.8,223.1c-0.4-5.2-0.6-10-0.7-14.5C81,212.9,81.2,217.7,81.8,223.1z"/>
	<path class="st1" d="M85.1,249.8c-0.3-1.9-0.6-3.7-0.9-5.5c0.1,2,0.2,3.9,0.2,5.7h0.7C85.1,249.9,85.1,249.9,85.1,249.8z"/>
	<path class="st1" d="M212.3,205c-3.6-9.3-17.6-27.9-29.6-42.9c0,0.2,0,0.4,0,0.6c0,1.2-0.2,2.4-0.5,3.5c-0.1,0.5-0.3,0.9-0.5,1.4
		v-5.2c-0.2,1.1-0.5,2-0.7,2.7c-0.4,1.2-1.5,3.2-3.4,6.5c-0.4,5.1-1.2,9.8-2.3,14.3c3.5,8.6,9.6,18,20.7,26.1l6.5,38h9.5L212.3,205z
		"/>
	<path class="st1" d="M173.2,178.7c-0.1,0.2-0.1,0.4-0.2,0.6c0.6,2.1,1.4,4.3,2.3,6.6c1-4.5,1.8-9.2,2.3-14.3
		c-0.9,1.5-2,3.3-3.3,5.4C173.9,177.6,173.6,178.2,173.2,178.7z"/>
	<path class="st3" d="M81.1,203.8c0,1.5,0,3.2,0,4.8c0-1.6,0.1-3,0.2-4.5C81.3,204,81.2,203.9,81.1,203.8z"/>
	<path class="st3" d="M81.8,223.1c0.5,6.6,1.3,13.6,2.4,21.2c-0.3-4.8-0.8-10.1-1.7-16.1C82.2,226.4,82,224.7,81.8,223.1z"/>
	<path class="st3" d="M167,187.9c-3.4,3.8-4.8,4.1-7.2,6.3v2.8c-0.2-0.6-0.4-1.2-0.5-1.8c0-0.1-0.1-0.3-0.1-0.4
		c-0.3,0.3-0.6,0.6-0.9,1c-0.3,0.4-0.7,0.8-1,1.2v1.5c0,0.4,0,0.9-0.1,1.3c-0.2-0.4-0.4-0.8-0.5-1.2c-0.1-0.2-0.1-0.3-0.2-0.5
		c-1.8,2.6-3.4,6-5.8,11.3c-3.6,8-5.5,12.1-5.6,15.9c-0.2,2.9-1,5.8-2.3,8.3c0.1,0.5,0.1,0.9,0,1.4c-0.1,0.6-0.3,1.2-0.6,1.8
		c-0.1,0.2-0.3,0.5-0.5,0.7c0-0.3-0.1-0.5-0.1-0.8v-1c-1.8,3.1-4.4,5.7-7.5,7.5c-4.9,2.7-16.7,5.6-22,3.9
		c-11.6-3.7-12.6-13.3-13.9-17.8c-0.4-1.3-0.9-2.6-1.5-3.9c0,0.9,0.1,1.9,0.3,2.8c0.1,0.3,0.2,0.7,0.3,1l0.1,0.4l-0.3-0.3
		c-0.2-0.3-0.5-0.5-0.7-0.8c-0.9-1.4-1.1-3.1-0.6-4.7c-2.7-4.7-6.4-7.2-10-13.7c-1.4-2.4-1.2-2.2-4.4-6c-0.1,1.4-0.2,2.9-0.2,4.5
		c0.1,4.5,0.3,9.3,0.7,14.5c0.2,1.7,0.4,3.4,0.7,5.1c0.9,6,1.5,11.3,1.7,16.1c0.3,1.8,0.6,3.6,0.9,5.5c0,0.1,0,0.1,0,0.2h71.4
		c0.9-10.8,2-21.5,4.1-29.9c5.8-23.5,10.5-36,12.4-40.8c0,0,0-0.1,0-0.1C170.4,183.4,168.8,185.8,167,187.9z"/>
	<path class="st3" d="M173,179.2c0,0,0,0.1,0,0.1c0.1-0.2,0.2-0.4,0.2-0.6C173.1,178.9,173.1,179,173,179.2z"/>
	<path class="st4" d="M79,191.5c-1.1,1.9-2.2,3.7-3.6,5.6c0.1,0.1,0.1,0.2,0.2,0.2c2.5,3,4.2,5,5.5,6.5c0-4.2,0.1-8,0.3-11.5
		L79,191.5z"/>
	<path class="st4" d="M146.8,64.7c0,0-0.1,0.1-0.1,0.1c0,0,0,0,0,0C146.7,64.8,146.7,64.7,146.8,64.7z"/>
	<path class="st4" d="M129.4,46.6c1.7,1.3,17.5,7.9,18.2,17.1c1.2-1.4,2.4-3,3.6-4.5c-4.8-4.6-13.5-17.9-10.4-11.2l-0.6-0.6
		c-0.1-0.4-0.2-0.8-0.4-1.2c-0.1-0.3-0.2-0.5-0.3-0.7c-0.1-0.2-0.2-0.4-0.4-0.6c-0.2-0.3-0.5-0.5-0.9-0.5c-0.2,0-0.3,0-0.4,0.1
		c0.1,0,0.2,0.1,0.3,0.1c0.3,0.2,0.4,0.4,0.5,0.7c0.1,0.2,0.2,0.4,0.2,0.6v0.2l-0.9-0.9v-0.1c-0.3-1-0.9-2-1.6-2.8
		c-0.3-0.3-0.6-0.6-1-0.9l0.5,1.2c0.1,0.2,0.2,0.5,0.3,0.8c-0.5-0.9-0.7,1.1-7-2.3c-5.2-2.8-18.1-2.8-22.9-0.2
		C114.5,40.2,122.9,41.8,129.4,46.6z"/>
	<path class="st4" d="M61.9,170.4c-0.4-1.9,3-41.6,3-41.6c0.1-1.2,2-17.2,2.3-19.1c0.7-3.8,2-12.9,7.9-31.3c-1.1-2.2-2.1-4.5-3-6.8
		c-1.4,3.8-1.8,7.1-2.3,8.2c-1,1.8-1.8,5.1-2.9,10.5c-0.5,0.5-0.9,1.1-1.2,1.7c-0.3,0.7-0.5,1.4-0.6,2.2c0,0.4,0,0.7,0,1
		c0,0,0.2-0.3,0.5-0.8c0.2-0.3,0.4-0.6,0.6-1l-0.4,2.1l-0.1,0.2c-0.3,0.5-0.6,1.1-0.8,1.8c-0.1,0.2-0.2,0.5-0.2,0.8
		c0,0,0.2-0.2,0.6-0.5l0.1-0.1c-0.4,1.9-0.8,4-1.2,6.3c-3.1,16.9-3.6,36.4-3.7,44.5c-0.4,0.9-0.9,1.8-1.1,2.5
		c-0.2,0.4-0.2,0.8-0.2,1.2c0.2-0.3,0.5-0.6,0.7-0.9l0.5-0.6c-0.2,0.8-0.5,1.5-0.8,2.3c-0.4,0.9-0.9,1.8-1.1,2.5
		c-0.2,0.4-0.3,0.8,0,1.4c0.2-0.3,0.5-0.6,0.7-0.9c0.5-0.6,1-1.2,1.4-1.9c-0.5,7.9-2.8,16.7,0.6,24.4c0.6-0.9,1.3-1.7,2-2.6
		L61.9,170.4z"/>
	<path class="st4" d="M89.6,43.4c-1.3,0.9-1.8,2.2-1.9,3.6c3.4-2.1,7.3-3.8,11.4-4.9C95.9,41.9,92.6,41.3,89.6,43.4z"/>
	<path class="st4" d="M184.5,157.6c0.9-0.6,8.1-6.4,7.6-13.8c-0.4-5.2-4.2-5.4-5.5-11.2c-1.3-5.9,2-8.7,3.2-15
		c0.5,1.2,1.1,2.4,1.7,3.6c0-0.5,0-0.9-0.1-1.4c-0.2-1.1-0.4-2.2-0.8-3.3c-0.2-0.4-0.3-0.7-0.5-1.1c0.1-0.6,0.1-1.2,0.1-1.8
		c0.5,1.2,1.2,2.2,2.1,3.1c-0.2-1.2-0.6-2.4-1.1-3.6c-0.3-0.6-0.6-1.2-1-1.8c-0.1-3.5-0.7-9.1-4.5-12.6c-4.9-4.5,0.6-8.9-2.8-13.2
		c-2.4-3.1-6.5-2.9-8.5-8.4l0.8,1.4l0.8,1.3c-0.1-0.5-0.2-1-0.3-1.5c-0.2-0.8-0.5-1.5-0.8-2.2l0.5,0.4c-0.2-0.5-0.4-0.9-0.7-1.4
		c-0.5-0.8-0.9-1.6-1.5-2.3c-0.2-0.6-0.4-1.2-0.7-1.7c1,0.5,2,1,2.7,1.3c0.7,0.3,1.2,0.5,1.2,0.5c-0.3-0.4-0.6-0.7-0.9-1
		c-0.2-0.1-0.4-0.3-0.6-0.5l0.5,0.2c-1.4-1.3-2.9-2.5-4.5-3.5l-1-0.6c-1.1-1.3-2.3-2.5-3.6-3.6c-1.9,6.4-5,12.5-9.8,17.3
		c0.1,0.3,0.3,0.6,0.4,1l3.8-3.8l14.8,75c2.2,2.7,4.6,5.6,7.1,8.7c0-1-0.2-2-0.5-3C183,158.7,183.8,158.2,184.5,157.6z"/>
	<path class="st4" d="M73.5,189.5c-5-1.8-8.8-6.1-9.9-11.3l-0.5-2.3c-0.7,0.9-1.3,1.7-2,2.6c0.1,0.1,0.1,0.2,0.1,0.4
		c3.5,7.5-0.3,0.9,14.1,18.2c1.4-1.9,2.5-3.7,3.6-5.6L73.5,189.5z"/>
	<path class="st4" d="M77,72.4c-1-2-1.6-4.3-1.7-6.3c0-0.2,0-0.4,0-0.6c-1.5,2-2.5,4.1-3.2,6.1c0.9,2.3,1.9,4.6,3,6.8
		C75.7,76.5,76.3,74.5,77,72.4z"/>
	<path class="st4" d="M157.6,109.1c0,0,1.8,15.1,4.2,24.4c1.7,6.7-8.6,18.1-15.3,25c-1.7,1.7-3.2,3.2-4.3,4.3
		c-1.2,1.2-2.6,2.1-4.2,2.7l-3.8,1.5c-2.2,0.9-4,2.4-5.3,4.3l-2,3l45.5,2.6c-1.2-4.6-1.9-8.8-2.4-12.1c-1-6.4-5.7-25-5.7-25
		s4.8,5.6,11.4,13.6l-14.8-75l-3.8,3.8c0.7,1.7,1.4,3.5,2.2,5.4L157.6,109.1z"/>
	<path class="st4" d="M177.9,165c0,2.3-0.1,4.4-0.3,6.6c1.9-3.3,3-5.2,3.4-6.5c0.2-0.7,0.5-1.6,0.7-2.7v5.2c0.2-0.5,0.4-0.9,0.5-1.4
		c0.3-1.1,0.5-2.3,0.5-3.5c0-0.2,0-0.4,0-0.6c-2.5-3.1-4.9-6-7.1-8.7L177.9,165z"/>
	<path class="st4" d="M175.6,153.4c-6.6-8-11.4-13.6-11.4-13.6s4.7,18.6,5.7,25c0.6,3.3,1.3,7.5,2.4,12.1l1.7,0.1
		c0,0-0.3,0.6-0.8,1.7c0.3-0.6,0.7-1.1,1.1-1.7c1.3-2.1,2.4-3.9,3.3-5.4c0.2-2.1,0.3-4.3,0.3-6.6L175.6,153.4z"/>
	<path class="st4" d="M82.9,192.9l-1.5-0.5c-0.2,3.4-0.3,7.3-0.3,11.5c0.1,0.1,0.2,0.2,0.3,0.3C81.7,199.9,82.3,196.2,82.9,192.9z"
		/>
	<path class="st4" d="M120.7,183.7c-2.2,3.4-5.5,5.9-9.3,7.2l-12.1,4.2c-3.4,1.2-7.1,1.2-10.4-0.1l-6-2.1c-0.7,3.3-1.2,7.1-1.6,11.2
		c3.3,3.8,3.1,3.6,4.4,6c3.6,6.5,7.3,9,10,13.7c-0.5,1.6-0.3,3.3,0.6,4.7c0.2,0.3,0.5,0.5,0.7,0.8l0.3,0.3l-0.1-0.4
		c-0.1-0.3-0.2-0.7-0.3-1c-0.2-0.9-0.3-1.9-0.3-2.8c0.6,1.3,1.1,2.6,1.5,3.9c1.3,4.5,2.3,14.1,13.9,17.8c5.3,1.7,17.1-1.2,22-3.9
		c3.1-1.8,5.7-4.4,7.5-7.5v1c0,0.3,0.1,0.5,0.1,0.8c0.2-0.2,0.4-0.5,0.5-0.7c0.3-0.6,0.5-1.2,0.6-1.8c0.1-0.5,0.1-0.9,0-1.4
		c1.3-2.5,2.1-5.4,2.3-8.3c0.1-3.8,2-7.9,5.6-15.9c2.4-5.3,4-8.7,5.8-11.3c0.1,0.2,0.1,0.3,0.2,0.5c0.1,0.4,0.3,0.8,0.5,1.2
		c0.1-0.4,0.1-0.9,0.1-1.3V197c0.3-0.4,0.7-0.8,1-1.2c0.3-0.4,0.6-0.7,0.9-1c0,0.1,0.1,0.3,0.1,0.4c0.1,0.6,0.3,1.2,0.5,1.8v-2.8
		c2.4-2.2,3.8-2.5,7.2-6.3c1.8-2.1,3.4-4.5,6-8.7c-0.2-0.8-0.4-1.5-0.6-2.3l-45.5-2.6L120.7,183.7z"/>
	<path class="st4" d="M173.2,178.7c0.5-1.2,0.8-1.7,0.8-1.7l-1.7-0.1c0.2,0.7,0.4,1.5,0.6,2.3C173.1,179,173.1,178.9,173.2,178.7z"
		/>
	<path class="st1" d="M86.5,172.1l0.5,0c0-0.4,0-0.9-0.1-1.3c-0.1-0.7-0.1-1.4-0.2-2.1c-0.1,0.4-0.1,0.7-0.2,1.1
		C86.6,170.6,86.6,171.3,86.5,172.1z"/>
	<path class="st1" d="M143.9,67.6c0.9-0.9,1.9-1.8,2.8-2.8c0,0,0,0,0,0C145.9,65.6,144.9,66.7,143.9,67.6z"/>
	<path class="st1" d="M129.4,75.7c-4.5,1.1-1,2.4-7.8,2.9c-6.6,0.5-9.3,2-14.7,0.7c-4.3-1-8-4.1-12.3-4.9c-2.1-0.4-3.7,0.1-5.2,0.8
		c3.3,2.7,6.6,4.2,9.5,3.7c1.7-0.3,3,2.6,3.7,6.1c1,1,1.9,2,2.5,3.2c0.8,1.7,1.4,3.9,0,12c-2.8,16.3-8.8,26-20.9,45.3
		c-0.7,1.2-2.2,3.5-4.6,3.9c-3.9,0.6-9.9-2.5-10.8-3.7c-4.5-6.3-3-11-2.3-25.5c0.3-6.2,1.3-13,4.4-25.5c0.9-4,1.6-9,4-11.5
		c0.5-0.6,1.2-1.1,1.9-1.6c-0.6-1-1.2-2.1-1.7-3.2c-5.9,18.4-7.2,27.5-7.9,31.3c-0.3,1.9-2.2,17.9-2.3,19.1c0,0-3.4,39.7-3,41.6
		l1.2,5.5c0.4-0.5,0.7-1,1.1-1.5c-0.8-1.4-1-3.2-0.4-5c0.9-3.2,3.8-5.1,6.3-4.4c0.4,0.1,0.7,0.3,1,0.5
		c11.4-14.5,22.1-26.9,22.1-26.9s-1.3,5.5-2.8,11.5c1.8-3.6,4.1-6.8,7.1-9.7l18.4-18.1c-3.8,0.4-7.2-2.2-7.7-6
		c-0.5-3.8,2.1-7.4,6-7.9c3.8-0.5,7.4,2.1,7.9,6c0.1,0.6,0.1,1.3,0,1.9L157,82.2c-0.1-0.3-0.3-0.6-0.4-1c-5.3,5.2-12.6,8.8-22.9,9.3
		C129,90.8,126.6,79.6,129.4,75.7z"/>
	<path class="st1" d="M80.4,191.9c0.3,0,0.7,0,1,0c0.1-2.3,0.3-4.4,0.5-6.3c-0.8,1.9-1.8,3.9-2.9,5.9l2.4,0.9c0-0.1,0-0.1,0-0.2
		C81.1,192,80.7,192,80.4,191.9z"/>
	<path class="st1" d="M82.8,177.9c-1.2,0.7-2.5,0.9-3.8,0.5c-2.9-0.9-4.4-4.5-3.3-8.2c1.1-3.7,4.3-5.9,7.2-5.1
		c2,0.6,3.3,2.4,3.6,4.7c0.1-0.4,0.1-0.7,0.2-1.1c-0.4-6.5,1-12.9,3.8-18.7c1.4-6,2.8-11.5,2.8-11.5S82.6,151,71.2,165.5
		c1.8,1.2,2.7,3.9,1.9,6.6c-0.9,3.2-3.8,5.1-6.3,4.4c-1.1-0.3-1.9-1.1-2.5-2.1c-0.4,0.5-0.8,1-1.1,1.5l0.5,2.3
		c1.1,5.2,4.9,9.5,9.9,11.3l5.5,2c1.1-2,2.1-3.9,2.9-5.9C82.2,182.5,82.5,180,82.8,177.9z"/>
	<path class="st1" d="M102.6,85c-0.7-3.4-2-6.3-3.7-6.1c-2.9,0.4-6.1-1.1-9.5-3.7c-2.5,1.1-4.6,2.9-7.4,2c-2.2-0.7-3.8-2.6-5-4.8
		c-0.7,2.1-1.4,4.1-2,6.1c0.5,1.1,1.1,2.2,1.7,3.2C83.4,77.3,96.3,79,102.6,85z"/>
	<path class="st1" d="M116.2,122.3c0,0-0.1,0-0.1,0l-18.4,18.1c-2.9,2.8-5.3,6.1-7.1,9.7c-1.2,5.1-2.4,10.6-2.9,13.5
		c-0.3,1.5-0.5,3.3-0.9,5.1c0,0.7,0.1,1.4,0.2,2.1c0,0.4,0.1,0.8,0.1,1.3l39.9,2.3l2-3c1.3-1.9,3.1-3.4,5.3-4.3l3.8-1.5
		c1.6-0.6,3-1.5,4.2-2.7c1.1-1.1,2.6-2.6,4.3-4.3c6.7-6.9,17-18.3,15.3-25c-2.4-9.3-4.2-24.4-4.2-24.4l1.6-21.5
		c-0.8-2-1.6-3.8-2.2-5.4l-34.8,34.2C121.7,119.4,119.3,121.9,116.2,122.3z"/>
	<path class="st1" d="M86.7,168.7c0.3-1.9,0.6-3.6,0.9-5.1c0.5-2.9,1.7-8.4,2.9-13.5C87.7,155.8,86.3,162.3,86.7,168.7z"/>
	<path class="st1" d="M81.4,192.1c0,0.1,0,0.1,0,0.2l1.5,0.5c0-0.2,0.1-0.3,0.1-0.5C82.5,192.3,82,192.2,81.4,192.1z"/>
	<path class="st1" d="M86.2,173.3c-0.2,0.8-0.6,1.5-0.9,2.1c-0.8,3.2-1.9,6.6-3.4,10.2c-0.2,1.9-0.3,4-0.5,6.3c0.6,0,1.1,0,1.7,0
		c1.8-8.5,4-14.5,3.9-19.8l-0.5,0C86.5,172.5,86.4,172.9,86.2,173.3z"/>
	<path class="st1" d="M82.8,177.9c-0.3,2.1-0.6,4.7-0.9,7.7c1.5-3.5,2.6-7,3.4-10.2C84.6,176.5,83.7,177.3,82.8,177.9z"/>
	<path class="st1" d="M99.3,195.1l12.1-4.2c3.8-1.3,7.1-3.8,9.3-7.2l6.2-9.4L87,172.1c0.2,5.3-2.1,11.3-3.9,19.8
		c0.9,0,1.8,0,2.7-0.1c1.8-0.1,3.6-0.4,5.4-0.7c1-0.2,2-0.4,3-0.7c1-0.3,2-0.6,2.9-1.1c0.5-0.2,0.9-0.4,1.4-0.7
		c0.5-0.2,0.9-0.5,1.3-0.8c0.4-0.3,0.8-0.6,1.2-0.8c0.4-0.3,0.8-0.6,1.1-0.9c1.3-1.2,2.4-2.6,3.2-4.2c0.2-0.3,0.4-0.7,0.5-1
		c0.1-0.3,0.3-0.6,0.4-0.9c0.2-0.6,0.4-1.1,0.5-1.6l0.4-1.4l-0.1,1.4c-0.1,0.5-0.2,1-0.3,1.7c-0.1,0.3-0.2,0.7-0.3,1
		c-0.1,0.4-0.2,0.8-0.4,1.1c-0.3,0.8-0.7,1.6-1.2,2.4c-0.5,0.9-1.2,1.6-1.9,2.4c-0.4,0.4-0.8,0.7-1.2,1.1c-0.4,0.4-0.9,0.7-1.3,1
		c-0.5,0.3-0.9,0.6-1.4,0.8c-0.5,0.3-1,0.5-1.5,0.7c-1,0.4-2.1,0.8-3.1,1.1c-1,0.3-2.1,0.5-3.1,0.6c-1,0.1-2,0.2-3,0.3
		c-0.9,0.1-1.8,0.1-2.6,0c-0.9,0-1.8-0.1-2.7-0.2c0,0.2-0.1,0.3-0.1,0.5l6,2.1C92.2,196.3,95.9,196.3,99.3,195.1z"/>
	<path class="st5" d="M122.1,114.4c-0.5-3.8-4.1-6.5-7.9-6c-3.8,0.5-6.5,4.1-6,7.9c0.5,3.8,4,6.4,7.7,6l6.1-6
		C122.2,115.7,122.2,115.1,122.1,114.4z"/>
	<path class="st5" d="M122.1,116.3l-6.1,6c0,0,0.1,0,0.1,0C119.3,121.9,121.7,119.4,122.1,116.3z"/>
	<path class="st5" d="M86.5,172.1c0.1-0.8,0.1-1.5,0-2.2c-0.1,0.7-0.3,1.4-0.4,2.2L86.5,172.1z"/>
	<path class="st5" d="M86.1,172c0.2-0.7,0.3-1.5,0.4-2.2c-0.3-2.3-1.6-4.1-3.6-4.7c-2.9-0.9-6.2,1.4-7.2,5.1
		c-1.1,3.7,0.4,7.3,3.3,8.2c1.3,0.4,2.6,0.2,3.8-0.5c0.6-3.9,1-6,1-6L86.1,172z"/>
	<path class="st5" d="M85.3,175.4c0.4-0.6,0.7-1.3,0.9-2.1c0.1-0.4,0.2-0.9,0.3-1.3l-0.4,0C85.8,173.1,85.6,174.3,85.3,175.4z"/>
	<path class="st5" d="M85.3,175.4c0.3-1.2,0.6-2.3,0.8-3.4l-2.3-0.1c0,0-0.5,2.1-1,6C83.7,177.3,84.6,176.5,85.3,175.4z"/>
	<path class="st5" d="M70.1,165c-2.5-0.8-5.4,1.2-6.3,4.4c-0.5,1.8-0.3,3.7,0.4,5c2.3-3,4.6-6,6.9-8.9
		C70.8,165.3,70.5,165.1,70.1,165z"/>
	<path class="st5" d="M66.7,176.5c2.5,0.8,5.4-1.2,6.3-4.4c0.8-2.7,0-5.4-1.9-6.6c-2.3,2.9-4.6,5.9-6.9,8.9
		C64.8,175.5,65.6,176.2,66.7,176.5z"/>
	<path class="st2" d="M163,61.3c1.2,0.8,2.3,1.7,3.3,2.6c5.2-17.4,1.9-36.8,1.9-36.8s-6.9,18.2-17,32.1c0,0,0,0,0,0
		C155.4,58.6,159.8,59.1,163,61.3z"/>
	<path class="st2" d="M147.6,63.8c0,0-0.3,0.4-0.8,0.9c0,0-0.1,0.1-0.1,0.1c4,2.3-0.6-8.8,9.9,16.4c4.8-4.8,7.9-10.9,9.8-17.3
		c-1-0.9-2.1-1.8-3.3-2.6c-3.2-2.2-7.6-2.7-11.8-2.1c0,0,0,0,0,0C150,60.8,148.8,62.3,147.6,63.8C147.6,63.8,147.6,63.8,147.6,63.8z
		"/>
	<path class="st2" d="M146.7,64.8c-0.9,1-1.8,1.9-2.8,2.8c-0.4,0.4-0.8,0.8-1.1,1.1c-3.8,3.5-8.3,5.9-13.3,7c0,0-0.1,0-0.1,0
		c-2.8,3.9-0.4,15,4.3,14.8c10.2-0.5,17.6-4.1,22.9-9.3C146.1,56,150.6,67.1,146.7,64.8z"/>
	<path class="st4" d="M81.9,59.9c1.8-3.3,4-5.8,6.5-7.7c-0.4-1.7-0.8-3.5-0.7-5.2c-2.9,1.8-5.4,3.9-7.4,6.4c-1.1,1.3-3,3.6-4.1,6.7
		c0.6,0.8,1.2,1.6,1.8,2.5C79.1,61.5,80.4,60.6,81.9,59.9z"/>
	<path class="st4" d="M105.9,41.1c0.1-0.1,0.2-0.1,0.3-0.2c-2.4,0.2-4.8,0.7-7.1,1.3C101.4,42.4,103.7,42.4,105.9,41.1z"/>
	<path class="st4" d="M75.3,65.5c0.8-1,1.6-2,2.7-2.9c-0.6-0.8-1.2-1.6-1.8-2.5C75.6,61.7,75.2,63.5,75.3,65.5z"/>
	<path class="st4" d="M81.9,59.9c-1.5,0.8-2.8,1.7-4,2.7c0.6,0.8,1.1,1.5,1.7,2.3C80.3,63,81.1,61.4,81.9,59.9z"/>
	<path class="st4" d="M88.5,52.2c18.2-13.9,50.9,4.5,50.9,4.5c3.8,5.2,6,7.3,7.3,8.1c0,0,0.1-0.1,0.1-0.1c0.3-0.3,0.6-0.6,0.8-0.9
		c-0.7-9.3-16.5-15.8-18.2-17.1c-6.5-4.8-14.9-6.4-23.2-5.7c-0.1,0.1-0.2,0.1-0.3,0.2c-2.2,1.3-4.5,1.3-6.8,1.1
		c-4.1,1.1-8,2.7-11.4,4.9C87.6,48.7,88.1,50.5,88.5,52.2z"/>
	<path class="st4" d="M79.7,64.8c-0.6-0.7-1.2-1.5-1.7-2.3c-1,0.9-1.9,1.9-2.7,2.9c0,0.2,0,0.4,0,0.6c0.1,2,0.7,4.3,1.7,6.3
		c0.8-2.3,1.6-4.8,2.6-7.4C79.6,64.9,79.7,64.9,79.7,64.8z"/>
	<path class="st4" d="M88.5,52.2c-2.5,1.9-4.7,4.4-6.5,7.7c1.3-0.6,2.7-1.2,4.3-1.6C89.3,57.5,89,55,88.5,52.2z"/>
	<path class="st4" d="M89.4,75.2c1.5-0.7,3.1-1.1,5.2-0.8c4.3,0.8,8,3.9,12.3,4.9c5.4,1.3,8.1-0.2,14.7-0.7c6.9-0.5,3.4-1.8,7.8-2.9
		c0.5-0.7,1.2-1.2,2.1-1.3c4.3-0.5,8.5-3.1,12.4-6.8c1-1,2-2.1,2.7-2.8c-1.3-0.7-3.4-2.9-7.3-8.1c0,0-32.7-18.4-50.9-4.5
		c0.6,2.8,0.8,5.3-2.3,6.1c-1.6,0.4-3,0.9-4.3,1.6c-0.8,1.5-1.6,3.1-2.2,4.9C82.8,68.8,86.2,72.5,89.4,75.2z"/>
	<path class="st4" d="M82,77.2c2.8,0.8,4.9-0.9,7.4-2c-3.3-2.6-6.6-6.3-9.8-10.4c0,0.1-0.1,0.1-0.1,0.2c-0.9,2.6-1.8,5-2.6,7.4
		C78.2,74.6,79.8,76.5,82,77.2z"/>
	<path class="st4" d="M147.6,63.7c-0.3,0.3-0.6,0.6-0.8,0.9C147.3,64.2,147.6,63.8,147.6,63.7C147.6,63.8,147.6,63.8,147.6,63.7z"/>
	<path class="st4" d="M129.4,75.7C129.4,75.7,129.5,75.7,129.4,75.7c5.1-1.1,9.6-3.5,13.4-7c0.3-0.3,0.7-0.7,1.1-1.1
		c-3.9,3.7-8.1,6.2-12.4,6.8C130.6,74.5,129.9,75,129.4,75.7z"/>
	<path class="st3" d="M101.2,95c-11,3-18.9-3.7-24.4-13.4c-0.7,0.5-1.3,1-1.9,1.6c-2.4,2.5-3.1,7.5-4,11.5
		c-3.1,12.5-4.1,19.3-4.4,25.5c-0.7,14.5-2.2,19.2,2.3,25.5c0.9,1.2,6.9,4.3,10.8,3.7c2.4-0.4,3.9-2.7,4.6-3.9
		c12.1-19.3,18.1-29,20.9-45.3c1.4-8.1,0.8-10.3,0-12c-0.6-1.2-1.5-2.3-2.5-3.2C103.5,89.3,103.3,94.4,101.2,95z"/>
	<path class="st3" d="M76.8,81.6C82.3,91.3,90.2,98,101.2,95c2.1-0.6,2.3-5.7,1.4-10C96.3,79,83.4,77.3,76.8,81.6z"/>
	<path class="st5" d="M80.4,191.9c0.3,0.1,0.7,0.1,1,0.2c0-0.1,0-0.1,0-0.2C81.1,191.9,80.7,191.9,80.4,191.9z"/>
	<path class="st5" d="M81.4,192.1c0.5,0.1,1.1,0.2,1.6,0.3c0-0.2,0.1-0.3,0.1-0.5c-0.6,0-1.1,0-1.7,0C81.4,192,81.4,192,81.4,192.1z
		"/>
	<path class="st5" d="M85.7,192.6c0.8,0.1,1.7,0.1,2.6,0c1-0.1,2-0.2,3-0.3c1-0.1,2.1-0.3,3.1-0.6c1-0.3,2.1-0.7,3.1-1.1
		c0.5-0.2,1-0.4,1.5-0.7c0.5-0.2,0.9-0.5,1.4-0.8c0.4-0.3,0.9-0.6,1.3-1c0.4-0.4,0.8-0.7,1.2-1.1c0.7-0.8,1.4-1.5,1.9-2.4
		c0.5-0.8,0.9-1.6,1.2-2.4c0.2-0.3,0.3-0.7,0.4-1.1c0.1-0.3,0.2-0.7,0.3-1c0.1-0.7,0.2-1.2,0.3-1.7l0.1-1.4l-0.4,1.4
		c-0.1,0.5-0.3,1-0.5,1.6c-0.1,0.3-0.3,0.6-0.4,0.9c-0.1,0.3-0.3,0.7-0.5,1c-0.8,1.6-1.9,3-3.2,4.2c-0.3,0.3-0.7,0.6-1.1,0.9
		c-0.4,0.2-0.8,0.5-1.2,0.8c-0.4,0.3-0.8,0.6-1.3,0.8c-0.5,0.3-0.9,0.5-1.4,0.7c-0.9,0.5-1.9,0.8-2.9,1.1c-1,0.3-2,0.5-3,0.7
		c-1.8,0.3-3.6,0.6-5.4,0.7c-0.9,0-1.8,0.1-2.7,0.1c0,0.2-0.1,0.3-0.1,0.5C83.9,192.5,84.8,192.6,85.7,192.6z"/>
</g>
</svg>
